<?xml version="1.0" encoding="UTF-8" standalone="no"?>
<svg
   xmlns:dc="http://purl.org/dc/elements/1.1/"
   xmlns:cc="http://creativecommons.org/ns#"
   xmlns:rdf="http://www.w3.org/1999/02/22-rdf-syntax-ns#"
   xmlns:svg="http://www.w3.org/2000/svg"
   xmlns="http://www.w3.org/2000/svg"
   xmlns:sodipodi="http://sodipodi.sourceforge.net/DTD/sodipodi-0.dtd"
   xmlns:inkscape="http://www.inkscape.org/namespaces/inkscape"
   viewBox="0 0 1282 300.00002"
   version="1.1"
   id="svg38"
   sodipodi:docname="v6_2.svg"
   width="1282"
   height="300"
   inkscape:version="0.92.5 (2060ec1f9f, 2020-04-08)">
  <metadata
     id="metadata42">
    <rdf:RDF>
      <cc:Work
         rdf:about="">
        <dc:format>image/svg+xml</dc:format>
        <dc:type
           rdf:resource="http://purl.org/dc/dcmitype/StillImage" />
        <dc:title>10</dc:title>
      </cc:Work>
    </rdf:RDF>
  </metadata>
  <sodipodi:namedview
     pagecolor="#ffffff"
     bordercolor="#666666"
     borderopacity="1"
     objecttolerance="10"
     gridtolerance="10"
     guidetolerance="10"
     inkscape:pageopacity="0"
     inkscape:pageshadow="2"
     inkscape:window-width="1920"
     inkscape:window-height="1017"
     id="namedview40"
     showgrid="false"
     inkscape:zoom="0.40327184"
     inkscape:cx="-124.12157"
     inkscape:cy="256.46037"
     inkscape:window-x="-8"
     inkscape:window-y="-8"
     inkscape:window-maximized="1"
     inkscape:current-layer="svg38" />
  <defs
     id="defs4">
    <style
       id="style2">.cls-1{fill:#1f8ebe;}</style>
  </defs>
  <title
     id="title6">10</title>
  <path
     class="cls-1"
     d="M 1276.83,146.67 H 7.17 a 2.39,2.39 0 1 1 0,-4.77 h 1269.66 a 2.39,2.39 0 1 1 0,4.77 z"
     id="path8"
     inkscape:connector-curvature="0"
     style="fill:#1f8ebe" />
  <path
     transform="translate(2,122.58)"
     style="fill:#1f8ebe"
     d="M 20.95,41.19 24.2,37.7 7,21.71 24.2,5.71 20.95,2.23 0,21.71 Z"
     id="polygon10" />
  <path
     transform="translate(2,122.58)"
     style="fill:#1f8ebe"
     d="m 1259.05,41.19 -3.25,-3.49 17.21,-15.99 -17.21,-16 3.25,-3.48 20.95,19.48 z"
     id="polygon12" />
  <path
     class="cls-1"
     d="m 65.470002,166 a 2.39,2.39 0 0 1 -2.38,-2.42 v -38.62 a 2.38,2.38 0 1 1 4.76,0 v 38.62 a 2.38,2.38 0 0 1 -2.38,2.42 z"
     id="path14"
     inkscape:connector-curvature="0"
     style="fill:#1f8ebe" />
  <path
     class="cls-1"
     d="m 526.68823,166 a 2.39,2.39 0 0 1 -2.38,-2.42 v -38.62 a 2.39,2.39 0 0 1 4.77,0 v 38.62 a 2.39,2.39 0 0 1 -2.39,2.42 z"
     id="path16"
     inkscape:connector-curvature="0"
     style="fill:#1f8ebe" />
  <path
     class="cls-1"
     d="m 411.39629,166 a 2.38,2.38 0 0 1 -2.39,-2.42 v -38.62 a 2.38,2.38 0 1 1 4.76,0 v 38.62 a 2.39,2.39 0 0 1 -2.37,2.42 z"
     id="path18"
     inkscape:connector-curvature="0"
     style="fill:#1f8ebe" />
  <path
     class="cls-1"
     d="m 296.07419,166 a 2.39,2.39 0 0 1 -2.38,-2.42 v -38.62 a 2.39,2.39 0 0 1 4.77,0 v 38.62 a 2.39,2.39 0 0 1 -2.39,2.42 z"
     id="path20"
     inkscape:connector-curvature="0"
     style="fill:#1f8ebe" />
  <path
     class="cls-1"
     d="m 180.77224,166 a 2.38,2.38 0 0 1 -2.38,-2.42 v -38.62 a 2.38,2.38 0 1 1 4.76,0 v 38.62 a 2.39,2.39 0 0 1 -2.38,2.42 z"
     id="path22"
     inkscape:connector-curvature="0"
     style="fill:#1f8ebe" />
  <path
     class="cls-1"
     d="m 987.92644,166 a 2.39,2.39 0 0 1 -2.39,-2.42 v -38.62 a 2.39,2.39 0 0 1 4.77,0 v 38.62 a 2.39,2.39 0 0 1 -2.38,2.42 z"
     id="path24"
     inkscape:connector-curvature="0"
     style="fill:#1f8ebe" />
  <path
     class="cls-1"
     d="m 872.61438,166 a 2.39,2.39 0 0 1 -2.38,-2.42 v -38.62 a 2.38,2.38 0 1 1 4.76,0 v 38.62 a 2.38,2.38 0 0 1 -2.38,2.42 z"
     id="path26"
     inkscape:connector-curvature="0"
     style="fill:#1f8ebe" />
  <path
     class="cls-1"
     d="m 757.31243,166 a 2.39,2.39 0 0 1 -2.39,-2.42 v -38.62 a 2.39,2.39 0 0 1 4.77,0 v 38.62 a 2.39,2.39 0 0 1 -2.38,2.42 z"
     id="path28"
     inkscape:connector-curvature="0"
     style="fill:#1f8ebe" />
  <path
     class="cls-1"
     d="m 642.00033,166 a 2.38,2.38 0 0 1 -2.38,-2.42 v -38.62 a 2.38,2.38 0 0 1 4.76,0 v 38.62 a 2.38,2.38 0 0 1 -2.38,2.42 z"
     id="path30"
     inkscape:connector-curvature="0"
     style="fill:#1f8ebe" />
  <path
     class="cls-1"
     d="m 1103.2281,166 a 2.39,2.39 0 0 1 -2.38,-2.39 v -38.65 a 2.38,2.38 0 1 1 4.76,0 v 38.62 a 2.38,2.38 0 0 1 -2.38,2.42 z"
     id="path32"
     inkscape:connector-curvature="0"
     style="fill:#1f8ebe" />
  <path
     class="cls-1"
     d="m 1218.5302,166 a 2.38,2.38 0 0 1 -2.38,-2.39 v -38.65 a 2.38,2.38 0 0 1 4.76,0 v 38.62 a 2.39,2.39 0 0 1 -2.38,2.42 z"
     id="path34"
     inkscape:connector-curvature="0"
     style="fill:#1f8ebe" />
  <g
     aria-label="11 520"
     style="font-style:normal;font-variant:normal;font-weight:500;font-stretch:normal;font-size:48px;line-height:1.25;font-family:quicksand;-inkscape-font-specification:'quicksand, Medium';font-variant-ligatures:normal;font-variant-caps:normal;font-variant-numeric:normal;font-feature-settings:normal;text-align:start;letter-spacing:0px;word-spacing:0px;writing-mode:lr-tb;text-anchor:start;fill:#363026;fill-opacity:1;stroke:none;stroke-width:1.19257057"
     id="text880">
    <path
       d="m 20.706032,217.65192 q -0.912,0 -1.488,-0.576 -0.576,-0.576 -0.576,-1.392 v -27.312 l 0.576,0.672 -5.568,3.36 q -0.432,0.24 -0.96,0.24 -0.816,0 -1.392,-0.624 -0.576,-0.672 -0.576,-1.344 0,-1.056 1.008,-1.68 l 7.824,-4.656 q 0.576,-0.336 1.44,-0.288 0.816,0 1.296,0.576 0.48,0.528 0.48,1.344 v 29.712 q 0,0.816 -0.576,1.392 -0.576,0.576 -1.488,0.576 z"
       style="font-style:normal;font-variant:normal;font-weight:500;font-stretch:normal;font-size:48px;font-family:quicksand;-inkscape-font-specification:'quicksand, Medium';font-variant-ligatures:normal;font-variant-caps:normal;font-variant-numeric:normal;font-feature-settings:normal;text-align:start;writing-mode:lr-tb;text-anchor:start;fill:#363026;fill-opacity:1;stroke-width:1.19257057"
       id="path927" />
    <path
       d="m 37.206032,217.65192 q -0.912,0 -1.488,-0.576 -0.576,-0.576 -0.576,-1.392 v -27.312 l 0.576,0.672 -5.568,3.36 q -0.432,0.24 -0.96,0.24 -0.816,0 -1.392,-0.624 -0.576,-0.672 -0.576,-1.344 0,-1.056 1.008,-1.68 l 7.824,-4.656 q 0.576,-0.336 1.44,-0.288 0.816,0 1.296,0.576 0.48,0.528 0.48,1.344 v 29.712 q 0,0.816 -0.576,1.392 -0.576,0.576 -1.488,0.576 z"
       style="font-style:normal;font-variant:normal;font-weight:500;font-stretch:normal;font-size:48px;font-family:quicksand;-inkscape-font-specification:'quicksand, Medium';font-variant-ligatures:normal;font-variant-caps:normal;font-variant-numeric:normal;font-feature-settings:normal;text-align:start;writing-mode:lr-tb;text-anchor:start;fill:#363026;fill-opacity:1;stroke-width:1.19257057"
       id="path929" />
    <path
       d="m 67.692782,217.84392 q -1.92,0 -3.936,-0.576 -1.968,-0.624 -3.456,-1.824 -0.384,-0.336 -0.624,-0.864 -0.24,-0.528 -0.24,-1.008 0,-0.576 0.48,-1.104 0.528,-0.576 1.344,-0.576 0.624,0 1.44,0.624 1.056,0.816 2.352,1.296 1.296,0.48 2.592,0.48 2.544,0 4.512,-1.056 1.968,-1.056 3.072,-2.88 1.152,-1.872 1.152,-4.176 0,-2.208 -1.008,-3.84 -0.96,-1.68 -2.736,-2.592 -1.728,-0.912 -3.984,-0.912 -1.68,0 -3.024,0.528 -1.344,0.48 -2.304,1.008 -0.96,0.528 -1.584,0.528 -0.912,0 -1.44,-0.384 -0.528,-0.432 -0.72,-1.056 -0.144,-0.624 -0.048,-1.152 l 1.872,-12.72 q 0.144,-0.624 0.672,-1.056 0.528,-0.48 1.296,-0.48 h 14.256 q 0.768,0 1.296,0.528 0.528,0.528 0.528,1.296 0,0.768 -0.528,1.296 -0.528,0.528 -1.296,0.528 h -13.296 l 0.48,-0.432 -1.776,11.088 -0.768,-1.008 q 0.528,-0.48 1.584,-0.96 1.104,-0.48 2.496,-0.816 1.44,-0.336 2.928,-0.336 3.12,0 5.568,1.44 2.496,1.392 3.936,3.84 1.44,2.448 1.44,5.616 0,2.544 -0.96,4.704 -0.912,2.112 -2.64,3.696 -1.68,1.584 -3.984,2.448 -2.256,0.864 -4.944,0.864 z"
       style="font-style:normal;font-variant:normal;font-weight:500;font-stretch:normal;font-size:48px;font-family:quicksand;-inkscape-font-specification:'quicksand, Medium';font-variant-ligatures:normal;font-variant-caps:normal;font-variant-numeric:normal;font-feature-settings:normal;text-align:start;writing-mode:lr-tb;text-anchor:start;fill:#363026;fill-opacity:1;stroke-width:1.19257057"
       id="path931" />
    <path
       d="m 106.50528,214.05192 q 0.768,0 1.296,0.528 0.528,0.528 0.528,1.296 0,0.768 -0.528,1.296 -0.528,0.48 -1.296,0.48 H 89.081282 q -0.864,0 -1.44,-0.48 -0.528,-0.528 -0.528,-1.392 0,-0.768 0.576,-1.392 l 10.848,-11.856 q 2.351998,-2.496 3.599998,-4.656 1.248,-2.208 1.248,-4.272 0,-1.968 -0.864,-3.408 -0.816,-1.44 -2.304,-2.208 -1.487998,-0.816 -3.503998,-0.816 -1.92,0 -3.696,1.008 -1.728,1.008 -2.736,3.12 -0.336,0.528 -0.768,0.768 -0.384,0.192 -0.816,0.192 -0.672,0 -1.296,-0.48 -0.624,-0.528 -0.624,-1.2 0,-0.528 0.288,-1.008 0.336,-0.48 0.768,-1.008 1.488,-2.4 3.984,-3.696 2.496,-1.296 5.136,-1.296 3.263998,0 5.567998,1.248 2.352,1.248 3.552,3.504 1.248,2.208 1.248,5.04 0,1.824 -0.672,3.744 -0.624,1.872 -1.968,3.888 -1.344,2.016 -3.408,4.224 l -8.399998,9.312 -0.48,-0.48 z"
       style="font-style:normal;font-variant:normal;font-weight:500;font-stretch:normal;font-size:48px;font-family:quicksand;-inkscape-font-specification:'quicksand, Medium';font-variant-ligatures:normal;font-variant-caps:normal;font-variant-numeric:normal;font-feature-settings:normal;text-align:start;writing-mode:lr-tb;text-anchor:start;fill:#363026;fill-opacity:1;stroke-width:1.19257057"
       id="path933" />
    <path
       d="m 124.68003,218.13192 q -3.984,0 -6.672,-2.256 -2.64,-2.256 -4.032,-6.192 -1.344,-3.936 -1.344,-8.832 0,-4.992 1.344,-8.88 1.392,-3.888 4.032,-6.144 2.688,-2.256 6.672,-2.256 3.984,0 6.624,2.256 2.688,2.256 4.032,6.144 1.344,3.888 1.344,8.88 0,4.896 -1.344,8.832 -1.344,3.936 -4.032,6.192 -2.64,2.256 -6.624,2.256 z m 0,-3.888 q 2.544,0 4.272,-1.632 1.776,-1.632 2.688,-4.608 0.912,-3.024 0.912,-7.152 0,-4.176 -0.912,-7.152 -0.912,-3.024 -2.688,-4.608 -1.728,-1.632 -4.272,-1.632 -2.544,0 -4.32,1.632 -1.728,1.584 -2.688,4.608 -0.912,2.976 -0.912,7.152 0,4.128 0.912,7.152 0.96,2.976 2.688,4.608 1.776,1.632 4.32,1.632 z"
       style="font-style:normal;font-variant:normal;font-weight:500;font-stretch:normal;font-size:48px;font-family:quicksand;-inkscape-font-specification:'quicksand, Medium';font-variant-ligatures:normal;font-variant-caps:normal;font-variant-numeric:normal;font-feature-settings:normal;text-align:start;writing-mode:lr-tb;text-anchor:start;fill:#363026;fill-opacity:1;stroke-width:1.19257057"
       id="path935" />
  </g>
  <g
     aria-label="11 720"
     style="font-style:normal;font-variant:normal;font-weight:500;font-stretch:normal;font-size:48px;line-height:1.25;font-family:quicksand;-inkscape-font-specification:'quicksand, Medium';font-variant-ligatures:normal;font-variant-caps:normal;font-variant-numeric:normal;font-feature-settings:normal;text-align:start;letter-spacing:0px;word-spacing:0px;writing-mode:lr-tb;text-anchor:start;fill:#363026;fill-opacity:1;stroke:none;stroke-width:1.19257057"
     id="text884">
    <path
       d="m 1152.5111,217.77118 q -0.912,0 -1.488,-0.576 -0.576,-0.576 -0.576,-1.392 v -27.312 l 0.576,0.672 -5.568,3.36 q -0.432,0.24 -0.96,0.24 -0.816,0 -1.392,-0.624 -0.576,-0.672 -0.576,-1.344 0,-1.056 1.008,-1.68 l 7.824,-4.656 q 0.576,-0.336 1.44,-0.288 0.816,0 1.296,0.576 0.48,0.528 0.48,1.344 v 29.712 q 0,0.816 -0.576,1.392 -0.576,0.576 -1.488,0.576 z"
       style="font-style:normal;font-variant:normal;font-weight:500;font-stretch:normal;font-size:48px;font-family:quicksand;-inkscape-font-specification:'quicksand, Medium';font-variant-ligatures:normal;font-variant-caps:normal;font-variant-numeric:normal;font-feature-settings:normal;text-align:start;writing-mode:lr-tb;text-anchor:start;fill:#363026;fill-opacity:1;stroke-width:1.19257057"
       id="path916" />
    <path
       d="m 1169.0111,217.77118 q -0.912,0 -1.488,-0.576 -0.576,-0.576 -0.576,-1.392 v -27.312 l 0.576,0.672 -5.568,3.36 q -0.432,0.24 -0.96,0.24 -0.816,0 -1.392,-0.624 -0.576,-0.672 -0.576,-1.344 0,-1.056 1.008,-1.68 l 7.824,-4.656 q 0.576,-0.336 1.44,-0.288 0.816,0 1.296,0.576 0.48,0.528 0.48,1.344 v 29.712 q 0,0.816 -0.576,1.392 -0.576,0.576 -1.488,0.576 z"
       style="font-style:normal;font-variant:normal;font-weight:500;font-stretch:normal;font-size:48px;font-family:quicksand;-inkscape-font-specification:'quicksand, Medium';font-variant-ligatures:normal;font-variant-caps:normal;font-variant-numeric:normal;font-feature-settings:normal;text-align:start;writing-mode:lr-tb;text-anchor:start;fill:#363026;fill-opacity:1;stroke-width:1.19257057"
       id="path918" />
    <path
       d="m 1197.5299,217.91518 q -0.768,0 -1.392,-0.48 -0.624,-0.528 -0.624,-1.344 0,-0.432 0.192,-0.864 l 12.432,-28.32 0.528,0.864 h -15.456 q -0.768,0 -1.296,-0.528 -0.528,-0.528 -0.528,-1.296 0,-0.768 0.528,-1.248 0.528,-0.528 1.296,-0.528 h 17.328 q 0.912,0 1.44,0.528 0.528,0.48 0.528,1.296 0,0.48 -0.192,0.912 l -13.008,29.808 q -0.192,0.576 -0.72,0.912 -0.48,0.288 -1.056,0.288 z"
       style="font-style:normal;font-variant:normal;font-weight:500;font-stretch:normal;font-size:48px;font-family:quicksand;-inkscape-font-specification:'quicksand, Medium';font-variant-ligatures:normal;font-variant-caps:normal;font-variant-numeric:normal;font-feature-settings:normal;text-align:start;writing-mode:lr-tb;text-anchor:start;fill:#363026;fill-opacity:1;stroke-width:1.19257057"
       id="path920" />
    <path
       d="m 1237.1854,214.17118 q 0.768,0 1.296,0.528 0.528,0.528 0.528,1.296 0,0.768 -0.528,1.296 -0.528,0.48 -1.296,0.48 h -17.424 q -0.864,0 -1.44,-0.48 -0.528,-0.528 -0.528,-1.392 0,-0.768 0.576,-1.392 l 10.848,-11.856 q 2.352,-2.496 3.6,-4.656 1.248,-2.208 1.248,-4.272 0,-1.968 -0.864,-3.408 -0.816,-1.44 -2.304,-2.208 -1.488,-0.816 -3.504,-0.816 -1.92,0 -3.696,1.008 -1.728,1.008 -2.736,3.12 -0.336,0.528 -0.768,0.768 -0.384,0.192 -0.816,0.192 -0.672,0 -1.296,-0.48 -0.624,-0.528 -0.624,-1.2 0,-0.528 0.288,-1.008 0.336,-0.48 0.768,-1.008 1.488,-2.4 3.984,-3.696 2.496,-1.296 5.136,-1.296 3.264,0 5.568,1.248 2.352,1.248 3.552,3.504 1.248,2.208 1.248,5.04 0,1.824 -0.672,3.744 -0.624,1.872 -1.968,3.888 -1.344,2.016 -3.408,4.224 l -8.4,9.312 -0.48,-0.48 z"
       style="font-style:normal;font-variant:normal;font-weight:500;font-stretch:normal;font-size:48px;font-family:quicksand;-inkscape-font-specification:'quicksand, Medium';font-variant-ligatures:normal;font-variant-caps:normal;font-variant-numeric:normal;font-feature-settings:normal;text-align:start;writing-mode:lr-tb;text-anchor:start;fill:#363026;fill-opacity:1;stroke-width:1.19257057"
       id="path922" />
    <path
       d="m 1255.3601,218.25118 q -3.984,0 -6.672,-2.256 -2.64,-2.256 -4.032,-6.192 -1.344,-3.936 -1.344,-8.832 0,-4.992 1.344,-8.88 1.392,-3.888 4.032,-6.144 2.688,-2.256 6.672,-2.256 3.984,0 6.624,2.256 2.688,2.256 4.032,6.144 1.344,3.888 1.344,8.88 0,4.896 -1.344,8.832 -1.344,3.936 -4.032,6.192 -2.64,2.256 -6.624,2.256 z m 0,-3.888 q 2.544,0 4.272,-1.632 1.776,-1.632 2.688,-4.608 0.912,-3.024 0.912,-7.152 0,-4.176 -0.912,-7.152 -0.912,-3.024 -2.688,-4.608 -1.728,-1.632 -4.272,-1.632 -2.544,0 -4.32,1.632 -1.728,1.584 -2.688,4.608 -0.912,2.976 -0.912,7.152 0,4.128 0.912,7.152 0.96,2.976 2.688,4.608 1.776,1.632 4.32,1.632 z"
       style="font-style:normal;font-variant:normal;font-weight:500;font-stretch:normal;font-size:48px;font-family:quicksand;-inkscape-font-specification:'quicksand, Medium';font-variant-ligatures:normal;font-variant-caps:normal;font-variant-numeric:normal;font-feature-settings:normal;text-align:start;writing-mode:lr-tb;text-anchor:start;fill:#363026;fill-opacity:1;stroke-width:1.19257057"
       id="path924" />
  </g>
  <g
     aria-label="11 620"
     style="font-style:normal;font-variant:normal;font-weight:500;font-stretch:normal;font-size:48px;line-height:1.25;font-family:quicksand;-inkscape-font-specification:'quicksand, Medium';font-variant-ligatures:normal;font-variant-caps:normal;font-variant-numeric:normal;font-feature-settings:normal;text-align:start;letter-spacing:0px;word-spacing:0px;writing-mode:lr-tb;text-anchor:start;fill:#363026;fill-opacity:1;stroke:none;stroke-width:1.19257057"
     id="text888">
    <path
       d="m 589.29346,239.96938 q -0.912,0 -1.488,-0.576 -0.576,-0.576 -0.576,-1.392 v -27.312 l 0.576,0.672 -5.568,3.36 q -0.432,0.24 -0.96,0.24 -0.816,0 -1.392,-0.624 -0.576,-0.672 -0.576,-1.344 0,-1.056 1.008,-1.68 l 7.824,-4.656 q 0.576,-0.336 1.44,-0.288 0.816,0 1.296,0.576 0.48,0.528 0.48,1.344 v 29.712 q 0,0.816 -0.576,1.392 -0.576,0.576 -1.488,0.576 z"
       style="font-style:normal;font-variant:normal;font-weight:500;font-stretch:normal;font-size:48px;font-family:quicksand;-inkscape-font-specification:'quicksand, Medium';font-variant-ligatures:normal;font-variant-caps:normal;font-variant-numeric:normal;font-feature-settings:normal;text-align:start;writing-mode:lr-tb;text-anchor:start;fill:#363026;fill-opacity:1;stroke-width:1.19257057"
       id="path905" />
    <path
       d="m 605.79346,239.96938 q -0.912,0 -1.488,-0.576 -0.576,-0.576 -0.576,-1.392 v -27.312 l 0.576,0.672 -5.568,3.36 q -0.432,0.24 -0.96,0.24 -0.816,0 -1.392,-0.624 -0.576,-0.672 -0.576,-1.344 0,-1.056 1.008,-1.68 l 7.824,-4.656 q 0.576,-0.336 1.44,-0.288 0.816,0 1.296,0.576 0.48,0.528 0.48,1.344 v 29.712 q 0,0.816 -0.576,1.392 -0.576,0.576 -1.488,0.576 z"
       style="font-style:normal;font-variant:normal;font-weight:500;font-stretch:normal;font-size:48px;font-family:quicksand;-inkscape-font-specification:'quicksand, Medium';font-variant-ligatures:normal;font-variant-caps:normal;font-variant-numeric:normal;font-feature-settings:normal;text-align:start;writing-mode:lr-tb;text-anchor:start;fill:#363026;fill-opacity:1;stroke-width:1.19257057"
       id="path907" />
    <path
       d="m 638.82421,240.44938 q -2.736,0 -4.848,-1.008 -2.064,-1.056 -3.456,-2.832 -1.392,-1.776 -2.112,-3.984 -0.72,-2.208 -0.72,-4.56 0,-2.064 0.528,-4.608 0.528,-2.544 1.584,-5.184 1.104,-2.688 2.832,-5.136 1.728,-2.448 4.128,-4.368 2.4,-1.968 5.52,-3.024 0.432,-0.096 0.768,-0.096 0.768,0 1.344,0.432 0.624,0.384 0.624,1.44 0,0.672 -0.432,1.2 -0.432,0.48 -1.152,0.72 -1.92,0.72 -3.792,2.112 -1.824,1.344 -3.408,3.216 -1.536,1.824 -2.688,3.984 -1.104,2.112 -1.536,4.416 l -1.152,0.384 q 0.816,-1.296 2.064,-2.448 1.248,-1.152 2.88,-1.872 1.68,-0.72 3.648,-0.72 2.112,0 3.936,0.912 1.824,0.912 3.216,2.448 1.392,1.536 2.16,3.552 0.816,1.968 0.816,4.128 0,2.928 -1.44,5.424 -1.392,2.448 -3.84,3.984 -2.4,1.488 -5.472,1.488 z m -0.048,-3.6 q 1.968,0 3.504,-0.912 1.584,-0.96 2.496,-2.592 0.912,-1.68 0.912,-3.792 0,-1.968 -0.816,-3.648 -0.816,-1.68 -2.352,-2.688 -1.488,-1.056 -3.6,-1.056 -2.256,0 -3.888,1.008 -1.632,1.008 -2.544,2.736 -0.864,1.68 -0.864,3.744 0,1.92 0.864,3.552 0.864,1.632 2.448,2.64 1.632,1.008 3.84,1.008 z"
       style="font-style:normal;font-variant:normal;font-weight:500;font-stretch:normal;font-size:48px;font-family:quicksand;-inkscape-font-specification:'quicksand, Medium';font-variant-ligatures:normal;font-variant-caps:normal;font-variant-numeric:normal;font-feature-settings:normal;text-align:start;writing-mode:lr-tb;text-anchor:start;fill:#363026;fill-opacity:1;stroke-width:1.19257057"
       id="path909" />
    <path
       d="m 674.24896,236.36938 q 0.768,0 1.296,0.528 0.528,0.528 0.528,1.296 0,0.768 -0.528,1.296 -0.528,0.48 -1.296,0.48 h -17.424 q -0.864,0 -1.44,-0.48 -0.528,-0.528 -0.528,-1.392 0,-0.768 0.576,-1.392 l 10.848,-11.856 q 2.352,-2.496 3.6,-4.656 1.248,-2.208 1.248,-4.272 0,-1.968 -0.864,-3.408 -0.816,-1.44 -2.304,-2.208 -1.488,-0.816 -3.504,-0.816 -1.92,0 -3.696,1.008 -1.728,1.008 -2.736,3.12 -0.336,0.528 -0.768,0.768 -0.384,0.192 -0.816,0.192 -0.672,0 -1.296,-0.48 -0.624,-0.528 -0.624,-1.2 0,-0.528 0.288,-1.008 0.336,-0.48 0.768,-1.008 1.488,-2.4 3.984,-3.696 2.496,-1.296 5.136,-1.296 3.264,0 5.568,1.248 2.352,1.248 3.552,3.504 1.248,2.208 1.248,5.04 0,1.824 -0.672,3.744 -0.624,1.872 -1.968,3.888 -1.344,2.016 -3.408,4.224 l -8.4,9.312 -0.48,-0.48 z"
       style="font-style:normal;font-variant:normal;font-weight:500;font-stretch:normal;font-size:48px;font-family:quicksand;-inkscape-font-specification:'quicksand, Medium';font-variant-ligatures:normal;font-variant-caps:normal;font-variant-numeric:normal;font-feature-settings:normal;text-align:start;writing-mode:lr-tb;text-anchor:start;fill:#363026;fill-opacity:1;stroke-width:1.19257057"
       id="path911" />
    <path
       d="m 692.42371,240.44938 q -3.984,0 -6.672,-2.256 -2.64,-2.256 -4.032,-6.192 -1.344,-3.936 -1.344,-8.832 0,-4.992 1.344,-8.88 1.392,-3.888 4.032,-6.144 2.688,-2.256 6.672,-2.256 3.984,0 6.624,2.256 2.688,2.256 4.032,6.144 1.344,3.888 1.344,8.88 0,4.896 -1.344,8.832 -1.344,3.936 -4.032,6.192 -2.64,2.256 -6.624,2.256 z m 0,-3.888 q 2.544,0 4.272,-1.632 1.776,-1.632 2.688,-4.608 0.912,-3.024 0.912,-7.152 0,-4.176 -0.912,-7.152 -0.912,-3.024 -2.688,-4.608 -1.728,-1.632 -4.272,-1.632 -2.544,0 -4.32,1.632 -1.728,1.584 -2.688,4.608 -0.912,2.976 -0.912,7.152 0,4.128 0.912,7.152 0.96,2.976 2.688,4.608 1.776,1.632 4.32,1.632 z"
       style="font-style:normal;font-variant:normal;font-weight:500;font-stretch:normal;font-size:48px;font-family:quicksand;-inkscape-font-specification:'quicksand, Medium';font-variant-ligatures:normal;font-variant-caps:normal;font-variant-numeric:normal;font-feature-settings:normal;text-align:start;writing-mode:lr-tb;text-anchor:start;fill:#363026;fill-opacity:1;stroke-width:1.19257057"
       id="path913" />
  </g>
  <g
     aria-label="+20"
     style="font-style:normal;font-variant:normal;font-weight:500;font-stretch:normal;font-size:48px;line-height:1.25;font-family:quicksand;-inkscape-font-specification:'quicksand, Medium';font-variant-ligatures:normal;font-variant-caps:normal;font-variant-numeric:normal;font-feature-settings:normal;text-align:start;letter-spacing:0px;word-spacing:0px;writing-mode:lr-tb;text-anchor:start;fill:#000000;fill-opacity:1;stroke:none"
     id="text892">
    <path
       d="m 93.684435,55.512239 q -0.816,0 -1.344,-0.528 -0.528,-0.528 -0.528,-1.296 0,-0.768 0.528,-1.248 0.528,-0.528 1.344,-0.528 h 19.680005 q 0.816,0 1.344,0.528 0.528,0.528 0.528,1.296 0,0.768 -0.528,1.296 -0.528,0.48 -1.344,0.48 z m 9.792005,10.032 q -0.864,0 -1.488,-0.576 -0.576,-0.576 -0.576,-1.44 v -19.824 q 0,-0.912 0.576,-1.488 0.624,-0.576 1.536,-0.576 0.912,0 1.44,0.576 0.576,0.576 0.576,1.488 v 19.776 q 0,0.912 -0.576,1.488 -0.576,0.576 -1.488,0.576 z"
       style="font-style:normal;font-variant:normal;font-weight:500;font-stretch:normal;font-size:48px;font-family:quicksand;-inkscape-font-specification:'quicksand, Medium';font-variant-ligatures:normal;font-variant-caps:normal;font-variant-numeric:normal;font-feature-settings:normal;text-align:start;writing-mode:lr-tb;text-anchor:start;fill:#1f8ebe;fill-opacity:1"
       id="path898" />
    <path
       d="m 139.83194,63.048239 q 0.768,0 1.296,0.528 0.528,0.528 0.528,1.296 0,0.768 -0.528,1.296 -0.528,0.48 -1.296,0.48 h -17.424 q -0.864,0 -1.44,-0.48 -0.528,-0.528 -0.528,-1.392 0,-0.768 0.576,-1.392 l 10.848,-11.856 q 2.352,-2.496 3.6,-4.656 1.248,-2.208 1.248,-4.272 0,-1.968 -0.864,-3.408 -0.816,-1.44 -2.304,-2.208 -1.488,-0.816 -3.504,-0.816 -1.92,0 -3.696,1.008 -1.728,1.008 -2.736,3.12 -0.336,0.528 -0.768,0.768 -0.384,0.192 -0.816,0.192 -0.672,0 -1.296,-0.48 -0.624,-0.528 -0.624,-1.2 0,-0.528 0.288,-1.008 0.336,-0.48 0.768,-1.008 1.488,-2.4 3.984,-3.696 2.496,-1.296 5.136,-1.296 3.264,0 5.568,1.248 2.352,1.248 3.552,3.504 1.248,2.208 1.248,5.04 0,1.824 -0.672,3.744 -0.624,1.872 -1.968,3.888 -1.344,2.016 -3.408,4.224 l -8.4,9.312 -0.48,-0.48 z"
       style="font-style:normal;font-variant:normal;font-weight:500;font-stretch:normal;font-size:48px;font-family:quicksand;-inkscape-font-specification:'quicksand, Medium';font-variant-ligatures:normal;font-variant-caps:normal;font-variant-numeric:normal;font-feature-settings:normal;text-align:start;writing-mode:lr-tb;text-anchor:start;fill:#363026;fill-opacity:1"
       id="path900" />
    <path
       d="m 158.00669,67.128239 q -3.984,0 -6.672,-2.256 -2.64,-2.256 -4.032,-6.192 -1.344,-3.936 -1.344,-8.832 0,-4.992 1.344,-8.88 1.392,-3.888 4.032,-6.144 2.688,-2.256 6.672,-2.256 3.984,0 6.624,2.256 2.688,2.256 4.032,6.144 1.344,3.888 1.344,8.88 0,4.896 -1.344,8.832 -1.344,3.936 -4.032,6.192 -2.64,2.256 -6.624,2.256 z m 0,-3.888 q 2.544,0 4.272,-1.632 1.776,-1.632 2.688,-4.608 0.912,-3.024 0.912,-7.152 0,-4.176 -0.912,-7.152 -0.912,-3.024 -2.688,-4.608 -1.728,-1.632 -4.272,-1.632 -2.544,0 -4.32,1.632 -1.728,1.584 -2.688,4.608 -0.912,2.976 -0.912,7.152 0,4.128 0.912,7.152 0.96,2.976 2.688,4.608 1.776,1.632 4.32,1.632 z"
       style="font-style:normal;font-variant:normal;font-weight:500;font-stretch:normal;font-size:48px;font-family:quicksand;-inkscape-font-specification:'quicksand, Medium';font-variant-ligatures:normal;font-variant-caps:normal;font-variant-numeric:normal;font-feature-settings:normal;text-align:start;writing-mode:lr-tb;text-anchor:start;fill:#363026;fill-opacity:1"
       id="path902" />
  </g>
  <path
     style="fill:none;stroke:#1f8ebe;stroke-width:3.507;stroke-linecap:round;stroke-linejoin:miter;stroke-miterlimit:4;stroke-dasharray:none;stroke-opacity:1"
     d="m 76.05243,107.61749 c 20.888333,-26.712289 45.46101,-35.276909 66.9452,-22.86821 9.43743,5.450804 18.27889,14.948629 25.95031,28.73299"
     id="path908"
     inkscape:connector-curvature="0"
     sodipodi:nodetypes="csc" />
  <path
     transform="matrix(-0.41154613,-0.31614636,0.30648345,-0.32688107,167.17501,122.79188)"
     style="fill:#1f8ebe;stroke:#1f8ebe;stroke-width:1.57589662;stroke-miterlimit:4;stroke-dasharray:none;stroke-opacity:1"
     d="M 0,21.71 20.95,41.19 24.2,37.7 7,21.71 24.2,5.71 20.95,2.23 Z"
     id="polygon10-1" />
  <path
     style="fill:none;stroke:#1f8ebe;stroke-width:3.50704694;stroke-linecap:round;stroke-linejoin:miter;stroke-miterlimit:4;stroke-dasharray:none;stroke-opacity:1"
     d="m 191.49568,107.61748 c 20.88832,-26.712279 45.46102,-35.276899 66.94521,-22.8682 9.43742,5.450804 18.27889,14.94863 25.9503,28.73299"
     id="path908-7"
     inkscape:connector-curvature="0"
     sodipodi:nodetypes="csc" />
  <path
     transform="matrix(-0.41154613,-0.31614636,0.30648345,-0.32688107,282.61826,122.79188)"
     style="fill:#1f8ebe;stroke:#1f8ebe;stroke-width:1.57589662;stroke-miterlimit:4;stroke-dasharray:none;stroke-opacity:1"
     d="M 7,21.71 24.2,5.71 20.95,2.23 0,21.71 20.95,41.19 24.2,37.7 Z"
     id="polygon10-1-1" />
  <path
     style="fill:none;stroke:#1f8ebe;stroke-width:3.50704694;stroke-linecap:round;stroke-linejoin:miter;stroke-miterlimit:4;stroke-dasharray:none;stroke-opacity:1"
     d="m 306.93892,107.61748 c 20.88831,-26.712279 45.46101,-35.276899 66.94521,-22.8682 9.43742,5.450804 18.27888,14.94863 25.95029,28.73299"
     id="path908-74"
     inkscape:connector-curvature="0"
     sodipodi:nodetypes="csc" />
  <path
     transform="matrix(-0.41154613,-0.31614636,0.30648345,-0.32688107,398.06149,122.79188)"
     style="fill:#1f8ebe;stroke:#1f8ebe;stroke-width:1.57589662;stroke-miterlimit:4;stroke-dasharray:none;stroke-opacity:1"
     d="M 7,21.71 24.2,5.71 20.95,2.23 0,21.71 20.95,41.19 24.2,37.7 Z"
     id="polygon10-1-18" />
  <path
     style="fill:none;stroke:#1f8ebe;stroke-width:3.50704694;stroke-linecap:round;stroke-linejoin:miter;stroke-miterlimit:4;stroke-dasharray:none;stroke-opacity:1"
     d="m 422.38216,107.61748 c 20.88832,-26.712279 45.46102,-35.276899 66.94521,-22.8682 9.43743,5.450804 18.27889,14.94863 25.9503,28.73299"
     id="path908-74-1"
     inkscape:connector-curvature="0"
     sodipodi:nodetypes="csc" />
  <path
     transform="matrix(-0.41154613,-0.31614636,0.30648345,-0.32688107,512.62391,124.57886)"
     style="fill:#1f8ebe;stroke:#1f8ebe;stroke-width:1.57589662;stroke-miterlimit:4;stroke-dasharray:none;stroke-opacity:1"
     d="M 24.2,5.71 20.95,2.23 0,21.71 20.95,41.19 24.2,37.7 7,21.71 Z"
     id="polygon10-1-18-8" />
  <path
     style="fill:none;stroke:#1f8ebe;stroke-width:3.50704694;stroke-linecap:round;stroke-linejoin:miter;stroke-miterlimit:4;stroke-dasharray:none;stroke-opacity:1"
     d="m 537.82543,107.61748 c 20.88833,-26.71228 45.46102,-35.2769 66.94521,-22.868201 9.43743,5.450804 18.27889,14.948631 25.9503,28.732991"
     id="path908-74-4"
     inkscape:connector-curvature="0"
     sodipodi:nodetypes="csc" />
  <path
     transform="matrix(-0.41154613,-0.31614636,0.30648345,-0.32688107,628.94801,124.79188)"
     style="fill:#1f8ebe;stroke:#1f8ebe;stroke-width:1.57589662;stroke-miterlimit:4;stroke-dasharray:none;stroke-opacity:1"
     d="M 20.95,2.23 0,21.71 20.95,41.19 24.2,37.7 7,21.71 24.2,5.71 Z"
     id="polygon10-1-18-7" />
  <g
     aria-label="+20"
     style="font-style:normal;font-variant:normal;font-weight:500;font-stretch:normal;font-size:48px;line-height:1.25;font-family:quicksand;-inkscape-font-specification:'quicksand, Medium';font-variant-ligatures:normal;font-variant-caps:normal;font-variant-numeric:normal;font-feature-settings:normal;text-align:start;letter-spacing:0px;word-spacing:0px;writing-mode:lr-tb;text-anchor:start;fill:#000000;fill-opacity:1;stroke:none"
     id="text892-1">
    <path
       d="m 322.41457,55.512239 q -0.816,0 -1.344,-0.528 -0.528,-0.528 -0.528,-1.296 0,-0.768 0.528,-1.248 0.528,-0.528 1.344,-0.528 h 19.68 q 0.816,0 1.344,0.528 0.528,0.528 0.528,1.296 0,0.768 -0.528,1.296 -0.528,0.48 -1.344,0.48 z m 9.792,10.032 q -0.864,0 -1.488,-0.576 -0.576,-0.576 -0.576,-1.44 v -19.824 q 0,-0.912 0.576,-1.488 0.624,-0.576 1.536,-0.576 0.912,0 1.44,0.576 0.576,0.576 0.576,1.488 v 19.776 q 0,0.912 -0.576,1.488 -0.576,0.576 -1.488,0.576 z"
       style="font-style:normal;font-variant:normal;font-weight:500;font-stretch:normal;font-size:48px;font-family:quicksand;-inkscape-font-specification:'quicksand, Medium';font-variant-ligatures:normal;font-variant-caps:normal;font-variant-numeric:normal;font-feature-settings:normal;text-align:start;writing-mode:lr-tb;text-anchor:start;fill:#1f8ebe;fill-opacity:1"
       id="path886" />
    <path
       d="m 368.56207,63.048239 q 0.768,0 1.296,0.528 0.528,0.528 0.528,1.296 0,0.768 -0.528,1.296 -0.528,0.48 -1.296,0.48 h -17.424 q -0.864,0 -1.44,-0.48 -0.528,-0.528 -0.528,-1.392 0,-0.768 0.576,-1.392 l 10.848,-11.856 q 2.352,-2.496 3.6,-4.656 1.248,-2.208 1.248,-4.272 0,-1.968 -0.864,-3.408 -0.816,-1.44 -2.304,-2.208 -1.488,-0.816 -3.504,-0.816 -1.92,0 -3.696,1.008 -1.728,1.008 -2.736,3.12 -0.336,0.528 -0.768,0.768 -0.384,0.192 -0.816,0.192 -0.672,0 -1.296,-0.48 -0.624,-0.528 -0.624,-1.2 0,-0.528 0.288,-1.008 0.336,-0.48 0.768,-1.008 1.488,-2.4 3.984,-3.696 2.496,-1.296 5.136,-1.296 3.264,0 5.568,1.248 2.352,1.248 3.552,3.504 1.248,2.208 1.248,5.04 0,1.824 -0.672,3.744 -0.624,1.872 -1.968,3.888 -1.344,2.016 -3.408,4.224 l -8.4,9.312 -0.48,-0.48 z"
       style="font-style:normal;font-variant:normal;font-weight:500;font-stretch:normal;font-size:48px;font-family:quicksand;-inkscape-font-specification:'quicksand, Medium';font-variant-ligatures:normal;font-variant-caps:normal;font-variant-numeric:normal;font-feature-settings:normal;text-align:start;writing-mode:lr-tb;text-anchor:start;fill:#363026;fill-opacity:1"
       id="path888" />
    <path
       d="m 386.73682,67.128239 q -3.984,0 -6.672,-2.256 -2.64,-2.256 -4.032,-6.192 -1.344,-3.936 -1.344,-8.832 0,-4.992 1.344,-8.88 1.392,-3.888 4.032,-6.144 2.688,-2.256 6.672,-2.256 3.984,0 6.624,2.256 2.688,2.256 4.032,6.144 1.344,3.888 1.344,8.88 0,4.896 -1.344,8.832 -1.344,3.936 -4.032,6.192 -2.64,2.256 -6.624,2.256 z m 0,-3.888 q 2.544,0 4.272,-1.632 1.776,-1.632 2.688,-4.608 0.912,-3.024 0.912,-7.152 0,-4.176 -0.912,-7.152 -0.912,-3.024 -2.688,-4.608 -1.728,-1.632 -4.272,-1.632 -2.544,0 -4.32,1.632 -1.728,1.584 -2.688,4.608 -0.912,2.976 -0.912,7.152 0,4.128 0.912,7.152 0.96,2.976 2.688,4.608 1.776,1.632 4.32,1.632 z"
       style="font-style:normal;font-variant:normal;font-weight:500;font-stretch:normal;font-size:48px;font-family:quicksand;-inkscape-font-specification:'quicksand, Medium';font-variant-ligatures:normal;font-variant-caps:normal;font-variant-numeric:normal;font-feature-settings:normal;text-align:start;writing-mode:lr-tb;text-anchor:start;fill:#363026;fill-opacity:1"
       id="path890" />
  </g>
  <g
     aria-label="+20"
     style="font-style:normal;font-variant:normal;font-weight:500;font-stretch:normal;font-size:48px;line-height:1.25;font-family:quicksand;-inkscape-font-specification:'quicksand, Medium';font-variant-ligatures:normal;font-variant-caps:normal;font-variant-numeric:normal;font-feature-settings:normal;text-align:start;letter-spacing:0px;word-spacing:0px;writing-mode:lr-tb;text-anchor:start;fill:#000000;fill-opacity:1;stroke:none"
     id="text892-8">
    <path
       d="m 436.77962,55.512239 q -0.816,0 -1.344,-0.528 -0.528,-0.528 -0.528,-1.296 0,-0.768 0.528,-1.248 0.528,-0.528 1.344,-0.528 h 19.68 q 0.816,0 1.344,0.528 0.528,0.528 0.528,1.296 0,0.768 -0.528,1.296 -0.528,0.48 -1.344,0.48 z m 9.792,10.032 q -0.864,0 -1.488,-0.576 -0.576,-0.576 -0.576,-1.44 v -19.824 q 0,-0.912 0.576,-1.488 0.624,-0.576 1.536,-0.576 0.912,0 1.44,0.576 0.576,0.576 0.576,1.488 v 19.776 q 0,0.912 -0.576,1.488 -0.576,0.576 -1.488,0.576 z"
       style="font-style:normal;font-variant:normal;font-weight:500;font-stretch:normal;font-size:48px;font-family:quicksand;-inkscape-font-specification:'quicksand, Medium';font-variant-ligatures:normal;font-variant-caps:normal;font-variant-numeric:normal;font-feature-settings:normal;text-align:start;writing-mode:lr-tb;text-anchor:start;fill:#1f8ebe;fill-opacity:1"
       id="path879" />
    <path
       d="m 482.92712,63.048239 q 0.768,0 1.296,0.528 0.528,0.528 0.528,1.296 0,0.768 -0.528,1.296 -0.528,0.48 -1.296,0.48 h -17.424 q -0.864,0 -1.44,-0.48 -0.528,-0.528 -0.528,-1.392 0,-0.768 0.576,-1.392 l 10.848,-11.856 q 2.352,-2.496 3.6,-4.656 1.248,-2.208 1.248,-4.272 0,-1.968 -0.864,-3.408 -0.816,-1.44 -2.304,-2.208 -1.488,-0.816 -3.504,-0.816 -1.92,0 -3.696,1.008 -1.728,1.008 -2.736,3.12 -0.336,0.528 -0.768,0.768 -0.384,0.192 -0.816,0.192 -0.672,0 -1.296,-0.48 -0.624,-0.528 -0.624,-1.2 0,-0.528 0.288,-1.008 0.336,-0.48 0.768,-1.008 1.488,-2.4 3.984,-3.696 2.496,-1.296 5.136,-1.296 3.264,0 5.568,1.248 2.352,1.248 3.552,3.504 1.248,2.208 1.248,5.04 0,1.824 -0.672,3.744 -0.624,1.872 -1.968,3.888 -1.344,2.016 -3.408,4.224 l -8.4,9.312 -0.48,-0.48 z"
       style="font-style:normal;font-variant:normal;font-weight:500;font-stretch:normal;font-size:48px;font-family:quicksand;-inkscape-font-specification:'quicksand, Medium';font-variant-ligatures:normal;font-variant-caps:normal;font-variant-numeric:normal;font-feature-settings:normal;text-align:start;writing-mode:lr-tb;text-anchor:start;fill:#363026;fill-opacity:1"
       id="path881" />
    <path
       d="m 501.10187,67.128239 q -3.984,0 -6.672,-2.256 -2.64,-2.256 -4.032,-6.192 -1.344,-3.936 -1.344,-8.832 0,-4.992 1.344,-8.88 1.392,-3.888 4.032,-6.144 2.688,-2.256 6.672,-2.256 3.984,0 6.624,2.256 2.688,2.256 4.032,6.144 1.344,3.888 1.344,8.88 0,4.896 -1.344,8.832 -1.344,3.936 -4.032,6.192 -2.64,2.256 -6.624,2.256 z m 0,-3.888 q 2.544,0 4.272,-1.632 1.776,-1.632 2.688,-4.608 0.912,-3.024 0.912,-7.152 0,-4.176 -0.912,-7.152 -0.912,-3.024 -2.688,-4.608 -1.728,-1.632 -4.272,-1.632 -2.544,0 -4.32,1.632 -1.728,1.584 -2.688,4.608 -0.912,2.976 -0.912,7.152 0,4.128 0.912,7.152 0.96,2.976 2.688,4.608 1.776,1.632 4.32,1.632 z"
       style="font-style:normal;font-variant:normal;font-weight:500;font-stretch:normal;font-size:48px;font-family:quicksand;-inkscape-font-specification:'quicksand, Medium';font-variant-ligatures:normal;font-variant-caps:normal;font-variant-numeric:normal;font-feature-settings:normal;text-align:start;writing-mode:lr-tb;text-anchor:start;fill:#363026;fill-opacity:1"
       id="path883" />
  </g>
  <g
     aria-label="+20"
     style="font-style:normal;font-variant:normal;font-weight:500;font-stretch:normal;font-size:48px;line-height:1.25;font-family:quicksand;-inkscape-font-specification:'quicksand, Medium';font-variant-ligatures:normal;font-variant-caps:normal;font-variant-numeric:normal;font-feature-settings:normal;text-align:start;letter-spacing:0px;word-spacing:0px;writing-mode:lr-tb;text-anchor:start;fill:#000000;fill-opacity:1;stroke:none"
     id="text892-7">
    <path
       d="m 551.14467,55.512239 q -0.816,0 -1.344,-0.528 -0.528,-0.528 -0.528,-1.296 0,-0.768 0.528,-1.248 0.528,-0.528 1.344,-0.528 h 19.68 q 0.816,0 1.344,0.528 0.528,0.528 0.528,1.296 0,0.768 -0.528,1.296 -0.528,0.48 -1.344,0.48 z m 9.792,10.032 q -0.864,0 -1.488,-0.576 -0.576,-0.576 -0.576,-1.44 v -19.824 q 0,-0.912 0.576,-1.488 0.624,-0.576 1.536,-0.576 0.912,0 1.44,0.576 0.576,0.576 0.576,1.488 v 19.776 q 0,0.912 -0.576,1.488 -0.576,0.576 -1.488,0.576 z"
       style="font-style:normal;font-variant:normal;font-weight:500;font-stretch:normal;font-size:48px;font-family:quicksand;-inkscape-font-specification:'quicksand, Medium';font-variant-ligatures:normal;font-variant-caps:normal;font-variant-numeric:normal;font-feature-settings:normal;text-align:start;writing-mode:lr-tb;text-anchor:start;fill:#1f8ebe;fill-opacity:1"
       id="path872" />
    <path
       d="m 597.29217,63.048239 q 0.768,0 1.296,0.528 0.528,0.528 0.528,1.296 0,0.768 -0.528,1.296 -0.528,0.48 -1.296,0.48 h -17.424 q -0.864,0 -1.44,-0.48 -0.528,-0.528 -0.528,-1.392 0,-0.768 0.576,-1.392 l 10.848,-11.856 q 2.352,-2.496 3.6,-4.656 1.248,-2.208 1.248,-4.272 0,-1.968 -0.864,-3.408 -0.816,-1.44 -2.304,-2.208 -1.488,-0.816 -3.504,-0.816 -1.92,0 -3.696,1.008 -1.728,1.008 -2.736,3.12 -0.336,0.528 -0.768,0.768 -0.384,0.192 -0.816,0.192 -0.672,0 -1.296,-0.48 -0.624,-0.528 -0.624,-1.2 0,-0.528 0.288,-1.008 0.336,-0.48 0.768,-1.008 1.488,-2.4 3.984,-3.696 2.496,-1.296 5.136,-1.296 3.264,0 5.568,1.248 2.352,1.248 3.552,3.504 1.248,2.208 1.248,5.04 0,1.824 -0.672,3.744 -0.624,1.872 -1.968,3.888 -1.344,2.016 -3.408,4.224 l -8.4,9.312 -0.48,-0.48 z"
       style="font-style:normal;font-variant:normal;font-weight:500;font-stretch:normal;font-size:48px;font-family:quicksand;-inkscape-font-specification:'quicksand, Medium';font-variant-ligatures:normal;font-variant-caps:normal;font-variant-numeric:normal;font-feature-settings:normal;text-align:start;writing-mode:lr-tb;text-anchor:start;fill:#363026;fill-opacity:1"
       id="path874" />
    <path
       d="m 615.46692,67.128239 q -3.984,0 -6.672,-2.256 -2.64,-2.256 -4.032,-6.192 -1.344,-3.936 -1.344,-8.832 0,-4.992 1.344,-8.88 1.392,-3.888 4.032,-6.144 2.688,-2.256 6.672,-2.256 3.984,0 6.624,2.256 2.688,2.256 4.032,6.144 1.344,3.888 1.344,8.88 0,4.896 -1.344,8.832 -1.344,3.936 -4.032,6.192 -2.64,2.256 -6.624,2.256 z m 0,-3.888 q 2.544,0 4.272,-1.632 1.776,-1.632 2.688,-4.608 0.912,-3.024 0.912,-7.152 0,-4.176 -0.912,-7.152 -0.912,-3.024 -2.688,-4.608 -1.728,-1.632 -4.272,-1.632 -2.544,0 -4.32,1.632 -1.728,1.584 -2.688,4.608 -0.912,2.976 -0.912,7.152 0,4.128 0.912,7.152 0.96,2.976 2.688,4.608 1.776,1.632 4.32,1.632 z"
       style="font-style:normal;font-variant:normal;font-weight:500;font-stretch:normal;font-size:48px;font-family:quicksand;-inkscape-font-specification:'quicksand, Medium';font-variant-ligatures:normal;font-variant-caps:normal;font-variant-numeric:normal;font-feature-settings:normal;text-align:start;writing-mode:lr-tb;text-anchor:start;fill:#363026;fill-opacity:1"
       id="path876" />
  </g>
  <g
     aria-label="+20"
     style="font-style:normal;font-variant:normal;font-weight:500;font-stretch:normal;font-size:48px;line-height:1.25;font-family:quicksand;-inkscape-font-specification:'quicksand, Medium';font-variant-ligatures:normal;font-variant-caps:normal;font-variant-numeric:normal;font-feature-settings:normal;text-align:start;letter-spacing:0px;word-spacing:0px;writing-mode:lr-tb;text-anchor:start;fill:#000000;fill-opacity:1;stroke:none"
     id="text892-4">
    <path
       d="m 208.0495,55.512239 q -0.816,0 -1.344,-0.528 -0.528,-0.528 -0.528,-1.296 0,-0.768 0.528,-1.248 0.528,-0.528 1.344,-0.528 h 19.68 q 0.816,0 1.344,0.528 0.528,0.528 0.528,1.296 0,0.768 -0.528,1.296 -0.528,0.48 -1.344,0.48 z m 9.792,10.032 q -0.864,0 -1.488,-0.576 -0.576,-0.576 -0.576,-1.44 v -19.824 q 0,-0.912 0.576,-1.488 0.624,-0.576 1.536,-0.576 0.912,0 1.44,0.576 0.576,0.576 0.576,1.488 v 19.776 q 0,0.912 -0.576,1.488 -0.576,0.576 -1.488,0.576 z"
       style="font-style:normal;font-variant:normal;font-weight:500;font-stretch:normal;font-size:48px;font-family:quicksand;-inkscape-font-specification:'quicksand, Medium';font-variant-ligatures:normal;font-variant-caps:normal;font-variant-numeric:normal;font-feature-settings:normal;text-align:start;writing-mode:lr-tb;text-anchor:start;fill:#1f8ebe;fill-opacity:1"
       id="path865" />
    <path
       d="m 254.197,63.048239 q 0.768,0 1.296,0.528 0.528,0.528 0.528,1.296 0,0.768 -0.528,1.296 -0.528,0.48 -1.296,0.48 h -17.424 q -0.864,0 -1.44,-0.48 -0.528,-0.528 -0.528,-1.392 0,-0.768 0.576,-1.392 l 10.848,-11.856 q 2.352,-2.496 3.6,-4.656 1.248,-2.208 1.248,-4.272 0,-1.968 -0.864,-3.408 -0.816,-1.44 -2.304,-2.208 -1.488,-0.816 -3.504,-0.816 -1.92,0 -3.696,1.008 -1.728,1.008 -2.736,3.12 -0.336,0.528 -0.768,0.768 -0.384,0.192 -0.816,0.192 -0.672,0 -1.296,-0.48 -0.624,-0.528 -0.624,-1.2 0,-0.528 0.288,-1.008 0.336,-0.48 0.768,-1.008 1.488,-2.4 3.984,-3.696 2.496,-1.296 5.136,-1.296 3.264,0 5.568,1.248 2.352,1.248 3.552,3.504 1.248,2.208 1.248,5.04 0,1.824 -0.672,3.744 -0.624,1.872 -1.968,3.888 -1.344,2.016 -3.408,4.224 l -8.4,9.312 -0.48,-0.48 z"
       style="font-style:normal;font-variant:normal;font-weight:500;font-stretch:normal;font-size:48px;font-family:quicksand;-inkscape-font-specification:'quicksand, Medium';font-variant-ligatures:normal;font-variant-caps:normal;font-variant-numeric:normal;font-feature-settings:normal;text-align:start;writing-mode:lr-tb;text-anchor:start;fill:#363026;fill-opacity:1"
       id="path867" />
    <path
       d="m 272.37175,67.128239 q -3.984,0 -6.672,-2.256 -2.64,-2.256 -4.032,-6.192 -1.344,-3.936 -1.344,-8.832 0,-4.992 1.344,-8.88 1.392,-3.888 4.032,-6.144 2.688,-2.256 6.672,-2.256 3.984,0 6.624,2.256 2.688,2.256 4.032,6.144 1.344,3.888 1.344,8.88 0,4.896 -1.344,8.832 -1.344,3.936 -4.032,6.192 -2.64,2.256 -6.624,2.256 z m 0,-3.888 q 2.544,0 4.272,-1.632 1.776,-1.632 2.688,-4.608 0.912,-3.024 0.912,-7.152 0,-4.176 -0.912,-7.152 -0.912,-3.024 -2.688,-4.608 -1.728,-1.632 -4.272,-1.632 -2.544,0 -4.32,1.632 -1.728,1.584 -2.688,4.608 -0.912,2.976 -0.912,7.152 0,4.128 0.912,7.152 0.96,2.976 2.688,4.608 1.776,1.632 4.32,1.632 z"
       style="font-style:normal;font-variant:normal;font-weight:500;font-stretch:normal;font-size:48px;font-family:quicksand;-inkscape-font-specification:'quicksand, Medium';font-variant-ligatures:normal;font-variant-caps:normal;font-variant-numeric:normal;font-feature-settings:normal;text-align:start;writing-mode:lr-tb;text-anchor:start;fill:#363026;fill-opacity:1"
       id="path869" />
  </g>
  <path
     inkscape:connector-curvature="0"
     style="opacity:0.97000002;fill:none;fill-opacity:1;fill-rule:evenodd;stroke:#40d6cb;stroke-width:5;stroke-linecap:round;stroke-linejoin:round;stroke-miterlimit:4;stroke-dasharray:none;stroke-opacity:1"
     d="M 565.01288,169.01811 H 716.4399 c 4.74857,0 8.57143,3.82285 8.57143,8.57143 v 92.99733 c 0,4.74857 -3.82286,8.57143 -8.57143,8.57143 H 565.01288 c -4.74858,0 -8.57143,-3.82286 -8.57143,-8.57143 v -92.99733 c 0,-4.74858 3.82285,-8.57143 8.57143,-8.57143 z"
     id="rect1145" />
</svg>
