<svg xmlns="http://www.w3.org/2000/svg" viewBox="0 0 160.61 112.14"><defs><style>.cls-1{fill:#25a5dd;}</style></defs><g id="Layer_2" data-name="Layer 2"><g id="Layer_1-2" data-name="Layer 1"><path class="cls-1" d="M125.53,48.47a75.66,75.66,0,0,1-22.07-3.79q-12.3-3.81-25.32-8.51t-24.6-8.5Q42,23.88,34.37,23.88a10.65,10.65,0,0,0-8.14,3.25q-3.09,3.26-3.44,10.13,1.08,5.07-2.17,8.14A10.71,10.71,0,0,1,13,48.47a12.28,12.28,0,0,1-9.22-4C1.27,41.84,0,38.11,0,33.28A32.77,32.77,0,0,1,4,17.54,30.46,30.46,0,0,1,16.28,5.43Q24.59.72,37.26.72a75.86,75.86,0,0,1,22.07,3.8Q71.61,8.32,84.47,13t24.23,8.5q11.4,3.81,19,3.8a9.13,9.13,0,0,0,7.77-3.61q2.72-3.62,2.35-9.77-1.08-5.43,2-8.68A10.24,10.24,0,0,1,147.59,0a12.5,12.5,0,0,1,9,4q4,4,4,10.85a35.27,35.27,0,0,1-8.5,23.7Q143.6,48.47,125.53,48.47Zm0,63.67a75.37,75.37,0,0,1-22.07-3.8q-12.3-3.8-25.32-8.5t-24.6-8.5Q42,87.55,34.37,87.54a10.66,10.66,0,0,0-8.14,3.26q-3.09,3.26-3.44,10.13,1.08,5.41-2.17,8.32a11.07,11.07,0,0,1-7.6,2.89,12.25,12.25,0,0,1-9.22-4Q0,104.19,0,97A33.79,33.79,0,0,1,4,81a29.13,29.13,0,0,1,12.3-12.12q8.31-4.51,21-4.52a75.86,75.86,0,0,1,22.07,3.8q12.28,3.8,25.14,8.5t24.23,8.5q11.4,3.8,19,3.8,10.85,0,10.12-13.39-1.08-5.41,2-8.68a10.23,10.23,0,0,1,7.78-3.25,12.5,12.5,0,0,1,9,4q4,4,4,10.85a35.24,35.24,0,0,1-8.5,23.69Q143.6,112.15,125.53,112.14Z"/></g></g></svg>