<svg xmlns="http://www.w3.org/2000/svg" width="38.52" height="23.49" viewBox="0 0 38.52 23.49"><defs><style>.a{fill:#1f8ebe;}</style></defs><title>igual2</title><path class="a" d="M8.1,47.61a3.46,3.46,0,0,1-2.56-1,3.33,3.33,0,0,1-1-2.47,3,3,0,0,1,1-2.3,3.63,3.63,0,0,1,2.56-.94H39.42A3.69,3.69,0,0,1,42,41.8a3.13,3.13,0,0,1,1,2.39,3.3,3.3,0,0,1-1,2.38,3.51,3.51,0,0,1-2.57,1Zm0,16.74a3.54,3.54,0,0,1-2.56-1,3.2,3.2,0,0,1-1-2.43,3.07,3.07,0,0,1,1-2.39A3.63,3.63,0,0,1,8.1,57.6H39.42a3.6,3.6,0,0,1,2.57,1A3.26,3.26,0,0,1,43,61a3.16,3.16,0,0,1-1,2.34,3.6,3.6,0,0,1-2.57,1Z" transform="translate(-4.5 -40.86)"/></svg>