<svg xmlns="http://www.w3.org/2000/svg" width="27" height="80.28" viewBox="0 0 27 80.28"><defs><style>.a{fill:#1f8ebe;}</style></defs><title>parentesis_inicio</title><path class="a" d="M28,93.42A3.47,3.47,0,0,1,26.28,93,42.27,42.27,0,0,1,14,82.66,43.91,43.91,0,0,1,6.57,68.94,49.2,49.2,0,0,1,4.05,53.28,47,47,0,0,1,6.62,37.84a44.51,44.51,0,0,1,7.55-13.59,47.36,47.36,0,0,1,12.2-10.57,2.81,2.81,0,0,1,3.87.54,3.59,3.59,0,0,1,.81,2.16A3,3,0,0,1,29.7,18.9a39,39,0,0,0-10,9.31,40.29,40.29,0,0,0-6.21,11.93,41.82,41.82,0,0,0-2.12,13.14,44.67,44.67,0,0,0,2,13.32,38.44,38.44,0,0,0,6.12,12A35.52,35.52,0,0,0,29.7,87.75a2.73,2.73,0,0,1,1.35,2.52,3.28,3.28,0,0,1-.85,2.16A2.8,2.8,0,0,1,28,93.42Z" transform="translate(-4.05 -13.14)"/></svg>