<svg xmlns="http://www.w3.org/2000/svg" width="27.09" height="80.28" viewBox="0 0 27.09 80.28"><defs><style>.a{fill:#1f8ebe;}</style></defs><title>parentesis_final</title><path class="a" d="M5.13,93.42a2.79,2.79,0,0,1-2.3-1.08A3.47,3.47,0,0,1,2,90.18a3,3,0,0,1,1.44-2.52,39.4,39.4,0,0,0,10-9.32,41.19,41.19,0,0,0,6.21-11.92,42.67,42.67,0,0,0,2.11-13.23,44,44,0,0,0-2-13.19,39.92,39.92,0,0,0-6.12-12.06A33.94,33.94,0,0,0,3.42,18.81a2.86,2.86,0,0,1-1.35-2.52,3.23,3.23,0,0,1,.85-2.16,2.79,2.79,0,0,1,2.21-1,3.47,3.47,0,0,1,1.71.45,41.57,41.57,0,0,1,12.29,10.3,44.66,44.66,0,0,1,7.42,13.73,48.92,48.92,0,0,1,2.52,15.57A47.18,47.18,0,0,1,26.5,68.71,45.11,45.11,0,0,1,19,82.35,45.57,45.57,0,0,1,6.75,92.88,2.63,2.63,0,0,1,5.13,93.42Z" transform="translate(-1.98 -13.14)"/></svg>