<svg xmlns="http://www.w3.org/2000/svg" width="33.06" height="66.42" viewBox="0 0 33.06 66.42"><defs><style>.a{fill:#363026;}</style></defs><title>pregunta</title><path class="a" d="M14.67,46.89a3.94,3.94,0,0,1,.9-2.61,2.84,2.84,0,0,1,2.25-1.08,13.84,13.84,0,0,0,6.23-1.76A11.5,11.5,0,0,0,28.43,37,14,14,0,0,0,30,30.06a14.41,14.41,0,0,0-1.46-6.71,11.37,11.37,0,0,0-3.94-4.45A10.07,10.07,0,0,0,19,17.28a10.64,10.64,0,0,0-5.36,1.44A14.65,14.65,0,0,0,9.3,22.5a5,5,0,0,1-2,1.3,2.45,2.45,0,0,1-2.4-.58A3.55,3.55,0,0,1,3.47,20.7a3.64,3.64,0,0,1,.87-2.79,19.36,19.36,0,0,1,6.46-5.72A16.94,16.94,0,0,1,19,10.08a15.81,15.81,0,0,1,8.83,2.56,18.51,18.51,0,0,1,6.31,7,21.83,21.83,0,0,1,2.37,10.4,21.2,21.2,0,0,1-1.22,7.24,19,19,0,0,1-3.43,5.94,17.42,17.42,0,0,1-5.13,4.1,16.19,16.19,0,0,1-6.31,1.8c-.15.06-.15.07,0,0a.88.88,0,0,0,.48-.31v7.38A4,4,0,0,1,20,58.86a2.84,2.84,0,0,1-2.25,1.08,2.81,2.81,0,0,1-2.24-1.08,3.56,3.56,0,0,1-.83-2.61Zm3,29.61a3.07,3.07,0,0,1-2.56-1.13,4.68,4.68,0,0,1-.91-3v-1.8a4.5,4.5,0,0,1,.91-3,3.15,3.15,0,0,1,2.56-1.08h.63a3.15,3.15,0,0,1,2.61,1.08,4.67,4.67,0,0,1,.86,3v1.8a4.85,4.85,0,0,1-.86,3,3.07,3.07,0,0,1-2.61,1.13Z" transform="translate(-3.45 -10.08)"/></svg>