<svg xmlns="http://www.w3.org/2000/svg" viewBox="0 0 489.36 10.08"><defs><style>.cls-1{fill:none;}.cls-2{fill:#363026;}.cls-3{fill:#1f8ebe;}</style></defs><g id="Layer_2" data-name="Layer 2"><g id="Layer_1-2" data-name="Layer 1"><rect class="cls-1" width="489.36" height="10.08"/><path class="cls-2" d="M9.53,8.89a.51.51,0,0,1,.53.53.5.5,0,0,1-.15.37.54.54,0,0,1-.38.15H4.45A.6.6,0,0,1,4,9.79a.51.51,0,0,1-.16-.4A.58.58,0,0,1,4,9L7.2,5.53a7.46,7.46,0,0,0,1-1.36,2.45,2.45,0,0,0,.37-1.24,1.88,1.88,0,0,0-.25-1,1.7,1.7,0,0,0-.68-.65,2.24,2.24,0,0,0-2.09.06,2.07,2.07,0,0,0-.81.91.5.5,0,0,1-.21.22.54.54,0,0,1-.25.06A.61.61,0,0,1,4,2.39.43.43,0,0,1,3.77,2a.52.52,0,0,1,.09-.29c.06-.09.14-.19.22-.29A2.94,2.94,0,0,1,5.24.38,3.27,3.27,0,0,1,6.74,0,3.41,3.41,0,0,1,8.37.36a2.55,2.55,0,0,1,1,1,3,3,0,0,1,.35,1.48,3.49,3.49,0,0,1-.18,1.08A5.12,5.12,0,0,1,9,5.08,11.06,11.06,0,0,1,8,6.31L5.55,9l-.14-.14Z"/><path class="cls-2" d="M11.91,8.32l.19,0a.63.63,0,0,1,.23.15,2,2,0,0,0,.66.4,2.13,2.13,0,0,0,.86.16A2.2,2.2,0,0,0,15.78,8a2.17,2.17,0,0,0,.31-1.16,2,2,0,0,0-.31-1.17A1.94,1.94,0,0,0,15,5a2.52,2.52,0,0,0-1-.21,2,2,0,0,0-.36,0,1.41,1.41,0,0,0-.31.07,1.45,1.45,0,0,1-.28,0,.42.42,0,0,1-.35-.16.57.57,0,0,1-.12-.37.53.53,0,0,1,0-.23A.59.59,0,0,1,12.72,4l2.74-3,.23.27h-4A.54.54,0,0,1,11.33,1a.54.54,0,0,1-.15-.38.48.48,0,0,1,.15-.37.54.54,0,0,1,.38-.15h4.56a.55.55,0,0,1,.45.17.59.59,0,0,1,.14.39.59.59,0,0,1-.05.23.74.74,0,0,1-.16.2l-2.73,3-.32-.28a.78.78,0,0,1,.32-.1,1.81,1.81,0,0,1,.42,0,2.8,2.8,0,0,1,2.49,1.44,3.09,3.09,0,0,1,.4,1.6,3.25,3.25,0,0,1-.47,1.75A3.09,3.09,0,0,1,15.5,9.67a4,4,0,0,1-1.82.41,3.41,3.41,0,0,1-1.09-.18,2.47,2.47,0,0,1-.93-.51.5.5,0,0,1-.25-.22.57.57,0,0,1-.06-.25.63.63,0,0,1,.16-.41A.5.5,0,0,1,11.91,8.32Z"/><path class="cls-2" d="M26,2.52a5.19,5.19,0,0,1,1.29.15,2.86,2.86,0,0,1,.91.42.78.78,0,0,1,.33.61.62.62,0,0,1-.12.35.39.39,0,0,1-.34.16.56.56,0,0,1-.3-.07A.73.73,0,0,1,27.5,4a.91.91,0,0,0-.29-.19,1.48,1.48,0,0,0-.49-.16,3.6,3.6,0,0,0-.66,0,2.51,2.51,0,0,0-1.34.36,2.55,2.55,0,0,0-.92,1,2.92,2.92,0,0,0-.33,1.4,3,3,0,0,0,.32,1.4,2.58,2.58,0,0,0,.9,1A2.43,2.43,0,0,0,26,9,2.78,2.78,0,0,0,26.8,9a2.5,2.5,0,0,0,.49-.2,1.28,1.28,0,0,0,.37-.28A.52.52,0,0,1,28,8.34a.47.47,0,0,1,.36.16.6.6,0,0,1,.13.38c0,.16-.12.34-.36.53a3,3,0,0,1-.94.47,4.29,4.29,0,0,1-1.34.2,3.37,3.37,0,0,1-3.1-1.85,4.25,4.25,0,0,1-.44-1.93,4,4,0,0,1,.46-1.92A3.51,3.51,0,0,1,24.07,3,3.54,3.54,0,0,1,26,2.52Z"/><path class="cls-2" d="M33.45,2.59A2.39,2.39,0,0,1,35,3.07a2.36,2.36,0,0,1,.79,1.37h-.21l.1-.25a2.08,2.08,0,0,1,.57-.76,3.77,3.77,0,0,1,.94-.6,2.64,2.64,0,0,1,1.11-.24,2.33,2.33,0,0,1,1.45.4,2.19,2.19,0,0,1,.77,1.06,4.66,4.66,0,0,1,.23,1.49V9.37a.59.59,0,0,1-.16.4.54.54,0,0,1-.4.17.53.53,0,0,1-.41-.17.59.59,0,0,1-.15-.4V5.57a3.11,3.11,0,0,0-.16-1,1.52,1.52,0,0,0-.52-.7,1.65,1.65,0,0,0-1-.25,2.06,2.06,0,0,0-1.8,1,1.81,1.81,0,0,0-.28,1v3.8a.55.55,0,0,1-.16.4.51.51,0,0,1-.4.17.54.54,0,0,1-.4-.17.55.55,0,0,1-.16-.4V5.53a2.93,2.93,0,0,0-.15-1,1.44,1.44,0,0,0-.5-.69,1.59,1.59,0,0,0-1-.25,2.06,2.06,0,0,0-1,.25,2.26,2.26,0,0,0-.75.69,1.79,1.79,0,0,0-.28,1V9.37a.55.55,0,0,1-.16.4.53.53,0,0,1-.4.17.52.52,0,0,1-.39-.17.55.55,0,0,1-.16-.4V3.26a.54.54,0,0,1,.16-.4.55.55,0,0,1,.39-.16.53.53,0,0,1,.56.56V4.33l-.3.33a1.89,1.89,0,0,1,.28-.73,3.4,3.4,0,0,1,.6-.67,3,3,0,0,1,.81-.49A2.55,2.55,0,0,1,33.45,2.59Z"/><path class="cls-3" d="M47,6.58a.75.75,0,0,1-.56-.22.77.77,0,0,1-.23-.56.72.72,0,0,1,.23-.55A.78.78,0,0,1,47,5h5.69a.75.75,0,0,1,.56.22.77.77,0,0,1,0,1.1.75.75,0,0,1-.56.22ZM49.8,9.31a.9.9,0,0,1-.65-.25.87.87,0,0,1-.26-.65V3a.84.84,0,0,1,.27-.64.92.92,0,0,1,.66-.25.85.85,0,0,1,.65.25.89.89,0,0,1,.24.64V8.41a.86.86,0,0,1-.91.9Z"/><path class="cls-2" d="M64.28,8.89a.51.51,0,0,1,.53.53.5.5,0,0,1-.15.37.54.54,0,0,1-.38.15H59.2a.56.56,0,0,1-.41-.15.51.51,0,0,1-.17-.4.58.58,0,0,1,.17-.4L62,5.53a8.49,8.49,0,0,0,1-1.36,2.54,2.54,0,0,0,.36-1.24,1.88,1.88,0,0,0-.25-1,1.68,1.68,0,0,0-.67-.65,2.21,2.21,0,0,0-1-.23,2.18,2.18,0,0,0-1.07.29,2,2,0,0,0-.8.91.58.58,0,0,1-.22.22.53.53,0,0,1-.24.06.64.64,0,0,1-.38-.14A.45.45,0,0,1,58.53,2a.52.52,0,0,1,.09-.29c.06-.09.13-.19.21-.29A2.9,2.9,0,0,1,60,.38,3.2,3.2,0,0,1,61.49,0a3.41,3.41,0,0,1,1.63.36,2.5,2.5,0,0,1,1,1,3,3,0,0,1,.36,1.48,3.24,3.24,0,0,1-.19,1.08,5.12,5.12,0,0,1-.58,1.14,9.17,9.17,0,0,1-1,1.23L60.3,9l-.14-.14Z"/><path class="cls-2" d="M66.66,8.32l.19,0a.56.56,0,0,1,.23.15,2.2,2.2,0,0,0,.66.4,2.14,2.14,0,0,0,.87.16A2.2,2.2,0,0,0,70.53,8a2.17,2.17,0,0,0,.32-1.16,2,2,0,0,0-.32-1.17,1.94,1.94,0,0,0-.8-.68,2.5,2.5,0,0,0-1-.21,2.22,2.22,0,0,0-.37,0,1.55,1.55,0,0,0-.31.07,1.47,1.47,0,0,1-.27,0,.41.41,0,0,1-.35-.16.52.52,0,0,1-.13-.37.53.53,0,0,1,0-.23A.74.74,0,0,1,67.47,4l2.75-3,.22.27h-4A.5.5,0,0,1,66.09,1a.51.51,0,0,1-.16-.38.46.46,0,0,1,.16-.37.5.5,0,0,1,.37-.15H71a.58.58,0,0,1,.45.17.64.64,0,0,1,.14.39.46.46,0,0,1-.06.23,1,1,0,0,1-.15.2l-2.73,3-.33-.28a.85.85,0,0,1,.33-.1,1.7,1.7,0,0,1,.42,0,2.77,2.77,0,0,1,1.44.38,2.74,2.74,0,0,1,1,1.06A3.19,3.19,0,0,1,72,6.78a3.24,3.24,0,0,1-.46,1.75,3.12,3.12,0,0,1-1.27,1.14,4,4,0,0,1-1.81.41,3.43,3.43,0,0,1-1.1-.18,2.47,2.47,0,0,1-.93-.51.61.61,0,0,1-.25-.22.57.57,0,0,1-.06-.25.63.63,0,0,1,.16-.41A.5.5,0,0,1,66.66,8.32Z"/><path class="cls-2" d="M80.7,2.52A5.08,5.08,0,0,1,82,2.67a2.76,2.76,0,0,1,.91.42.79.79,0,0,1,.34.61.62.62,0,0,1-.12.35.41.41,0,0,1-.35.16.56.56,0,0,1-.3-.07A.73.73,0,0,1,82.25,4,.91.91,0,0,0,82,3.77a1.4,1.4,0,0,0-.49-.16,3.53,3.53,0,0,0-.66,0,2.51,2.51,0,0,0-1.34.36,2.55,2.55,0,0,0-.92,1,2.92,2.92,0,0,0-.33,1.4,2.92,2.92,0,0,0,.33,1.4A2.41,2.41,0,0,0,80.77,9,2.74,2.74,0,0,0,81.55,9a2.6,2.6,0,0,0,.5-.2,1.63,1.63,0,0,0,.37-.28.5.5,0,0,1,.37-.14.44.44,0,0,1,.36.16.55.55,0,0,1,.13.38.78.78,0,0,1-.35.53,3.23,3.23,0,0,1-1,.47,4.22,4.22,0,0,1-1.33.2,3.51,3.51,0,0,1-1.87-.5,3.44,3.44,0,0,1-1.24-1.35A4.25,4.25,0,0,1,77.1,6.3a4.06,4.06,0,0,1,.46-1.92A3.46,3.46,0,0,1,78.83,3,3.51,3.51,0,0,1,80.7,2.52Z"/><path class="cls-2" d="M88.21,2.59a2.36,2.36,0,0,1,1.54.48,2.36,2.36,0,0,1,.79,1.37h-.21l.1-.25A2,2,0,0,1,91,3.43a3.71,3.71,0,0,1,.93-.6,2.71,2.71,0,0,1,1.11-.24,2.37,2.37,0,0,1,1.46.4,2.23,2.23,0,0,1,.76,1.06,4.66,4.66,0,0,1,.23,1.49V9.37a.55.55,0,0,1-.16.4.54.54,0,0,1-.4.17.55.55,0,0,1-.41-.17.59.59,0,0,1-.15-.4V5.57a2.86,2.86,0,0,0-.16-1,1.52,1.52,0,0,0-.52-.7,1.64,1.64,0,0,0-1-.25,2.17,2.17,0,0,0-1,.25,2.14,2.14,0,0,0-.76.7,1.81,1.81,0,0,0-.28,1v3.8a.59.59,0,0,1-.15.4.55.55,0,0,1-.41.17.54.54,0,0,1-.4-.17.59.59,0,0,1-.16-.4V5.53a2.93,2.93,0,0,0-.15-1,1.42,1.42,0,0,0-.49-.69,1.64,1.64,0,0,0-1-.25,2.08,2.08,0,0,0-1,.25,2.14,2.14,0,0,0-.74.69,1.71,1.71,0,0,0-.28,1V9.37a.59.59,0,0,1-.16.4.56.56,0,0,1-.8,0,.55.55,0,0,1-.16-.4V3.26a.54.54,0,0,1,.16-.4.58.58,0,0,1,.4-.16.54.54,0,0,1,.4.16.54.54,0,0,1,.16.4V4.33l-.31.33a1.92,1.92,0,0,1,.29-.73,3.05,3.05,0,0,1,.59-.67,3.18,3.18,0,0,1,.81-.49A2.56,2.56,0,0,1,88.21,2.59Z"/><path class="cls-3" d="M101.73,6.58A.75.75,0,0,1,101,5.8a.71.71,0,0,1,.22-.55.79.79,0,0,1,.56-.21h5.7a.76.76,0,0,1,.56.22.72.72,0,0,1,.22.55.72.72,0,0,1-.22.55.76.76,0,0,1-.56.22Zm2.83,2.73a.88.88,0,0,1-.65-.25.84.84,0,0,1-.26-.65V3a.87.87,0,0,1,.26-.64.92.92,0,0,1,.66-.25.86.86,0,0,1,.9.89V8.41a.91.91,0,0,1-.25.65A.89.89,0,0,1,104.56,9.31Z"/><path class="cls-2" d="M119,8.89a.52.52,0,0,1,.38.15.55.55,0,0,1,.16.38.51.51,0,0,1-.16.37.52.52,0,0,1-.38.15H114a.58.58,0,0,1-.41-.15.51.51,0,0,1-.16-.4.57.57,0,0,1,.16-.4l3.17-3.46a7.46,7.46,0,0,0,1.05-1.36,2.54,2.54,0,0,0,.36-1.24,2,2,0,0,0-.24-1,1.77,1.77,0,0,0-.68-.65,2.19,2.19,0,0,0-1-.23,2.15,2.15,0,0,0-1.07.29,2.07,2.07,0,0,0-.81.91.52.52,0,0,1-.22.22.53.53,0,0,1-.24.06.64.64,0,0,1-.38-.14.45.45,0,0,1-.18-.35.52.52,0,0,1,.09-.29,2.47,2.47,0,0,1,.22-.29A2.87,2.87,0,0,1,114.75.38a3.21,3.21,0,0,1,1.5-.38,3.44,3.44,0,0,1,1.63.36,2.47,2.47,0,0,1,1,1,3,3,0,0,1,.36,1.48,3.24,3.24,0,0,1-.19,1.08,4.72,4.72,0,0,1-.58,1.14,9.88,9.88,0,0,1-1,1.23L115.06,9l-.14-.14Z"/><path class="cls-2" d="M121.41,8.32l.19,0a.56.56,0,0,1,.23.15,2.2,2.2,0,0,0,.66.4,2.14,2.14,0,0,0,.87.16A2.2,2.2,0,0,0,125.28,8a2.17,2.17,0,0,0,.32-1.16,2,2,0,0,0-.32-1.17,1.91,1.91,0,0,0-.79-.68,2.55,2.55,0,0,0-1-.21,2,2,0,0,0-.36,0,1.65,1.65,0,0,0-.32.07,1.47,1.47,0,0,1-.27,0,.41.41,0,0,1-.35-.16A.52.52,0,0,1,122,4.4a.73.73,0,0,1,0-.23.62.62,0,0,1,.15-.22l2.74-3,.22.27h-4a.52.52,0,0,1-.38-.15.54.54,0,0,1-.15-.38.48.48,0,0,1,.15-.37.52.52,0,0,1,.38-.15h4.56a.55.55,0,0,1,.45.17.64.64,0,0,1,.14.39.46.46,0,0,1-.06.23.7.7,0,0,1-.15.2l-2.73,3-.32-.28a.73.73,0,0,1,.32-.1,1.81,1.81,0,0,1,.42,0,2.77,2.77,0,0,1,1.44.38,2.74,2.74,0,0,1,1,1.06,3.19,3.19,0,0,1,.39,1.6,3.24,3.24,0,0,1-.46,1.75A3.12,3.12,0,0,1,125,9.67a4,4,0,0,1-1.81.41,3.47,3.47,0,0,1-1.1-.18,2.47,2.47,0,0,1-.93-.51.52.52,0,0,1-.24-.22.47.47,0,0,1-.07-.25.68.68,0,0,1,.16-.41A.5.5,0,0,1,121.41,8.32Z"/><path class="cls-2" d="M135.46,2.52a5.05,5.05,0,0,1,1.28.15,2.76,2.76,0,0,1,.91.42.76.76,0,0,1,.34.61.62.62,0,0,1-.12.35.39.39,0,0,1-.34.16.53.53,0,0,1-.3-.07A.76.76,0,0,1,137,4a.81.81,0,0,0-.29-.19,1.4,1.4,0,0,0-.49-.16,3.49,3.49,0,0,0-.65,0,2.47,2.47,0,0,0-2.26,1.34A2.92,2.92,0,0,0,133,6.3a2.92,2.92,0,0,0,.32,1.4A2.41,2.41,0,0,0,135.52,9,2.74,2.74,0,0,0,136.3,9a2.6,2.6,0,0,0,.5-.2,1.43,1.43,0,0,0,.37-.28.5.5,0,0,1,.37-.14.47.47,0,0,1,.37.16.6.6,0,0,1,.12.38.78.78,0,0,1-.35.53,3.16,3.16,0,0,1-.94.47,4.33,4.33,0,0,1-1.34.2,3.45,3.45,0,0,1-1.86-.5,3.3,3.3,0,0,1-1.24-1.35,4.12,4.12,0,0,1-.44-1.93,4.06,4.06,0,0,1,.45-1.92A3.61,3.61,0,0,1,133.58,3,3.54,3.54,0,0,1,135.46,2.52Z"/><path class="cls-2" d="M143,2.59a2.41,2.41,0,0,1,1.55.48,2.41,2.41,0,0,1,.79,1.37h-.21l.1-.25a2.08,2.08,0,0,1,.57-.76,3.6,3.6,0,0,1,.94-.6,2.63,2.63,0,0,1,1.1-.24,2.37,2.37,0,0,1,1.46.4A2.17,2.17,0,0,1,150,4.05a4.4,4.4,0,0,1,.23,1.49V9.37a.55.55,0,0,1-.16.4.54.54,0,0,1-.4.17.53.53,0,0,1-.4-.17.55.55,0,0,1-.16-.4V5.57a2.86,2.86,0,0,0-.16-1,1.52,1.52,0,0,0-.52-.7,1.62,1.62,0,0,0-1-.25,2.2,2.2,0,0,0-1,.25,2.14,2.14,0,0,0-.76.7,1.89,1.89,0,0,0-.27,1v3.8a.59.59,0,0,1-.16.4.53.53,0,0,1-.41.17.52.52,0,0,1-.39-.17.55.55,0,0,1-.16-.4V5.53a2.93,2.93,0,0,0-.15-1,1.51,1.51,0,0,0-.5-.69,1.59,1.59,0,0,0-1-.25,2.09,2.09,0,0,0-1,.25,2.23,2.23,0,0,0-.74.69,1.71,1.71,0,0,0-.28,1V9.37a.55.55,0,0,1-.16.4.56.56,0,0,1-.8,0,.55.55,0,0,1-.16-.4V3.26a.54.54,0,0,1,.16-.4.58.58,0,0,1,.4-.16.58.58,0,0,1,.41.16.57.57,0,0,1,.15.4V4.33l-.31.33a2.1,2.1,0,0,1,.29-.73,2.87,2.87,0,0,1,.6-.67,3,3,0,0,1,.81-.49A2.51,2.51,0,0,1,143,2.59Z"/><path class="cls-3" d="M156.48,6.58a.75.75,0,0,1-.78-.78.71.71,0,0,1,.22-.55.79.79,0,0,1,.56-.21h5.7a.76.76,0,0,1,.56.22.72.72,0,0,1,.22.55.72.72,0,0,1-.22.55.76.76,0,0,1-.56.22Zm2.83,2.73a.87.87,0,0,1-.91-.9V3a.84.84,0,0,1,.27-.64,1,1,0,0,1,1.31,0,.89.89,0,0,1,.24.64V8.41a.87.87,0,0,1-.25.65A.89.89,0,0,1,159.31,9.31Z"/><path class="cls-2" d="M173.79,8.89a.5.5,0,0,1,.37.15.51.51,0,0,1,.16.38.47.47,0,0,1-.16.37.5.5,0,0,1-.37.15H168.7a.59.59,0,0,1-.41-.15.51.51,0,0,1-.16-.4.58.58,0,0,1,.17-.4l3.16-3.46a7.46,7.46,0,0,0,1-1.36,2.55,2.55,0,0,0,.37-1.24,2,2,0,0,0-.25-1,1.7,1.7,0,0,0-.68-.65,2.24,2.24,0,0,0-2.09.06,2.07,2.07,0,0,0-.81.91.5.5,0,0,1-.21.22.54.54,0,0,1-.25.06.66.66,0,0,1-.38-.14A.45.45,0,0,1,168,2a.52.52,0,0,1,.09-.29c.06-.09.14-.19.22-.29A2.94,2.94,0,0,1,169.5.38,3.27,3.27,0,0,1,171,0a3.44,3.44,0,0,1,1.63.36,2.55,2.55,0,0,1,1,1A3,3,0,0,1,174,2.86a3.24,3.24,0,0,1-.19,1.08,4.39,4.39,0,0,1-.58,1.14,9.88,9.88,0,0,1-1,1.23L169.81,9l-.14-.14Z"/><path class="cls-2" d="M176.17,8.32l.19,0a.73.73,0,0,1,.23.15,2,2,0,0,0,.65.4,2.21,2.21,0,0,0,.87.16A2.2,2.2,0,0,0,180,8a2.17,2.17,0,0,0,.31-1.16A2,2,0,0,0,180,5.68a1.94,1.94,0,0,0-.8-.68,2.52,2.52,0,0,0-1-.21,2,2,0,0,0-.36,0,1.65,1.65,0,0,0-.32.07,1.26,1.26,0,0,1-.27,0,.42.42,0,0,1-.35-.16.57.57,0,0,1-.12-.37.53.53,0,0,1,0-.23A.59.59,0,0,1,177,4l2.74-3,.23.27h-4a.52.52,0,0,1-.38-.15.54.54,0,0,1-.15-.38.48.48,0,0,1,.15-.37A.52.52,0,0,1,176,.14h4.56a.55.55,0,0,1,.45.17.59.59,0,0,1,.14.39.59.59,0,0,1-.05.23.74.74,0,0,1-.16.2l-2.73,3-.32-.28a.78.78,0,0,1,.32-.1,1.81,1.81,0,0,1,.42,0,2.83,2.83,0,0,1,2.49,1.44,3.09,3.09,0,0,1,.4,1.6A3.25,3.25,0,0,1,181,8.53a3.09,3.09,0,0,1-1.26,1.14,4,4,0,0,1-1.82.41,3.47,3.47,0,0,1-1.1-.18,2.64,2.64,0,0,1-.93-.51.52.52,0,0,1-.24-.22.57.57,0,0,1-.06-.25.63.63,0,0,1,.16-.41A.48.48,0,0,1,176.17,8.32Z"/><path class="cls-2" d="M190.21,2.52a5.19,5.19,0,0,1,1.29.15,2.86,2.86,0,0,1,.91.42.78.78,0,0,1,.33.61.62.62,0,0,1-.12.35.39.39,0,0,1-.34.16.56.56,0,0,1-.3-.07.9.9,0,0,1-.23-.18.76.76,0,0,0-.28-.19,1.48,1.48,0,0,0-.49-.16,3.67,3.67,0,0,0-.66,0,2.51,2.51,0,0,0-1.34.36,2.48,2.48,0,0,0-.92,1,2.92,2.92,0,0,0-.33,1.4,3,3,0,0,0,.32,1.4,2.58,2.58,0,0,0,.9,1,2.43,2.43,0,0,0,1.33.36,2.83,2.83,0,0,0,.78-.08,2.5,2.5,0,0,0,.49-.2,1.43,1.43,0,0,0,.37-.28.51.51,0,0,1,.37-.14.47.47,0,0,1,.37.16.6.6,0,0,1,.12.38.74.74,0,0,1-.35.53,3,3,0,0,1-.94.47,4.29,4.29,0,0,1-1.34.2,3.37,3.37,0,0,1-3.1-1.85,4.25,4.25,0,0,1-.44-1.93,4,4,0,0,1,.46-1.92A3.51,3.51,0,0,1,188.33,3,3.54,3.54,0,0,1,190.21,2.52Z"/><path class="cls-2" d="M197.71,2.59a2.39,2.39,0,0,1,1.55.48,2.36,2.36,0,0,1,.79,1.37h-.21l.1-.25a2.08,2.08,0,0,1,.57-.76,3.6,3.6,0,0,1,.94-.6,2.64,2.64,0,0,1,1.11-.24A2.33,2.33,0,0,1,204,3a2.19,2.19,0,0,1,.77,1.06A4.66,4.66,0,0,1,205,5.54V9.37a.56.56,0,0,1-.17.4.52.52,0,0,1-.39.17.53.53,0,0,1-.41-.17.59.59,0,0,1-.15-.4V5.57a2.86,2.86,0,0,0-.17-1,1.44,1.44,0,0,0-.51-.7,1.67,1.67,0,0,0-1-.25,2.2,2.2,0,0,0-1,.25,2.11,2.11,0,0,0-.75.7,1.81,1.81,0,0,0-.28,1v3.8a.55.55,0,0,1-.16.4.51.51,0,0,1-.4.17.54.54,0,0,1-.4-.17.55.55,0,0,1-.16-.4V5.53a2.93,2.93,0,0,0-.15-1,1.44,1.44,0,0,0-.5-.69,1.59,1.59,0,0,0-1-.25,2,2,0,0,0-1,.25,2.26,2.26,0,0,0-.75.69,1.79,1.79,0,0,0-.28,1V9.37a.55.55,0,0,1-.16.4.53.53,0,0,1-.4.17.52.52,0,0,1-.39-.17.56.56,0,0,1-.17-.4V3.26a.54.54,0,0,1,.17-.4.55.55,0,0,1,.39-.16.53.53,0,0,1,.56.56V4.33l-.3.33a1.89,1.89,0,0,1,.28-.73,3.4,3.4,0,0,1,.6-.67,3,3,0,0,1,.81-.49A2.55,2.55,0,0,1,197.71,2.59Z"/><path class="cls-3" d="M211.24,6.58a.75.75,0,0,1-.56-.22.77.77,0,0,1-.23-.56.72.72,0,0,1,.23-.55.78.78,0,0,1,.56-.21h5.69a.75.75,0,0,1,.56.22.77.77,0,0,1,0,1.1.75.75,0,0,1-.56.22Zm2.82,2.73a.87.87,0,0,1-.91-.9V3a.84.84,0,0,1,.27-.64.92.92,0,0,1,.66-.25.85.85,0,0,1,.65.25A.89.89,0,0,1,215,3V8.41a.87.87,0,0,1-.25.65A.89.89,0,0,1,214.06,9.31Z"/><path class="cls-2" d="M228.54,8.89a.51.51,0,0,1,.53.53.5.5,0,0,1-.15.37.54.54,0,0,1-.38.15h-5.08a.6.6,0,0,1-.42-.15.54.54,0,0,1-.16-.4.58.58,0,0,1,.17-.4l3.16-3.46a7.46,7.46,0,0,0,1-1.36,2.45,2.45,0,0,0,.37-1.24,1.88,1.88,0,0,0-.25-1,1.74,1.74,0,0,0-.67-.65,2.21,2.21,0,0,0-1-.23,2.18,2.18,0,0,0-1.07.29,2,2,0,0,0-.8.91.58.58,0,0,1-.22.22.54.54,0,0,1-.25.06.61.61,0,0,1-.37-.14.45.45,0,0,1-.18-.35.52.52,0,0,1,.09-.29c.06-.09.13-.19.21-.29A2.94,2.94,0,0,1,224.25.38a3.27,3.27,0,0,1,1.5-.38,3.41,3.41,0,0,1,1.63.36,2.5,2.5,0,0,1,1,1,3,3,0,0,1,.36,1.48,3.51,3.51,0,0,1-.19,1.08A5.12,5.12,0,0,1,228,5.08a10,10,0,0,1-1,1.23L224.56,9l-.14-.14Z"/><path class="cls-2" d="M230.92,8.32l.19,0a.63.63,0,0,1,.23.15,2.2,2.2,0,0,0,.66.4,2.14,2.14,0,0,0,.87.16,2.3,2.3,0,0,0,1.1-.27,2.27,2.27,0,0,0,.82-.78,2.17,2.17,0,0,0,.31-1.16,2,2,0,0,0-.31-1.17A1.94,1.94,0,0,0,234,5a2.5,2.5,0,0,0-1-.21,2.13,2.13,0,0,0-.37,0,1.55,1.55,0,0,0-.31.07,1.45,1.45,0,0,1-.28,0,.42.42,0,0,1-.35-.16.57.57,0,0,1-.12-.37.53.53,0,0,1,0-.23.74.74,0,0,1,.14-.22l2.74-3,.23.27h-4a.54.54,0,0,1-.38-.15.54.54,0,0,1-.15-.38.48.48,0,0,1,.15-.37.54.54,0,0,1,.38-.15h4.57a.54.54,0,0,1,.44.17.59.59,0,0,1,.14.39.46.46,0,0,1-.05.23,1,1,0,0,1-.15.2l-2.74,3-.32-.28a.85.85,0,0,1,.32-.1,1.81,1.81,0,0,1,.42,0,2.78,2.78,0,0,1,1.45.38,2.74,2.74,0,0,1,1,1.06,3.19,3.19,0,0,1,.39,1.6,3.33,3.33,0,0,1-.46,1.75,3.12,3.12,0,0,1-1.27,1.14,4,4,0,0,1-1.81.41,3.43,3.43,0,0,1-1.1-.18,2.47,2.47,0,0,1-.93-.51.55.55,0,0,1-.25-.22.57.57,0,0,1-.06-.25.63.63,0,0,1,.16-.41A.5.5,0,0,1,230.92,8.32Z"/><path class="cls-2" d="M245,2.52a5.08,5.08,0,0,1,1.29.15,2.86,2.86,0,0,1,.91.42.78.78,0,0,1,.33.61.55.55,0,0,1-.12.35.38.38,0,0,1-.34.16.56.56,0,0,1-.3-.07.73.73,0,0,1-.22-.18.91.91,0,0,0-.29-.19,1.4,1.4,0,0,0-.49-.16,3.53,3.53,0,0,0-.66,0,2.51,2.51,0,0,0-1.34.36,2.55,2.55,0,0,0-.92,1,2.92,2.92,0,0,0-.33,1.4,3,3,0,0,0,.32,1.4,2.58,2.58,0,0,0,.9,1A2.45,2.45,0,0,0,245,9a2.74,2.74,0,0,0,.78-.08,2.5,2.5,0,0,0,.49-.2,1.5,1.5,0,0,0,.38-.28.48.48,0,0,1,.37-.14.44.44,0,0,1,.36.16.6.6,0,0,1,.13.38.78.78,0,0,1-.35.53,3.23,3.23,0,0,1-.95.47,4.29,4.29,0,0,1-1.34.2,3.47,3.47,0,0,1-1.86-.5,3.44,3.44,0,0,1-1.24-1.35,4.25,4.25,0,0,1-.44-1.93,4,4,0,0,1,.46-1.92A3.51,3.51,0,0,1,243.08,3,3.57,3.57,0,0,1,245,2.52Z"/><path class="cls-2" d="M252.46,2.59a2.37,2.37,0,0,1,1.55.48,2.36,2.36,0,0,1,.79,1.37h-.21l.1-.25a2.08,2.08,0,0,1,.57-.76,4,4,0,0,1,.94-.6,2.71,2.71,0,0,1,1.11-.24,2.33,2.33,0,0,1,1.45.4,2.19,2.19,0,0,1,.77,1.06,4.66,4.66,0,0,1,.23,1.49V9.37a.55.55,0,0,1-.16.4.54.54,0,0,1-.4.17.55.55,0,0,1-.41-.17.59.59,0,0,1-.15-.4V5.57a3.11,3.11,0,0,0-.16-1,1.52,1.52,0,0,0-.52-.7,1.64,1.64,0,0,0-1-.25,2.09,2.09,0,0,0-1.81,1,1.81,1.81,0,0,0-.28,1v3.8a.59.59,0,0,1-.15.4.55.55,0,0,1-.41.17.54.54,0,0,1-.4-.17.55.55,0,0,1-.16-.4V5.53a2.93,2.93,0,0,0-.15-1,1.42,1.42,0,0,0-.49-.69,1.64,1.64,0,0,0-1-.25,2.08,2.08,0,0,0-1,.25,2.14,2.14,0,0,0-.74.69,1.71,1.71,0,0,0-.28,1V9.37a.59.59,0,0,1-.16.4.54.54,0,0,1-.4.17.53.53,0,0,1-.4-.17.55.55,0,0,1-.16-.4V3.26a.54.54,0,0,1,.16-.4.58.58,0,0,1,.8,0,.54.54,0,0,1,.16.4V4.33l-.31.33a1.92,1.92,0,0,1,.29-.73,3.05,3.05,0,0,1,.59-.67,3,3,0,0,1,.81-.49A2.55,2.55,0,0,1,252.46,2.59Z"/><path class="cls-3" d="M266,6.58a.75.75,0,0,1-.56-.22.77.77,0,0,1-.23-.56.72.72,0,0,1,.23-.55A.78.78,0,0,1,266,5h5.7a.76.76,0,0,1,.56.22.72.72,0,0,1,.22.55.72.72,0,0,1-.22.55.76.76,0,0,1-.56.22Zm2.83,2.73a.87.87,0,0,1-.65-.25.84.84,0,0,1-.26-.65V3a.87.87,0,0,1,.26-.64.92.92,0,0,1,.66-.25.85.85,0,0,1,.65.25.9.9,0,0,1,.25.64V8.41a.87.87,0,0,1-.26.65A.85.85,0,0,1,268.82,9.31Z"/><path class="cls-2" d="M283.29,8.89a.52.52,0,0,1,.38.15.54.54,0,0,1,.15.38.5.5,0,0,1-.15.37.52.52,0,0,1-.38.15h-5.08a.56.56,0,0,1-.41-.15.51.51,0,0,1-.16-.4.57.57,0,0,1,.16-.4L281,5.53a7.94,7.94,0,0,0,1-1.36,2.54,2.54,0,0,0,.36-1.24,2,2,0,0,0-.24-1,1.77,1.77,0,0,0-.68-.65,2.19,2.19,0,0,0-1-.23,2.15,2.15,0,0,0-1.07.29,2,2,0,0,0-.81.91.58.58,0,0,1-.22.22.53.53,0,0,1-.24.06.64.64,0,0,1-.38-.14.45.45,0,0,1-.18-.35.52.52,0,0,1,.09-.29,2.47,2.47,0,0,1,.22-.29A2.81,2.81,0,0,1,279,.38a3.21,3.21,0,0,1,1.5-.38,3.47,3.47,0,0,1,1.63.36,2.53,2.53,0,0,1,1,1,3,3,0,0,1,.36,1.48,3.24,3.24,0,0,1-.19,1.08,5.12,5.12,0,0,1-.58,1.14,9.88,9.88,0,0,1-1,1.23L279.32,9l-.14-.14Z"/><path class="cls-2" d="M285.67,8.32l.19,0a.56.56,0,0,1,.23.15,2.2,2.2,0,0,0,.66.4,2.14,2.14,0,0,0,.87.16A2.2,2.2,0,0,0,289.54,8a2.17,2.17,0,0,0,.32-1.16,2,2,0,0,0-.32-1.17,1.91,1.91,0,0,0-.79-.68,2.59,2.59,0,0,0-1-.21,2,2,0,0,0-.36,0,1.5,1.5,0,0,0-.32.07,1.47,1.47,0,0,1-.27,0,.41.41,0,0,1-.35-.16.52.52,0,0,1-.13-.37.73.73,0,0,1,0-.23.74.74,0,0,1,.14-.22l2.75-3,.22.27h-4A.52.52,0,0,1,285.1,1a.55.55,0,0,1-.16-.38.49.49,0,0,1,.16-.37.52.52,0,0,1,.38-.15H290a.57.57,0,0,1,.45.17.64.64,0,0,1,.14.39.46.46,0,0,1-.06.23,1,1,0,0,1-.15.2l-2.73,3-.32-.28a.73.73,0,0,1,.32-.1,1.81,1.81,0,0,1,.42,0,2.77,2.77,0,0,1,1.44.38,2.74,2.74,0,0,1,1.05,1.06,3.19,3.19,0,0,1,.39,1.6,3.24,3.24,0,0,1-.46,1.75,3.12,3.12,0,0,1-1.27,1.14,4,4,0,0,1-1.81.41,3.47,3.47,0,0,1-1.1-.18,2.47,2.47,0,0,1-.93-.51.61.61,0,0,1-.25-.22.57.57,0,0,1-.06-.25.68.68,0,0,1,.16-.41A.5.5,0,0,1,285.67,8.32Z"/><path class="cls-2" d="M299.71,2.52a5.08,5.08,0,0,1,1.29.15,2.76,2.76,0,0,1,.91.42.76.76,0,0,1,.34.61.62.62,0,0,1-.12.35.39.39,0,0,1-.34.16.53.53,0,0,1-.3-.07.76.76,0,0,1-.23-.18.81.81,0,0,0-.29-.19,1.4,1.4,0,0,0-.49-.16,3.49,3.49,0,0,0-.65,0,2.52,2.52,0,0,0-1.35.36,2.45,2.45,0,0,0-.91,1,2.92,2.92,0,0,0-.33,1.4,2.92,2.92,0,0,0,.32,1.4A2.41,2.41,0,0,0,299.78,9a2.74,2.74,0,0,0,.78-.08,2.6,2.6,0,0,0,.5-.2,1.43,1.43,0,0,0,.37-.28.5.5,0,0,1,.37-.14.44.44,0,0,1,.36.16.55.55,0,0,1,.13.38.78.78,0,0,1-.35.53,3.16,3.16,0,0,1-.94.47,4.33,4.33,0,0,1-1.34.2,3.45,3.45,0,0,1-1.86-.5,3.3,3.3,0,0,1-1.24-1.35,4.12,4.12,0,0,1-.44-1.93,4.06,4.06,0,0,1,.45-1.92,3.44,3.44,0,0,1,3.14-1.86Z"/><path class="cls-2" d="M307.22,2.59a2.36,2.36,0,0,1,1.54.48,2.42,2.42,0,0,1,.8,1.37h-.21l.09-.25a2.24,2.24,0,0,1,.58-.76,3.6,3.6,0,0,1,.94-.6,2.63,2.63,0,0,1,1.1-.24,2.37,2.37,0,0,1,1.46.4,2.17,2.17,0,0,1,.76,1.06,4.66,4.66,0,0,1,.23,1.49V9.37a.55.55,0,0,1-.16.4.54.54,0,0,1-.4.17.51.51,0,0,1-.4-.17.55.55,0,0,1-.16-.4V5.57a2.86,2.86,0,0,0-.16-1,1.52,1.52,0,0,0-.52-.7,1.64,1.64,0,0,0-1-.25,2.2,2.2,0,0,0-1.05.25,2.14,2.14,0,0,0-.76.7,1.9,1.9,0,0,0-.28,1v3.8a.59.59,0,0,1-.15.4.53.53,0,0,1-.41.17.54.54,0,0,1-.4-.17.59.59,0,0,1-.16-.4V5.53a3.22,3.22,0,0,0-.14-1,1.51,1.51,0,0,0-.5-.69,1.62,1.62,0,0,0-1-.25,2.08,2.08,0,0,0-1,.25,2.23,2.23,0,0,0-.74.69,1.71,1.71,0,0,0-.28,1V9.37a.55.55,0,0,1-.16.4.56.56,0,0,1-.8,0,.55.55,0,0,1-.16-.4V3.26a.54.54,0,0,1,.16-.4.58.58,0,0,1,.4-.16.58.58,0,0,1,.41.16.57.57,0,0,1,.15.4V4.33l-.31.33a2.1,2.1,0,0,1,.29-.73,3.05,3.05,0,0,1,.59-.67,3.24,3.24,0,0,1,.82-.49A2.47,2.47,0,0,1,307.22,2.59Z"/><path class="cls-3" d="M320.74,6.58A.75.75,0,0,1,320,5.8a.71.71,0,0,1,.22-.55.79.79,0,0,1,.56-.21h5.7a.76.76,0,0,1,.56.22.72.72,0,0,1,.22.55.72.72,0,0,1-.22.55.76.76,0,0,1-.56.22Zm2.83,2.73a.87.87,0,0,1-.91-.9V3a.84.84,0,0,1,.27-.64.88.88,0,0,1,.65-.25.86.86,0,0,1,.9.89V8.41a.87.87,0,0,1-.25.65A.89.89,0,0,1,323.57,9.31Z"/><path class="cls-2" d="M338,8.89a.52.52,0,0,1,.38.15.51.51,0,0,1,.16.38.47.47,0,0,1-.16.37.52.52,0,0,1-.38.15H333a.58.58,0,0,1-.41-.15.51.51,0,0,1-.16-.4.58.58,0,0,1,.17-.4l3.16-3.46a7.46,7.46,0,0,0,1-1.36,2.54,2.54,0,0,0,.36-1.24,2,2,0,0,0-.24-1,1.7,1.7,0,0,0-.68-.65,2.24,2.24,0,0,0-2.09.06,2.07,2.07,0,0,0-.81.91.56.56,0,0,1-.21.22.57.57,0,0,1-.25.06.64.64,0,0,1-.38-.14.45.45,0,0,1-.18-.35.52.52,0,0,1,.09-.29,2.47,2.47,0,0,1,.22-.29A2.94,2.94,0,0,1,333.76.38a3.27,3.27,0,0,1,1.5-.38,3.44,3.44,0,0,1,1.63.36,2.55,2.55,0,0,1,1,1,3.11,3.11,0,0,1,.35,1.48,3.24,3.24,0,0,1-.19,1.08,4.72,4.72,0,0,1-.58,1.14,9.88,9.88,0,0,1-1,1.23L334.07,9l-.14-.14Z"/><path class="cls-2" d="M340.42,8.32l.19,0a.56.56,0,0,1,.23.15,2.2,2.2,0,0,0,.66.4,2.14,2.14,0,0,0,.87.16A2.2,2.2,0,0,0,344.3,8a2.17,2.17,0,0,0,.31-1.16,2,2,0,0,0-.31-1.17,1.94,1.94,0,0,0-.8-.68,2.52,2.52,0,0,0-1-.21,2,2,0,0,0-.36,0,1.65,1.65,0,0,0-.32.07,1.36,1.36,0,0,1-.27,0,.41.41,0,0,1-.35-.16.57.57,0,0,1-.13-.37.52.52,0,0,1,.05-.23.48.48,0,0,1,.14-.22l2.74-3,.23.27h-4a.52.52,0,0,1-.38-.15.54.54,0,0,1-.15-.38.48.48,0,0,1,.15-.37.52.52,0,0,1,.38-.15h4.56a.55.55,0,0,1,.45.17.64.64,0,0,1,.14.39.59.59,0,0,1-.05.23.74.74,0,0,1-.16.2l-2.73,3-.32-.28a.78.78,0,0,1,.32-.1,1.81,1.81,0,0,1,.42,0,2.77,2.77,0,0,1,1.44.38,2.74,2.74,0,0,1,1.05,1.06,3.19,3.19,0,0,1,.4,1.6,3.25,3.25,0,0,1-.47,1.75A3.16,3.16,0,0,1,344,9.67a4,4,0,0,1-1.82.41,3.47,3.47,0,0,1-1.1-.18,2.47,2.47,0,0,1-.93-.51.52.52,0,0,1-.24-.22.59.59,0,0,1-.07-.25.64.64,0,0,1,.17-.41A.48.48,0,0,1,340.42,8.32Z"/><path class="cls-2" d="M354.47,2.52a5.05,5.05,0,0,1,1.28.15,2.82,2.82,0,0,1,.92.42.78.78,0,0,1,.33.61.62.62,0,0,1-.12.35.39.39,0,0,1-.34.16.56.56,0,0,1-.3-.07A.76.76,0,0,1,356,4a.86.86,0,0,0-.28-.19,1.48,1.48,0,0,0-.49-.16,3.67,3.67,0,0,0-.66,0,2.51,2.51,0,0,0-1.34.36,2.48,2.48,0,0,0-.92,1A2.92,2.92,0,0,0,352,6.3a3,3,0,0,0,.32,1.4,2.5,2.5,0,0,0,.9,1,2.43,2.43,0,0,0,1.33.36,2.71,2.71,0,0,0,.77-.08,2.36,2.36,0,0,0,.5-.2,1.43,1.43,0,0,0,.37-.28.5.5,0,0,1,.37-.14.47.47,0,0,1,.37.16.6.6,0,0,1,.12.38.74.74,0,0,1-.35.53,3.16,3.16,0,0,1-.94.47,4.29,4.29,0,0,1-1.34.2,3.45,3.45,0,0,1-1.86-.5,3.37,3.37,0,0,1-1.24-1.35,4.25,4.25,0,0,1-.44-1.93,4.06,4.06,0,0,1,.45-1.92A3.61,3.61,0,0,1,352.59,3,3.54,3.54,0,0,1,354.47,2.52Z"/><path class="cls-2" d="M362,2.59a2.39,2.39,0,0,1,1.55.48,2.41,2.41,0,0,1,.79,1.37h-.21l.1-.25a2.08,2.08,0,0,1,.57-.76,3.6,3.6,0,0,1,.94-.6,2.63,2.63,0,0,1,1.1-.24,2.35,2.35,0,0,1,1.46.4A2.17,2.17,0,0,1,369,4.05a4.4,4.4,0,0,1,.23,1.49V9.37a.55.55,0,0,1-.16.4.56.56,0,0,1-.8,0,.59.59,0,0,1-.16-.4V5.57a2.86,2.86,0,0,0-.16-1,1.5,1.5,0,0,0-.51-.7,1.67,1.67,0,0,0-1-.25,2.2,2.2,0,0,0-1.05.25,2,2,0,0,0-.75.7,1.81,1.81,0,0,0-.28,1v3.8a.55.55,0,0,1-.16.4.56.56,0,0,1-.8,0,.55.55,0,0,1-.16-.4V5.53a2.93,2.93,0,0,0-.15-1,1.44,1.44,0,0,0-.5-.69,1.59,1.59,0,0,0-1-.25,2.09,2.09,0,0,0-1,.25,2.33,2.33,0,0,0-.74.69,1.79,1.79,0,0,0-.28,1V9.37a.55.55,0,0,1-.16.4.56.56,0,0,1-.8,0,.59.59,0,0,1-.16-.4V3.26a.55.55,0,0,1,.56-.56.53.53,0,0,1,.56.56V4.33l-.31.33a2.1,2.1,0,0,1,.29-.73,3.11,3.11,0,0,1,.6-.67,3,3,0,0,1,.81-.49A2.51,2.51,0,0,1,362,2.59Z"/><path class="cls-3" d="M375.49,6.58a.76.76,0,0,1-.56-.22.8.8,0,0,1-.22-.56.75.75,0,0,1,.22-.55.79.79,0,0,1,.56-.21h5.7a.75.75,0,0,1,.56.22.77.77,0,0,1,0,1.1.75.75,0,0,1-.56.22Zm2.83,2.73a.87.87,0,0,1-.91-.9V3a.84.84,0,0,1,.27-.64.92.92,0,0,1,.66-.25.87.87,0,0,1,.65.25.89.89,0,0,1,.24.64V8.41a.87.87,0,0,1-.25.65A.89.89,0,0,1,378.32,9.31Z"/><path class="cls-2" d="M392.8,8.89a.51.51,0,0,1,.53.53.5.5,0,0,1-.15.37.54.54,0,0,1-.38.15h-5.08a.6.6,0,0,1-.42-.15.54.54,0,0,1-.16-.4.58.58,0,0,1,.17-.4l3.16-3.46a7.46,7.46,0,0,0,1-1.36,2.45,2.45,0,0,0,.37-1.24,1.88,1.88,0,0,0-.25-1,1.7,1.7,0,0,0-.68-.65,2.24,2.24,0,0,0-2.09.06,2,2,0,0,0-.8.91.58.58,0,0,1-.22.22.54.54,0,0,1-.25.06.61.61,0,0,1-.37-.14A.46.46,0,0,1,387,2a.53.53,0,0,1,.1-.29c.06-.09.13-.19.21-.29A2.94,2.94,0,0,1,388.51.38,3.27,3.27,0,0,1,390,0a3.41,3.41,0,0,1,1.63.36,2.5,2.5,0,0,1,1,1A3,3,0,0,1,393,2.86a3.51,3.51,0,0,1-.19,1.08,5.12,5.12,0,0,1-.58,1.14,11.06,11.06,0,0,1-1,1.23L388.82,9l-.14-.14Z"/><path class="cls-2" d="M395.18,8.32l.19,0a.63.63,0,0,1,.23.15,2.08,2.08,0,0,0,.66.4,2.13,2.13,0,0,0,.86.16,2.31,2.31,0,0,0,1.11-.27,2.27,2.27,0,0,0,.82-.78,2.17,2.17,0,0,0,.31-1.16,2,2,0,0,0-.31-1.17,1.94,1.94,0,0,0-.8-.68,2.5,2.5,0,0,0-1-.21,2.13,2.13,0,0,0-.37,0,1.55,1.55,0,0,0-.31.07,1.45,1.45,0,0,1-.28,0,.42.42,0,0,1-.35-.16.57.57,0,0,1-.12-.37.53.53,0,0,1,0-.23A.59.59,0,0,1,396,4l2.74-3,.23.27h-4A.54.54,0,0,1,394.6,1a.54.54,0,0,1-.15-.38.48.48,0,0,1,.15-.37A.54.54,0,0,1,395,.14h4.57a.54.54,0,0,1,.44.17.59.59,0,0,1,.14.39.46.46,0,0,1-.05.23.74.74,0,0,1-.16.2l-2.73,3-.32-.28a.85.85,0,0,1,.32-.1,1.81,1.81,0,0,1,.42,0,2.78,2.78,0,0,1,1.45.38,2.74,2.74,0,0,1,1.05,1.06,3.19,3.19,0,0,1,.39,1.6A3.33,3.33,0,0,1,400,8.53a3.12,3.12,0,0,1-1.27,1.14,4,4,0,0,1-1.81.41,3.43,3.43,0,0,1-1.1-.18,2.47,2.47,0,0,1-.93-.51.55.55,0,0,1-.25-.22.57.57,0,0,1-.06-.25.63.63,0,0,1,.16-.41A.5.5,0,0,1,395.18,8.32Z"/><path class="cls-2" d="M409.22,2.52a5.13,5.13,0,0,1,1.29.15,2.86,2.86,0,0,1,.91.42.78.78,0,0,1,.33.61.62.62,0,0,1-.12.35.38.38,0,0,1-.34.16.56.56,0,0,1-.3-.07.73.73,0,0,1-.22-.18.91.91,0,0,0-.29-.19,1.4,1.4,0,0,0-.49-.16,3.53,3.53,0,0,0-.66,0,2.51,2.51,0,0,0-1.34.36,2.55,2.55,0,0,0-.92,1,2.92,2.92,0,0,0-.33,1.4,3,3,0,0,0,.32,1.4,2.58,2.58,0,0,0,.9,1,2.45,2.45,0,0,0,1.33.36,2.74,2.74,0,0,0,.78-.08,2.5,2.5,0,0,0,.49-.2,1.5,1.5,0,0,0,.38-.28.48.48,0,0,1,.37-.14.45.45,0,0,1,.36.16.6.6,0,0,1,.13.38.78.78,0,0,1-.35.53,3.23,3.23,0,0,1-.95.47,4.29,4.29,0,0,1-1.34.2,3.47,3.47,0,0,1-1.86-.5,3.44,3.44,0,0,1-1.24-1.35,4.25,4.25,0,0,1-.44-1.93,4,4,0,0,1,.46-1.92A3.51,3.51,0,0,1,407.34,3,3.57,3.57,0,0,1,409.22,2.52Z"/><path class="cls-2" d="M416.72,2.59a2.39,2.39,0,0,1,1.55.48,2.36,2.36,0,0,1,.79,1.37h-.21l.1-.25a2.08,2.08,0,0,1,.57-.76,3.77,3.77,0,0,1,.94-.6,2.71,2.71,0,0,1,1.11-.24A2.33,2.33,0,0,1,423,3a2.19,2.19,0,0,1,.77,1.06A4.66,4.66,0,0,1,424,5.54V9.37a.59.59,0,0,1-.16.4.54.54,0,0,1-.4.17.55.55,0,0,1-.41-.17.59.59,0,0,1-.15-.4V5.57a3.11,3.11,0,0,0-.16-1,1.52,1.52,0,0,0-.52-.7,1.64,1.64,0,0,0-1-.25,2.09,2.09,0,0,0-1.81,1,1.81,1.81,0,0,0-.28,1v3.8a.59.59,0,0,1-.15.4.55.55,0,0,1-.41.17.54.54,0,0,1-.4-.17.55.55,0,0,1-.16-.4V5.53a2.93,2.93,0,0,0-.15-1,1.42,1.42,0,0,0-.49-.69,1.64,1.64,0,0,0-1-.25,2.08,2.08,0,0,0-1,.25,2.14,2.14,0,0,0-.74.69,1.71,1.71,0,0,0-.28,1V9.37a.59.59,0,0,1-.16.4.54.54,0,0,1-.4.17.53.53,0,0,1-.4-.17.55.55,0,0,1-.16-.4V3.26a.54.54,0,0,1,.16-.4.58.58,0,0,1,.8,0,.58.58,0,0,1,.16.4V4.33l-.31.33a1.92,1.92,0,0,1,.29-.73,3.05,3.05,0,0,1,.59-.67,3,3,0,0,1,.81-.49A2.55,2.55,0,0,1,416.72,2.59Z"/><path class="cls-3" d="M430.43,5.11a.84.84,0,0,1-.59-.23.74.74,0,0,1-.24-.55.68.68,0,0,1,.24-.54.83.83,0,0,1,.59-.22H436a.82.82,0,0,1,.6.22.71.71,0,0,1,.23.54.76.76,0,0,1-.23.55.83.83,0,0,1-.6.23Zm0,2.72a.81.81,0,0,1-.59-.24.74.74,0,0,1,0-1.09.87.87,0,0,1,.59-.21H436a.86.86,0,0,1,.6.21.76.76,0,0,1,0,1.09.8.8,0,0,1-.6.24Z"/><path class="cls-2" d="M444.4,9.94a.58.58,0,0,1-.43-.17.56.56,0,0,1-.17-.4v-8l.17.2-1.63,1a.61.61,0,0,1-.28.07.54.54,0,0,1-.4-.19.61.61,0,0,1-.17-.39.57.57,0,0,1,.29-.49L444.07.22a.77.77,0,0,1,.42-.08.46.46,0,0,1,.37.16.56.56,0,0,1,.14.4V9.37a.55.55,0,0,1-.16.4A.62.62,0,0,1,444.4,9.94Z"/><path class="cls-2" d="M451.64,5l0-.2a2.86,2.86,0,0,1,.88.58,3,3,0,0,1,.63.83,2.3,2.3,0,0,1,.23,1,2.5,2.5,0,0,1-.42,1.4,2.89,2.89,0,0,1-1.12,1,3.43,3.43,0,0,1-3.14,0,2.93,2.93,0,0,1-1.11-1,2.49,2.49,0,0,1-.41-1.4,2.29,2.29,0,0,1,.25-1.1,2.93,2.93,0,0,1,.66-.81,3.52,3.52,0,0,1,.84-.54l-.07.23a2.35,2.35,0,0,1-.7-.46,2.35,2.35,0,0,1-.54-.73,2.13,2.13,0,0,1-.21-1,2.59,2.59,0,0,1,.38-1.37,2.63,2.63,0,0,1,1-1,3,3,0,0,1,1.44-.36,2.9,2.9,0,0,1,1.44.36,2.74,2.74,0,0,1,1,1,2.51,2.51,0,0,1,.39,1.37,2.11,2.11,0,0,1-.23,1,2.37,2.37,0,0,1-.55.72A2.71,2.71,0,0,1,451.64,5Zm-1.4,4a2.05,2.05,0,0,0,1.42-.5,1.63,1.63,0,0,0,.55-1.25,1.68,1.68,0,0,0-.26-.92,2,2,0,0,0-.72-.63,2.19,2.19,0,0,0-1-.23,2.14,2.14,0,0,0-1,.23,2,2,0,0,0-.72.63,1.68,1.68,0,0,0-.26.92,1.63,1.63,0,0,0,.55,1.25A2,2,0,0,0,450.24,9Zm-1.72-6.1a1.61,1.61,0,0,0,.23.88,1.56,1.56,0,0,0,.63.59,1.69,1.69,0,0,0,.86.22,1.73,1.73,0,0,0,1.48-.81,1.61,1.61,0,0,0,.24-.88,1.6,1.6,0,0,0-.48-1.2,1.87,1.87,0,0,0-2.48,0A1.6,1.6,0,0,0,448.52,2.86Z"/><path class="cls-2" d="M460.07,9.94a.54.54,0,0,1-.4-.17.55.55,0,0,1-.16-.4V1.71l.22.08-3.34,4.37L456.33,6h5.12a.49.49,0,0,1,.38.16.51.51,0,0,1,.16.37.5.5,0,0,1-.16.36.52.52,0,0,1-.38.15h-5.89a.57.57,0,0,1-.39-.17.54.54,0,0,1-.17-.39.57.57,0,0,1,.14-.37L459.61.36a.51.51,0,0,1,.22-.17.74.74,0,0,1,.25,0,.5.5,0,0,1,.39.16.54.54,0,0,1,.16.4V9.37a.59.59,0,0,1-.16.4A.54.54,0,0,1,460.07,9.94Z"/><path class="cls-2" d="M470.79,2.52a5.08,5.08,0,0,1,1.29.15,2.76,2.76,0,0,1,.91.42.79.79,0,0,1,.34.61.62.62,0,0,1-.12.35.41.41,0,0,1-.35.16.56.56,0,0,1-.3-.07.73.73,0,0,1-.22-.18.91.91,0,0,0-.29-.19,1.4,1.4,0,0,0-.49-.16,3.53,3.53,0,0,0-.66,0,2.51,2.51,0,0,0-1.34.36,2.55,2.55,0,0,0-.92,1,2.92,2.92,0,0,0-.33,1.4,2.92,2.92,0,0,0,.33,1.4A2.41,2.41,0,0,0,470.86,9a2.74,2.74,0,0,0,.78-.08,2.6,2.6,0,0,0,.5-.2,1.63,1.63,0,0,0,.37-.28.48.48,0,0,1,.37-.14.44.44,0,0,1,.36.16.55.55,0,0,1,.13.38.78.78,0,0,1-.35.53,3.23,3.23,0,0,1-.95.47,4.22,4.22,0,0,1-1.33.2,3.51,3.51,0,0,1-1.87-.5,3.44,3.44,0,0,1-1.24-1.35,4.25,4.25,0,0,1-.44-1.93,4,4,0,0,1,.46-1.92A3.46,3.46,0,0,1,468.92,3,3.51,3.51,0,0,1,470.79,2.52Z"/><path class="cls-2" d="M478.29,2.59a2.37,2.37,0,0,1,1.55.48,2.36,2.36,0,0,1,.79,1.37h-.21l.1-.25a2.08,2.08,0,0,1,.57-.76,4,4,0,0,1,.94-.6,2.71,2.71,0,0,1,1.11-.24,2.33,2.33,0,0,1,1.45.4,2.19,2.19,0,0,1,.77,1.06,4.66,4.66,0,0,1,.23,1.49V9.37a.55.55,0,0,1-.16.4.54.54,0,0,1-.4.17.55.55,0,0,1-.41-.17.59.59,0,0,1-.15-.4V5.57a2.86,2.86,0,0,0-.16-1,1.52,1.52,0,0,0-.52-.7,1.64,1.64,0,0,0-1-.25,2.09,2.09,0,0,0-1.81,1,1.81,1.81,0,0,0-.28,1v3.8a.59.59,0,0,1-.15.4.55.55,0,0,1-.41.17.54.54,0,0,1-.4-.17.55.55,0,0,1-.16-.4V5.53a2.93,2.93,0,0,0-.15-1,1.42,1.42,0,0,0-.49-.69,1.64,1.64,0,0,0-1-.25,2.08,2.08,0,0,0-1,.25,2.14,2.14,0,0,0-.74.69,1.71,1.71,0,0,0-.28,1V9.37a.59.59,0,0,1-.16.4.54.54,0,0,1-.4.17.53.53,0,0,1-.4-.17.55.55,0,0,1-.16-.4V3.26a.54.54,0,0,1,.16-.4.58.58,0,0,1,.8,0,.54.54,0,0,1,.16.4V4.33l-.31.33a1.92,1.92,0,0,1,.29-.73,3.05,3.05,0,0,1,.59-.67,3,3,0,0,1,.81-.49A2.55,2.55,0,0,1,478.29,2.59Z"/></g></g></svg>