<svg xmlns="http://www.w3.org/2000/svg" viewBox="0 0 257.62 350.99"><defs><style>.cls-1{fill:none;}.cls-2{fill:#d3f7a4;}.cls-3{fill:#58d313;}.cls-4{fill:#25a5dd;}.cls-5{fill:#363026;}</style></defs><g id="Layer_2" data-name="Layer 2"><g id="Layer_1-2" data-name="Layer 1"><rect class="cls-1" width="257.62" height="350.99"/><path class="cls-2" d="M93.75,140.32s-34.91,40.23-44.88,62.5S32.24,263,38.23,270.64s-10.31,19.62-10.31,19.62-9.64,9.31-2.33,19.61,22.94,0,22.94,0,2.66,8.31,14.63,7.32,23.27-4.66,23.27-5.66,12,8,21.61,7.83,40.56,3.48,56.52-4.83,12-3.33,12-3.33,23.27,4.66,24.93-3.66,4.66-.33,4.66-.33.66,4,16.29,3,12-9,12-9-5-16-9.64-25.27-5.65-21.61-5.65-21.61-3.66-47.54-18-70.81-12.63-28.3-34.58-49.22c0,.2-15.5-2.25-33.24-1.31C117.62,133.83,93.75,140.32,93.75,140.32Z"/><path class="cls-3" d="M131.33,320.51c-5.53,0-10.74-.23-15-.42-3.38-.14-6.3-.27-8.26-.23-6.94.12-14.8-4.27-19-6.63-.93-.52-1.9-1.05-2.32-1.22-1.88,1.9-13.9,4.87-23.48,5.67-10.34.87-14-5.15-14.9-7.08-2.79,1.67-16.37,9.07-23.11-.44-7.48-10.53,2.29-20.17,2.39-20.26s10.48-7.78,11.4-14.52A5.65,5.65,0,0,0,37.83,271c-6.31-8.07.83-46.56,10.58-68.33C58.3,180.53,93,140.4,93.37,140l.1-.11.15,0c.24-.07,24.1-6.51,39.66-7.33a197,197,0,0,1,31.35,1.14l1.44.15v-.62l.82.77c15.64,14.92,19.27,21.68,25.29,32.88,2.45,4.55,5.23,9.71,9.36,16.45,14.2,23.11,18,70.56,18,71,0,.12,1,12.32,5.6,21.43s9.62,25.18,9.67,25.34a5.58,5.58,0,0,1-.37,4.88c-1.64,2.74-5.69,4.34-12,4.74-15.62,1-16.74-2.95-16.82-3.41-.48-1.25-1.53-3.08-2.18-3-.14,0-.86.23-1.49,3.38-1.74,8.7-24.55,4.25-25.52,4.05l-.8-.16.51-.64a1.46,1.46,0,0,0,.33-.68c-.16-.08-1.64-.47-11.68,4.76C156.09,319.5,143,320.51,131.33,320.51Zm-22.55-1.66c2,0,4.58.12,7.57.25,13.24.57,35.41,1.53,48-5,11.63-6.05,12.51-5,12.93-4.46a1.13,1.13,0,0,1,.06,1.22c3.84.68,22.26,3.56,23.65-3.39.56-2.77,1.31-4.09,2.39-4.18,1.7-.11,3,3.11,3.22,3.77,0,.11,1.11,3.61,15.79,2.67,5.91-.38,9.8-1.85,11.25-4.25a4.6,4.6,0,0,0,.3-4c-.07-.21-5-16.08-9.63-25.25s-5.7-21.66-5.7-21.79c0-.47-3.82-47.69-17.89-70.59-4.15-6.76-6.93-11.93-9.38-16.5-6-11.08-9.56-17.78-25-32.48-.31,0-.84-.07-1.83-.18a196.43,196.43,0,0,0-31.19-1.14c-14.83.79-37.28,6.72-39.32,7.26C92,143.17,58.89,181.66,49.32,203c-10.35,23.1-16.25,60.22-10.7,67.3A6.63,6.63,0,0,1,40,275.52c-1,7.15-11.31,14.82-11.75,15.14S19,299.75,26,309.58s22.11,0,22.26-.12l.55-.37.2.63c.1.32,2.71,7.91,14.11,7s21.81-4.32,22.81-5.27v-.17l.28-.21c.43-.25.89,0,3.28,1.32,4.1,2.28,11.69,6.5,18.26,6.5h1Z"/><path class="cls-2" d="M163.15,110.94s2.49-11.22,11-17.2,7.1-1.87,11.59-8.73,10.72-18.83,12.59-18.58,5.61-20.32-2.74-22.19-24.81-3-30.67,0l-5.86,3a8.71,8.71,0,0,1-2.37-4.83c-.25-2.77-.49-9.88-18.32-11.25S118.51,37,118.51,37s2.22,16.09,1.75,17.7c-.56,1.93-1.37,3.37-10,1.25s-4.62-7.1-16.21-6.48-13.34,3.36-16.46,3.36S64.16,50.1,51.44,55.59s2.87,20.32,6.36,21.94A58.49,58.49,0,0,1,80.24,94.36c9.1,11.1,14.7,26.58,14.7,26.58S128.8,110.07,163.15,110.94Z"/><path class="cls-3" d="M94.63,121.56l-.16-.45c0-.15-5.67-15.53-14.61-26.43A57.54,57.54,0,0,0,58.21,78.27L57.59,78C55.08,76.82,45.94,68.64,46,61.82c0-3,1.8-5.22,5.21-6.69,10.5-4.53,19.29-3.53,24-3,1,.11,1.83.21,2.37.21a8.87,8.87,0,0,0,3.17-.81c2.29-.86,5.75-2.16,13.26-2.56,6.93-.37,8.5,1.22,10.31,3.05a10.94,10.94,0,0,0,6,3.45c8.5,2.09,8.92.63,9.37-.91.32-1.1-.91-11.31-1.76-17.49V37l0-.1c.09-.31,2.32-7.61,20.34-6.22s18.51,8.48,18.77,11.52l0,.17a8.11,8.11,0,0,0,2,4.27l5.52-2.82c6.34-3.24,23.29-1.77,31,0,6.25,1.39,6.11,11.85,5.05,17.81-.45,2.53-1.23,5.53-2.48,5.36-1.07,0-5,6.66-7.63,11-1.52,2.55-3.09,5.19-4.48,7.31-2.71,4.15-3.4,4.43-5.24,5.18a29.5,29.5,0,0,0-6.49,3.68c-8.21,5.8-10.74,16.8-10.77,16.91l-.09.4h-.41c-33.86-.85-67.7,9.87-68,10ZM68.11,52.65a41,41,0,0,0-16.47,3.4c-3,1.3-4.58,3.25-4.61,5.79C46.94,68.13,55.71,76,58,77.08l.62.28A58.72,58.72,0,0,1,80.63,94c8.18,10,13.61,23.65,14.61,26.29,4.14-1.27,35.75-10.6,67.52-9.9.53-2.1,3.34-11.64,11.07-17.1a30.35,30.35,0,0,1,6.68-3.79c1.68-.69,2.24-.92,4.78-4.8,1.38-2.11,3-4.74,4.46-7.28,4.74-7.95,7-11.53,8.5-11.53h0c.84-.66,2.7-8.21,1.7-14.48-.43-2.7-1.56-6.05-4.54-6.72-8.62-1.93-24.72-2.91-30.33,0l-6.18,3.15-.26-.25a9.14,9.14,0,0,1-2.51-5.15l0-.18c-.24-2.78-.81-9.3-17.85-10.61-16.06-1.23-19,4.63-19.28,5.41.3,2.14,2.2,16.16,1.72,17.8-.67,2.29-1.82,3.74-10.57,1.59a11.9,11.9,0,0,1-6.52-3.72c-1.71-1.73-3.06-3.1-9.54-2.75-7.36.39-10.73,1.66-13,2.5a9.85,9.85,0,0,1-3.52.86,24.84,24.84,0,0,1-2.48-.21A60.37,60.37,0,0,0,68.11,52.65Z"/><path class="cls-3" d="M120.32,54.36a10.2,10.2,0,0,0,3.91-.84,11.68,11.68,0,0,0,3.34-2.09,8.08,8.08,0,0,0,3-6.79,4.89,4.89,0,0,0-1.06-3.45,9,9,0,0,0-3.41-1.72l-3.86-1.25c-1.28-.45-2.57-.87-3.84-1.35,1.33.26,2.65.59,4,.88l4,1a9.06,9.06,0,0,1,3.85,1.78,4.46,4.46,0,0,1,1.11,2,9.23,9.23,0,0,1,.28,2.13,12.8,12.8,0,0,1-.12,2.12,8.14,8.14,0,0,1-.7,2A9.94,9.94,0,0,1,128.06,52,10.47,10.47,0,0,1,120.32,54.36Z"/><path class="cls-3" d="M104,52.28c2,3.2,3.91,6.5,5.69,9.86s3.39,6.81,4.85,10.33a65.18,65.18,0,0,1,3.71,10.85,36.77,36.77,0,0,1,.82,11.45h-.2c-.68-3.76-1.54-7.37-2.55-11l-1.57-5.39c-.48-1.82-1.1-3.59-1.7-5.37-1.25-3.55-2.71-7-4.26-10.48s-3.16-6.87-5-10.19Z"/><path class="cls-3" d="M91.17,71.09a68,68,0,0,0,7.93,9.6c1.47,1.48,3,2.85,4.53,4.27a27,27,0,0,1,4.16,5,41.62,41.62,0,0,1,3,5.66,50,50,0,0,1,2.11,6,39.74,39.74,0,0,1,1.6,12.53,64.65,64.65,0,0,0-3.08-12.06A53.19,53.19,0,0,0,106.13,91a27.43,27.43,0,0,0-3.8-4.7c-1.46-1.46-3-3-4.37-4.58A41,41,0,0,1,91.17,71.09Z"/><path class="cls-3" d="M130.76,47.73a39.15,39.15,0,0,1,6.32,10,30.16,30.16,0,0,1,1.81,5.69,27.16,27.16,0,0,1,.47,3l.24,3c.28,3.92.61,7.85.5,11.77a91.31,91.31,0,0,1-.91,11.77H139c-.5-3.92-.71-7.83-.88-11.74s0-7.82-.1-11.72l-.09-2.92c-.08-1-.13-1.9-.3-2.84a29.32,29.32,0,0,0-1.47-5.57,38.71,38.71,0,0,0-5.54-10.2Z"/><path class="cls-3" d="M134.49,112.38a25.93,25.93,0,0,0,.56-2.84c.13-1,.22-1.93.26-2.91a27.39,27.39,0,0,0-.4-5.85,26.78,26.78,0,0,1,.89,5.85,27.11,27.11,0,0,1,0,3,23.57,23.57,0,0,1-.33,3Z"/><path class="cls-3" d="M149.71,75.22a16.08,16.08,0,0,1,1.22-7.39,27.82,27.82,0,0,1,1.63-3.38,11.22,11.22,0,0,0,1-3.25c.09-.54.12-1.14.17-1.77l.16-1.83c.06-.62.12-1.23.19-1.84a15.74,15.74,0,0,1,.33-1.9c.62-2.48,1.82-5.06,4.28-6.36l1-.54L159.22,48a6.19,6.19,0,0,0-.05,5.11,9.26,9.26,0,0,0,3.55,3.92,21.16,21.16,0,0,0,4.88,2.3,51,51,0,0,0,5.25,1.5,79.77,79.77,0,0,0,10.78,1.89A51.57,51.57,0,0,0,189,63c.9,0,1.8,0,2.69-.14a17.18,17.18,0,0,0,2.55-.42l.12,0a9.27,9.27,0,0,0,2.63-1,6.79,6.79,0,0,0,3.4-4.44,10.33,10.33,0,0,0,.21-3l.2,0a9.16,9.16,0,0,1,.23,3.14,7.06,7.06,0,0,1-1,3.08,8.34,8.34,0,0,1-2.29,2.37,9.25,9.25,0,0,1-3,1.43l.12,0a21.22,21.22,0,0,1-5.73,1,43.2,43.2,0,0,1-5.69-.1,61.55,61.55,0,0,1-11-2.23,28.66,28.66,0,0,1-10.23-4.8,11.46,11.46,0,0,1-3.55-4.46,7.64,7.64,0,0,1,0-5.7l.49.52a6.08,6.08,0,0,0-2.11,2.61,11.32,11.32,0,0,0-.91,3.35c-.09.58-.12,1.16-.17,1.76s-.09,1.23-.14,1.85l-.17,1.84c-.06.6-.11,1.23-.24,1.9a11.4,11.4,0,0,1-1.37,3.7c-.68,1.1-1.3,2-1.84,3.15a19.8,19.8,0,0,0-2.18,6.87Z"/><path class="cls-3" d="M156.25,110.68c-.19-2.64-.23-5.22-.2-7.83s.16-5.21.45-7.8a52.72,52.72,0,0,1,1.33-7.68,28.08,28.08,0,0,1,2.82-7.22,28.24,28.24,0,0,0-2.34,7.33,53.08,53.08,0,0,0-.81,7.65c-.12,2.56-.08,5.13.05,7.69s.34,5.13.69,7.63Z"/><path class="cls-4" d="M94.94,120.94s-7.59,3.26-6,6.17,2.9,3,2.9,3-3.28,2-3.12,5.32c.17,3.56,2,5.72,5,4.9,2.2-.59,27.31-5.88,37.2-7s26.28.16,26.28.16l7.55.66c2.17.59,3.13.06,4.61-.42a5.25,5.25,0,0,0,3.65-3.83c1-3.58-2.25-8.81-6.07-8.48-2.47.22-1.3-2-.16-3.58a4.4,4.4,0,0,0-3.66-6.85C155.92,111.18,135.28,109.13,94.94,120.94Z"/><path class="cls-5" d="M86.09,239.81a1.83,1.83,0,0,1-1.35-.53,1.73,1.73,0,0,1-.53-1.27V213.1l.53.62-5.08,3.06a1.74,1.74,0,0,1-.88.22,1.66,1.66,0,0,1-1.27-.59,1.79,1.79,0,0,1-.52-1.2,1.72,1.72,0,0,1,.92-1.54L85,209.43a2.35,2.35,0,0,1,1.32-.27,1.48,1.48,0,0,1,1.18.51,1.83,1.83,0,0,1,.44,1.25V238a1.73,1.73,0,0,1-.53,1.27A1.84,1.84,0,0,1,86.09,239.81Z"/><path class="cls-5" d="M117.05,240.25a9.07,9.07,0,0,1-6.07-2.06,12.67,12.67,0,0,1-3.68-5.65,26.91,26.91,0,0,1,0-16.15,12.75,12.75,0,0,1,3.68-5.61,10,10,0,0,1,12.13,0,12.46,12.46,0,0,1,3.65,5.61,27.12,27.12,0,0,1,0,16.15,12.38,12.38,0,0,1-3.65,5.65A9.06,9.06,0,0,1,117.05,240.25Zm0-3.55a5.49,5.49,0,0,0,3.91-1.49,9.26,9.26,0,0,0,2.43-4.22,25.76,25.76,0,0,0,0-13.05,9.13,9.13,0,0,0-2.43-4.2,5.95,5.95,0,0,0-7.83,0,9.24,9.24,0,0,0-2.45,4.2,25.18,25.18,0,0,0,0,13.05,9.37,9.37,0,0,0,2.45,4.22A5.49,5.49,0,0,0,117.05,236.7Z"/><path class="cls-5" d="M143.36,240.25a9.07,9.07,0,0,1-6.07-2.06,12.67,12.67,0,0,1-3.68-5.65,26.91,26.91,0,0,1,0-16.15,12.75,12.75,0,0,1,3.68-5.61,10,10,0,0,1,12.13,0,12.46,12.46,0,0,1,3.65,5.61,27.12,27.12,0,0,1,0,16.15,12.38,12.38,0,0,1-3.65,5.65A9.06,9.06,0,0,1,143.36,240.25Zm0-3.55a5.49,5.49,0,0,0,3.91-1.49A9.26,9.26,0,0,0,149.7,231a25.76,25.76,0,0,0,0-13.05,9.13,9.13,0,0,0-2.43-4.2,5.95,5.95,0,0,0-7.83,0,9.33,9.33,0,0,0-2.45,4.2A25.18,25.18,0,0,0,137,231a9.46,9.46,0,0,0,2.45,4.22A5.49,5.49,0,0,0,143.36,236.7Z"/><path class="cls-5" d="M169.67,240.25a9.07,9.07,0,0,1-6.07-2.06,12.57,12.57,0,0,1-3.67-5.65,26.71,26.71,0,0,1,0-16.15,12.65,12.65,0,0,1,3.67-5.61,10,10,0,0,1,12.13,0,12.55,12.55,0,0,1,3.66,5.61,27.33,27.33,0,0,1,0,16.15,12.47,12.47,0,0,1-3.66,5.65A9.06,9.06,0,0,1,169.67,240.25Zm0-3.55a5.53,5.53,0,0,0,3.92-1.49A9.44,9.44,0,0,0,176,231a26.06,26.06,0,0,0,0-13.05,9.31,9.31,0,0,0-2.43-4.2,6,6,0,0,0-7.84,0,9.33,9.33,0,0,0-2.45,4.2,25.18,25.18,0,0,0,0,13.05,9.46,9.46,0,0,0,2.45,4.22A5.49,5.49,0,0,0,169.67,236.7Z"/><path class="cls-4" d="M129.21,294.84a20.47,20.47,0,0,1-7.52-1.27,20.06,20.06,0,0,1-6.24-4.05,3.65,3.65,0,0,1-.67-.89,2.35,2.35,0,0,1,.41-2.72,2.15,2.15,0,0,1,1.65-.72,2,2,0,0,1,1.44.63,16.33,16.33,0,0,0,4.89,3.36,14.58,14.58,0,0,0,5.92,1.15,12.44,12.44,0,0,0,4.6-.81,8,8,0,0,0,3.27-2.25,5,5,0,0,0,1.21-3.35,5.84,5.84,0,0,0-1.36-3.82,10,10,0,0,0-3.58-2.52,29.93,29.93,0,0,0-5.29-1.7,33.45,33.45,0,0,1-4.89-1.56,14.58,14.58,0,0,1-3.84-2.29,9.38,9.38,0,0,1-2.52-3.29,10.69,10.69,0,0,1-.9-4.54,9.85,9.85,0,0,1,1.74-5.79,11.31,11.31,0,0,1,4.8-3.84,17.15,17.15,0,0,1,7-1.36,19.27,19.27,0,0,1,6.68,1.16,12.91,12.91,0,0,1,5.06,3.18,3.06,3.06,0,0,1,1.16,2.14,2.21,2.21,0,0,1-.72,1.59,2.3,2.3,0,0,1-1.65.72,1.69,1.69,0,0,1-1.16-.46,10.08,10.08,0,0,0-2.49-2,14.93,14.93,0,0,0-3.29-1.39,13.6,13.6,0,0,0-8.27.26,7.27,7.27,0,0,0-3.15,2.2,5.28,5.28,0,0,0-1.13,3.38,5.21,5.21,0,0,0,1.27,3.62A9.49,9.49,0,0,0,125.1,270a36.17,36.17,0,0,0,4.75,1.59,46.24,46.24,0,0,1,5.23,1.59,15.72,15.72,0,0,1,4.13,2.23,8.78,8.78,0,0,1,2.69,3.38,11.93,11.93,0,0,1,1,5.06,9.43,9.43,0,0,1-1.8,5.67,12,12,0,0,1-4.88,3.9A17.16,17.16,0,0,1,129.21,294.84Zm2.6,5.32a2.24,2.24,0,0,1-.66,1.65,2.35,2.35,0,0,1-1.71.67,2.16,2.16,0,0,1-1.62-.67,2.3,2.3,0,0,1-.63-1.65V249.74a2.37,2.37,0,0,1,.66-1.68,2.35,2.35,0,0,1,3.33,0,2.44,2.44,0,0,1,.63,1.68Z"/></g></g></svg>