<svg xmlns="http://www.w3.org/2000/svg" viewBox="0 0 257.62 350.99"><defs><style>.cls-1{fill:none;}.cls-2{fill:#d3f7a4;}.cls-3{fill:#58d313;}.cls-4{fill:#25a5dd;}.cls-5{fill:#363026;}</style></defs><g id="Layer_2" data-name="Layer 2"><g id="Layer_1-2" data-name="Layer 1"><rect class="cls-1" width="257.62" height="350.99"/><path class="cls-2" d="M90.1,136.66s-38.54,44.41-49.56,69S22.19,272.11,28.8,280.55,17.42,302.2,17.42,302.2s-10.65,10.28-2.57,21.66,25.33,0,25.33,0,2.93,9.18,16.15,8.08S82,326.8,82,325.7s13.22,8.83,23.86,8.64,44.78,3.84,62.4-5.34,13.22-3.67,13.22-3.67,25.69,5.14,27.52-4,5.14-.37,5.14-.37.74,4.41,18,3.31,13.21-9.91,13.21-9.91-5.5-17.62-10.64-27.9-6.24-23.86-6.24-23.86-4-52.49-19.82-78.18S194.71,153.13,170.48,130c0,.23-17.11-2.48-36.7-1.45C116.45,129.5,90.1,136.66,90.1,136.66Z"/><path class="cls-3" d="M131.59,335.6c-6.1,0-11.85-.25-16.58-.45-3.73-.16-7-.31-9.12-.26-7.66.13-16.35-4.71-21-7.32-1-.57-2.1-1.16-2.57-1.35-2.08,2.1-15.34,5.38-25.92,6.26-11.42,1-15.46-5.69-16.45-7.81-3.09,1.84-18.07,10-25.52-.49-8.25-11.63,2.53-22.27,2.64-22.37s11.57-8.59,12.59-16a6.23,6.23,0,0,0-1.27-4.89c-7-8.92.92-51.41,11.68-75.45C51,181.06,89.29,136.74,89.68,136.3l.11-.13.16,0c.27-.07,26.61-7.19,43.8-8.1a217.16,217.16,0,0,1,34.61,1.27l1.59.16v-.69l.9.86c17.27,16.47,21.28,23.93,27.93,36.3,2.71,5,5.77,10.72,10.34,18.16C224.8,209.6,229,262,229,262.52c0,.13,1.15,13.59,6.18,23.65s10.62,27.81,10.68,28a6.15,6.15,0,0,1-.41,5.39c-1.81,3-6.28,4.79-13.29,5.24-17.25,1.1-18.49-3.26-18.57-3.76-.53-1.39-1.69-3.41-2.41-3.35-.15,0-1,.25-1.65,3.73-1.92,9.61-27.1,4.68-28.17,4.47l-.89-.18.56-.7a1.6,1.6,0,0,0,.37-.76c-.18-.09-1.81-.51-12.89,5.26C158.93,334.49,144.49,335.6,131.59,335.6Zm-24.89-1.82c2.14,0,5,.12,8.35.27,14.62.63,39.1,1.69,53-5.54,12.83-6.68,13.81-5.5,14.28-4.93a1.25,1.25,0,0,1,.06,1.35c4.25.75,24.58,3.93,26.11-3.75.62-3.05,1.45-4.51,2.64-4.61,1.88-.12,3.29,3.44,3.56,4.16,0,.12,1.22,4,17.43,2.95,6.53-.42,10.82-2,12.42-4.69a5,5,0,0,0,.33-4.44c-.08-.24-5.57-17.76-10.63-27.88s-6.29-23.93-6.3-24.06c0-.53-4.21-52.66-19.74-77.94-4.59-7.47-7.66-13.18-10.37-18.22-6.57-12.23-10.55-19.63-27.55-35.86-.34,0-.93-.08-2-.2a215.52,215.52,0,0,0-34.44-1.26c-16.37.87-41.16,7.42-43.41,8-2.29,2.65-38.79,45.15-49.35,68.74-11.43,25.52-17.94,66.49-11.82,74.32a7.3,7.3,0,0,1,1.49,5.72c-1.08,7.9-12.49,16.36-13,16.72s-10.14,10-2.44,20.89,24.41,0,24.57-.14l.61-.4.22.69c.12.36,3,8.73,15.58,7.7s24.09-4.77,25.19-5.82v-.19l.31-.23c.47-.27,1,0,3.61,1.46,4.53,2.52,12.92,7.18,20.17,7.18h1.14Z"/><path class="cls-2" d="M166.72,104.22s2.75-12.39,12.11-19,7.85-2.07,12.81-9.64,11.83-20.78,13.9-20.51,6.19-22.44-3-24.5-27.39-3.3-33.86,0l-6.47,3.3a9.66,9.66,0,0,1-2.62-5.34c-.27-3.05-.55-10.9-20.23-12.41s-21.89,6.47-21.89,6.47,2.45,17.76,1.93,19.54c-.62,2.13-1.51,3.72-11,1.38s-5.09-7.85-17.9-7.16-14.72,3.72-18.17,3.72-14.86-3-28.9,3,3.16,22.44,7,24.23A64.69,64.69,0,0,1,75.19,85.91c10,12.25,16.22,29.35,16.22,29.35S128.8,103.26,166.72,104.22Z"/><path class="cls-3" d="M91.08,116l-.18-.5c-.07-.17-6.27-17.15-16.14-29.19a63.55,63.55,0,0,0-23.9-18.11l-.68-.32C47.41,66.55,37.31,57.52,37.41,50c.05-3.28,2-5.76,5.76-7.39,11.59-5,21.29-3.89,26.5-3.3,1.13.13,2,.23,2.62.23a10.07,10.07,0,0,0,3.51-.89c2.52-1,6.34-2.38,14.63-2.83,7.65-.41,9.38,1.34,11.39,3.37a12,12,0,0,0,6.67,3.8c9.39,2.31,9.85.71,10.35-1,.36-1.22-1-12.5-1.94-19.32l0-.11,0-.11c.1-.34,2.56-8.41,22.46-6.87C159.12,17.1,159.8,25,160.09,28.3l0,.19a8.92,8.92,0,0,0,2.19,4.71l6.1-3.11c7-3.57,25.71-1.95,34.23-.05,6.9,1.55,6.75,13.09,5.58,19.67-.5,2.8-1.36,6.1-2.75,5.92-1.17,0-5.53,7.35-8.42,12.19-1.67,2.82-3.41,5.73-4.94,8.07-3,4.58-3.76,4.89-5.79,5.72a31.84,31.84,0,0,0-7.16,4.07c-9.07,6.4-11.86,18.54-11.89,18.66l-.1.44h-.45c-37.4-.94-74.75,10.9-75.13,11ZM61.79,39.87a45.27,45.27,0,0,0-18.18,3.74c-3.34,1.44-5.06,3.59-5.09,6.4C38.42,57,48.1,65.65,50.64,66.83l.68.31A64.79,64.79,0,0,1,75.61,85.56c9,11,15,26.12,16.14,29,4.57-1.4,39.47-11.7,74.54-10.92.59-2.32,3.69-12.86,12.23-18.88a33.08,33.08,0,0,1,7.37-4.19c1.85-.76,2.48-1,5.28-5.3,1.53-2.33,3.26-5.23,4.93-8,5.23-8.78,7.76-12.73,9.38-12.73h0c.93-.73,3-9.07,1.88-16-.47-3-1.72-6.69-5-7.42-9.52-2.14-27.3-3.21-33.49-.05l-6.82,3.48-.29-.27A10.13,10.13,0,0,1,159,28.59v-.2c-.27-3.07-.9-10.27-19.71-11.72-17.73-1.35-20.94,5.12-21.28,6,.32,2.37,2.42,17.84,1.89,19.65-.74,2.53-2,4.13-11.67,1.75A13.07,13.07,0,0,1,101,40c-1.89-1.91-3.38-3.43-10.54-3-8.12.44-11.84,1.83-14.31,2.76a10.88,10.88,0,0,1-3.89,1c-.66,0-1.58-.11-2.74-.24A67.11,67.11,0,0,0,61.79,39.87Z"/><path class="cls-3" d="M119.44,41.75a11.08,11.08,0,0,0,4.31-.93,12.61,12.61,0,0,0,3.69-2.31A8.93,8.93,0,0,0,130.78,31a5.43,5.43,0,0,0-1.18-3.81,10,10,0,0,0-3.76-1.9l-4.26-1.38c-1.41-.5-2.84-1-4.25-1.49,1.47.29,2.93.65,4.4,1l4.37,1.09a10,10,0,0,1,4.24,2,4.72,4.72,0,0,1,1.22,2.17,9.63,9.63,0,0,1,.32,2.35,14.55,14.55,0,0,1-.13,2.35,8.83,8.83,0,0,1-.78,2.25,10.9,10.9,0,0,1-3,3.57A11.58,11.58,0,0,1,119.44,41.75Z"/><path class="cls-3" d="M101.46,39.45c2.25,3.53,4.32,7.18,6.29,10.89s3.74,7.52,5.34,11.41a71.35,71.35,0,0,1,4.11,12,40.81,40.81,0,0,1,.9,12.65h-.22c-.75-4.14-1.7-8.13-2.82-12.11l-1.72-6c-.54-2-1.22-4-1.89-5.93-1.38-3.92-3-7.76-4.7-11.56s-3.49-7.59-5.48-11.26Z"/><path class="cls-3" d="M87.25,60.22A75.92,75.92,0,0,0,96,70.82c1.62,1.63,3.27,3.14,5,4.71A30,30,0,0,1,105.6,81,46.41,46.41,0,0,1,109,87.27a56.35,56.35,0,0,1,2.33,6.65A43.6,43.6,0,0,1,113,107.75a71.19,71.19,0,0,0-3.4-13.31,57.78,57.78,0,0,0-5.88-12.21A29.61,29.61,0,0,0,99.58,77C98,75.42,96.24,73.77,94.75,72A45.2,45.2,0,0,1,87.25,60.22Z"/><path class="cls-3" d="M131,34.43a43.26,43.26,0,0,1,7,11,32.89,32.89,0,0,1,2,6.29,30.42,30.42,0,0,1,.52,3.29l.27,3.25c.3,4.34.67,8.67.55,13a103,103,0,0,1-1,13H140c-.54-4.33-.78-8.65-1-13s0-8.63-.11-12.94l-.1-3.23a30.23,30.23,0,0,0-.34-3.13,31.29,31.29,0,0,0-1.61-6.15,42.57,42.57,0,0,0-6.13-11.27Z"/><path class="cls-3" d="M135.08,105.81a26.26,26.26,0,0,0,.62-3.13,31.35,31.35,0,0,0,.28-3.21,29.28,29.28,0,0,0-.44-6.47,29.86,29.86,0,0,1,1,6.46,30.27,30.27,0,0,1,0,3.3,27,27,0,0,1-.37,3.31Z"/><path class="cls-3" d="M151.88,64.78a17.93,17.93,0,0,1,1.35-8.16,31.4,31.4,0,0,1,1.8-3.73,12.59,12.59,0,0,0,1.15-3.58c.1-.61.13-1.27.19-2l.18-2c.07-.67.12-1.35.21-2a15.37,15.37,0,0,1,.36-2.1c.68-2.74,2-5.58,4.73-7l1.13-.6-.59,1.17a6.81,6.81,0,0,0-.06,5.64,10.18,10.18,0,0,0,3.92,4.33,23.33,23.33,0,0,0,5.39,2.54,55.9,55.9,0,0,0,5.8,1.65A88.37,88.37,0,0,0,189.33,51a57.15,57.15,0,0,0,6,.3c1,0,2,0,3-.16a17.12,17.12,0,0,0,2.82-.46l.13,0a10.57,10.57,0,0,0,2.9-1.09,7.89,7.89,0,0,0,2.38-2,7.63,7.63,0,0,0,1.37-2.87,11.48,11.48,0,0,0,.24-3.32l.22,0a10.58,10.58,0,0,1,.26,3.47,7.91,7.91,0,0,1-1.15,3.39,9.15,9.15,0,0,1-2.53,2.62,10.39,10.39,0,0,1-3.34,1.58l.14,0a23.79,23.79,0,0,1-6.33,1.13,47,47,0,0,1-6.28-.12,68,68,0,0,1-12.2-2.46,31.69,31.69,0,0,1-11.29-5.3,12.66,12.66,0,0,1-3.92-4.92,8.42,8.42,0,0,1,0-6.3l.54.58a6.68,6.68,0,0,0-2.34,2.88,12.68,12.68,0,0,0-1,3.7c-.09.64-.13,1.28-.18,1.94s-.11,1.36-.16,2l-.19,2c-.07.67-.12,1.37-.26,2.1a12.48,12.48,0,0,1-1.52,4.09c-.75,1.21-1.42,2.26-2,3.47a21.77,21.77,0,0,0-2.42,7.59Z"/><path class="cls-3" d="M159.11,103.93c-.21-2.91-.26-5.76-.22-8.65s.18-5.74.49-8.6a59.44,59.44,0,0,1,1.47-8.48,31,31,0,0,1,3.12-8,31,31,0,0,0-2.58,8.1,58.39,58.39,0,0,0-.91,8.44c-.13,2.83-.08,5.67.06,8.49s.38,5.67.76,8.43Z"/><path class="cls-4" d="M91.41,115.26s-8.38,3.6-6.64,6.81,3.21,3.3,3.21,3.3-3.62,2.26-3.44,5.88c.19,3.93,2.2,6.31,5.56,5.41,2.43-.65,30.15-6.5,41.07-7.77s29,.17,29,.17l8.34.73c2.39.65,3.45.07,5.09-.47a5.74,5.74,0,0,0,4-4.22c1.06-3.95-2.48-9.73-6.7-9.36-2.72.23-1.43-2.2-.18-4a4.58,4.58,0,0,0,.28-5,4.65,4.65,0,0,0-4.32-2.61C158.74,104.49,136,102.22,91.41,115.26Z"/><path class="cls-5" d="M69.5,246.51a2.07,2.07,0,0,1-1.5-.58,2,2,0,0,1-.58-1.41V217l.58.68-5.6,3.38a2,2,0,0,1-1,.24,1.81,1.81,0,0,1-1.4-.65,2,2,0,0,1-.58-1.33,1.92,1.92,0,0,1,1-1.69L68.34,213a2.54,2.54,0,0,1,1.45-.29,1.66,1.66,0,0,1,1.31.56,2,2,0,0,1,.48,1.37v29.92a1.92,1.92,0,0,1-.58,1.41A2.07,2.07,0,0,1,69.5,246.51Z"/><path class="cls-5" d="M90.38,247a10,10,0,0,1-6.69-2.27,14,14,0,0,1-4.06-6.24,29.49,29.49,0,0,1,0-17.83,14,14,0,0,1,4.06-6.19,11,11,0,0,1,13.39,0,13.74,13.74,0,0,1,4,6.19,29.9,29.9,0,0,1,0,17.83,13.8,13.8,0,0,1-4,6.24A10,10,0,0,1,90.38,247Zm0-3.92a6.1,6.1,0,0,0,4.33-1.64,10.29,10.29,0,0,0,2.68-4.66,28.67,28.67,0,0,0,0-14.41,10.11,10.11,0,0,0-2.68-4.64,6.58,6.58,0,0,0-8.65,0,10.32,10.32,0,0,0-2.71,4.64,28.08,28.08,0,0,0,0,14.41,10.51,10.51,0,0,0,2.71,4.66A6.06,6.06,0,0,0,90.38,243.07Z"/><path class="cls-5" d="M132.72,247a10,10,0,0,1-6.69-2.27,14,14,0,0,1-4.06-6.24,29.49,29.49,0,0,1,0-17.83,14,14,0,0,1,4.06-6.19,11,11,0,0,1,13.39,0,13.84,13.84,0,0,1,4,6.19,30.11,30.11,0,0,1,0,17.83,13.89,13.89,0,0,1-4,6.24A10,10,0,0,1,132.72,247Zm0-3.92a6.1,6.1,0,0,0,4.33-1.64,10.29,10.29,0,0,0,2.68-4.66,28.67,28.67,0,0,0,0-14.41,10.11,10.11,0,0,0-2.68-4.64,6.58,6.58,0,0,0-8.65,0,10.32,10.32,0,0,0-2.71,4.64,28.08,28.08,0,0,0,0,14.41,10.51,10.51,0,0,0,2.71,4.66A6.08,6.08,0,0,0,132.72,243.07Z"/><path class="cls-5" d="M161.77,247a10,10,0,0,1-6.69-2.27,14,14,0,0,1-4.06-6.24,29.49,29.49,0,0,1,0-17.83,14,14,0,0,1,4.06-6.19,11,11,0,0,1,13.39,0,13.84,13.84,0,0,1,4,6.19,30.11,30.11,0,0,1,0,17.83,13.89,13.89,0,0,1-4,6.24A10,10,0,0,1,161.77,247Zm0-3.92a6.1,6.1,0,0,0,4.33-1.64,10.29,10.29,0,0,0,2.68-4.66,28.67,28.67,0,0,0,0-14.41,10.11,10.11,0,0,0-2.68-4.64,6.58,6.58,0,0,0-8.65,0,10.32,10.32,0,0,0-2.71,4.64,28.08,28.08,0,0,0,0,14.41,10.51,10.51,0,0,0,2.71,4.66A6.09,6.09,0,0,0,161.77,243.07Z"/><path class="cls-5" d="M190.82,247a10,10,0,0,1-6.69-2.27,14,14,0,0,1-4.06-6.24,29.49,29.49,0,0,1,0-17.83,14,14,0,0,1,4.06-6.19,11,11,0,0,1,13.39,0,13.84,13.84,0,0,1,4,6.19,30.11,30.11,0,0,1,0,17.83,13.89,13.89,0,0,1-4,6.24A10,10,0,0,1,190.82,247Zm0-3.92a6.1,6.1,0,0,0,4.33-1.64,10.29,10.29,0,0,0,2.68-4.66,28.67,28.67,0,0,0,0-14.41,10.11,10.11,0,0,0-2.68-4.64,6.58,6.58,0,0,0-8.65,0,10.32,10.32,0,0,0-2.71,4.64,28.08,28.08,0,0,0,0,14.41,10.51,10.51,0,0,0,2.71,4.66A6.09,6.09,0,0,0,190.82,243.07Z"/><path class="cls-4" d="M129.25,307.27a22.51,22.51,0,0,1-8.3-1.41,21.94,21.94,0,0,1-6.89-4.47,3.89,3.89,0,0,1-.74-1,2.55,2.55,0,0,1-.29-1.19,2.63,2.63,0,0,1,.74-1.82,2.36,2.36,0,0,1,1.82-.79,2.17,2.17,0,0,1,1.59.7,18.14,18.14,0,0,0,5.4,3.7,16.13,16.13,0,0,0,6.54,1.28,13.64,13.64,0,0,0,5.08-.9,8.85,8.85,0,0,0,3.61-2.48,5.62,5.62,0,0,0,1.34-3.71,6.55,6.55,0,0,0-1.5-4.21,11.11,11.11,0,0,0-4-2.78,32.88,32.88,0,0,0-5.84-1.88,34.92,34.92,0,0,1-5.4-1.73,16.13,16.13,0,0,1-4.24-2.52,10.26,10.26,0,0,1-2.78-3.64,11.79,11.79,0,0,1-1-5,10.92,10.92,0,0,1,1.91-6.38,12.49,12.49,0,0,1,5.3-4.25,19.09,19.09,0,0,1,7.79-1.5,21.29,21.29,0,0,1,7.38,1.28,14.2,14.2,0,0,1,5.58,3.51,3.41,3.41,0,0,1,1.28,2.36,2.45,2.45,0,0,1-.8,1.76,2.52,2.52,0,0,1-1.82.8,1.82,1.82,0,0,1-1.27-.52,11.38,11.38,0,0,0-2.75-2.17,16.72,16.72,0,0,0-3.64-1.53,15.08,15.08,0,0,0-9.13.29,7.91,7.91,0,0,0-3.48,2.43,5.79,5.79,0,0,0-1.24,3.73,5.72,5.72,0,0,0,1.4,4,10.35,10.35,0,0,0,3.77,2.55,40.49,40.49,0,0,0,5.23,1.76,51.4,51.4,0,0,1,5.78,1.76,17.52,17.52,0,0,1,4.57,2.45,9.92,9.92,0,0,1,3,3.74,13.07,13.07,0,0,1,1.06,5.58,10.42,10.42,0,0,1-2,6.26,13.3,13.3,0,0,1-5.4,4.31A18.93,18.93,0,0,1,129.25,307.27Zm2.87,5.87a2.46,2.46,0,0,1-.73,1.82,2.55,2.55,0,0,1-1.88.74,2.37,2.37,0,0,1-1.79-.74,2.51,2.51,0,0,1-.7-1.82V257.47a2.57,2.57,0,0,1,.73-1.85,2.43,2.43,0,0,1,1.82-.77,2.39,2.39,0,0,1,1.85.77,2.63,2.63,0,0,1,.7,1.85Z"/></g></g></svg>