<svg xmlns="http://www.w3.org/2000/svg" viewBox="0 0 337.62 390.99"><defs><style>.cls-1{fill:none;}.cls-2{fill:#d3f7a4;}.cls-3{fill:#58d313;}.cls-4{fill:#25a5dd;}.cls-5{fill:#363026;}</style></defs><g id="Layer_2" data-name="Layer 2"><g id="Layer_1-2" data-name="Layer 1"><rect class="cls-1" width="337.62" height="390.99"/><path class="cls-2" d="M101.88,145.93s-42.25,48.68-54.32,75.64-20.11,72.82-12.87,82.07-12.47,23.74-12.47,23.74-11.67,11.26-2.82,23.74,27.76,0,27.76,0,3.22,10.05,17.7,8.85S93,354.33,93,353.13s14.48,9.68,26.15,9.47,49.08,4.21,68.39-5.85,14.49-4,14.49-4,28.16,5.63,30.17-4.43,5.63-.4,5.63-.4.81,4.83,19.72,3.62,14.48-10.86,14.48-10.86-6-19.32-11.67-30.58-6.83-26.15-6.83-26.15-4.43-57.54-21.73-85.7S216.54,164,190,138.66c0,.25-18.76-2.71-40.24-1.58C130.76,138.08,101.88,145.93,101.88,145.93Z"/><path class="cls-3" d="M147.36,364c-6.69,0-13-.28-18.18-.5-4.09-.18-7.62-.34-10-.29-8.4.14-17.92-5.16-23.06-8-1.13-.63-2.29-1.28-2.81-1.49C91,356,76.5,359.6,64.91,360.57c-12.52,1.05-16.94-6.24-18-8.57-3.38,2-19.81,11-28-.54-9-12.74,2.77-24.4,2.89-24.51s12.69-9.42,13.8-17.57A6.88,6.88,0,0,0,34.21,304c-7.64-9.77,1-56.34,12.8-82.69,12-26.73,54-75.3,54.41-75.79l.12-.14.18,0c.29-.08,29.17-7.88,48-8.87a236.34,236.34,0,0,1,37.94,1.38l1.74.18,0-.76,1,.94C209.33,156.27,213.73,164.45,221,178c3,5.51,6.32,11.75,11.32,19.91,17.18,28,21.77,85.38,21.82,86,0,.15,1.26,14.9,6.77,25.93s11.65,30.47,11.71,30.67a6.71,6.71,0,0,1-.45,5.9c-2,3.32-6.88,5.25-14.57,5.74-18.91,1.21-20.26-3.57-20.35-4.12-.58-1.52-1.86-3.74-2.64-3.67-.17,0-1,.27-1.81,4.09-2.1,10.53-29.71,5.13-30.88,4.9l-1-.2.61-.77a1.73,1.73,0,0,0,.41-.83c-.2-.09-2-.56-14.14,5.76C177.33,362.76,161.49,364,147.36,364Zm-27.29-2c2.36,0,5.54.13,9.16.29,16,.69,42.85,1.86,58.06-6.07,14.08-7.32,15.14-6,15.66-5.4a1.39,1.39,0,0,1,.07,1.48c4.65.82,26.94,4.31,28.62-4.11.67-3.34,1.59-4.95,2.89-5.06,2.05-.12,3.6,3.77,3.9,4.57,0,.13,1.33,4.37,19.11,3.23,7.15-.46,11.86-2.24,13.6-5.14a5.51,5.51,0,0,0,.37-4.87c-.08-.27-6.11-19.47-11.66-30.56C254.24,299.11,253,284.13,253,284c0-.58-4.61-57.72-21.63-85.43-5-8.18-8.4-14.45-11.37-20-7.21-13.41-11.57-21.52-30.2-39.31-.37,0-1-.08-2.22-.21a236.44,236.44,0,0,0-37.74-1.38c-17.94.95-45.12,8.12-47.58,8.78-2.51,2.91-42.52,49.49-54.1,75.35-12.52,28-19.66,72.88-13,81.46a8.06,8.06,0,0,1,1.64,6.28c-1.19,8.65-13.69,17.92-14.23,18.32s-11.12,11-2.68,22.9,26.76,0,26.94-.16l.66-.43.25.75c.12.39,3.27,9.57,17.07,8.44s26.4-5.23,27.61-6.38v-.21l.34-.25c.51-.3,1.07,0,4,1.6,5,2.76,14.15,7.87,22.11,7.87h1.24Z"/><path class="cls-2" d="M185.86,110.37s3-13.58,13.28-20.82,8.6-2.26,14-10.56,13-22.78,15.24-22.48,6.79-24.59-3.32-26.85-30-3.63-37.11,0l-7.1,3.62A10.56,10.56,0,0,1,178,27.42c-.3-3.35-.61-12-22.18-13.61s-24,7.1-24,7.1,2.68,19.47,2.11,21.42c-.68,2.33-1.66,4.07-12.07,1.51s-5.58-8.6-19.61-7.85-16.14,4.08-19.92,4.08-16.29-3.32-31.68,3.32S54.15,68,58.38,69.94A70.83,70.83,0,0,1,85.53,90.31c11,13.42,17.79,32.17,17.79,32.17S144.3,109.32,185.86,110.37Z"/><path class="cls-3" d="M103,123.23l-.2-.55c-.06-.18-6.86-18.8-17.68-32a69.77,69.77,0,0,0-26.2-19.86l-.75-.34c-3-1.41-14.1-11.3-14-19.56,0-3.59,2.18-6.31,6.31-8.1,12.7-5.48,23.34-4.27,29.05-3.62,1.24.14,2.21.25,2.87.25a10.89,10.89,0,0,0,3.84-1c2.77-1,7-2.61,16-3.1,8.38-.45,10.27,1.47,12.47,3.69A13.21,13.21,0,0,0,122,43.25c10.29,2.53,10.8.77,11.34-1.09.39-1.33-1.1-13.69-2.13-21.17v-.13l0-.12c.1-.37,2.8-9.21,24.62-7.53,21.64,1.67,22.39,10.27,22.71,14l0,.21a9.74,9.74,0,0,0,2.4,5.16l6.68-3.41c7.66-3.91,28.18-2.14,37.52-.05,7.56,1.69,7.4,14.34,6.12,21.55-.55,3.07-1.5,6.69-3,6.49-1.29,0-6.07,8.06-9.23,13.36-1.84,3.09-3.74,6.28-5.42,8.85-3.29,5-4.12,5.36-6.34,6.27a34.58,34.58,0,0,0-7.85,4.46c-9.94,7-13,20.32-13,20.45l-.11.49h-.49c-41-1-81.93,11.94-82.34,12.07ZM70.85,39.84a49.6,49.6,0,0,0-19.93,4.1c-3.66,1.58-5.54,3.94-5.58,7-.1,7.61,10.5,17.15,13.29,18.44l.75.35A70.71,70.71,0,0,1,86,89.92c9.91,12.08,16.47,28.63,17.69,31.81,5-1.54,43.26-12.83,81.7-12,.65-2.54,4-14.1,13.4-20.7a36.63,36.63,0,0,1,8.09-4.59c2-.83,2.71-1.11,5.79-5.81,1.66-2.55,3.56-5.73,5.39-8.8,5.74-9.62,8.51-14,10.29-14h0c1-.8,3.27-9.93,2.06-17.52-.52-3.27-1.89-7.33-5.49-8.14-10.44-2.33-29.92-3.51-36.71,0L180.77,34l-.31-.3a11.07,11.07,0,0,1-3-6.24l0-.21c-.3-3.37-1-11.26-21.61-12.84C136.36,12.93,132.85,20,132.47,21c.35,2.59,2.65,19.55,2.07,21.53-.81,2.77-2.2,4.54-12.79,1.92a14.4,14.4,0,0,1-7.89-4.49c-2.07-2.1-3.7-3.76-11.55-3.33-8.9.47-13,2-15.68,3a11.82,11.82,0,0,1-4.27,1.05,29.24,29.24,0,0,1-3-.26A71.37,71.37,0,0,0,70.85,39.84Z"/><path class="cls-3" d="M134,41.9a12.32,12.32,0,0,0,4.73-1,14.11,14.11,0,0,0,4-2.53c2.37-2.11,4-5,3.65-8.21A5.89,5.89,0,0,0,145.18,26a10.84,10.84,0,0,0-4.12-2.09l-4.68-1.51c-1.55-.55-3.11-1.05-4.65-1.63,1.61.31,3.21.71,4.82,1.06L141.34,23A10.86,10.86,0,0,1,146,25.16a5.22,5.22,0,0,1,1.34,2.37,10.51,10.51,0,0,1,.34,2.58,14.13,14.13,0,0,1-.14,2.57,9.63,9.63,0,0,1-.85,2.47,12,12,0,0,1-3.28,3.91A12.71,12.71,0,0,1,134,41.9Z"/><path class="cls-3" d="M114.33,39.38c2.47,3.87,4.74,7.87,6.89,11.93s4.1,8.24,5.86,12.51A78.23,78.23,0,0,1,131.58,77a44.58,44.58,0,0,1,1,13.86h-.25c-.82-4.54-1.86-8.92-3.09-13.27L127.35,71c-.58-2.19-1.34-4.34-2.07-6.49-1.51-4.3-3.27-8.52-5.14-12.68s-3.83-8.32-6-12.34Z"/><path class="cls-3" d="M98.76,62.14a81.56,81.56,0,0,0,9.6,11.62c1.77,1.79,3.58,3.45,5.48,5.17a33.09,33.09,0,0,1,5,6,50.82,50.82,0,0,1,3.67,6.86,61.59,61.59,0,0,1,2.55,7.28A47.6,47.6,0,0,1,127,114.25a78.14,78.14,0,0,0-3.72-14.6,63.74,63.74,0,0,0-6.44-13.38,32.87,32.87,0,0,0-4.59-5.69C110.5,78.81,108.61,77,107,75A49.37,49.37,0,0,1,98.76,62.14Z"/><path class="cls-3" d="M146.67,33.88A47.41,47.41,0,0,1,154.32,46a36.59,36.59,0,0,1,2.19,6.89c.28,1.19.41,2.4.57,3.61l.29,3.56c.33,4.75.74,9.5.61,14.25a113.65,113.65,0,0,1-1.11,14.24h-.25c-.6-4.74-.85-9.47-1.06-14.2s0-9.46-.12-14.19l-.1-3.53c-.1-1.15-.16-2.3-.37-3.44a35.42,35.42,0,0,0-1.77-6.74A46.62,46.62,0,0,0,146.48,34Z"/><path class="cls-3" d="M151.18,112.11a27,27,0,0,0,.68-3.43,34.34,34.34,0,0,0,.31-3.52,32.37,32.37,0,0,0-.48-7.08,32.41,32.41,0,0,1,1.08,7.08,33.44,33.44,0,0,1,0,3.61,28.41,28.41,0,0,1-.41,3.63Z"/><path class="cls-3" d="M169.6,67.15a19.56,19.56,0,0,1,1.48-9,32.92,32.92,0,0,1,2-4.09,13.58,13.58,0,0,0,1.26-3.93c.11-.66.15-1.38.21-2.14l.2-2.22c.07-.74.13-1.49.22-2.22a20.67,20.67,0,0,1,.4-2.31c.75-3,2.2-6.11,5.18-7.69l1.24-.66-.65,1.28a7.47,7.47,0,0,0-.05,6.19,11.09,11.09,0,0,0,4.29,4.74,25.39,25.39,0,0,0,5.91,2.79,58.5,58.5,0,0,0,6.35,1.81,95.71,95.71,0,0,0,13,2.29,59.85,59.85,0,0,0,6.55.32c1.09,0,2.18,0,3.25-.16a19.92,19.92,0,0,0,3.09-.51l.15,0a11.3,11.3,0,0,0,3.18-1.19,8.87,8.87,0,0,0,2.61-2.23,8.35,8.35,0,0,0,1.5-3.15,12.17,12.17,0,0,0,.26-3.63l.24,0a11.21,11.21,0,0,1,.28,3.8,8.54,8.54,0,0,1-1.26,3.72,10,10,0,0,1-2.77,2.87,11.18,11.18,0,0,1-3.65,1.73l.14,0a25.5,25.5,0,0,1-6.93,1.24,52.77,52.77,0,0,1-6.89-.12A74.57,74.57,0,0,1,197,51.9a34.68,34.68,0,0,1-12.38-5.8,14,14,0,0,1-4.29-5.4,9.25,9.25,0,0,1-.06-6.9l.6.63a7.3,7.3,0,0,0-2.56,3.16,13.59,13.59,0,0,0-1.1,4.06c-.11.7-.15,1.4-.21,2.13s-.11,1.49-.17,2.23l-.2,2.23c-.08.73-.14,1.49-.29,2.3A13.76,13.76,0,0,1,174.71,55c-.82,1.33-1.57,2.48-2.22,3.81a24.06,24.06,0,0,0-2.65,8.32Z"/><path class="cls-3" d="M177.52,110.06c-.23-3.19-.28-6.32-.24-9.48s.19-6.3.54-9.43a64.81,64.81,0,0,1,1.61-9.3,34,34,0,0,1,3.42-8.74A34.27,34.27,0,0,0,180,82a63.92,63.92,0,0,0-1,9.26c-.15,3.1-.09,6.21.06,9.31s.41,6.21.83,9.23Z"/><path class="cls-4" d="M103.32,122.48s-9.19,3.94-7.28,7.46,3.51,3.62,3.51,3.62-4,2.47-3.77,6.43c.21,4.31,2.41,6.93,6.1,5.94,2.66-.72,33.05-7.12,45-8.52s31.82.19,31.82.19l9.13.8c2.62.71,3.79.08,5.59-.51a6.32,6.32,0,0,0,4.4-4.63c1.16-4.33-2.71-10.67-7.34-10.26-3,.26-1.57-2.42-.2-4.34a5,5,0,0,0,.31-5.43,5.1,5.1,0,0,0-4.74-2.86C177.11,110.67,152.14,108.18,103.32,122.48Z"/><path class="cls-2" d="M150.88,159.93s-42.25,48.68-54.32,75.64-20.11,72.82-12.87,82.07-12.47,23.74-12.47,23.74-11.67,11.26-2.82,23.74,27.76,0,27.76,0,3.22,10.05,17.7,8.85S142,368.33,142,367.13s14.48,9.68,26.15,9.47,49.08,4.21,68.39-5.85,14.49-4,14.49-4,28.16,5.63,30.17-4.43,5.63-.4,5.63-.4.81,4.83,19.72,3.62,14.48-10.86,14.48-10.86-6-19.32-11.67-30.58-6.83-26.15-6.83-26.15-4.43-57.54-21.73-85.7S265.54,178,239,152.66c0,.25-18.76-2.71-40.24-1.58C179.76,152.08,150.88,159.93,150.88,159.93Z"/><path class="cls-3" d="M196.36,378c-6.69,0-13-.28-18.18-.5-4.09-.18-7.62-.34-10-.29-8.4.14-17.92-5.16-23.06-8-1.13-.63-2.29-1.28-2.81-1.49-2.28,2.3-16.82,5.9-28.41,6.87-12.52,1.05-16.94-6.24-18-8.57-3.38,2-19.81,11-28-.54-9-12.74,2.77-24.4,2.89-24.51s12.69-9.42,13.8-17.57A6.88,6.88,0,0,0,83.21,318c-7.64-9.77,1-56.34,12.8-82.69,12-26.73,54-75.3,54.41-75.79l.12-.14.18,0c.29-.08,29.17-7.88,48-8.87a236.34,236.34,0,0,1,37.94,1.38l1.74.18,0-.76,1,.94C258.33,170.27,262.73,178.45,270,192c3,5.51,6.32,11.75,11.32,19.91,17.18,28,21.77,85.38,21.82,86,0,.15,1.26,14.9,6.77,25.93s11.65,30.47,11.71,30.67a6.71,6.71,0,0,1-.45,5.9c-2,3.32-6.88,5.25-14.57,5.74-18.91,1.21-20.26-3.57-20.35-4.12-.58-1.52-1.86-3.74-2.64-3.67-.17,0-1,.27-1.81,4.09-2.1,10.53-29.71,5.13-30.88,4.9l-1-.2.61-.77a1.73,1.73,0,0,0,.41-.83c-.2-.09-2-.56-14.14,5.76C226.33,376.76,210.49,378,196.36,378Zm-27.29-2c2.36,0,5.54.13,9.16.29,16,.69,42.85,1.86,58.06-6.07,14.08-7.32,15.14-6,15.66-5.4a1.39,1.39,0,0,1,.07,1.48c4.65.82,26.94,4.31,28.62-4.11.67-3.34,1.59-4.95,2.89-5.06,2.05-.12,3.6,3.77,3.9,4.57,0,.13,1.33,4.37,19.11,3.23,7.15-.46,11.86-2.24,13.6-5.14a5.51,5.51,0,0,0,.37-4.87c-.08-.27-6.11-19.47-11.66-30.56C303.24,313.11,302,298.13,302,298c0-.58-4.61-57.72-21.63-85.43-5-8.18-8.4-14.45-11.37-20-7.21-13.41-11.57-21.52-30.2-39.31-.37,0-1-.08-2.22-.21a236.44,236.44,0,0,0-37.74-1.38c-17.94.95-45.12,8.12-47.58,8.78-2.51,2.91-42.52,49.49-54.1,75.35-12.52,28-19.66,72.88-13,81.46a8.06,8.06,0,0,1,1.64,6.28c-1.19,8.65-13.69,17.92-14.23,18.32-.39.39-11.12,11-2.68,22.9s26.76,0,26.94-.16l.66-.43.25.75c.12.39,3.27,9.57,17.07,8.44s26.4-5.23,27.61-6.38v-.21l.34-.25c.51-.3,1.07,0,4,1.6,5,2.76,14.15,7.87,22.11,7.87h1.24Z"/><path class="cls-2" d="M234.86,124.37s3-13.58,13.28-20.82,8.6-2.26,14-10.56,13-22.78,15.24-22.48,6.79-24.59-3.32-26.85-30-3.63-37.11,0l-7.1,3.62A10.56,10.56,0,0,1,227,41.42c-.3-3.35-.61-12-22.18-13.61s-24,7.1-24,7.1,2.68,19.47,2.11,21.42c-.68,2.33-1.66,4.07-12.07,1.51s-5.58-8.6-19.61-7.85-16.14,4.08-19.92,4.08-16.29-3.32-31.68,3.32,3.47,24.59,7.7,26.55a70.83,70.83,0,0,1,27.15,20.37c11,13.42,17.79,32.17,17.79,32.17S193.3,123.32,234.86,124.37Z"/><path class="cls-3" d="M152,137.23l-.2-.55c-.06-.18-6.86-18.8-17.68-32a69.77,69.77,0,0,0-26.2-19.86l-.75-.34c-3-1.41-14.1-11.3-14-19.56.05-3.59,2.18-6.31,6.31-8.1,12.7-5.48,23.34-4.27,29.05-3.62,1.24.14,2.21.25,2.87.25a10.89,10.89,0,0,0,3.84-1c2.77-1,7-2.61,16.05-3.1,8.38-.45,10.27,1.47,12.47,3.69A13.21,13.21,0,0,0,171,57.25c10.29,2.53,10.8.77,11.34-1.09.39-1.33-1.1-13.69-2.13-21.17v-.13l0-.12c.1-.37,2.8-9.21,24.62-7.53,21.64,1.67,22.39,10.27,22.71,13.95l0,.21a9.74,9.74,0,0,0,2.4,5.16l6.68-3.41c7.66-3.91,28.18-2.14,37.52,0,7.56,1.69,7.4,14.34,6.12,21.55-.55,3.07-1.5,6.69-3,6.49-1.29,0-6.07,8.06-9.23,13.36-1.84,3.09-3.74,6.28-5.42,8.85-3.29,5-4.12,5.36-6.34,6.27a34.58,34.58,0,0,0-7.85,4.46c-9.94,7-13,20.32-13,20.45l-.11.49h-.49c-41-1-81.93,11.94-82.34,12.07Zm-32.1-83.39a49.6,49.6,0,0,0-19.93,4.1c-3.66,1.58-5.54,3.94-5.58,7-.1,7.61,10.5,17.15,13.29,18.44l.75.35A70.71,70.71,0,0,1,135,103.92c9.91,12.08,16.47,28.63,17.69,31.81,5-1.54,43.26-12.83,81.7-12,.65-2.54,4-14.1,13.4-20.7a36.63,36.63,0,0,1,8.09-4.59c2-.83,2.71-1.11,5.79-5.81,1.66-2.55,3.56-5.73,5.39-8.8,5.74-9.62,8.51-14,10.29-14h0c1-.8,3.27-9.93,2.06-17.52-.52-3.27-1.89-7.33-5.49-8.14-10.44-2.33-29.92-3.51-36.71-.05L229.77,48l-.31-.3a11.07,11.07,0,0,1-3-6.24l0-.21c-.3-3.37-1-11.26-21.61-12.84C185.36,26.93,181.85,34,181.47,35c.35,2.59,2.65,19.55,2.07,21.53-.81,2.77-2.2,4.54-12.79,1.92a14.4,14.4,0,0,1-7.89-4.49c-2.07-2.1-3.7-3.76-11.55-3.33-8.9.47-13,2-15.68,3a11.82,11.82,0,0,1-4.27,1.05,29.24,29.24,0,0,1-3-.26A71.37,71.37,0,0,0,119.85,53.84Z"/><path class="cls-3" d="M183,55.9a12.32,12.32,0,0,0,4.73-1,14.11,14.11,0,0,0,4-2.53c2.37-2.11,4-5,3.65-8.21A5.89,5.89,0,0,0,194.18,40a10.84,10.84,0,0,0-4.12-2.09l-4.68-1.51c-1.55-.55-3.11-1-4.65-1.63,1.61.31,3.21.71,4.82,1.06L190.34,37A10.86,10.86,0,0,1,195,39.16a5.22,5.22,0,0,1,1.34,2.37,10.51,10.51,0,0,1,.34,2.58,14.13,14.13,0,0,1-.14,2.57,9.63,9.63,0,0,1-.85,2.47,12,12,0,0,1-3.28,3.91A12.71,12.71,0,0,1,183,55.9Z"/><path class="cls-3" d="M163.33,53.38c2.47,3.87,4.74,7.87,6.89,11.93s4.1,8.24,5.86,12.51A78.23,78.23,0,0,1,180.58,91a44.58,44.58,0,0,1,1,13.86h-.25c-.82-4.54-1.86-8.92-3.09-13.27L176.35,85c-.58-2.19-1.34-4.34-2.07-6.49-1.51-4.3-3.27-8.52-5.14-12.68s-3.83-8.32-6-12.34Z"/><path class="cls-3" d="M147.76,76.14a81.56,81.56,0,0,0,9.6,11.62c1.77,1.79,3.58,3.45,5.48,5.17a33.09,33.09,0,0,1,5,6,50.82,50.82,0,0,1,3.67,6.86,61.59,61.59,0,0,1,2.55,7.28A47.6,47.6,0,0,1,176,128.25a78.14,78.14,0,0,0-3.72-14.6,63.74,63.74,0,0,0-6.44-13.38,32.87,32.87,0,0,0-4.59-5.69C159.5,92.81,157.61,91,156,89A49.37,49.37,0,0,1,147.76,76.14Z"/><path class="cls-3" d="M195.67,47.88A47.41,47.41,0,0,1,203.32,60a36.59,36.59,0,0,1,2.19,6.89c.28,1.19.41,2.4.57,3.61l.29,3.56c.33,4.75.74,9.5.61,14.25a113.65,113.65,0,0,1-1.11,14.24h-.25c-.6-4.74-.85-9.47-1.06-14.2s0-9.46-.12-14.19l-.1-3.53c-.1-1.15-.16-2.3-.37-3.44a35.42,35.42,0,0,0-1.77-6.74A46.62,46.62,0,0,0,195.48,48Z"/><path class="cls-3" d="M200.18,126.11a27,27,0,0,0,.68-3.43,34.34,34.34,0,0,0,.31-3.52,32.37,32.37,0,0,0-.48-7.08,32.41,32.41,0,0,1,1.08,7.08,33.44,33.44,0,0,1,0,3.61,28.41,28.41,0,0,1-.41,3.63Z"/><path class="cls-3" d="M218.6,81.15a19.56,19.56,0,0,1,1.48-9,32.92,32.92,0,0,1,2-4.09,13.58,13.58,0,0,0,1.26-3.93c.11-.66.15-1.38.21-2.14l.2-2.22c.07-.74.13-1.49.22-2.22a20.67,20.67,0,0,1,.4-2.31c.75-3,2.2-6.11,5.18-7.69l1.24-.66-.65,1.28a7.47,7.47,0,0,0-.05,6.19,11.09,11.09,0,0,0,4.29,4.74,25.39,25.39,0,0,0,5.91,2.79,58.5,58.5,0,0,0,6.35,1.81,95.71,95.71,0,0,0,13,2.29,59.85,59.85,0,0,0,6.55.32c1.09,0,2.18,0,3.25-.16a19.92,19.92,0,0,0,3.09-.51l.15,0a11.3,11.3,0,0,0,3.18-1.19,8.87,8.87,0,0,0,2.61-2.23,8.35,8.35,0,0,0,1.5-3.15,12.17,12.17,0,0,0,.26-3.63l.24,0a11.21,11.21,0,0,1,.28,3.8,8.54,8.54,0,0,1-1.26,3.72,10,10,0,0,1-2.77,2.87,11.18,11.18,0,0,1-3.65,1.73l.14,0a25.5,25.5,0,0,1-6.93,1.24,52.77,52.77,0,0,1-6.89-.12A74.57,74.57,0,0,1,246,65.9a34.68,34.68,0,0,1-12.38-5.8,14,14,0,0,1-4.29-5.4,9.25,9.25,0,0,1-.06-6.9l.6.63a7.3,7.3,0,0,0-2.56,3.16,13.59,13.59,0,0,0-1.1,4.06c-.11.7-.15,1.4-.21,2.13s-.11,1.49-.17,2.23l-.2,2.23c-.08.73-.14,1.49-.29,2.3A13.76,13.76,0,0,1,223.71,69c-.82,1.33-1.57,2.48-2.22,3.81a24.06,24.06,0,0,0-2.65,8.32Z"/><path class="cls-3" d="M226.52,124.06c-.23-3.19-.28-6.32-.24-9.48s.19-6.3.54-9.43a64.81,64.81,0,0,1,1.61-9.3,34,34,0,0,1,3.42-8.74A34.27,34.27,0,0,0,229,96a63.92,63.92,0,0,0-1,9.26c-.15,3.1-.09,6.21.06,9.31s.41,6.21.83,9.23Z"/><path class="cls-4" d="M152.32,136.48s-9.19,3.94-7.28,7.46,3.51,3.62,3.51,3.62-4,2.47-3.77,6.43c.21,4.31,2.41,6.93,6.1,5.94,2.66-.72,33.05-7.12,45-8.52s31.82.19,31.82.19l9.13.8c2.62.71,3.79.08,5.59-.51a6.32,6.32,0,0,0,4.4-4.63c1.16-4.33-2.71-10.67-7.34-10.26-3,.26-1.57-2.42-.2-4.34a5,5,0,0,0,.31-5.43,5.1,5.1,0,0,0-4.74-2.86C226.11,124.67,201.14,122.18,152.32,136.48Z"/><path class="cls-5" d="M109.67,280.33a2.19,2.19,0,0,1-1.64-.64,2.05,2.05,0,0,1-.64-1.53V248l.64.74-6.15,3.71a2.12,2.12,0,0,1-1.06.27,2,2,0,0,1-1.53-.72,2.17,2.17,0,0,1-.64-1.46,2.1,2.1,0,0,1,1.11-1.85l8.64-5.14a2.8,2.8,0,0,1,1.59-.32,1.81,1.81,0,0,1,1.43.61,2.24,2.24,0,0,1,.53,1.51v32.8a2.05,2.05,0,0,1-.64,1.53A2.19,2.19,0,0,1,109.67,280.33Z"/><path class="cls-5" d="M132.56,280.86a11,11,0,0,1-7.34-2.49,15.32,15.32,0,0,1-4.45-6.84,32.39,32.39,0,0,1,0-19.55,15.34,15.34,0,0,1,4.45-6.78,12.06,12.06,0,0,1,14.68,0,15.12,15.12,0,0,1,4.42,6.78,33,33,0,0,1,0,19.55,15.11,15.11,0,0,1-4.42,6.84A11,11,0,0,1,132.56,280.86Zm0-4.29a6.67,6.67,0,0,0,4.74-1.81,11.27,11.27,0,0,0,2.94-5.11,31.36,31.36,0,0,0,0-15.79,11.1,11.1,0,0,0-2.94-5.08,7.2,7.2,0,0,0-9.48,0,11.31,11.31,0,0,0-3,5.08,30.77,30.77,0,0,0,0,15.79,11.48,11.48,0,0,0,3,5.11A6.65,6.65,0,0,0,132.56,276.57Z"/><path class="cls-5" d="M164.4,280.86a11,11,0,0,1-7.34-2.49,15.32,15.32,0,0,1-4.45-6.84,32.39,32.39,0,0,1,0-19.55,15.34,15.34,0,0,1,4.45-6.78,12.06,12.06,0,0,1,14.68,0,15.12,15.12,0,0,1,4.42,6.78,33,33,0,0,1,0,19.55,15.11,15.11,0,0,1-4.42,6.84A11,11,0,0,1,164.4,280.86Zm0-4.29a6.67,6.67,0,0,0,4.74-1.81,11.27,11.27,0,0,0,2.94-5.11,31.36,31.36,0,0,0,0-15.79,11.1,11.1,0,0,0-2.94-5.08,7.2,7.2,0,0,0-9.48,0,11.31,11.31,0,0,0-3,5.08,30.77,30.77,0,0,0,0,15.79,11.48,11.48,0,0,0,3,5.11A6.67,6.67,0,0,0,164.4,276.57Z"/><path class="cls-5" d="M210.81,280.86a11,11,0,0,1-7.34-2.49,15.32,15.32,0,0,1-4.45-6.84A32.39,32.39,0,0,1,199,252a15.34,15.34,0,0,1,4.45-6.78,12.06,12.06,0,0,1,14.68,0,15.12,15.12,0,0,1,4.42,6.78,33,33,0,0,1,0,19.55,15.11,15.11,0,0,1-4.42,6.84A11,11,0,0,1,210.81,280.86Zm0-4.29a6.67,6.67,0,0,0,4.74-1.81,11.27,11.27,0,0,0,2.94-5.11,31.36,31.36,0,0,0,0-15.79,11.1,11.1,0,0,0-2.94-5.08,7.2,7.2,0,0,0-9.48,0,11.31,11.31,0,0,0-3,5.08,30.77,30.77,0,0,0,0,15.79,11.48,11.48,0,0,0,3,5.11A6.67,6.67,0,0,0,210.81,276.57Z"/><path class="cls-5" d="M242.65,280.86a11,11,0,0,1-7.34-2.49,15.32,15.32,0,0,1-4.45-6.84,32.39,32.39,0,0,1,0-19.55,15.34,15.34,0,0,1,4.45-6.78,12.06,12.06,0,0,1,14.68,0,15.12,15.12,0,0,1,4.42,6.78,32.81,32.81,0,0,1,0,19.55,15.11,15.11,0,0,1-4.42,6.84A11,11,0,0,1,242.65,280.86Zm0-4.29a6.67,6.67,0,0,0,4.74-1.81,11.27,11.27,0,0,0,2.94-5.11,31.36,31.36,0,0,0,0-15.79,11.1,11.1,0,0,0-2.94-5.08,7.2,7.2,0,0,0-9.48,0,11.31,11.31,0,0,0-3,5.08,30.77,30.77,0,0,0,0,15.79,11.48,11.48,0,0,0,3,5.11A6.67,6.67,0,0,0,242.65,276.57Z"/><path class="cls-5" d="M274.49,280.86a11,11,0,0,1-7.34-2.49,15.32,15.32,0,0,1-4.45-6.84,32.39,32.39,0,0,1,0-19.55,15.34,15.34,0,0,1,4.45-6.78,12.06,12.06,0,0,1,14.68,0,15.12,15.12,0,0,1,4.42,6.78,32.81,32.81,0,0,1,0,19.55,15.11,15.11,0,0,1-4.42,6.84A11,11,0,0,1,274.49,280.86Zm0-4.29a6.67,6.67,0,0,0,4.74-1.81,11.27,11.27,0,0,0,2.94-5.11,31.36,31.36,0,0,0,0-15.79,11.1,11.1,0,0,0-2.94-5.08,7.2,7.2,0,0,0-9.48,0,11.31,11.31,0,0,0-3,5.08,30.77,30.77,0,0,0,0,15.79,11.48,11.48,0,0,0,3,5.11A6.67,6.67,0,0,0,274.49,276.57Z"/><path class="cls-4" d="M193.79,346.93a24.87,24.87,0,0,1-9.09-1.54,24.24,24.24,0,0,1-7.56-4.9,4.63,4.63,0,0,1-.81-1.08,2.74,2.74,0,0,1-.31-1.3,2.88,2.88,0,0,1,.8-2,2.59,2.59,0,0,1,2-.88,2.44,2.44,0,0,1,1.75.77,19.84,19.84,0,0,0,5.91,4.06,17.67,17.67,0,0,0,7.17,1.4,15.14,15.14,0,0,0,5.57-1,9.64,9.64,0,0,0,3.95-2.73,6.11,6.11,0,0,0,1.47-4.06,7.13,7.13,0,0,0-1.64-4.62,12.22,12.22,0,0,0-4.34-3,35.54,35.54,0,0,0-6.41-2.06,41,41,0,0,1-5.91-1.89,17.63,17.63,0,0,1-4.65-2.77,11.32,11.32,0,0,1-3.05-4,13,13,0,0,1-1.08-5.49,11.93,11.93,0,0,1,2.1-7,13.65,13.65,0,0,1,5.81-4.65,20.77,20.77,0,0,1,8.53-1.65,23.4,23.4,0,0,1,8.09,1.4,15.78,15.78,0,0,1,6.12,3.85,3.73,3.73,0,0,1,1.4,2.59,2.68,2.68,0,0,1-.88,1.93,2.73,2.73,0,0,1-2,.87,2,2,0,0,1-1.4-.56,12.27,12.27,0,0,0-3-2.38,17.85,17.85,0,0,0-4-1.68,15.45,15.45,0,0,0-4.34-.63,15.65,15.65,0,0,0-5.66.95,8.7,8.7,0,0,0-3.82,2.66,6.34,6.34,0,0,0-1.36,4.09A6.27,6.27,0,0,0,184.7,314a11.11,11.11,0,0,0,4.13,2.8,43.14,43.14,0,0,0,5.73,1.93,57.44,57.44,0,0,1,6.34,1.92,19.3,19.3,0,0,1,5,2.7,10.73,10.73,0,0,1,3.25,4.09,14.5,14.5,0,0,1,1.16,6.12,11.46,11.46,0,0,1-2.17,6.86,14.59,14.59,0,0,1-5.91,4.72A20.76,20.76,0,0,1,193.79,346.93Zm3.15,6.44a2.73,2.73,0,0,1-.8,2,2.8,2.8,0,0,1-2.07.81,2.6,2.6,0,0,1-2-.81,2.79,2.79,0,0,1-.77-2v-61a2.81,2.81,0,0,1,.81-2,2.82,2.82,0,0,1,4,0,2.86,2.86,0,0,1,.77,2Z"/></g></g></svg>