<svg xmlns="http://www.w3.org/2000/svg" viewBox="0 0 337.62 390.99"><defs><style>.cls-1{fill:none;}.cls-2{fill:#d3f7a4;}.cls-3{fill:#58d313;}.cls-4{fill:#25a5dd;}.cls-5{fill:#363026;}</style></defs><g id="Layer_2" data-name="Layer 2"><g id="Layer_1-2" data-name="Layer 1"><rect class="cls-1" width="337.62" height="390.99"/><path class="cls-2" d="M79.74,129.77s-38.54,44.42-49.55,69-18.35,66.44-11.74,74.88S7.07,295.32,7.07,295.32-3.58,305.6,4.5,317s25.32,0,25.32,0,2.94,9.18,16.15,8.08,25.7-5.14,25.7-6.24,13.21,8.84,23.86,8.64,44.78,3.84,62.4-5.34,13.21-3.67,13.21-3.67,25.7,5.14,27.53-4,5.14-.36,5.14-.36.74,4.4,18,3.3S235,307.43,235,307.43s-5.5-17.62-10.64-27.9-6.24-23.85-6.24-23.85-4-52.49-19.82-78.19-13.95-31.24-38.18-54.35c0,.23-17.11-2.47-36.71-1.44C106.1,122.61,79.74,129.77,79.74,129.77Z"/><path class="cls-3" d="M121.24,328.72c-6.1,0-11.86-.25-16.59-.46-3.73-.16-7-.3-9.11-.26-7.66.13-16.35-4.71-21-7.31-1-.58-2.09-1.17-2.56-1.36-2.08,2.1-15.34,5.39-25.92,6.27-11.42.95-15.46-5.69-16.45-7.82-3.09,1.85-18.07,10-25.52-.49C-4.21,305.66,6.57,295,6.68,294.92s11.58-8.59,12.6-16A6.28,6.28,0,0,0,18,274c-7-8.91.92-51.41,11.68-75.44,10.92-24.39,49.25-68.7,49.64-69.15l.11-.12.16,0c.26-.07,26.61-7.19,43.8-8.09A216.28,216.28,0,0,1,158,122.41l1.58.16,0-.68.9.85c17.27,16.47,21.28,23.93,27.93,36.3,2.7,5,5.77,10.73,10.33,18.16,15.68,25.52,19.87,77.91,19.91,78.43,0,.14,1.15,13.6,6.18,23.66s10.62,27.8,10.68,28a6.18,6.18,0,0,1-.41,5.39c-1.81,3-6.28,4.78-13.3,5.23-17.24,1.11-18.48-3.26-18.56-3.76-.53-1.38-1.69-3.41-2.41-3.35-.16,0-1,.25-1.65,3.73-1.92,9.61-27.1,4.69-28.17,4.47l-.89-.17.56-.71a1.58,1.58,0,0,0,.37-.75c-.18-.09-1.81-.52-12.9,5.25C148.58,327.6,134.13,328.72,121.24,328.72Zm-24.89-1.83c2.14,0,5.05.13,8.35.27,14.62.63,39.09,1.69,53-5.53,12.84-6.69,13.82-5.51,14.28-4.94a1.29,1.29,0,0,1,.07,1.36c4.24.75,24.58,3.92,26.11-3.75.61-3.05,1.45-4.52,2.64-4.62,1.87-.11,3.29,3.44,3.56,4.16,0,.12,1.21,4,17.43,3,6.53-.41,10.82-2,12.41-4.68a5,5,0,0,0,.34-4.45c-.08-.24-5.58-17.76-10.64-27.88s-6.28-23.92-6.29-24.06c0-.53-4.21-52.65-19.74-77.94-4.59-7.46-7.66-13.18-10.37-18.22-6.58-12.23-10.55-19.63-27.55-35.86-.34,0-.93-.08-2-.2a217,217,0,0,0-34.44-1.25c-16.36.86-41.16,7.41-43.4,8-2.29,2.66-38.79,45.15-49.36,68.75-11.42,25.51-17.93,66.49-11.81,74.31a7.32,7.32,0,0,1,1.49,5.73c-1.08,7.89-12.49,16.36-13,16.71s-10.15,10-2.44,20.9,24.4,0,24.57-.15l.6-.39.23.69c.11.35,3,8.73,15.58,7.69s24.08-4.77,25.19-5.82v-.19l.31-.22c.47-.28,1,0,3.61,1.45,4.53,2.52,12.91,7.18,20.17,7.18h1.14Z"/><path class="cls-2" d="M156.37,97.33s2.75-12.38,12.11-19,7.85-2.07,12.8-9.64,11.84-20.78,13.91-20.51,6.19-22.43-3-24.5-27.39-3.3-33.86,0L151.83,27a9.66,9.66,0,0,1-2.62-5.35c-.27-3-.55-10.9-20.23-12.41s-21.89,6.47-21.89,6.47,2.45,17.76,1.93,19.55c-.63,2.13-1.52,3.71-11,1.37s-5.1-7.84-17.9-7.16-14.73,3.72-18.17,3.72-14.86-3-28.9,3,3.16,22.44,7,24.22A64.75,64.75,0,0,1,64.83,79c10,12.25,16.23,29.35,16.23,29.35S118.45,96.37,156.37,97.33Z"/><path class="cls-3" d="M80.72,109.06l-.18-.5c-.06-.17-6.26-17.15-16.13-29.18a63.5,63.5,0,0,0-23.9-18.12l-.69-.32C37.06,59.66,27,50.63,27.06,43.1c.05-3.27,2-5.76,5.76-7.39,11.59-5,21.29-3.89,26.5-3.3,1.13.13,2,.23,2.62.23a9.75,9.75,0,0,0,3.5-.89c2.53-.95,6.35-2.38,14.64-2.83,7.65-.41,9.38,1.35,11.38,3.37a12,12,0,0,0,6.68,3.81c9.38,2.31,9.85.7,10.35-1,.35-1.21-1-12.49-1.94-19.32l0-.11,0-.11c.09-.34,2.56-8.4,22.46-6.87,19.74,1.52,20.43,9.37,20.72,12.72l0,.19A8.85,8.85,0,0,0,152,26.32L158,23.2c7-3.57,25.72-1.95,34.24,0,6.89,1.54,6.75,13.08,5.58,19.66-.5,2.8-1.37,6.1-2.75,5.92-1.17,0-5.53,7.35-8.42,12.19-1.68,2.82-3.41,5.73-4.95,8.08-3,4.57-3.75,4.88-5.78,5.71a32.72,32.72,0,0,0-7.16,4.07c-9.07,6.4-11.87,18.54-11.89,18.66l-.1.45-.46,0C119,97,81.6,108.78,81.23,108.9ZM51.43,33a45.34,45.34,0,0,0-18.18,3.74c-3.34,1.44-5.05,3.6-5.09,6.4-.09,7,9.59,15.65,12.13,16.83l.68.31A64.56,64.56,0,0,1,65.26,78.68c9,11,15,26.11,16.14,29C86,106.29,120.87,96,155.94,96.77c.59-2.31,3.69-12.86,12.22-18.88a33.5,33.5,0,0,1,7.38-4.19c1.85-.75,2.47-1,5.28-5.3,1.52-2.32,3.25-5.22,4.93-8,5.23-8.78,7.76-12.73,9.38-12.73h0c.93-.73,3-9.07,1.88-16-.47-3-1.73-6.68-5-7.42-9.52-2.13-27.3-3.21-33.49-.05l-6.83,3.49-.28-.28a10.13,10.13,0,0,1-2.78-5.69l0-.19c-.26-3.08-.89-10.27-19.71-11.72-17.72-1.36-20.93,5.12-21.28,6,.33,2.36,2.42,17.84,1.9,19.64-.75,2.53-2,4.14-11.68,1.76a13.16,13.16,0,0,1-7.19-4.1C88.79,31.15,87.3,29.64,80.14,30c-8.12.44-11.84,1.84-14.31,2.76a10.72,10.72,0,0,1-3.89,1,25.82,25.82,0,0,1-2.74-.24A67.14,67.14,0,0,0,51.43,33Z"/><path class="cls-3" d="M109.09,34.87a11.31,11.31,0,0,0,4.31-.94,12.93,12.93,0,0,0,3.69-2.3,8.91,8.91,0,0,0,3.33-7.5,5.35,5.35,0,0,0-1.17-3.8,9.83,9.83,0,0,0-3.76-1.91l-4.27-1.37c-1.41-.5-2.83-1-4.24-1.5,1.47.29,2.93.65,4.39,1l4.38,1.08a9.9,9.9,0,0,1,4.24,2,4.71,4.71,0,0,1,1.22,2.17,9.47,9.47,0,0,1,.31,2.34,12.54,12.54,0,0,1-.13,2.35,8.38,8.38,0,0,1-.77,2.26,11,11,0,0,1-3,3.56A11.61,11.61,0,0,1,109.09,34.87Z"/><path class="cls-3" d="M91.1,32.56c2.26,3.53,4.33,7.18,6.29,10.89s3.74,7.52,5.35,11.41a70.84,70.84,0,0,1,4.1,12,40.43,40.43,0,0,1,.91,12.64h-.22c-.75-4.15-1.7-8.14-2.82-12.11l-1.73-6c-.53-2-1.21-4-1.88-5.92-1.38-3.92-3-7.77-4.7-11.57s-3.49-7.58-5.49-11.25Z"/><path class="cls-3" d="M76.9,53.33a75.43,75.43,0,0,0,8.76,10.61c1.62,1.62,3.26,3.14,5,4.7a30.06,30.06,0,0,1,4.6,5.49,47.68,47.68,0,0,1,3.35,6.26A56.78,56.78,0,0,1,100.92,87a43.63,43.63,0,0,1,1.77,13.84,71.49,71.49,0,0,0-3.4-13.32,58,58,0,0,0-5.88-12.21,30,30,0,0,0-4.19-5.19c-1.61-1.61-3.33-3.27-4.82-5.06A45,45,0,0,1,76.9,53.33Z"/><path class="cls-3" d="M120.61,27.55a43.26,43.26,0,0,1,7,11,33.14,33.14,0,0,1,2,6.29,32.65,32.65,0,0,1,.52,3.29l.27,3.25c.3,4.33.67,8.66.55,13a101.33,101.33,0,0,1-1,13h-.22c-.55-4.33-.78-8.64-1-13s0-8.63-.11-12.94l-.1-3.22a30.13,30.13,0,0,0-.34-3.14A31,31,0,0,0,126.56,39a42.25,42.25,0,0,0-6.12-11.27Z"/><path class="cls-3" d="M124.73,98.92a24.4,24.4,0,0,0,.61-3.13,31.12,31.12,0,0,0,.29-3.21,29.85,29.85,0,0,0-.44-6.46,29.77,29.77,0,0,1,1,6.46,32.83,32.83,0,0,1,0,3.29,26.85,26.85,0,0,1-.38,3.31Z"/><path class="cls-3" d="M141.53,57.9a18,18,0,0,1,1.35-8.17,30.52,30.52,0,0,1,1.8-3.72,12.66,12.66,0,0,0,1.15-3.59c.1-.6.13-1.27.19-2l.18-2c.06-.68.12-1.36.21-2a17,17,0,0,1,.35-2.1c.69-2.74,2-5.58,4.74-7l1.12-.6L152,27.86A6.77,6.77,0,0,0,152,33.5a10.18,10.18,0,0,0,3.92,4.33,22.93,22.93,0,0,0,5.39,2.54,55.24,55.24,0,0,0,5.8,1.66A86.53,86.53,0,0,0,179,44.11a54.43,54.43,0,0,0,6,.3c1,0,2,0,3-.15a18.22,18.22,0,0,0,2.82-.47l.13,0a10.37,10.37,0,0,0,2.9-1.09,8,8,0,0,0,2.38-2,7.71,7.71,0,0,0,1.37-2.87,11.41,11.41,0,0,0,.24-3.31l.22,0a10.33,10.33,0,0,1,.25,3.47,7.69,7.69,0,0,1-1.15,3.4,9.39,9.39,0,0,1-2.52,2.62,10.6,10.6,0,0,1-3.34,1.58l.13,0A23.65,23.65,0,0,1,185,46.57a48.7,48.7,0,0,1-6.28-.11A67.83,67.83,0,0,1,166.56,44a31.8,31.8,0,0,1-11.3-5.29,12.74,12.74,0,0,1-3.91-4.93,8.35,8.35,0,0,1,0-6.29l.54.57a6.61,6.61,0,0,0-2.34,2.88,12.45,12.45,0,0,0-1,3.7c-.1.65-.13,1.28-.19,1.95s-.1,1.35-.15,2l-.19,2c-.07.66-.12,1.36-.26,2.1a12.51,12.51,0,0,1-1.52,4.08c-.75,1.22-1.43,2.27-2,3.48a22,22,0,0,0-2.41,7.59Z"/><path class="cls-3" d="M148.76,97.05c-.21-2.91-.26-5.77-.22-8.65s.17-5.75.49-8.61a59.44,59.44,0,0,1,1.47-8.48,31,31,0,0,1,3.12-8A30.81,30.81,0,0,0,151,71.43a58.37,58.37,0,0,0-.9,8.44c-.13,2.83-.08,5.67.06,8.5s.38,5.66.76,8.43Z"/><path class="cls-4" d="M81.06,108.38s-8.38,3.59-6.64,6.8,3.2,3.31,3.2,3.31-3.61,2.25-3.44,5.87c.19,3.93,2.2,6.32,5.56,5.41,2.44-.65,30.16-6.49,41.08-7.77s29,.18,29,.18l8.33.72c2.39.66,3.46.07,5.1-.46a5.78,5.78,0,0,0,4-4.23c1.05-3.95-2.48-9.73-6.7-9.36-2.72.24-1.44-2.2-.18-4a4.85,4.85,0,0,0-4-7.56C148.38,97.6,125.6,95.33,81.06,108.38Z"/><path class="cls-2" d="M107.74,153.77s-38.54,44.42-49.55,69-18.35,66.44-11.74,74.88-11.38,21.66-11.38,21.66S24.42,329.6,32.5,341s25.32,0,25.32,0,2.94,9.18,16.15,8.08,25.7-5.14,25.7-6.24,13.21,8.84,23.86,8.64,44.78,3.84,62.4-5.34,13.21-3.67,13.21-3.67,25.7,5.14,27.53-4,5.14-.36,5.14-.36.74,4.4,18,3.3S263,331.43,263,331.43s-5.5-17.62-10.64-27.9-6.24-23.85-6.24-23.85-4-52.49-19.82-78.19-13.95-31.24-38.18-54.35c0,.23-17.11-2.47-36.71-1.44C134.1,146.61,107.74,153.77,107.74,153.77Z"/><path class="cls-3" d="M149.24,352.72c-6.1,0-11.86-.25-16.59-.46-3.73-.16-7-.3-9.11-.26-7.66.13-16.35-4.71-21-7.31-1-.58-2.09-1.17-2.56-1.36-2.08,2.1-15.34,5.39-25.92,6.27-11.42.95-15.46-5.69-16.45-7.82-3.09,1.85-18.07,10-25.52-.49-8.26-11.63,2.52-22.26,2.63-22.37s11.58-8.59,12.6-16A6.28,6.28,0,0,0,46,298c-7-8.91.92-51.41,11.68-75.44,10.92-24.39,49.25-68.7,49.64-69.15l.11-.12.16,0c.26-.07,26.61-7.19,43.8-8.09A216.28,216.28,0,0,1,186,146.41l1.58.16,0-.68.9.85c17.27,16.47,21.28,23.93,27.93,36.3,2.7,5,5.77,10.73,10.33,18.16,15.68,25.52,19.87,77.91,19.91,78.43,0,.14,1.15,13.6,6.18,23.66s10.62,27.8,10.68,28a6.18,6.18,0,0,1-.41,5.39c-1.81,3-6.28,4.78-13.3,5.23-17.24,1.11-18.48-3.26-18.56-3.76-.53-1.38-1.69-3.41-2.41-3.35-.16,0-1,.25-1.65,3.73-1.92,9.61-27.1,4.69-28.17,4.47l-.89-.17.56-.71a1.58,1.58,0,0,0,.37-.75c-.18-.09-1.81-.52-12.9,5.25C176.58,351.6,162.13,352.72,149.24,352.72Zm-24.89-1.83c2.14,0,5.05.13,8.35.27,14.62.63,39.09,1.69,53-5.53,12.84-6.69,13.82-5.51,14.28-4.94a1.29,1.29,0,0,1,.07,1.36c4.24.75,24.58,3.92,26.11-3.75.61-3.05,1.45-4.52,2.64-4.62,1.87-.11,3.29,3.44,3.56,4.16,0,.12,1.21,4,17.43,3,6.53-.41,10.82-2,12.41-4.68a5,5,0,0,0,.34-4.45c-.08-.24-5.58-17.76-10.64-27.88s-6.28-23.92-6.29-24.06c0-.53-4.21-52.65-19.74-77.94-4.59-7.46-7.66-13.18-10.37-18.22-6.58-12.23-10.55-19.63-27.55-35.86-.34,0-.93-.08-2-.2a217,217,0,0,0-34.44-1.25c-16.36.86-41.16,7.41-43.4,8-2.29,2.66-38.79,45.15-49.36,68.75-11.42,25.51-17.93,66.49-11.81,74.31a7.32,7.32,0,0,1,1.49,5.73c-1.08,7.89-12.49,16.36-13,16.71s-10.15,10-2.44,20.9,24.4,0,24.57-.15l.6-.39.23.69c.11.35,3,8.73,15.58,7.69s24.08-4.77,25.19-5.82v-.19l.31-.22c.47-.28,1,0,3.61,1.45,4.53,2.52,12.91,7.18,20.17,7.18h1.14Z"/><path class="cls-2" d="M184.37,121.33s2.75-12.38,12.11-19,7.85-2.07,12.8-9.64,11.84-20.78,13.91-20.51,6.19-22.43-3-24.5-27.39-3.3-33.86,0L179.83,51a9.66,9.66,0,0,1-2.62-5.35c-.27-3-.55-10.9-20.23-12.41s-21.89,6.47-21.89,6.47,2.45,17.76,1.93,19.55c-.63,2.13-1.52,3.71-11,1.37s-5.1-7.84-17.9-7.16-14.73,3.72-18.17,3.72-14.86-3-28.9,3,3.16,22.44,7,24.22A64.75,64.75,0,0,1,92.83,103c10,12.25,16.23,29.35,16.23,29.35S146.45,120.37,184.37,121.33Z"/><path class="cls-3" d="M108.72,133.06l-.18-.5c-.06-.17-6.26-17.15-16.13-29.18a63.5,63.5,0,0,0-23.9-18.12l-.69-.32C65.06,83.66,55,74.63,55.06,67.1c0-3.27,2-5.76,5.76-7.39,11.59-5,21.29-3.89,26.5-3.3,1.13.13,2,.23,2.62.23a9.75,9.75,0,0,0,3.5-.89c2.53-1,6.35-2.38,14.64-2.83,7.65-.41,9.38,1.35,11.38,3.37a12,12,0,0,0,6.68,3.81c9.38,2.31,9.85.7,10.35-1,.35-1.21-1-12.49-1.94-19.32l0-.11,0-.11c.09-.34,2.56-8.4,22.46-6.87,19.74,1.52,20.43,9.37,20.72,12.72l0,.19A8.85,8.85,0,0,0,180,50.32L186,47.2c7-3.57,25.72-2,34.24,0,6.89,1.54,6.75,13.08,5.58,19.66-.5,2.8-1.37,6.1-2.75,5.92-1.17,0-5.53,7.35-8.42,12.19-1.68,2.82-3.41,5.73-4.95,8.08-3,4.57-3.75,4.88-5.78,5.71a32.72,32.72,0,0,0-7.16,4.07c-9.07,6.4-11.87,18.54-11.89,18.66l-.1.45-.46,0c-37.39-.93-74.75,10.9-75.12,11ZM79.43,57a45.34,45.34,0,0,0-18.18,3.74c-3.34,1.44-5,3.6-5.09,6.4C56.07,74.07,65.75,82.77,68.29,84l.68.31a64.56,64.56,0,0,1,24.29,18.42c9,11,15,26.11,16.14,29,4.56-1.41,39.47-11.71,74.54-10.93.59-2.31,3.69-12.86,12.22-18.88a33.5,33.5,0,0,1,7.38-4.19c1.85-.75,2.47-1,5.28-5.3,1.52-2.32,3.25-5.22,4.93-8,5.23-8.78,7.76-12.73,9.38-12.73h0c.93-.73,3-9.07,1.88-16-.47-3-1.73-6.68-5-7.42-9.52-2.13-27.3-3.21-33.49,0l-6.83,3.49-.28-.28a10.13,10.13,0,0,1-2.78-5.69l0-.19c-.26-3.08-.89-10.27-19.71-11.72-17.72-1.36-20.93,5.12-21.28,6,.33,2.36,2.42,17.84,1.9,19.64-.75,2.53-2,4.14-11.68,1.76a13.16,13.16,0,0,1-7.19-4.1c-1.89-1.92-3.38-3.43-10.54-3-8.12.44-11.84,1.84-14.31,2.76a10.72,10.72,0,0,1-3.89,1,25.82,25.82,0,0,1-2.74-.24A67.14,67.14,0,0,0,79.43,57Z"/><path class="cls-3" d="M137.09,58.87a11.31,11.31,0,0,0,4.31-.94,12.93,12.93,0,0,0,3.69-2.3,8.91,8.91,0,0,0,3.33-7.5,5.35,5.35,0,0,0-1.17-3.8,9.83,9.83,0,0,0-3.76-1.91l-4.27-1.37c-1.41-.5-2.83-1-4.24-1.5,1.47.29,2.93.65,4.39,1l4.38,1.08a9.9,9.9,0,0,1,4.24,2,4.71,4.71,0,0,1,1.22,2.17,9.47,9.47,0,0,1,.31,2.34,12.54,12.54,0,0,1-.13,2.35,8.38,8.38,0,0,1-.77,2.26,11,11,0,0,1-3,3.56A11.61,11.61,0,0,1,137.09,58.87Z"/><path class="cls-3" d="M119.1,56.56c2.26,3.53,4.33,7.18,6.29,10.89s3.74,7.52,5.35,11.41a70.84,70.84,0,0,1,4.1,12,40.43,40.43,0,0,1,.91,12.64h-.22c-.75-4.15-1.7-8.14-2.82-12.11l-1.73-6c-.53-2-1.21-4-1.88-5.92-1.38-3.92-3-7.77-4.7-11.57s-3.49-7.58-5.49-11.25Z"/><path class="cls-3" d="M104.9,77.33a75.43,75.43,0,0,0,8.76,10.61c1.62,1.62,3.26,3.14,5,4.7a30.06,30.06,0,0,1,4.6,5.49,47.68,47.68,0,0,1,3.35,6.26,56.78,56.78,0,0,1,2.32,6.64,43.63,43.63,0,0,1,1.77,13.84,71.49,71.49,0,0,0-3.4-13.32,58,58,0,0,0-5.88-12.21,30,30,0,0,0-4.19-5.19c-1.61-1.61-3.33-3.27-4.82-5.06A45,45,0,0,1,104.9,77.33Z"/><path class="cls-3" d="M148.61,51.55a43.26,43.26,0,0,1,7,11,33.14,33.14,0,0,1,2,6.29,32.65,32.65,0,0,1,.52,3.29l.27,3.25c.3,4.33.67,8.66.55,13a101.33,101.33,0,0,1-1,13h-.22c-.55-4.33-.78-8.64-1-13s0-8.63-.11-12.94l-.1-3.22a30.13,30.13,0,0,0-.34-3.14A31,31,0,0,0,154.56,63a42.25,42.25,0,0,0-6.12-11.27Z"/><path class="cls-3" d="M152.73,122.92a24.4,24.4,0,0,0,.61-3.13,31.12,31.12,0,0,0,.29-3.21,29.85,29.85,0,0,0-.44-6.46,29.77,29.77,0,0,1,1,6.46,32.83,32.83,0,0,1,0,3.29,26.85,26.85,0,0,1-.38,3.31Z"/><path class="cls-3" d="M169.53,81.9a18,18,0,0,1,1.35-8.17,30.52,30.52,0,0,1,1.8-3.72,12.66,12.66,0,0,0,1.15-3.59c.1-.6.13-1.27.19-2l.18-2c.06-.68.12-1.36.21-2a17,17,0,0,1,.35-2.1c.69-2.74,2-5.58,4.74-7l1.12-.6L180,51.86A6.77,6.77,0,0,0,180,57.5a10.18,10.18,0,0,0,3.92,4.33,22.93,22.93,0,0,0,5.39,2.54,55.24,55.24,0,0,0,5.8,1.66A86.53,86.53,0,0,0,207,68.11a54.43,54.43,0,0,0,6,.3c1,0,2,0,3-.15a18.22,18.22,0,0,0,2.82-.47l.13,0a10.37,10.37,0,0,0,2.9-1.09,8,8,0,0,0,2.38-2,7.71,7.71,0,0,0,1.37-2.87,11.41,11.41,0,0,0,.24-3.31l.22,0a10.33,10.33,0,0,1,.25,3.47,7.69,7.69,0,0,1-1.15,3.4,9.39,9.39,0,0,1-2.52,2.62,10.6,10.6,0,0,1-3.34,1.58l.13,0A23.65,23.65,0,0,1,213,70.57a48.7,48.7,0,0,1-6.28-.11A67.83,67.83,0,0,1,194.56,68a31.8,31.8,0,0,1-11.3-5.29,12.74,12.74,0,0,1-3.91-4.93,8.35,8.35,0,0,1,0-6.29l.54.57a6.61,6.61,0,0,0-2.34,2.88,12.45,12.45,0,0,0-1,3.7c-.1.65-.13,1.28-.19,1.95s-.1,1.35-.15,2l-.19,2c-.07.66-.12,1.36-.26,2.1a12.51,12.51,0,0,1-1.52,4.08c-.75,1.22-1.43,2.27-2,3.48a22,22,0,0,0-2.41,7.59Z"/><path class="cls-3" d="M176.76,121.05c-.21-2.91-.26-5.77-.22-8.65s.17-5.75.49-8.61a59.44,59.44,0,0,1,1.47-8.48,31,31,0,0,1,3.12-8A30.81,30.81,0,0,0,179,95.43a58.37,58.37,0,0,0-.9,8.44c-.13,2.83-.08,5.67.06,8.5s.38,5.66.76,8.43Z"/><path class="cls-4" d="M109.06,132.38s-8.38,3.59-6.64,6.8,3.2,3.31,3.2,3.31-3.61,2.25-3.44,5.87c.19,3.93,2.2,6.32,5.56,5.41,2.44-.65,30.16-6.49,41.08-7.77s29,.18,29,.18l8.33.72c2.39.66,3.46.07,5.1-.46a5.78,5.78,0,0,0,4-4.23c1.05-4-2.48-9.73-6.7-9.36-2.72.24-1.44-2.2-.18-4a4.85,4.85,0,0,0-4-7.56C176.38,121.6,153.6,119.33,109.06,132.38Z"/><path class="cls-2" d="M135.74,170.77s-38.54,44.42-49.55,69-18.35,66.44-11.74,74.88-11.38,21.66-11.38,21.66S52.42,346.6,60.5,358s25.32,0,25.32,0,2.94,9.18,16.15,8.08,25.7-5.14,25.7-6.24,13.21,8.84,23.86,8.64,44.78,3.84,62.4-5.34,13.21-3.67,13.21-3.67,25.7,5.14,27.53-4,5.14-.36,5.14-.36.74,4.4,18,3.3S291,348.43,291,348.43s-5.5-17.62-10.64-27.9-6.24-23.85-6.24-23.85-4-52.49-19.82-78.19-13.95-31.24-38.18-54.35c0,.23-17.11-2.47-36.71-1.44C162.1,163.61,135.74,170.77,135.74,170.77Z"/><path class="cls-3" d="M177.24,369.72c-6.1,0-11.86-.25-16.59-.46-3.73-.16-7-.3-9.11-.26-7.66.13-16.35-4.71-21-7.31-1-.58-2.09-1.17-2.56-1.36-2.08,2.1-15.34,5.39-25.92,6.27-11.42.95-15.46-5.69-16.45-7.82-3.09,1.85-18.07,10-25.52-.49-8.26-11.63,2.52-22.26,2.63-22.37s11.58-8.59,12.6-16A6.28,6.28,0,0,0,74,315c-7-8.91.92-51.41,11.68-75.44,10.92-24.39,49.25-68.7,49.64-69.15l.11-.12.16,0c.26-.07,26.61-7.19,43.8-8.09A216.28,216.28,0,0,1,214,163.41l1.58.16,0-.68.9.85c17.27,16.47,21.28,23.93,27.93,36.3,2.7,5,5.77,10.73,10.33,18.16,15.68,25.52,19.87,77.91,19.91,78.43,0,.14,1.15,13.6,6.18,23.66s10.62,27.8,10.68,28a6.18,6.18,0,0,1-.41,5.39c-1.81,3-6.28,4.78-13.3,5.23-17.24,1.11-18.48-3.26-18.56-3.76-.53-1.38-1.69-3.41-2.41-3.35-.16,0-1,.25-1.65,3.73-1.92,9.61-27.1,4.69-28.17,4.47l-.89-.17.56-.71a1.58,1.58,0,0,0,.37-.75c-.18-.09-1.81-.52-12.9,5.25C204.58,368.6,190.13,369.72,177.24,369.72Zm-24.89-1.83c2.14,0,5.05.13,8.35.27,14.62.63,39.09,1.69,53-5.53,12.84-6.69,13.82-5.51,14.28-4.94a1.29,1.29,0,0,1,.07,1.36c4.24.75,24.58,3.92,26.11-3.75.61-3.05,1.45-4.52,2.64-4.62,1.87-.11,3.29,3.44,3.56,4.16,0,.12,1.21,4,17.43,3,6.53-.41,10.82-2,12.41-4.68a5,5,0,0,0,.34-4.45c-.08-.24-5.58-17.76-10.64-27.88s-6.28-23.92-6.29-24.06c0-.53-4.21-52.65-19.74-77.94-4.59-7.46-7.66-13.18-10.37-18.22-6.58-12.23-10.55-19.63-27.55-35.86-.34,0-.93-.08-2-.2a217,217,0,0,0-34.44-1.25c-16.36.86-41.16,7.41-43.4,8-2.29,2.66-38.79,45.15-49.36,68.75-11.42,25.51-17.93,66.49-11.81,74.31a7.32,7.32,0,0,1,1.49,5.73c-1.08,7.89-12.49,16.36-13,16.71s-10.15,10-2.44,20.9,24.4,0,24.57-.15l.6-.39.23.69c.11.35,3,8.73,15.58,7.69s24.08-4.77,25.19-5.82v-.19l.31-.22c.47-.28,1,0,3.61,1.45,4.53,2.52,12.91,7.18,20.17,7.18h1.14Z"/><path class="cls-2" d="M212.37,138.33s2.75-12.38,12.11-19,7.85-2.07,12.8-9.64,11.84-20.78,13.91-20.51,6.19-22.43-3-24.5-27.39-3.3-33.86,0L207.83,68a9.66,9.66,0,0,1-2.62-5.35c-.27-3-.55-10.9-20.23-12.41s-21.89,6.47-21.89,6.47,2.45,17.76,1.93,19.55c-.63,2.13-1.52,3.71-11,1.37s-5.1-7.84-17.9-7.16-14.73,3.72-18.17,3.72-14.86-3-28.9,3,3.16,22.44,7,24.22A64.75,64.75,0,0,1,120.83,120c10,12.25,16.23,29.35,16.23,29.35S174.45,137.37,212.37,138.33Z"/><path class="cls-3" d="M136.72,150.06l-.18-.5c-.06-.17-6.26-17.15-16.13-29.18a63.5,63.5,0,0,0-23.9-18.12l-.69-.32C93.06,100.66,83,91.63,83.06,84.1c0-3.27,2-5.76,5.76-7.39,11.59-5,21.29-3.89,26.5-3.3,1.13.13,2,.23,2.62.23a9.75,9.75,0,0,0,3.5-.89c2.53-1,6.35-2.38,14.64-2.83,7.65-.41,9.38,1.35,11.38,3.37a12,12,0,0,0,6.68,3.81c9.38,2.31,9.85.7,10.35-1,.35-1.21-1-12.49-1.94-19.32l0-.11,0-.11c.09-.34,2.56-8.4,22.46-6.87,19.74,1.52,20.43,9.37,20.72,12.72l0,.19A8.85,8.85,0,0,0,208,67.32L214,64.2c7-3.57,25.72-2,34.24,0,6.89,1.54,6.75,13.08,5.58,19.66-.5,2.8-1.37,6.1-2.75,5.92-1.17,0-5.53,7.35-8.42,12.19-1.68,2.82-3.41,5.73-4.95,8.08-3,4.57-3.75,4.88-5.78,5.71a32.72,32.72,0,0,0-7.16,4.07c-9.07,6.4-11.87,18.54-11.89,18.66l-.1.45-.46,0c-37.39-.93-74.75,10.9-75.12,11ZM107.43,74a45.34,45.34,0,0,0-18.18,3.74c-3.34,1.44-5,3.6-5.09,6.4-.09,6.95,9.59,15.65,12.13,16.83l.68.31a64.56,64.56,0,0,1,24.29,18.42c9,11,15,26.11,16.14,29,4.56-1.41,39.47-11.71,74.54-10.93.59-2.31,3.69-12.86,12.22-18.88a33.5,33.5,0,0,1,7.38-4.19c1.85-.75,2.47-1,5.28-5.3,1.52-2.32,3.25-5.22,4.93-8,5.23-8.78,7.76-12.73,9.38-12.73h0c.93-.73,3-9.07,1.88-16-.47-3-1.73-6.68-5-7.42-9.52-2.13-27.3-3.21-33.49,0l-6.83,3.49-.28-.28a10.13,10.13,0,0,1-2.78-5.69l0-.19c-.26-3.08-.89-10.27-19.71-11.72-17.72-1.36-20.93,5.12-21.28,6,.33,2.36,2.42,17.84,1.9,19.64-.75,2.53-2,4.14-11.68,1.76a13.16,13.16,0,0,1-7.19-4.1c-1.89-1.92-3.38-3.43-10.54-3-8.12.44-11.84,1.84-14.31,2.76a10.72,10.72,0,0,1-3.89,1,25.82,25.82,0,0,1-2.74-.24A67.14,67.14,0,0,0,107.43,74Z"/><path class="cls-3" d="M165.09,75.87a11.31,11.31,0,0,0,4.31-.94,12.93,12.93,0,0,0,3.69-2.3,8.91,8.91,0,0,0,3.33-7.5,5.35,5.35,0,0,0-1.17-3.8,9.83,9.83,0,0,0-3.76-1.91l-4.27-1.37c-1.41-.5-2.83-1-4.24-1.5,1.47.29,2.93.65,4.39,1l4.38,1.08a9.9,9.9,0,0,1,4.24,2,4.71,4.71,0,0,1,1.22,2.17,9.47,9.47,0,0,1,.31,2.34,12.54,12.54,0,0,1-.13,2.35,8.38,8.38,0,0,1-.77,2.26,11,11,0,0,1-3,3.56A11.61,11.61,0,0,1,165.09,75.87Z"/><path class="cls-3" d="M147.1,73.56c2.26,3.53,4.33,7.18,6.29,10.89s3.74,7.52,5.35,11.41a70.84,70.84,0,0,1,4.1,12,40.43,40.43,0,0,1,.91,12.64h-.22c-.75-4.15-1.7-8.14-2.82-12.11l-1.73-6c-.53-2-1.21-4-1.88-5.92-1.38-3.92-3-7.77-4.7-11.57s-3.49-7.58-5.49-11.25Z"/><path class="cls-3" d="M132.9,94.33a75.43,75.43,0,0,0,8.76,10.61c1.62,1.62,3.26,3.14,5,4.7a30.06,30.06,0,0,1,4.6,5.49,47.68,47.68,0,0,1,3.35,6.26,56.78,56.78,0,0,1,2.32,6.64,43.63,43.63,0,0,1,1.77,13.84,71.49,71.49,0,0,0-3.4-13.32,58,58,0,0,0-5.88-12.21,30,30,0,0,0-4.19-5.19c-1.61-1.61-3.33-3.27-4.82-5.06A45,45,0,0,1,132.9,94.33Z"/><path class="cls-3" d="M176.61,68.55a43.26,43.26,0,0,1,7,11,33.14,33.14,0,0,1,2,6.29,32.65,32.65,0,0,1,.52,3.29l.27,3.25c.3,4.33.67,8.66.55,13a101.33,101.33,0,0,1-1,13h-.22c-.55-4.33-.78-8.64-1-13s0-8.63-.11-12.94l-.1-3.22a30.13,30.13,0,0,0-.34-3.14A31,31,0,0,0,182.56,80a42.25,42.25,0,0,0-6.12-11.27Z"/><path class="cls-3" d="M180.73,139.92a24.4,24.4,0,0,0,.61-3.13,31.12,31.12,0,0,0,.29-3.21,29.85,29.85,0,0,0-.44-6.46,29.77,29.77,0,0,1,1,6.46,32.83,32.83,0,0,1,0,3.29,26.85,26.85,0,0,1-.38,3.31Z"/><path class="cls-3" d="M197.53,98.9a18,18,0,0,1,1.35-8.17,30.52,30.52,0,0,1,1.8-3.72,12.66,12.66,0,0,0,1.15-3.59c.1-.6.13-1.27.19-2l.18-2c.06-.68.12-1.36.21-2a17,17,0,0,1,.35-2.1c.69-2.74,2-5.58,4.74-7l1.12-.6L208,68.86A6.77,6.77,0,0,0,208,74.5a10.18,10.18,0,0,0,3.92,4.33,22.93,22.93,0,0,0,5.39,2.54,55.24,55.24,0,0,0,5.8,1.66A86.53,86.53,0,0,0,235,85.11a54.43,54.43,0,0,0,6,.3c1,0,2,0,3-.15a18.22,18.22,0,0,0,2.82-.47l.13,0a10.37,10.37,0,0,0,2.9-1.09,8,8,0,0,0,2.38-2,7.71,7.71,0,0,0,1.37-2.87,11.41,11.41,0,0,0,.24-3.31l.22,0a10.33,10.33,0,0,1,.25,3.47,7.69,7.69,0,0,1-1.15,3.4,9.39,9.39,0,0,1-2.52,2.62,10.6,10.6,0,0,1-3.34,1.58l.13,0A23.65,23.65,0,0,1,241,87.57a48.7,48.7,0,0,1-6.28-.11A67.83,67.83,0,0,1,222.56,85a31.8,31.8,0,0,1-11.3-5.29,12.74,12.74,0,0,1-3.91-4.93,8.35,8.35,0,0,1,0-6.29l.54.57a6.61,6.61,0,0,0-2.34,2.88,12.45,12.45,0,0,0-1,3.7c-.1.65-.13,1.28-.19,2s-.1,1.35-.15,2l-.19,2c-.07.66-.12,1.36-.26,2.1a12.51,12.51,0,0,1-1.52,4.08c-.75,1.22-1.43,2.27-2,3.48a22,22,0,0,0-2.41,7.59Z"/><path class="cls-3" d="M204.76,138.05c-.21-2.91-.26-5.77-.22-8.65s.17-5.75.49-8.61a59.44,59.44,0,0,1,1.47-8.48,31,31,0,0,1,3.12-8,30.81,30.81,0,0,0-2.59,8.09,58.37,58.37,0,0,0-.9,8.44c-.13,2.83-.08,5.67.06,8.5s.38,5.66.76,8.43Z"/><path class="cls-4" d="M137.06,149.38s-8.38,3.59-6.64,6.8,3.2,3.31,3.2,3.31-3.61,2.25-3.44,5.87c.19,3.93,2.2,6.32,5.56,5.41,2.44-.65,30.16-6.49,41.08-7.77s29,.18,29,.18l8.33.72c2.39.66,3.46.07,5.1-.46a5.78,5.78,0,0,0,4-4.23c1.05-4-2.48-9.73-6.7-9.36-2.72.24-1.44-2.2-.18-4a4.85,4.85,0,0,0-4-7.56C204.38,138.6,181.6,136.33,137.06,149.38Z"/><path class="cls-2" d="M180.45,183.55s-38.54,44.41-49.55,69S112.54,319,119.15,327.43s-11.38,21.66-11.38,21.66-10.64,10.28-2.57,21.66,25.33,0,25.33,0,2.94,9.17,16.15,8.07,25.69-5.14,25.69-6.24,13.22,8.84,23.86,8.64,44.78,3.84,62.4-5.33,13.22-3.67,13.22-3.67,25.69,5.13,27.53-4,5.14-.37,5.14-.37.73,4.41,18,3.3,13.22-9.91,13.22-9.91-5.51-17.62-10.65-27.89-6.24-23.86-6.24-23.86-4-52.49-19.82-78.19S285.06,200,260.84,176.92c0,.22-17.12-2.48-36.71-1.45C206.8,176.38,180.45,183.55,180.45,183.55Z"/><path class="cls-3" d="M221.94,382.49c-6.1,0-11.85-.25-16.58-.46-3.73-.16-7-.3-9.12-.26-7.66.13-16.34-4.7-21-7.31-1-.57-2.09-1.16-2.56-1.35-2.08,2.09-15.35,5.38-25.92,6.26-11.43,1-15.47-5.69-16.46-7.82-3.08,1.85-18.07,10-25.52-.48-8.25-11.63,2.53-22.27,2.64-22.37s11.57-8.6,12.6-16a6.32,6.32,0,0,0-1.27-4.9c-7-8.91.91-51.4,11.67-75.44,10.92-24.39,49.26-68.7,49.64-69.15l.11-.12.17-.05c.26-.07,26.61-7.18,43.79-8.09a216.5,216.5,0,0,1,34.62,1.26l1.58.17v-.69l.91.86c17.26,16.46,21.27,23.93,27.92,36.29,2.71,5,5.77,10.73,10.34,18.17,15.67,25.51,19.86,77.9,19.9,78.43,0,.13,1.15,13.59,6.18,23.65s10.63,27.8,10.68,28a6.11,6.11,0,0,1-.41,5.39c-1.8,3-6.28,4.79-13.29,5.23-17.25,1.11-18.48-3.26-18.57-3.76-.53-1.38-1.69-3.41-2.41-3.35-.15,0-.95.25-1.64,3.74-1.92,9.6-27.11,4.68-28.18,4.47l-.88-.18.56-.71a1.8,1.8,0,0,0,.37-.75c-.19-.09-1.82-.52-12.9,5.25C249.29,381.37,234.84,382.49,221.94,382.49Zm-24.89-1.82c2.15,0,5,.12,8.36.26,14.62.64,39.09,1.7,53-5.53,12.84-6.69,13.81-5.5,14.28-4.94a1.29,1.29,0,0,1,.07,1.36c4.24.75,24.57,3.93,26.11-3.75.61-3.05,1.44-4.52,2.63-4.61,1.88-.12,3.29,3.44,3.56,4.16,0,.12,1.22,4,17.44,2.95,6.52-.42,10.81-2,12.41-4.69a5.08,5.08,0,0,0,.34-4.45c-.08-.24-5.58-17.76-10.64-27.88s-6.29-23.92-6.3-24.06c0-.52-4.21-52.65-19.74-77.94-4.58-7.46-7.66-13.17-10.36-18.21-6.58-12.24-10.56-19.63-27.56-35.87-.34,0-.93-.08-2-.19A215.52,215.52,0,0,0,224.16,176c-16.37.86-41.16,7.41-43.4,8-2.29,2.66-38.8,45.16-49.36,68.75-11.43,25.51-17.94,66.49-11.82,74.31a7.38,7.38,0,0,1,1.5,5.73c-1.09,7.89-12.5,16.36-13,16.72s-10.15,10-2.45,20.89,24.41,0,24.58-.14l.6-.4.22.69c.12.36,3,8.73,15.58,7.69s24.09-4.76,25.19-5.82v-.18l.31-.23c.47-.28,1,0,3.61,1.46,4.54,2.52,12.92,7.18,20.17,7.18h1.14Z"/><path class="cls-2" d="M257.07,151.11s2.76-12.39,12.12-19,7.84-2.06,12.8-9.63,11.84-20.79,13.9-20.51,6.19-22.44-3-24.5-27.39-3.31-33.86,0l-6.47,3.3a9.61,9.61,0,0,1-2.61-5.34c-.28-3.06-.55-10.9-20.24-12.42s-21.88,6.47-21.88,6.47,2.44,17.77,1.92,19.55c-.62,2.13-1.51,3.71-11,1.37s-5.09-7.84-17.89-7.15S166.09,87,162.65,87s-14.87-3-28.91,3,3.17,22.44,7,24.23a64.62,64.62,0,0,1,24.78,18.58c10.05,12.25,16.23,29.35,16.23,29.35S219.15,150.14,257.07,151.11Z"/><path class="cls-3" d="M181.43,162.84l-.18-.5c-.06-.17-6.27-17.16-16.14-29.19A63.61,63.61,0,0,0,141.22,115l-.69-.31c-2.77-1.29-12.87-10.31-12.76-17.84,0-3.28,2-5.77,5.75-7.39,11.59-5,21.29-3.9,26.5-3.31,1.13.13,2,.23,2.63.23a9.85,9.85,0,0,0,3.5-.89c2.53-.94,6.35-2.38,14.64-2.82,7.64-.41,9.37,1.34,11.38,3.37a12.07,12.07,0,0,0,6.67,3.8c9.39,2.31,9.86.7,10.35-1,.36-1.21-1-12.49-1.94-19.31l0-.12,0-.1c.1-.35,2.56-8.41,22.46-6.88,19.75,1.52,20.43,9.37,20.73,12.72v.2a8.92,8.92,0,0,0,2.19,4.71l6.1-3.11c7-3.58,25.71-2,34.23,0,6.9,1.54,6.75,13.09,5.58,19.66-.5,2.8-1.36,6.11-2.74,5.92-1.18,0-5.54,7.36-8.42,12.2-1.68,2.81-3.42,5.72-4.95,8.07-3,4.57-3.76,4.88-5.79,5.72a32.29,32.29,0,0,0-7.16,4.06c-9.07,6.4-11.86,18.54-11.89,18.67l-.1.44h-.45c-37.39-.94-74.75,10.89-75.12,11ZM152.14,86.75A45.17,45.17,0,0,0,134,90.5c-3.34,1.44-5.05,3.59-5.09,6.39-.1,7,9.58,15.65,12.12,16.83l.68.31A64.6,64.6,0,0,1,166,132.45c9,11,15,26.11,16.14,29,4.57-1.4,39.47-11.71,74.54-10.92.6-2.32,3.69-12.86,12.23-18.89a33.06,33.06,0,0,1,7.38-4.18c1.85-.76,2.47-1,5.28-5.31,1.52-2.32,3.25-5.22,4.92-8,5.23-8.77,7.76-12.73,9.38-12.73h0c.93-.73,3-9.06,1.88-16-.47-3-1.72-6.68-5-7.42-9.52-2.13-27.3-3.21-33.49,0l-6.82,3.48-.28-.28a10.06,10.06,0,0,1-2.78-5.68l0-.2c-.27-3.07-.9-10.27-19.71-11.72-17.73-1.36-20.94,5.12-21.28,6,.32,2.36,2.42,17.84,1.89,19.64-.74,2.53-2,4.14-11.67,1.76a13.23,13.23,0,0,1-7.2-4.1c-1.89-1.92-3.38-3.43-10.53-3-8.12.43-11.85,1.83-14.32,2.76a10.86,10.86,0,0,1-3.88,1c-.67,0-1.59-.1-2.75-.23A64.63,64.63,0,0,0,152.14,86.75Z"/><path class="cls-3" d="M209.79,88.64a11.45,11.45,0,0,0,4.31-.93,12.83,12.83,0,0,0,3.69-2.31,8.93,8.93,0,0,0,3.34-7.49A5.47,5.47,0,0,0,220,74.1a10.09,10.09,0,0,0-3.77-1.91l-4.26-1.37c-1.41-.5-2.84-1-4.24-1.49,1.47.29,2.92.65,4.39,1l4.37,1.09a9.76,9.76,0,0,1,4.24,2,4.69,4.69,0,0,1,1.23,2.17,9.61,9.61,0,0,1,.31,2.35,14.37,14.37,0,0,1-.13,2.34,8.4,8.4,0,0,1-.78,2.26,10.86,10.86,0,0,1-3,3.56A11.59,11.59,0,0,1,209.79,88.64Z"/><path class="cls-3" d="M191.81,86.33c2.25,3.54,4.32,7.18,6.29,10.89s3.74,7.52,5.35,11.41a71.73,71.73,0,0,1,4.1,12,40.79,40.79,0,0,1,.91,12.65h-.22c-.76-4.15-1.71-8.14-2.83-12.11l-1.72-6c-.53-2-1.22-4-1.89-5.93-1.38-3.92-3-7.77-4.69-11.57s-3.5-7.58-5.49-11.25Z"/><path class="cls-3" d="M177.6,107.11a75.92,75.92,0,0,0,8.76,10.6c1.62,1.63,3.27,3.14,5,4.71a30.46,30.46,0,0,1,4.6,5.49,45.75,45.75,0,0,1,3.34,6.25,56.84,56.84,0,0,1,2.33,6.64,43.62,43.62,0,0,1,1.76,13.84,71.49,71.49,0,0,0-3.4-13.32,58.22,58.22,0,0,0-5.87-12.21,30.06,30.06,0,0,0-4.19-5.18c-1.61-1.62-3.34-3.27-4.83-5.06A45.63,45.63,0,0,1,177.6,107.11Z"/><path class="cls-3" d="M221.31,81.32a43,43,0,0,1,7,11,32.66,32.66,0,0,1,2,6.29,30.42,30.42,0,0,1,.52,3.29l.27,3.25c.3,4.33.67,8.67.55,13a103,103,0,0,1-1,13h-.22c-.55-4.33-.78-8.65-1-13s0-8.63-.11-12.93l-.1-3.23a30.11,30.11,0,0,0-.33-3.14,32.13,32.13,0,0,0-1.62-6.14,42.67,42.67,0,0,0-6.12-11.27Z"/><path class="cls-3" d="M225.43,152.69a26.09,26.09,0,0,0,.62-3.12,28.94,28.94,0,0,0,.28-3.22,28.64,28.64,0,0,0-.44-6.46,28.68,28.68,0,0,1,1,6.46,30.27,30.27,0,0,1,0,3.3,27.25,27.25,0,0,1-.37,3.31Z"/><path class="cls-3" d="M242.23,111.67a18,18,0,0,1,1.35-8.17,30.52,30.52,0,0,1,1.8-3.72,12.35,12.35,0,0,0,1.15-3.59c.1-.6.14-1.26.19-2l.18-2c.07-.68.12-1.35.21-2a19.62,19.62,0,0,1,.36-2.1c.69-2.74,2-5.58,4.73-7l1.13-.59-.59,1.16a6.83,6.83,0,0,0-.05,5.65,10.13,10.13,0,0,0,3.91,4.32A23.76,23.76,0,0,0,262,94.15a55.9,55.9,0,0,0,5.8,1.65,86.67,86.67,0,0,0,11.9,2.08,54.43,54.43,0,0,0,6,.3,29.19,29.19,0,0,0,3-.15,18,18,0,0,0,2.82-.47l.14,0a10.23,10.23,0,0,0,2.89-1.1,7.43,7.43,0,0,0,3.75-4.9,11,11,0,0,0,.24-3.31l.22,0a10.33,10.33,0,0,1,.26,3.47,7.91,7.91,0,0,1-1.15,3.4,9.28,9.28,0,0,1-2.53,2.62,10.34,10.34,0,0,1-3.33,1.58l.13,0a23.39,23.39,0,0,1-6.33,1.13,47,47,0,0,1-6.28-.11,68,68,0,0,1-12.2-2.47A31.66,31.66,0,0,1,256,92.47a12.69,12.69,0,0,1-3.92-4.93,8.44,8.44,0,0,1-.05-6.29l.54.57a6.69,6.69,0,0,0-2.33,2.89,12.69,12.69,0,0,0-1,3.7c-.09.64-.13,1.27-.18,1.94s-.1,1.36-.16,2l-.18,2c-.08.66-.13,1.36-.27,2.1a12.68,12.68,0,0,1-1.51,4.09c-.75,1.21-1.43,2.26-2,3.47a22,22,0,0,0-2.41,7.59Z"/><path class="cls-3" d="M249.46,150.82c-.21-2.91-.25-5.77-.22-8.65s.18-5.75.5-8.6a58,58,0,0,1,1.46-8.49,31.46,31.46,0,0,1,3.12-8,30.79,30.79,0,0,0-2.58,8.09,58.38,58.38,0,0,0-.91,8.45c-.13,2.83-.08,5.66.06,8.49s.38,5.67.76,8.43Z"/><path class="cls-4" d="M181.77,162.15s-8.39,3.59-6.64,6.81,3.2,3.3,3.2,3.3-3.62,2.26-3.44,5.87c.19,3.93,2.2,6.32,5.56,5.42,2.43-.66,30.15-6.5,41.07-7.78s29,.18,29,.18l8.33.73c2.39.65,3.45.07,5.09-.47a5.77,5.77,0,0,0,4-4.23c1.06-3.95-2.47-9.72-6.7-9.36-2.72.24-1.43-2.2-.18-4a4.84,4.84,0,0,0-4-7.55C249.09,151.37,226.31,149.1,181.77,162.15Z"/><path class="cls-5" d="M159.85,293.39a2,2,0,0,1-1.49-.58,1.89,1.89,0,0,1-.58-1.4v-27.5l.58.67L152.75,268a2,2,0,0,1-1,.24,1.82,1.82,0,0,1-1.4-.65,2,2,0,0,1-.58-1.33,1.92,1.92,0,0,1,1-1.7l7.87-4.68a2.46,2.46,0,0,1,1.45-.29,1.64,1.64,0,0,1,1.31.55,2,2,0,0,1,.48,1.38v29.92a1.89,1.89,0,0,1-.58,1.4A2,2,0,0,1,159.85,293.39Z"/><path class="cls-5" d="M180.74,293.88a10,10,0,0,1-6.7-2.28,13.92,13.92,0,0,1-4.06-6.23,29.52,29.52,0,0,1,0-17.84,14,14,0,0,1,4.06-6.19,11,11,0,0,1,13.39,0,13.89,13.89,0,0,1,4,6.19,30.14,30.14,0,0,1,0,17.84,13.81,13.81,0,0,1-4,6.23A10,10,0,0,1,180.74,293.88Zm0-3.92a6.14,6.14,0,0,0,4.32-1.64,10.28,10.28,0,0,0,2.68-4.67,28.63,28.63,0,0,0,0-14.4,10.06,10.06,0,0,0-2.68-4.64,6.58,6.58,0,0,0-8.65,0,10.27,10.27,0,0,0-2.71,4.64,28,28,0,0,0,0,14.4,10.49,10.49,0,0,0,2.71,4.67A6.13,6.13,0,0,0,180.74,290Z"/><path class="cls-5" d="M223.08,293.88a10,10,0,0,1-6.7-2.28,13.92,13.92,0,0,1-4.06-6.23,29.72,29.72,0,0,1,0-17.84,14,14,0,0,1,4.06-6.19,11,11,0,0,1,13.39,0,13.81,13.81,0,0,1,4,6.19,30.14,30.14,0,0,1,0,17.84,13.72,13.72,0,0,1-4,6.23A10,10,0,0,1,223.08,293.88Zm0-3.92a6.1,6.1,0,0,0,4.32-1.64,10.38,10.38,0,0,0,2.69-4.67,28.94,28.94,0,0,0,0-14.4,10.16,10.16,0,0,0-2.69-4.64,6.58,6.58,0,0,0-8.65,0,10.36,10.36,0,0,0-2.71,4.64,28,28,0,0,0,0,14.4,10.58,10.58,0,0,0,2.71,4.67A6.14,6.14,0,0,0,223.08,290Z"/><path class="cls-5" d="M252.13,293.88a10,10,0,0,1-6.7-2.28,13.92,13.92,0,0,1-4.06-6.23,29.72,29.72,0,0,1,0-17.84,14,14,0,0,1,4.06-6.19,11,11,0,0,1,13.39,0,13.81,13.81,0,0,1,4,6.19,30.14,30.14,0,0,1,0,17.84,13.72,13.72,0,0,1-4,6.23A10,10,0,0,1,252.13,293.88Zm0-3.92a6.12,6.12,0,0,0,4.32-1.64,10.38,10.38,0,0,0,2.69-4.67,28.94,28.94,0,0,0,0-14.4,10.16,10.16,0,0,0-2.69-4.64,6.58,6.58,0,0,0-8.65,0,10.36,10.36,0,0,0-2.71,4.64,28,28,0,0,0,0,14.4,10.58,10.58,0,0,0,2.71,4.67A6.14,6.14,0,0,0,252.13,290Z"/><path class="cls-5" d="M281.18,293.88a10,10,0,0,1-6.7-2.28,13.92,13.92,0,0,1-4.06-6.23,29.52,29.52,0,0,1,0-17.84,14,14,0,0,1,4.06-6.19,11,11,0,0,1,13.39,0,13.89,13.89,0,0,1,4,6.19,30.14,30.14,0,0,1,0,17.84,13.81,13.81,0,0,1-4,6.23A10,10,0,0,1,281.18,293.88Zm0-3.92a6.12,6.12,0,0,0,4.32-1.64,10.38,10.38,0,0,0,2.69-4.67,28.94,28.94,0,0,0,0-14.4,10.16,10.16,0,0,0-2.69-4.64,6.58,6.58,0,0,0-8.65,0,10.27,10.27,0,0,0-2.71,4.64,28,28,0,0,0,0,14.4,10.49,10.49,0,0,0,2.71,4.67A6.14,6.14,0,0,0,281.18,290Z"/><path class="cls-4" d="M219.6,354.16a22.55,22.55,0,0,1-8.3-1.41,22.12,22.12,0,0,1-6.89-4.47,4.41,4.41,0,0,1-.74-1,2.48,2.48,0,0,1-.28-1.18,2.61,2.61,0,0,1,.73-1.82,2.39,2.39,0,0,1,1.82-.8,2.21,2.21,0,0,1,1.6.71,18.29,18.29,0,0,0,5.39,3.7,16.15,16.15,0,0,0,6.55,1.28,13.63,13.63,0,0,0,5.07-.9,8.77,8.77,0,0,0,3.61-2.49,5.6,5.6,0,0,0,1.34-3.7,6.42,6.42,0,0,0-1.5-4.21,11,11,0,0,0-4-2.78,32.86,32.86,0,0,0-5.84-1.89,34.93,34.93,0,0,1-5.4-1.72,16.3,16.3,0,0,1-4.24-2.52,10.38,10.38,0,0,1-2.78-3.64,11.85,11.85,0,0,1-1-5,10.87,10.87,0,0,1,1.92-6.39,12.35,12.35,0,0,1,5.3-4.24,19,19,0,0,1,7.78-1.5,21.28,21.28,0,0,1,7.38,1.27,14.33,14.33,0,0,1,5.58,3.52,3.33,3.33,0,0,1,1.28,2.36,2.39,2.39,0,0,1-.8,1.75,2.48,2.48,0,0,1-1.82.8,1.87,1.87,0,0,1-1.27-.51,11.14,11.14,0,0,0-2.75-2.17,16,16,0,0,0-3.64-1.53,14.87,14.87,0,0,0-9.13.29,8,8,0,0,0-3.48,2.42,6.32,6.32,0,0,0,.16,7.73,10.44,10.44,0,0,0,3.77,2.55,40.14,40.14,0,0,0,5.24,1.76,51.25,51.25,0,0,1,5.77,1.75,17.54,17.54,0,0,1,4.57,2.46,9.91,9.91,0,0,1,3,3.73,13.31,13.31,0,0,1,1,5.59,10.44,10.44,0,0,1-2,6.26,13.42,13.42,0,0,1-5.39,4.31A19.19,19.19,0,0,1,219.6,354.16Zm2.88,5.87a2.48,2.48,0,0,1-.74,1.82,2.53,2.53,0,0,1-1.88.73,2.36,2.36,0,0,1-1.79-.73,2.53,2.53,0,0,1-.7-1.82V304.36a2.56,2.56,0,0,1,.73-1.85,2.4,2.4,0,0,1,1.82-.77,2.34,2.34,0,0,1,1.85.77,2.63,2.63,0,0,1,.71,1.85Z"/></g></g></svg>