<svg xmlns="http://www.w3.org/2000/svg" viewBox="0 0 337.62 390.99"><defs><style>.cls-1{fill:none;}.cls-2{fill:#d3f7a4;}.cls-3{fill:#58d313;}.cls-4{fill:#25a5dd;}.cls-5{fill:#363026;}</style></defs><g id="Layer_2" data-name="Layer 2"><g id="Layer_1-2" data-name="Layer 1"><rect class="cls-1" width="337.62" height="390.99"/><path class="cls-2" d="M86.38,132.93s-42.25,48.68-54.32,75.64S12,281.39,19.19,290.64,6.72,314.38,6.72,314.38-4.95,325.64,3.9,338.12s27.76,0,27.76,0,3.22,10.05,17.7,8.85,28.17-5.64,28.17-6.84,14.48,9.68,26.15,9.47,49.08,4.21,68.39-5.85,14.49-4,14.49-4,28.16,5.63,30.17-4.43,5.63-.4,5.63-.4.81,4.83,19.72,3.62,14.48-10.86,14.48-10.86-6-19.32-11.67-30.58-6.83-26.15-6.83-26.15-4.43-57.54-21.73-85.7S201,151,174.49,125.66c0,.25-18.76-2.71-40.24-1.58C115.26,125.08,86.38,132.93,86.38,132.93Z"/><path class="cls-3" d="M131.86,351c-6.69,0-13-.28-18.18-.5-4.09-.18-7.62-.34-10-.29-8.4.14-17.92-5.16-23.06-8-1.13-.63-2.29-1.28-2.81-1.49-2.28,2.3-16.82,5.9-28.41,6.87-12.52,1.05-16.94-6.24-18-8.57-3.38,2-19.81,11-28-.54-9-12.74,2.77-24.4,2.89-24.51S19,304.53,20.1,296.38A6.88,6.88,0,0,0,18.71,291c-7.64-9.77,1-56.34,12.8-82.69,12-26.73,54-75.3,54.41-75.79l.12-.14.18,0c.29-.08,29.17-7.88,48-8.87a236.34,236.34,0,0,1,37.94,1.38l1.74.18,0-.76,1,.94c18.93,18.05,23.33,26.23,30.62,39.79,3,5.51,6.32,11.75,11.32,19.91,17.18,28,21.77,85.38,21.82,86,0,.15,1.26,14.9,6.77,25.93s11.65,30.47,11.71,30.67a6.71,6.71,0,0,1-.45,5.9c-2,3.32-6.88,5.25-14.57,5.74-18.91,1.21-20.26-3.57-20.35-4.12-.58-1.52-1.86-3.74-2.64-3.67-.17,0-1,.27-1.81,4.09-2.1,10.53-29.71,5.13-30.88,4.9l-1-.2.61-.77a1.73,1.73,0,0,0,.41-.83c-.2-.09-2-.56-14.14,5.76C161.83,349.76,146,351,131.86,351Zm-27.29-2c2.36,0,5.54.13,9.16.29,16,.69,42.85,1.86,58.06-6.07,14.08-7.32,15.14-6,15.66-5.4a1.39,1.39,0,0,1,.07,1.48c4.65.82,26.94,4.31,28.62-4.11.67-3.34,1.59-4.95,2.89-5.06,2.05-.12,3.6,3.77,3.9,4.57,0,.13,1.33,4.37,19.11,3.23,7.15-.46,11.86-2.24,13.6-5.14a5.51,5.51,0,0,0,.37-4.87c-.08-.27-6.11-19.47-11.66-30.56-5.61-11.24-6.88-26.22-6.9-26.37,0-.58-4.61-57.72-21.63-85.43-5-8.18-8.4-14.45-11.37-20-7.21-13.41-11.57-21.52-30.2-39.31-.37,0-1-.08-2.22-.21a236.44,236.44,0,0,0-37.74-1.38c-17.94.95-45.12,8.12-47.58,8.78-2.51,2.91-42.52,49.49-54.1,75.35-12.52,28-19.66,72.88-12.95,81.46a8.06,8.06,0,0,1,1.64,6.28c-1.19,8.65-13.69,17.92-14.23,18.32s-11.12,11-2.68,22.9,26.76,0,26.94-.16l.66-.43.25.75c.12.39,3.27,9.57,17.07,8.44s26.4-5.23,27.61-6.38v-.21l.34-.25c.51-.3,1.07,0,4,1.6,5,2.76,14.15,7.87,22.11,7.87h1.24Z"/><path class="cls-2" d="M170.36,97.37s3-13.58,13.28-20.82,8.6-2.26,14-10.56,13-22.78,15.24-22.48,6.79-24.59-3.32-26.85-30-3.63-37.11,0l-7.1,3.62a10.56,10.56,0,0,1-2.86-5.86c-.3-3.35-.61-11.95-22.18-13.61s-24,7.1-24,7.1,2.68,19.47,2.11,21.42c-.68,2.33-1.66,4.07-12.07,1.51s-5.58-8.6-19.61-7.85-16.14,4.08-19.92,4.08-16.29-3.32-31.68,3.32S38.65,55,42.88,56.94A70.83,70.83,0,0,1,70,77.31c11,13.42,17.79,32.17,17.79,32.17S128.8,96.32,170.36,97.37Z"/><path class="cls-3" d="M87.45,110.23l-.2-.55c-.06-.18-6.86-18.8-17.68-32a69.77,69.77,0,0,0-26.2-19.86l-.75-.34c-3-1.41-14.1-11.3-14-19.56.05-3.59,2.18-6.31,6.31-8.1,12.7-5.48,23.34-4.27,29.05-3.62,1.24.14,2.21.25,2.87.25a10.89,10.89,0,0,0,3.84-1c2.77-1,7-2.61,16-3.1,8.38-.45,10.27,1.47,12.47,3.69a13.21,13.21,0,0,0,7.32,4.17c10.29,2.53,10.8.77,11.34-1.09.39-1.33-1.1-13.69-2.13-21.17V7.86l0-.12c.1-.37,2.8-9.21,24.62-7.53,21.64,1.67,22.39,10.27,22.71,14l0,.21a9.74,9.74,0,0,0,2.4,5.16l6.68-3.41c7.66-3.91,28.18-2.14,37.52-.05,7.56,1.69,7.4,14.34,6.12,21.55-.55,3.07-1.5,6.69-3,6.49-1.29,0-6.07,8.06-9.23,13.36-1.84,3.09-3.74,6.28-5.42,8.85-3.29,5-4.12,5.36-6.34,6.27A34.58,34.58,0,0,0,184,77.05c-9.94,7-13,20.32-13,20.45l-.11.49h-.49c-41-1-81.93,11.94-82.34,12.07ZM55.35,26.84a49.6,49.6,0,0,0-19.93,4.1c-3.66,1.58-5.54,3.94-5.58,7-.1,7.61,10.5,17.15,13.29,18.44l.75.35A70.71,70.71,0,0,1,70.5,76.92C80.41,89,87,105.55,88.19,108.73c5-1.54,43.26-12.83,81.7-12,.65-2.54,4-14.1,13.4-20.7a36.63,36.63,0,0,1,8.09-4.59c2-.83,2.71-1.11,5.79-5.81,1.66-2.55,3.56-5.73,5.39-8.8,5.74-9.62,8.51-14,10.29-14h0c1-.8,3.27-9.93,2.06-17.52-.52-3.27-1.89-7.33-5.49-8.14-10.44-2.33-29.92-3.51-36.71,0L165.27,21l-.31-.3a11.07,11.07,0,0,1-3-6.24l0-.21c-.3-3.37-1-11.26-21.61-12.84C120.86-.07,117.35,7,117,8c.35,2.59,2.65,19.55,2.07,21.53-.81,2.77-2.2,4.54-12.79,1.92a14.4,14.4,0,0,1-7.89-4.49c-2.07-2.1-3.7-3.76-11.55-3.33-8.9.47-13,2-15.68,3a11.82,11.82,0,0,1-4.27,1.05,29.24,29.24,0,0,1-3-.26A71.37,71.37,0,0,0,55.35,26.84Z"/><path class="cls-3" d="M118.54,28.9a12.32,12.32,0,0,0,4.73-1,14.11,14.11,0,0,0,4-2.53c2.37-2.11,4-5,3.65-8.21A5.89,5.89,0,0,0,129.68,13a10.84,10.84,0,0,0-4.12-2.09l-4.68-1.51c-1.55-.55-3.11-1-4.65-1.63,1.61.31,3.21.71,4.82,1.06L125.84,10a10.86,10.86,0,0,1,4.65,2.17,5.22,5.22,0,0,1,1.34,2.37,10.51,10.51,0,0,1,.34,2.58,14.13,14.13,0,0,1-.14,2.57,9.63,9.63,0,0,1-.85,2.47,12,12,0,0,1-3.28,3.91A12.71,12.71,0,0,1,118.54,28.9Z"/><path class="cls-3" d="M98.83,26.38c2.47,3.87,4.74,7.87,6.89,11.93s4.1,8.24,5.86,12.51A78.23,78.23,0,0,1,116.08,64a44.58,44.58,0,0,1,1,13.86h-.25c-.82-4.54-1.86-8.92-3.09-13.27L111.85,58c-.58-2.19-1.34-4.34-2.07-6.49-1.51-4.3-3.27-8.52-5.14-12.68s-3.83-8.32-6-12.34Z"/><path class="cls-3" d="M83.26,49.14a81.56,81.56,0,0,0,9.6,11.62c1.77,1.79,3.58,3.45,5.48,5.17a33.09,33.09,0,0,1,5,6A50.82,50.82,0,0,1,107,78.8a61.59,61.59,0,0,1,2.55,7.28,47.6,47.6,0,0,1,1.93,15.17,78.14,78.14,0,0,0-3.72-14.6,63.74,63.74,0,0,0-6.44-13.38,32.87,32.87,0,0,0-4.59-5.69C95,65.81,93.11,64,91.48,62A49.37,49.37,0,0,1,83.26,49.14Z"/><path class="cls-3" d="M131.17,20.88A47.41,47.41,0,0,1,138.82,33,36.59,36.59,0,0,1,141,39.84c.28,1.19.41,2.4.57,3.61l.29,3.56c.33,4.75.74,9.5.61,14.25a113.65,113.65,0,0,1-1.11,14.24h-.25c-.6-4.74-.85-9.47-1.06-14.2s0-9.46-.12-14.19l-.1-3.53c-.1-1.15-.16-2.3-.37-3.44a35.42,35.42,0,0,0-1.77-6.74A46.62,46.62,0,0,0,131,21Z"/><path class="cls-3" d="M135.68,99.11a27,27,0,0,0,.68-3.43,34.34,34.34,0,0,0,.31-3.52,32.37,32.37,0,0,0-.48-7.08,32.41,32.41,0,0,1,1.08,7.08,33.44,33.44,0,0,1,0,3.61,28.41,28.41,0,0,1-.41,3.63Z"/><path class="cls-3" d="M154.1,54.15a19.56,19.56,0,0,1,1.48-8.95,32.92,32.92,0,0,1,2-4.09,13.58,13.58,0,0,0,1.26-3.93c.11-.66.15-1.38.21-2.14l.2-2.22c.07-.74.13-1.49.22-2.22a20.67,20.67,0,0,1,.4-2.31c.75-3,2.2-6.11,5.18-7.69l1.24-.66-.65,1.28a7.47,7.47,0,0,0-.05,6.19,11.09,11.09,0,0,0,4.29,4.74,25.39,25.39,0,0,0,5.91,2.79,58.5,58.5,0,0,0,6.35,1.81,95.71,95.71,0,0,0,13,2.29,59.85,59.85,0,0,0,6.55.32c1.09,0,2.18,0,3.25-.16a19.92,19.92,0,0,0,3.09-.51l.15,0a11.3,11.3,0,0,0,3.18-1.19A8.87,8.87,0,0,0,214,35.22a8.35,8.35,0,0,0,1.5-3.15,12.17,12.17,0,0,0,.26-3.63l.24,0a11.21,11.21,0,0,1,.28,3.8A8.54,8.54,0,0,1,215,35.93a10,10,0,0,1-2.77,2.87,11.18,11.18,0,0,1-3.65,1.73l.14,0a25.5,25.5,0,0,1-6.93,1.24,52.77,52.77,0,0,1-6.89-.12,74.57,74.57,0,0,1-13.37-2.71,34.68,34.68,0,0,1-12.38-5.8,14,14,0,0,1-4.29-5.4,9.25,9.25,0,0,1-.06-6.9l.6.63a7.3,7.3,0,0,0-2.56,3.16,13.59,13.59,0,0,0-1.1,4.06c-.11.7-.15,1.4-.21,2.13s-.11,1.49-.17,2.23l-.2,2.23c-.08.73-.14,1.49-.29,2.3A13.76,13.76,0,0,1,159.21,42c-.82,1.33-1.57,2.48-2.22,3.81a24.06,24.06,0,0,0-2.65,8.32Z"/><path class="cls-3" d="M162,97.06c-.23-3.19-.28-6.32-.24-9.48s.19-6.3.54-9.43a64.81,64.81,0,0,1,1.61-9.3,34,34,0,0,1,3.42-8.74A34.27,34.27,0,0,0,164.51,69a63.92,63.92,0,0,0-1,9.26c-.15,3.1-.09,6.21.06,9.31s.41,6.21.83,9.23Z"/><path class="cls-4" d="M87.82,109.48s-9.19,3.94-7.28,7.46,3.51,3.62,3.51,3.62-4,2.47-3.77,6.43c.21,4.31,2.41,6.93,6.1,5.94,2.66-.72,33.05-7.12,45-8.52s31.82.19,31.82.19l9.13.8c2.62.71,3.79.08,5.59-.51a6.32,6.32,0,0,0,4.4-4.63c1.16-4.33-2.71-10.67-7.34-10.26-3,.26-1.57-2.42-.2-4.34a5,5,0,0,0,.31-5.43,5.1,5.1,0,0,0-4.74-2.86C161.61,97.67,136.64,95.18,87.82,109.48Z"/><path class="cls-2" d="M117.38,158.93s-42.25,48.68-54.32,75.64S43,307.39,50.19,316.64s-12.47,23.74-12.47,23.74-11.67,11.26-2.82,23.74,27.76,0,27.76,0,3.22,10.05,17.7,8.85,28.17-5.64,28.17-6.84,14.48,9.68,26.15,9.47,49.08,4.21,68.39-5.85,14.49-4,14.49-4,28.16,5.63,30.17-4.43,5.63-.4,5.63-.4.81,4.83,19.72,3.62,14.48-10.86,14.48-10.86-6-19.32-11.67-30.58-6.83-26.15-6.83-26.15-4.43-57.54-21.73-85.7S232,177,205.49,151.66c0,.25-18.76-2.71-40.24-1.58C146.26,151.08,117.38,158.93,117.38,158.93Z"/><path class="cls-3" d="M162.86,377c-6.69,0-13-.28-18.18-.5-4.09-.18-7.62-.34-10-.29-8.4.14-17.92-5.16-23.06-8-1.13-.63-2.29-1.28-2.81-1.49-2.28,2.3-16.82,5.9-28.41,6.87-12.52,1.05-16.94-6.24-18-8.57-3.38,2-19.81,11-28-.54-9-12.74,2.77-24.4,2.89-24.51S50,330.53,51.1,322.38A6.88,6.88,0,0,0,49.71,317c-7.64-9.77,1-56.34,12.8-82.69,12-26.73,54-75.3,54.41-75.79l.12-.14.18,0c.29-.08,29.17-7.88,48-8.87a236.34,236.34,0,0,1,37.94,1.38l1.74.18,0-.76,1,.94c18.93,18.05,23.33,26.23,30.62,39.79,3,5.51,6.32,11.75,11.32,19.91,17.18,28,21.77,85.38,21.82,86,0,.15,1.26,14.9,6.77,25.93s11.65,30.47,11.71,30.67a6.71,6.71,0,0,1-.45,5.9c-2,3.32-6.88,5.25-14.57,5.74-18.91,1.21-20.26-3.57-20.35-4.12-.58-1.52-1.86-3.74-2.64-3.67-.17,0-1,.27-1.81,4.09-2.1,10.53-29.71,5.13-30.88,4.9l-1-.2.61-.77a1.73,1.73,0,0,0,.41-.83c-.2-.09-2-.56-14.14,5.76C192.83,375.76,177,377,162.86,377Zm-27.29-2c2.36,0,5.54.13,9.16.29,16,.69,42.85,1.86,58.06-6.07,14.08-7.32,15.14-6,15.66-5.4a1.39,1.39,0,0,1,.07,1.48c4.65.82,26.94,4.31,28.62-4.11.67-3.34,1.59-4.95,2.89-5.06,2.05-.12,3.6,3.77,3.9,4.57,0,.13,1.33,4.37,19.11,3.23,7.15-.46,11.86-2.24,13.6-5.14a5.51,5.51,0,0,0,.37-4.87c-.08-.27-6.11-19.47-11.66-30.56-5.61-11.24-6.88-26.22-6.9-26.37,0-.58-4.61-57.72-21.63-85.43-5-8.18-8.4-14.45-11.37-20-7.21-13.41-11.57-21.52-30.2-39.31-.37,0-1-.08-2.22-.21a236.44,236.44,0,0,0-37.74-1.38c-17.94.95-45.12,8.12-47.58,8.78-2.51,2.91-42.52,49.49-54.1,75.35-12.52,28-19.66,72.88-13,81.46a8.06,8.06,0,0,1,1.64,6.28c-1.19,8.65-13.69,17.92-14.23,18.32s-11.12,11-2.68,22.9,26.76,0,26.94-.16l.66-.43.25.75c.12.39,3.27,9.57,17.07,8.44s26.4-5.23,27.61-6.38v-.21l.34-.25c.51-.3,1.07,0,4,1.6,5,2.76,14.15,7.87,22.11,7.87h1.24Z"/><path class="cls-2" d="M201.36,123.37s3-13.58,13.28-20.82,8.6-2.26,14-10.56,13-22.78,15.24-22.48,6.79-24.59-3.32-26.85-30-3.63-37.11,0l-7.1,3.62a10.56,10.56,0,0,1-2.86-5.86c-.3-3.35-.61-12-22.18-13.61s-24,7.1-24,7.1,2.68,19.47,2.11,21.42c-.68,2.33-1.66,4.07-12.07,1.51s-5.58-8.6-19.61-7.85-16.14,4.08-19.92,4.08-16.29-3.32-31.68,3.32S69.65,81,73.88,82.94A70.83,70.83,0,0,1,101,103.31c11,13.42,17.79,32.17,17.79,32.17S159.8,122.32,201.36,123.37Z"/><path class="cls-3" d="M118.45,136.23l-.2-.55c-.06-.18-6.86-18.8-17.68-32a69.77,69.77,0,0,0-26.2-19.86l-.75-.34c-3-1.41-14.1-11.3-14-19.56,0-3.59,2.18-6.31,6.31-8.1,12.7-5.48,23.34-4.27,29.05-3.62,1.24.14,2.21.25,2.87.25a10.89,10.89,0,0,0,3.84-1c2.77-1,7-2.61,16-3.1,8.38-.45,10.27,1.47,12.47,3.69a13.21,13.21,0,0,0,7.32,4.17c10.29,2.53,10.8.77,11.34-1.09.39-1.33-1.1-13.69-2.13-21.17v-.13l0-.12c.1-.37,2.8-9.21,24.62-7.53C193,27.88,193.78,36.48,194.1,40.16l0,.21a9.74,9.74,0,0,0,2.4,5.16l6.68-3.41c7.66-3.91,28.18-2.14,37.52,0,7.56,1.69,7.4,14.34,6.12,21.55-.55,3.07-1.5,6.69-3,6.49-1.29,0-6.07,8.06-9.23,13.36-1.84,3.09-3.74,6.28-5.42,8.85-3.29,5-4.12,5.36-6.34,6.27a34.58,34.58,0,0,0-7.85,4.46c-9.94,7-13,20.32-13,20.45l-.11.49h-.49c-41-1-81.93,11.94-82.34,12.07ZM86.35,52.84a49.6,49.6,0,0,0-19.93,4.1c-3.66,1.58-5.54,3.94-5.58,7-.1,7.61,10.5,17.15,13.29,18.44l.75.35a70.71,70.71,0,0,1,26.62,20.18c9.91,12.08,16.47,28.63,17.69,31.81,5-1.54,43.26-12.83,81.7-12,.65-2.54,4-14.1,13.4-20.7a36.63,36.63,0,0,1,8.09-4.59c2-.83,2.71-1.11,5.79-5.81,1.66-2.55,3.56-5.73,5.39-8.8,5.74-9.62,8.51-14,10.29-14h0c1-.8,3.27-9.93,2.06-17.52-.52-3.27-1.89-7.33-5.49-8.14-10.44-2.33-29.92-3.51-36.71-.05L196.27,47l-.31-.3a11.07,11.07,0,0,1-3-6.24l0-.21c-.3-3.37-1-11.26-21.61-12.84C151.86,25.93,148.35,33,148,34c.35,2.59,2.65,19.55,2.07,21.53-.81,2.77-2.2,4.54-12.79,1.92a14.4,14.4,0,0,1-7.89-4.49c-2.07-2.1-3.7-3.76-11.55-3.33-8.9.47-13,2-15.68,3a11.82,11.82,0,0,1-4.27,1.05,29.24,29.24,0,0,1-3-.26A71.37,71.37,0,0,0,86.35,52.84Z"/><path class="cls-3" d="M149.54,54.9a12.32,12.32,0,0,0,4.73-1,14.11,14.11,0,0,0,4-2.53c2.37-2.11,4-5,3.65-8.21A5.89,5.89,0,0,0,160.68,39a10.84,10.84,0,0,0-4.12-2.09l-4.68-1.51c-1.55-.55-3.11-1-4.65-1.63,1.61.31,3.21.71,4.82,1.06L156.84,36a10.86,10.86,0,0,1,4.65,2.17,5.22,5.22,0,0,1,1.34,2.37,10.51,10.51,0,0,1,.34,2.58,14.13,14.13,0,0,1-.14,2.57,9.63,9.63,0,0,1-.85,2.47,12,12,0,0,1-3.28,3.91A12.71,12.71,0,0,1,149.54,54.9Z"/><path class="cls-3" d="M129.83,52.38c2.47,3.87,4.74,7.87,6.89,11.93s4.1,8.24,5.86,12.51A78.23,78.23,0,0,1,147.08,90a44.58,44.58,0,0,1,1,13.86h-.25c-.82-4.54-1.86-8.92-3.09-13.27L142.85,84c-.58-2.19-1.34-4.34-2.07-6.49-1.51-4.3-3.27-8.52-5.14-12.68s-3.83-8.32-6-12.34Z"/><path class="cls-3" d="M114.26,75.14a81.56,81.56,0,0,0,9.6,11.62c1.77,1.79,3.58,3.45,5.48,5.17a33.09,33.09,0,0,1,5,6A50.82,50.82,0,0,1,138,104.8a61.59,61.59,0,0,1,2.55,7.28,47.6,47.6,0,0,1,1.93,15.17,78.14,78.14,0,0,0-3.72-14.6,63.74,63.74,0,0,0-6.44-13.38,32.87,32.87,0,0,0-4.59-5.69C126,91.81,124.11,90,122.48,88A49.37,49.37,0,0,1,114.26,75.14Z"/><path class="cls-3" d="M162.17,46.88A47.41,47.41,0,0,1,169.82,59,36.59,36.59,0,0,1,172,65.84c.28,1.19.41,2.4.57,3.61l.29,3.56c.33,4.75.74,9.5.61,14.25a113.65,113.65,0,0,1-1.11,14.24h-.25c-.6-4.74-.85-9.47-1.06-14.2s0-9.46-.12-14.19l-.1-3.53c-.1-1.15-.16-2.3-.37-3.44a35.42,35.42,0,0,0-1.77-6.74A46.62,46.62,0,0,0,162,47Z"/><path class="cls-3" d="M166.68,125.11a27,27,0,0,0,.68-3.43,34.34,34.34,0,0,0,.31-3.52,32.37,32.37,0,0,0-.48-7.08,32.41,32.41,0,0,1,1.08,7.08,33.44,33.44,0,0,1,0,3.61,28.41,28.41,0,0,1-.41,3.63Z"/><path class="cls-3" d="M185.1,80.15a19.56,19.56,0,0,1,1.48-9,32.92,32.92,0,0,1,2-4.09,13.58,13.58,0,0,0,1.26-3.93c.11-.66.15-1.38.21-2.14l.2-2.22c.07-.74.13-1.49.22-2.22a20.67,20.67,0,0,1,.4-2.31c.75-3,2.2-6.11,5.18-7.69l1.24-.66-.65,1.28a7.47,7.47,0,0,0-.05,6.19,11.09,11.09,0,0,0,4.29,4.74,25.39,25.39,0,0,0,5.91,2.79,58.5,58.5,0,0,0,6.35,1.81,95.71,95.71,0,0,0,13,2.29,59.85,59.85,0,0,0,6.55.32c1.09,0,2.18,0,3.25-.16a19.92,19.92,0,0,0,3.09-.51l.15,0a11.3,11.3,0,0,0,3.18-1.19A8.87,8.87,0,0,0,245,61.22a8.35,8.35,0,0,0,1.5-3.15,12.17,12.17,0,0,0,.26-3.63l.24,0a11.21,11.21,0,0,1,.28,3.8A8.54,8.54,0,0,1,246,61.93a10,10,0,0,1-2.77,2.87,11.18,11.18,0,0,1-3.65,1.73l.14,0a25.5,25.5,0,0,1-6.93,1.24,52.77,52.77,0,0,1-6.89-.12,74.57,74.57,0,0,1-13.37-2.71,34.68,34.68,0,0,1-12.38-5.8,14,14,0,0,1-4.29-5.4,9.25,9.25,0,0,1-.06-6.9l.6.63a7.3,7.3,0,0,0-2.56,3.16,13.59,13.59,0,0,0-1.1,4.06c-.11.7-.15,1.4-.21,2.13s-.11,1.49-.17,2.23l-.2,2.23c-.08.73-.14,1.49-.29,2.3A13.76,13.76,0,0,1,190.21,68c-.82,1.33-1.57,2.48-2.22,3.81a24.06,24.06,0,0,0-2.65,8.32Z"/><path class="cls-3" d="M193,123.06c-.23-3.19-.28-6.32-.24-9.48s.19-6.3.54-9.43a64.81,64.81,0,0,1,1.61-9.3,34,34,0,0,1,3.42-8.74A34.27,34.27,0,0,0,195.51,95a63.92,63.92,0,0,0-1,9.26c-.15,3.1-.09,6.21.06,9.31s.41,6.21.83,9.23Z"/><path class="cls-4" d="M118.82,135.48s-9.19,3.94-7.28,7.46,3.51,3.62,3.51,3.62-4,2.47-3.77,6.43c.21,4.31,2.41,6.93,6.1,5.94,2.66-.72,33.05-7.12,45-8.52s31.82.19,31.82.19l9.13.8c2.62.71,3.79.08,5.59-.51a6.32,6.32,0,0,0,4.4-4.63c1.16-4.33-2.71-10.67-7.34-10.26-3,.26-1.57-2.42-.2-4.34a5,5,0,0,0,.31-5.43,5.1,5.1,0,0,0-4.74-2.86C192.61,123.67,167.64,121.18,118.82,135.48Z"/><path class="cls-2" d="M166.38,172.93s-42.25,48.68-54.32,75.64S92,321.39,99.19,330.64s-12.47,23.74-12.47,23.74-11.67,11.26-2.82,23.74,27.76,0,27.76,0,3.22,10.05,17.7,8.85,28.17-5.64,28.17-6.84,14.48,9.68,26.15,9.47,49.08,4.21,68.39-5.85,14.49-4,14.49-4,28.16,5.63,30.17-4.43,5.63-.4,5.63-.4.81,4.83,19.72,3.62,14.48-10.86,14.48-10.86-6-19.32-11.67-30.58-6.83-26.15-6.83-26.15-4.43-57.54-21.73-85.7S281,191,254.49,165.66c0,.25-18.76-2.71-40.24-1.58C195.26,165.08,166.38,172.93,166.38,172.93Z"/><path class="cls-3" d="M211.86,391c-6.69,0-13-.28-18.18-.5-4.09-.18-7.62-.34-10-.29-8.4.14-17.92-5.16-23.06-8-1.13-.63-2.29-1.28-2.81-1.49-2.28,2.3-16.82,5.9-28.41,6.87-12.52,1.05-16.94-6.24-18-8.57-3.38,2-19.81,11-28-.54-9-12.74,2.77-24.4,2.89-24.51s12.69-9.42,13.8-17.57A6.88,6.88,0,0,0,98.71,331c-7.64-9.77,1-56.34,12.8-82.69,12-26.73,54-75.3,54.41-75.79l.12-.14.18,0c.29-.08,29.17-7.88,48-8.87a236.34,236.34,0,0,1,37.94,1.38l1.74.18,0-.76,1,.94c18.93,18.05,23.33,26.23,30.62,39.79,3,5.51,6.32,11.75,11.32,19.91,17.18,28,21.77,85.38,21.82,86,0,.15,1.26,14.9,6.77,25.93s11.65,30.47,11.71,30.67a6.71,6.71,0,0,1-.45,5.9c-2,3.32-6.88,5.25-14.57,5.74-18.91,1.21-20.26-3.57-20.35-4.12-.58-1.52-1.86-3.74-2.64-3.67-.17,0-1,.27-1.81,4.09-2.1,10.53-29.71,5.13-30.88,4.9l-1-.2.61-.77a1.73,1.73,0,0,0,.41-.83c-.2-.09-2-.56-14.14,5.76C241.83,389.76,226,391,211.86,391Zm-27.29-2c2.36,0,5.54.13,9.16.29,16,.69,42.85,1.86,58.06-6.07,14.08-7.32,15.14-6,15.66-5.4a1.39,1.39,0,0,1,.07,1.48c4.65.82,26.94,4.31,28.62-4.11.67-3.34,1.59-4.95,2.89-5.06,2.05-.12,3.6,3.77,3.9,4.57,0,.13,1.33,4.37,19.11,3.23,7.15-.46,11.86-2.24,13.6-5.14a5.51,5.51,0,0,0,.37-4.87c-.08-.27-6.11-19.47-11.66-30.56-5.61-11.24-6.88-26.22-6.9-26.37,0-.58-4.61-57.72-21.63-85.43-5-8.18-8.4-14.45-11.37-20-7.21-13.41-11.57-21.52-30.2-39.31-.37,0-1-.08-2.22-.21a236.44,236.44,0,0,0-37.74-1.38c-17.94.95-45.12,8.12-47.58,8.78-2.51,2.91-42.52,49.49-54.1,75.35-12.52,28-19.66,72.88-13,81.46a8.06,8.06,0,0,1,1.64,6.28c-1.19,8.65-13.69,17.92-14.23,18.32-.39.39-11.12,11-2.68,22.9s26.76,0,26.94-.16l.66-.43.25.75c.12.39,3.27,9.57,17.07,8.44s26.4-5.23,27.61-6.38v-.21l.34-.25c.51-.3,1.07,0,4,1.6,5,2.76,14.15,7.87,22.11,7.87h1.24Z"/><path class="cls-2" d="M250.36,137.37s3-13.58,13.28-20.82,8.6-2.26,14-10.56,13-22.78,15.24-22.48,6.79-24.59-3.32-26.85-30-3.63-37.11,0l-7.1,3.62a10.56,10.56,0,0,1-2.86-5.86c-.3-3.35-.61-12-22.18-13.61s-24,7.1-24,7.1,2.68,19.47,2.11,21.42c-.68,2.33-1.66,4.07-12.07,1.51s-5.58-8.6-19.61-7.85-16.14,4.08-19.92,4.08-16.29-3.32-31.68,3.32,3.47,24.59,7.7,26.55A70.83,70.83,0,0,1,150,117.31c11,13.42,17.79,32.17,17.79,32.17S208.8,136.32,250.36,137.37Z"/><path class="cls-3" d="M167.45,150.23l-.2-.55c-.06-.18-6.86-18.8-17.68-32a69.77,69.77,0,0,0-26.2-19.86l-.75-.34c-3-1.41-14.1-11.3-14-19.56.05-3.59,2.18-6.31,6.31-8.1,12.7-5.48,23.34-4.27,29.05-3.62,1.24.14,2.21.25,2.87.25a10.89,10.89,0,0,0,3.84-1c2.77-1,7-2.61,16.05-3.1,8.38-.45,10.27,1.47,12.47,3.69a13.21,13.21,0,0,0,7.32,4.17c10.29,2.53,10.8.77,11.34-1.09.39-1.33-1.1-13.69-2.13-21.17v-.13l0-.12c.1-.37,2.8-9.21,24.62-7.53C242,41.88,242.78,50.48,243.1,54.16l0,.21a9.74,9.74,0,0,0,2.4,5.16l6.68-3.41c7.66-3.91,28.18-2.14,37.52,0,7.56,1.69,7.4,14.34,6.12,21.55-.55,3.07-1.5,6.69-3,6.49-1.29,0-6.07,8.06-9.23,13.36-1.84,3.09-3.74,6.28-5.42,8.85-3.29,5-4.12,5.36-6.34,6.27a34.58,34.58,0,0,0-7.85,4.46c-9.94,7-13,20.32-13,20.45l-.11.49h-.49c-41-1-81.93,11.94-82.34,12.07Zm-32.1-83.39a49.6,49.6,0,0,0-19.93,4.1c-3.66,1.58-5.54,3.94-5.58,7-.1,7.61,10.5,17.15,13.29,18.44l.75.35a70.71,70.71,0,0,1,26.62,20.18c9.91,12.08,16.47,28.63,17.69,31.81,5-1.54,43.26-12.83,81.7-12,.65-2.54,4-14.1,13.4-20.7a36.63,36.63,0,0,1,8.09-4.59c2-.83,2.71-1.11,5.79-5.81,1.66-2.55,3.56-5.73,5.39-8.8,5.74-9.62,8.51-14,10.29-14h0c1-.8,3.27-9.93,2.06-17.52-.52-3.27-1.89-7.33-5.49-8.14-10.44-2.33-29.92-3.51-36.71-.05L245.27,61l-.31-.3a11.07,11.07,0,0,1-3-6.24l0-.21c-.3-3.37-1-11.26-21.61-12.84C200.86,39.93,197.35,47,197,48c.35,2.59,2.65,19.55,2.07,21.53-.81,2.77-2.2,4.54-12.79,1.92a14.4,14.4,0,0,1-7.89-4.49c-2.07-2.1-3.7-3.76-11.55-3.33-8.9.47-13,2-15.68,3a11.82,11.82,0,0,1-4.27,1,29.24,29.24,0,0,1-3-.26A71.37,71.37,0,0,0,135.35,66.84Z"/><path class="cls-3" d="M198.54,68.9a12.32,12.32,0,0,0,4.73-1,14.11,14.11,0,0,0,4-2.53c2.37-2.11,4-5,3.65-8.21A5.89,5.89,0,0,0,209.68,53a10.84,10.84,0,0,0-4.12-2.09l-4.68-1.51c-1.55-.55-3.11-1-4.65-1.63,1.61.31,3.21.71,4.82,1.06L205.84,50a10.86,10.86,0,0,1,4.65,2.17,5.22,5.22,0,0,1,1.34,2.37,10.51,10.51,0,0,1,.34,2.58,14.13,14.13,0,0,1-.14,2.57,9.63,9.63,0,0,1-.85,2.47,12,12,0,0,1-3.28,3.91A12.71,12.71,0,0,1,198.54,68.9Z"/><path class="cls-3" d="M178.83,66.38c2.47,3.87,4.74,7.87,6.89,11.93s4.1,8.24,5.86,12.51a78.23,78.23,0,0,1,4.5,13.13,44.58,44.58,0,0,1,1,13.86h-.25c-.82-4.54-1.86-8.92-3.09-13.27L191.85,98c-.58-2.19-1.34-4.34-2.07-6.49-1.51-4.3-3.27-8.52-5.14-12.68s-3.83-8.32-6-12.34Z"/><path class="cls-3" d="M163.26,89.14a81.56,81.56,0,0,0,9.6,11.62c1.77,1.79,3.58,3.45,5.48,5.17a33.09,33.09,0,0,1,5,6A50.82,50.82,0,0,1,187,118.8a61.59,61.59,0,0,1,2.55,7.28,47.6,47.6,0,0,1,1.93,15.17,78.14,78.14,0,0,0-3.72-14.6,63.74,63.74,0,0,0-6.44-13.38,32.87,32.87,0,0,0-4.59-5.69c-1.77-1.77-3.66-3.58-5.29-5.55A49.37,49.37,0,0,1,163.26,89.14Z"/><path class="cls-3" d="M211.17,60.88A47.41,47.41,0,0,1,218.82,73,36.59,36.59,0,0,1,221,79.84c.28,1.19.41,2.4.57,3.61l.29,3.56c.33,4.75.74,9.5.61,14.25a113.65,113.65,0,0,1-1.11,14.24h-.25c-.6-4.74-.85-9.47-1.06-14.2s0-9.46-.12-14.19l-.1-3.53c-.1-1.15-.16-2.3-.37-3.44a35.42,35.42,0,0,0-1.77-6.74A46.62,46.62,0,0,0,211,61Z"/><path class="cls-3" d="M215.68,139.11a27,27,0,0,0,.68-3.43,34.34,34.34,0,0,0,.31-3.52,32.37,32.37,0,0,0-.48-7.08,32.41,32.41,0,0,1,1.08,7.08,33.44,33.44,0,0,1,0,3.61,28.41,28.41,0,0,1-.41,3.63Z"/><path class="cls-3" d="M234.1,94.15a19.56,19.56,0,0,1,1.48-9,32.92,32.92,0,0,1,2-4.09,13.58,13.58,0,0,0,1.26-3.93c.11-.66.15-1.38.21-2.14l.2-2.22c.07-.74.13-1.49.22-2.22a20.67,20.67,0,0,1,.4-2.31c.75-3,2.2-6.11,5.18-7.69l1.24-.66-.65,1.28a7.47,7.47,0,0,0-.05,6.19,11.09,11.09,0,0,0,4.29,4.74,25.39,25.39,0,0,0,5.91,2.79,58.5,58.5,0,0,0,6.35,1.81,95.71,95.71,0,0,0,13,2.29,59.85,59.85,0,0,0,6.55.32c1.09,0,2.18,0,3.25-.16a19.92,19.92,0,0,0,3.09-.51l.15,0a11.3,11.3,0,0,0,3.18-1.19A8.87,8.87,0,0,0,294,75.22a8.35,8.35,0,0,0,1.5-3.15,12.17,12.17,0,0,0,.26-3.63l.24,0a11.21,11.21,0,0,1,.28,3.8A8.54,8.54,0,0,1,295,75.93a10,10,0,0,1-2.77,2.87,11.18,11.18,0,0,1-3.65,1.73l.14,0a25.5,25.5,0,0,1-6.93,1.24,52.77,52.77,0,0,1-6.89-.12,74.57,74.57,0,0,1-13.37-2.71,34.68,34.68,0,0,1-12.38-5.8,14,14,0,0,1-4.29-5.4,9.25,9.25,0,0,1-.06-6.9l.6.63a7.3,7.3,0,0,0-2.56,3.16,13.59,13.59,0,0,0-1.1,4.06c-.11.7-.15,1.4-.21,2.13s-.11,1.49-.17,2.23l-.2,2.23c-.08.73-.14,1.49-.29,2.3A13.76,13.76,0,0,1,239.21,82c-.82,1.33-1.57,2.48-2.22,3.81a24.06,24.06,0,0,0-2.65,8.32Z"/><path class="cls-3" d="M242,137.06c-.23-3.19-.28-6.32-.24-9.48s.19-6.3.54-9.43a64.81,64.81,0,0,1,1.61-9.3,34,34,0,0,1,3.42-8.74,34.27,34.27,0,0,0-2.84,8.87,63.92,63.92,0,0,0-1,9.26c-.15,3.1-.09,6.21.06,9.31s.41,6.21.83,9.23Z"/><path class="cls-4" d="M167.82,149.48s-9.19,3.94-7.28,7.46,3.51,3.62,3.51,3.62-4,2.47-3.77,6.43c.21,4.31,2.41,6.93,6.1,5.94,2.66-.72,33.05-7.12,45-8.52s31.82.19,31.82.19l9.13.8c2.62.71,3.79.08,5.59-.51a6.32,6.32,0,0,0,4.4-4.63c1.16-4.33-2.71-10.67-7.34-10.26-3,.26-1.57-2.42-.2-4.34a5,5,0,0,0,.31-5.43,5.1,5.1,0,0,0-4.74-2.86C241.61,137.67,216.64,135.18,167.82,149.48Z"/><path class="cls-5" d="M125.17,293.33a2.19,2.19,0,0,1-1.64-.64,2.05,2.05,0,0,1-.64-1.53V261l.64.74-6.15,3.71a2.12,2.12,0,0,1-1.06.27,2,2,0,0,1-1.53-.72,2.17,2.17,0,0,1-.64-1.46,2.1,2.1,0,0,1,1.11-1.85l8.64-5.14a2.8,2.8,0,0,1,1.59-.32,1.81,1.81,0,0,1,1.43.61,2.24,2.24,0,0,1,.53,1.51v32.8a2.05,2.05,0,0,1-.64,1.53A2.19,2.19,0,0,1,125.17,293.33Z"/><path class="cls-5" d="M148.06,293.86a11,11,0,0,1-7.34-2.49,15.32,15.32,0,0,1-4.45-6.84,32.39,32.39,0,0,1,0-19.55,15.34,15.34,0,0,1,4.45-6.78,12.06,12.06,0,0,1,14.68,0,15.12,15.12,0,0,1,4.42,6.78,33,33,0,0,1,0,19.55,15.11,15.11,0,0,1-4.42,6.84A11,11,0,0,1,148.06,293.86Zm0-4.29a6.67,6.67,0,0,0,4.74-1.81,11.27,11.27,0,0,0,2.94-5.11,31.36,31.36,0,0,0,0-15.79,11.1,11.1,0,0,0-2.94-5.08,7.2,7.2,0,0,0-9.48,0,11.31,11.31,0,0,0-3,5.08,30.77,30.77,0,0,0,0,15.79,11.48,11.48,0,0,0,3,5.11A6.65,6.65,0,0,0,148.06,289.57Z"/><path class="cls-5" d="M179.9,293.86a11,11,0,0,1-7.34-2.49,15.32,15.32,0,0,1-4.45-6.84,32.39,32.39,0,0,1,0-19.55,15.34,15.34,0,0,1,4.45-6.78,12.06,12.06,0,0,1,14.68,0,15.12,15.12,0,0,1,4.42,6.78,33,33,0,0,1,0,19.55,15.11,15.11,0,0,1-4.42,6.84A11,11,0,0,1,179.9,293.86Zm0-4.29a6.67,6.67,0,0,0,4.74-1.81,11.27,11.27,0,0,0,2.94-5.11,31.36,31.36,0,0,0,0-15.79,11.1,11.1,0,0,0-2.94-5.08,7.2,7.2,0,0,0-9.48,0,11.31,11.31,0,0,0-3,5.08,30.77,30.77,0,0,0,0,15.79,11.48,11.48,0,0,0,3,5.11A6.67,6.67,0,0,0,179.9,289.57Z"/><path class="cls-5" d="M226.31,293.86a11,11,0,0,1-7.34-2.49,15.32,15.32,0,0,1-4.45-6.84,32.39,32.39,0,0,1,0-19.55A15.34,15.34,0,0,1,219,258.2a12.06,12.06,0,0,1,14.68,0,15.12,15.12,0,0,1,4.42,6.78,33,33,0,0,1,0,19.55,15.11,15.11,0,0,1-4.42,6.84A11,11,0,0,1,226.31,293.86Zm0-4.29a6.67,6.67,0,0,0,4.74-1.81,11.27,11.27,0,0,0,2.94-5.11,31.36,31.36,0,0,0,0-15.79,11.1,11.1,0,0,0-2.94-5.08,7.2,7.2,0,0,0-9.48,0,11.31,11.31,0,0,0-3,5.08,30.77,30.77,0,0,0,0,15.79,11.48,11.48,0,0,0,3,5.11A6.67,6.67,0,0,0,226.31,289.57Z"/><path class="cls-5" d="M258.15,293.86a11,11,0,0,1-7.34-2.49,15.32,15.32,0,0,1-4.45-6.84,32.39,32.39,0,0,1,0-19.55,15.34,15.34,0,0,1,4.45-6.78,12.06,12.06,0,0,1,14.68,0,15.12,15.12,0,0,1,4.42,6.78,32.81,32.81,0,0,1,0,19.55,15.11,15.11,0,0,1-4.42,6.84A11,11,0,0,1,258.15,293.86Zm0-4.29a6.67,6.67,0,0,0,4.74-1.81,11.27,11.27,0,0,0,2.94-5.11,31.36,31.36,0,0,0,0-15.79,11.1,11.1,0,0,0-2.94-5.08,7.2,7.2,0,0,0-9.48,0,11.31,11.31,0,0,0-3,5.08,30.77,30.77,0,0,0,0,15.79,11.48,11.48,0,0,0,3,5.11A6.67,6.67,0,0,0,258.15,289.57Z"/><path class="cls-5" d="M290,293.86a11,11,0,0,1-7.34-2.49,15.32,15.32,0,0,1-4.45-6.84,32.39,32.39,0,0,1,0-19.55,15.34,15.34,0,0,1,4.45-6.78,12.06,12.06,0,0,1,14.68,0,15.12,15.12,0,0,1,4.42,6.78,32.81,32.81,0,0,1,0,19.55,15.11,15.11,0,0,1-4.42,6.84A11,11,0,0,1,290,293.86Zm0-4.29a6.67,6.67,0,0,0,4.74-1.81,11.27,11.27,0,0,0,2.94-5.11,31.36,31.36,0,0,0,0-15.79,11.1,11.1,0,0,0-2.94-5.08,7.2,7.2,0,0,0-9.48,0,11.31,11.31,0,0,0-3,5.08,30.77,30.77,0,0,0,0,15.79,11.48,11.48,0,0,0,3,5.11A6.67,6.67,0,0,0,290,289.57Z"/><path class="cls-4" d="M209.29,359.93a24.66,24.66,0,0,1-9.09-1.54,24.24,24.24,0,0,1-7.56-4.9,4.43,4.43,0,0,1-.81-1.08,2.74,2.74,0,0,1-.31-1.3,2.88,2.88,0,0,1,.8-2,2.59,2.59,0,0,1,2-.88,2.44,2.44,0,0,1,1.75.77,19.84,19.84,0,0,0,5.91,4.06,17.51,17.51,0,0,0,7.17,1.4,15.14,15.14,0,0,0,5.57-1,9.64,9.64,0,0,0,3.95-2.73,6.11,6.11,0,0,0,1.47-4.06,7.13,7.13,0,0,0-1.64-4.62,12.22,12.22,0,0,0-4.34-3,35.54,35.54,0,0,0-6.41-2.06,41,41,0,0,1-5.91-1.89,17.63,17.63,0,0,1-4.65-2.77,11.32,11.32,0,0,1-3.05-4,13,13,0,0,1-1.08-5.49,11.93,11.93,0,0,1,2.1-7,13.65,13.65,0,0,1,5.81-4.65,20.77,20.77,0,0,1,8.53-1.65,23.4,23.4,0,0,1,8.09,1.4,15.78,15.78,0,0,1,6.12,3.85,3.73,3.73,0,0,1,1.4,2.59,2.68,2.68,0,0,1-.88,1.93,2.73,2.73,0,0,1-2,.87,2,2,0,0,1-1.4-.56,12.27,12.27,0,0,0-3-2.38,17.85,17.85,0,0,0-4-1.68,15.45,15.45,0,0,0-4.34-.63,15.65,15.65,0,0,0-5.66.95,8.7,8.7,0,0,0-3.82,2.66,6.34,6.34,0,0,0-1.36,4.09A6.27,6.27,0,0,0,200.2,327a11.11,11.11,0,0,0,4.13,2.8,43.14,43.14,0,0,0,5.73,1.93,57.44,57.44,0,0,1,6.34,1.92,19.3,19.3,0,0,1,5,2.7,10.73,10.73,0,0,1,3.25,4.09,14.5,14.5,0,0,1,1.16,6.12,11.46,11.46,0,0,1-2.17,6.86,14.59,14.59,0,0,1-5.91,4.72A20.76,20.76,0,0,1,209.29,359.93Zm3.15,6.44a2.73,2.73,0,0,1-.8,2,2.8,2.8,0,0,1-2.07.81,2.6,2.6,0,0,1-2-.81,2.79,2.79,0,0,1-.77-2v-61a2.81,2.81,0,0,1,.81-2,2.82,2.82,0,0,1,4,0,2.86,2.86,0,0,1,.77,2Z"/></g></g></svg>