<svg xmlns="http://www.w3.org/2000/svg" viewBox="0 0 337.62 390.99"><defs><style>.cls-1{fill:none;}.cls-2{fill:#d3f7a4;}.cls-3{fill:#58d313;}.cls-4{fill:#25a5dd;}.cls-5{fill:#363026;}</style></defs><g id="Layer_2" data-name="Layer 2"><g id="Layer_1-2" data-name="Layer 1"><rect class="cls-1" width="337.62" height="390.99"/><path class="cls-2" d="M113.5,154.54S78.59,194.76,68.62,217,52,277.21,58,284.86s-10.3,19.61-10.3,19.61-9.64,9.31-2.33,19.62,22.94,0,22.94,0S71,332.4,82.92,331.4s23.27-4.65,23.27-5.65,12,8,21.61,7.83,40.56,3.47,56.51-4.84,12-3.32,12-3.32,23.27,4.65,24.94-3.66,4.65-.33,4.65-.33.67,4,16.29,3,12-9,12-9-5-15.95-9.64-25.26-5.65-21.61-5.65-21.61-3.66-47.54-18-70.81-12.63-28.3-34.57-49.23c0,.21-15.5-2.24-33.25-1.31C137.37,148.05,113.5,154.54,113.5,154.54Z"/><path class="cls-3" d="M151.08,334.72c-5.52,0-10.73-.22-15-.41-3.38-.15-6.3-.28-8.25-.24-6.94.12-14.81-4.26-19-6.62-.94-.52-1.9-1.05-2.33-1.23-1.88,1.9-13.89,4.88-23.47,5.68-10.35.86-14-5.16-14.91-7.08-2.79,1.67-16.36,9.06-23.11-.44-7.47-10.54,2.29-20.17,2.39-20.27s10.49-7.78,11.41-14.51a5.68,5.68,0,0,0-1.15-4.43c-6.32-8.08.83-46.57,10.58-68.34,9.89-22.08,44.61-62.22,45-62.62l.09-.11.15,0c.24-.07,24.1-6.51,39.67-7.33a194.67,194.67,0,0,1,31.35,1.14l1.43.15,0-.63.81.78c15.64,14.91,19.28,21.67,25.3,32.88,2.45,4.55,5.22,9.71,9.36,16.44,14.19,23.11,18,70.56,18,71,0,.12,1,12.31,5.6,21.42s9.63,25.19,9.68,25.34a5.61,5.61,0,0,1-.37,4.89c-1.64,2.74-5.69,4.33-12.05,4.74-15.62,1-16.73-3-16.81-3.41-.48-1.25-1.53-3.09-2.19-3-.13,0-.85.22-1.48,3.38-1.74,8.7-24.55,4.24-25.52,4.05l-.8-.16.5-.64a1.58,1.58,0,0,0,.34-.69c-.17-.08-1.65-.46-11.68,4.76C175.85,333.71,162.76,334.72,151.08,334.72Zm-22.54-1.65c1.94,0,4.57.11,7.57.24,13.24.58,35.4,1.54,48-5,11.63-6.06,12.51-5,12.94-4.47a1.18,1.18,0,0,1,.06,1.23c3.84.68,22.26,3.56,23.65-3.4.55-2.76,1.31-4.09,2.38-4.18,1.7-.1,3,3.12,3.23,3.77,0,.11,1.1,3.62,15.79,2.67,5.91-.37,9.8-1.84,11.24-4.24a4.61,4.61,0,0,0,.31-4c-.08-.22-5.05-16.08-9.64-25.25s-5.69-21.67-5.7-21.79c0-.48-3.81-47.69-17.88-70.59-4.15-6.76-6.93-11.94-9.39-16.5-6-11.08-9.56-17.78-24.95-32.48-.31,0-.85-.07-1.84-.18a196.43,196.43,0,0,0-31.19-1.14c-14.82.78-37.28,6.71-39.31,7.26-2.07,2.4-35.14,40.89-44.7,62.26-10.35,23.11-16.25,60.22-10.7,67.31a6.66,6.66,0,0,1,1.35,5.19c-1,7.15-11.32,14.81-11.76,15.14S38.78,314,45.76,323.8s22.1,0,22.25-.13l.55-.36.2.62c.11.33,2.71,7.91,14.11,7s21.82-4.31,22.82-5.27v-.17l.28-.2c.42-.25.88,0,3.27,1.32,4.11,2.28,11.7,6.5,18.27,6.5h1Z"/><path class="cls-2" d="M182.9,125.16s2.5-11.22,11-17.21,7.11-1.87,11.6-8.72,10.72-18.83,12.59-18.58,5.61-20.32-2.74-22.19-24.81-3-30.67,0l-5.86,3a8.71,8.71,0,0,1-2.37-4.84c-.25-2.76-.5-9.87-18.33-11.24s-19.82,5.86-19.82,5.86,2.22,16.09,1.75,17.7c-.57,1.93-1.38,3.37-10,1.25s-4.61-7.11-16.21-6.49-13.33,3.37-16.45,3.37S83.91,64.32,71.2,69.8s2.87,20.32,6.36,22A58.49,58.49,0,0,1,100,108.58c9.1,11.09,14.7,26.58,14.7,26.58S148.56,124.28,182.9,125.16Z"/><path class="cls-3" d="M114.39,135.78l-.16-.45c-.06-.16-5.68-15.54-14.62-26.44A57.65,57.65,0,0,0,78,92.48l-.62-.28C74.84,91,65.69,82.86,65.79,76c0-3,1.79-5.22,5.21-6.69,10.5-4.53,19.28-3.53,24-3,1,.12,1.83.21,2.38.21a9.06,9.06,0,0,0,3.17-.8c2.29-.86,5.75-2.16,13.26-2.56,6.92-.37,8.49,1.21,10.31,3a10.9,10.9,0,0,0,6,3.44c8.5,2.1,8.92.64,9.38-.9.32-1.1-.91-11.31-1.76-17.49l0-.11,0-.09c.09-.32,2.31-7.62,20.34-6.23,17.88,1.38,18.5,8.49,18.77,11.52l0,.18a8,8,0,0,0,2,4.26L184.42,58c6.33-3.23,23.29-1.77,31,0,6.25,1.4,6.12,11.86,5.06,17.81-.45,2.54-1.24,5.53-2.49,5.36-1.06,0-5,6.66-7.62,11-1.52,2.55-3.1,5.19-4.49,7.31-2.71,4.14-3.4,4.42-5.24,5.18a29.08,29.08,0,0,0-6.48,3.68c-8.22,5.8-10.75,16.79-10.77,16.9l-.09.41h-.41c-33.87-.86-67.7,9.86-68,10ZM87.86,66.87A41,41,0,0,0,71.4,70.26c-3,1.31-4.58,3.25-4.62,5.79-.08,6.3,8.68,14.17,11,15.24l.61.29a58.34,58.34,0,0,1,22,16.68c8.19,10,13.62,23.65,14.62,26.28,4.14-1.27,35.75-10.6,67.51-9.89.54-2.1,3.34-11.65,11.07-17.11a30.1,30.1,0,0,1,6.69-3.79c1.67-.68,2.24-.91,4.78-4.8,1.38-2.1,2.94-4.73,4.46-7.27,4.74-8,7-11.53,8.5-11.53h0c.84-.66,2.7-8.21,1.71-14.48-.43-2.7-1.57-6.06-4.54-6.73-8.63-1.93-24.73-2.9-30.34,0l-6.18,3.16-.25-.25a9.17,9.17,0,0,1-2.52-5.15v-.18c-.25-2.78-.82-9.3-17.86-10.61-16.05-1.24-19,4.63-19.27,5.41.29,2.14,2.19,16.16,1.71,17.79-.67,2.29-1.82,3.75-10.57,1.59A11.92,11.92,0,0,1,123.41,67c-1.72-1.74-3.07-3.11-9.55-2.76-7.35.4-10.73,1.66-13,2.5a9.67,9.67,0,0,1-3.52.87c-.6,0-1.44-.1-2.49-.22A60.52,60.52,0,0,0,87.86,66.87Z"/><path class="cls-3" d="M140.08,68.58a10.11,10.11,0,0,0,3.9-.85,11.33,11.33,0,0,0,3.34-2.09,8.07,8.07,0,0,0,3-6.78,4.94,4.94,0,0,0-1.07-3.45,9.1,9.1,0,0,0-3.4-1.73L142,52.44c-1.27-.45-2.56-.87-3.84-1.35,1.33.26,2.65.59,4,.88l4,1A8.92,8.92,0,0,1,150,54.74a4.29,4.29,0,0,1,1.11,2,8.78,8.78,0,0,1,.28,2.13,11.92,11.92,0,0,1-.12,2.13,7.25,7.25,0,0,1-.7,2,9.86,9.86,0,0,1-2.71,3.23A10.49,10.49,0,0,1,140.08,68.58Z"/><path class="cls-3" d="M123.79,66.49c2,3.2,3.91,6.5,5.7,9.86s3.38,6.81,4.84,10.34a64.31,64.31,0,0,1,3.72,10.85,37.07,37.07,0,0,1,.82,11.45h-.2c-.69-3.75-1.54-7.37-2.56-11l-1.56-5.39c-.48-1.81-1.1-3.59-1.71-5.37-1.25-3.55-2.7-7-4.25-10.47s-3.16-6.87-5-10.2Z"/><path class="cls-3" d="M110.93,85.3a68.09,68.09,0,0,0,7.93,9.61c1.47,1.47,3,2.84,4.52,4.26a27.77,27.77,0,0,1,4.17,5,42.88,42.88,0,0,1,3,5.67,51.59,51.59,0,0,1,2.11,6,39.83,39.83,0,0,1,1.59,12.54,65,65,0,0,0-3.08-12.07,52.13,52.13,0,0,0-5.32-11.05,26.54,26.54,0,0,0-3.79-4.7c-1.46-1.47-3-3-4.37-4.59A40.58,40.58,0,0,1,110.93,85.3Z"/><path class="cls-3" d="M150.51,62a39.13,39.13,0,0,1,6.33,10,30.25,30.25,0,0,1,1.81,5.7,29.79,29.79,0,0,1,.47,3l.24,2.94c.27,3.93.61,7.85.5,11.78a93,93,0,0,1-.92,11.76h-.2c-.5-3.92-.71-7.83-.88-11.74s0-7.82-.09-11.72l-.09-2.92a27.09,27.09,0,0,0-.31-2.84,28.57,28.57,0,0,0-1.46-5.57,38.51,38.51,0,0,0-5.55-10.21Z"/><path class="cls-3" d="M154.24,126.59a21.47,21.47,0,0,0,.56-2.83,25.57,25.57,0,0,0,.26-2.91,26.11,26.11,0,0,0-.4-5.85,26.79,26.79,0,0,1,.9,5.85,29.62,29.62,0,0,1,0,3,24,24,0,0,1-.34,3Z"/><path class="cls-3" d="M169.46,89.44a16.26,16.26,0,0,1,1.22-7.4,27.67,27.67,0,0,1,1.63-3.37,11,11,0,0,0,1-3.25c.1-.55.13-1.15.18-1.77l.16-1.84c.06-.61.11-1.22.19-1.83a16.2,16.2,0,0,1,.32-1.91c.63-2.48,1.83-5,4.29-6.35l1-.54-.53,1a6.14,6.14,0,0,0,0,5.12,9.17,9.17,0,0,0,3.55,3.91,21,21,0,0,0,4.88,2.31,50.24,50.24,0,0,0,5.25,1.49A78.09,78.09,0,0,0,203.38,77a49.3,49.3,0,0,0,5.42.27,26.42,26.42,0,0,0,2.68-.14,15.2,15.2,0,0,0,2.56-.42l.12,0a9.52,9.52,0,0,0,2.62-1,7.22,7.22,0,0,0,2.16-1.84,7,7,0,0,0,1.24-2.6,10.33,10.33,0,0,0,.22-3l.19,0a9.16,9.16,0,0,1,.24,3.14,7.15,7.15,0,0,1-1,3.07,8.51,8.51,0,0,1-2.29,2.38,9.45,9.45,0,0,1-3,1.43l.12,0a20.86,20.86,0,0,1-5.73,1,43.17,43.17,0,0,1-5.69-.1,61.5,61.5,0,0,1-11.05-2.24,28.72,28.72,0,0,1-10.23-4.79,11.55,11.55,0,0,1-3.55-4.46,7.59,7.59,0,0,1,0-5.7l.49.51A6.05,6.05,0,0,0,176.68,65a11.32,11.32,0,0,0-.91,3.35c-.08.58-.12,1.16-.16,1.76s-.1,1.23-.15,1.84l-.16,1.85c-.07.6-.12,1.23-.24,1.9a11.42,11.42,0,0,1-1.38,3.7c-.68,1.1-1.29,2-1.83,3.14a19.8,19.8,0,0,0-2.19,6.88Z"/><path class="cls-3" d="M176,124.9c-.19-2.64-.23-5.23-.2-7.84s.16-5.2.45-7.79a52.46,52.46,0,0,1,1.32-7.68,28.69,28.69,0,0,1,2.83-7.23,28.1,28.1,0,0,0-2.34,7.33,53.09,53.09,0,0,0-.82,7.65c-.12,2.57-.07,5.14.05,7.7s.35,5.13.69,7.63Z"/><path class="cls-4" d="M114.7,135.16s-7.6,3.25-6,6.16,2.9,3,2.9,3-3.27,2.05-3.11,5.32c.17,3.56,2,5.73,5,4.91,2.21-.6,27.31-5.89,37.2-7s26.29.16,26.29.16l7.55.65c2.16.6,3.13.07,4.61-.42a5.2,5.2,0,0,0,3.64-3.83c1-3.57-2.24-8.81-6.07-8.47-2.46.21-1.3-2-.16-3.59a4.38,4.38,0,0,0-3.66-6.84C175.67,125.4,155,123.34,114.7,135.16Z"/><path class="cls-2" d="M154,166.11s-34.91,40.22-44.88,62.5-16.62,60.17-10.64,67.82S88.17,316,88.17,316s-9.64,9.31-2.33,19.62,22.94,0,22.94,0,2.66,8.31,14.63,7.31,23.27-4.65,23.27-5.65,12,8,21.61,7.82,40.56,3.48,56.51-4.83,12-3.32,12-3.32,23.27,4.65,24.94-3.66,4.65-.33,4.65-.33.67,4,16.29,3,12-9,12-9-5-16-9.64-25.26-5.65-21.61-5.65-21.61-3.66-47.54-18-70.82S248.74,181,226.8,160.1c0,.21-15.5-2.24-33.25-1.31C177.86,159.62,154,166.11,154,166.11Z"/><path class="cls-3" d="M191.57,346.29c-5.52,0-10.73-.23-15-.41-3.38-.15-6.3-.28-8.25-.24-6.94.12-14.81-4.26-19.06-6.62-.93-.52-1.89-1.06-2.32-1.23-1.88,1.9-13.89,4.88-23.47,5.68-10.35.86-14-5.16-14.91-7.08-2.79,1.67-16.36,9.06-23.11-.45-7.47-10.53,2.29-20.16,2.39-20.26s10.48-7.78,11.41-14.51a5.7,5.7,0,0,0-1.15-4.44c-6.32-8.07.83-46.56,10.58-68.33,9.89-22.08,44.61-62.22,45-62.62l.09-.12.15,0c.24-.06,24.1-6.51,39.67-7.33a195.53,195.53,0,0,1,31.35,1.15l1.43.15,0-.63.81.78c15.64,14.91,19.28,21.67,25.3,32.87,2.45,4.56,5.22,9.72,9.36,16.45,14.19,23.11,18,70.56,18,71,0,.12,1.05,12.31,5.6,21.42s9.62,25.18,9.68,25.34a5.61,5.61,0,0,1-.37,4.89c-1.64,2.74-5.69,4.33-12.05,4.74-15.62,1-16.73-3-16.81-3.41-.48-1.25-1.53-3.09-2.19-3-.13,0-.85.22-1.48,3.38-1.74,8.7-24.55,4.24-25.52,4l-.8-.15.5-.64a1.58,1.58,0,0,0,.34-.69c-.17-.08-1.65-.47-11.68,4.76C216.34,345.28,203.25,346.29,191.57,346.29ZM169,344.64c1.94,0,4.57.11,7.57.24,13.24.57,35.4,1.54,48-5,11.63-6.06,12.51-5,12.94-4.47a1.18,1.18,0,0,1,.06,1.23c3.84.68,22.26,3.55,23.65-3.4.55-2.76,1.31-4.09,2.38-4.18,1.7-.1,3,3.12,3.23,3.77,0,.11,1.1,3.62,15.79,2.67,5.91-.38,9.8-1.84,11.24-4.24a4.61,4.61,0,0,0,.31-4c-.08-.22-5.05-16.09-9.64-25.25s-5.69-21.67-5.7-21.79c0-.48-3.81-47.69-17.88-70.59-4.15-6.76-6.94-11.94-9.39-16.5-6-11.08-9.56-17.78-24.95-32.48-.31,0-.85-.08-1.84-.18a194,194,0,0,0-31.19-1.14c-14.82.78-37.28,6.71-39.31,7.26-2.07,2.4-35.14,40.89-44.7,62.26C99.22,251.92,93.32,289,98.86,296.12a6.63,6.63,0,0,1,1.36,5.19c-1,7.15-11.32,14.81-11.76,15.13s-9.19,9.1-2.21,18.93,22.1,0,22.25-.13l.55-.36.2.62c.11.33,2.71,7.91,14.11,7s21.82-4.32,22.82-5.27V337l.28-.2c.42-.25.88,0,3.27,1.32,4.11,2.28,11.7,6.5,18.27,6.5h1Z"/><path class="cls-2" d="M223.39,136.72s2.49-11.22,11-17.2,7.11-1.87,11.6-8.73S256.68,92,258.55,92.22,264.16,71.9,255.81,70,231,67,225.14,70l-5.86,3a8.71,8.71,0,0,1-2.37-4.84c-.25-2.77-.5-9.87-18.33-11.24s-19.82,5.86-19.82,5.86,2.22,16.09,1.75,17.7c-.57,1.93-1.38,3.37-10,1.25s-4.61-7.11-16.21-6.49S141,78.63,137.87,78.63s-13.47-2.74-26.18,2.74,2.86,20.32,6.36,21.94a58.6,58.6,0,0,1,22.44,16.83c9.1,11.1,14.7,26.59,14.7,26.59S189,135.85,223.39,136.72Z"/><path class="cls-3" d="M154.88,147.35l-.16-.45c-.06-.16-5.68-15.54-14.62-26.44a57.65,57.65,0,0,0-21.64-16.41l-.62-.28c-2.51-1.17-11.66-9.34-11.56-16.16,0-3,1.79-5.22,5.21-6.7,10.5-4.52,19.28-3.52,24-3a23.79,23.79,0,0,0,2.38.21,9.06,9.06,0,0,0,3.17-.8c2.29-.86,5.75-2.16,13.26-2.57,6.92-.37,8.49,1.22,10.31,3.06a10.9,10.9,0,0,0,6,3.44c8.5,2.09,8.92.64,9.38-.9.32-1.1-.91-11.32-1.76-17.5l0-.1,0-.1c.08-.31,2.31-7.61,20.34-6.22,17.88,1.38,18.5,8.48,18.77,11.52v.17a8.06,8.06,0,0,0,2,4.27l5.52-2.82c6.33-3.23,23.29-1.77,31,0,6.25,1.4,6.12,11.85,5.06,17.81-.45,2.54-1.24,5.53-2.49,5.36-1.06,0-5,6.66-7.62,11.05-1.53,2.55-3.1,5.18-4.49,7.31-2.71,4.14-3.4,4.42-5.24,5.18a29.08,29.08,0,0,0-6.48,3.68c-8.22,5.8-10.75,16.79-10.77,16.9l-.09.4h-.41c-33.87-.85-67.7,9.87-68,10ZM128.35,78.44a41.07,41.07,0,0,0-16.47,3.39c-3,1.3-4.57,3.25-4.61,5.79-.08,6.29,8.68,14.17,11,15.24l.61.29a58.34,58.34,0,0,1,22,16.68c8.19,10,13.61,23.65,14.62,26.28,4.14-1.27,35.75-10.6,67.51-9.89.54-2.1,3.34-11.65,11.07-17.11a30.1,30.1,0,0,1,6.69-3.79c1.67-.68,2.24-.91,4.78-4.8,1.38-2.1,2.94-4.73,4.46-7.27,4.74-8,7-11.53,8.5-11.53h0c.84-.67,2.7-8.21,1.71-14.48-.43-2.7-1.57-6.06-4.54-6.73-8.63-1.93-24.73-2.9-30.34,0l-6.18,3.16-.25-.25a9.17,9.17,0,0,1-2.52-5.16v-.17c-.25-2.79-.82-9.31-17.86-10.62-16-1.23-19,4.64-19.27,5.42C179.56,65,181.46,79,181,80.64c-.67,2.29-1.82,3.75-10.57,1.59a11.92,11.92,0,0,1-6.51-3.71c-1.72-1.74-3.07-3.11-9.55-2.76-7.35.4-10.73,1.66-13,2.5a9.88,9.88,0,0,1-3.52.87c-.61,0-1.44-.1-2.49-.22A60.52,60.52,0,0,0,128.35,78.44Z"/><path class="cls-3" d="M180.57,80.15a10.11,10.11,0,0,0,3.9-.85,11.33,11.33,0,0,0,3.34-2.09,8,8,0,0,0,3-6.78A4.87,4.87,0,0,0,189.77,67a9,9,0,0,0-3.4-1.73L182.5,64c-1.27-.45-2.56-.87-3.84-1.35,1.33.26,2.65.58,4,.88l4,1a8.92,8.92,0,0,1,3.84,1.79,4.29,4.29,0,0,1,1.11,2,8.78,8.78,0,0,1,.28,2.13,11.81,11.81,0,0,1-.12,2.12,7.31,7.31,0,0,1-.7,2,9.86,9.86,0,0,1-2.71,3.23A10.49,10.49,0,0,1,180.57,80.15Z"/><path class="cls-3" d="M164.28,78.06c2,3.2,3.91,6.5,5.7,9.86s3.38,6.81,4.84,10.34a64.51,64.51,0,0,1,3.72,10.84,37.14,37.14,0,0,1,.82,11.46h-.2c-.69-3.76-1.54-7.37-2.56-11L175,104.2c-.48-1.81-1.1-3.59-1.71-5.37-1.25-3.55-2.7-7-4.25-10.47s-3.17-6.87-5-10.2Z"/><path class="cls-3" d="M151.42,96.87a68,68,0,0,0,7.93,9.6c1.47,1.48,3,2.85,4.52,4.27a27.77,27.77,0,0,1,4.17,5,42.88,42.88,0,0,1,3,5.67,51.59,51.59,0,0,1,2.11,6,39.8,39.8,0,0,1,1.59,12.53,64.85,64.85,0,0,0-3.08-12.06,51.9,51.9,0,0,0-5.32-11,26.63,26.63,0,0,0-3.79-4.7c-1.46-1.47-3-3-4.37-4.59A40.58,40.58,0,0,1,151.42,96.87Z"/><path class="cls-3" d="M191,73.52a38.83,38.83,0,0,1,6.32,10,29.52,29.52,0,0,1,2.29,8.68l.24,2.94c.27,3.93.61,7.85.5,11.78a93,93,0,0,1-.92,11.76h-.2c-.5-3.93-.71-7.84-.88-11.74s0-7.82-.09-11.72l-.09-2.92a27.58,27.58,0,0,0-.31-2.85,28.47,28.47,0,0,0-1.46-5.56,38.51,38.51,0,0,0-5.55-10.21Z"/><path class="cls-3" d="M194.73,138.16a21.47,21.47,0,0,0,.56-2.83,25.78,25.78,0,0,0,.26-2.91,26.24,26.24,0,0,0-.4-5.86,26.88,26.88,0,0,1,.9,5.86,29.62,29.62,0,0,1,0,3,24,24,0,0,1-.34,3Z"/><path class="cls-3" d="M210,101a16.26,16.26,0,0,1,1.22-7.4,27.67,27.67,0,0,1,1.63-3.37,11.12,11.12,0,0,0,1-3.25c.1-.55.13-1.15.18-1.77l.16-1.84c.06-.61.11-1.22.19-1.83a15.86,15.86,0,0,1,.32-1.91c.62-2.48,1.83-5,4.29-6.36l1-.54-.53,1.06a6.12,6.12,0,0,0-.05,5.11A9.14,9.14,0,0,0,223,82.83a21.41,21.41,0,0,0,4.88,2.31,50.24,50.24,0,0,0,5.25,1.49,78.09,78.09,0,0,0,10.77,1.89,49.3,49.3,0,0,0,5.42.27,26.42,26.42,0,0,0,2.68-.14,15.2,15.2,0,0,0,2.56-.42l.12,0a9.52,9.52,0,0,0,2.62-1,7.22,7.22,0,0,0,2.16-1.84,7,7,0,0,0,1.24-2.6,10.33,10.33,0,0,0,.22-3l.19,0a9.42,9.42,0,0,1,.24,3.14,7.15,7.15,0,0,1-1,3.07A8.51,8.51,0,0,1,258,88.33a9.45,9.45,0,0,1-3,1.43l.12,0a21.24,21.24,0,0,1-5.73,1,43.17,43.17,0,0,1-5.69-.1,61.5,61.5,0,0,1-11-2.24,28.72,28.72,0,0,1-10.23-4.79,11.55,11.55,0,0,1-3.55-4.46,7.59,7.59,0,0,1,0-5.7l.49.51a6.05,6.05,0,0,0-2.12,2.62,11.32,11.32,0,0,0-.91,3.35c-.08.58-.12,1.15-.16,1.75s-.1,1.24-.15,1.85l-.16,1.84c-.07.6-.12,1.24-.24,1.9A11.38,11.38,0,0,1,214.17,91c-.68,1.09-1.29,2.05-1.83,3.14a19.8,19.8,0,0,0-2.19,6.88Z"/><path class="cls-3" d="M216.5,136.47c-.19-2.64-.23-5.23-.2-7.84s.16-5.2.45-7.79a52.59,52.59,0,0,1,1.32-7.69,28.62,28.62,0,0,1,2.83-7.22,28.1,28.1,0,0,0-2.34,7.33,53.09,53.09,0,0,0-.82,7.65c-.12,2.56-.07,5.13,0,7.69s.35,5.14.69,7.64Z"/><path class="cls-4" d="M155.19,146.73s-7.6,3.25-6,6.16,2.9,3,2.9,3-3.27,2.05-3.11,5.32c.17,3.56,2,5.72,5,4.91,2.21-.6,27.31-5.89,37.2-7.05s26.29.16,26.29.16l7.55.66c2.16.6,3.12.07,4.61-.42a5.2,5.2,0,0,0,3.64-3.83c1-3.57-2.24-8.81-6.07-8.47-2.46.21-1.3-2-.16-3.59a4.18,4.18,0,0,0,.26-4.49,4.23,4.23,0,0,0-3.92-2.36C216.16,137,195.53,134.91,155.19,146.73Z"/><path class="cls-5" d="M146.34,265.59a1.83,1.83,0,0,1-1.36-.52,1.72,1.72,0,0,1-.52-1.27V238.89l.52.61-5.08,3.07a1.81,1.81,0,0,1-.87.22,1.62,1.62,0,0,1-1.27-.6,1.8,1.8,0,0,1-.53-1.2,1.74,1.74,0,0,1,.92-1.53l7.14-4.25a2.34,2.34,0,0,1,1.31-.26,1.49,1.49,0,0,1,1.18.5,1.85,1.85,0,0,1,.44,1.25v27.1a1.72,1.72,0,0,1-.52,1.27A1.85,1.85,0,0,1,146.34,265.59Z"/><path class="cls-5" d="M177.29,266a9,9,0,0,1-6.06-2.06,12.6,12.6,0,0,1-3.68-5.64,26.74,26.74,0,0,1,0-16.16,12.64,12.64,0,0,1,3.68-5.6,9.94,9.94,0,0,1,12.12,0,12.52,12.52,0,0,1,3.66,5.6,27.37,27.37,0,0,1,0,16.16,12.49,12.49,0,0,1-3.66,5.64A9,9,0,0,1,177.29,266Zm0-3.54a5.55,5.55,0,0,0,3.92-1.49,9.42,9.42,0,0,0,2.43-4.23,26,26,0,0,0,0-13,9.29,9.29,0,0,0-2.43-4.21,6,6,0,0,0-7.84,0,9.4,9.4,0,0,0-2.45,4.21,25.43,25.43,0,0,0,0,13,9.53,9.53,0,0,0,2.45,4.23A5.55,5.55,0,0,0,177.29,262.49Z"/><path class="cls-5" d="M203.6,266a9,9,0,0,1-6.06-2.06,12.6,12.6,0,0,1-3.68-5.64,26.74,26.74,0,0,1,0-16.16,12.64,12.64,0,0,1,3.68-5.6,9.94,9.94,0,0,1,12.12,0,12.52,12.52,0,0,1,3.66,5.6,27.15,27.15,0,0,1,0,16.16,12.49,12.49,0,0,1-3.66,5.64A9,9,0,0,1,203.6,266Zm0-3.54a5.55,5.55,0,0,0,3.92-1.49,9.42,9.42,0,0,0,2.43-4.23,26,26,0,0,0,0-13,9.29,9.29,0,0,0-2.43-4.21,6,6,0,0,0-7.84,0,9.4,9.4,0,0,0-2.45,4.21,25.43,25.43,0,0,0,0,13,9.53,9.53,0,0,0,2.45,4.23A5.55,5.55,0,0,0,203.6,262.49Z"/><path class="cls-5" d="M229.91,266a9,9,0,0,1-6.06-2.06,12.6,12.6,0,0,1-3.68-5.64,26.74,26.74,0,0,1,0-16.16,12.64,12.64,0,0,1,3.68-5.6,10,10,0,0,1,12.13,0,12.59,12.59,0,0,1,3.65,5.6,27.15,27.15,0,0,1,0,16.16A12.56,12.56,0,0,1,236,264,9,9,0,0,1,229.91,266Zm0-3.54a5.55,5.55,0,0,0,3.92-1.49,9.33,9.33,0,0,0,2.43-4.23,26,26,0,0,0,0-13,9.2,9.2,0,0,0-2.43-4.21,6,6,0,0,0-7.84,0,9.4,9.4,0,0,0-2.45,4.21,25.43,25.43,0,0,0,0,13A9.53,9.53,0,0,0,226,261,5.55,5.55,0,0,0,229.91,262.49Z"/><path class="cls-4" d="M189.45,320.63a20.62,20.62,0,0,1-7.51-1.27,20.22,20.22,0,0,1-6.25-4.05,3.6,3.6,0,0,1-.66-.9,2.15,2.15,0,0,1-.26-1.07,2.41,2.41,0,0,1,.66-1.65,2.15,2.15,0,0,1,1.65-.72,2,2,0,0,1,1.45.64,16.57,16.57,0,0,0,4.88,3.35,14.63,14.63,0,0,0,5.93,1.16,12.48,12.48,0,0,0,4.6-.81,8,8,0,0,0,3.26-2.26,5,5,0,0,0,1.22-3.35,5.94,5.94,0,0,0-1.36-3.82,10,10,0,0,0-3.59-2.51,28.6,28.6,0,0,0-5.29-1.71,31.4,31.4,0,0,1-4.88-1.56,14.9,14.9,0,0,1-3.85-2.28,9.36,9.36,0,0,1-2.51-3.3A10.66,10.66,0,0,1,176,290a9.89,9.89,0,0,1,1.73-5.78,11.32,11.32,0,0,1,4.8-3.85,17.4,17.4,0,0,1,7.06-1.35,19.26,19.26,0,0,1,6.68,1.15,13,13,0,0,1,5.06,3.18,3.07,3.07,0,0,1,1.15,2.14,2.21,2.21,0,0,1-.72,1.59,2.27,2.27,0,0,1-1.65.72,1.67,1.67,0,0,1-1.15-.46,10,10,0,0,0-2.49-2,14.35,14.35,0,0,0-3.3-1.39,12.66,12.66,0,0,0-3.58-.52,13,13,0,0,0-4.69.78,7.18,7.18,0,0,0-3.15,2.2,5.25,5.25,0,0,0-1.12,3.38,5.18,5.18,0,0,0,1.27,3.61,9.22,9.22,0,0,0,3.41,2.32,39.22,39.22,0,0,0,4.74,1.59,45.62,45.62,0,0,1,5.23,1.59,15.93,15.93,0,0,1,4.14,2.22,9.12,9.12,0,0,1,2.69,3.38,12.09,12.09,0,0,1,.95,5.06,9.49,9.49,0,0,1-1.79,5.67,12.06,12.06,0,0,1-4.89,3.9A17.09,17.09,0,0,1,189.45,320.63Zm2.61,5.32a2.28,2.28,0,0,1-.67,1.65,2.31,2.31,0,0,1-1.7.66,2.14,2.14,0,0,1-1.62-.66,2.29,2.29,0,0,1-.64-1.65V275.53a2.34,2.34,0,0,1,.66-1.68,2.23,2.23,0,0,1,1.65-.7,2.17,2.17,0,0,1,1.68.7,2.41,2.41,0,0,1,.64,1.68Z"/></g></g></svg>