<svg xmlns="http://www.w3.org/2000/svg" viewBox="0 0 337.62 390.99"><defs><style>.cls-1{fill:none;}.cls-2{fill:#d3f7a4;}.cls-3{fill:#58d313;}.cls-4{fill:#25a5dd;}.cls-5{fill:#363026;}</style></defs><g id="Layer_2" data-name="Layer 2"><g id="Layer_1-2" data-name="Layer 1"><rect class="cls-1" width="337.62" height="390.99"/><path class="cls-2" d="M88.1,134.77S58.93,168.38,50.6,187s-13.89,50.28-8.89,56.67-8.61,16.39-8.61,16.39-8.06,7.78-1.94,16.39,19.16,0,19.16,0,2.22,6.94,12.22,6.11S82,278.66,82,277.83s10,6.68,18.05,6.53,33.89,2.91,47.22-4,10-2.78,10-2.78,19.45,3.89,20.84-3.06,3.89-.27,3.89-.27.55,3.33,13.61,2.5,10-7.5,10-7.5-4.17-13.34-8.06-21.12-4.72-18-4.72-18-3.06-39.72-15-59.17-10.56-23.64-28.89-41.12c0,.17-13-1.88-27.78-1.1C108,129.35,88.1,134.77,88.1,134.77Z"/><path class="cls-3" d="M119.5,285.32c-4.62,0-9-.19-12.55-.34-2.82-.12-5.27-.23-6.9-.2-5.8.1-12.37-3.56-15.92-5.53-.78-.44-1.58-.88-1.94-1-1.57,1.59-11.61,4.08-19.61,4.74-8.65.73-11.7-4.3-12.45-5.91-2.34,1.39-13.68,7.57-19.31-.37-6.25-8.8,1.91-16.85,2-16.93s8.76-6.5,9.53-12.13a4.74,4.74,0,0,0-1-3.7c-5.28-6.75.69-38.91,8.84-57.1,8.26-18.45,37.27-52,37.56-52.32l.09-.1.12,0c.2-.05,20.14-5.44,33.14-6.12a164.15,164.15,0,0,1,26.2.95l1.19.13,0-.53.68.65c13.06,12.46,16.1,18.11,21.13,27.47,2.05,3.81,4.37,8.12,7.82,13.75,11.86,19.3,15,59,15.07,59.35,0,.1.87,10.28,4.67,17.9s8,21,8.09,21.17a4.7,4.7,0,0,1-.31,4.08c-1.37,2.29-4.76,3.62-10.07,4-13.05.84-14-2.47-14-2.85-.41-1-1.29-2.57-1.83-2.53-.12,0-.72.19-1.24,2.82-1.46,7.27-20.52,3.55-21.33,3.39l-.67-.14.43-.53a1.38,1.38,0,0,0,.28-.57c-.14-.07-1.38-.39-9.76,4C140.19,284.48,129.26,285.32,119.5,285.32Zm-18.84-1.38c1.63,0,3.83.1,6.32.21,11.07.47,29.59,1.28,40.09-4.19,9.72-5.06,10.45-4.17,10.81-3.74a1,1,0,0,1,.05,1c3.21.57,18.6,3,19.76-2.84.46-2.31,1.09-3.42,2-3.49,1.42-.09,2.49,2.6,2.7,3.15,0,.09.92,3,13.19,2.23,4.94-.32,8.19-1.54,9.39-3.55a3.83,3.83,0,0,0,.26-3.36c-.06-.18-4.22-13.44-8.05-21.1s-4.76-18.1-4.77-18.21c0-.4-3.18-39.84-14.93-59-3.47-5.65-5.8-10-7.85-13.78-5-9.26-8-14.86-20.85-27.14-.26,0-.7-.06-1.53-.15a162.53,162.53,0,0,0-26.06-.95c-12.39.65-31.15,5.61-32.85,6.06-1.73,2-29.36,34.17-37.35,52C42.33,206.47,37.4,237.48,42,243.4a5.61,5.61,0,0,1,1.13,4.34c-.82,6-9.46,12.38-9.82,12.65S25.67,268,31.5,276.2s18.47,0,18.59-.11l.46-.3.17.52c.09.27,2.26,6.61,11.79,5.82s18.22-3.6,19.06-4.4v-.14l.23-.18c.36-.2.74,0,2.74,1.11C88,280.42,94.31,284,99.8,284h.86Z"/><path class="cls-2" d="M146.08,110.22s2.09-9.37,9.17-14.37,5.94-1.56,9.69-7.29,9-15.73,10.52-15.52,4.69-17-2.29-18.54-20.73-2.5-25.63,0L142.65,57a7.34,7.34,0,0,1-2-4c-.21-2.31-.42-8.25-15.31-9.39s-16.57,4.89-16.57,4.89,1.86,13.45,1.46,14.8c-.47,1.61-1.14,2.81-8.33,1s-3.86-5.94-13.54-5.42-11.15,2.81-13.75,2.81S63.38,59.39,52.75,64s2.4,17,5.31,18.33A48.81,48.81,0,0,1,76.81,96.37c7.61,9.27,12.29,22.21,12.29,22.21S117.39,109.5,146.08,110.22Z"/><path class="cls-3" d="M88.84,119.1l-.14-.38c0-.13-4.74-13-12.21-22.09a48.14,48.14,0,0,0-18.08-13.7l-.52-.24c-2.1-1-9.74-7.81-9.66-13.5,0-2.48,1.5-4.37,4.36-5.6a37.16,37.16,0,0,1,20-2.5c.86.1,1.53.18,2,.18a7.48,7.48,0,0,0,2.65-.67,32.71,32.71,0,0,1,11.07-2.15c5.79-.3,7.1,1,8.62,2.56a9.1,9.1,0,0,0,5,2.87c7.1,1.75,7.45.54,7.83-.75.27-.92-.76-9.45-1.47-14.62v-.08l0-.09c.07-.26,1.93-6.36,17-5.2s15.46,7.09,15.68,9.63v.15a6.69,6.69,0,0,0,1.66,3.56l4.61-2.35c5.29-2.71,19.46-1.48,25.91,0,5.22,1.17,5.11,9.9,4.22,14.88-.38,2.12-1,4.62-2.08,4.48-.89,0-4.19,5.57-6.37,9.23-1.27,2.13-2.58,4.33-3.74,6.11-2.27,3.46-2.84,3.69-4.38,4.32a24.58,24.58,0,0,0-5.42,3.08c-6.86,4.85-9,14-9,14.12l-.07.34h-.35c-28.29-.71-56.56,8.25-56.85,8.34ZM66.67,61.52a34.17,34.17,0,0,0-13.75,2.84c-2.53,1.09-3.83,2.72-3.86,4.84C49,74.45,56.32,81,58.24,81.93l.52.24A48.9,48.9,0,0,1,77.14,96.11c6.84,8.34,11.37,19.76,12.21,22,3.46-1.07,29.87-8.86,56.41-8.27.45-1.75,2.79-9.73,9.25-14.29a25.28,25.28,0,0,1,5.58-3.17c1.4-.57,1.87-.76,4-4,1.15-1.76,2.46-4,3.72-6.08,4-6.64,5.88-9.63,7.11-9.63h0c.71-.55,2.26-6.86,1.43-12.1-.36-2.26-1.31-5.06-3.79-5.62-7.21-1.61-20.66-2.43-25.35,0l-5.16,2.63-.22-.21a7.65,7.65,0,0,1-2.1-4.3v-.15c-.2-2.32-.68-7.77-14.92-8.87-13.41-1-15.84,3.88-16.1,4.53.24,1.79,1.83,13.5,1.43,14.86-.56,1.92-1.52,3.14-8.83,1.33a9.94,9.94,0,0,1-5.45-3.1c-1.43-1.45-2.56-2.6-8-2.3a32,32,0,0,0-10.83,2.09,8.27,8.27,0,0,1-2.94.72c-.51,0-1.2-.08-2.08-.18A49.76,49.76,0,0,0,66.67,61.52Z"/><path class="cls-3" d="M110.3,63a8.63,8.63,0,0,0,3.27-.7,9.87,9.87,0,0,0,2.79-1.75,6.75,6.75,0,0,0,2.52-5.67A4.09,4.09,0,0,0,118,52a7.66,7.66,0,0,0-2.85-1.44l-3.23-1c-1.07-.38-2.14-.73-3.21-1.13,1.11.22,2.21.49,3.32.73l3.31.83a7.29,7.29,0,0,1,3.21,1.49,3.56,3.56,0,0,1,.93,1.64,6.85,6.85,0,0,1,.23,1.78,10.72,10.72,0,0,1-.09,1.77,6.66,6.66,0,0,1-.59,1.71,8.33,8.33,0,0,1-2.26,2.7A8.78,8.78,0,0,1,110.3,63Z"/><path class="cls-3" d="M96.69,61.21c1.71,2.67,3.28,5.43,4.76,8.24s2.83,5.69,4,8.63a53.34,53.34,0,0,1,3.11,9.07,30.8,30.8,0,0,1,.68,9.57h-.16c-.58-3.14-1.29-6.16-2.14-9.17l-1.31-4.5c-.4-1.51-.92-3-1.42-4.49-1.05-3-2.26-5.87-3.56-8.75s-2.64-5.74-4.15-8.52Z"/><path class="cls-3" d="M86,76.93a57.6,57.6,0,0,0,6.62,8c1.23,1.23,2.48,2.38,3.78,3.56a22.61,22.61,0,0,1,3.48,4.16,34.17,34.17,0,0,1,2.53,4.73,41.12,41.12,0,0,1,1.77,5,33.22,33.22,0,0,1,1.33,10.47,54.38,54.38,0,0,0-2.57-10.08,44.24,44.24,0,0,0-4.45-9.24,22.29,22.29,0,0,0-3.17-3.92c-1.22-1.23-2.52-2.48-3.65-3.83A34.31,34.31,0,0,1,86,76.93Z"/><path class="cls-3" d="M119,57.41a32.64,32.64,0,0,1,5.28,8.34,24.45,24.45,0,0,1,1.52,4.76c.19.81.28,1.65.39,2.48l.2,2.47c.23,3.27.51,6.55.42,9.83a75.54,75.54,0,0,1-.77,9.83h-.16c-.42-3.28-.59-6.54-.74-9.81s0-6.53-.08-9.79L125,73.08c-.07-.79-.11-1.59-.26-2.38a23.78,23.78,0,0,0-1.22-4.65,32.4,32.4,0,0,0-4.63-8.53Z"/><path class="cls-3" d="M122.14,111.42a21.89,21.89,0,0,0,.47-2.36q.17-1.22.21-2.43a22.28,22.28,0,0,0-.33-4.89,22.85,22.85,0,0,1,.75,4.89c0,.82,0,1.66,0,2.49a21.73,21.73,0,0,1-.28,2.5Z"/><path class="cls-3" d="M134.86,80.38a13.57,13.57,0,0,1,1-6.18,23,23,0,0,1,1.37-2.82,9.54,9.54,0,0,0,.87-2.71c.07-.46.1-1,.14-1.48l.14-1.54c.05-.51.09-1,.16-1.53a11,11,0,0,1,.27-1.59,7.83,7.83,0,0,1,3.58-5.31l.85-.45-.44.88a5.17,5.17,0,0,0-.05,4.27,7.76,7.76,0,0,0,3,3.28,17.71,17.71,0,0,0,4.08,1.92,42.34,42.34,0,0,0,4.38,1.25,66.39,66.39,0,0,0,9,1.58,40.23,40.23,0,0,0,4.52.22c.75,0,1.5,0,2.24-.11a13.47,13.47,0,0,0,2.14-.35l.1,0a8.14,8.14,0,0,0,2.19-.83,6.07,6.07,0,0,0,1.81-1.53,5.92,5.92,0,0,0,1-2.18,8.37,8.37,0,0,0,.18-2.51l.17,0a7.91,7.91,0,0,1,.19,2.62,5.87,5.87,0,0,1-.87,2.57,6.84,6.84,0,0,1-1.91,2A8,8,0,0,1,172.47,71l.1,0a17.79,17.79,0,0,1-4.79.86,35.81,35.81,0,0,1-4.75-.09,51.18,51.18,0,0,1-9.23-1.86,24,24,0,0,1-8.55-4,9.66,9.66,0,0,1-3-3.73,6.32,6.32,0,0,1,0-4.76l.41.43A5.06,5.06,0,0,0,140.89,60a9.61,9.61,0,0,0-.76,2.8c-.07.48-.1,1-.14,1.47s-.08,1-.12,1.54l-.14,1.54c-.06.5-.09,1-.2,1.58a9.51,9.51,0,0,1-1.15,3.1,29.76,29.76,0,0,0-1.53,2.63A16.57,16.57,0,0,0,135,80.38Z"/><path class="cls-3" d="M140.33,110c-.17-2.21-.2-4.37-.17-6.55s.13-4.35.37-6.51a44.88,44.88,0,0,1,1.11-6.42,23.79,23.79,0,0,1,2.36-6,23.61,23.61,0,0,0-1.95,6.12,44.27,44.27,0,0,0-.69,6.39c-.1,2.14-.06,4.29,0,6.43s.28,4.29.57,6.38Z"/><path class="cls-4" d="M89.1,118.58s-6.35,2.72-5,5.15,2.42,2.5,2.42,2.5-2.73,1.71-2.6,4.45c.14,3,1.66,4.78,4.21,4.09,1.84-.49,22.82-4.91,31.08-5.88s22,.13,22,.13l6.31.55a5.34,5.34,0,0,0,3.85-.35,4.36,4.36,0,0,0,3-3.2c.8-3-1.88-7.36-5.07-7.08-2.06.18-1.09-1.66-.14-3a3.45,3.45,0,0,0,.21-3.74,3.51,3.51,0,0,0-3.27-2C140,110.43,122.8,108.71,89.1,118.58Z"/><path class="cls-2" d="M115.1,158.77S85.93,192.38,77.6,211s-13.89,50.28-8.89,56.67-8.61,16.39-8.61,16.39-8.06,7.78-1.94,16.39,19.16,0,19.16,0,2.22,6.94,12.22,6.11S109,302.66,109,301.83s10,6.68,18.05,6.53,33.89,2.91,47.22-4,10-2.78,10-2.78,19.45,3.89,20.84-3.06,3.89-.27,3.89-.27.55,3.33,13.61,2.5,10-7.5,10-7.5-4.17-13.34-8.06-21.12-4.72-18.05-4.72-18.05-3.06-39.72-15-59.17-10.56-23.64-28.89-41.12c0,.17-13-1.88-27.78-1.1C135,153.35,115.1,158.77,115.1,158.77Z"/><path class="cls-3" d="M146.5,309.32c-4.62,0-9-.19-12.55-.34-2.82-.12-5.27-.23-6.9-.2-5.8.1-12.37-3.56-15.92-5.53-.78-.44-1.58-.88-1.94-1-1.57,1.59-11.61,4.08-19.61,4.74-8.65.73-11.7-4.3-12.45-5.91-2.34,1.39-13.68,7.57-19.31-.37-6.25-8.8,1.91-16.85,2-16.93s8.76-6.5,9.53-12.13a4.74,4.74,0,0,0-1-3.7c-5.28-6.75.69-38.91,8.84-57.1,8.26-18.45,37.27-52,37.56-52.32l.09-.1.12,0c.2-.05,20.14-5.44,33.14-6.12a164.15,164.15,0,0,1,26.2.95l1.19.13,0-.53.68.65c13.06,12.46,16.1,18.11,21.13,27.47,2.05,3.81,4.37,8.12,7.82,13.75,11.86,19.3,15,59,15.07,59.35,0,.1.87,10.28,4.67,17.9s8,21,8.09,21.17a4.7,4.7,0,0,1-.31,4.08c-1.37,2.29-4.76,3.62-10.07,4-13.05.84-14-2.47-14-2.85-.41-1-1.29-2.57-1.83-2.53-.12,0-.72.19-1.24,2.82-1.46,7.27-20.52,3.55-21.33,3.39l-.67-.14.43-.53a1.38,1.38,0,0,0,.28-.57c-.14-.07-1.38-.39-9.76,4C167.19,308.48,156.26,309.32,146.5,309.32Zm-18.84-1.38c1.63,0,3.83.1,6.32.21,11.07.47,29.59,1.28,40.09-4.19,9.72-5.06,10.45-4.17,10.81-3.74a1,1,0,0,1,.05,1c3.21.57,18.6,3,19.76-2.84.46-2.31,1.09-3.42,2-3.49,1.42-.09,2.49,2.6,2.7,3.15,0,.09.92,3,13.19,2.23,4.94-.32,8.19-1.54,9.39-3.55a3.83,3.83,0,0,0,.26-3.36c-.06-.18-4.22-13.44-8.05-21.1s-4.76-18.1-4.77-18.21c0-.4-3.18-39.84-14.93-59-3.47-5.65-5.8-10-7.85-13.78-5-9.26-8-14.86-20.85-27.14-.26,0-.7-.06-1.53-.15a162.53,162.53,0,0,0-26.06-.95c-12.39.65-31.15,5.61-32.85,6.06-1.73,2-29.36,34.17-37.35,52C69.33,230.47,64.4,261.48,69,267.4a5.61,5.61,0,0,1,1.13,4.34c-.82,6-9.46,12.38-9.82,12.65S52.67,292,58.5,300.2s18.47,0,18.59-.11l.46-.3.17.52c.09.27,2.26,6.61,11.79,5.82s18.22-3.6,19.06-4.4v-.14l.23-.18c.36-.2.74,0,2.74,1.11,3.43,1.9,9.77,5.43,15.26,5.43h.86Z"/><path class="cls-2" d="M173.08,134.22s2.09-9.37,9.17-14.37,5.94-1.56,9.69-7.29,9-15.73,10.52-15.52,4.69-17-2.29-18.54-20.73-2.5-25.63,0L169.65,81a7.34,7.34,0,0,1-2-4c-.21-2.31-.42-8.25-15.31-9.39s-16.57,4.89-16.57,4.89,1.86,13.45,1.46,14.8c-.47,1.61-1.14,2.81-8.33,1s-3.86-5.94-13.54-5.42-11.15,2.81-13.75,2.81S90.38,83.39,79.75,88s2.4,17,5.31,18.33a48.81,48.81,0,0,1,18.75,14.06c7.61,9.27,12.29,22.21,12.29,22.21S144.39,133.5,173.08,134.22Z"/><path class="cls-3" d="M115.84,143.1l-.14-.38c0-.13-4.74-13-12.21-22.09a48.14,48.14,0,0,0-18.08-13.7l-.52-.24c-2.1-1-9.74-7.81-9.66-13.5,0-2.48,1.5-4.37,4.36-5.6a37.16,37.16,0,0,1,20-2.5c.86.1,1.53.18,2,.18a7.48,7.48,0,0,0,2.65-.67,32.71,32.71,0,0,1,11.07-2.15c5.79-.3,7.1,1,8.62,2.56A9.1,9.1,0,0,0,129,87.88c7.1,1.75,7.45.54,7.83-.75.27-.92-.76-9.45-1.47-14.62v-.08l0-.09c.07-.26,1.93-6.36,17-5.2s15.46,7.09,15.68,9.63v.15a6.69,6.69,0,0,0,1.66,3.56l4.61-2.35c5.29-2.71,19.46-1.48,25.91,0,5.22,1.17,5.11,9.9,4.22,14.88-.38,2.12-1,4.62-2.08,4.48-.89,0-4.19,5.57-6.37,9.23-1.27,2.13-2.58,4.33-3.74,6.11-2.27,3.46-2.84,3.69-4.38,4.32a24.58,24.58,0,0,0-5.42,3.08c-6.86,4.85-9,14-9,14.12l-.07.34h-.35c-28.29-.71-56.56,8.25-56.85,8.34ZM93.67,85.52a34.17,34.17,0,0,0-13.75,2.84c-2.53,1.09-3.83,2.72-3.86,4.84C76,98.45,83.32,105,85.24,105.93l.52.24a48.9,48.9,0,0,1,18.38,13.94c6.84,8.34,11.37,19.76,12.21,22,3.46-1.07,29.87-8.86,56.41-8.27.45-1.75,2.79-9.73,9.25-14.29a25.28,25.28,0,0,1,5.58-3.17c1.4-.57,1.87-.76,4-4,1.15-1.76,2.46-4,3.72-6.08,4-6.64,5.88-9.63,7.11-9.63h0c.71-.55,2.26-6.86,1.43-12.1-.36-2.26-1.31-5.06-3.79-5.62-7.21-1.61-20.66-2.43-25.35,0l-5.16,2.63-.22-.21a7.65,7.65,0,0,1-2.1-4.3v-.15c-.2-2.32-.68-7.77-14.92-8.87-13.41-1-15.84,3.88-16.1,4.53.24,1.79,1.83,13.5,1.43,14.86-.56,1.92-1.52,3.14-8.83,1.33a9.94,9.94,0,0,1-5.45-3.1c-1.43-1.45-2.56-2.6-8-2.3a32,32,0,0,0-10.83,2.09,8.27,8.27,0,0,1-2.94.72c-.51,0-1.2-.08-2.08-.18A49.76,49.76,0,0,0,93.67,85.52Z"/><path class="cls-3" d="M137.3,87a8.63,8.63,0,0,0,3.27-.7,9.87,9.87,0,0,0,2.79-1.75,6.75,6.75,0,0,0,2.52-5.67A4.09,4.09,0,0,0,145,76a7.66,7.66,0,0,0-2.85-1.44l-3.23-1c-1.07-.38-2.14-.73-3.21-1.13,1.11.22,2.21.49,3.32.73l3.31.83a7.29,7.29,0,0,1,3.21,1.49,3.56,3.56,0,0,1,.93,1.64,6.85,6.85,0,0,1,.23,1.78,10.72,10.72,0,0,1-.09,1.77,6.66,6.66,0,0,1-.59,1.71,8.33,8.33,0,0,1-2.26,2.7A8.78,8.78,0,0,1,137.3,87Z"/><path class="cls-3" d="M123.69,85.21c1.71,2.67,3.28,5.43,4.76,8.24s2.83,5.69,4.05,8.63a53.34,53.34,0,0,1,3.11,9.07,30.8,30.8,0,0,1,.68,9.57h-.16c-.58-3.14-1.29-6.16-2.14-9.17l-1.31-4.5c-.4-1.51-.92-3-1.42-4.49-1-3-2.26-5.87-3.56-8.75s-2.64-5.74-4.15-8.52Z"/><path class="cls-3" d="M113,100.93a57.6,57.6,0,0,0,6.62,8c1.23,1.23,2.48,2.38,3.78,3.56a22.61,22.61,0,0,1,3.48,4.16,34.17,34.17,0,0,1,2.53,4.73,41.12,41.12,0,0,1,1.77,5,33.22,33.22,0,0,1,1.33,10.47,54.38,54.38,0,0,0-2.57-10.08,44.24,44.24,0,0,0-4.45-9.24,22.29,22.29,0,0,0-3.17-3.92c-1.22-1.23-2.52-2.48-3.65-3.83A34.31,34.31,0,0,1,113,100.93Z"/><path class="cls-3" d="M146,81.41a32.64,32.64,0,0,1,5.28,8.34,24.45,24.45,0,0,1,1.52,4.76c.19.81.28,1.65.39,2.48l.2,2.47c.23,3.27.51,6.55.42,9.83a75.54,75.54,0,0,1-.77,9.83h-.16c-.42-3.28-.59-6.54-.74-9.81s0-6.53-.08-9.79L152,97.08c-.07-.79-.11-1.59-.26-2.38a23.78,23.78,0,0,0-1.22-4.65,32.4,32.4,0,0,0-4.63-8.53Z"/><path class="cls-3" d="M149.14,135.42a21.89,21.89,0,0,0,.47-2.36q.16-1.22.21-2.43a22.28,22.28,0,0,0-.33-4.89,22.85,22.85,0,0,1,.75,4.89c0,.82,0,1.66,0,2.49a21.73,21.73,0,0,1-.28,2.5Z"/><path class="cls-3" d="M161.86,104.38a13.57,13.57,0,0,1,1-6.18,23,23,0,0,1,1.37-2.82,9.54,9.54,0,0,0,.87-2.71c.07-.46.1-1,.14-1.48l.14-1.54c.05-.51.09-1,.16-1.53a11,11,0,0,1,.27-1.59,7.83,7.83,0,0,1,3.58-5.31l.85-.45-.44.88a5.17,5.17,0,0,0-.05,4.27,7.76,7.76,0,0,0,3,3.28,17.71,17.71,0,0,0,4.08,1.92,42.34,42.34,0,0,0,4.38,1.25,66.39,66.39,0,0,0,9,1.58,40.23,40.23,0,0,0,4.52.22c.75,0,1.5,0,2.24-.11a13.47,13.47,0,0,0,2.14-.35l.1,0a8.14,8.14,0,0,0,2.19-.83,6.07,6.07,0,0,0,1.81-1.53,5.92,5.92,0,0,0,1-2.18,8.37,8.37,0,0,0,.18-2.51l.17,0a7.91,7.91,0,0,1,.19,2.62,5.87,5.87,0,0,1-.87,2.57,6.84,6.84,0,0,1-1.91,2A8,8,0,0,1,199.47,95l.1,0a17.79,17.79,0,0,1-4.79.86,35.81,35.81,0,0,1-4.75-.09,51.18,51.18,0,0,1-9.23-1.86,24,24,0,0,1-8.55-4,9.66,9.66,0,0,1-3-3.73,6.32,6.32,0,0,1,0-4.76l.41.43A5.06,5.06,0,0,0,167.89,84a9.61,9.61,0,0,0-.76,2.8c-.07.48-.1,1-.14,1.47s-.08,1-.12,1.54l-.14,1.54c-.06.5-.09,1-.2,1.58a9.51,9.51,0,0,1-1.15,3.1,29.76,29.76,0,0,0-1.53,2.63,16.57,16.57,0,0,0-1.83,5.74Z"/><path class="cls-3" d="M167.33,134c-.17-2.21-.2-4.37-.17-6.55s.13-4.35.37-6.51a44.88,44.88,0,0,1,1.11-6.42,23.79,23.79,0,0,1,2.36-6,23.61,23.61,0,0,0-1.95,6.12,44.27,44.27,0,0,0-.69,6.39c-.1,2.14-.06,4.29,0,6.43s.28,4.29.57,6.38Z"/><path class="cls-4" d="M116.1,142.58s-6.35,2.72-5,5.15,2.42,2.5,2.42,2.5-2.73,1.71-2.6,4.45c.14,3,1.66,4.78,4.21,4.09,1.84-.49,22.82-4.91,31.08-5.88s22,.13,22,.13l6.31.55a5.34,5.34,0,0,0,3.85-.35,4.36,4.36,0,0,0,3-3.2c.8-3-1.88-7.36-5.07-7.08-2.06.18-1.09-1.66-.14-3a3.45,3.45,0,0,0,.21-3.74,3.51,3.51,0,0,0-3.27-2C167,134.43,149.8,132.71,116.1,142.58Z"/><path class="cls-2" d="M136.1,173.77S106.93,207.38,98.6,226s-13.89,50.28-8.89,56.67-8.61,16.39-8.61,16.39-8.06,7.78-1.94,16.39,19.16,0,19.16,0,2.22,6.94,12.22,6.11S130,317.66,130,316.83s10,6.68,18,6.53,33.89,2.91,47.22-4,10-2.78,10-2.78,19.45,3.89,20.84-3.06,3.89-.27,3.89-.27.55,3.33,13.61,2.5,10-7.5,10-7.5-4.17-13.34-8.06-21.12-4.72-18.05-4.72-18.05-3.06-39.72-15-59.17-10.56-23.64-28.89-41.12c0,.17-13-1.88-27.78-1.1C156,168.35,136.1,173.77,136.1,173.77Z"/><path class="cls-3" d="M167.5,324.32c-4.62,0-9-.19-12.55-.34-2.82-.12-5.27-.23-6.9-.2-5.8.1-12.37-3.56-15.92-5.53-.78-.44-1.58-.88-1.94-1-1.57,1.59-11.61,4.08-19.61,4.74-8.65.73-11.7-4.3-12.45-5.91-2.34,1.39-13.68,7.57-19.31-.37-6.25-8.8,1.91-16.85,2-16.93s8.76-6.5,9.53-12.13a4.74,4.74,0,0,0-1-3.7c-5.28-6.75.69-38.91,8.84-57.1,8.26-18.45,37.27-52,37.56-52.32l.09-.1.12,0c.2-.05,20.14-5.44,33.14-6.12a164.15,164.15,0,0,1,26.2.95l1.19.13,0-.53.68.65c13.06,12.46,16.1,18.11,21.13,27.47,2.05,3.81,4.37,8.12,7.82,13.75,11.86,19.3,15,59,15.07,59.35,0,.1.87,10.28,4.67,17.9s8,21,8.09,21.17a4.7,4.7,0,0,1-.31,4.08c-1.37,2.29-4.76,3.62-10.07,4-13.05.84-14-2.47-14-2.85-.41-1-1.29-2.57-1.83-2.53-.12,0-.72.19-1.24,2.82-1.46,7.27-20.52,3.55-21.33,3.39l-.67-.14.43-.53a1.38,1.38,0,0,0,.28-.57c-.14-.07-1.38-.39-9.76,4C188.19,323.48,177.26,324.32,167.5,324.32Zm-18.84-1.38c1.63,0,3.83.1,6.32.21,11.07.47,29.59,1.28,40.09-4.19,9.72-5.06,10.45-4.17,10.81-3.74a1,1,0,0,1,.05,1c3.21.57,18.6,3,19.76-2.84.46-2.31,1.09-3.42,2-3.49,1.42-.09,2.49,2.6,2.7,3.15,0,.09.92,3,13.19,2.23,4.94-.32,8.19-1.54,9.39-3.55a3.83,3.83,0,0,0,.26-3.36c-.06-.18-4.22-13.44-8.05-21.1s-4.76-18.1-4.77-18.21c0-.4-3.18-39.84-14.93-59-3.47-5.65-5.8-10-7.85-13.78-5-9.26-8-14.86-20.85-27.14-.26,0-.7-.06-1.53-.15a162.53,162.53,0,0,0-26.06-.95c-12.39.65-31.15,5.61-32.85,6.06-1.73,2-29.36,34.17-37.35,52C90.33,245.47,85.4,276.48,90,282.4a5.61,5.61,0,0,1,1.13,4.34c-.82,6-9.46,12.38-9.82,12.65S73.67,307,79.5,315.2s18.47,0,18.59-.11l.46-.3.17.52c.09.27,2.26,6.61,11.79,5.82s18.22-3.6,19.06-4.4v-.14l.23-.18c.36-.2.74,0,2.74,1.11,3.43,1.9,9.77,5.43,15.26,5.43h.86Z"/><path class="cls-2" d="M194.08,149.22s2.09-9.37,9.17-14.37,5.94-1.56,9.69-7.29,9-15.73,10.52-15.52,4.69-17-2.29-18.54-20.73-2.5-25.63,0L190.65,96a7.34,7.34,0,0,1-2-4c-.21-2.31-.42-8.25-15.31-9.39s-16.57,4.89-16.57,4.89,1.86,13.45,1.46,14.8c-.47,1.61-1.14,2.81-8.33,1s-3.86-5.94-13.54-5.42-11.15,2.81-13.75,2.81-11.25-2.29-21.88,2.3,2.4,17,5.31,18.33a48.81,48.81,0,0,1,18.75,14.06c7.61,9.27,12.29,22.21,12.29,22.21S165.39,148.5,194.08,149.22Z"/><path class="cls-3" d="M136.84,158.1l-.14-.38c0-.13-4.74-13-12.21-22.09a48.14,48.14,0,0,0-18.08-13.7l-.52-.24c-2.1-1-9.74-7.81-9.66-13.5,0-2.48,1.5-4.37,4.36-5.6a37.16,37.16,0,0,1,20-2.5c.86.1,1.53.18,2,.18a7.48,7.48,0,0,0,2.65-.67,32.71,32.71,0,0,1,11.07-2.15c5.79-.3,7.1,1,8.62,2.56a9.1,9.1,0,0,0,5.05,2.87c7.1,1.75,7.45.54,7.83-.75.27-.92-.76-9.45-1.47-14.62v-.08l0-.09c.07-.26,1.93-6.36,17-5.2s15.46,7.09,15.68,9.63v.15a6.69,6.69,0,0,0,1.66,3.56l4.61-2.35c5.29-2.71,19.46-1.48,25.91,0,5.22,1.17,5.11,9.9,4.22,14.88-.38,2.12-1,4.62-2.08,4.48-.89,0-4.19,5.57-6.37,9.23-1.27,2.13-2.58,4.33-3.74,6.11-2.27,3.46-2.84,3.69-4.38,4.32a24.58,24.58,0,0,0-5.42,3.08c-6.86,4.85-9,14-9,14.12l-.07.34h-.35c-28.29-.71-56.56,8.25-56.85,8.34Zm-22.17-57.58a34.17,34.17,0,0,0-13.75,2.84c-2.53,1.09-3.83,2.72-3.86,4.84-.07,5.25,7.26,11.84,9.18,12.73l.52.24a48.9,48.9,0,0,1,18.38,13.94c6.84,8.34,11.37,19.76,12.21,22,3.46-1.07,29.87-8.86,56.41-8.27.45-1.75,2.79-9.73,9.25-14.29a25.28,25.28,0,0,1,5.58-3.17c1.4-.57,1.87-.76,4-4,1.15-1.76,2.46-4,3.72-6.08,4-6.64,5.88-9.63,7.11-9.63h0c.71-.55,2.26-6.86,1.43-12.1-.36-2.26-1.31-5.06-3.79-5.62-7.21-1.61-20.66-2.43-25.35,0l-5.16,2.63-.22-.21a7.65,7.65,0,0,1-2.1-4.3v-.15c-.2-2.32-.68-7.77-14.92-8.87-13.41-1-15.84,3.88-16.1,4.53.24,1.79,1.83,13.5,1.43,14.86-.56,1.92-1.52,3.14-8.83,1.33a9.94,9.94,0,0,1-5.45-3.1c-1.43-1.45-2.56-2.6-8-2.3a32,32,0,0,0-10.83,2.09,8.27,8.27,0,0,1-2.94.72c-.51,0-1.2-.08-2.08-.18A49.76,49.76,0,0,0,114.67,100.52Z"/><path class="cls-3" d="M158.3,102a8.63,8.63,0,0,0,3.27-.7,9.87,9.87,0,0,0,2.79-1.75,6.75,6.75,0,0,0,2.52-5.67A4.09,4.09,0,0,0,166,91a7.66,7.66,0,0,0-2.85-1.44l-3.23-1c-1.07-.38-2.14-.73-3.21-1.13,1.11.22,2.21.49,3.32.73l3.31.83a7.29,7.29,0,0,1,3.21,1.49,3.56,3.56,0,0,1,.93,1.64,6.85,6.85,0,0,1,.23,1.78,10.72,10.72,0,0,1-.09,1.77,6.66,6.66,0,0,1-.59,1.71,8.33,8.33,0,0,1-2.26,2.7A8.78,8.78,0,0,1,158.3,102Z"/><path class="cls-3" d="M144.69,100.21c1.71,2.67,3.28,5.43,4.76,8.24s2.83,5.69,4.05,8.63a53.34,53.34,0,0,1,3.11,9.07,30.8,30.8,0,0,1,.68,9.57h-.16c-.58-3.14-1.29-6.16-2.14-9.17l-1.31-4.5c-.4-1.51-.92-3-1.42-4.49-1-3-2.26-5.87-3.56-8.75s-2.64-5.74-4.15-8.52Z"/><path class="cls-3" d="M134,115.93a57.6,57.6,0,0,0,6.62,8c1.23,1.23,2.48,2.38,3.78,3.56a22.61,22.61,0,0,1,3.48,4.16,34.17,34.17,0,0,1,2.53,4.73,41.12,41.12,0,0,1,1.77,5,33.22,33.22,0,0,1,1.33,10.47,54.38,54.38,0,0,0-2.57-10.08,44.24,44.24,0,0,0-4.45-9.24,22.29,22.29,0,0,0-3.17-3.92c-1.22-1.23-2.52-2.48-3.65-3.83A34.31,34.31,0,0,1,134,115.93Z"/><path class="cls-3" d="M167,96.41a32.64,32.64,0,0,1,5.28,8.34,24.45,24.45,0,0,1,1.52,4.76c.19.81.28,1.65.39,2.48l.2,2.47c.23,3.27.51,6.55.42,9.83a75.54,75.54,0,0,1-.77,9.83h-.16c-.42-3.28-.59-6.54-.74-9.81s0-6.53-.08-9.79l-.07-2.44c-.07-.79-.11-1.59-.26-2.38a23.78,23.78,0,0,0-1.22-4.65,32.4,32.4,0,0,0-4.63-8.53Z"/><path class="cls-3" d="M170.14,150.42a21.89,21.89,0,0,0,.47-2.36q.16-1.22.21-2.43a22.28,22.28,0,0,0-.33-4.89,22.85,22.85,0,0,1,.75,4.89c0,.82,0,1.66,0,2.49a21.73,21.73,0,0,1-.28,2.5Z"/><path class="cls-3" d="M182.86,119.38a13.57,13.57,0,0,1,1-6.18,23,23,0,0,1,1.37-2.82,9.54,9.54,0,0,0,.87-2.71c.07-.46.1-1,.14-1.48l.14-1.54c.05-.51.09-1,.16-1.53a11,11,0,0,1,.27-1.59,7.83,7.83,0,0,1,3.58-5.31l.85-.45-.44.88a5.17,5.17,0,0,0-.05,4.27,7.76,7.76,0,0,0,3,3.28,17.71,17.71,0,0,0,4.08,1.92,42.34,42.34,0,0,0,4.38,1.25,66.39,66.39,0,0,0,9,1.58,40.23,40.23,0,0,0,4.52.22c.75,0,1.5,0,2.24-.11a13.47,13.47,0,0,0,2.14-.35l.1,0a8.14,8.14,0,0,0,2.19-.83,6.07,6.07,0,0,0,1.81-1.53,5.92,5.92,0,0,0,1-2.18,8.37,8.37,0,0,0,.18-2.51l.17,0a7.91,7.91,0,0,1,.19,2.62,5.87,5.87,0,0,1-.87,2.57,6.84,6.84,0,0,1-1.91,2,8,8,0,0,1-2.52,1.19l.1,0a17.79,17.79,0,0,1-4.79.86,35.81,35.81,0,0,1-4.75-.09,51.18,51.18,0,0,1-9.23-1.86,24,24,0,0,1-8.55-4,9.66,9.66,0,0,1-3-3.73,6.32,6.32,0,0,1,0-4.76l.41.43A5.06,5.06,0,0,0,188.89,99a9.61,9.61,0,0,0-.76,2.8c-.07.48-.1,1-.14,1.47s-.08,1-.12,1.54l-.14,1.54c-.06.5-.09,1-.2,1.58a9.51,9.51,0,0,1-1.15,3.1,29.76,29.76,0,0,0-1.53,2.63,16.57,16.57,0,0,0-1.83,5.74Z"/><path class="cls-3" d="M188.33,149c-.17-2.21-.2-4.37-.17-6.55s.13-4.35.37-6.51a44.88,44.88,0,0,1,1.11-6.42,23.79,23.79,0,0,1,2.36-6,23.61,23.61,0,0,0-1.95,6.12,44.27,44.27,0,0,0-.69,6.39c-.1,2.14-.06,4.29,0,6.43s.28,4.29.57,6.38Z"/><path class="cls-4" d="M137.1,157.58s-6.35,2.72-5,5.15,2.42,2.5,2.42,2.5-2.73,1.71-2.6,4.45c.14,3,1.66,4.78,4.21,4.09,1.84-.49,22.82-4.91,31.08-5.88s22,.13,22,.13l6.31.55a5.34,5.34,0,0,0,3.85-.35,4.36,4.36,0,0,0,3-3.2c.8-3-1.88-7.36-5.07-7.08-2.06.18-1.09-1.66-.14-3a3.45,3.45,0,0,0,.21-3.74,3.51,3.51,0,0,0-3.27-2C188,149.43,170.8,147.71,137.1,157.58Z"/><path class="cls-2" d="M157.1,187.77S127.93,221.38,119.6,240s-13.89,50.28-8.89,56.67-8.61,16.39-8.61,16.39-8.06,7.78-1.94,16.39,19.16,0,19.16,0,2.22,6.94,12.22,6.11S151,331.66,151,330.83s10,6.68,18,6.53,33.89,2.91,47.22-4,10-2.78,10-2.78,19.45,3.89,20.84-3.06,3.89-.27,3.89-.27.55,3.33,13.61,2.5,10-7.5,10-7.5-4.17-13.34-8.06-21.12-4.72-18.05-4.72-18.05-3.06-39.72-15-59.17-10.56-23.64-28.89-41.12c0,.17-13-1.88-27.78-1.1C177,182.35,157.1,187.77,157.1,187.77Z"/><path class="cls-3" d="M188.5,338.32c-4.62,0-9-.19-12.55-.34-2.82-.12-5.27-.23-6.9-.2-5.8.1-12.37-3.56-15.92-5.53-.78-.44-1.58-.88-1.94-1-1.57,1.59-11.61,4.08-19.61,4.74-8.65.73-11.7-4.3-12.45-5.91-2.34,1.39-13.68,7.57-19.31-.37-6.25-8.8,1.91-16.85,2-16.93s8.76-6.5,9.53-12.13a4.74,4.74,0,0,0-1-3.7c-5.28-6.75.69-38.91,8.84-57.1,8.26-18.45,37.27-52,37.56-52.32l.09-.1.12,0c.2-.05,20.14-5.44,33.14-6.12a164.15,164.15,0,0,1,26.2.95l1.19.13,0-.53.68.65c13.06,12.46,16.1,18.11,21.13,27.47,2.05,3.81,4.37,8.12,7.82,13.75,11.86,19.3,15,59,15.07,59.35,0,.1.87,10.28,4.67,17.9s8,21,8.09,21.17a4.7,4.7,0,0,1-.31,4.08c-1.37,2.29-4.76,3.62-10.07,4-13.05.84-14-2.47-14-2.85-.41-1-1.29-2.57-1.83-2.53-.12,0-.72.19-1.24,2.82-1.46,7.27-20.52,3.55-21.33,3.39l-.67-.14.43-.53a1.38,1.38,0,0,0,.28-.57c-.14-.07-1.38-.39-9.76,4C209.19,337.48,198.26,338.32,188.5,338.32Zm-18.84-1.38c1.63,0,3.83.1,6.32.21,11.07.47,29.59,1.28,40.09-4.19,9.72-5.06,10.45-4.17,10.81-3.74a1,1,0,0,1,.05,1c3.21.57,18.6,3,19.76-2.84.46-2.31,1.09-3.42,2-3.49,1.42-.09,2.49,2.6,2.7,3.15,0,.09.92,3,13.19,2.23,4.94-.32,8.19-1.54,9.39-3.55a3.83,3.83,0,0,0,.26-3.36c-.06-.18-4.22-13.44-8.05-21.1s-4.76-18.1-4.77-18.21c0-.4-3.18-39.84-14.93-59-3.47-5.65-5.8-10-7.85-13.78-5-9.26-8-14.86-20.85-27.14-.26,0-.7-.06-1.53-.15a162.53,162.53,0,0,0-26.06-.95c-12.39.65-31.15,5.61-32.85,6.06-1.73,2-29.36,34.17-37.35,52-8.65,19.31-13.58,50.32-8.94,56.24a5.61,5.61,0,0,1,1.13,4.34c-.82,6-9.46,12.38-9.82,12.65S94.67,321,100.5,329.2s18.47,0,18.59-.11l.46-.3.17.52c.09.27,2.26,6.61,11.79,5.82s18.22-3.6,19.06-4.4v-.14l.23-.18c.36-.2.74,0,2.74,1.11,3.43,1.9,9.77,5.43,15.26,5.43h.86Z"/><path class="cls-2" d="M215.08,163.22s2.09-9.37,9.17-14.37,5.94-1.56,9.69-7.29,9-15.73,10.52-15.52,4.69-17-2.29-18.54-20.73-2.5-25.63,0l-4.89,2.5a7.34,7.34,0,0,1-2-4c-.21-2.31-.42-8.25-15.31-9.39s-16.57,4.89-16.57,4.89,1.86,13.45,1.46,14.8c-.47,1.61-1.14,2.81-8.33,1s-3.86-5.94-13.54-5.42-11.15,2.81-13.75,2.81-11.25-2.29-21.88,2.3,2.4,17,5.31,18.33a48.81,48.81,0,0,1,18.75,14.06c7.61,9.27,12.29,22.21,12.29,22.21S186.39,162.5,215.08,163.22Z"/><path class="cls-3" d="M157.84,172.1l-.14-.38c0-.13-4.74-13-12.21-22.09a48.14,48.14,0,0,0-18.08-13.7l-.52-.24c-2.1-1-9.74-7.81-9.66-13.5,0-2.48,1.5-4.37,4.36-5.6a37.16,37.16,0,0,1,20-2.5c.86.1,1.53.18,2,.18a7.48,7.48,0,0,0,2.65-.67,32.71,32.71,0,0,1,11.07-2.15c5.79-.3,7.1,1,8.62,2.56a9.1,9.1,0,0,0,5.05,2.87c7.1,1.75,7.45.54,7.83-.75.27-.92-.76-9.45-1.47-14.62v-.08l0-.09c.07-.26,1.93-6.36,17-5.2s15.46,7.09,15.68,9.63v.15a6.69,6.69,0,0,0,1.66,3.56l4.61-2.35c5.29-2.71,19.46-1.48,25.91,0,5.22,1.17,5.11,9.9,4.22,14.88-.38,2.12-1,4.62-2.08,4.48-.89,0-4.19,5.57-6.37,9.23-1.27,2.13-2.58,4.33-3.74,6.11-2.27,3.46-2.84,3.69-4.38,4.32a24.58,24.58,0,0,0-5.42,3.08c-6.86,4.85-9,14-9,14.12l-.07.34h-.35c-28.29-.71-56.56,8.25-56.85,8.34Zm-22.17-57.58a34.17,34.17,0,0,0-13.75,2.84c-2.53,1.09-3.83,2.72-3.86,4.84-.07,5.25,7.26,11.84,9.18,12.73l.52.24a48.9,48.9,0,0,1,18.38,13.94c6.84,8.34,11.37,19.76,12.21,22,3.46-1.07,29.87-8.86,56.41-8.27.45-1.75,2.79-9.73,9.25-14.29a25.28,25.28,0,0,1,5.58-3.17c1.4-.57,1.87-.76,4-4,1.15-1.76,2.46-4,3.72-6.08,4-6.64,5.88-9.63,7.11-9.63h0c.71-.55,2.26-6.86,1.43-12.1-.36-2.26-1.31-5.06-3.79-5.62-7.21-1.61-20.66-2.43-25.35,0l-5.16,2.63-.22-.21a7.65,7.65,0,0,1-2.1-4.3v-.15c-.2-2.32-.68-7.77-14.92-8.87-13.41-1-15.84,3.88-16.1,4.53.24,1.79,1.83,13.5,1.43,14.86-.56,1.92-1.52,3.14-8.83,1.33a9.94,9.94,0,0,1-5.45-3.1c-1.43-1.45-2.56-2.6-8-2.3a32,32,0,0,0-10.83,2.09,8.27,8.27,0,0,1-2.94.72c-.51,0-1.2-.08-2.08-.18A49.76,49.76,0,0,0,135.67,114.52Z"/><path class="cls-3" d="M179.3,116a8.63,8.63,0,0,0,3.27-.7,9.87,9.87,0,0,0,2.79-1.75,6.75,6.75,0,0,0,2.52-5.67A4.09,4.09,0,0,0,187,105a7.66,7.66,0,0,0-2.85-1.44l-3.23-1c-1.07-.38-2.14-.73-3.21-1.13,1.11.22,2.21.49,3.32.73l3.31.83a7.29,7.29,0,0,1,3.21,1.49,3.56,3.56,0,0,1,.93,1.64,6.85,6.85,0,0,1,.23,1.78,10.72,10.72,0,0,1-.09,1.77,6.66,6.66,0,0,1-.59,1.71,8.33,8.33,0,0,1-2.26,2.7A8.78,8.78,0,0,1,179.3,116Z"/><path class="cls-3" d="M165.69,114.21c1.71,2.67,3.28,5.43,4.76,8.24s2.83,5.69,4.05,8.63a53.34,53.34,0,0,1,3.11,9.07,30.8,30.8,0,0,1,.68,9.57h-.16c-.58-3.14-1.29-6.16-2.14-9.17l-1.31-4.5c-.4-1.51-.92-3-1.42-4.49-1-3-2.26-5.87-3.56-8.75s-2.64-5.74-4.15-8.52Z"/><path class="cls-3" d="M155,129.93a57.6,57.6,0,0,0,6.62,8c1.23,1.23,2.48,2.38,3.78,3.56a22.61,22.61,0,0,1,3.48,4.16,34.17,34.17,0,0,1,2.53,4.73,41.12,41.12,0,0,1,1.77,5,33.22,33.22,0,0,1,1.33,10.47,54.38,54.38,0,0,0-2.57-10.08,44.24,44.24,0,0,0-4.45-9.24,22.29,22.29,0,0,0-3.17-3.92c-1.22-1.23-2.52-2.48-3.65-3.83A34.31,34.31,0,0,1,155,129.93Z"/><path class="cls-3" d="M188,110.41a32.64,32.64,0,0,1,5.28,8.34,24.45,24.45,0,0,1,1.52,4.76c.19.81.28,1.65.39,2.48l.2,2.47c.23,3.27.51,6.55.42,9.83a75.54,75.54,0,0,1-.77,9.83h-.16c-.42-3.28-.59-6.54-.74-9.81s0-6.53-.08-9.79l-.07-2.44c-.07-.79-.11-1.59-.26-2.38a23.78,23.78,0,0,0-1.22-4.65,32.4,32.4,0,0,0-4.63-8.53Z"/><path class="cls-3" d="M191.14,164.42a21.89,21.89,0,0,0,.47-2.36q.16-1.22.21-2.43a22.28,22.28,0,0,0-.33-4.89,22.85,22.85,0,0,1,.75,4.89c0,.82,0,1.66,0,2.49a21.73,21.73,0,0,1-.28,2.5Z"/><path class="cls-3" d="M203.86,133.38a13.57,13.57,0,0,1,1-6.18,23,23,0,0,1,1.37-2.82,9.54,9.54,0,0,0,.87-2.71c.07-.46.1-1,.14-1.48l.14-1.54c.05-.51.09-1,.16-1.53a11,11,0,0,1,.27-1.59,7.83,7.83,0,0,1,3.58-5.31l.85-.45-.44.88a5.17,5.17,0,0,0-.05,4.27,7.76,7.76,0,0,0,3,3.28,17.71,17.71,0,0,0,4.08,1.92,42.34,42.34,0,0,0,4.38,1.25,66.39,66.39,0,0,0,9,1.58,40.23,40.23,0,0,0,4.52.22c.75,0,1.5,0,2.24-.11a13.47,13.47,0,0,0,2.14-.35l.1,0a8.14,8.14,0,0,0,2.19-.83,6.07,6.07,0,0,0,1.81-1.53,5.92,5.92,0,0,0,1-2.18,8.37,8.37,0,0,0,.18-2.51l.17,0a7.91,7.91,0,0,1,.19,2.62,5.87,5.87,0,0,1-.87,2.57,6.84,6.84,0,0,1-1.91,2,8,8,0,0,1-2.52,1.19l.1,0a17.79,17.79,0,0,1-4.79.86,35.81,35.81,0,0,1-4.75-.09,51.18,51.18,0,0,1-9.23-1.86,24,24,0,0,1-8.55-4,9.66,9.66,0,0,1-3-3.73,6.32,6.32,0,0,1,0-4.76l.41.43a5.06,5.06,0,0,0-1.77,2.19,9.61,9.61,0,0,0-.76,2.8c-.07.48-.1,1-.14,1.47s-.08,1-.12,1.54l-.14,1.54c-.06.5-.09,1-.2,1.58a9.51,9.51,0,0,1-1.15,3.1,29.76,29.76,0,0,0-1.53,2.63,16.57,16.57,0,0,0-1.83,5.74Z"/><path class="cls-3" d="M209.33,163c-.17-2.21-.2-4.37-.17-6.55s.13-4.35.37-6.51a44.88,44.88,0,0,1,1.11-6.42,23.79,23.79,0,0,1,2.36-6,23.61,23.61,0,0,0-1.95,6.12,44.27,44.27,0,0,0-.69,6.39c-.1,2.14-.06,4.29,0,6.43s.28,4.29.57,6.38Z"/><path class="cls-4" d="M158.1,171.58s-6.35,2.72-5,5.15,2.42,2.5,2.42,2.5-2.73,1.71-2.6,4.45c.14,3,1.66,4.78,4.21,4.09,1.84-.49,22.82-4.91,31.08-5.88s22,.13,22,.13l6.31.55a5.34,5.34,0,0,0,3.85-.35,4.36,4.36,0,0,0,3-3.2c.8-3-1.88-7.36-5.07-7.08-2.06.18-1.09-1.66-.14-3a3.45,3.45,0,0,0,.21-3.74,3.51,3.51,0,0,0-3.27-2C209,163.43,191.8,161.71,158.1,171.58Z"/><path class="cls-2" d="M190.93,197.44s-29.17,33.61-37.5,52.22-13.89,50.28-8.89,56.67-8.61,16.38-8.61,16.38-8.06,7.78-1.94,16.39,19.16,0,19.16,0,2.22,6.95,12.22,6.11,19.45-3.88,19.45-4.72,10,6.69,18.05,6.54,33.89,2.91,47.23-4,10-2.78,10-2.78,19.45,3.89,20.84-3,3.89-.28,3.89-.28.55,3.33,13.61,2.5,10-7.5,10-7.5-4.17-13.33-8.06-21.11-4.72-18-4.72-18-3.06-39.73-15-59.17-10.56-23.65-28.89-41.13c0,.17-12.95-1.87-27.78-1.09C210.87,192,190.93,197.44,190.93,197.44Z"/><path class="cls-3" d="M222.33,348c-4.62,0-9-.19-12.55-.35-2.82-.12-5.26-.23-6.9-.19-5.8.1-12.37-3.57-15.92-5.54-.78-.43-1.58-.88-1.94-1-1.57,1.59-11.61,4.07-19.61,4.74-8.65.72-11.7-4.31-12.45-5.92-2.34,1.4-13.68,7.58-19.31-.37-6.25-8.8,1.91-16.84,2-16.92s8.76-6.51,9.53-12.13a4.72,4.72,0,0,0-1-3.71c-5.28-6.74.69-38.9,8.84-57.09,8.26-18.45,37.27-52,37.56-52.33l.09-.09.12,0C191,197,211,191.6,224,190.91a163.8,163.8,0,0,1,26.2,1l1.19.12,0-.52.68.65c13.06,12.46,16.1,18.11,21.13,27.47,2.05,3.8,4.37,8.11,7.83,13.74,11.85,19.31,15,58.95,15.06,59.35,0,.1.87,10.29,4.67,17.9s8,21,8.09,21.18a4.69,4.69,0,0,1-.31,4.08c-1.37,2.29-4.76,3.62-10.07,4-13.05.83-14-2.47-14-2.85-.41-1.05-1.28-2.58-1.83-2.53-.11,0-.72.19-1.24,2.82-1.46,7.27-20.52,3.55-21.33,3.38l-.66-.13.42-.53a1.35,1.35,0,0,0,.28-.58c-.14-.06-1.38-.39-9.76,4C243,347.15,232.09,348,222.33,348Zm-18.84-1.38c1.63,0,3.83.09,6.32.2,11.07.48,29.59,1.28,40.09-4.19,9.72-5.06,10.45-4.16,10.81-3.73a.94.94,0,0,1,.05,1c3.21.57,18.6,3,19.76-2.83.46-2.31,1.09-3.42,2-3.49,1.42-.09,2.49,2.6,2.7,3.14,0,.1.92,3,13.19,2.24,4.94-.32,8.19-1.55,9.39-3.55a3.82,3.82,0,0,0,.26-3.37c-.06-.18-4.22-13.43-8.05-21.09s-4.76-18.11-4.76-18.21c0-.4-3.19-39.85-14.94-59-3.47-5.65-5.8-10-7.85-13.79-5-9.25-8-14.85-20.85-27.14-.26,0-.7-.06-1.53-.15a164.93,164.93,0,0,0-26.06-.95c-12.39.66-31.15,5.61-32.85,6.07-1.73,2-29.36,34.17-37.35,52-8.65,19.31-13.58,50.32-8.94,56.24A5.57,5.57,0,0,1,146,310.4c-.82,6-9.46,12.38-9.82,12.65s-7.68,7.6-1.85,15.81,18.47,0,18.59-.1l.46-.31.17.53c.09.27,2.26,6.6,11.79,5.82s18.23-3.61,19.06-4.41v-.14l.23-.17c.36-.21.74,0,2.74,1.1,3.43,1.91,9.77,5.44,15.26,5.44h.86Z"/><path class="cls-2" d="M248.91,172.89s2.09-9.37,9.17-14.37,5.94-1.57,9.69-7.3,9-15.72,10.52-15.52,4.69-17-2.29-18.54-20.73-2.5-25.63,0l-4.89,2.5a7.29,7.29,0,0,1-2-4c-.21-2.31-.42-8.25-15.31-9.4s-16.57,4.9-16.57,4.9,1.86,13.44,1.46,14.79c-.47,1.61-1.14,2.81-8.33,1s-3.86-5.93-13.54-5.41-11.15,2.81-13.75,2.81-11.25-2.29-21.88,2.29,2.4,17,5.31,18.33A49,49,0,0,1,179.64,159c7.61,9.27,12.29,22.21,12.29,22.21S220.22,172.16,248.91,172.89Z"/><path class="cls-3" d="M191.67,181.77l-.14-.38c0-.13-4.74-13-12.21-22.09a48,48,0,0,0-18.08-13.71l-.52-.24c-2.1-1-9.74-7.8-9.66-13.5,0-2.48,1.5-4.36,4.36-5.59a37.06,37.06,0,0,1,20.05-2.5,19.81,19.81,0,0,0,2,.17,7.48,7.48,0,0,0,2.65-.67,32.79,32.79,0,0,1,11.07-2.14c5.79-.31,7.1,1,8.62,2.55a9.14,9.14,0,0,0,5,2.88c7.1,1.75,7.45.53,7.83-.76.27-.91-.76-9.45-1.47-14.61v-.09l0-.08c.07-.26,1.94-6.36,17-5.2s15.46,7.09,15.68,9.63v.14a6.73,6.73,0,0,0,1.66,3.57l4.61-2.36c5.29-2.7,19.46-1.48,25.91,0,5.22,1.16,5.11,9.9,4.22,14.88-.38,2.12-1,4.62-2.08,4.48-.89,0-4.19,5.56-6.37,9.22-1.27,2.13-2.58,4.34-3.74,6.11-2.27,3.47-2.84,3.7-4.38,4.33a24.14,24.14,0,0,0-5.42,3.08c-6.86,4.84-9,14-9,14.12l-.07.34h-.35c-28.29-.71-56.56,8.24-56.85,8.33ZM169.5,124.19A34.31,34.31,0,0,0,155.75,127c-2.53,1.09-3.83,2.72-3.86,4.84-.07,5.26,7.26,11.84,9.18,12.74l.52.23A49.13,49.13,0,0,1,180,158.77c6.84,8.34,11.37,19.76,12.21,22,3.46-1.06,29.87-8.86,56.41-8.26.45-1.76,2.79-9.73,9.25-14.29a24.84,24.84,0,0,1,5.58-3.17c1.4-.57,1.87-.77,4-4,1.15-1.76,2.46-4,3.73-6.08,4-6.64,5.87-9.64,7.1-9.64h0c.71-.55,2.26-6.86,1.43-12.1-.36-2.25-1.31-5.05-3.79-5.61-7.21-1.61-20.66-2.43-25.35,0l-5.16,2.64-.21-.21a7.65,7.65,0,0,1-2.11-4.3v-.15c-.2-2.33-.68-7.77-14.92-8.87-13.41-1-15.84,3.87-16.1,4.52.25,1.79,1.83,13.51,1.43,14.87-.56,1.91-1.52,3.13-8.83,1.33a10,10,0,0,1-5.45-3.1c-1.43-1.45-2.55-2.6-8-2.31A32,32,0,0,0,180.4,124a8.09,8.09,0,0,1-2.94.73c-.51,0-1.2-.08-2.08-.18A49.76,49.76,0,0,0,169.5,124.19Z"/><path class="cls-3" d="M213.13,125.62a8.46,8.46,0,0,0,3.27-.71,9.84,9.84,0,0,0,2.79-1.74,6.76,6.76,0,0,0,2.52-5.67,4.13,4.13,0,0,0-.88-2.89,7.66,7.66,0,0,0-2.85-1.44l-3.23-1c-1.07-.38-2.14-.72-3.21-1.13,1.11.22,2.22.49,3.32.74l3.31.82a7.43,7.43,0,0,1,3.21,1.5,3.51,3.51,0,0,1,.93,1.64,6.78,6.78,0,0,1,.23,1.77,10.78,10.78,0,0,1-.09,1.78,6.79,6.79,0,0,1-.59,1.71,8.19,8.19,0,0,1-2.26,2.69A8.78,8.78,0,0,1,213.13,125.62Z"/><path class="cls-3" d="M199.52,123.87c1.71,2.68,3.28,5.44,4.76,8.24s2.84,5.69,4.05,8.64a53.24,53.24,0,0,1,3.11,9.06,30.84,30.84,0,0,1,.68,9.57H212c-.57-3.14-1.29-6.16-2.14-9.17l-1.3-4.5c-.41-1.52-.93-3-1.43-4.49-1.05-3-2.26-5.88-3.55-8.75s-2.65-5.74-4.16-8.52Z"/><path class="cls-3" d="M188.78,139.59a57.05,57.05,0,0,0,6.63,8c1.22,1.23,2.47,2.37,3.78,3.56a23.24,23.24,0,0,1,3.47,4.15,33.71,33.71,0,0,1,2.53,4.74,41,41,0,0,1,1.77,5,33.25,33.25,0,0,1,1.33,10.47,53.7,53.7,0,0,0-2.57-10.07,44,44,0,0,0-4.45-9.24,22.37,22.37,0,0,0-3.17-3.93c-1.22-1.22-2.52-2.47-3.65-3.83A34,34,0,0,1,188.78,139.59Z"/><path class="cls-3" d="M221.85,120.08a32.72,32.72,0,0,1,5.29,8.33,25.12,25.12,0,0,1,1.51,4.76c.19.82.28,1.65.39,2.49l.2,2.46c.23,3.28.51,6.56.42,9.84a75.54,75.54,0,0,1-.77,9.83h-.16c-.42-3.28-.59-6.55-.73-9.81s0-6.54-.09-9.8l-.07-2.44c-.07-.79-.11-1.58-.26-2.37a23.6,23.6,0,0,0-1.22-4.65,32.4,32.4,0,0,0-4.63-8.53Z"/><path class="cls-3" d="M225,174.09a22.08,22.08,0,0,0,.47-2.37,24.37,24.37,0,0,0,.21-2.43,22.32,22.32,0,0,0-.33-4.89,23.84,23.84,0,0,1,.74,7.38,21.65,21.65,0,0,1-.28,2.51Z"/><path class="cls-3" d="M237.69,143.05a13.54,13.54,0,0,1,1-6.18,23,23,0,0,1,1.37-2.82,9.71,9.71,0,0,0,.87-2.72c.07-.45.1-1,.14-1.48l.14-1.53c.05-.51.09-1,.16-1.53a12.58,12.58,0,0,1,.27-1.59,7.83,7.83,0,0,1,3.58-5.32l.85-.45-.44.89a5.13,5.13,0,0,0,0,4.27,7.6,7.6,0,0,0,3,3.27,17.74,17.74,0,0,0,4.08,1.93A42.34,42.34,0,0,0,257,131a66.36,66.36,0,0,0,9,1.57,40.37,40.37,0,0,0,4.52.23c.75,0,1.51,0,2.25-.12a13.53,13.53,0,0,0,2.13-.35l.1,0a7.79,7.79,0,0,0,2.19-.82A6,6,0,0,0,279,130a5.81,5.81,0,0,0,1-2.17,8.42,8.42,0,0,0,.18-2.51l.17,0a8,8,0,0,1,.19,2.63,5.87,5.87,0,0,1-.87,2.57,6.93,6.93,0,0,1-1.91,2,7.82,7.82,0,0,1-2.52,1.2l.1,0a17.79,17.79,0,0,1-4.79.86,35.81,35.81,0,0,1-4.75-.09,51.2,51.2,0,0,1-9.23-1.87,23.84,23.84,0,0,1-8.55-4,9.66,9.66,0,0,1-3-3.73,6.37,6.37,0,0,1,0-4.76l.41.43a5,5,0,0,0-1.77,2.18,9.61,9.61,0,0,0-.76,2.8c-.07.49-.1,1-.14,1.47s-.08,1-.12,1.54l-.14,1.54c-.05.51-.09,1-.2,1.59a9.45,9.45,0,0,1-1.15,3.09c-.57.92-1.08,1.72-1.53,2.63a16.62,16.62,0,0,0-1.83,5.75Z"/><path class="cls-3" d="M243.16,172.67c-.16-2.2-.2-4.36-.17-6.54s.13-4.35.37-6.51a44.88,44.88,0,0,1,1.11-6.42,24,24,0,0,1,2.36-6,23.68,23.68,0,0,0-2,6.13,44.12,44.12,0,0,0-.69,6.39c-.1,2.14-.06,4.29.05,6.43s.28,4.28.57,6.37Z"/><path class="cls-4" d="M191.93,181.25s-6.35,2.72-5,5.15,2.42,2.5,2.42,2.5-2.73,1.71-2.6,4.44c.14,3,1.67,4.78,4.21,4.1,1.84-.5,22.82-4.92,31.08-5.88s22,.13,22,.13l6.3.55a5.48,5.48,0,0,0,3.86-.35,4.38,4.38,0,0,0,3-3.2c.8-3-1.88-7.36-5.07-7.08-2.06.17-1.09-1.67-.14-3a3.67,3.67,0,0,0-3.06-5.72C242.87,173.09,225.63,171.37,191.93,181.25Z"/><path class="cls-5" d="M204.53,280.57a1.54,1.54,0,0,1-1.13-.44,1.47,1.47,0,0,1-.44-1.06V258.25l.44.51-4.24,2.56a1.42,1.42,0,0,1-.73.19,1.39,1.39,0,0,1-1.07-.5,1.5,1.5,0,0,1-.43-1,1.43,1.43,0,0,1,.76-1.28l6-3.55a1.94,1.94,0,0,1,1.09-.22,1.23,1.23,0,0,1,1,.42,1.56,1.56,0,0,1,.37,1v22.65a1.47,1.47,0,0,1-.44,1.06A1.54,1.54,0,0,1,204.53,280.57Z"/><path class="cls-5" d="M220.34,280.93a7.54,7.54,0,0,1-5.07-1.72,10.51,10.51,0,0,1-3.07-4.72,22.22,22.22,0,0,1,0-13.5,10.59,10.59,0,0,1,3.07-4.68,8.32,8.32,0,0,1,10.13,0,10.49,10.49,0,0,1,3.06,4.68,22.84,22.84,0,0,1,0,13.5,10.41,10.41,0,0,1-3.06,4.72A7.53,7.53,0,0,1,220.34,280.93Zm0-3a4.62,4.62,0,0,0,3.27-1.25,7.7,7.7,0,0,0,2-3.53,18.87,18.87,0,0,0,.69-5.43,19.11,19.11,0,0,0-.69-5.47,7.68,7.68,0,0,0-2-3.51,5,5,0,0,0-6.55,0,7.88,7.88,0,0,0-2.05,3.51,18.72,18.72,0,0,0-.71,5.47,18.48,18.48,0,0,0,.71,5.43,7.9,7.9,0,0,0,2.05,3.53A4.63,4.63,0,0,0,220.34,278Z"/><path class="cls-5" d="M242.32,280.93a7.56,7.56,0,0,1-5.07-1.72,10.59,10.59,0,0,1-3.07-4.72,22.42,22.42,0,0,1,0-13.5,10.68,10.68,0,0,1,3.07-4.68,8.33,8.33,0,0,1,10.14,0,10.48,10.48,0,0,1,3.05,4.68,22.84,22.84,0,0,1,0,13.5,10.4,10.4,0,0,1-3.05,4.72A7.58,7.58,0,0,1,242.32,280.93Zm0-3a4.62,4.62,0,0,0,3.27-1.25,7.7,7.7,0,0,0,2-3.53,18.5,18.5,0,0,0,.7-5.43,18.74,18.74,0,0,0-.7-5.47,7.68,7.68,0,0,0-2-3.51,5,5,0,0,0-6.54,0,7.7,7.7,0,0,0-2.05,3.51,18.36,18.36,0,0,0-.72,5.47,18.13,18.13,0,0,0,.72,5.43,7.72,7.72,0,0,0,2.05,3.53A4.62,4.62,0,0,0,242.32,278Z"/><path class="cls-4" d="M220.56,326.55a17.07,17.07,0,0,1-6.28-1.07,16.45,16.45,0,0,1-5.22-3.38,2.69,2.69,0,0,1-.55-.75,1.81,1.81,0,0,1-.22-.89,2,2,0,0,1,.55-1.38,1.8,1.8,0,0,1,1.38-.6,1.7,1.7,0,0,1,1.21.53,13.65,13.65,0,0,0,4.08,2.8,12.11,12.11,0,0,0,5,1,10.38,10.38,0,0,0,3.84-.68,6.63,6.63,0,0,0,2.73-1.88,4.22,4.22,0,0,0,1-2.8,4.86,4.86,0,0,0-1.14-3.19,8.24,8.24,0,0,0-3-2.1,24.69,24.69,0,0,0-4.42-1.43,26.92,26.92,0,0,1-4.09-1.3,12.57,12.57,0,0,1-3.21-1.91,7.92,7.92,0,0,1-2.1-2.76,8.93,8.93,0,0,1-.75-3.79,8.2,8.2,0,0,1,1.45-4.83,9.39,9.39,0,0,1,4-3.21,14.36,14.36,0,0,1,5.89-1.14,15.89,15.89,0,0,1,5.58,1,10.69,10.69,0,0,1,4.23,2.66,2.53,2.53,0,0,1,1,1.78,1.83,1.83,0,0,1-.61,1.33,1.9,1.9,0,0,1-1.37.61,1.41,1.41,0,0,1-1-.39,8.34,8.34,0,0,0-2.08-1.64,11.9,11.9,0,0,0-2.75-1.16,10.73,10.73,0,0,0-3-.44,10.94,10.94,0,0,0-3.91.65,6.08,6.08,0,0,0-2.63,1.84,4.78,4.78,0,0,0,.12,5.85,7.83,7.83,0,0,0,2.85,1.93,31.09,31.09,0,0,0,4,1.33,39.1,39.1,0,0,1,4.37,1.32,13.37,13.37,0,0,1,3.46,1.87,7.49,7.49,0,0,1,2.24,2.82,9.89,9.89,0,0,1,.8,4.23,7.86,7.86,0,0,1-1.5,4.73,10,10,0,0,1-4.08,3.27A14.61,14.61,0,0,1,220.56,326.55Zm2.17,4.44a1.87,1.87,0,0,1-.55,1.38,1.94,1.94,0,0,1-1.43.55,1.77,1.77,0,0,1-1.35-.55,1.93,1.93,0,0,1-.53-1.38V288.86a2,2,0,0,1,.55-1.4,1.82,1.82,0,0,1,1.38-.58,1.79,1.79,0,0,1,1.4.58,2,2,0,0,1,.53,1.4Z"/></g></g></svg>