<svg xmlns="http://www.w3.org/2000/svg" viewBox="0 0 252.98 45.87"><defs><style>.cls-1{fill:#363026;}.cls-2{fill:#1f8ebe;}</style></defs><g id="Layer_2" data-name="Layer 2"><g id="Layer_1-2" data-name="Layer 1"><path class="cls-1" d="M126.5,10a.58.58,0,0,1-.43-.17.53.53,0,0,1-.17-.41v-8l.17.19-1.63,1a.51.51,0,0,1-.28.07.5.5,0,0,1-.4-.19.57.57,0,0,1-.17-.38.56.56,0,0,1,.29-.49L126.16.25a.81.81,0,0,1,.42-.08.46.46,0,0,1,.38.16.56.56,0,0,1,.14.4V9.39a.53.53,0,0,1-.17.41A.58.58,0,0,1,126.5,10Z"/><path class="cls-1" d="M134.82,10a.63.63,0,0,1-.41-.15.46.46,0,0,1-.18-.38.7.7,0,0,1,.05-.25L137.91,1l.16.25h-4.51a.49.49,0,0,1-.38-.16A.52.52,0,0,1,133,.69a.53.53,0,0,1,.16-.38.56.56,0,0,1,.38-.14h5.05a.61.61,0,0,1,.42.14.53.53,0,0,1,.15.39.65.65,0,0,1-.05.27l-3.8,8.69a.43.43,0,0,1-.2.26A.59.59,0,0,1,134.82,10Z"/><path class="cls-1" d="M142.66,10a.6.6,0,0,1-.44-.17.57.57,0,0,1-.17-.41v-8l.17.19-1.62,1a.55.55,0,0,1-.28.07.52.52,0,0,1-.41-.19.57.57,0,0,1-.17-.38.55.55,0,0,1,.3-.49L142.32.25a.77.77,0,0,1,.42-.08.46.46,0,0,1,.38.16.61.61,0,0,1,.14.4V9.39a.57.57,0,0,1-.17.41A.6.6,0,0,1,142.66,10Z"/><path class="cls-1" d="M151.2,8.92a.5.5,0,0,1,.37.15.49.49,0,0,1,.16.38.47.47,0,0,1-.16.37.5.5,0,0,1-.37.15h-5.09a.59.59,0,0,1-.41-.15.51.51,0,0,1-.16-.4.58.58,0,0,1,.17-.4l3.16-3.46a7.17,7.17,0,0,0,1-1.37A2.52,2.52,0,0,0,150.29,3,2,2,0,0,0,150,2a1.64,1.64,0,0,0-.68-.65,2.08,2.08,0,0,0-1-.23,2.18,2.18,0,0,0-1.07.29,2.07,2.07,0,0,0-.81.91.56.56,0,0,1-.21.22.54.54,0,0,1-.25.06.61.61,0,0,1-.38-.15.42.42,0,0,1-.18-.34.52.52,0,0,1,.09-.29c.06-.1.14-.19.22-.3A3,3,0,0,1,146.91.41a3.15,3.15,0,0,1,1.5-.38A3.41,3.41,0,0,1,150,.39a2.49,2.49,0,0,1,1,1,3,3,0,0,1,.35,1.47A3.25,3.25,0,0,1,151.24,4a4.39,4.39,0,0,1-.58,1.14,9.88,9.88,0,0,1-1,1.23l-2.45,2.72-.14-.14Z"/><path class="cls-1" d="M160,0a3.12,3.12,0,0,1,1.41.3,2.83,2.83,0,0,1,1,.82A3.79,3.79,0,0,1,163,2.28a4.25,4.25,0,0,1,.21,1.33A6.78,6.78,0,0,1,163.07,5a8,8,0,0,1-.47,1.49,7.32,7.32,0,0,1-.82,1.46,6.75,6.75,0,0,1-1.2,1.25A5.52,5.52,0,0,1,159,10a.7.7,0,0,1-.23,0,.65.65,0,0,1-.4-.14.51.51,0,0,1-.17-.42.52.52,0,0,1,.12-.34.8.8,0,0,1,.34-.22,4.75,4.75,0,0,0,1.45-.86,6.26,6.26,0,0,0,1.2-1.36A4.64,4.64,0,0,0,162,5l.34-.11a3,3,0,0,1-.59.7,2.94,2.94,0,0,1-.85.54,2.8,2.8,0,0,1-2.22,0,3.2,3.2,0,0,1-.93-.71,3.31,3.31,0,0,1-.64-1,3.14,3.14,0,0,1-.23-1.21,3.13,3.13,0,0,1,.41-1.58A3.22,3.22,0,0,1,158.38.44,3,3,0,0,1,160,0Zm0,1.05a1.94,1.94,0,0,0-1.75,1A2.23,2.23,0,0,0,158,3.18a2.38,2.38,0,0,0,.24,1.05,1.92,1.92,0,0,0,.69.8,1.9,1.9,0,0,0,1,.29A2.16,2.16,0,0,0,161.08,5a2,2,0,0,0,.74-.8,2.32,2.32,0,0,0,.25-1.08,2.13,2.13,0,0,0-.25-1,2,2,0,0,0-.72-.77A2.08,2.08,0,0,0,160,1.05Z"/><path class="cls-1" d="M169.68,10a.53.53,0,0,1-.4-.17.56.56,0,0,1-.16-.41V1.74l.22.08L166,6.19,165.94,6h5.12a.52.52,0,0,1,.38.15.54.54,0,0,1,.15.38.49.49,0,0,1-.15.36.52.52,0,0,1-.38.15h-5.89a.57.57,0,0,1-.39-.17.54.54,0,0,1-.17-.39.5.5,0,0,1,.14-.37L169.21.39a.53.53,0,0,1,.23-.17.56.56,0,0,1,.25,0,.5.5,0,0,1,.39.16.58.58,0,0,1,.16.4V9.39a.57.57,0,0,1-.17.41A.52.52,0,0,1,169.68,10Z"/><path class="cls-1" d="M175.57,10a3.85,3.85,0,0,1-1.14-.17,2.91,2.91,0,0,1-1-.53.8.8,0,0,1-.18-.25.82.82,0,0,1-.07-.29.53.53,0,0,1,.53-.49.69.69,0,0,1,.42.18,2.89,2.89,0,0,0,.69.38,2.22,2.22,0,0,0,.76.14,2.67,2.67,0,0,0,1.31-.31,2.4,2.4,0,0,0,.91-.85,2.35,2.35,0,0,0,.32-1.21,2.2,2.2,0,0,0-.28-1.13,1.91,1.91,0,0,0-.8-.74,2.46,2.46,0,0,0-1.17-.27,2.42,2.42,0,0,0-.88.15,4.28,4.28,0,0,0-.67.3,1,1,0,0,1-.47.15.7.7,0,0,1-.42-.12.55.55,0,0,1-.2-.3.76.76,0,0,1,0-.33l.55-3.71a.53.53,0,0,1,.19-.32.55.55,0,0,1,.38-.13h4.16a.54.54,0,0,1,.38.15A.52.52,0,0,1,179,.7a.52.52,0,0,1-.15.38.54.54,0,0,1-.38.15h-3.88l.14-.12-.52,3.23L174,4.05a1.53,1.53,0,0,1,.47-.28,3.38,3.38,0,0,1,.72-.24,3.47,3.47,0,0,1,.85-.1,3.26,3.26,0,0,1,1.63.41A3.09,3.09,0,0,1,178.8,5a3.18,3.18,0,0,1,.42,1.64A3.37,3.37,0,0,1,179,8a3.23,3.23,0,0,1-.77,1.09,3.52,3.52,0,0,1-1.16.71A4.05,4.05,0,0,1,175.57,10Z"/><path class="cls-1" d="M194.05,45.73a.58.58,0,0,1-.43-.17.53.53,0,0,1-.17-.41v-8l.17.19-1.63,1a.64.64,0,0,1-.28.07.53.53,0,0,1-.4-.19.55.55,0,0,1,.12-.88L193.71,36a.81.81,0,0,1,.42-.08.46.46,0,0,1,.38.16.56.56,0,0,1,.14.4v8.66a.53.53,0,0,1-.17.41A.58.58,0,0,1,194.05,45.73Z"/><path class="cls-1" d="M205.14,40.79l0-.2a2.86,2.86,0,0,1,.88.58,2.78,2.78,0,0,1,.62.83,2.18,2.18,0,0,1,.24,1,2.5,2.5,0,0,1-.42,1.4,3,3,0,0,1-1.12,1,3.43,3.43,0,0,1-3.14,0,2.93,2.93,0,0,1-1.11-1,2.5,2.5,0,0,1-.42-1.4,2.26,2.26,0,0,1,.26-1.1,2.76,2.76,0,0,1,.66-.81,3.47,3.47,0,0,1,.83-.54l-.07.23a2.68,2.68,0,0,1-.69-.46,2.35,2.35,0,0,1-.54-.73,2.13,2.13,0,0,1-.21-1,2.59,2.59,0,0,1,.38-1.37,2.63,2.63,0,0,1,1-1,3.06,3.06,0,0,1,2.88,0,2.74,2.74,0,0,1,1,1,2.5,2.5,0,0,1,.38,1.37,2.11,2.11,0,0,1-.22,1,2.5,2.5,0,0,1-.55.72A3,3,0,0,1,205.14,40.79Zm-1.4,4a2.05,2.05,0,0,0,1.42-.5,1.63,1.63,0,0,0,.55-1.25,1.68,1.68,0,0,0-.26-.92,2,2,0,0,0-.72-.63,2.19,2.19,0,0,0-1-.23,2.14,2.14,0,0,0-1,.23,2,2,0,0,0-.72.63,1.68,1.68,0,0,0-.26.92,1.63,1.63,0,0,0,.55,1.25A2,2,0,0,0,203.74,44.75ZM202,38.65a1.63,1.63,0,0,0,.23.88,1.56,1.56,0,0,0,.63.59,1.69,1.69,0,0,0,.86.22,1.73,1.73,0,0,0,1.48-.81,1.64,1.64,0,0,0,.24-.88,1.6,1.6,0,0,0-.48-1.2,1.74,1.74,0,0,0-1.24-.47,1.71,1.71,0,0,0-1.24.47A1.6,1.6,0,0,0,202,38.65Z"/><path class="cls-1" d="M212,45.87a2.89,2.89,0,0,1-1.94-.66,4,4,0,0,1-1.17-1.81,8.52,8.52,0,0,1,0-5.16A4,4,0,0,1,210,36.45a3.18,3.18,0,0,1,3.88,0,4,4,0,0,1,1.17,1.79,8.73,8.73,0,0,1,0,5.16,4,4,0,0,1-1.17,1.81A2.91,2.91,0,0,1,212,45.87Zm0-1.14a1.75,1.75,0,0,0,1.25-.47,3.05,3.05,0,0,0,.78-1.35,8.19,8.19,0,0,0,0-4.17,2.94,2.94,0,0,0-.78-1.35,1.9,1.9,0,0,0-2.5,0,3,3,0,0,0-.79,1.35,8.19,8.19,0,0,0,0,4.17,3.06,3.06,0,0,0,.79,1.35A1.75,1.75,0,0,0,212,44.73Z"/><path class="cls-1" d="M220.38,45.87a2.91,2.91,0,0,1-1.94-.66,4,4,0,0,1-1.17-1.81,8.52,8.52,0,0,1,0-5.16,4,4,0,0,1,1.17-1.79,3.18,3.18,0,0,1,3.88,0,4,4,0,0,1,1.17,1.79,8.73,8.73,0,0,1,0,5.16,4,4,0,0,1-1.17,1.81A2.89,2.89,0,0,1,220.38,45.87Zm0-1.14a1.76,1.76,0,0,0,1.26-.47,3,3,0,0,0,.77-1.35,8.19,8.19,0,0,0,0-4.17,2.85,2.85,0,0,0-.77-1.35,1.91,1.91,0,0,0-2.51,0,2.94,2.94,0,0,0-.78,1.35,7.9,7.9,0,0,0,0,4.17,3.05,3.05,0,0,0,.78,1.35A1.75,1.75,0,0,0,220.38,44.73Z"/><path class="cls-1" d="M232.65,45.87a2.89,2.89,0,0,1-1.94-.66,4.06,4.06,0,0,1-1.18-1.81,8.52,8.52,0,0,1,0-5.16,4,4,0,0,1,1.18-1.79,3.18,3.18,0,0,1,3.88,0,4.12,4.12,0,0,1,1.17,1.79,8.73,8.73,0,0,1,0,5.16,4.13,4.13,0,0,1-1.17,1.81A2.91,2.91,0,0,1,232.65,45.87Zm0-1.14a1.75,1.75,0,0,0,1.25-.47,3.05,3.05,0,0,0,.78-1.35,8.49,8.49,0,0,0,0-4.17,2.94,2.94,0,0,0-.78-1.35,1.8,1.8,0,0,0-1.25-.47,1.82,1.82,0,0,0-1.26.47,2.94,2.94,0,0,0-.78,1.35,8.19,8.19,0,0,0,0,4.17,3.05,3.05,0,0,0,.78,1.35A1.78,1.78,0,0,0,232.65,44.73Z"/><path class="cls-1" d="M241.06,45.87a2.91,2.91,0,0,1-1.94-.66A4,4,0,0,1,238,43.4a8.52,8.52,0,0,1,0-5.16,4,4,0,0,1,1.17-1.79,3.18,3.18,0,0,1,3.88,0,4,4,0,0,1,1.17,1.79,8.73,8.73,0,0,1,0,5.16A4,4,0,0,1,243,45.21,2.89,2.89,0,0,1,241.06,45.87Zm0-1.14a1.74,1.74,0,0,0,1.25-.47,3.05,3.05,0,0,0,.78-1.35,8.19,8.19,0,0,0,0-4.17,2.94,2.94,0,0,0-.78-1.35,1.9,1.9,0,0,0-2.5,0,3,3,0,0,0-.79,1.35,8.19,8.19,0,0,0,0,4.17,3.16,3.16,0,0,0,.79,1.35A1.75,1.75,0,0,0,241.06,44.73Z"/><path class="cls-1" d="M249.48,45.87a2.87,2.87,0,0,1-1.94-.66,4.06,4.06,0,0,1-1.18-1.81,8.52,8.52,0,0,1,0-5.16,4,4,0,0,1,1.18-1.79,3.17,3.17,0,0,1,3.87,0,4,4,0,0,1,1.17,1.79,8.52,8.52,0,0,1,0,5.16,4,4,0,0,1-1.17,1.81A2.86,2.86,0,0,1,249.48,45.87Zm0-1.14a1.75,1.75,0,0,0,1.25-.47,3.05,3.05,0,0,0,.78-1.35,8.49,8.49,0,0,0,0-4.17,2.94,2.94,0,0,0-.78-1.35,1.91,1.91,0,0,0-2.51,0,2.94,2.94,0,0,0-.78,1.35,8.19,8.19,0,0,0,0,4.17,3.05,3.05,0,0,0,.78,1.35A1.76,1.76,0,0,0,249.48,44.73Z"/><path class="cls-1" d="M3.55,45.73a.6.6,0,0,1-.43-.17A.57.57,0,0,1,3,45.15v-8l.17.19-1.62,1a.68.68,0,0,1-.28.07.55.55,0,0,1-.41-.19.61.61,0,0,1-.17-.39.56.56,0,0,1,.3-.49L3.22,36a.77.77,0,0,1,.42-.08.48.48,0,0,1,.38.16.61.61,0,0,1,.14.4v8.66a.57.57,0,0,1-.17.41A.6.6,0,0,1,3.55,45.73Z"/><path class="cls-1" d="M12.44,45.79a3.87,3.87,0,0,1-1.14-.18,3,3,0,0,1-1-.53.52.52,0,0,1-.18-.25.65.65,0,0,1-.07-.29.53.53,0,0,1,.14-.33.5.5,0,0,1,.39-.16.74.74,0,0,1,.42.18,2.38,2.38,0,0,0,.68.38,2.31,2.31,0,0,0,.76.14,2.74,2.74,0,0,0,1.32-.31,2.3,2.3,0,0,0,.9-.85A2.27,2.27,0,0,0,15,42.38a2.15,2.15,0,0,0-.29-1.12,1.87,1.87,0,0,0-.8-.75,2.66,2.66,0,0,0-2.05-.12,6.26,6.26,0,0,0-.67.3,1.05,1.05,0,0,1-.46.15.66.66,0,0,1-.42-.12.52.52,0,0,1-.2-.3.77.77,0,0,1,0-.33l.55-3.71a.58.58,0,0,1,.2-.32.52.52,0,0,1,.37-.13h4.16a.52.52,0,0,1,.38.15.54.54,0,0,1,.15.38.51.51,0,0,1-.53.53H11.46l.14-.12-.51,3.23-.23-.29a1.53,1.53,0,0,1,.47-.28,3.29,3.29,0,0,1,.73-.24,3.41,3.41,0,0,1,.85-.1,3.29,3.29,0,0,1,1.63.41,3.09,3.09,0,0,1,1.14,1.13,3.18,3.18,0,0,1,.42,1.64,3.21,3.21,0,0,1-.28,1.36,3.09,3.09,0,0,1-.77,1.09,3.27,3.27,0,0,1-1.16.71A4,4,0,0,1,12.44,45.79Z"/><path class="cls-1" d="M21.28,45.87a2.89,2.89,0,0,1-1.94-.66,4.06,4.06,0,0,1-1.18-1.81,8.52,8.52,0,0,1,0-5.16,4,4,0,0,1,1.18-1.79,3.18,3.18,0,0,1,3.88,0,4.12,4.12,0,0,1,1.17,1.79,8.73,8.73,0,0,1,0,5.16,4.13,4.13,0,0,1-1.17,1.81A2.91,2.91,0,0,1,21.28,45.87Zm0-1.14a1.75,1.75,0,0,0,1.25-.47,3.05,3.05,0,0,0,.78-1.35,8.49,8.49,0,0,0,0-4.17,2.94,2.94,0,0,0-.78-1.35,1.8,1.8,0,0,0-1.25-.47,1.82,1.82,0,0,0-1.26.47,2.94,2.94,0,0,0-.78,1.35,8.19,8.19,0,0,0,0,4.17A3.05,3.05,0,0,0,20,44.26,1.78,1.78,0,0,0,21.28,44.73Z"/><path class="cls-1" d="M29.69,45.87a2.91,2.91,0,0,1-1.94-.66,4,4,0,0,1-1.17-1.81,8.52,8.52,0,0,1,0-5.16,4,4,0,0,1,1.17-1.79,3.18,3.18,0,0,1,3.88,0,4,4,0,0,1,1.17,1.79,8.73,8.73,0,0,1,0,5.16,4,4,0,0,1-1.17,1.81A2.89,2.89,0,0,1,29.69,45.87Zm0-1.14a1.74,1.74,0,0,0,1.25-.47,3,3,0,0,0,.78-1.35,8.19,8.19,0,0,0,0-4.17,2.86,2.86,0,0,0-.78-1.35,1.9,1.9,0,0,0-2.5,0,3,3,0,0,0-.79,1.35,8.19,8.19,0,0,0,0,4.17,3.16,3.16,0,0,0,.79,1.35A1.75,1.75,0,0,0,29.69,44.73Z"/><path class="cls-1" d="M42,45.87A2.87,2.87,0,0,1,40,45.21a4.06,4.06,0,0,1-1.18-1.81,8.52,8.52,0,0,1,0-5.16A4,4,0,0,1,40,36.45a3.17,3.17,0,0,1,3.87,0,4,4,0,0,1,1.17,1.79,8.52,8.52,0,0,1,0,5.16,4,4,0,0,1-1.17,1.81A2.86,2.86,0,0,1,42,45.87Zm0-1.14a1.75,1.75,0,0,0,1.25-.47A3.05,3.05,0,0,0,44,42.91a8.49,8.49,0,0,0,0-4.17,2.94,2.94,0,0,0-.78-1.35,1.91,1.91,0,0,0-2.51,0,2.94,2.94,0,0,0-.78,1.35,8.19,8.19,0,0,0,0,4.17,3.05,3.05,0,0,0,.78,1.35A1.76,1.76,0,0,0,42,44.73Z"/><path class="cls-1" d="M50.37,45.87a2.89,2.89,0,0,1-1.94-.66,4.06,4.06,0,0,1-1.18-1.81,8.73,8.73,0,0,1,0-5.16,4,4,0,0,1,1.18-1.79,3.18,3.18,0,0,1,3.88,0,4,4,0,0,1,1.17,1.79,8.73,8.73,0,0,1,0,5.16,4,4,0,0,1-1.17,1.81A2.91,2.91,0,0,1,50.37,45.87Zm0-1.14a1.75,1.75,0,0,0,1.25-.47,3.05,3.05,0,0,0,.78-1.35,8.19,8.19,0,0,0,0-4.17,2.94,2.94,0,0,0-.78-1.35,1.9,1.9,0,0,0-2.5,0,3,3,0,0,0-.79,1.35,8.19,8.19,0,0,0,0,4.17,3.06,3.06,0,0,0,.79,1.35A1.74,1.74,0,0,0,50.37,44.73Z"/><path class="cls-1" d="M58.78,45.87a2.91,2.91,0,0,1-1.94-.66,4.13,4.13,0,0,1-1.17-1.81,8.52,8.52,0,0,1,0-5.16,4.12,4.12,0,0,1,1.17-1.79,3.18,3.18,0,0,1,3.88,0,4,4,0,0,1,1.17,1.79,8.73,8.73,0,0,1,0,5.16,4,4,0,0,1-1.17,1.81A2.89,2.89,0,0,1,58.78,45.87Zm0-1.14A1.76,1.76,0,0,0,60,44.26a3,3,0,0,0,.77-1.35,8.19,8.19,0,0,0,0-4.17A2.85,2.85,0,0,0,60,37.39a1.91,1.91,0,0,0-2.51,0,2.94,2.94,0,0,0-.78,1.35,7.9,7.9,0,0,0,0,4.17,3.05,3.05,0,0,0,.78,1.35A1.75,1.75,0,0,0,58.78,44.73Z"/><path class="cls-2" d="M249.35,22.28H2c-.26,0-.46-.42-.46-.94s.2-.94.46-.94h247.4c.26,0,.47.42.47.94S249.61,22.28,249.35,22.28Z"/><polygon class="cls-2" points="8.29 29.05 9.57 27.67 2.77 21.34 9.57 15.02 8.29 13.63 0 21.34 8.29 29.05"/><polygon class="cls-2" points="242.63 29.05 241.35 27.67 248.15 21.34 241.35 15.02 242.63 13.63 250.92 21.34 242.63 29.05"/><path class="cls-2" d="M214.18,30.87a.94.94,0,0,1-.94-.94V12.86a.95.95,0,1,1,1.89,0V29.93A1,1,0,0,1,214.18,30.87Z"/><path class="cls-2" d="M155.18,30.87a1,1,0,0,1-1-.94V12.86a.95.95,0,1,1,1.89,0V29.93A.94.94,0,0,1,155.18,30.87Z"/><path class="cls-2" d="M35.69,30.87a1,1,0,0,1-.95-.94V12.86a.95.95,0,1,1,1.89,0V29.93A.94.94,0,0,1,35.69,30.87Z"/></g></g></svg>