<svg xmlns="http://www.w3.org/2000/svg" viewBox="0 0 252.98 45.91"><defs><style>.cls-1{fill:#363026;}.cls-2{fill:#1f8ebe;}</style></defs><g id="Layer_2" data-name="Layer 2"><g id="Layer_1-2" data-name="Layer 1"><path class="cls-1" d="M79.29,10a.62.62,0,0,1-.44-.17.56.56,0,0,1-.17-.4v-8l.17.2-1.62,1a.68.68,0,0,1-.28.07.55.55,0,0,1-.41-.19.61.61,0,0,1-.17-.39.56.56,0,0,1,.3-.49L79,.29a.77.77,0,0,1,.42-.08.46.46,0,0,1,.38.16.61.61,0,0,1,.14.4V9.44a.56.56,0,0,1-.17.4A.6.6,0,0,1,79.29,10Z"/><path class="cls-1" d="M88.92,10.15a3.18,3.18,0,0,1-1.41-.3,2.88,2.88,0,0,1-1-.82,3.81,3.81,0,0,1-.62-1.16,4.25,4.25,0,0,1-.21-1.33,7,7,0,0,1,.15-1.35,9.74,9.74,0,0,1,.47-1.52,8.08,8.08,0,0,1,.82-1.49A6.65,6.65,0,0,1,88.32.9,4.9,4.9,0,0,1,89.93,0l.22,0a.7.7,0,0,1,.4.12.47.47,0,0,1,.18.43.53.53,0,0,1-.13.34.75.75,0,0,1-.34.22,4.77,4.77,0,0,0-1.1.6,5.85,5.85,0,0,0-1,.94,6.37,6.37,0,0,0-.78,1.16,4.81,4.81,0,0,0-.46,1.3l-.33.11a3,3,0,0,1,.6-.71A2.84,2.84,0,0,1,88,4a2.67,2.67,0,0,1,1.06-.21A2.53,2.53,0,0,1,90.25,4a3.24,3.24,0,0,1,.94.71,3.28,3.28,0,0,1,.63,1A3.15,3.15,0,0,1,92.06,7a3.09,3.09,0,0,1-.42,1.58,3.27,3.27,0,0,1-1.12,1.16A3,3,0,0,1,88.92,10.15Zm0-1.05a1.92,1.92,0,0,0,1.75-1A2.21,2.21,0,0,0,90.92,7a2.36,2.36,0,0,0-.24-1.06A1.93,1.93,0,0,0,90,5.12a1.8,1.8,0,0,0-1-.3,2.1,2.1,0,0,0-1.14.29,2.05,2.05,0,0,0-.73.79A2.26,2.26,0,0,0,86.82,7a2.19,2.19,0,0,0,.25,1A2,2,0,0,0,88.9,9.1Z"/><path class="cls-1" d="M95.75,10.07a3.87,3.87,0,0,1-1.14-.18,3.07,3.07,0,0,1-1-.52.86.86,0,0,1-.18-.26.82.82,0,0,1-.07-.29.53.53,0,0,1,.53-.49.69.69,0,0,1,.42.18,2.58,2.58,0,0,0,.69.38,2.22,2.22,0,0,0,.76.14,2.67,2.67,0,0,0,1.31-.31A2.38,2.38,0,0,0,98,7.88a2.29,2.29,0,0,0,.32-1.22A2.14,2.14,0,0,0,98,5.54a1.87,1.87,0,0,0-.8-.75A2.46,2.46,0,0,0,96,4.52a2.42,2.42,0,0,0-.88.15,5.47,5.47,0,0,0-.67.3,1.05,1.05,0,0,1-.46.15A.71.71,0,0,1,93.59,5a.49.49,0,0,1-.2-.3.76.76,0,0,1,0-.33L93.92.66a.56.56,0,0,1,.57-.45h4.16A.54.54,0,0,1,99,.36a.54.54,0,0,1,.15.38.52.52,0,0,1-.15.38.54.54,0,0,1-.38.15H94.77l.14-.12-.52,3.23-.22-.29a1.53,1.53,0,0,1,.47-.28,3.29,3.29,0,0,1,.73-.24,3.33,3.33,0,0,1,.84-.1,3.26,3.26,0,0,1,1.63.41A3.17,3.17,0,0,1,99,5a3.08,3.08,0,0,1,.42,1.64A3.37,3.37,0,0,1,99.13,8a3.23,3.23,0,0,1-.77,1.09,3.36,3.36,0,0,1-1.16.71A4,4,0,0,1,95.75,10.07Z"/><path class="cls-1" d="M103.35,10a.6.6,0,0,1-.43-.17.56.56,0,0,1-.17-.4v-8l.17.2-1.63,1a.61.61,0,0,1-.28.07.54.54,0,0,1-.4-.19.61.61,0,0,1-.17-.39.57.57,0,0,1,.29-.49L103,.29a.77.77,0,0,1,.42-.08.44.44,0,0,1,.37.16.56.56,0,0,1,.14.4V9.44a.55.55,0,0,1-.16.4A.62.62,0,0,1,103.35,10Z"/><path class="cls-1" d="M114.44,5.07l0-.2a2.86,2.86,0,0,1,.88.58,2.81,2.81,0,0,1,.63.83,2.3,2.3,0,0,1,.23,1,2.57,2.57,0,0,1-.41,1.4,3,3,0,0,1-1.12,1,3.35,3.35,0,0,1-1.58.38,3.28,3.28,0,0,1-1.57-.38,3,3,0,0,1-1.11-1,2.49,2.49,0,0,1-.41-1.4,2.16,2.16,0,0,1,.26-1.1,2.73,2.73,0,0,1,.65-.81,3.52,3.52,0,0,1,.84-.54l-.07.23a2.57,2.57,0,0,1-.7-.46,2.35,2.35,0,0,1-.54-.73,2.13,2.13,0,0,1-.21-1,2.59,2.59,0,0,1,.38-1.37,2.63,2.63,0,0,1,1-1A3,3,0,0,1,113,.21a2.9,2.9,0,0,1,1.44.36,2.74,2.74,0,0,1,1,1,2.51,2.51,0,0,1,.39,1.37,2.11,2.11,0,0,1-.23,1,2.37,2.37,0,0,1-.55.72A3,3,0,0,1,114.44,5.07ZM113,9a2.05,2.05,0,0,0,1.42-.5A1.63,1.63,0,0,0,115,7.28a1.6,1.6,0,0,0-.26-.92,2,2,0,0,0-.72-.63,2.22,2.22,0,0,0-2,0,1.89,1.89,0,0,0-.71.63,1.61,1.61,0,0,0-.27.92,1.63,1.63,0,0,0,.55,1.25A2,2,0,0,0,113,9Zm-1.72-6.1a1.61,1.61,0,0,0,.23.88,1.56,1.56,0,0,0,.63.59,1.72,1.72,0,0,0,.86.22,1.67,1.67,0,0,0,.86-.22,1.65,1.65,0,0,0,.86-1.47,1.6,1.6,0,0,0-.48-1.2,1.87,1.87,0,0,0-2.48,0A1.6,1.6,0,0,0,111.32,2.93Z"/><path class="cls-1" d="M120.89,0a3.15,3.15,0,0,1,1.41.3,2.94,2.94,0,0,1,1,.82,3.79,3.79,0,0,1,.61,1.16,4.3,4.3,0,0,1,.21,1.33A6.78,6.78,0,0,1,124,5a8,8,0,0,1-.47,1.49,7.05,7.05,0,0,1-.82,1.46,6.75,6.75,0,0,1-1.2,1.25,5.3,5.3,0,0,1-1.61.86.7.7,0,0,1-.23,0,.59.59,0,0,1-.4-.14.51.51,0,0,1-.17-.42.52.52,0,0,1,.12-.34.8.8,0,0,1,.34-.22A4.75,4.75,0,0,0,121,8.11a6,6,0,0,0,1.2-1.36,4.64,4.64,0,0,0,.68-1.67l.34-.11a3.23,3.23,0,0,1-.59.71,3.08,3.08,0,0,1-.85.54,2.75,2.75,0,0,1-2.22,0,3.2,3.2,0,0,1-.93-.71,3.34,3.34,0,0,1-.87-2.24,3.13,3.13,0,0,1,.41-1.58A3.3,3.3,0,0,1,119.3.48,3,3,0,0,1,120.89,0Zm0,1.05a2,2,0,0,0-1,.27,2.16,2.16,0,0,0-.72.75,2.23,2.23,0,0,0-.27,1.11,2.42,2.42,0,0,0,.24,1.06,2,2,0,0,0,.69.79,1.9,1.9,0,0,0,1.05.29A2.16,2.16,0,0,0,122,5.07a2,2,0,0,0,.73-.79A2.25,2.25,0,0,0,123,3.19a2.13,2.13,0,0,0-.25-1,2,2,0,0,0-1.83-1.06Z"/><path class="cls-1" d="M131.49,9a.52.52,0,0,1,.38.15.54.54,0,0,1,.15.38.5.5,0,0,1-.15.37.52.52,0,0,1-.38.15h-5.08a.56.56,0,0,1-.41-.15.51.51,0,0,1-.16-.4.57.57,0,0,1,.16-.4l3.17-3.46a7.17,7.17,0,0,0,1.05-1.37A2.47,2.47,0,0,0,130.58,3a2,2,0,0,0-.24-1,1.7,1.7,0,0,0-.68-.65,2.19,2.19,0,0,0-1-.23,2.21,2.21,0,0,0-1.08.29,2,2,0,0,0-.8.91.58.58,0,0,1-.22.22.53.53,0,0,1-.24.06.64.64,0,0,1-.38-.14.45.45,0,0,1-.18-.35.52.52,0,0,1,.09-.29,2.47,2.47,0,0,1,.22-.29A2.87,2.87,0,0,1,127.21.45a3.21,3.21,0,0,1,1.5-.38,3.47,3.47,0,0,1,1.63.36,2.47,2.47,0,0,1,1,1,3,3,0,0,1,.36,1.48A3.24,3.24,0,0,1,131.54,4,5.12,5.12,0,0,1,131,5.15a9.88,9.88,0,0,1-1,1.23L127.52,9.1,127.38,9Z"/><path class="cls-1" d="M194.05,45.77a.58.58,0,0,1-.43-.17.51.51,0,0,1-.17-.4v-8l.17.2-1.63,1a.64.64,0,0,1-.28.07.53.53,0,0,1-.4-.19.55.55,0,0,1,.12-.88l2.28-1.36a.81.81,0,0,1,.42-.08.46.46,0,0,1,.38.16.61.61,0,0,1,.14.4V45.2a.51.51,0,0,1-.17.4A.58.58,0,0,1,194.05,45.77Z"/><path class="cls-1" d="M205.14,40.83l0-.2a2.86,2.86,0,0,1,.88.58,2.78,2.78,0,0,1,.62.83,2.18,2.18,0,0,1,.24,1,2.5,2.5,0,0,1-.42,1.4,3,3,0,0,1-1.12,1,3.43,3.43,0,0,1-3.14,0,2.93,2.93,0,0,1-1.11-1,2.5,2.5,0,0,1-.42-1.4,2.29,2.29,0,0,1,.26-1.1,2.76,2.76,0,0,1,.66-.81,3.8,3.8,0,0,1,.83-.54l-.07.23a2.56,2.56,0,0,1-1.23-1.18,2.21,2.21,0,0,1-.21-1,2.59,2.59,0,0,1,.38-1.37,2.7,2.7,0,0,1,1-1,3.06,3.06,0,0,1,2.88,0,2.82,2.82,0,0,1,1,1,2.5,2.5,0,0,1,.38,1.37,2.08,2.08,0,0,1-.22,1,2.37,2.37,0,0,1-.55.72A2.71,2.71,0,0,1,205.14,40.83Zm-1.4,4a2.05,2.05,0,0,0,1.42-.5,1.62,1.62,0,0,0,.55-1.25,1.7,1.7,0,0,0-.26-.92,2,2,0,0,0-.72-.63,2.19,2.19,0,0,0-1-.23,2.14,2.14,0,0,0-1,.23,2,2,0,0,0-.72.63,1.7,1.7,0,0,0-.26.92,1.62,1.62,0,0,0,.55,1.25A2,2,0,0,0,203.74,44.79ZM202,38.69a1.61,1.61,0,0,0,.23.88,1.56,1.56,0,0,0,.63.59,1.69,1.69,0,0,0,.86.22,1.67,1.67,0,0,0,.86-.22,1.75,1.75,0,0,0,.62-.59,1.74,1.74,0,0,0-.24-2.08,1.74,1.74,0,0,0-1.24-.47,1.71,1.71,0,0,0-1.24.47A1.6,1.6,0,0,0,202,38.69Z"/><path class="cls-1" d="M212,45.91a2.89,2.89,0,0,1-1.94-.66,4.08,4.08,0,0,1-1.18-1.8,8.76,8.76,0,0,1,0-5.17A4,4,0,0,1,210,36.49a3.18,3.18,0,0,1,3.88,0,4,4,0,0,1,1.17,1.79,8.76,8.76,0,0,1,0,5.17,4,4,0,0,1-1.17,1.8A2.91,2.91,0,0,1,212,45.91Zm0-1.13a1.76,1.76,0,0,0,1.25-.48A3.05,3.05,0,0,0,214,43a8.19,8.19,0,0,0,0-4.17,3,3,0,0,0-.78-1.35,1.9,1.9,0,0,0-2.5,0,3,3,0,0,0-.79,1.35,8.19,8.19,0,0,0,0,4.17,3.06,3.06,0,0,0,.79,1.35A1.76,1.76,0,0,0,212,44.78Z"/><path class="cls-1" d="M220.38,45.91a2.91,2.91,0,0,1-1.94-.66,4.06,4.06,0,0,1-1.17-1.8,8.55,8.55,0,0,1,0-5.17,4,4,0,0,1,1.17-1.79,3.18,3.18,0,0,1,3.88,0,4,4,0,0,1,1.17,1.79,8.76,8.76,0,0,1,0,5.17,4,4,0,0,1-1.17,1.8A2.89,2.89,0,0,1,220.38,45.91Zm0-1.13a1.77,1.77,0,0,0,1.26-.48,3,3,0,0,0,.77-1.35,8.19,8.19,0,0,0,0-4.17,2.9,2.9,0,0,0-.77-1.35,1.91,1.91,0,0,0-2.51,0,3,3,0,0,0-.78,1.35,7.9,7.9,0,0,0,0,4.17,3.05,3.05,0,0,0,.78,1.35A1.76,1.76,0,0,0,220.38,44.78Z"/><path class="cls-1" d="M232.65,45.91a2.89,2.89,0,0,1-1.94-.66,4.08,4.08,0,0,1-1.18-1.8,8.55,8.55,0,0,1,0-5.17,4,4,0,0,1,1.18-1.79,3.18,3.18,0,0,1,3.88,0,4.12,4.12,0,0,1,1.17,1.79,8.76,8.76,0,0,1,0,5.17,4.15,4.15,0,0,1-1.17,1.8A2.91,2.91,0,0,1,232.65,45.91Zm0-1.13a1.76,1.76,0,0,0,1.25-.48,3.05,3.05,0,0,0,.78-1.35,8.49,8.49,0,0,0,0-4.17,3,3,0,0,0-.78-1.35,1.91,1.91,0,0,0-2.51,0,3,3,0,0,0-.78,1.35,8.19,8.19,0,0,0,0,4.17,3.05,3.05,0,0,0,.78,1.35A1.77,1.77,0,0,0,232.65,44.78Z"/><path class="cls-1" d="M241.06,45.91a2.91,2.91,0,0,1-1.94-.66,4,4,0,0,1-1.17-1.8,8.55,8.55,0,0,1,0-5.17,4,4,0,0,1,1.17-1.79,3.18,3.18,0,0,1,3.88,0,4,4,0,0,1,1.17,1.79,8.76,8.76,0,0,1,0,5.17,4,4,0,0,1-1.17,1.8A2.89,2.89,0,0,1,241.06,45.91Zm0-1.13a1.74,1.74,0,0,0,1.25-.48,3.05,3.05,0,0,0,.78-1.35,8.19,8.19,0,0,0,0-4.17,3,3,0,0,0-.78-1.35,1.9,1.9,0,0,0-2.5,0,3.1,3.1,0,0,0-.79,1.35A8.19,8.19,0,0,0,239,43a3.16,3.16,0,0,0,.79,1.35A1.76,1.76,0,0,0,241.06,44.78Z"/><path class="cls-1" d="M249.48,45.91a2.87,2.87,0,0,1-1.94-.66,4.08,4.08,0,0,1-1.18-1.8,8.55,8.55,0,0,1,0-5.17,4,4,0,0,1,1.18-1.79,3.17,3.17,0,0,1,3.87,0,4,4,0,0,1,1.17,1.79,8.55,8.55,0,0,1,0,5.17,4,4,0,0,1-1.17,1.8A2.86,2.86,0,0,1,249.48,45.91Zm0-1.13a1.76,1.76,0,0,0,1.25-.48,3.05,3.05,0,0,0,.78-1.35,8.49,8.49,0,0,0,0-4.17,3,3,0,0,0-.78-1.35,1.91,1.91,0,0,0-2.51,0,3,3,0,0,0-.78,1.35,8.19,8.19,0,0,0,0,4.17,3.05,3.05,0,0,0,.78,1.35A1.77,1.77,0,0,0,249.48,44.78Z"/><path class="cls-1" d="M3.55,45.77a.6.6,0,0,1-.43-.17A.54.54,0,0,1,3,45.2v-8l.17.2-1.62,1a.68.68,0,0,1-.28.07.55.55,0,0,1-.41-.19.61.61,0,0,1-.17-.39.56.56,0,0,1,.3-.49l2.28-1.36A.77.77,0,0,1,3.64,36a.48.48,0,0,1,.38.16.61.61,0,0,1,.14.4V45.2a.54.54,0,0,1-.17.4A.6.6,0,0,1,3.55,45.77Z"/><path class="cls-1" d="M12.44,45.83a3.87,3.87,0,0,1-1.14-.18,2.94,2.94,0,0,1-1-.52.61.61,0,0,1-.18-.26.65.65,0,0,1-.07-.29.53.53,0,0,1,.14-.33.5.5,0,0,1,.39-.16.74.74,0,0,1,.42.18,2.38,2.38,0,0,0,.68.38,2.31,2.31,0,0,0,.76.14,2.74,2.74,0,0,0,1.32-.31,2.28,2.28,0,0,0,.9-.84A2.3,2.3,0,0,0,15,42.42a2.17,2.17,0,0,0-.29-1.12,2,2,0,0,0-.8-.75,2.66,2.66,0,0,0-2.05-.12,6.26,6.26,0,0,0-.67.3,1.05,1.05,0,0,1-.46.15.72.72,0,0,1-.42-.11.54.54,0,0,1-.2-.31.77.77,0,0,1,0-.33l.55-3.71a.58.58,0,0,1,.2-.32.52.52,0,0,1,.37-.13h4.16a.52.52,0,0,1,.38.15.54.54,0,0,1,.15.38.51.51,0,0,1-.53.53H11.46l.14-.12-.51,3.23-.23-.29a1.53,1.53,0,0,1,.47-.28,4.81,4.81,0,0,1,.73-.24,3.41,3.41,0,0,1,.85-.1,3.19,3.19,0,0,1,1.63.42,3.06,3.06,0,0,1,1.14,1.12,3.18,3.18,0,0,1,.42,1.64,3.23,3.23,0,0,1-1,2.45,3.59,3.59,0,0,1-1.17.72A4.2,4.2,0,0,1,12.44,45.83Z"/><path class="cls-1" d="M21.28,45.91a2.89,2.89,0,0,1-1.94-.66,4.08,4.08,0,0,1-1.18-1.8,8.55,8.55,0,0,1,0-5.17,4,4,0,0,1,1.18-1.79,3.18,3.18,0,0,1,3.88,0,4.12,4.12,0,0,1,1.17,1.79,8.76,8.76,0,0,1,0,5.17,4.15,4.15,0,0,1-1.17,1.8A2.91,2.91,0,0,1,21.28,45.91Zm0-1.13a1.76,1.76,0,0,0,1.25-.48A3.05,3.05,0,0,0,23.31,43a8.49,8.49,0,0,0,0-4.17,3,3,0,0,0-.78-1.35A1.8,1.8,0,0,0,21.28,37a1.82,1.82,0,0,0-1.26.47,3,3,0,0,0-.78,1.35,8.19,8.19,0,0,0,0,4.17A3.05,3.05,0,0,0,20,44.3,1.79,1.79,0,0,0,21.28,44.78Z"/><path class="cls-1" d="M29.69,45.91a2.91,2.91,0,0,1-1.94-.66,4,4,0,0,1-1.17-1.8,8.55,8.55,0,0,1,0-5.17,4,4,0,0,1,1.17-1.79,3.18,3.18,0,0,1,3.88,0,4,4,0,0,1,1.17,1.79,8.76,8.76,0,0,1,0,5.17,4,4,0,0,1-1.17,1.8A2.89,2.89,0,0,1,29.69,45.91Zm0-1.13a1.74,1.74,0,0,0,1.25-.48A3,3,0,0,0,31.72,43a8.19,8.19,0,0,0,0-4.17,2.91,2.91,0,0,0-.78-1.35,1.9,1.9,0,0,0-2.5,0,3.1,3.1,0,0,0-.79,1.35,8.19,8.19,0,0,0,0,4.17,3.16,3.16,0,0,0,.79,1.35A1.76,1.76,0,0,0,29.69,44.78Z"/><path class="cls-1" d="M42,45.91A2.87,2.87,0,0,1,40,45.25a4.08,4.08,0,0,1-1.18-1.8,8.55,8.55,0,0,1,0-5.17A4,4,0,0,1,40,36.49a3.17,3.17,0,0,1,3.87,0,4,4,0,0,1,1.17,1.79,8.55,8.55,0,0,1,0,5.17,4,4,0,0,1-1.17,1.8A2.86,2.86,0,0,1,42,45.91Zm0-1.13a1.76,1.76,0,0,0,1.25-.48A3.05,3.05,0,0,0,44,43a8.49,8.49,0,0,0,0-4.17,3,3,0,0,0-.78-1.35,1.91,1.91,0,0,0-2.51,0,3,3,0,0,0-.78,1.35,8.19,8.19,0,0,0,0,4.17,3.05,3.05,0,0,0,.78,1.35A1.77,1.77,0,0,0,42,44.78Z"/><path class="cls-1" d="M50.37,45.91a2.89,2.89,0,0,1-1.94-.66,4.08,4.08,0,0,1-1.18-1.8,8.76,8.76,0,0,1,0-5.17,4,4,0,0,1,1.18-1.79,3.18,3.18,0,0,1,3.88,0,4,4,0,0,1,1.17,1.79,8.76,8.76,0,0,1,0,5.17,4,4,0,0,1-1.17,1.8A2.91,2.91,0,0,1,50.37,45.91Zm0-1.13a1.76,1.76,0,0,0,1.25-.48A3.05,3.05,0,0,0,52.4,43a8.19,8.19,0,0,0,0-4.17,3,3,0,0,0-.78-1.35,1.9,1.9,0,0,0-2.5,0,3,3,0,0,0-.79,1.35,8.19,8.19,0,0,0,0,4.17,3.06,3.06,0,0,0,.79,1.35A1.74,1.74,0,0,0,50.37,44.78Z"/><path class="cls-1" d="M58.78,45.91a2.91,2.91,0,0,1-1.94-.66,4.06,4.06,0,0,1-1.17-1.8,8.55,8.55,0,0,1,0-5.17,4,4,0,0,1,1.17-1.79,3.18,3.18,0,0,1,3.88,0,4,4,0,0,1,1.17,1.79,8.76,8.76,0,0,1,0,5.17,4,4,0,0,1-1.17,1.8A2.89,2.89,0,0,1,58.78,45.91Zm0-1.13A1.77,1.77,0,0,0,60,44.3,3,3,0,0,0,60.81,43a8.19,8.19,0,0,0,0-4.17A2.9,2.9,0,0,0,60,37.43a1.91,1.91,0,0,0-2.51,0,3,3,0,0,0-.78,1.35,7.9,7.9,0,0,0,0,4.17,3.05,3.05,0,0,0,.78,1.35A1.76,1.76,0,0,0,58.78,44.78Z"/><path class="cls-2" d="M249.35,22.32H2c-.26,0-.46-.42-.46-.94s.2-.94.46-.94h247.4c.26,0,.47.42.47.94S249.61,22.32,249.35,22.32Z"/><polygon class="cls-2" points="8.29 29.09 9.57 27.71 2.77 21.38 9.57 15.06 8.29 13.68 0 21.38 8.29 29.09"/><polygon class="cls-2" points="242.63 29.09 241.35 27.71 248.15 21.38 241.35 15.06 242.63 13.68 250.92 21.38 242.63 29.09"/><path class="cls-2" d="M214.18,30.91a.94.94,0,0,1-.94-.94V12.9a.95.95,0,0,1,1.89,0V30A1,1,0,0,1,214.18,30.91Z"/><path class="cls-2" d="M105.14,30.91a.94.94,0,0,1-.94-.94V12.9a.94.94,0,1,1,1.88,0V30A.94.94,0,0,1,105.14,30.91Z"/><path class="cls-2" d="M35.69,30.91a1,1,0,0,1-.95-.94V12.9a.95.95,0,0,1,1.89,0V30A.94.94,0,0,1,35.69,30.91Z"/></g></g></svg>