<svg xmlns="http://www.w3.org/2000/svg" viewBox="0 0 252.98 45.84"><defs><style>.cls-1{fill:#363026;}.cls-2{fill:#1f8ebe;}</style></defs><g id="Layer_2" data-name="Layer 2"><g id="Layer_1-2" data-name="Layer 1"><path class="cls-1" d="M41.87,9.94a.6.6,0,0,1-.43-.17.56.56,0,0,1-.17-.4v-8l.17.2-1.62,1a.68.68,0,0,1-.28.07.55.55,0,0,1-.41-.19A.61.61,0,0,1,39,2.07a.56.56,0,0,1,.3-.49L41.54.22A.77.77,0,0,1,42,.14a.48.48,0,0,1,.38.16.61.61,0,0,1,.14.4V9.37a.56.56,0,0,1-.17.4A.6.6,0,0,1,41.87,9.94Z"/><path class="cls-1" d="M50.76,10a3.87,3.87,0,0,1-1.14-.18,3.12,3.12,0,0,1-1-.52A.61.61,0,0,1,48.43,9a.65.65,0,0,1-.07-.29.48.48,0,0,1,.14-.33.5.5,0,0,1,.39-.16.74.74,0,0,1,.42.18,2.38,2.38,0,0,0,.68.38,2.31,2.31,0,0,0,.76.14,2.74,2.74,0,0,0,1.32-.31A2.3,2.3,0,0,0,53,7.8a2.24,2.24,0,0,0,.33-1.21A2.15,2.15,0,0,0,53,5.47a1.93,1.93,0,0,0-.8-.75,2.66,2.66,0,0,0-2.05-.12,6.26,6.26,0,0,0-.67.3,1.05,1.05,0,0,1-.46.15.66.66,0,0,1-.42-.12.54.54,0,0,1-.21-.3.76.76,0,0,1,0-.33L48.93.59a.58.58,0,0,1,.2-.32A.52.52,0,0,1,49.5.14h4.16A.52.52,0,0,1,54,.29a.54.54,0,0,1,.15.38.51.51,0,0,1-.53.53H49.78l.14-.12-.51,3.23L49.18,4a1.53,1.53,0,0,1,.47-.28,3.91,3.91,0,0,1,.73-.24,3.41,3.41,0,0,1,.85-.1,3.29,3.29,0,0,1,1.63.41,3.1,3.1,0,0,1,1.56,2.77,3.21,3.21,0,0,1-.28,1.36A3.09,3.09,0,0,1,53.37,9a3.27,3.27,0,0,1-1.16.71A4,4,0,0,1,50.76,10Z"/><path class="cls-1" d="M58.59,10a3.87,3.87,0,0,1-1.14-.18,3.07,3.07,0,0,1-1-.52A.86.86,0,0,1,56.25,9a.65.65,0,0,1-.07-.29.53.53,0,0,1,.53-.49.72.72,0,0,1,.42.18,2.58,2.58,0,0,0,.69.38,2.22,2.22,0,0,0,.76.14,2.67,2.67,0,0,0,1.31-.31,2.3,2.3,0,0,0,.9-.85,2.24,2.24,0,0,0,.33-1.21,2.14,2.14,0,0,0-.28-1.12,2,2,0,0,0-.8-.75,2.46,2.46,0,0,0-1.17-.27A2.42,2.42,0,0,0,58,4.6a5.47,5.47,0,0,0-.67.3,1,1,0,0,1-.47.15.7.7,0,0,1-.42-.12.52.52,0,0,1-.2-.3.76.76,0,0,1,0-.33L56.76.59A.56.56,0,0,1,57,.27a.55.55,0,0,1,.38-.13h4.16a.54.54,0,0,1,.38.15A.54.54,0,0,1,62,.67a.52.52,0,0,1-.15.38.54.54,0,0,1-.38.15H57.61l.14-.12-.52,3.23L57,4a1.53,1.53,0,0,1,.47-.28,4,4,0,0,1,.72-.24,3.47,3.47,0,0,1,.85-.1,3.26,3.26,0,0,1,1.63.41,3.1,3.1,0,0,1,1.56,2.77A3.37,3.37,0,0,1,62,7.94,3.23,3.23,0,0,1,61.2,9,3.36,3.36,0,0,1,60,9.74,4,4,0,0,1,58.59,10Z"/><path class="cls-1" d="M69.92,8.89a.51.51,0,0,1,.37.15.51.51,0,0,1,.16.38.47.47,0,0,1-.16.37.51.51,0,0,1-.37.15H64.83a.59.59,0,0,1-.41-.15.51.51,0,0,1-.16-.4.54.54,0,0,1,.17-.4l3.16-3.46a7.46,7.46,0,0,0,1-1.36A2.55,2.55,0,0,0,69,2.93a2,2,0,0,0-.25-1,1.64,1.64,0,0,0-.68-.65A2.24,2.24,0,0,0,66,1.34a2.07,2.07,0,0,0-.81.91.5.5,0,0,1-.21.22.54.54,0,0,1-.25.06.64.64,0,0,1-.38-.14A.45.45,0,0,1,64.16,2a.52.52,0,0,1,.09-.29c.06-.09.14-.19.22-.29A2.94,2.94,0,0,1,65.63.38,3.27,3.27,0,0,1,67.13,0a3.44,3.44,0,0,1,1.63.36,2.55,2.55,0,0,1,1,1,3.08,3.08,0,0,1,.35,1.48A3.24,3.24,0,0,1,70,3.94a4.72,4.72,0,0,1-.58,1.14,9.88,9.88,0,0,1-1,1.23L65.94,9l-.14-.14Z"/><path class="cls-1" d="M80.67,9.94a.54.54,0,0,1-.4-.17.55.55,0,0,1-.16-.4V1.71l.22.08L77,6.16l0-.17h5.12a.49.49,0,0,1,.38.16.51.51,0,0,1,.16.37.5.5,0,0,1-.16.36.52.52,0,0,1-.38.15H76.16a.57.57,0,0,1-.39-.17.54.54,0,0,1-.17-.39.57.57,0,0,1,.14-.37L80.21.36a.51.51,0,0,1,.22-.17.74.74,0,0,1,.25,0,.5.5,0,0,1,.39.16.54.54,0,0,1,.16.4V9.37a.59.59,0,0,1-.16.4A.54.54,0,0,1,80.67,9.94Z"/><path class="cls-1" d="M90.06,8.89a.52.52,0,0,1,.38.15.54.54,0,0,1,.15.38.5.5,0,0,1-.15.37.52.52,0,0,1-.38.15H85a.56.56,0,0,1-.41-.15.51.51,0,0,1-.17-.4.58.58,0,0,1,.17-.4l3.17-3.46a8.49,8.49,0,0,0,1.05-1.36,2.54,2.54,0,0,0,.36-1.24,2,2,0,0,0-.24-1,1.7,1.7,0,0,0-.68-.65,2.19,2.19,0,0,0-1-.23,2.21,2.21,0,0,0-1.08.29,2,2,0,0,0-.8.91.58.58,0,0,1-.22.22.53.53,0,0,1-.24.06.64.64,0,0,1-.38-.14A.45.45,0,0,1,84.31,2a.52.52,0,0,1,.09-.29c.06-.09.13-.19.21-.29A2.9,2.9,0,0,1,85.78.38,3.2,3.2,0,0,1,87.27,0a3.48,3.48,0,0,1,1.64.36,2.53,2.53,0,0,1,1,1,3,3,0,0,1,.36,1.48,3.24,3.24,0,0,1-.19,1.08,5.12,5.12,0,0,1-.58,1.14,9.88,9.88,0,0,1-1,1.23L86.09,9l-.15-.14Z"/><path class="cls-1" d="M92.44,8.32l.19,0a.56.56,0,0,1,.23.15,2.2,2.2,0,0,0,.66.4,2.14,2.14,0,0,0,.87.16A2.2,2.2,0,0,0,96.31,8a2.17,2.17,0,0,0,.32-1.16,2,2,0,0,0-.32-1.17,1.88,1.88,0,0,0-.8-.68,2.5,2.5,0,0,0-1-.21,2,2,0,0,0-.36,0,1.5,1.5,0,0,0-.32.07,1.47,1.47,0,0,1-.27,0,.41.41,0,0,1-.35-.16.54.54,0,0,1-.13-.37.73.73,0,0,1,0-.23A.74.74,0,0,1,93.25,4L96,.92l.22.27h-4A.51.51,0,0,1,91.87,1a.51.51,0,0,1-.16-.38.46.46,0,0,1,.16-.37.51.51,0,0,1,.37-.15h4.57a.58.58,0,0,1,.45.17A.64.64,0,0,1,97.4.7a.46.46,0,0,1-.06.23,1,1,0,0,1-.15.2l-2.73,3-.32-.28a.73.73,0,0,1,.32-.1,1.81,1.81,0,0,1,.42,0,2.77,2.77,0,0,1,1.44.38,2.74,2.74,0,0,1,1.05,1.06,3.19,3.19,0,0,1,.39,1.6,3.24,3.24,0,0,1-.46,1.75A3.12,3.12,0,0,1,96,9.67a4,4,0,0,1-1.81.41,3.47,3.47,0,0,1-1.1-.18,2.47,2.47,0,0,1-.93-.51.61.61,0,0,1-.25-.22.57.57,0,0,1-.06-.25A.63.63,0,0,1,92,8.51.5.5,0,0,1,92.44,8.32Z"/><path class="cls-1" d="M194.05,45.7a.58.58,0,0,1-.43-.17.51.51,0,0,1-.17-.4v-8l.17.2-1.63,1a.64.64,0,0,1-.28.07.53.53,0,0,1-.4-.19.55.55,0,0,1,.12-.88L193.71,36a.81.81,0,0,1,.42-.08.5.5,0,0,1,.38.16.61.61,0,0,1,.14.4v8.67a.51.51,0,0,1-.17.4A.58.58,0,0,1,194.05,45.7Z"/><path class="cls-1" d="M205.14,40.76l0-.2a2.86,2.86,0,0,1,.88.58,2.78,2.78,0,0,1,.62.83,2.18,2.18,0,0,1,.24,1,2.5,2.5,0,0,1-.42,1.4,3,3,0,0,1-1.12,1,3.43,3.43,0,0,1-3.14,0,2.93,2.93,0,0,1-1.11-1,2.5,2.5,0,0,1-.42-1.4,2.29,2.29,0,0,1,.26-1.1,2.76,2.76,0,0,1,.66-.81,3.42,3.42,0,0,1,.83-.53l-.07.22a2.56,2.56,0,0,1-1.23-1.18,2.21,2.21,0,0,1-.21-1,2.59,2.59,0,0,1,.38-1.37,2.7,2.7,0,0,1,1-1,3.06,3.06,0,0,1,2.88,0,2.82,2.82,0,0,1,1,1,2.5,2.5,0,0,1,.38,1.37,2.08,2.08,0,0,1-.22,1,2.37,2.37,0,0,1-.55.72A2.71,2.71,0,0,1,205.14,40.76Zm-1.4,4a2.05,2.05,0,0,0,1.42-.5,1.63,1.63,0,0,0,.55-1.25,1.7,1.7,0,0,0-.26-.92,2,2,0,0,0-.72-.63,2.19,2.19,0,0,0-1-.23,2.14,2.14,0,0,0-1,.23,2,2,0,0,0-.72.63,1.7,1.7,0,0,0-.26.92,1.63,1.63,0,0,0,.55,1.25A2,2,0,0,0,203.74,44.72ZM202,38.62a1.61,1.61,0,0,0,.23.88,1.56,1.56,0,0,0,.63.59,1.69,1.69,0,0,0,.86.22,1.67,1.67,0,0,0,.86-.22,1.75,1.75,0,0,0,.62-.59,1.74,1.74,0,0,0-.24-2.08,1.74,1.74,0,0,0-1.24-.47,1.71,1.71,0,0,0-1.24.47A1.6,1.6,0,0,0,202,38.62Z"/><path class="cls-1" d="M212,45.84a2.89,2.89,0,0,1-1.94-.66,4.08,4.08,0,0,1-1.18-1.8,8.76,8.76,0,0,1,0-5.17A4.1,4.1,0,0,1,210,36.42a3.18,3.18,0,0,1,3.88,0,4,4,0,0,1,1.17,1.79,8.76,8.76,0,0,1,0,5.17,4,4,0,0,1-1.17,1.8A2.91,2.91,0,0,1,212,45.84Zm0-1.13a1.76,1.76,0,0,0,1.25-.48,3.05,3.05,0,0,0,.78-1.35,8.19,8.19,0,0,0,0-4.17,3.05,3.05,0,0,0-.78-1.35,1.9,1.9,0,0,0-2.5,0,3.06,3.06,0,0,0-.79,1.35,8.19,8.19,0,0,0,0,4.17,3.06,3.06,0,0,0,.79,1.35A1.76,1.76,0,0,0,212,44.71Z"/><path class="cls-1" d="M220.38,45.84a2.91,2.91,0,0,1-1.94-.66,4.06,4.06,0,0,1-1.17-1.8,8.55,8.55,0,0,1,0-5.17,4.09,4.09,0,0,1,1.17-1.79,3.18,3.18,0,0,1,3.88,0,4,4,0,0,1,1.17,1.79,8.76,8.76,0,0,1,0,5.17,4,4,0,0,1-1.17,1.8A2.89,2.89,0,0,1,220.38,45.84Zm0-1.13a1.77,1.77,0,0,0,1.26-.48,3,3,0,0,0,.77-1.35,8.19,8.19,0,0,0,0-4.17,3,3,0,0,0-.77-1.35,1.91,1.91,0,0,0-2.51,0,3.05,3.05,0,0,0-.78,1.35,7.9,7.9,0,0,0,0,4.17,3.05,3.05,0,0,0,.78,1.35A1.76,1.76,0,0,0,220.38,44.71Z"/><path class="cls-1" d="M232.65,45.84a2.89,2.89,0,0,1-1.94-.66,4.08,4.08,0,0,1-1.18-1.8,8.55,8.55,0,0,1,0-5.17,4.1,4.1,0,0,1,1.18-1.79,3.18,3.18,0,0,1,3.88,0,4.18,4.18,0,0,1,1.17,1.79,8.76,8.76,0,0,1,0,5.17,4.15,4.15,0,0,1-1.17,1.8A2.91,2.91,0,0,1,232.65,45.84Zm0-1.13a1.76,1.76,0,0,0,1.25-.48,3.05,3.05,0,0,0,.78-1.35,8.49,8.49,0,0,0,0-4.17,3.05,3.05,0,0,0-.78-1.35,1.91,1.91,0,0,0-2.51,0,3.05,3.05,0,0,0-.78,1.35,8.19,8.19,0,0,0,0,4.17,3.05,3.05,0,0,0,.78,1.35A1.77,1.77,0,0,0,232.65,44.71Z"/><path class="cls-1" d="M241.06,45.84a2.91,2.91,0,0,1-1.94-.66,4,4,0,0,1-1.17-1.8,8.55,8.55,0,0,1,0-5.17,4,4,0,0,1,1.17-1.79,3.18,3.18,0,0,1,3.88,0,4,4,0,0,1,1.17,1.79,8.76,8.76,0,0,1,0,5.17,4,4,0,0,1-1.17,1.8A2.89,2.89,0,0,1,241.06,45.84Zm0-1.13a1.74,1.74,0,0,0,1.25-.48,3.05,3.05,0,0,0,.78-1.35,8.19,8.19,0,0,0,0-4.17,3.05,3.05,0,0,0-.78-1.35,1.9,1.9,0,0,0-2.5,0,3.16,3.16,0,0,0-.79,1.35,8.19,8.19,0,0,0,0,4.17,3.16,3.16,0,0,0,.79,1.35A1.76,1.76,0,0,0,241.06,44.71Z"/><path class="cls-1" d="M249.48,45.84a2.87,2.87,0,0,1-1.94-.66,4.08,4.08,0,0,1-1.18-1.8,8.55,8.55,0,0,1,0-5.17,4.1,4.1,0,0,1,1.18-1.79,3.17,3.17,0,0,1,3.87,0,4,4,0,0,1,1.17,1.79,8.55,8.55,0,0,1,0,5.17,4,4,0,0,1-1.17,1.8A2.86,2.86,0,0,1,249.48,45.84Zm0-1.13a1.76,1.76,0,0,0,1.25-.48,3.05,3.05,0,0,0,.78-1.35,8.49,8.49,0,0,0,0-4.17,3.05,3.05,0,0,0-.78-1.35,1.91,1.91,0,0,0-2.51,0,3.05,3.05,0,0,0-.78,1.35,8.19,8.19,0,0,0,0,4.17,3.05,3.05,0,0,0,.78,1.35A1.77,1.77,0,0,0,249.48,44.71Z"/><path class="cls-1" d="M3.55,45.7a.6.6,0,0,1-.43-.17.54.54,0,0,1-.17-.4v-8l.17.2-1.62,1a.68.68,0,0,1-.28.07.55.55,0,0,1-.41-.19.61.61,0,0,1-.17-.39.56.56,0,0,1,.3-.49L3.22,36a.77.77,0,0,1,.42-.08.51.51,0,0,1,.38.16.61.61,0,0,1,.14.4v8.67a.54.54,0,0,1-.17.4A.6.6,0,0,1,3.55,45.7Z"/><path class="cls-1" d="M12.44,45.76a3.87,3.87,0,0,1-1.14-.18,3.12,3.12,0,0,1-1-.52.61.61,0,0,1-.18-.26.65.65,0,0,1-.07-.29.53.53,0,0,1,.14-.33.5.5,0,0,1,.39-.16.74.74,0,0,1,.42.18,2.38,2.38,0,0,0,.68.38,2.31,2.31,0,0,0,.76.14,2.74,2.74,0,0,0,1.32-.31,2.28,2.28,0,0,0,.9-.84A2.3,2.3,0,0,0,15,42.35a2.17,2.17,0,0,0-.29-1.12,2,2,0,0,0-.8-.75,2.66,2.66,0,0,0-2.05-.12,6.26,6.26,0,0,0-.67.3,1.05,1.05,0,0,1-.46.15.66.66,0,0,1-.42-.11.54.54,0,0,1-.2-.31.77.77,0,0,1,0-.33l.55-3.71a.58.58,0,0,1,.2-.32.57.57,0,0,1,.37-.13h4.16a.52.52,0,0,1,.38.15.54.54,0,0,1,.15.38.51.51,0,0,1-.53.53H11.46l.14-.12-.51,3.23-.23-.29a1.75,1.75,0,0,1,.47-.28,4.81,4.81,0,0,1,.73-.24,4,4,0,0,1,.85-.1,3.19,3.19,0,0,1,1.63.42,3.06,3.06,0,0,1,1.14,1.12,3.18,3.18,0,0,1,.42,1.64,3.3,3.3,0,0,1-2.21,3.16A4,4,0,0,1,12.44,45.76Z"/><path class="cls-1" d="M21.28,45.84a2.89,2.89,0,0,1-1.94-.66,4.08,4.08,0,0,1-1.18-1.8,8.55,8.55,0,0,1,0-5.17,4.1,4.1,0,0,1,1.18-1.79,3.18,3.18,0,0,1,3.88,0,4.18,4.18,0,0,1,1.17,1.79,8.76,8.76,0,0,1,0,5.17,4.15,4.15,0,0,1-1.17,1.8A2.91,2.91,0,0,1,21.28,45.84Zm0-1.13a1.76,1.76,0,0,0,1.25-.48,3.05,3.05,0,0,0,.78-1.35,8.49,8.49,0,0,0,0-4.17,3.05,3.05,0,0,0-.78-1.35,1.8,1.8,0,0,0-1.25-.47,1.82,1.82,0,0,0-1.26.47,3.05,3.05,0,0,0-.78,1.35,8.19,8.19,0,0,0,0,4.17A3.05,3.05,0,0,0,20,44.23,1.79,1.79,0,0,0,21.28,44.71Z"/><path class="cls-1" d="M29.69,45.84a2.91,2.91,0,0,1-1.94-.66,4,4,0,0,1-1.17-1.8,8.55,8.55,0,0,1,0-5.17,4,4,0,0,1,1.17-1.79,3.18,3.18,0,0,1,3.88,0,4,4,0,0,1,1.17,1.79,8.76,8.76,0,0,1,0,5.17,4,4,0,0,1-1.17,1.8A2.89,2.89,0,0,1,29.69,45.84Zm0-1.13a1.74,1.74,0,0,0,1.25-.48,3,3,0,0,0,.78-1.35,8.19,8.19,0,0,0,0-4.17,3,3,0,0,0-.78-1.35,1.9,1.9,0,0,0-2.5,0,3.16,3.16,0,0,0-.79,1.35,8.19,8.19,0,0,0,0,4.17,3.16,3.16,0,0,0,.79,1.35A1.76,1.76,0,0,0,29.69,44.71Z"/><path class="cls-1" d="M42,45.84A2.87,2.87,0,0,1,40,45.18a4.08,4.08,0,0,1-1.18-1.8,8.55,8.55,0,0,1,0-5.17A4.1,4.1,0,0,1,40,36.42a3.17,3.17,0,0,1,3.87,0,4,4,0,0,1,1.17,1.79,8.55,8.55,0,0,1,0,5.17,4,4,0,0,1-1.17,1.8A2.86,2.86,0,0,1,42,45.84Zm0-1.13a1.76,1.76,0,0,0,1.25-.48A3.05,3.05,0,0,0,44,42.88a8.49,8.49,0,0,0,0-4.17,3.05,3.05,0,0,0-.78-1.35,1.91,1.91,0,0,0-2.51,0,3.05,3.05,0,0,0-.78,1.35,8.19,8.19,0,0,0,0,4.17,3.05,3.05,0,0,0,.78,1.35A1.77,1.77,0,0,0,42,44.71Z"/><path class="cls-1" d="M50.37,45.84a2.89,2.89,0,0,1-1.94-.66,4.08,4.08,0,0,1-1.18-1.8,8.76,8.76,0,0,1,0-5.17,4.1,4.1,0,0,1,1.18-1.79,3.18,3.18,0,0,1,3.88,0,4,4,0,0,1,1.17,1.79,8.76,8.76,0,0,1,0,5.17,4,4,0,0,1-1.17,1.8A2.91,2.91,0,0,1,50.37,45.84Zm0-1.13a1.76,1.76,0,0,0,1.25-.48,3.05,3.05,0,0,0,.78-1.35,8.19,8.19,0,0,0,0-4.17,3.05,3.05,0,0,0-.78-1.35,1.9,1.9,0,0,0-2.5,0,3.06,3.06,0,0,0-.79,1.35,8.19,8.19,0,0,0,0,4.17,3.06,3.06,0,0,0,.79,1.35A1.74,1.74,0,0,0,50.37,44.71Z"/><path class="cls-1" d="M58.78,45.84a2.91,2.91,0,0,1-1.94-.66,4.06,4.06,0,0,1-1.17-1.8,8.55,8.55,0,0,1,0-5.17,4.09,4.09,0,0,1,1.17-1.79,3.18,3.18,0,0,1,3.88,0,4,4,0,0,1,1.17,1.79,8.76,8.76,0,0,1,0,5.17,4,4,0,0,1-1.17,1.8A2.89,2.89,0,0,1,58.78,45.84Zm0-1.13A1.77,1.77,0,0,0,60,44.23a3,3,0,0,0,.77-1.35,8.19,8.19,0,0,0,0-4.17A3,3,0,0,0,60,37.36a1.91,1.91,0,0,0-2.51,0,3.05,3.05,0,0,0-.78,1.35,7.9,7.9,0,0,0,0,4.17,3.05,3.05,0,0,0,.78,1.35A1.76,1.76,0,0,0,58.78,44.71Z"/><path class="cls-2" d="M249.35,22.25H2c-.26,0-.46-.42-.46-.94s.2-.94.46-.94h247.4c.26,0,.47.42.47.94S249.61,22.25,249.35,22.25Z"/><polygon class="cls-2" points="8.29 29.02 9.57 27.64 2.77 21.31 9.57 14.99 8.29 13.61 0 21.31 8.29 29.02"/><polygon class="cls-2" points="242.63 29.02 241.35 27.64 248.15 21.31 241.35 14.99 242.63 13.61 250.92 21.31 242.63 29.02"/><path class="cls-2" d="M214.18,30.84a.94.94,0,0,1-.94-.94V12.83a.95.95,0,0,1,1.89,0V29.9A1,1,0,0,1,214.18,30.84Z"/><path class="cls-2" d="M67.73,30.84a.94.94,0,0,1-.94-.94V12.83a.94.94,0,1,1,1.88,0V29.9A.94.94,0,0,1,67.73,30.84Z"/><path class="cls-2" d="M35.69,30.84a1,1,0,0,1-.95-.94V12.83a.95.95,0,0,1,1.89,0V29.9A.94.94,0,0,1,35.69,30.84Z"/></g></g></svg>