<?xml version="1.0" encoding="UTF-8" standalone="no"?>
<svg
   xmlns:dc="http://purl.org/dc/elements/1.1/"
   xmlns:cc="http://creativecommons.org/ns#"
   xmlns:rdf="http://www.w3.org/1999/02/22-rdf-syntax-ns#"
   xmlns:svg="http://www.w3.org/2000/svg"
   xmlns="http://www.w3.org/2000/svg"
   xmlns:sodipodi="http://sodipodi.sourceforge.net/DTD/sodipodi-0.dtd"
   xmlns:inkscape="http://www.inkscape.org/namespaces/inkscape"
   viewBox="0 0 314.52 485.92"
   version="1.1"
   id="svg130"
   sodipodi:docname="Glosa_2.svg"
   inkscape:version="0.92.3 (2405546, 2018-03-11)">
  <metadata
     id="metadata134">
    <rdf:RDF>
      <cc:Work
         rdf:about="">
        <dc:format>image/svg+xml</dc:format>
        <dc:type
           rdf:resource="http://purl.org/dc/dcmitype/StillImage" />
      </cc:Work>
    </rdf:RDF>
  </metadata>
  <sodipodi:namedview
     pagecolor="#ffffff"
     bordercolor="#666666"
     borderopacity="1"
     objecttolerance="10"
     gridtolerance="10"
     guidetolerance="10"
     inkscape:pageopacity="0"
     inkscape:pageshadow="2"
     inkscape:window-width="1295"
     inkscape:window-height="713"
     id="namedview132"
     showgrid="false"
     inkscape:zoom="1.0472403"
     inkscape:cx="157.25999"
     inkscape:cy="242.96001"
     inkscape:window-x="65"
     inkscape:window-y="27"
     inkscape:window-maximized="1"
     inkscape:current-layer="svg130" />
  <defs
     id="defs34">
    <style
       id="style32">.cls-1{fill:#363026;}.cls-2{fill:#1f8ebe;}.cls-3{fill:none;stroke:#1f8ebe;stroke-linecap:round;stroke-miterlimit:10;stroke-width:3px;}</style>
  </defs>
  <path
     class="cls-1"
     d="M 40.91,25.56 A 1.5,1.5 0 0 1 39.8,25.13 1.43,1.43 0 0 1 39.37,24.08 V 3.6 l 0.43,0.5 -4.18,2.52 a 1.43,1.43 0 0 1 -0.72,0.18 1.35,1.35 0 0 1 -1,-0.48 1.5,1.5 0 0 1 -0.43,-1 1.42,1.42 0 0 1 0.75,-1.26 l 5.83,-3.48 a 1.92,1.92 0 0 1 1.08,-0.22 1.23,1.23 0 0 1 1,0.41 1.52,1.52 0 0 1 0.36,1 V 24.08 A 1.43,1.43 0 0 1 42,25.13 1.51,1.51 0 0 1 40.91,25.56 Z"
     id="path36"
     inkscape:connector-curvature="0"
     style="fill:#363026" />
  <path
     class="cls-1"
     d="m 66.37,25.92 a 7.43,7.43 0 0 1 -5,-1.69 10.39,10.39 0 0 1 -3,-4.65 19.87,19.87 0 0 1 -1,-6.62 19.82,19.82 0 0 1 1,-6.66 10.42,10.42 0 0 1 3,-4.61 8.2,8.2 0 0 1 10,0 10.32,10.32 0 0 1 3,4.61 20.35,20.35 0 0 1 1,6.66 20.4,20.4 0 0 1 -1,6.62 10.29,10.29 0 0 1 -3,4.65 7.42,7.42 0 0 1 -5,1.69 z m 0,-2.92 a 4.54,4.54 0 0 0 3.22,-1.22 7.79,7.79 0 0 0 2,-3.47 18.76,18.76 0 0 0 0.68,-5.31 18.83,18.83 0 0 0 -0.68,-5.38 7.69,7.69 0 0 0 -2,-3.46 4.93,4.93 0 0 0 -6.45,0 7.8,7.8 0 0 0 -2,3.46 18.1,18.1 0 0 0 -0.7,5.38 18,18 0 0 0 0.7,5.35 7.89,7.89 0 0 0 2,3.47 4.54,4.54 0 0 0 3.23,1.18 z"
     id="path38"
     inkscape:connector-curvature="0"
     style="fill:#363026" />
  <path
     class="cls-1"
     d="m 107.8,25.92 a 7.42,7.42 0 0 1 -5,-1.69 10.4,10.4 0 0 1 -3,-4.65 20.13,20.13 0 0 1 -1,-6.62 20.08,20.08 0 0 1 1,-6.66 10.43,10.43 0 0 1 3,-4.61 8.2,8.2 0 0 1 10,0 10.3,10.3 0 0 1 3,4.61 20.35,20.35 0 0 1 1,6.66 20.4,20.4 0 0 1 -1,6.62 10.27,10.27 0 0 1 -3,4.65 7.45,7.45 0 0 1 -5,1.69 z m 0,-2.92 a 4.52,4.52 0 0 0 3.2,-1.22 7.61,7.61 0 0 0 2,-3.47 18.39,18.39 0 0 0 0.69,-5.35 18.46,18.46 0 0 0 -0.69,-5.38 7.52,7.52 0 0 0 -2,-3.46 4.92,4.92 0 0 0 -6.44,0 7.72,7.72 0 0 0 -2,3.46 18.44,18.44 0 0 0 -0.7,5.38 18.37,18.37 0 0 0 0.7,5.35 7.81,7.81 0 0 0 2,3.47 4.54,4.54 0 0 0 3.24,1.22 z"
     id="path40"
     inkscape:connector-curvature="0"
     style="fill:#363026" />
  <path
     class="cls-1"
     d="m 139.34,25.92 a 7.45,7.45 0 0 1 -5,-1.69 10.39,10.39 0 0 1 -3,-4.65 19.87,19.87 0 0 1 -1,-6.62 19.82,19.82 0 0 1 1,-6.66 10.42,10.42 0 0 1 3,-4.61 8.2,8.2 0 0 1 10,0 10.24,10.24 0 0 1 3,4.61 20.35,20.35 0 0 1 1,6.66 20.4,20.4 0 0 1 -1,6.62 10.21,10.21 0 0 1 -3,4.65 7.42,7.42 0 0 1 -5,1.69 z m 0,-2.92 a 4.54,4.54 0 0 0 3.22,-1.22 7.7,7.7 0 0 0 2,-3.47 18.76,18.76 0 0 0 0.68,-5.35 18.83,18.83 0 0 0 -0.68,-5.38 7.6,7.6 0 0 0 -2,-3.46 4.92,4.92 0 0 0 -6.44,0 7.72,7.72 0 0 0 -2,3.46 18.1,18.1 0 0 0 -0.7,5.38 18,18 0 0 0 0.7,5.35 7.81,7.81 0 0 0 2,3.47 4.5,4.5 0 0 0 3.22,1.22 z"
     id="path42"
     inkscape:connector-curvature="0"
     style="fill:#363026" />
  <path
     class="cls-1"
     d="m 170.87,25.92 a 7.42,7.42 0 0 1 -5,-1.69 10.4,10.4 0 0 1 -3,-4.65 20.13,20.13 0 0 1 -1,-6.62 20.08,20.08 0 0 1 1,-6.66 10.43,10.43 0 0 1 3,-4.61 8.2,8.2 0 0 1 10,0 10.4,10.4 0 0 1 3,4.61 20.36,20.36 0 0 1 1,6.66 20.41,20.41 0 0 1 -1,6.62 10.37,10.37 0 0 1 -3,4.65 7.43,7.43 0 0 1 -5,1.69 z m 0,-2.92 a 4.56,4.56 0 0 0 3.23,-1.22 7.69,7.69 0 0 0 2,-3.47 18.39,18.39 0 0 0 0.69,-5.35 18.46,18.46 0 0 0 -0.69,-5.38 7.59,7.59 0 0 0 -2,-3.46 4.93,4.93 0 0 0 -6.45,0 7.81,7.81 0 0 0 -2,3.46 18.44,18.44 0 0 0 -0.7,5.38 18.37,18.37 0 0 0 0.7,5.35 7.9,7.9 0 0 0 2,3.47 4.54,4.54 0 0 0 3.22,1.22 z"
     id="path44"
     inkscape:connector-curvature="0"
     style="fill:#363026" />
  <path
     class="cls-1"
     d="m 212.31,25.92 a 7.45,7.45 0 0 1 -5,-1.69 10.39,10.39 0 0 1 -3,-4.65 20.13,20.13 0 0 1 -1,-6.62 20.08,20.08 0 0 1 1,-6.66 10.42,10.42 0 0 1 3,-4.61 8.2,8.2 0 0 1 10,0 10.24,10.24 0 0 1 3,4.61 20.35,20.35 0 0 1 1,6.66 20.4,20.4 0 0 1 -1,6.62 10.21,10.21 0 0 1 -3,4.65 7.42,7.42 0 0 1 -5,1.69 z m 0,-2.92 a 4.54,4.54 0 0 0 3.22,-1.22 7.7,7.7 0 0 0 2,-3.47 18.76,18.76 0 0 0 0.68,-5.35 18.83,18.83 0 0 0 -0.68,-5.38 7.6,7.6 0 0 0 -2,-3.46 4.92,4.92 0 0 0 -6.44,0 7.72,7.72 0 0 0 -2,3.46 18.1,18.1 0 0 0 -0.7,5.38 18,18 0 0 0 0.7,5.35 7.81,7.81 0 0 0 2,3.47 4.52,4.52 0 0 0 3.22,1.22 z"
     id="path46"
     inkscape:connector-curvature="0"
     style="fill:#363026" />
  <path
     class="cls-1"
     d="m 243.84,25.92 a 7.42,7.42 0 0 1 -5,-1.69 10.49,10.49 0 0 1 -3,-4.65 20.13,20.13 0 0 1 -1,-6.62 20.08,20.08 0 0 1 1,-6.66 10.52,10.52 0 0 1 3,-4.61 8.2,8.2 0 0 1 10,0 10.4,10.4 0 0 1 3,4.61 20.36,20.36 0 0 1 1,6.66 20.41,20.41 0 0 1 -1,6.62 10.37,10.37 0 0 1 -3,4.65 7.43,7.43 0 0 1 -5,1.69 z m 0,-2.92 a 4.54,4.54 0 0 0 3.23,-1.22 7.69,7.69 0 0 0 2,-3.47 18.39,18.39 0 0 0 0.69,-5.35 18.46,18.46 0 0 0 -0.69,-5.38 7.59,7.59 0 0 0 -2,-3.46 4.93,4.93 0 0 0 -6.45,0 7.7,7.7 0 0 0 -2,3.46 18.08,18.08 0 0 0 -0.72,5.42 18,18 0 0 0 0.71,5.35 7.8,7.8 0 0 0 2,3.47 4.54,4.54 0 0 0 3.23,1.18 z"
     id="path48"
     inkscape:connector-curvature="0"
     style="fill:#363026" />
  <path
     class="cls-1"
     d="m 275.38,25.92 a 7.47,7.47 0 0 1 -5,-1.69 10.39,10.39 0 0 1 -3,-4.65 20.13,20.13 0 0 1 -1,-6.62 20.08,20.08 0 0 1 1,-6.66 10.42,10.42 0 0 1 3,-4.61 8.21,8.21 0 0 1 10,0 10.3,10.3 0 0 1 3,4.61 20.35,20.35 0 0 1 1,6.66 20.4,20.4 0 0 1 -1,6.62 10.27,10.27 0 0 1 -3,4.65 7.47,7.47 0 0 1 -5,1.69 z m 0,-2.92 a 4.52,4.52 0 0 0 3.22,-1.22 7.7,7.7 0 0 0 2,-3.47 18.41,18.41 0 0 0 0.68,-5.35 18.48,18.48 0 0 0 -0.68,-5.38 7.6,7.6 0 0 0 -2,-3.46 4.92,4.92 0 0 0 -6.44,0 7.72,7.72 0 0 0 -2,3.46 18.1,18.1 0 0 0 -0.7,5.38 18,18 0 0 0 0.7,5.35 7.81,7.81 0 0 0 2,3.47 4.52,4.52 0 0 0 3.22,1.22 z"
     id="path50"
     inkscape:connector-curvature="0"
     style="fill:#363026" />
  <path
     class="cls-1"
     d="m 53.19,485.56 a 1.48,1.48 0 0 1 -1.11,-0.43 1.44,1.44 0 0 1 -0.44,-1.05 V 463.6 l 0.44,0.5 -4.18,2.52 a 1.48,1.48 0 0 1 -0.72,0.18 1.33,1.33 0 0 1 -1,-0.48 1.5,1.5 0 0 1 -0.43,-1 1.42,1.42 0 0 1 0.75,-1.26 l 5.87,-3.49 a 1.92,1.92 0 0 1 1.08,-0.22 1.23,1.23 0 0 1 1,0.41 1.52,1.52 0 0 1 0.36,1 v 22.28 a 1.43,1.43 0 0 1 -0.43,1.05 1.51,1.51 0 0 1 -1.19,0.47 z"
     id="path52"
     inkscape:connector-curvature="0"
     style="fill:#363026" />
  <path
     class="cls-1"
     d="m 74.58,485.67 a 1.63,1.63 0 0 1 -1,-0.38 1.21,1.21 0 0 1 -0.47,-1 1.54,1.54 0 0 1 0.15,-0.65 l 9.32,-21.24 0.4,0.65 H 71.34 a 1.35,1.35 0 0 1 -1.34,-1.36 1.27,1.27 0 0 1 0.39,-0.95 1.38,1.38 0 0 1 1,-0.38 h 13 a 1.5,1.5 0 0 1 1.08,0.38 1.28,1.28 0 0 1 0.4,1 1.57,1.57 0 0 1 -0.15,0.68 l -9.75,22.36 a 1.19,1.19 0 0 1 -0.52,0.66 1.52,1.52 0 0 1 -0.87,0.23 z"
     id="path54"
     inkscape:connector-curvature="0"
     style="fill:#363026" />
  <path
     class="cls-1"
     d="m 115.11,485.7 a 10.08,10.08 0 0 1 -2.93,-0.45 7.53,7.53 0 0 1 -2.61,-1.35 1.84,1.84 0 0 1 -0.47,-0.64 1.87,1.87 0 0 1 -0.18,-0.76 1.24,1.24 0 0 1 0.38,-0.85 1.29,1.29 0 0 1 1,-0.41 1.9,1.9 0 0 1 1.08,0.47 6.4,6.4 0 0 0 1.76,1 5.6,5.6 0 0 0 2,0.36 7,7 0 0 0 3.38,-0.79 6,6 0 0 0 2.32,-2.18 5.88,5.88 0 0 0 0.85,-3.11 5.58,5.58 0 0 0 -0.74,-2.9 5.09,5.09 0 0 0 -2,-1.93 6.51,6.51 0 0 0 -3,-0.68 6.25,6.25 0 0 0 -2.27,0.38 13.79,13.79 0 0 0 -1.73,0.77 2.64,2.64 0 0 1 -1.18,0.4 1.73,1.73 0 0 1 -1.08,-0.31 1.42,1.42 0 0 1 -0.53,-0.77 2,2 0 0 1 -0.05,-0.87 l 1.4,-9.54 a 1.54,1.54 0 0 1 0.51,-0.81 1.42,1.42 0 0 1 1,-0.34 h 10.69 a 1.38,1.38 0 0 1 1,2.34 1.36,1.36 0 0 1 -1,0.4 h -10 l 0.36,-0.33 -1.33,8.32 -0.58,-0.76 a 4.74,4.74 0 0 1 1.21,-0.72 10.8,10.8 0 0 1 1.87,-0.61 9.29,9.29 0 0 1 2.18,-0.25 8.23,8.23 0 0 1 4.19,1.06 7.87,7.87 0 0 1 2.94,2.9 8.14,8.14 0 0 1 1.08,4.21 8.63,8.63 0 0 1 -0.71,3.51 8.19,8.19 0 0 1 -2,2.79 9.32,9.32 0 0 1 -3,1.84 10.47,10.47 0 0 1 -3.81,0.61 z"
     id="path56"
     inkscape:connector-curvature="0"
     style="fill:#363026" />
  <path
     class="cls-1"
     d="m 154.13,482.86 a 1.35,1.35 0 0 1 1.37,1.37 1.27,1.27 0 0 1 -0.39,0.95 1.38,1.38 0 0 1 -1,0.38 h -13.04 a 1.54,1.54 0 0 1 -1.07,-0.38 1.33,1.33 0 0 1 -0.41,-1 1.49,1.49 0 0 1 0.43,-1.05 l 8.14,-8.89 a 19.73,19.73 0 0 0 2.7,-3.51 6.43,6.43 0 0 0 0.93,-3.19 5,5 0 0 0 -0.63,-2.55 4.39,4.39 0 0 0 -1.74,-1.68 5.61,5.61 0 0 0 -2.63,-0.59 5.36,5.36 0 0 0 -2.75,0.76 5.08,5.08 0 0 0 -2.04,2.32 1.53,1.53 0 0 1 -0.56,0.55 1.32,1.32 0 0 1 -0.63,0.17 1.53,1.53 0 0 1 -1,-0.38 1.09,1.09 0 0 1 -0.47,-0.88 1.41,1.41 0 0 1 0.23,-0.76 c 0.16,-0.24 0.34,-0.49 0.56,-0.76 a 7.52,7.52 0 0 1 3,-2.77 8.24,8.24 0 0 1 3.85,-1 8.67,8.67 0 0 1 4.19,0.94 6.34,6.34 0 0 1 2.67,2.61 7.76,7.76 0 0 1 0.92,3.79 8.64,8.64 0 0 1 -0.49,2.79 12.73,12.73 0 0 1 -1.49,2.94 26.38,26.38 0 0 1 -2.56,3.17 l -6.3,7 -0.36,-0.36 z"
     id="path58"
     inkscape:connector-curvature="0"
     style="fill:#363026" />
  <path
     class="cls-1"
     d="m 170.15,481.38 a 1.55,1.55 0 0 1 0.49,0.09 1.76,1.76 0 0 1 0.59,0.38 5.64,5.64 0 0 0 3.93,1.44 5.83,5.83 0 0 0 2.84,-0.7 5.55,5.55 0 0 0 2.92,-5 5.16,5.16 0 0 0 -0.81,-3 5,5 0 0 0 -2.05,-1.73 6.35,6.35 0 0 0 -2.61,-0.56 6.79,6.79 0 0 0 -0.94,0.07 8.14,8.14 0 0 0 -0.81,0.18 2.31,2.31 0 0 1 -0.7,0.11 1.09,1.09 0 0 1 -0.9,-0.39 1.49,1.49 0 0 1 -0.33,-1 1.63,1.63 0 0 1 0.11,-0.59 1.88,1.88 0 0 1 0.36,-0.56 l 7.06,-7.77 0.57,0.68 h -10.22 a 1.3,1.3 0 0 1 -1,-0.4 1.28,1.28 0 0 1 -0.4,-1 1.24,1.24 0 0 1 0.4,-0.95 1.36,1.36 0 0 1 1,-0.38 h 11.74 a 1.39,1.39 0 0 1 1.15,0.45 1.55,1.55 0 0 1 0.36,1 1.18,1.18 0 0 1 -0.15,0.59 2.06,2.06 0 0 1 -0.39,0.53 l -7,7.81 -0.83,-0.72 a 2.1,2.1 0 0 1 0.83,-0.27 5.39,5.39 0 0 1 1.08,-0.13 7.42,7.42 0 0 1 3.71,1 7.32,7.32 0 0 1 2.7,2.74 8.14,8.14 0 0 1 1,4.1 8.34,8.34 0 0 1 -1.18,4.5 8,8 0 0 1 -3.26,3 10.3,10.3 0 0 1 -4.66,1 9.1,9.1 0 0 1 -2.83,-0.45 7,7 0 0 1 -2.39,-1.31 1.33,1.33 0 0 1 -0.63,-0.58 1.43,1.43 0 0 1 -0.17,-0.65 1.6,1.6 0 0 1 0.42,-1 1.26,1.26 0 0 1 1,-0.53 z"
     id="path60"
     inkscape:connector-curvature="0"
     style="fill:#363026" />
  <path
     class="cls-1"
     d="m 216.23,485.92 a 7.42,7.42 0 0 1 -5,-1.69 10.49,10.49 0 0 1 -3,-4.65 22.12,22.12 0 0 1 0,-13.28 10.52,10.52 0 0 1 3,-4.61 8.2,8.2 0 0 1 10,0 10.4,10.4 0 0 1 3,4.61 22.54,22.54 0 0 1 0,13.28 10.37,10.37 0 0 1 -3,4.65 7.45,7.45 0 0 1 -5,1.69 z m 0,-2.92 a 4.54,4.54 0 0 0 3.23,-1.22 7.69,7.69 0 0 0 2,-3.47 21.2,21.2 0 0 0 0,-10.73 7.59,7.59 0 0 0 -2,-3.46 4.93,4.93 0 0 0 -6.45,0 7.61,7.61 0 0 0 -2,3.46 20.62,20.62 0 0 0 0,10.73 7.71,7.71 0 0 0 2,3.47 4.54,4.54 0 0 0 3.22,1.22 z"
     id="path62"
     inkscape:connector-curvature="0"
     style="fill:#363026" />
  <path
     class="cls-1"
     d="m 246.8,459.93 a 8.17,8.17 0 0 1 3.62,0.77 7.58,7.58 0 0 1 2.61,2.11 9.74,9.74 0 0 1 1.58,3 10.93,10.93 0 0 1 0.54,3.42 16.45,16.45 0 0 1 -0.4,3.43 21.17,21.17 0 0 1 -1.2,3.84 19.09,19.09 0 0 1 -2.11,3.74 16,16 0 0 1 -3.09,3.22 13.83,13.83 0 0 1 -4.14,2.22 2,2 0 0 1 -0.58,0.11 1.62,1.62 0 0 1 -1,-0.36 1.3,1.3 0 0 1 -0.45,-1.08 1.33,1.33 0 0 1 0.33,-0.89 1.86,1.86 0 0 1 0.86,-0.55 12.57,12.57 0 0 0 3.73,-2.22 15.58,15.58 0 0 0 3.09,-3.51 11.79,11.79 0 0 0 1.75,-4.28 l 0.86,-0.29 a 7.91,7.91 0 0 1 -3.69,3.2 6.82,6.82 0 0 1 -2.75,0.54 6.68,6.68 0 0 1 -3,-0.66 8,8 0 0 1 -2.42,-1.82 8.65,8.65 0 0 1 -1.63,-2.65 8.24,8.24 0 0 1 -0.6,-3.11 8.07,8.07 0 0 1 1.06,-4.07 8.5,8.5 0 0 1 2.9,-3 7.74,7.74 0 0 1 4.13,-1.11 z m 0,2.7 a 5,5 0 0 0 -2.64,0.7 5.15,5.15 0 0 0 -1.86,1.93 5.76,5.76 0 0 0 -0.68,2.84 6.19,6.19 0 0 0 0.61,2.72 4.92,4.92 0 0 0 1.77,2 4.72,4.72 0 0 0 2.69,0.76 5.41,5.41 0 0 0 2.92,-0.76 5.06,5.06 0 0 0 1.89,-2 6,6 0 0 0 0.67,-2.79 5.56,5.56 0 0 0 -0.65,-2.68 5.21,5.21 0 0 0 -1.85,-2 5.34,5.34 0 0 0 -2.84,-0.72 z"
     id="path64"
     inkscape:connector-curvature="0"
     style="fill:#363026" />
  <path
     class="cls-1"
     d="m 276.86,485.92 a 8.14,8.14 0 0 1 -3.62,-0.77 7.49,7.49 0 0 1 -2.61,-2.11 9.55,9.55 0 0 1 -1.59,-3 10.93,10.93 0 0 1 -0.54,-3.42 17.42,17.42 0 0 1 0.4,-3.45 22.13,22.13 0 0 1 1.21,-3.91 19.13,19.13 0 0 1 2.1,-3.83 16.4,16.4 0 0 1 3.1,-3.3 13.35,13.35 0 0 1 4.14,-2.25 2.52,2.52 0 0 1 0.57,-0.07 1.74,1.74 0 0 1 1,0.31 1.22,1.22 0 0 1 0.45,1.09 1.37,1.37 0 0 1 -0.32,0.89 1.94,1.94 0 0 1 -0.87,0.55 11.66,11.66 0 0 0 -2.82,1.57 14.9,14.9 0 0 0 -2.56,2.41 17.24,17.24 0 0 0 -2,3 12,12 0 0 0 -1.17,3.33 l -0.86,0.29 a 9.08,9.08 0 0 1 1.55,-1.84 7.76,7.76 0 0 1 2.18,-1.4 6.92,6.92 0 0 1 5.67,0.14 8.27,8.27 0 0 1 2.41,1.84 9,9 0 0 1 1.64,2.64 8.52,8.52 0 0 1 0.59,3.12 8,8 0 0 1 -1.06,4.05 8.42,8.42 0 0 1 -2.88,3 7.68,7.68 0 0 1 -4.11,1.12 z m 0,-2.7 a 5,5 0 0 0 2.65,-0.7 5.11,5.11 0 0 0 1.85,-1.95 5.69,5.69 0 0 0 0.68,-2.82 6.15,6.15 0 0 0 -0.61,-2.74 5.13,5.13 0 0 0 -1.74,-2 4.71,4.71 0 0 0 -2.72,-0.78 5.5,5.5 0 0 0 -2.97,0.77 5.2,5.2 0 0 0 -1.89,2 6.11,6.11 0 0 0 -0.66,2.83 5.59,5.59 0 0 0 0.64,2.66 5.12,5.12 0 0 0 1.86,2 5.22,5.22 0 0 0 2.87,0.73 z"
     id="path66"
     inkscape:connector-curvature="0"
     style="fill:#363026" />
  <path
     class="cls-2"
     d="M 1.69,418.06 A 1.66,1.66 0 0 1 0,416.37 a 1.5,1.5 0 0 1 0.49,-1.17 1.69,1.69 0 0 1 1.2,-0.45 h 14.73 a 1.66,1.66 0 0 1 1.2,0.47 1.69,1.69 0 0 1 0,2.38 1.65,1.65 0 0 1 -1.2,0.46 z M 9,425.34 A 1.94,1.94 0 0 1 7.61,424.8 1.83,1.83 0 0 1 7.06,423.43 V 409 a 1.85,1.85 0 0 1 0.57,-1.4 2,2 0 0 1 1.37,-0.55 1.84,1.84 0 0 1 1.38,0.54 1.87,1.87 0 0 1 0.52,1.37 v 14.47 A 1.86,1.86 0 0 1 10.36,424.8 1.88,1.88 0 0 1 9,425.34 Z"
     id="path68"
     inkscape:connector-curvature="0"
     style="fill:#1f8ebe" />
  <path
     class="cls-1"
     d="m 64.67,83.24 a 1.63,1.63 0 0 1 -1,-0.38 1.21,1.21 0 0 1 -0.47,-1 1.57,1.57 0 0 1 0.15,-0.65 L 72.63,60 l 0.4,0.65 h -11.6 a 1.33,1.33 0 0 1 -1.36,-1.37 1.27,1.27 0 0 1 0.39,-0.95 1.38,1.38 0 0 1 1,-0.38 h 13 a 1.5,1.5 0 0 1 1.08,0.38 1.32,1.32 0 0 1 0.4,1 1.57,1.57 0 0 1 -0.15,0.68 L 66,82.34 a 1.22,1.22 0 0 1 -0.53,0.67 1.55,1.55 0 0 1 -0.8,0.23 z"
     id="path70"
     inkscape:connector-curvature="0"
     style="fill:#363026" />
  <path
     class="cls-1"
     d="m 107.8,83.49 a 7.42,7.42 0 0 1 -5,-1.69 10.34,10.34 0 0 1 -3,-4.64 22.16,22.16 0 0 1 0,-13.29 10.35,10.35 0 0 1 3,-4.61 8.2,8.2 0 0 1 10,0 10.3,10.3 0 0 1 3,4.61 22.36,22.36 0 0 1 0,13.29 10.29,10.29 0 0 1 -3,4.64 7.45,7.45 0 0 1 -5,1.69 z m 0,-2.91 a 4.53,4.53 0 0 0 3.2,-1.23 7.64,7.64 0 0 0 2,-3.47 18.34,18.34 0 0 0 0.69,-5.35 18.46,18.46 0 0 0 -0.69,-5.38 7.6,7.6 0 0 0 -2,-3.46 4.92,4.92 0 0 0 -6.44,0 7.72,7.72 0 0 0 -2,3.46 20.91,20.91 0 0 0 0,10.73 7.75,7.75 0 0 0 2,3.47 4.54,4.54 0 0 0 3.24,1.23 z"
     id="path72"
     inkscape:connector-curvature="0"
     style="fill:#363026" />
  <path
     class="cls-1"
     d="m 139.34,83.49 a 7.43,7.43 0 0 1 -5,-1.69 10.41,10.41 0 0 1 -3,-4.64 21.95,21.95 0 0 1 0,-13.29 10.42,10.42 0 0 1 3,-4.61 8.2,8.2 0 0 1 10,0 10.32,10.32 0 0 1 3,4.61 22.36,22.36 0 0 1 0,13.29 10.31,10.31 0 0 1 -3,4.64 7.42,7.42 0 0 1 -5,1.69 z m 0,-2.91 a 4.54,4.54 0 0 0 3.22,-1.23 7.73,7.73 0 0 0 2,-3.47 21.5,21.5 0 0 0 0,-10.73 7.69,7.69 0 0 0 -2,-3.46 4.92,4.92 0 0 0 -6.44,0 7.72,7.72 0 0 0 -2,3.46 18.1,18.1 0 0 0 -0.7,5.38 18,18 0 0 0 0.7,5.35 7.75,7.75 0 0 0 2,3.47 4.51,4.51 0 0 0 3.22,1.23 z"
     id="path74"
     inkscape:connector-curvature="0"
     style="fill:#363026" />
  <path
     class="cls-1"
     d="m 170.87,83.49 a 7.42,7.42 0 0 1 -5,-1.69 10.42,10.42 0 0 1 -3,-4.64 22.16,22.16 0 0 1 0,-13.29 10.43,10.43 0 0 1 3,-4.61 8.2,8.2 0 0 1 10,0 10.4,10.4 0 0 1 3,4.61 22.58,22.58 0 0 1 0,13.29 10.39,10.39 0 0 1 -3,4.64 7.45,7.45 0 0 1 -5,1.69 z m 0,-2.91 a 4.53,4.53 0 0 0 3.22,-1.23 7.55,7.55 0 0 0 2,-3.47 18.34,18.34 0 0 0 0.69,-5.35 18.46,18.46 0 0 0 -0.69,-5.38 7.52,7.52 0 0 0 -2,-3.46 4.92,4.92 0 0 0 -6.44,0 7.72,7.72 0 0 0 -2,3.46 20.91,20.91 0 0 0 0,10.73 7.75,7.75 0 0 0 2,3.47 4.54,4.54 0 0 0 3.22,1.23 z"
     id="path76"
     inkscape:connector-curvature="0"
     style="fill:#363026" />
  <path
     class="cls-1"
     d="m 212.31,83.49 a 7.45,7.45 0 0 1 -5,-1.69 10.41,10.41 0 0 1 -3,-4.64 21.95,21.95 0 0 1 0,-13.29 10.42,10.42 0 0 1 3,-4.61 8.2,8.2 0 0 1 10,0 10.24,10.24 0 0 1 3,4.61 22.36,22.36 0 0 1 0,13.29 10.23,10.23 0 0 1 -3,4.64 7.42,7.42 0 0 1 -5,1.69 z m 0,-2.91 a 4.54,4.54 0 0 0 3.22,-1.23 7.64,7.64 0 0 0 2,-3.47 21.5,21.5 0 0 0 0,-10.73 7.6,7.6 0 0 0 -2,-3.46 4.92,4.92 0 0 0 -6.44,0 7.72,7.72 0 0 0 -2,3.46 18.1,18.1 0 0 0 -0.7,5.38 18,18 0 0 0 0.7,5.35 7.75,7.75 0 0 0 2,3.47 4.53,4.53 0 0 0 3.22,1.23 z"
     id="path78"
     inkscape:connector-curvature="0"
     style="fill:#363026" />
  <path
     class="cls-1"
     d="m 243.84,83.49 a 7.42,7.42 0 0 1 -5,-1.69 10.51,10.51 0 0 1 -3,-4.64 22.16,22.16 0 0 1 0,-13.29 10.52,10.52 0 0 1 3,-4.61 8.2,8.2 0 0 1 10,0 10.4,10.4 0 0 1 3,4.61 22.58,22.58 0 0 1 0,13.29 10.39,10.39 0 0 1 -3,4.64 7.43,7.43 0 0 1 -5,1.69 z m 0,-2.91 a 4.55,4.55 0 0 0 3.23,-1.23 7.63,7.63 0 0 0 2,-3.47 18.34,18.34 0 0 0 0.69,-5.35 18.46,18.46 0 0 0 -0.69,-5.38 7.59,7.59 0 0 0 -2,-3.46 4.93,4.93 0 0 0 -6.45,0 7.7,7.7 0 0 0 -2,3.46 20.62,20.62 0 0 0 0,10.73 7.74,7.74 0 0 0 2,3.47 4.54,4.54 0 0 0 3.22,1.23 z"
     id="path80"
     inkscape:connector-curvature="0"
     style="fill:#363026" />
  <path
     class="cls-1"
     d="m 275.38,83.49 a 7.47,7.47 0 0 1 -5,-1.69 10.41,10.41 0 0 1 -3,-4.64 21.95,21.95 0 0 1 0,-13.29 10.42,10.42 0 0 1 3,-4.61 8.21,8.21 0 0 1 10,0 10.3,10.3 0 0 1 3,4.61 22.36,22.36 0 0 1 0,13.29 10.29,10.29 0 0 1 -3,4.64 7.47,7.47 0 0 1 -5,1.69 z m 0,-2.91 a 4.53,4.53 0 0 0 3.22,-1.23 7.64,7.64 0 0 0 2,-3.47 18.36,18.36 0 0 0 0.68,-5.35 18.48,18.48 0 0 0 -0.68,-5.38 7.6,7.6 0 0 0 -2,-3.46 4.92,4.92 0 0 0 -6.44,0 7.72,7.72 0 0 0 -2,3.46 18.1,18.1 0 0 0 -0.7,5.38 18,18 0 0 0 0.7,5.35 7.75,7.75 0 0 0 2,3.47 4.53,4.53 0 0 0 3.22,1.23 z"
     id="path82"
     inkscape:connector-curvature="0"
     style="fill:#363026" />
  <path
     class="cls-1"
     d="m 106.72,140.85 a 10.08,10.08 0 0 1 -2.93,-0.45 7.53,7.53 0 0 1 -2.61,-1.35 2,2 0 0 1 -0.47,-0.65 1.87,1.87 0 0 1 -0.18,-0.76 1.24,1.24 0 0 1 0.38,-0.84 1.26,1.26 0 0 1 1,-0.42 1.9,1.9 0 0 1 1.08,0.47 6.55,6.55 0 0 0 1.76,1 5.6,5.6 0 0 0 2,0.36 7,7 0 0 0 3.38,-0.79 5.94,5.94 0 0 0 2.32,-2.18 5.79,5.79 0 0 0 0.85,-3.11 5.61,5.61 0 0 0 -0.74,-2.9 5.09,5.09 0 0 0 -2,-1.93 7,7 0 0 0 -5.28,-0.3 13.6,13.6 0 0 0 -1.72,0.77 2.59,2.59 0 0 1 -1.19,0.4 1.67,1.67 0 0 1 -1.08,-0.31 1.35,1.35 0 0 1 -0.52,-0.77 1.84,1.84 0 0 1 -0.06,-0.86 l 1.41,-9.54 a 1.51,1.51 0 0 1 0.5,-0.82 1.47,1.47 0 0 1 1,-0.34 h 10.69 a 1.37,1.37 0 1 1 0,2.74 h -10 l 0.36,-0.32 -1.33,8.31 -0.58,-0.76 a 5.4,5.4 0 0 1 1.21,-0.72 11.74,11.74 0 0 1 1.87,-0.61 9.91,9.91 0 0 1 2.18,-0.25 8.33,8.33 0 0 1 4.08,1.08 7.94,7.94 0 0 1 2.94,2.9 8.17,8.17 0 0 1 1.08,4.21 8.8,8.8 0 0 1 -0.7,3.51 8.36,8.36 0 0 1 -2,2.79 9,9 0 0 1 -3,1.84 10.47,10.47 0 0 1 -3.7,0.6 z"
     id="path84"
     inkscape:connector-curvature="0"
     style="fill:#363026" />
  <path
     class="cls-1"
     d="m 139.34,141.06 a 7.45,7.45 0 0 1 -5,-1.69 10.35,10.35 0 0 1 -3,-4.64 21.95,21.95 0 0 1 0,-13.29 10.42,10.42 0 0 1 3,-4.61 8.2,8.2 0 0 1 10,0 10.24,10.24 0 0 1 3,4.61 22.36,22.36 0 0 1 0,13.29 10.17,10.17 0 0 1 -3,4.64 7.42,7.42 0 0 1 -5,1.69 z m 0,-2.91 a 4.54,4.54 0 0 0 3.22,-1.23 7.64,7.64 0 0 0 2,-3.47 21.5,21.5 0 0 0 0,-10.73 7.6,7.6 0 0 0 -2,-3.46 4.92,4.92 0 0 0 -6.44,0 7.72,7.72 0 0 0 -2,3.46 20.91,20.91 0 0 0 0,10.73 7.75,7.75 0 0 0 2,3.47 4.51,4.51 0 0 0 3.22,1.23 z"
     id="path86"
     inkscape:connector-curvature="0"
     style="fill:#363026" />
  <path
     class="cls-1"
     d="m 170.87,141.06 a 7.42,7.42 0 0 1 -5,-1.69 10.37,10.37 0 0 1 -3,-4.64 22.16,22.16 0 0 1 0,-13.29 10.43,10.43 0 0 1 3,-4.61 8.2,8.2 0 0 1 10,0 10.4,10.4 0 0 1 3,4.61 22.58,22.58 0 0 1 0,13.29 10.34,10.34 0 0 1 -3,4.64 7.43,7.43 0 0 1 -5,1.69 z m 0,-2.91 a 4.57,4.57 0 0 0 3.23,-1.23 7.63,7.63 0 0 0 2,-3.47 21.2,21.2 0 0 0 0,-10.73 7.59,7.59 0 0 0 -2,-3.46 4.93,4.93 0 0 0 -6.45,0 7.81,7.81 0 0 0 -2,3.46 20.91,20.91 0 0 0 0,10.73 7.85,7.85 0 0 0 2,3.47 4.54,4.54 0 0 0 3.22,1.23 z"
     id="path88"
     inkscape:connector-curvature="0"
     style="fill:#363026" />
  <path
     class="cls-1"
     d="m 212.31,141.06 a 7.45,7.45 0 0 1 -5,-1.69 10.35,10.35 0 0 1 -3,-4.64 21.95,21.95 0 0 1 0,-13.29 10.42,10.42 0 0 1 3,-4.61 8.2,8.2 0 0 1 10,0 10.24,10.24 0 0 1 3,4.61 22.36,22.36 0 0 1 0,13.29 10.17,10.17 0 0 1 -3,4.64 7.42,7.42 0 0 1 -5,1.69 z m 0,-2.91 a 4.54,4.54 0 0 0 3.22,-1.23 7.64,7.64 0 0 0 2,-3.47 21.5,21.5 0 0 0 0,-10.73 7.6,7.6 0 0 0 -2,-3.46 4.92,4.92 0 0 0 -6.44,0 7.72,7.72 0 0 0 -2,3.46 20.91,20.91 0 0 0 0,10.73 7.75,7.75 0 0 0 2,3.47 4.53,4.53 0 0 0 3.22,1.23 z"
     id="path90"
     inkscape:connector-curvature="0"
     style="fill:#363026" />
  <path
     class="cls-1"
     d="m 243.84,141.06 a 7.42,7.42 0 0 1 -5,-1.69 10.45,10.45 0 0 1 -3,-4.64 22.16,22.16 0 0 1 0,-13.29 10.52,10.52 0 0 1 3,-4.61 8.2,8.2 0 0 1 10,0 10.4,10.4 0 0 1 3,4.61 22.58,22.58 0 0 1 0,13.29 10.34,10.34 0 0 1 -3,4.64 7.43,7.43 0 0 1 -5,1.69 z m 0,-2.91 a 4.55,4.55 0 0 0 3.23,-1.23 7.63,7.63 0 0 0 2,-3.47 21.2,21.2 0 0 0 0,-10.73 7.59,7.59 0 0 0 -2,-3.46 4.93,4.93 0 0 0 -6.45,0 7.7,7.7 0 0 0 -2,3.46 20.62,20.62 0 0 0 0,10.73 7.74,7.74 0 0 0 2,3.47 4.54,4.54 0 0 0 3.22,1.23 z"
     id="path92"
     inkscape:connector-curvature="0"
     style="fill:#363026" />
  <path
     class="cls-1"
     d="m 275.38,141.06 a 7.47,7.47 0 0 1 -5,-1.69 10.35,10.35 0 0 1 -3,-4.64 21.95,21.95 0 0 1 0,-13.29 10.42,10.42 0 0 1 3,-4.61 8.21,8.21 0 0 1 10,0 10.3,10.3 0 0 1 3,4.61 22.36,22.36 0 0 1 0,13.29 10.24,10.24 0 0 1 -3,4.64 7.47,7.47 0 0 1 -5,1.69 z m 0,-2.91 a 4.53,4.53 0 0 0 3.22,-1.23 7.64,7.64 0 0 0 2,-3.47 21.5,21.5 0 0 0 0,-10.73 7.6,7.6 0 0 0 -2,-3.46 4.92,4.92 0 0 0 -6.44,0 7.72,7.72 0 0 0 -2,3.46 20.91,20.91 0 0 0 0,10.73 7.75,7.75 0 0 0 2,3.47 4.53,4.53 0 0 0 3.22,1.23 z"
     id="path94"
     inkscape:connector-curvature="0"
     style="fill:#363026" />
  <path
     class="cls-1"
     d="m 147.33,195.57 a 1.34,1.34 0 0 1 1,0.4 1.31,1.31 0 0 1 0.4,1 1.26,1.26 0 0 1 -0.4,1 1.35,1.35 0 0 1 -1,0.37 h -13.07 a 1.51,1.51 0 0 1 -1.06,-0.37 1.33,1.33 0 0 1 -0.41,-1 1.49,1.49 0 0 1 0.43,-1 l 8.13,-8.9 a 18.19,18.19 0 0 0 2.7,-3.51 6.34,6.34 0 0 0 0.94,-3.18 5,5 0 0 0 -0.63,-2.56 4.27,4.27 0 0 0 -1.75,-1.67 5.45,5.45 0 0 0 -2.62,-0.59 5.51,5.51 0 0 0 -2.76,0.75 5.24,5.24 0 0 0 -2.07,2.34 1.5,1.5 0 0 1 -0.56,0.56 1.28,1.28 0 0 1 -0.63,0.16 1.55,1.55 0 0 1 -1,-0.38 1.11,1.11 0 0 1 -0.47,-0.88 1.39,1.39 0 0 1 0.24,-0.76 6.61,6.61 0 0 1 0.56,-0.75 7.49,7.49 0 0 1 3,-2.77 8.29,8.29 0 0 1 3.86,-1 8.79,8.79 0 0 1 4.19,0.94 6.44,6.44 0 0 1 2.66,2.61 7.8,7.8 0 0 1 0.92,3.8 8.71,8.71 0 0 1 -0.48,2.79 13.14,13.14 0 0 1 -1.5,2.93 24.59,24.59 0 0 1 -2.55,3.17 l -6.3,7 -0.36,-0.36 z"
     id="path96"
     inkscape:connector-curvature="0"
     style="fill:#363026" />
  <path
     class="cls-1"
     d="m 170.87,198.63 a 7.42,7.42 0 0 1 -5,-1.69 10.37,10.37 0 0 1 -3,-4.64 22.16,22.16 0 0 1 0,-13.29 10.4,10.4 0 0 1 3,-4.6 8.16,8.16 0 0 1 10,0 10.37,10.37 0 0 1 3,4.6 22.58,22.58 0 0 1 0,13.29 10.34,10.34 0 0 1 -3,4.64 7.43,7.43 0 0 1 -5,1.69 z m 0,-2.91 a 4.6,4.6 0 0 0 3.23,-1.22 7.72,7.72 0 0 0 2,-3.48 21.2,21.2 0 0 0 0,-10.73 7.5,7.5 0 0 0 -2,-3.45 4.9,4.9 0 0 0 -6.45,0 7.71,7.71 0 0 0 -2,3.45 20.91,20.91 0 0 0 0,10.73 7.94,7.94 0 0 0 2,3.48 4.58,4.58 0 0 0 3.22,1.22 z"
     id="path98"
     inkscape:connector-curvature="0"
     style="fill:#363026" />
  <path
     class="cls-1"
     d="m 212.31,198.63 a 7.45,7.45 0 0 1 -5,-1.69 10.35,10.35 0 0 1 -3,-4.64 21.95,21.95 0 0 1 0,-13.29 10.38,10.38 0 0 1 3,-4.6 8.16,8.16 0 0 1 10,0 10.2,10.2 0 0 1 3,4.6 22.36,22.36 0 0 1 0,13.29 10.17,10.17 0 0 1 -3,4.64 7.42,7.42 0 0 1 -5,1.69 z m 0,-2.91 a 4.58,4.58 0 0 0 3.22,-1.22 7.73,7.73 0 0 0 2,-3.48 21.5,21.5 0 0 0 0,-10.73 7.51,7.51 0 0 0 -2,-3.45 4.89,4.89 0 0 0 -6.44,0 7.62,7.62 0 0 0 -2,3.45 20.91,20.91 0 0 0 0,10.73 7.85,7.85 0 0 0 2,3.48 4.56,4.56 0 0 0 3.22,1.22 z"
     id="path100"
     inkscape:connector-curvature="0"
     style="fill:#363026" />
  <path
     class="cls-1"
     d="m 243.84,198.63 a 7.42,7.42 0 0 1 -5,-1.69 10.45,10.45 0 0 1 -3,-4.64 22.16,22.16 0 0 1 0,-13.29 10.48,10.48 0 0 1 3,-4.6 8.16,8.16 0 0 1 10,0 10.37,10.37 0 0 1 3,4.6 22.58,22.58 0 0 1 0,13.29 10.34,10.34 0 0 1 -3,4.64 7.43,7.43 0 0 1 -5,1.69 z m 0,-2.91 a 4.59,4.59 0 0 0 3.23,-1.22 7.72,7.72 0 0 0 2,-3.48 21.2,21.2 0 0 0 0,-10.73 7.5,7.5 0 0 0 -2,-3.45 4.9,4.9 0 0 0 -6.45,0 7.61,7.61 0 0 0 -2,3.45 20.62,20.62 0 0 0 0,10.73 7.84,7.84 0 0 0 2,3.48 4.58,4.58 0 0 0 3.22,1.22 z"
     id="path102"
     inkscape:connector-curvature="0"
     style="fill:#363026" />
  <path
     class="cls-1"
     d="m 275.38,198.63 a 7.47,7.47 0 0 1 -5,-1.69 10.35,10.35 0 0 1 -3,-4.64 21.95,21.95 0 0 1 0,-13.29 10.38,10.38 0 0 1 3,-4.6 8.17,8.17 0 0 1 10,0 10.27,10.27 0 0 1 3,4.6 22.36,22.36 0 0 1 0,13.29 10.24,10.24 0 0 1 -3,4.64 7.47,7.47 0 0 1 -5,1.69 z m 0,-2.91 a 4.56,4.56 0 0 0 3.22,-1.22 7.73,7.73 0 0 0 2,-3.48 21.5,21.5 0 0 0 0,-10.73 7.51,7.51 0 0 0 -2,-3.45 4.89,4.89 0 0 0 -6.44,0 7.62,7.62 0 0 0 -2,3.45 20.91,20.91 0 0 0 0,10.73 7.85,7.85 0 0 0 2,3.48 4.56,4.56 0 0 0 3.22,1.22 z"
     id="path104"
     inkscape:connector-curvature="0"
     style="fill:#363026" />
  <path
     class="cls-1"
     d="m 166.23,249.67 a 1.49,1.49 0 0 1 0.48,0.09 1.9,1.9 0 0 1 0.6,0.38 5.65,5.65 0 0 0 1.69,1 5.76,5.76 0 0 0 2.23,0.4 6,6 0 0 0 2.85,-0.7 5.67,5.67 0 0 0 2.1,-2 5.54,5.54 0 0 0 0.81,-3 5.19,5.19 0 0 0 -0.81,-3 4.86,4.86 0 0 0 -2.05,-1.72 6.19,6.19 0 0 0 -2.61,-0.56 5.53,5.53 0 0 0 -0.94,0.07 c -0.28,0.05 -0.55,0.11 -0.8,0.18 a 2.73,2.73 0 0 1 -0.71,0.11 1.1,1.1 0 0 1 -0.9,-0.4 1.51,1.51 0 0 1 -0.32,-1 1.41,1.41 0 0 1 0.15,-0.52 1.88,1.88 0 0 1 0.36,-0.56 l 7.05,-7.78 0.58,0.69 h -10.27 a 1.35,1.35 0 0 1 -1,-0.4 1.33,1.33 0 0 1 -0.39,-1 1.29,1.29 0 0 1 0.39,-1 1.37,1.37 0 0 1 1,-0.37 h 11.74 a 1.38,1.38 0 0 1 1.15,0.45 1.55,1.55 0 0 1 0.36,1 1.31,1.31 0 0 1 -0.14,0.59 2.34,2.34 0 0 1 -0.4,0.52 l -7,7.81 -0.83,-0.72 a 2.59,2.59 0 0 1 0.83,-0.27 6.29,6.29 0 0 1 1.08,-0.12 7.29,7.29 0 0 1 3.71,1 7.18,7.18 0 0 1 2.7,2.74 8.12,8.12 0 0 1 1,4.1 8.35,8.35 0 0 1 -1.19,4.5 8,8 0 0 1 -3.26,2.95 10.14,10.14 0 0 1 -4.66,1.05 9.15,9.15 0 0 1 -2.83,-0.45 6.85,6.85 0 0 1 -2.39,-1.32 1.48,1.48 0 0 1 -0.63,-0.57 1.45,1.45 0 0 1 -0.16,-0.65 1.68,1.68 0 0 1 0.41,-1.05 1.3,1.3 0 0 1 1.02,-0.47 z"
     id="path106"
     inkscape:connector-curvature="0"
     style="fill:#363026" />
  <path
     class="cls-1"
     d="m 212.31,254.21 a 7.45,7.45 0 0 1 -5,-1.7 10.3,10.3 0 0 1 -3,-4.64 21.92,21.92 0 0 1 0,-13.28 10.36,10.36 0 0 1 3,-4.61 8.2,8.2 0 0 1 10,0 10.18,10.18 0 0 1 3,4.61 22.33,22.33 0 0 1 0,13.28 10.12,10.12 0 0 1 -3,4.64 7.43,7.43 0 0 1 -5,1.7 z m 0,-2.92 a 4.58,4.58 0 0 0 3.22,-1.22 7.73,7.73 0 0 0 2,-3.48 18.69,18.69 0 0 0 0.68,-5.34 18.91,18.91 0 0 0 -0.68,-5.39 7.51,7.51 0 0 0 -2,-3.45 4.89,4.89 0 0 0 -6.44,0 7.62,7.62 0 0 0 -2,3.45 18.17,18.17 0 0 0 -0.7,5.39 18,18 0 0 0 0.7,5.34 7.85,7.85 0 0 0 2,3.48 4.56,4.56 0 0 0 3.22,1.22 z"
     id="path108"
     inkscape:connector-curvature="0"
     style="fill:#363026" />
  <path
     class="cls-1"
     d="m 243.84,254.21 a 7.43,7.43 0 0 1 -5,-1.7 10.39,10.39 0 0 1 -3,-4.64 22.12,22.12 0 0 1 0,-13.28 10.46,10.46 0 0 1 3,-4.61 8.2,8.2 0 0 1 10,0 10.35,10.35 0 0 1 3,4.61 22.54,22.54 0 0 1 0,13.28 10.28,10.28 0 0 1 -3,4.64 7.44,7.44 0 0 1 -5,1.7 z m 0,-2.92 a 4.59,4.59 0 0 0 3.23,-1.22 7.72,7.72 0 0 0 2,-3.48 18.32,18.32 0 0 0 0.69,-5.34 18.53,18.53 0 0 0 -0.69,-5.39 7.5,7.5 0 0 0 -2,-3.45 4.9,4.9 0 0 0 -6.45,0 7.61,7.61 0 0 0 -2,3.45 18.15,18.15 0 0 0 -0.71,5.39 17.94,17.94 0 0 0 0.71,5.34 7.84,7.84 0 0 0 2,3.48 4.58,4.58 0 0 0 3.22,1.22 z"
     id="path110"
     inkscape:connector-curvature="0"
     style="fill:#363026" />
  <path
     class="cls-1"
     d="m 275.38,254.21 a 7.47,7.47 0 0 1 -5,-1.7 10.3,10.3 0 0 1 -3,-4.64 21.92,21.92 0 0 1 0,-13.28 10.36,10.36 0 0 1 3,-4.61 8.21,8.21 0 0 1 10,0 10.25,10.25 0 0 1 3,4.61 22.33,22.33 0 0 1 0,13.28 10.19,10.19 0 0 1 -3,4.64 7.47,7.47 0 0 1 -5,1.7 z m 0,-2.92 a 4.56,4.56 0 0 0 3.22,-1.22 7.73,7.73 0 0 0 2,-3.48 18.34,18.34 0 0 0 0.68,-5.34 18.56,18.56 0 0 0 -0.68,-5.39 7.51,7.51 0 0 0 -2,-3.45 4.89,4.89 0 0 0 -6.44,0 7.62,7.62 0 0 0 -2,3.45 18.17,18.17 0 0 0 -0.7,5.39 18,18 0 0 0 0.7,5.34 7.85,7.85 0 0 0 2,3.48 4.56,4.56 0 0 0 3.22,1.22 z"
     id="path112"
     inkscape:connector-curvature="0"
     style="fill:#363026" />
  <path
     class="cls-1"
     d="m 212.31,311.78 a 7.5,7.5 0 0 1 -5,-1.69 10.39,10.39 0 0 1 -3,-4.65 21.92,21.92 0 0 1 0,-13.28 10.36,10.36 0 0 1 3,-4.61 8.2,8.2 0 0 1 10,0 10.18,10.18 0 0 1 3,4.61 22.33,22.33 0 0 1 0,13.28 10.21,10.21 0 0 1 -3,4.65 7.47,7.47 0 0 1 -5,1.69 z m 0,-2.92 a 4.58,4.58 0 0 0 3.22,-1.22 7.73,7.73 0 0 0 2,-3.48 21.46,21.46 0 0 0 0,-10.72 7.55,7.55 0 0 0 -2,-3.46 4.89,4.89 0 0 0 -6.44,0 7.66,7.66 0 0 0 -2,3.46 20.87,20.87 0 0 0 0,10.72 7.85,7.85 0 0 0 2,3.48 4.56,4.56 0 0 0 3.22,1.22 z"
     id="path114"
     inkscape:connector-curvature="0"
     style="fill:#363026" />
  <path
     class="cls-1"
     d="m 243.84,311.78 a 7.47,7.47 0 0 1 -5,-1.69 10.49,10.49 0 0 1 -3,-4.65 22.12,22.12 0 0 1 0,-13.28 10.46,10.46 0 0 1 3,-4.61 8.2,8.2 0 0 1 10,0 10.35,10.35 0 0 1 3,4.61 22.54,22.54 0 0 1 0,13.28 10.37,10.37 0 0 1 -3,4.65 7.48,7.48 0 0 1 -5,1.69 z m 0,-2.92 a 4.59,4.59 0 0 0 3.23,-1.22 7.72,7.72 0 0 0 2,-3.48 21.16,21.16 0 0 0 0,-10.72 7.54,7.54 0 0 0 -2,-3.46 4.9,4.9 0 0 0 -6.45,0 7.65,7.65 0 0 0 -2,3.46 20.59,20.59 0 0 0 0,10.72 7.84,7.84 0 0 0 2,3.48 4.58,4.58 0 0 0 3.22,1.22 z"
     id="path116"
     inkscape:connector-curvature="0"
     style="fill:#363026" />
  <path
     class="cls-1"
     d="m 275.38,311.78 a 7.52,7.52 0 0 1 -5,-1.69 10.39,10.39 0 0 1 -3,-4.65 21.92,21.92 0 0 1 0,-13.28 10.36,10.36 0 0 1 3,-4.61 8.21,8.21 0 0 1 10,0 10.25,10.25 0 0 1 3,4.61 22.33,22.33 0 0 1 0,13.28 10.27,10.27 0 0 1 -3,4.65 7.52,7.52 0 0 1 -5,1.69 z m 0,-2.92 a 4.56,4.56 0 0 0 3.22,-1.22 7.73,7.73 0 0 0 2,-3.48 21.46,21.46 0 0 0 0,-10.72 7.55,7.55 0 0 0 -2,-3.46 4.89,4.89 0 0 0 -6.44,0 7.66,7.66 0 0 0 -2,3.46 20.87,20.87 0 0 0 0,10.72 7.85,7.85 0 0 0 2,3.48 4.56,4.56 0 0 0 3.22,1.22 z"
     id="path118"
     inkscape:connector-curvature="0"
     style="fill:#363026" />
  <path
     class="cls-1"
     d="m 244.64,343.36 a 8.12,8.12 0 0 1 3.61,0.77 7.4,7.4 0 0 1 2.61,2.11 9.61,9.61 0 0 1 1.59,3 11,11 0 0 1 0.54,3.42 16.46,16.46 0 0 1 -0.4,3.44 21.17,21.17 0 0 1 -1.2,3.84 19.09,19.09 0 0 1 -2.11,3.74 15.74,15.74 0 0 1 -3.1,3.22 13.71,13.71 0 0 1 -4.18,2.2 1.84,1.84 0 0 1 -0.57,0.11 1.61,1.61 0 0 1 -1,-0.37 1.27,1.27 0 0 1 -0.45,-1.08 1.3,1.3 0 0 1 0.33,-0.88 1.86,1.86 0 0 1 0.86,-0.55 12.78,12.78 0 0 0 3.73,-2.22 15.58,15.58 0 0 0 3.1,-3.51 11.79,11.79 0 0 0 1.75,-4.28 l 0.86,-0.29 a 7.91,7.91 0 0 1 -3.69,3.2 6.82,6.82 0 0 1 -2.75,0.54 6.68,6.68 0 0 1 -2.95,-0.66 8,8 0 0 1 -2.42,-1.82 8.65,8.65 0 0 1 -1.63,-2.65 8.24,8.24 0 0 1 -0.6,-3.11 8,8 0 0 1 1.06,-4.07 8.5,8.5 0 0 1 2.9,-3 7.74,7.74 0 0 1 4.11,-1.1 z m 0,2.7 a 5,5 0 0 0 -2.64,0.7 5.19,5.19 0 0 0 -1.86,1.92 5.83,5.83 0 0 0 -0.68,2.85 6.19,6.19 0 0 0 0.61,2.72 5,5 0 0 0 1.76,2 4.77,4.77 0 0 0 2.7,0.76 5.41,5.41 0 0 0 2.92,-0.76 5.06,5.06 0 0 0 1.89,-2 6,6 0 0 0 0.67,-2.79 5.56,5.56 0 0 0 -0.65,-2.68 5.21,5.21 0 0 0 -1.85,-2 5.34,5.34 0 0 0 -2.84,-0.72 z"
     id="path120"
     inkscape:connector-curvature="0"
     style="fill:#363026" />
  <path
     class="cls-1"
     d="m 275.38,369.35 a 7.47,7.47 0 0 1 -5,-1.69 10.39,10.39 0 0 1 -3,-4.65 21.92,21.92 0 0 1 0,-13.28 10.42,10.42 0 0 1 3,-4.61 8.21,8.21 0 0 1 10,0 10.3,10.3 0 0 1 3,4.61 22.33,22.33 0 0 1 0,13.28 10.27,10.27 0 0 1 -3,4.65 7.47,7.47 0 0 1 -5,1.69 z m 0,-2.92 a 4.52,4.52 0 0 0 3.22,-1.22 7.7,7.7 0 0 0 2,-3.47 21.5,21.5 0 0 0 0,-10.73 7.6,7.6 0 0 0 -2,-3.46 4.89,4.89 0 0 0 -6.44,0 7.72,7.72 0 0 0 -2,3.46 20.91,20.91 0 0 0 0,10.73 7.81,7.81 0 0 0 2,3.47 4.52,4.52 0 0 0 3.22,1.22 z"
     id="path122"
     inkscape:connector-curvature="0"
     style="fill:#363026" />
  <path
     class="cls-1"
     d="m 276.86,426.92 a 8.14,8.14 0 0 1 -3.62,-0.77 7.4,7.4 0 0 1 -2.61,-2.11 9.55,9.55 0 0 1 -1.59,-3 10.93,10.93 0 0 1 -0.54,-3.42 17.42,17.42 0 0 1 0.4,-3.45 22.13,22.13 0 0 1 1.21,-3.91 19.13,19.13 0 0 1 2.1,-3.83 16.4,16.4 0 0 1 3.1,-3.3 13.35,13.35 0 0 1 4.14,-2.25 2.52,2.52 0 0 1 0.57,-0.07 1.74,1.74 0 0 1 1,0.31 1.22,1.22 0 0 1 0.45,1.09 1.37,1.37 0 0 1 -0.32,0.89 1.94,1.94 0 0 1 -0.87,0.55 11.66,11.66 0 0 0 -2.82,1.57 14.9,14.9 0 0 0 -2.56,2.41 17.24,17.24 0 0 0 -2,3 12,12 0 0 0 -1.17,3.33 l -0.86,0.29 a 9.08,9.08 0 0 1 1.55,-1.84 7.76,7.76 0 0 1 2.18,-1.4 6.92,6.92 0 0 1 5.67,0.14 8.27,8.27 0 0 1 2.41,1.84 9,9 0 0 1 1.64,2.64 8.52,8.52 0 0 1 0.59,3.12 8,8 0 0 1 -1.06,4.05 8.42,8.42 0 0 1 -2.88,3 7.68,7.68 0 0 1 -4.11,1.12 z m 0,-2.7 a 5,5 0 0 0 2.65,-0.7 5.11,5.11 0 0 0 1.85,-1.95 5.69,5.69 0 0 0 0.68,-2.82 6.15,6.15 0 0 0 -0.61,-2.74 5.13,5.13 0 0 0 -1.74,-2 4.71,4.71 0 0 0 -2.72,-0.78 5.5,5.5 0 0 0 -2.97,0.77 5.2,5.2 0 0 0 -1.89,2 6.11,6.11 0 0 0 -0.66,2.83 5.59,5.59 0 0 0 0.64,2.66 5.12,5.12 0 0 0 1.86,2 5.22,5.22 0 0 0 2.87,0.73 z"
     id="path124"
     inkscape:connector-curvature="0"
     style="fill:#363026" />
  <line
     class="cls-3"
     x1="1.52"
     y1="436.48999"
     x2="313.01999"
     y2="436.48999"
     id="line126"
     style="fill:none;stroke:#1f8ebe;stroke-width:3px;stroke-linecap:round;stroke-miterlimit:10" />
</svg>
