<?xml version="1.0" encoding="UTF-8" standalone="no"?>
<svg
   xmlns:dc="http://purl.org/dc/elements/1.1/"
   xmlns:cc="http://creativecommons.org/ns#"
   xmlns:rdf="http://www.w3.org/1999/02/22-rdf-syntax-ns#"
   xmlns:svg="http://www.w3.org/2000/svg"
   xmlns="http://www.w3.org/2000/svg"
   xmlns:sodipodi="http://sodipodi.sourceforge.net/DTD/sodipodi-0.dtd"
   xmlns:inkscape="http://www.inkscape.org/namespaces/inkscape"
   viewBox="0 0 283 49"
   version="1.1"
   id="svg26"
   sodipodi:docname="Glosa_1.svg"
   inkscape:version="0.92.3 (2405546, 2018-03-11)">
  <metadata
     id="metadata30">
    <rdf:RDF>
      <cc:Work
         rdf:about="">
        <dc:format>image/svg+xml</dc:format>
        <dc:type
           rdf:resource="http://purl.org/dc/dcmitype/StillImage" />
      </cc:Work>
    </rdf:RDF>
  </metadata>
  <sodipodi:namedview
     pagecolor="#ffffff"
     bordercolor="#666666"
     borderopacity="1"
     objecttolerance="10"
     gridtolerance="10"
     guidetolerance="10"
     inkscape:pageopacity="0"
     inkscape:pageshadow="2"
     inkscape:window-width="1295"
     inkscape:window-height="713"
     id="namedview28"
     showgrid="false"
     inkscape:zoom="1.6609982"
     inkscape:cx="141.5"
     inkscape:cy="24.5"
     inkscape:window-x="65"
     inkscape:window-y="27"
     inkscape:window-maximized="1"
     inkscape:current-layer="svg26" />
  <defs
     id="defs4">
    <style
       id="style2">.cls-1{fill:#363026;}.cls-2{fill:none;stroke:#1f8ebe;stroke-miterlimit:10;stroke-width:3px;}</style>
  </defs>
  <path
     class="cls-1"
     d="m 29.38,37.19 a 1.51,1.51 0 0 1 -1.12,-0.43 1.47,1.47 0 0 1 -0.43,-1 V 15.23 l 0.43,0.5 -4.17,2.52 A 1.48,1.48 0 0 1 23.37,18.43 1.37,1.37 0 0 1 22.32,18 1.55,1.55 0 0 1 21.89,17 1.41,1.41 0 0 1 22.65,15.74 l 5.87,-3.49 A 1.89,1.89 0 0 1 29.6,12 a 1.25,1.25 0 0 1 1,0.41 1.52,1.52 0 0 1 0.36,1 v 22.3 a 1.47,1.47 0 0 1 -0.43,1 1.51,1.51 0 0 1 -1.15,0.48 z"
     id="path6"
     inkscape:connector-curvature="0"
     style="fill:#363026" />
  <path
     class="cls-1"
     d="m 50.76,37.3 a 1.63,1.63 0 0 1 -1,-0.38 1.21,1.21 0 0 1 -0.47,-1 1.54,1.54 0 0 1 0.15,-0.65 L 58.72,14 l 0.4,0.65 h -11.6 a 1.3,1.3 0 0 1 -1,-0.4 1.31,1.31 0 0 1 -0.39,-1 1.27,1.27 0 0 1 0.39,-1 1.36,1.36 0 0 1 1,-0.38 h 13 a 1.5,1.5 0 0 1 1.08,0.38 1.32,1.32 0 0 1 0.4,1 1.57,1.57 0 0 1 -0.15,0.68 L 52.1,36.4 a 1.16,1.16 0 0 1 -0.53,0.66 1.47,1.47 0 0 1 -0.81,0.24 z"
     id="path8"
     inkscape:connector-curvature="0"
     style="fill:#363026" />
  <path
     class="cls-1"
     d="m 91.3,37.33 a 10.2,10.2 0 0 1 -2.94,-0.45 7.71,7.71 0 0 1 -2.61,-1.35 1.82,1.82 0 0 1 -0.46,-0.64 1.87,1.87 0 0 1 -0.18,-0.76 1.27,1.27 0 0 1 0.37,-0.85 1.32,1.32 0 0 1 1,-0.41 1.85,1.85 0 0 1 1.08,0.47 6.61,6.61 0 0 0 1.77,1 5.54,5.54 0 0 0 1.94,0.36 7.07,7.07 0 0 0 3.39,-0.79 A 6.09,6.09 0 0 0 97,31.7 5.87,5.87 0 0 0 97.84,28.59 5.58,5.58 0 0 0 97.11,25.69 5.11,5.11 0 0 0 95,23.76 6.44,6.44 0 0 0 92,23.08 6.25,6.25 0 0 0 89.73,23.46 13.79,13.79 0 0 0 88,24.23 a 2.67,2.67 0 0 1 -1.19,0.4 1.77,1.77 0 0 1 -1.08,-0.31 1.46,1.46 0 0 1 -0.52,-0.77 2,2 0 0 1 0,-0.87 l 1.4,-9.54 a 1.48,1.48 0 0 1 0.51,-0.81 1.4,1.4 0 0 1 1,-0.34 h 10.63 a 1.3,1.3 0 0 1 1,0.4 1.28,1.28 0 0 1 0.4,1 1.3,1.3 0 0 1 -0.4,1 1.34,1.34 0 0 1 -1,0.4 h -10 L 89.11,14.46 87.78,22.78 87.23,22 a 4.57,4.57 0 0 1 1.21,-0.72 10.8,10.8 0 0 1 1.87,-0.61 9.29,9.29 0 0 1 2.18,-0.25 8.26,8.26 0 0 1 4.19,1.06 7.84,7.84 0 0 1 2.93,2.9 8.14,8.14 0 0 1 1.08,4.21 8.63,8.63 0 0 1 -0.7,3.51 8.36,8.36 0 0 1 -2,2.79 9.21,9.21 0 0 1 -3,1.84 10.46,10.46 0 0 1 -3.69,0.6 z"
     id="path10"
     inkscape:connector-curvature="0"
     style="fill:#363026" />
  <path
     class="cls-1"
     d="m 130.32,34.49 a 1.37,1.37 0 0 1 1.37,1.37 1.24,1.24 0 0 1 -0.4,1 1.34,1.34 0 0 1 -1,0.38 h -13.04 a 1.53,1.53 0 0 1 -1.06,-0.38 1.33,1.33 0 0 1 -0.41,-1 1.49,1.49 0 0 1 0.43,-1 l 8.14,-8.89 a 19.73,19.73 0 0 0 2.7,-3.51 6.43,6.43 0 0 0 0.93,-3.19 5,5 0 0 0 -0.63,-2.55 4.39,4.39 0 0 0 -1.74,-1.68 5.61,5.61 0 0 0 -2.63,-0.59 5.42,5.42 0 0 0 -2.76,0.76 5.19,5.19 0 0 0 -2.07,2.34 1.44,1.44 0 0 1 -0.55,0.55 1.35,1.35 0 0 1 -0.63,0.17 1.57,1.57 0 0 1 -1,-0.38 1.11,1.11 0 0 1 -0.46,-0.88 1.33,1.33 0 0 1 0.23,-0.76 c 0.16,-0.24 0.34,-0.49 0.56,-0.76 a 7.52,7.52 0 0 1 3,-2.77 8.21,8.21 0 0 1 3.85,-1 8.67,8.67 0 0 1 4.19,0.94 6.4,6.4 0 0 1 2.66,2.52 7.75,7.75 0 0 1 0.91,3.79 8.62,8.62 0 0 1 -0.48,2.79 12.79,12.79 0 0 1 -1.43,2.94 25.29,25.29 0 0 1 -2.55,3.17 l -6.3,7 -0.36,-0.36 z"
     id="path12"
     inkscape:connector-curvature="0"
     style="fill:#363026" />
  <path
     class="cls-1"
     d="m 146.34,33 a 1.6,1.6 0 0 1 0.49,0.09 1.87,1.87 0 0 1 0.59,0.38 5.59,5.59 0 0 0 3.93,1.44 5.86,5.86 0 0 0 2.84,-0.7 5.61,5.61 0 0 0 2.11,-2 5.51,5.51 0 0 0 0.8,-3 5.16,5.16 0 0 0 -0.8,-3 4.91,4.91 0 0 0 -2.06,-1.73 6.31,6.31 0 0 0 -2.61,-0.56 6.64,6.64 0 0 0 -0.93,0.07 8.14,8.14 0 0 0 -0.81,0.18 2.31,2.31 0 0 1 -0.7,0.11 1.12,1.12 0 0 1 -0.91,-0.39 1.54,1.54 0 0 1 -0.32,-1 1.63,1.63 0 0 1 0.11,-0.59 1.88,1.88 0 0 1 0.36,-0.56 l 7,-7.77 0.58,0.68 h -10.17 a 1.35,1.35 0 0 1 -1.37,-1.37 1.27,1.27 0 0 1 0.39,-1 1.38,1.38 0 0 1 1,-0.38 h 11.73 a 1.42,1.42 0 0 1 1.16,0.45 1.61,1.61 0 0 1 0.36,1 1.18,1.18 0 0 1 -0.15,0.59 2.32,2.32 0 0 1 -0.39,0.53 l -7,7.81 -0.82,-0.72 a 2,2 0 0 1 0.82,-0.27 5.55,5.55 0 0 1 1.08,-0.13 7.36,7.36 0 0 1 3.71,1 7.18,7.18 0 0 1 2.64,2.84 8,8 0 0 1 1,4.1 8.26,8.26 0 0 1 -1.19,4.5 8,8 0 0 1 -3.26,3 10.27,10.27 0 0 1 -4.66,1 9,9 0 0 1 -2.82,-0.45 7,7 0 0 1 -2.4,-1.31 1.44,1.44 0 0 1 -0.63,-0.58 1.42,1.42 0 0 1 -0.16,-0.65 1.63,1.63 0 0 1 0.41,-1 1.28,1.28 0 0 1 1.05,-0.61 z"
     id="path14"
     inkscape:connector-curvature="0"
     style="fill:#363026" />
  <path
     class="cls-1"
     d="m 192.42,37.55 a 7.42,7.42 0 0 1 -5,-1.69 10.32,10.32 0 0 1 -3,-4.65 20.13,20.13 0 0 1 -1,-6.62 20.08,20.08 0 0 1 1,-6.66 10.35,10.35 0 0 1 3,-4.61 8.2,8.2 0 0 1 10,0 10.3,10.3 0 0 1 3,4.61 20.35,20.35 0 0 1 1,6.66 20.4,20.4 0 0 1 -1,6.62 10.27,10.27 0 0 1 -3,4.65 7.47,7.47 0 0 1 -5,1.69 z m 0,-2.92 a 4.52,4.52 0 0 0 3.22,-1.22 7.7,7.7 0 0 0 2,-3.47 18.41,18.41 0 0 0 0.68,-5.35 18.48,18.48 0 0 0 -0.68,-5.38 7.6,7.6 0 0 0 -2,-3.46 4.92,4.92 0 0 0 -6.44,0 7.72,7.72 0 0 0 -2,3.46 18.1,18.1 0 0 0 -0.7,5.38 18,18 0 0 0 0.7,5.35 7.81,7.81 0 0 0 2,3.47 4.52,4.52 0 0 0 3.22,1.22 z"
     id="path16"
     inkscape:connector-curvature="0"
     style="fill:#363026" />
  <path
     class="cls-1"
     d="m 223,11.56 a 8.14,8.14 0 0 1 3.62,0.77 7.4,7.4 0 0 1 2.61,2.11 9.55,9.55 0 0 1 1.59,3 10.93,10.93 0 0 1 0.54,3.42 17.15,17.15 0 0 1 -0.4,3.43 21.22,21.22 0 0 1 -1.21,3.84 19,19 0 0 1 -2.1,3.74 16,16 0 0 1 -3.1,3.22 13.71,13.71 0 0 1 -4.14,2.22 1.89,1.89 0 0 1 -0.57,0.11 1.6,1.6 0 0 1 -1,-0.36 1.3,1.3 0 0 1 -0.45,-1.08 1.37,1.37 0 0 1 0.32,-0.89 1.94,1.94 0 0 1 0.87,-0.55 12.52,12.52 0 0 0 3.72,-2.22 15.62,15.62 0 0 0 3.1,-3.51 11.79,11.79 0 0 0 1.75,-4.28 l 0.86,-0.29 a 7.94,7.94 0 0 1 -1.51,1.82 8.09,8.09 0 0 1 -2.18,1.38 6.85,6.85 0 0 1 -2.75,0.54 6.75,6.75 0 0 1 -3,-0.66 8,8 0 0 1 -2.41,-1.82 8.87,8.87 0 0 1 -1.64,-2.65 8.43,8.43 0 0 1 -0.59,-3.11 8,8 0 0 1 1.07,-4.08 8.5,8.5 0 0 1 2.9,-3 7.68,7.68 0 0 1 4.1,-1.1 z m 0,2.7 a 5,5 0 0 0 -2.65,0.7 5.12,5.12 0 0 0 -1.85,1.93 5.66,5.66 0 0 0 -0.68,2.84 6.19,6.19 0 0 0 0.61,2.72 4.89,4.89 0 0 0 1.76,2 4.77,4.77 0 0 0 2.7,0.76 5.41,5.41 0 0 0 2.92,-0.76 5.2,5.2 0 0 0 1.89,-2 6,6 0 0 0 0.66,-2.79 5.56,5.56 0 0 0 -0.64,-2.68 5.24,5.24 0 0 0 -1.86,-2 5.3,5.3 0 0 0 -2.86,-0.72 z"
     id="path18"
     inkscape:connector-curvature="0"
     style="fill:#363026" />
  <path
     class="cls-1"
     d="m 253,37.55 a 8.12,8.12 0 0 1 -3.61,-0.77 7.4,7.4 0 0 1 -2.61,-2.11 9.55,9.55 0 0 1 -1.59,-3 10.93,10.93 0 0 1 -0.54,-3.42 16.7,16.7 0 0 1 0.4,-3.45 22.07,22.07 0 0 1 1.2,-3.91 19.18,19.18 0 0 1 2.11,-3.83 16.13,16.13 0 0 1 3.1,-3.3 13.35,13.35 0 0 1 4.14,-2.25 2.46,2.46 0 0 1 0.57,-0.07 1.74,1.74 0 0 1 1,0.31 1.22,1.22 0 0 1 0.45,1.09 1.33,1.33 0 0 1 -0.33,0.89 1.86,1.86 0 0 1 -0.86,0.55 11.9,11.9 0 0 0 -2.83,1.57 15.21,15.21 0 0 0 -2.55,2.41 17.24,17.24 0 0 0 -2,3 12,12 0 0 0 -1.17,3.33 l -0.86,0.29 a 9.08,9.08 0 0 1 1.6,-1.88 7.85,7.85 0 0 1 2.17,-1.4 6.77,6.77 0 0 1 2.72,-0.54 6.56,6.56 0 0 1 2.95,0.68 8.18,8.18 0 0 1 2.42,1.84 8.72,8.72 0 0 1 1.63,2.64 8.33,8.33 0 0 1 0.6,3.12 8.11,8.11 0 0 1 -1.06,4.05 8.5,8.5 0 0 1 -2.88,3 7.71,7.71 0 0 1 -4.17,1.16 z m 0,-2.7 a 5,5 0 0 0 2.64,-0.7 5.13,5.13 0 0 0 1.86,-1.95 5.8,5.8 0 0 0 0.68,-2.82 6.15,6.15 0 0 0 -0.61,-2.74 5.07,5.07 0 0 0 -1.75,-2 4.65,4.65 0 0 0 -2.71,-0.78 5.5,5.5 0 0 0 -2.92,0.76 5.06,5.06 0 0 0 -1.89,2 6.12,6.12 0 0 0 -0.67,2.83 5.6,5.6 0 0 0 0.65,2.66 5.05,5.05 0 0 0 1.86,2 5.2,5.2 0 0 0 2.86,0.74 z"
     id="path20"
     inkscape:connector-curvature="0"
     style="fill:#363026" />
  <rect
     class="cls-2"
     x="1.5"
     y="1.5"
     width="280"
     height="46"
     rx="5.3600001"
     id="rect22"
     style="fill:none;stroke:#1f8ebe;stroke-width:3px;stroke-miterlimit:10" />
</svg>
