<?xml version="1.0" encoding="UTF-8" standalone="no"?>
<svg
   xmlns:dc="http://purl.org/dc/elements/1.1/"
   xmlns:cc="http://creativecommons.org/ns#"
   xmlns:rdf="http://www.w3.org/1999/02/22-rdf-syntax-ns#"
   xmlns:svg="http://www.w3.org/2000/svg"
   xmlns="http://www.w3.org/2000/svg"
   xmlns:sodipodi="http://sodipodi.sourceforge.net/DTD/sodipodi-0.dtd"
   xmlns:inkscape="http://www.inkscape.org/namespaces/inkscape"
   viewBox="0 0 283 49"
   version="1.1"
   id="svg26"
   sodipodi:docname="v1_glosa_1.svg"
   inkscape:version="0.92.3 (2405546, 2018-03-11)">
  <metadata
     id="metadata30">
    <rdf:RDF>
      <cc:Work
         rdf:about="">
        <dc:format>image/svg+xml</dc:format>
        <dc:type
           rdf:resource="http://purl.org/dc/dcmitype/StillImage" />
      </cc:Work>
    </rdf:RDF>
  </metadata>
  <sodipodi:namedview
     pagecolor="#ffffff"
     bordercolor="#666666"
     borderopacity="1"
     objecttolerance="10"
     gridtolerance="10"
     guidetolerance="10"
     inkscape:pageopacity="0"
     inkscape:pageshadow="2"
     inkscape:window-width="1600"
     inkscape:window-height="872"
     id="namedview28"
     showgrid="false"
     inkscape:zoom="1.1532907"
     inkscape:cx="109.52628"
     inkscape:cy="-101.3848"
     inkscape:window-x="1360"
     inkscape:window-y="0"
     inkscape:window-maximized="1"
     inkscape:current-layer="svg26" />
  <defs
     id="defs4">
    <style
       id="style2">.cls-1{fill:#363026;}.cls-2{fill:none;stroke:#1f8ebe;stroke-miterlimit:10;stroke-width:3px;}</style>
  </defs>
  <path
     class="cls-1"
     d="m 198.42,37.421314 a 7.42,7.42 0 0 1 -5,-1.69 10.32,10.32 0 0 1 -3,-4.65 20.13,20.13 0 0 1 -1,-6.62 20.08,20.08 0 0 1 1,-6.66 10.35,10.35 0 0 1 3,-4.61 8.2,8.2 0 0 1 10,0 10.3,10.3 0 0 1 3,4.61 20.35,20.35 0 0 1 1,6.66 20.4,20.4 0 0 1 -1,6.62 10.27,10.27 0 0 1 -3,4.65 7.47,7.47 0 0 1 -5,1.69 z m 0,-2.92 a 4.52,4.52 0 0 0 3.22,-1.22 7.7,7.7 0 0 0 2,-3.47 18.41,18.41 0 0 0 0.68,-5.35 18.48,18.48 0 0 0 -0.68,-5.38 7.6,7.6 0 0 0 -2,-3.46 4.92,4.92 0 0 0 -6.44,0 7.72,7.72 0 0 0 -2,3.46 18.1,18.1 0 0 0 -0.7,5.38 18,18 0 0 0 0.7,5.35 7.81,7.81 0 0 0 2,3.47 4.52,4.52 0 0 0 3.22,1.22 z"
     id="path16"
     inkscape:connector-curvature="0"
     style="fill:#363026" />
  <rect
     class="cls-2"
     x="1.5"
     y="1.5"
     width="280"
     height="46"
     rx="5.3600001"
     id="rect22"
     style="fill:none;stroke:#1f8ebe;stroke-width:3px;stroke-miterlimit:10" />
  <path
     class="cls-1"
     d="m 26.375859,37.507832 a 8.17,8.17 0 0 1 -3.62,-0.77 7.58,7.58 0 0 1 -2.61,-2.11 9.74,9.74 0 0 1 -1.58,-3 10.93,10.93 0 0 1 -0.54,-3.42 17.35,17.35 0 0 1 0.39,-3.45 23,23 0 0 1 1.17,-3.9 18.69,18.69 0 0 1 2.11,-3.83 16.08,16.08 0 0 1 3.09,-3.3 13.35,13.35 0 0 1 4.14,-2.25 2.6,2.6 0 0 1 0.58,-0.07 1.78,1.78 0 0 1 1,0.31 1.22,1.22 0 0 1 0.45,1.09 1.33,1.33 0 0 1 -0.33,0.89 1.86,1.86 0 0 1 -0.86,0.55 11.71,11.71 0 0 0 -2.83,1.57 15.21,15.21 0 0 0 -2.55,2.41 16.19,16.19 0 0 0 -2,3 12,12 0 0 0 -1.12,3.35 l -0.87,0.29 a 9.41,9.41 0 0 1 1.55,-1.84 7.91,7.91 0 0 1 2.18,-1.45 6.74,6.74 0 0 1 2.72,-0.54 6.59,6.59 0 0 1 2.95,0.68 8.14,8.14 0 0 1 2.41,1.86 8.56,8.56 0 0 1 1.64,2.64 8.32,8.32 0 0 1 0.59,3.12 8,8 0 0 1 -1.06,4.05 8.42,8.42 0 0 1 -2.88,3 7.65,7.65 0 0 1 -4.12,1.12 z m 0,-2.7 a 5,5 0 0 0 2.64,-0.7 5.13,5.13 0 0 0 1.86,-2 5.8,5.8 0 0 0 0.68,-2.82 6.29,6.29 0 0 0 -0.64,-2.71 5.07,5.07 0 0 0 -1.75,-2 4.66,4.66 0 0 0 -2.72,-0.78 5.44,5.44 0 0 0 -2.86,0.78 5.06,5.06 0 0 0 -1.89,2 6,6 0 0 0 -0.67,2.83 5.6,5.6 0 0 0 0.56,2.66 5.1,5.1 0 0 0 1.85,2 5.26,5.26 0 0 0 2.91,0.74 z"
     id="path6-3"
     inkscape:connector-curvature="0"
     style="fill:#363026" />
  <path
     class="cls-1"
     d="m 53.319043,37.066042 a 1.5,1.5 0 0 1 -1.11,-0.43 1.42,1.42 0 0 1 -0.43,-1 v -20.53 l 0.43,0.51 -4.18,2.52 a 1.43,1.43 0 0 1 -0.72,0.18 1.36,1.36 0 0 1 -1,-0.49 1.46,1.46 0 0 1 -0.43,-1 1.42,1.42 0 0 1 0.75,-1.26 l 5.87,-3.49 a 1.92,1.92 0 0 1 1.08,-0.22 1.23,1.23 0 0 1 1,0.41 1.52,1.52 0 0 1 0.36,1 v 22.33 a 1.42,1.42 0 0 1 -0.43,1 1.51,1.51 0 0 1 -1.19,0.47 z"
     id="path22"
     inkscape:connector-curvature="0"
     style="fill:#363026" />
  <path
     class="cls-1"
     d="m 92.246263,11.529291 a 8.17,8.17 0 0 1 3.62,0.77 7.58,7.58 0 0 1 2.609999,2.11 9.85,9.85 0 0 1 1.579998,3 10.93,10.93 0 0 1 0.54,3.42 16.54,16.54 0 0 1 -0.4,3.44 21.08,21.08 0 0 1 -1.199997,3.83 18.06,18.06 0 0 1 -2.11,3.74 15.73,15.73 0 0 1 -3.09,3.23 13.69,13.69 0 0 1 -4.14,2.21 2,2 0 0 1 -0.58,0.11 1.62,1.62 0 0 1 -1,-0.36 1.3,1.3 0 0 1 -0.45,-1.08 1.28,1.28 0 0 1 0.33,-0.88 1.8,1.8 0 0 1 0.86,-0.56 12.57,12.57 0 0 0 3.73,-2.22 15.34,15.34 0 0 0 3.09,-3.51 11.79,11.79 0 0 0 1.72,-4.33 l 0.859999,-0.29 a 7.5,7.5 0 0 1 -1.509999,1.82 7.74,7.74 0 0 1 -2.18,1.47 6.78,6.78 0 0 1 -2.75,0.54 6.55,6.55 0 0 1 -3,-0.67 7.75,7.75 0 0 1 -2.36,-1.87 8.44,8.44 0 0 1 -1.64,-2.64 8.33,8.33 0 0 1 -0.6,-3.12 8,8 0 0 1 1.07,-4.06 8.33,8.33 0 0 1 2.89,-3 7.74,7.74 0 0 1 4.11,-1.1 z m 0,2.7 a 5,5 0 0 0 -2.64,0.7 5.15,5.15 0 0 0 -1.86,1.93 5.79,5.79 0 0 0 -0.68,2.84 6.19,6.19 0 0 0 0.61,2.72 4.92,4.92 0 0 0 1.77,2 4.73,4.73 0 0 0 2.7,0.76 5.37,5.37 0 0 0 2.91,-0.76 5.06,5.06 0 0 0 1.89,-2 5.87,5.87 0 0 0 0.67,-2.79 5.59,5.59 0 0 0 -0.65,-2.68 5.19,5.19 0 0 0 -1.85,-2 5.26,5.26 0 0 0 -2.84,-0.72 z"
     id="path36"
     inkscape:connector-curvature="0"
     style="fill:#363026" />
  <path
     class="cls-1"
     d="m 123.59524,37.517398 a 8,8 0 0 1 -3.62,-0.77 7.58,7.58 0 0 1 -2.61,-2.11 9.47,9.47 0 0 1 -1.58,-3 11,11 0 0 1 -0.54,-3.42 17.36,17.36 0 0 1 0.39,-3.46 23.57,23.57 0 0 1 1.21,-3.91 19.13,19.13 0 0 1 2.1,-3.83 16.62,16.62 0 0 1 3.1,-3.29 13,13 0 0 1 4.14,-2.25 2.67,2.67 0 0 1 0.58,-0.08 1.81,1.81 0 0 1 1,0.31 1.23,1.23 0 0 1 0.45,1.1 1.34,1.34 0 0 1 -0.32,0.88 2,2 0 0 1 -0.87,0.56 11.61,11.61 0 0 0 -2.82,1.56 15,15 0 0 0 -2.56,2.42 16.57,16.57 0 0 0 -2,3 11.41,11.41 0 0 0 -1.17,3.33 l -0.87,0.29 a 9.08,9.08 0 0 1 1.55,-1.83 7.57,7.57 0 0 1 2.18,-1.41 6.74,6.74 0 0 1 2.72,-0.54 6.47,6.47 0 0 1 3,0.69 8.06,8.06 0 0 1 2.41,1.83 8.68,8.68 0 0 1 1.64,2.65 8.43,8.43 0 0 1 0.59,3.11 8,8 0 0 1 -1.06,4.05 8.42,8.42 0 0 1 -2.88,3 7.59,7.59 0 0 1 -4.16,1.12 z m 0,-2.7 a 5,5 0 0 0 4.5,-2.64 5.73,5.73 0 0 0 0.69,-2.83 6.14,6.14 0 0 0 -0.62,-2.73 5.14,5.14 0 0 0 -1.74,-2 4.75,4.75 0 0 0 -2.72,-0.77 5.49,5.49 0 0 0 -2.92,0.75 5.3,5.3 0 0 0 -1.89,2 6,6 0 0 0 -0.66,2.82 5.55,5.55 0 0 0 0.65,2.67 5.24,5.24 0 0 0 1.85,2 5.3,5.3 0 0 0 2.82,0.73 z"
     id="path48"
     inkscape:connector-curvature="0"
     style="fill:#363026" />
  <path
     class="cls-1"
     d="m 157.8162,24.248966 -0.08,-0.51 a 7.94,7.94 0 0 1 2.27,1.48 7.23,7.23 0 0 1 1.6,2.14 5.81,5.81 0 0 1 0.6,2.61 6.5,6.5 0 0 1 -1.06,3.58 7.57,7.57 0 0 1 -2.88,2.61 8.48,8.48 0 0 1 -4,1 8.36,8.36 0 0 1 -4,-1 7.58,7.58 0 0 1 -2.86,-2.61 6.41,6.41 0 0 1 -1.06,-3.58 5.76,5.76 0 0 1 0.67,-2.84 7,7 0 0 1 1.69,-2.09 9.22,9.22 0 0 1 2.14,-1.37 l -0.18,0.58 a 6.37,6.37 0 0 1 -1.78,-1.17 6.21,6.21 0 0 1 -1.39,-1.87 5.64,5.64 0 0 1 -0.54,-2.51 6.65,6.65 0 0 1 1,-3.52 7,7 0 0 1 2.67,-2.51 7.66,7.66 0 0 1 3.71,-0.91 7.51,7.51 0 0 1 3.7,0.91 7.18,7.18 0 0 1 2.65,2.51 6.49,6.49 0 0 1 1,3.52 5.4,5.4 0 0 1 -0.58,2.58 6.23,6.23 0 0 1 -1.42,1.83 6.94,6.94 0 0 1 -1.87,1.14 z m -3.6,10.19 a 5.24,5.24 0 0 0 3.65,-1.3 4.14,4.14 0 0 0 1.42,-3.2 4.19,4.19 0 0 0 -0.68,-2.36 4.74,4.74 0 0 0 -1.84,-1.62 5.45,5.45 0 0 0 -2.55,-0.6 5.33,5.33 0 0 0 -2.52,0.6 4.67,4.67 0 0 0 -1.84,1.62 4.36,4.36 0 0 0 0.74,5.56 5.18,5.18 0 0 0 3.62,1.3 z m -4.43,-15.7 a 4.34,4.34 0 0 0 0.59,2.27 4.26,4.26 0 0 0 1.62,1.53 4.6,4.6 0 0 0 2.22,0.56 4.41,4.41 0 0 0 3.81,-2.09 4.17,4.17 0 0 0 0.61,-2.27 4.11,4.11 0 0 0 -1.24,-3.08 4.83,4.83 0 0 0 -6.37,0 4.11,4.11 0 0 0 -1.24,3.08 z"
     id="path58"
     inkscape:connector-curvature="0"
     style="fill:#363026" />
  <path
     class="cls-1"
     d="m 226.97688,37.149782 a 10.2,10.2 0 0 1 -2.94,-0.45 7.57,7.57 0 0 1 -2.6,-1.35 1.76,1.76 0 0 1 -0.47,-0.65 1.79,1.79 0 0 1 -0.18,-0.75 1.24,1.24 0 0 1 0.38,-0.85 1.28,1.28 0 0 1 1,-0.41 1.79,1.79 0 0 1 1.08,0.47 6.9,6.9 0 0 0 1.77,1 5.54,5.54 0 0 0 1.94,0.36 7.18,7.18 0 0 0 3.39,-0.79 6.09,6.09 0 0 0 2.32,-2.18 5.91,5.91 0 0 0 0.84,-3.12 5.54,5.54 0 0 0 -0.73,-2.89 5.15,5.15 0 0 0 -2.05,-1.93 6.39,6.39 0 0 0 -3,-0.68 6.47,6.47 0 0 0 -2.27,0.37 13.72,13.72 0 0 0 -1.73,0.71 2.64,2.64 0 0 1 -1.19,0.39 1.72,1.72 0 0 1 -1.07,-0.3 1.45,1.45 0 0 1 -0.53,-0.78 2,2 0 0 1 -0.05,-0.86 l 1.4,-9.54 a 1.48,1.48 0 0 1 0.51,-0.81 1.4,1.4 0 0 1 1,-0.34 h 10.63 a 1.35,1.35 0 0 1 1.37,1.37 1.31,1.31 0 0 1 -0.4,1 1.33,1.33 0 0 1 -1,0.39 h -10 l 0.36,-0.32 -1.33,8.32 -0.58,-0.76 a 4.57,4.57 0 0 1 1.21,-0.72 10.8,10.8 0 0 1 1.87,-0.61 9.29,9.29 0 0 1 2.18,-0.25 8.26,8.26 0 0 1 4.19,1.06 7.84,7.84 0 0 1 2.93,2.9 8.12,8.12 0 0 1 1.09,4.21 8.63,8.63 0 0 1 -0.71,3.51 8.22,8.22 0 0 1 -2,2.79 9.27,9.27 0 0 1 -3,1.84 10.55,10.55 0 0 1 -3.63,0.65 z"
     id="path72"
     inkscape:connector-curvature="0"
     style="fill:#363026" />
  <path
     class="cls-1"
     d="m 264.51204,34.544807 a 1.35,1.35 0 0 1 1.36,1.37 1.27,1.27 0 0 1 -0.39,0.95 1.38,1.38 0 0 1 -1,0.38 h -13.04 a 1.51,1.51 0 0 1 -1.06,-0.38 1.3,1.3 0 0 1 -0.42,-1 1.54,1.54 0 0 1 0.43,-1.05 l 8.14,-8.89 a 18.82,18.82 0 0 0 2.7,-3.51 6.44,6.44 0 0 0 0.94,-3.19 5,5 0 0 0 -0.63,-2.55 4.42,4.42 0 0 0 -1.75,-1.68 5.58,5.58 0 0 0 -2.63,-0.59 5.36,5.36 0 0 0 -2.75,0.76 5.08,5.08 0 0 0 -2.07,2.34 1.53,1.53 0 0 1 -0.56,0.55 1.29,1.29 0 0 1 -0.63,0.17 1.53,1.53 0 0 1 -1,-0.38 1.12,1.12 0 0 1 -0.47,-0.88 1.41,1.41 0 0 1 0.23,-0.76 c 0.16,-0.24 0.35,-0.49 0.56,-0.76 a 7.59,7.59 0 0 1 3,-2.77 8.24,8.24 0 0 1 3.85,-1 8.74,8.74 0 0 1 4.2,0.94 6.38,6.38 0 0 1 2.66,2.61 7.76,7.76 0 0 1 0.92,3.79 8.37,8.37 0 0 1 -0.49,2.79 12.73,12.73 0 0 1 -1.49,2.94 25.44,25.44 0 0 1 -2.56,3.17 l -6.3,7 -0.36,-0.36 z"
     id="path76"
     inkscape:connector-curvature="0"
     style="fill:#363026" />
  <rect
     class="cls-2"
     x="240.48746"
     y="455.87772"
     width="41"
     height="46"
     rx="5.3600001"
     id="rect92"
     style="fill:none;stroke:#1f8ebe;stroke-width:3px;stroke-miterlimit:10" />
</svg>
