<?xml version="1.0" encoding="UTF-8" standalone="no"?>
<svg
   xmlns:dc="http://purl.org/dc/elements/1.1/"
   xmlns:cc="http://creativecommons.org/ns#"
   xmlns:rdf="http://www.w3.org/1999/02/22-rdf-syntax-ns#"
   xmlns:svg="http://www.w3.org/2000/svg"
   xmlns="http://www.w3.org/2000/svg"
   xmlns:sodipodi="http://sodipodi.sourceforge.net/DTD/sodipodi-0.dtd"
   xmlns:inkscape="http://www.inkscape.org/namespaces/inkscape"
   viewBox="0 0 283 49"
   version="1.1"
   id="svg26"
   sodipodi:docname="v2_glosa_1.svg"
   inkscape:version="0.92.3 (2405546, 2018-03-11)">
  <metadata
     id="metadata30">
    <rdf:RDF>
      <cc:Work
         rdf:about="">
        <dc:format>image/svg+xml</dc:format>
        <dc:type
           rdf:resource="http://purl.org/dc/dcmitype/StillImage" />
      </cc:Work>
    </rdf:RDF>
  </metadata>
  <sodipodi:namedview
     pagecolor="#ffffff"
     bordercolor="#666666"
     borderopacity="1"
     objecttolerance="10"
     gridtolerance="10"
     guidetolerance="10"
     inkscape:pageopacity="0"
     inkscape:pageshadow="2"
     inkscape:window-width="1600"
     inkscape:window-height="872"
     id="namedview28"
     showgrid="false"
     inkscape:zoom="1.1532907"
     inkscape:cx="100.31645"
     inkscape:cy="-105.86166"
     inkscape:window-x="1360"
     inkscape:window-y="0"
     inkscape:window-maximized="1"
     inkscape:current-layer="svg26" />
  <defs
     id="defs4">
    <style
       id="style2">.cls-1{fill:#363026;}.cls-2{fill:none;stroke:#1f8ebe;stroke-miterlimit:10;stroke-width:3px;}</style>
  </defs>
  <path
     class="cls-1"
     d="m 198.42,38.229725 a 7.42,7.42 0 0 1 -5,-1.69 10.32,10.32 0 0 1 -3,-4.65 20.13,20.13 0 0 1 -1,-6.62 20.08,20.08 0 0 1 1,-6.66 10.35,10.35 0 0 1 3,-4.61 8.2,8.2 0 0 1 10,0 10.3,10.3 0 0 1 3,4.61 20.35,20.35 0 0 1 1,6.66 20.4,20.4 0 0 1 -1,6.62 10.27,10.27 0 0 1 -3,4.65 7.47,7.47 0 0 1 -5,1.69 z m 0,-2.92 a 4.52,4.52 0 0 0 3.22,-1.22 7.7,7.7 0 0 0 2,-3.47 18.41,18.41 0 0 0 0.68,-5.35 18.48,18.48 0 0 0 -0.68,-5.38 7.6,7.6 0 0 0 -2,-3.46 4.92,4.92 0 0 0 -6.44,0 7.72,7.72 0 0 0 -2,3.46 18.1,18.1 0 0 0 -0.7,5.38 18,18 0 0 0 0.7,5.35 7.81,7.81 0 0 0 2,3.47 4.52,4.52 0 0 0 3.22,1.22 z"
     id="path16"
     inkscape:connector-curvature="0"
     style="fill:#363026" />
  <rect
     class="cls-2"
     x="1.5"
     y="1.5"
     width="280"
     height="46"
     rx="5.3600001"
     id="rect22"
     style="fill:none;stroke:#1f8ebe;stroke-width:3px;stroke-miterlimit:10" />
  <path
     class="cls-1"
     d="m 26.779309,37.937709 a 10.15,10.15 0 0 1 -2.94,-0.45 7.71,7.71 0 0 1 -2.61,-1.35001 1.84,1.84 0 0 1 -0.47,-0.64 1.87,1.87 0 0 1 -0.18,-0.76 1.35,1.35 0 0 1 1.37,-1.26 1.9,1.9 0 0 1 1.08,0.47 6.61,6.61 0 0 0 1.77,1 5.5,5.5 0 0 0 1.94,0.36 7,7 0 0 0 3.38,-0.79 6,6 0 0 0 2.33,-2.17999 5.87,5.87 0 0 0 0.84,-3.11 5.58,5.58 0 0 0 -0.74,-2.9 5,5 0 0 0 -2.01,-1.96 6.5,6.5 0 0 0 -3,-0.68 6.21,6.21 0 0 0 -2.27,0.38 13.79,13.79 0 0 0 -1.73,0.77 2.71,2.71 0 0 1 -1.19,0.4 1.75,1.75 0 0 1 -1.08,-0.31 1.4,1.4 0 0 1 -0.52,-0.77 1.87,1.87 0 0 1 -0.05,-0.87 l 1.4,-9.54 a 1.52,1.52 0 0 1 0.5,-0.81 1.44,1.44 0 0 1 1,-0.34 h 10.63 a 1.3,1.3 0 0 1 1,0.4 1.32,1.32 0 0 1 0.4,1 1.37,1.37 0 0 1 -1.37,1.37 h -10 l 0.36,-0.33 -1.34,8.29 -0.57,-0.76 a 4.48,4.48 0 0 1 1.2,-0.72 10.93,10.93 0 0 1 1.88,-0.62 9.2,9.2 0 0 1 2.17,-0.25 8.3,8.3 0 0 1 4.2,1.06 7.91,7.91 0 0 1 2.93,2.9 8.14,8.14 0 0 1 1.08,4.21 8.63,8.63 0 0 1 -0.7,3.51 8.36,8.36 0 0 1 -2,2.78999 9.21,9.21 0 0 1 -3,1.84 10.46,10.46 0 0 1 -3.69,0.65001 z"
     id="path6-3"
     inkscape:connector-curvature="0"
     style="fill:#363026" />
  <path
     class="cls-1"
     d="m 61.309721,35.247661 a 1.28,1.28 0 0 1 1,0.40001 1.3,1.3 0 0 1 0.4,1 1.24,1.24 0 0 1 -0.4,1 1.3,1.3 0 0 1 -1,0.37999 h -13.07 a 1.48,1.48 0 0 1 -1.06,-0.37999 1.33,1.33 0 0 1 -0.41,-1 1.51,1.51 0 0 1 0.43,-1 l 8.14,-8.89001 a 19.73,19.73 0 0 0 2.7,-3.51 6.42,6.42 0 0 0 0.93,-3.18 5,5 0 0 0 -0.63,-2.56 4.3,4.3 0 0 0 -1.74,-1.67 5.49,5.49 0 0 0 -2.63,-0.6 5.42,5.42 0 0 0 -2.76,0.76 5.19,5.19 0 0 0 -2.07,2.34 1.55,1.55 0 0 1 -0.55,0.56 1.47,1.47 0 0 1 -0.63,0.16 1.57,1.57 0 0 1 -1,-0.38 1.11,1.11 0 0 1 -0.46,-0.88 1.33,1.33 0 0 1 0.23,-0.76 8.08,8.08 0 0 1 0.56,-0.75 7.55,7.55 0 0 1 3,-2.78 8.33,8.33 0 0 1 3.85,-1 8.67,8.67 0 0 1 4.19,0.94 6.4,6.4 0 0 1 2.67,2.61 7.77,7.77 0 0 1 0.91,3.8 8.71,8.71 0 0 1 -0.44,2.67 12.93,12.93 0 0 1 -1.5,2.93 25.29,25.29 0 0 1 -2.55,3.17 l -6.3,7.00001 -0.36,-0.36 z"
     id="path22-9"
     inkscape:connector-curvature="0"
     style="fill:#363026" />
  <path
     class="cls-1"
     d="m 99.08555,25.037428 -0.07,-0.5 a 7.73,7.73 0 0 1 2.27001,1.5 7.1,7.1 0 0 1 1.6,2.14001 5.75,5.75 0 0 1 0.6,2.60999 6.45,6.45 0 0 1 -1.07,3.58 7.58,7.58 0 0 1 -2.88001,2.61 8.9,8.9 0 0 1 -8.08,0 7.75,7.75 0 0 1 -2.86,-2.61 6.44,6.44 0 0 1 -1.06,-3.58 5.94,5.94 0 0 1 0.66,-2.84999 7.19,7.19 0 0 1 1.7,-2.08001 8.71,8.71 0 0 1 2.14,-1.37 l -0.18,0.57 a 6.4,6.4 0 0 1 -3.12,-3.02 5.57,5.57 0 0 1 -0.54,-2.5 6.62,6.62 0 0 1 1,-3.53 7,7 0 0 1 2.67,-2.5 7.63,7.63 0 0 1 3.7,-0.92 7.53,7.53 0 0 1 3.71,0.92 7.15,7.15 0 0 1 2.65001,2.5 6.55,6.55 0 0 1 1,3.53 5.36,5.36 0 0 1 -0.58,2.57 6.15,6.15 0 0 1 -1.42001,1.84 6.76,6.76 0 0 1 -1.84,1.09 z m -3.6,10.19 a 5.24,5.24 0 0 0 3.66,-1.29 4.38,4.38 0 0 0 0.74,-5.57 4.9,4.9 0 0 0 -1.84,-1.62 5.58,5.58 0 0 0 -2.56,-0.59 5.5,5.5 0 0 0 -2.52,0.59 4.87,4.87 0 0 0 -1.83,1.62 4.14,4.14 0 0 0 -0.69,2.36 4.19,4.19 0 0 0 1.43,3.21 5.15,5.15 0 0 0 3.61,1.29 z m -4.42,-15.69 a 4.19,4.19 0 0 0 0.59,2.26001 4.26,4.26 0 0 0 1.62,1.53 4.46,4.46 0 0 0 2.21,0.56 4.36,4.36 0 0 0 2.22,-0.56 4.42,4.42 0 0 0 1.6,-1.53 4.46,4.46 0 0 0 -0.63,-5.34001 4.8,4.8 0 0 0 -6.37,0 4.09,4.09 0 0 0 -1.24,3.08 z"
     id="path36-6"
     inkscape:connector-curvature="0"
     style="fill:#363026" />
  <path
     class="cls-1"
     d="m 121.97416,37.926067 a 10.08,10.08 0 0 1 -2.93,-0.45 7.53,7.53 0 0 1 -2.61,-1.35 1.88,1.88 0 0 1 -0.47,-0.65 1.83,1.83 0 0 1 -0.18,-0.76001 1.37,1.37 0 0 1 1.37,-1.25999 1.9,1.9 0 0 1 1.08,0.47 6.28,6.28 0 0 0 1.76,0.99999 5.6,5.6 0 0 0 1.95,0.36 7,7 0 0 0 3.38,-0.79 5.94,5.94 0 0 0 2.32,-2.18 5.79,5.79 0 0 0 0.85,-3.11 5.61,5.61 0 0 0 -0.74,-2.9 5,5 0 0 0 -2.05,-1.92 6.39,6.39 0 0 0 -3,-0.69 6.51,6.51 0 0 0 -2.27,0.38 13.6,13.6 0 0 0 -1.72,0.77 2.59,2.59 0 0 1 -1.19,0.4 1.67,1.67 0 0 1 -1.08,-0.31 1.35,1.35 0 0 1 -0.52,-0.77 1.84,1.84 0 0 1 -0.06,-0.86 l 1.41,-9.54 a 1.48,1.48 0 0 1 0.5,-0.81 1.43,1.43 0 0 1 1,-0.35 h 10.69 a 1.36,1.36 0 0 1 1,0.4 1.34,1.34 0 0 1 0.39,1 1.35,1.35 0 0 1 -1.37,1.37 h -10 l 0.36,-0.31999 -1.33,8.31 -0.58,-0.75 a 4.74,4.74 0 0 1 1.21,-0.72 10.78,10.78 0 0 1 1.87,-0.62 9.91,9.91 0 0 1 2.18,-0.25 8.33,8.33 0 0 1 4.19,1.06 7.94,7.94 0 0 1 2.94,2.9 8.17,8.17 0 0 1 1.08,4.21 8.73,8.73 0 0 1 -0.7,3.51 8.36,8.36 0 0 1 -2,2.79 9,9 0 0 1 -3,1.84 10.47,10.47 0 0 1 -3.73,0.59 z"
     id="path48-8"
     inkscape:connector-curvature="0"
     style="fill:#363026" />
  <path
     class="cls-1"
     d="m 148.33597,37.958454 a 1.62,1.62 0 0 1 -1,-0.37 1.24,1.24 0 0 1 -0.47,-1 1.51,1.51 0 0 1 0.15,-0.65 l 9.32,-21.24 0.4,0.65 h -11.64 a 1.36,1.36 0 0 1 -1,-0.4 1.33,1.33 0 0 1 -0.39,-1 1.29,1.29 0 0 1 0.39,-1 1.38,1.38 0 0 1 1,-0.37 h 13 a 1.49,1.49 0 0 1 1.08,0.37 1.31,1.31 0 0 1 0.4,1 1.65,1.65 0 0 1 -0.15,0.69 l -9.76,22.38 a 1.25,1.25 0 0 1 -0.52,0.67 1.51,1.51 0 0 1 -0.81,0.27 z"
     id="path58-2"
     inkscape:connector-curvature="0"
     style="fill:#363026" />
  <path
     class="cls-1"
     d="m 234.25956,37.867147 a 1.4,1.4 0 0 1 -1,-0.43 1.45,1.45 0 0 1 -0.41,-1.05 v -19.69 l 0.57,0.22 -8.6,11.23 -0.15,-0.43 h 13.18 a 1.33,1.33 0 0 1 1,0.39 1.31,1.31 0 0 1 0.4,1 1.21,1.21 0 0 1 -0.4,0.92 1.36,1.36 0 0 1 -1,0.38 h -15.18 a 1.4,1.4 0 0 1 -1,-0.43 1.41,1.41 0 0 1 -0.09,-1.95 l 11.46,-14.78 a 1.44,1.44 0 0 1 0.57,-0.46 1.91,1.91 0 0 1 0.65,-0.12 1.35,1.35 0 0 1 1,0.41 1.46,1.46 0 0 1 0.4,1 v 22.28 a 1.46,1.46 0 0 1 -0.42,1.05 1.38,1.38 0 0 1 -0.98,0.46 z"
     id="path72-8"
     inkscape:connector-curvature="0"
     style="fill:#363026" />
  <path
     class="cls-1"
     d="m 260.54885,37.875208 a 1.51,1.51 0 0 1 -1.12,-0.43 1.43,1.43 0 0 1 -0.43,-1.05 v -20.48 l 0.43,0.5 -4.17,2.52 a 1.48,1.48 0 0 1 -0.72,0.18 1.37,1.37 0 0 1 -1.05,-0.48 1.5,1.5 0 0 1 -0.43,-1 1.41,1.41 0 0 1 0.76,-1.26 l 5.86,-3.49 a 1.92,1.92 0 0 1 1.08,-0.22 1.25,1.25 0 0 1 1,0.41 1.52,1.52 0 0 1 0.36,1 v 22.28 a 1.44,1.44 0 0 1 -0.44,1.05 1.48,1.48 0 0 1 -1.13,0.47 z"
     id="path76-7"
     inkscape:connector-curvature="0"
     style="fill:#363026" />
</svg>
