<svg xmlns="http://www.w3.org/2000/svg" viewBox="0 0 283 448"><defs><style>.cls-1{fill:#363026;}.cls-2{fill:none;stroke:#1f8ebe;stroke-miterlimit:10;stroke-width:3px;}</style></defs><g id="Layer_2" data-name="Layer 2"><g id="Layer_1-2" data-name="Layer 1"><path class="cls-1" d="M24.2,37.57a1.33,1.33,0,0,1-1-.43,1.46,1.46,0,0,1-.42-1V16.4l.58.22L14.73,27.85l-.14-.43H27.77a1.33,1.33,0,0,1,1.36,1.37,1.21,1.21,0,0,1-.39.91,1.33,1.33,0,0,1-1,.38H12.61a1.39,1.39,0,0,1-1-.43,1.35,1.35,0,0,1-.45-1,1.32,1.32,0,0,1,.36-.93L23,13a1.3,1.3,0,0,1,.58-.45,1.68,1.68,0,0,1,.65-.13,1.36,1.36,0,0,1,1,.41,1.45,1.45,0,0,1,.39,1V36.09a1.49,1.49,0,0,1-.41,1A1.37,1.37,0,0,1,24.2,37.57Z"/><path class="cls-1" d="M51.85,37.93a7.47,7.47,0,0,1-5-1.69,10.39,10.39,0,0,1-3-4.65,20.13,20.13,0,0,1-1-6.62,20.08,20.08,0,0,1,1-6.66,10.42,10.42,0,0,1,3-4.61,8.21,8.21,0,0,1,10,0,10.3,10.3,0,0,1,3,4.61,20.35,20.35,0,0,1,1,6.66,20.4,20.4,0,0,1-1,6.62,10.27,10.27,0,0,1-3,4.65A7.47,7.47,0,0,1,51.85,37.93Zm0-2.92a4.52,4.52,0,0,0,3.22-1.22,7.7,7.7,0,0,0,2-3.47A18.41,18.41,0,0,0,57.75,25a18.48,18.48,0,0,0-.68-5.38,7.6,7.6,0,0,0-2-3.46,4.92,4.92,0,0,0-6.44,0,7.72,7.72,0,0,0-2,3.46,18.1,18.1,0,0,0-.7,5.38,18,18,0,0,0,.7,5.35,7.81,7.81,0,0,0,2,3.47A4.52,4.52,0,0,0,51.85,35Z"/><path class="cls-1" d="M93.29,37.93a7.43,7.43,0,0,1-5-1.69,10.39,10.39,0,0,1-3-4.65,19.87,19.87,0,0,1-1-6.62,19.82,19.82,0,0,1,1-6.66,10.42,10.42,0,0,1,3-4.61,8.2,8.2,0,0,1,10,0,10.32,10.32,0,0,1,3,4.61,20.35,20.35,0,0,1,1,6.66,20.4,20.4,0,0,1-1,6.62,10.29,10.29,0,0,1-3,4.65A7.42,7.42,0,0,1,93.29,37.93Zm0-2.92a4.54,4.54,0,0,0,3.22-1.22,7.79,7.79,0,0,0,2-3.47A18.76,18.76,0,0,0,99.19,25a18.83,18.83,0,0,0-.68-5.38,7.69,7.69,0,0,0-2-3.46,4.93,4.93,0,0,0-6.45,0,7.8,7.8,0,0,0-2,3.46,18.1,18.1,0,0,0-.7,5.38,18,18,0,0,0,.7,5.35,7.89,7.89,0,0,0,2,3.47A4.54,4.54,0,0,0,93.29,35Z"/><path class="cls-1" d="M124.82,37.93a7.42,7.42,0,0,1-5-1.69,10.4,10.4,0,0,1-3-4.65,20.13,20.13,0,0,1-1-6.62,20.08,20.08,0,0,1,1-6.66,10.43,10.43,0,0,1,3-4.61,8.2,8.2,0,0,1,10,0,10.3,10.3,0,0,1,3,4.61,20.35,20.35,0,0,1,1,6.66,20.4,20.4,0,0,1-1,6.62,10.27,10.27,0,0,1-3,4.65A7.45,7.45,0,0,1,124.82,37.93Zm0-2.92A4.52,4.52,0,0,0,128,33.79a7.7,7.7,0,0,0,2-3.47,18.39,18.39,0,0,0,.69-5.35,18.46,18.46,0,0,0-.69-5.38,7.6,7.6,0,0,0-2-3.46,4.92,4.92,0,0,0-6.44,0,7.72,7.72,0,0,0-2,3.46,18.44,18.44,0,0,0-.7,5.38,18.37,18.37,0,0,0,.7,5.35,7.81,7.81,0,0,0,2,3.47A4.54,4.54,0,0,0,124.82,35Z"/><path class="cls-1" d="M156.36,37.93a7.43,7.43,0,0,1-5-1.69,10.39,10.39,0,0,1-3-4.65,19.87,19.87,0,0,1-1-6.62,19.82,19.82,0,0,1,1-6.66,10.42,10.42,0,0,1,3-4.61,8.2,8.2,0,0,1,10,0,10.32,10.32,0,0,1,3,4.61,20.35,20.35,0,0,1,1,6.66,20.4,20.4,0,0,1-1,6.62,10.29,10.29,0,0,1-3,4.65A7.42,7.42,0,0,1,156.36,37.93Zm0-2.92a4.54,4.54,0,0,0,3.22-1.22,7.79,7.79,0,0,0,2-3.47,18.76,18.76,0,0,0,.68-5.35,18.83,18.83,0,0,0-.68-5.38,7.69,7.69,0,0,0-2-3.46,4.93,4.93,0,0,0-6.45,0,7.8,7.8,0,0,0-2,3.46,18.1,18.1,0,0,0-.7,5.38,18,18,0,0,0,.7,5.35,7.89,7.89,0,0,0,2,3.47A4.54,4.54,0,0,0,156.36,35Z"/><path class="cls-1" d="M197.79,37.93a7.42,7.42,0,0,1-5-1.69,10.4,10.4,0,0,1-3-4.65,20.13,20.13,0,0,1-1-6.62,20.08,20.08,0,0,1,1-6.66,10.43,10.43,0,0,1,3-4.61,8.2,8.2,0,0,1,10,0,10.3,10.3,0,0,1,3,4.61,20.09,20.09,0,0,1,1,6.66,20.14,20.14,0,0,1-1,6.62,10.27,10.27,0,0,1-3,4.65A7.45,7.45,0,0,1,197.79,37.93Zm0-2.92A4.52,4.52,0,0,0,201,33.79a7.61,7.61,0,0,0,2-3.47A18.39,18.39,0,0,0,203.7,25a18.46,18.46,0,0,0-.69-5.38,7.52,7.52,0,0,0-2-3.46,4.92,4.92,0,0,0-6.44,0,7.72,7.72,0,0,0-2,3.46,18.44,18.44,0,0,0-.7,5.38,18.37,18.37,0,0,0,.7,5.35,7.81,7.81,0,0,0,2,3.47A4.54,4.54,0,0,0,197.79,35Z"/><path class="cls-1" d="M229.33,37.93a7.45,7.45,0,0,1-5-1.69,10.39,10.39,0,0,1-3-4.65,19.87,19.87,0,0,1-1-6.62,19.82,19.82,0,0,1,1-6.66,10.42,10.42,0,0,1,3-4.61,8.2,8.2,0,0,1,10,0,10.24,10.24,0,0,1,3,4.61,20.35,20.35,0,0,1,1,6.66,20.4,20.4,0,0,1-1,6.62,10.21,10.21,0,0,1-3,4.65A7.42,7.42,0,0,1,229.33,37.93Zm0-2.92a4.54,4.54,0,0,0,3.22-1.22,7.7,7.7,0,0,0,2-3.47,18.76,18.76,0,0,0,.68-5.35,18.83,18.83,0,0,0-.68-5.38,7.6,7.6,0,0,0-2-3.46,4.92,4.92,0,0,0-6.44,0,7.72,7.72,0,0,0-2,3.46,18.1,18.1,0,0,0-.7,5.38,18,18,0,0,0,.7,5.35,7.81,7.81,0,0,0,2,3.47A4.52,4.52,0,0,0,229.33,35Z"/><path class="cls-1" d="M260.86,37.93a7.42,7.42,0,0,1-5-1.69,10.49,10.49,0,0,1-3-4.65,20.13,20.13,0,0,1-1-6.62,20.08,20.08,0,0,1,1-6.66,10.52,10.52,0,0,1,3-4.61,8.2,8.2,0,0,1,10,0,10.4,10.4,0,0,1,3,4.61,20.36,20.36,0,0,1,1,6.66,20.41,20.41,0,0,1-1,6.62,10.37,10.37,0,0,1-3,4.65A7.43,7.43,0,0,1,260.86,37.93Zm0-2.92a4.54,4.54,0,0,0,3.23-1.22,7.69,7.69,0,0,0,2-3.47,18.39,18.39,0,0,0,.69-5.35,18.46,18.46,0,0,0-.69-5.38,7.59,7.59,0,0,0-2-3.46,4.93,4.93,0,0,0-6.45,0,7.7,7.7,0,0,0-2,3.46,18.08,18.08,0,0,0-.71,5.38,18,18,0,0,0,.71,5.35,7.8,7.8,0,0,0,2,3.47A4.54,4.54,0,0,0,260.86,35Z"/><path class="cls-1" d="M47.21,91a1.54,1.54,0,0,1,.48.09,1.84,1.84,0,0,1,.6.37,5.68,5.68,0,0,0,1.69,1,6,6,0,0,0,2.23.39,5.83,5.83,0,0,0,2.84-.7,5.55,5.55,0,0,0,2.92-5,5.17,5.17,0,0,0-.81-3,4.89,4.89,0,0,0-2-1.73,6.35,6.35,0,0,0-2.61-.56,5.49,5.49,0,0,0-.94.08,4.81,4.81,0,0,0-.81.18,2.57,2.57,0,0,1-.7.1,1.12,1.12,0,0,1-.9-.39,1.47,1.47,0,0,1-.32-1,1.64,1.64,0,0,1,.1-.6,2.61,2.61,0,0,1,.36-.56L56.35,72l.58.68H46.7a1.33,1.33,0,0,1-1-.39,1.36,1.36,0,0,1-.4-1,1.28,1.28,0,0,1,.4-1,1.36,1.36,0,0,1,1-.38H58.44a1.38,1.38,0,0,1,1.15.45,1.55,1.55,0,0,1,.36,1,1.36,1.36,0,0,1-.14.6,2.34,2.34,0,0,1-.4.52l-7,7.81-.83-.72a2.1,2.1,0,0,1,.83-.27,6.24,6.24,0,0,1,1.08-.13,7.32,7.32,0,0,1,3.71,1,7.15,7.15,0,0,1,2.7,2.73,8.17,8.17,0,0,1,1,4.1,8.35,8.35,0,0,1-1.19,4.5,8,8,0,0,1-3.26,3,10.27,10.27,0,0,1-4.66,1A9.15,9.15,0,0,1,49,95.05a7,7,0,0,1-2.39-1.31,1.44,1.44,0,0,1-.63-.58,1.39,1.39,0,0,1-.16-.65,1.6,1.6,0,0,1,.41-1A1.27,1.27,0,0,1,47.21,91Z"/><path class="cls-1" d="M93.29,95.5a7.43,7.43,0,0,1-5-1.69,10.41,10.41,0,0,1-3-4.64,21.95,21.95,0,0,1,0-13.29,10.42,10.42,0,0,1,3-4.61,8.2,8.2,0,0,1,10,0,10.32,10.32,0,0,1,3,4.61,22.36,22.36,0,0,1,0,13.29,10.31,10.31,0,0,1-3,4.64A7.42,7.42,0,0,1,93.29,95.5Zm0-2.92a4.54,4.54,0,0,0,3.22-1.22,7.73,7.73,0,0,0,2-3.47,21.5,21.5,0,0,0,0-10.73,7.69,7.69,0,0,0-2-3.46,4.93,4.93,0,0,0-6.45,0,7.8,7.8,0,0,0-2,3.46,20.91,20.91,0,0,0,0,10.73,7.83,7.83,0,0,0,2,3.47A4.54,4.54,0,0,0,93.29,92.58Z"/><path class="cls-1" d="M124.82,95.5a7.42,7.42,0,0,1-5-1.69,10.42,10.42,0,0,1-3-4.64,22.16,22.16,0,0,1,0-13.29,10.43,10.43,0,0,1,3-4.61,8.2,8.2,0,0,1,10,0,10.3,10.3,0,0,1,3,4.61,22.36,22.36,0,0,1,0,13.29,10.29,10.29,0,0,1-3,4.64A7.45,7.45,0,0,1,124.82,95.5Zm0-2.92A4.52,4.52,0,0,0,128,91.36a7.55,7.55,0,0,0,2-3.47,21.2,21.2,0,0,0,0-10.73,7.52,7.52,0,0,0-2-3.46,4.92,4.92,0,0,0-6.44,0,7.72,7.72,0,0,0-2,3.46,20.91,20.91,0,0,0,0,10.73,7.75,7.75,0,0,0,2,3.47A4.54,4.54,0,0,0,124.82,92.58Z"/><path class="cls-1" d="M156.36,95.5a7.45,7.45,0,0,1-5-1.69,10.41,10.41,0,0,1-3-4.64,21.95,21.95,0,0,1,0-13.29,10.42,10.42,0,0,1,3-4.61,8.2,8.2,0,0,1,10,0,10.24,10.24,0,0,1,3,4.61,22.36,22.36,0,0,1,0,13.29,10.23,10.23,0,0,1-3,4.64A7.42,7.42,0,0,1,156.36,95.5Zm0-2.92a4.54,4.54,0,0,0,3.22-1.22,7.64,7.64,0,0,0,2-3.47,21.5,21.5,0,0,0,0-10.73,7.6,7.6,0,0,0-2-3.46,4.92,4.92,0,0,0-6.44,0,7.72,7.72,0,0,0-2,3.46,20.91,20.91,0,0,0,0,10.73,7.75,7.75,0,0,0,2,3.47A4.5,4.5,0,0,0,156.36,92.58Z"/><path class="cls-1" d="M197.79,95.5a7.42,7.42,0,0,1-5-1.69,10.51,10.51,0,0,1-3-4.64,22.16,22.16,0,0,1,0-13.29,10.52,10.52,0,0,1,3-4.61,8.2,8.2,0,0,1,10,0,10.4,10.4,0,0,1,3,4.61,22.58,22.58,0,0,1,0,13.29,10.39,10.39,0,0,1-3,4.64A7.45,7.45,0,0,1,197.79,95.5Zm0-2.92A4.56,4.56,0,0,0,201,91.36a7.63,7.63,0,0,0,2-3.47,21.2,21.2,0,0,0,0-10.73,7.59,7.59,0,0,0-2-3.46,4.93,4.93,0,0,0-6.45,0,7.61,7.61,0,0,0-2,3.46,20.62,20.62,0,0,0,0,10.73,7.65,7.65,0,0,0,2,3.47A4.54,4.54,0,0,0,197.79,92.58Z"/><path class="cls-1" d="M229.33,95.5a7.45,7.45,0,0,1-5-1.69,10.41,10.41,0,0,1-3-4.64,21.95,21.95,0,0,1,0-13.29,10.42,10.42,0,0,1,3-4.61,8.2,8.2,0,0,1,10,0,10.24,10.24,0,0,1,3,4.61,22.36,22.36,0,0,1,0,13.29,10.23,10.23,0,0,1-3,4.64A7.42,7.42,0,0,1,229.33,95.5Zm0-2.92a4.54,4.54,0,0,0,3.22-1.22,7.64,7.64,0,0,0,2-3.47,21.5,21.5,0,0,0,0-10.73,7.6,7.6,0,0,0-2-3.46,4.92,4.92,0,0,0-6.44,0,7.72,7.72,0,0,0-2,3.46,20.91,20.91,0,0,0,0,10.73,7.75,7.75,0,0,0,2,3.47A4.52,4.52,0,0,0,229.33,92.58Z"/><path class="cls-1" d="M260.86,95.5a7.42,7.42,0,0,1-5-1.69,10.51,10.51,0,0,1-3-4.64,22.16,22.16,0,0,1,0-13.29,10.52,10.52,0,0,1,3-4.61,8.2,8.2,0,0,1,10,0,10.4,10.4,0,0,1,3,4.61,22.58,22.58,0,0,1,0,13.29,10.39,10.39,0,0,1-3,4.64A7.43,7.43,0,0,1,260.86,95.5Zm0-2.92a4.54,4.54,0,0,0,3.23-1.22,7.63,7.63,0,0,0,2-3.47,21.2,21.2,0,0,0,0-10.73,7.59,7.59,0,0,0-2-3.46,4.93,4.93,0,0,0-6.45,0,7.7,7.7,0,0,0-2,3.46,20.62,20.62,0,0,0,0,10.73,7.74,7.74,0,0,0,2,3.47A4.54,4.54,0,0,0,260.86,92.58Z"/><path class="cls-1" d="M91.59,152.82a1.57,1.57,0,0,1-1-.38,1.21,1.21,0,0,1-.47-1,1.57,1.57,0,0,1,.15-.65l9.32-21.24.4.65H88.35A1.33,1.33,0,0,1,87,128.84a1.27,1.27,0,0,1,.39-1,1.38,1.38,0,0,1,1-.38h13a1.5,1.5,0,0,1,1.08.38,1.32,1.32,0,0,1,.4,1,1.57,1.57,0,0,1-.15.68l-9.75,22.36a1.22,1.22,0,0,1-.53.67A1.55,1.55,0,0,1,91.59,152.82Z"/><path class="cls-1" d="M124.82,153.07a7.42,7.42,0,0,1-5-1.69,10.37,10.37,0,0,1-3-4.64,22.16,22.16,0,0,1,0-13.29,10.43,10.43,0,0,1,3-4.61,8.2,8.2,0,0,1,10,0,10.3,10.3,0,0,1,3,4.61,22.36,22.36,0,0,1,0,13.29,10.24,10.24,0,0,1-3,4.64A7.45,7.45,0,0,1,124.82,153.07Zm0-2.91a4.53,4.53,0,0,0,3.22-1.23,7.64,7.64,0,0,0,2-3.47,21.2,21.2,0,0,0,0-10.73,7.51,7.51,0,0,0-2-3.45,4.89,4.89,0,0,0-6.44,0,7.62,7.62,0,0,0-2,3.45,20.91,20.91,0,0,0,0,10.73,7.75,7.75,0,0,0,2,3.47A4.54,4.54,0,0,0,124.82,150.16Z"/><path class="cls-1" d="M156.36,153.07a7.45,7.45,0,0,1-5-1.69,10.35,10.35,0,0,1-3-4.64,21.95,21.95,0,0,1,0-13.29,10.42,10.42,0,0,1,3-4.61,8.2,8.2,0,0,1,10,0,10.24,10.24,0,0,1,3,4.61,22.36,22.36,0,0,1,0,13.29,10.17,10.17,0,0,1-3,4.64A7.42,7.42,0,0,1,156.36,153.07Zm0-2.91a4.54,4.54,0,0,0,3.22-1.23,7.64,7.64,0,0,0,2-3.47,21.5,21.5,0,0,0,0-10.73,7.51,7.51,0,0,0-2-3.45,4.89,4.89,0,0,0-6.44,0,7.62,7.62,0,0,0-2,3.45,20.91,20.91,0,0,0,0,10.73,7.75,7.75,0,0,0,2,3.47A4.51,4.51,0,0,0,156.36,150.16Z"/><path class="cls-1" d="M197.79,153.07a7.42,7.42,0,0,1-5-1.69,10.37,10.37,0,0,1-3-4.64,22.16,22.16,0,0,1,0-13.29,10.43,10.43,0,0,1,3-4.61,8.2,8.2,0,0,1,10,0,10.3,10.3,0,0,1,3,4.61,22.36,22.36,0,0,1,0,13.29,10.24,10.24,0,0,1-3,4.64A7.45,7.45,0,0,1,197.79,153.07Zm0-2.91a4.53,4.53,0,0,0,3.22-1.23,7.55,7.55,0,0,0,2-3.47,21.2,21.2,0,0,0,0-10.73,7.43,7.43,0,0,0-2-3.45,4.89,4.89,0,0,0-6.44,0,7.62,7.62,0,0,0-2,3.45,20.91,20.91,0,0,0,0,10.73,7.75,7.75,0,0,0,2,3.47A4.54,4.54,0,0,0,197.79,150.16Z"/><path class="cls-1" d="M229.33,153.07a7.45,7.45,0,0,1-5-1.69,10.35,10.35,0,0,1-3-4.64,21.95,21.95,0,0,1,0-13.29,10.42,10.42,0,0,1,3-4.61,8.2,8.2,0,0,1,10,0,10.24,10.24,0,0,1,3,4.61,22.36,22.36,0,0,1,0,13.29,10.17,10.17,0,0,1-3,4.64A7.42,7.42,0,0,1,229.33,153.07Zm0-2.91a4.54,4.54,0,0,0,3.22-1.23,7.64,7.64,0,0,0,2-3.47,21.5,21.5,0,0,0,0-10.73,7.51,7.51,0,0,0-2-3.45,4.89,4.89,0,0,0-6.44,0,7.62,7.62,0,0,0-2,3.45,20.91,20.91,0,0,0,0,10.73,7.75,7.75,0,0,0,2,3.47A4.53,4.53,0,0,0,229.33,150.16Z"/><path class="cls-1" d="M260.86,153.07a7.42,7.42,0,0,1-5-1.69,10.45,10.45,0,0,1-3-4.64,22.16,22.16,0,0,1,0-13.29,10.52,10.52,0,0,1,3-4.61,8.2,8.2,0,0,1,10,0,10.4,10.4,0,0,1,3,4.61,22.58,22.58,0,0,1,0,13.29,10.34,10.34,0,0,1-3,4.64A7.43,7.43,0,0,1,260.86,153.07Zm0-2.91a4.55,4.55,0,0,0,3.23-1.23,7.63,7.63,0,0,0,2-3.47,21.2,21.2,0,0,0,0-10.73,7.5,7.5,0,0,0-2-3.45,4.9,4.9,0,0,0-6.45,0,7.61,7.61,0,0,0-2,3.45,20.62,20.62,0,0,0,0,10.73,7.74,7.74,0,0,0,2,3.47A4.54,4.54,0,0,0,260.86,150.16Z"/><path class="cls-1" d="M128.71,210.28a1.37,1.37,0,0,1-1-.43,1.47,1.47,0,0,1-.41-1V189.12l.58.21-8.61,11.23-.14-.43h13.17a1.35,1.35,0,0,1,1.37,1.37,1.23,1.23,0,0,1-.39.92,1.38,1.38,0,0,1-1,.38H117.12a1.4,1.4,0,0,1-1-.44,1.33,1.33,0,0,1-.45-1,1.35,1.35,0,0,1,.36-.94l11.48-14.76a1.3,1.3,0,0,1,.58-.45,1.84,1.84,0,0,1,.65-.13,1.31,1.31,0,0,1,1,.42,1.39,1.39,0,0,1,.4,1v22.29a1.47,1.47,0,0,1-.41,1A1.37,1.37,0,0,1,128.71,210.28Z"/><path class="cls-1" d="M156.36,210.64a7.43,7.43,0,0,1-5-1.69,10.35,10.35,0,0,1-3-4.64,21.95,21.95,0,0,1,0-13.29,10.33,10.33,0,0,1,3-4.6,8.16,8.16,0,0,1,10,0,10.23,10.23,0,0,1,3,4.6,22.36,22.36,0,0,1,0,13.29,10.26,10.26,0,0,1-3,4.64A7.42,7.42,0,0,1,156.36,210.64Zm0-2.91a4.54,4.54,0,0,0,3.22-1.23,7.73,7.73,0,0,0,2-3.47,21.5,21.5,0,0,0,0-10.73,7.6,7.6,0,0,0-2-3.45,4.9,4.9,0,0,0-6.45,0,7.7,7.7,0,0,0-2,3.45,20.91,20.91,0,0,0,0,10.73,7.83,7.83,0,0,0,2,3.47A4.55,4.55,0,0,0,156.36,207.73Z"/><path class="cls-1" d="M197.79,210.64a7.42,7.42,0,0,1-5-1.69,10.37,10.37,0,0,1-3-4.64,22.16,22.16,0,0,1,0-13.29,10.34,10.34,0,0,1,3-4.6,8.16,8.16,0,0,1,10,0,10.21,10.21,0,0,1,3,4.6,22.36,22.36,0,0,1,0,13.29,10.24,10.24,0,0,1-3,4.64A7.45,7.45,0,0,1,197.79,210.64Zm0-2.91A4.53,4.53,0,0,0,201,206.5a7.55,7.55,0,0,0,2-3.47,21.2,21.2,0,0,0,0-10.73,7.43,7.43,0,0,0-2-3.45,4.89,4.89,0,0,0-6.44,0,7.62,7.62,0,0,0-2,3.45,20.91,20.91,0,0,0,0,10.73,7.75,7.75,0,0,0,2,3.47A4.54,4.54,0,0,0,197.79,207.73Z"/><path class="cls-1" d="M229.33,210.64a7.45,7.45,0,0,1-5-1.69,10.35,10.35,0,0,1-3-4.64,21.95,21.95,0,0,1,0-13.29,10.33,10.33,0,0,1,3-4.6,8.16,8.16,0,0,1,10,0,10.15,10.15,0,0,1,3,4.6,22.36,22.36,0,0,1,0,13.29,10.17,10.17,0,0,1-3,4.64A7.42,7.42,0,0,1,229.33,210.64Zm0-2.91a4.54,4.54,0,0,0,3.22-1.23,7.64,7.64,0,0,0,2-3.47,21.5,21.5,0,0,0,0-10.73,7.51,7.51,0,0,0-2-3.45,4.89,4.89,0,0,0-6.44,0,7.62,7.62,0,0,0-2,3.45,20.91,20.91,0,0,0,0,10.73,7.75,7.75,0,0,0,2,3.47A4.53,4.53,0,0,0,229.33,207.73Z"/><path class="cls-1" d="M260.86,210.64a7.42,7.42,0,0,1-5-1.69,10.45,10.45,0,0,1-3-4.64,22.16,22.16,0,0,1,0-13.29,10.43,10.43,0,0,1,3-4.6,8.16,8.16,0,0,1,10,0,10.31,10.31,0,0,1,3,4.6,22.58,22.58,0,0,1,0,13.29,10.34,10.34,0,0,1-3,4.64A7.43,7.43,0,0,1,260.86,210.64Zm0-2.91a4.55,4.55,0,0,0,3.23-1.23,7.63,7.63,0,0,0,2-3.47,21.2,21.2,0,0,0,0-10.73,7.5,7.5,0,0,0-2-3.45,4.9,4.9,0,0,0-6.45,0,7.61,7.61,0,0,0-2,3.45,20.62,20.62,0,0,0,0,10.73,7.74,7.74,0,0,0,2,3.47A4.54,4.54,0,0,0,260.86,207.73Z"/><path class="cls-1" d="M157.83,266.22a8,8,0,0,1-3.61-.78,7.37,7.37,0,0,1-2.61-2.1,9.66,9.66,0,0,1-1.59-3,11,11,0,0,1-.54-3.42,16.79,16.79,0,0,1,.4-3.46,22.23,22.23,0,0,1,1.2-3.9,19.25,19.25,0,0,1,2.11-3.84,16.34,16.34,0,0,1,3.1-3.29,13.35,13.35,0,0,1,4.14-2.25,2.46,2.46,0,0,1,.57-.07,1.81,1.81,0,0,1,1,.3,1.24,1.24,0,0,1,.45,1.1,1.28,1.28,0,0,1-.33.88,1.87,1.87,0,0,1-.86.56,11.56,11.56,0,0,0-2.83,1.57,14.82,14.82,0,0,0-2.55,2.41,16.87,16.87,0,0,0-2,3,11.8,11.8,0,0,0-1.17,3.33l-.86.28a9,9,0,0,1,1.55-1.83,7.66,7.66,0,0,1,2.17-1.41,6.77,6.77,0,0,1,2.72-.54,6.44,6.44,0,0,1,2.95.69,8.15,8.15,0,0,1,2.42,1.83,8.65,8.65,0,0,1,1.63,2.65,8.27,8.27,0,0,1,.6,3.11,8.05,8.05,0,0,1-1.06,4,8.34,8.34,0,0,1-2.88,3A7.63,7.63,0,0,1,157.83,266.22Zm0-2.7a5,5,0,0,0,4.5-2.65A5.83,5.83,0,0,0,163,258a6.14,6.14,0,0,0-.61-2.73,5.17,5.17,0,0,0-1.75-2,4.72,4.72,0,0,0-2.71-.77,5.41,5.41,0,0,0-2.92.76,5.06,5.06,0,0,0-1.89,2,6.06,6.06,0,0,0-.67,2.83,5.63,5.63,0,0,0,.65,2.66,5.05,5.05,0,0,0,1.86,2A5.28,5.28,0,0,0,157.8,263.52Z"/><path class="cls-1" d="M197.79,266.22a7.43,7.43,0,0,1-5-1.7,10.31,10.31,0,0,1-3-4.64,22.12,22.12,0,0,1,0-13.28,10.38,10.38,0,0,1,3-4.61,8.2,8.2,0,0,1,10,0,10.25,10.25,0,0,1,3,4.61,22.33,22.33,0,0,1,0,13.28,10.19,10.19,0,0,1-3,4.64A7.45,7.45,0,0,1,197.79,266.22Zm0-2.92a4.56,4.56,0,0,0,3.22-1.22,7.64,7.64,0,0,0,2-3.48,18.32,18.32,0,0,0,.69-5.34,18.53,18.53,0,0,0-.69-5.39,7.43,7.43,0,0,0-2-3.45,4.89,4.89,0,0,0-6.44,0,7.62,7.62,0,0,0-2,3.45,18.51,18.51,0,0,0-.7,5.39,18.29,18.29,0,0,0,.7,5.34,7.85,7.85,0,0,0,2,3.48A4.58,4.58,0,0,0,197.79,263.3Z"/><path class="cls-1" d="M229.33,266.22a7.45,7.45,0,0,1-5-1.7,10.3,10.3,0,0,1-3-4.64,21.92,21.92,0,0,1,0-13.28,10.36,10.36,0,0,1,3-4.61,8.2,8.2,0,0,1,10,0,10.18,10.18,0,0,1,3,4.61,22.33,22.33,0,0,1,0,13.28,10.12,10.12,0,0,1-3,4.64A7.43,7.43,0,0,1,229.33,266.22Zm0-2.92a4.58,4.58,0,0,0,3.22-1.22,7.73,7.73,0,0,0,2-3.48,18.69,18.69,0,0,0,.68-5.34,18.91,18.91,0,0,0-.68-5.39,7.51,7.51,0,0,0-2-3.45,4.89,4.89,0,0,0-6.44,0,7.62,7.62,0,0,0-2,3.45,18.17,18.17,0,0,0-.7,5.39,18,18,0,0,0,.7,5.34,7.85,7.85,0,0,0,2,3.48A4.56,4.56,0,0,0,229.33,263.3Z"/><path class="cls-1" d="M260.86,266.22a7.43,7.43,0,0,1-5-1.7,10.39,10.39,0,0,1-3-4.64,22.12,22.12,0,0,1,0-13.28,10.46,10.46,0,0,1,3-4.61,8.2,8.2,0,0,1,10,0,10.35,10.35,0,0,1,3,4.61,22.54,22.54,0,0,1,0,13.28,10.28,10.28,0,0,1-3,4.64A7.44,7.44,0,0,1,260.86,266.22Zm0-2.92a4.59,4.59,0,0,0,3.23-1.22,7.72,7.72,0,0,0,2-3.48,18.32,18.32,0,0,0,.69-5.34,18.53,18.53,0,0,0-.69-5.39,7.5,7.5,0,0,0-2-3.45,4.9,4.9,0,0,0-6.45,0,7.61,7.61,0,0,0-2,3.45,18.15,18.15,0,0,0-.71,5.39,17.94,17.94,0,0,0,.71,5.34,7.84,7.84,0,0,0,2,3.48A4.58,4.58,0,0,0,260.86,263.3Z"/><path class="cls-1" d="M197.79,323.79a7.47,7.47,0,0,1-5-1.69,10.49,10.49,0,0,1-3-4.65,22.12,22.12,0,0,1,0-13.28,10.46,10.46,0,0,1,3-4.61,8.2,8.2,0,0,1,10,0,10.35,10.35,0,0,1,3,4.61,22.54,22.54,0,0,1,0,13.28,10.37,10.37,0,0,1-3,4.65A7.5,7.5,0,0,1,197.79,323.79Zm0-2.92a4.6,4.6,0,0,0,3.23-1.22,7.72,7.72,0,0,0,2-3.48,21.16,21.16,0,0,0,0-10.72,7.54,7.54,0,0,0-2-3.46,4.9,4.9,0,0,0-6.45,0,7.56,7.56,0,0,0-2,3.46,20.59,20.59,0,0,0,0,10.72,7.74,7.74,0,0,0,2,3.48A4.58,4.58,0,0,0,197.79,320.87Z"/><path class="cls-1" d="M229.33,323.79a7.5,7.5,0,0,1-5-1.69,10.39,10.39,0,0,1-3-4.65,21.92,21.92,0,0,1,0-13.28,10.36,10.36,0,0,1,3-4.61,8.2,8.2,0,0,1,10,0,10.18,10.18,0,0,1,3,4.61,22.33,22.33,0,0,1,0,13.28,10.21,10.21,0,0,1-3,4.65A7.47,7.47,0,0,1,229.33,323.79Zm0-2.92a4.58,4.58,0,0,0,3.22-1.22,7.73,7.73,0,0,0,2-3.48,21.46,21.46,0,0,0,0-10.72,7.55,7.55,0,0,0-2-3.46,4.89,4.89,0,0,0-6.44,0,7.66,7.66,0,0,0-2,3.46,20.87,20.87,0,0,0,0,10.72,7.85,7.85,0,0,0,2,3.48A4.56,4.56,0,0,0,229.33,320.87Z"/><path class="cls-1" d="M260.86,323.79a7.47,7.47,0,0,1-5-1.69,10.49,10.49,0,0,1-3-4.65,22.12,22.12,0,0,1,0-13.28,10.46,10.46,0,0,1,3-4.61,8.2,8.2,0,0,1,10,0,10.35,10.35,0,0,1,3,4.61,22.54,22.54,0,0,1,0,13.28,10.37,10.37,0,0,1-3,4.65A7.48,7.48,0,0,1,260.86,323.79Zm0-2.92a4.59,4.59,0,0,0,3.23-1.22,7.72,7.72,0,0,0,2-3.48,21.16,21.16,0,0,0,0-10.72,7.54,7.54,0,0,0-2-3.46,4.9,4.9,0,0,0-6.45,0,7.65,7.65,0,0,0-2,3.46,20.59,20.59,0,0,0,0,10.72,7.84,7.84,0,0,0,2,3.48A4.58,4.58,0,0,0,260.86,320.87Z"/><path class="cls-1" d="M224.68,376.82a1.55,1.55,0,0,1,.49.09,1.76,1.76,0,0,1,.59.38,5.76,5.76,0,0,0,3.93,1.44,5.83,5.83,0,0,0,2.84-.7,5.62,5.62,0,0,0,2.11-2,5.51,5.51,0,0,0,.81-3,5.16,5.16,0,0,0-.81-3,5,5,0,0,0-2-1.73,6.35,6.35,0,0,0-2.61-.56,6.79,6.79,0,0,0-.94.07,8.14,8.14,0,0,0-.81.18,2.66,2.66,0,0,1-.7.11,1.07,1.07,0,0,1-.9-.4,1.44,1.44,0,0,1-.33-1,1.63,1.63,0,0,1,.11-.59,1.88,1.88,0,0,1,.36-.56l7.06-7.78.57.69H224.18a1.37,1.37,0,0,1-1.37-1.37,1.24,1.24,0,0,1,.4-.95,1.32,1.32,0,0,1,1-.38h11.74a1.39,1.39,0,0,1,1.15.45,1.55,1.55,0,0,1,.36,1,1.18,1.18,0,0,1-.15.59,1.86,1.86,0,0,1-.39.52l-7,7.82-.83-.72a2.1,2.1,0,0,1,.83-.27,5.39,5.39,0,0,1,1.08-.13,7.42,7.42,0,0,1,3.71,1,7.32,7.32,0,0,1,2.7,2.74,8.11,8.11,0,0,1,1,4.1,8.34,8.34,0,0,1-1.18,4.5,8,8,0,0,1-3.26,2.95,10.17,10.17,0,0,1-4.66,1.05,9.1,9.1,0,0,1-2.83-.45,6.85,6.85,0,0,1-2.39-1.32,1.32,1.32,0,0,1-.63-.57,1.43,1.43,0,0,1-.17-.65,1.6,1.6,0,0,1,.42-1A1.26,1.26,0,0,1,224.68,376.82Z"/><path class="cls-1" d="M260.86,381.36a7.47,7.47,0,0,1-5-1.69,10.49,10.49,0,0,1-3-4.65,22.12,22.12,0,0,1,0-13.28,10.46,10.46,0,0,1,3-4.61,8.2,8.2,0,0,1,10,0,10.35,10.35,0,0,1,3,4.61,22.54,22.54,0,0,1,0,13.28,10.37,10.37,0,0,1-3,4.65A7.48,7.48,0,0,1,260.86,381.36Zm0-2.92a4.54,4.54,0,0,0,3.23-1.22,7.72,7.72,0,0,0,2-3.48,18.27,18.27,0,0,0,.69-5.34,18.46,18.46,0,0,0-.69-5.38,7.59,7.59,0,0,0-2-3.46,4.9,4.9,0,0,0-6.45,0,7.7,7.7,0,0,0-2,3.46,18.08,18.08,0,0,0-.71,5.38,17.89,17.89,0,0,0,.71,5.34,7.84,7.84,0,0,0,2,3.48A4.54,4.54,0,0,0,260.86,378.44Z"/><path class="cls-1" d="M261.66,412.94a8.12,8.12,0,0,1,3.61.77,7.4,7.4,0,0,1,2.61,2.11,9.55,9.55,0,0,1,1.59,3,10.93,10.93,0,0,1,.54,3.42,16.45,16.45,0,0,1-.4,3.43,21.17,21.17,0,0,1-1.2,3.84,19.09,19.09,0,0,1-2.11,3.74,15.74,15.74,0,0,1-3.1,3.22,13.71,13.71,0,0,1-4.14,2.22,1.84,1.84,0,0,1-.57.11,1.6,1.6,0,0,1-1-.36,1.3,1.3,0,0,1-.45-1.08,1.33,1.33,0,0,1,.33-.89,1.86,1.86,0,0,1,.86-.55,12.57,12.57,0,0,0,3.73-2.22,15.58,15.58,0,0,0,3.09-3.51,11.79,11.79,0,0,0,1.75-4.28l.86-.29a7.91,7.91,0,0,1-3.69,3.2,6.82,6.82,0,0,1-2.75.54,6.68,6.68,0,0,1-2.95-.66,8,8,0,0,1-2.42-1.82,8.65,8.65,0,0,1-1.63-2.65,8.24,8.24,0,0,1-.6-3.11,8.07,8.07,0,0,1,1.06-4.07,8.5,8.5,0,0,1,2.9-3A7.72,7.72,0,0,1,261.66,412.94Zm0,2.7a5,5,0,0,0-2.64.7,5.15,5.15,0,0,0-1.86,1.93,5.76,5.76,0,0,0-.68,2.84,6.19,6.19,0,0,0,.61,2.72,5,5,0,0,0,1.76,2,4.77,4.77,0,0,0,2.7.76,5.41,5.41,0,0,0,2.92-.76,5.06,5.06,0,0,0,1.89-2,6,6,0,0,0,.67-2.79,5.56,5.56,0,0,0-.65-2.68,5.16,5.16,0,0,0-1.86-2A5.28,5.28,0,0,0,261.69,415.64Z"/><rect class="cls-2" x="1.5" y="1.5" width="280" height="46" rx="5.36"/><rect class="cls-2" x="35.5" y="58.5" width="246" height="46" rx="5.36"/><rect class="cls-2" x="76.5" y="115.5" width="205" height="46" rx="5.36"/><rect class="cls-2" x="107.5" y="172.5" width="174" height="46" rx="5.36"/><rect class="cls-2" x="136.5" y="229.5" width="145" height="46" rx="5.36"/><rect class="cls-2" x="178.5" y="286.5" width="103" height="46" rx="5.36"/><rect class="cls-2" x="206.5" y="343.5" width="75" height="46" rx="5.36"/><rect class="cls-2" x="240.5" y="400.5" width="41" height="46" rx="5.36"/></g></g></svg>