<?xml version="1.0" encoding="UTF-8" standalone="no"?>
<svg
   xmlns:dc="http://purl.org/dc/elements/1.1/"
   xmlns:cc="http://creativecommons.org/ns#"
   xmlns:rdf="http://www.w3.org/1999/02/22-rdf-syntax-ns#"
   xmlns:svg="http://www.w3.org/2000/svg"
   xmlns="http://www.w3.org/2000/svg"
   xmlns:sodipodi="http://sodipodi.sourceforge.net/DTD/sodipodi-0.dtd"
   xmlns:inkscape="http://www.inkscape.org/namespaces/inkscape"
   viewBox="0 0 314.52 485.92"
   version="1.1"
   id="svg130"
   sodipodi:docname="v3_glosa_2.svg"
   inkscape:version="0.92.3 (2405546, 2018-03-11)">
  <metadata
     id="metadata134">
    <rdf:RDF>
      <cc:Work
         rdf:about="">
        <dc:format>image/svg+xml</dc:format>
        <dc:type
           rdf:resource="http://purl.org/dc/dcmitype/StillImage" />
      </cc:Work>
    </rdf:RDF>
  </metadata>
  <sodipodi:namedview
     pagecolor="#ffffff"
     bordercolor="#666666"
     borderopacity="1"
     objecttolerance="10"
     gridtolerance="10"
     guidetolerance="10"
     inkscape:pageopacity="0"
     inkscape:pageshadow="2"
     inkscape:window-width="1600"
     inkscape:window-height="872"
     id="namedview132"
     showgrid="false"
     inkscape:zoom="0.72713658"
     inkscape:cx="106.54737"
     inkscape:cy="242.96001"
     inkscape:window-x="1360"
     inkscape:window-y="0"
     inkscape:window-maximized="1"
     inkscape:current-layer="svg130" />
  <defs
     id="defs34">
    <style
       id="style32">.cls-1{fill:#363026;}.cls-2{fill:#1f8ebe;}.cls-3{fill:none;stroke:#1f8ebe;stroke-linecap:round;stroke-miterlimit:10;stroke-width:3px;}</style>
  </defs>
  <path
     class="cls-2"
     d="M 1.69,418.06 A 1.66,1.66 0 0 1 0,416.37 a 1.5,1.5 0 0 1 0.49,-1.17 1.69,1.69 0 0 1 1.2,-0.45 h 14.73 a 1.66,1.66 0 0 1 1.2,0.47 1.69,1.69 0 0 1 0,2.38 1.65,1.65 0 0 1 -1.2,0.46 z M 9,425.34 A 1.94,1.94 0 0 1 7.61,424.8 1.83,1.83 0 0 1 7.06,423.43 V 409 a 1.85,1.85 0 0 1 0.57,-1.4 2,2 0 0 1 1.37,-0.55 1.84,1.84 0 0 1 1.38,0.54 1.87,1.87 0 0 1 0.52,1.37 v 14.47 A 1.86,1.86 0 0 1 10.36,424.8 1.88,1.88 0 0 1 9,425.34 Z"
     id="path68"
     inkscape:connector-curvature="0"
     style="fill:#1f8ebe" />
  <line
     class="cls-3"
     x1="1.52"
     y1="436.48999"
     x2="313.01999"
     y2="436.48999"
     id="line126"
     style="fill:none;stroke:#1f8ebe;stroke-width:3px;stroke-linecap:round;stroke-miterlimit:10" />
  <path
     inkscape:connector-curvature="0"
     class="cls-1"
     d="m 42.229868,477.47607 a 1.33,1.33 0 0 1 -1,-0.43 1.46,1.46 0 0 1 -0.42,-1 v -19.74 l 0.58,0.22 -8.63,11.23 -0.14,-0.43 h 13.18 a 1.33,1.33 0 0 1 1.36,1.37 1.21,1.21 0 0 1 -0.39,0.91 1.33,1.33 0 0 1 -1,0.38 h -15.13 a 1.39,1.39 0 0 1 -1,-0.43 1.35,1.35 0 0 1 -0.45,-1 1.32,1.32 0 0 1 0.36,-0.93 l 11.48,-14.72 a 1.3,1.3 0 0 1 0.58,-0.45 1.68,1.68 0 0 1 0.65,-0.13 1.36,1.36 0 0 1 1,0.41 1.45,1.45 0 0 1 0.39,1 v 22.26 a 1.49,1.49 0 0 1 -0.41,1 1.37,1.37 0 0 1 -1.01,0.48 z"
     id="path6-9"
     style="fill:#363026" />
  <path
     inkscape:connector-curvature="0"
     class="cls-1"
     d="m 65.239868,473.19754 a 1.54,1.54 0 0 1 0.48,0.09 1.84,1.84 0 0 1 0.6,0.37 5.68,5.68 0 0 0 1.69,1 6,6 0 0 0 2.23,0.39 5.83,5.83 0 0 0 2.84,-0.7 5.55,5.55 0 0 0 2.92,-5 5.17,5.17 0 0 0 -0.81,-3 4.89,4.89 0 0 0 -2,-1.73 6.35,6.35 0 0 0 -2.61,-0.56 5.49,5.49 0 0 0 -0.94,0.08 4.81,4.81 0 0 0 -0.81,0.18 2.57,2.57 0 0 1 -0.7,0.1 1.12,1.12 0 0 1 -0.9,-0.39 1.47,1.47 0 0 1 -0.32,-1 1.64,1.64 0 0 1 0.1,-0.6 2.61,2.61 0 0 1 0.36,-0.56 l 7.01,-7.67 0.58,0.68 h -10.23 a 1.33,1.33 0 0 1 -1,-0.39 1.36,1.36 0 0 1 -0.4,-1 1.28,1.28 0 0 1 0.4,-1 1.36,1.36 0 0 1 1,-0.38 h 11.74 a 1.38,1.38 0 0 1 1.15,0.45 1.55,1.55 0 0 1 0.36,1 1.36,1.36 0 0 1 -0.14,0.6 2.34,2.34 0 0 1 -0.4,0.52 l -7,7.81 -0.83,-0.72 a 2.1,2.1 0 0 1 0.83,-0.27 6.24,6.24 0 0 1 1.08,-0.13 7.32,7.32 0 0 1 3.71,1 7.15,7.15 0 0 1 2.7,2.73 8.17,8.17 0 0 1 1,4.1 8.35,8.35 0 0 1 -1.19,4.5 8,8 0 0 1 -3.26,3 10.27,10.27 0 0 1 -4.66,1 9.15,9.15 0 0 1 -2.79,-0.45 7,7 0 0 1 -2.39,-1.31 1.44,1.44 0 0 1 -0.63,-0.58 1.39,1.39 0 0 1 -0.16,-0.65 1.6,1.6 0 0 1 0.41,-1 1.27,1.27 0 0 1 0.98,-0.51 z"
     id="path22-22"
     style="fill:#363026" />
  <path
     inkscape:connector-curvature="0"
     class="cls-1"
     d="m 109.61987,477.58209 a 1.57,1.57 0 0 1 -1,-0.38 1.21,1.21 0 0 1 -0.47,-1 1.57,1.57 0 0 1 0.15,-0.65 l 9.32,-21.24 0.4,0.65 h -11.64 a 1.33,1.33 0 0 1 -1.35,-1.36 1.27,1.27 0 0 1 0.39,-1 1.38,1.38 0 0 1 1,-0.38 h 13 a 1.5,1.5 0 0 1 1.08,0.38 1.32,1.32 0 0 1 0.4,1 1.57,1.57 0 0 1 -0.15,0.68 l -9.75,22.36 a 1.22,1.22 0 0 1 -0.53,0.67 1.55,1.55 0 0 1 -0.85,0.27 z"
     id="path36-1"
     style="fill:#363026" />
  <path
     inkscape:connector-curvature="0"
     class="cls-1"
     d="m 146.73987,477.5013 a 1.37,1.37 0 0 1 -1,-0.43 1.47,1.47 0 0 1 -0.41,-1 v -19.73 l 0.58,0.21 -8.61,11.23 -0.14,-0.43 h 13.17 a 1.35,1.35 0 0 1 1.37,1.37 1.23,1.23 0 0 1 -0.39,0.92 1.38,1.38 0 0 1 -1,0.38 h -15.16 a 1.4,1.4 0 0 1 -1,-0.44 1.33,1.33 0 0 1 -0.45,-1 1.35,1.35 0 0 1 0.36,-0.94 l 11.48,-14.76 a 1.3,1.3 0 0 1 0.58,-0.45 1.84,1.84 0 0 1 0.65,-0.13 1.31,1.31 0 0 1 1,0.42 1.39,1.39 0 0 1 0.4,1 v 22.29 a 1.47,1.47 0 0 1 -0.41,1 1.37,1.37 0 0 1 -1.02,0.49 z"
     id="path48-7"
     style="fill:#363026" />
  <path
     inkscape:connector-curvature="0"
     class="cls-1"
     d="m 175.85987,477.95521 a 8,8 0 0 1 -3.61,-0.78 7.37,7.37 0 0 1 -2.61,-2.1 9.66,9.66 0 0 1 -1.59,-3 11,11 0 0 1 -0.54,-3.42 16.79,16.79 0 0 1 0.4,-3.46 22.23,22.23 0 0 1 1.2,-3.9 19.25,19.25 0 0 1 2.11,-3.84 16.34,16.34 0 0 1 3.1,-3.29 13.35,13.35 0 0 1 4.14,-2.25 2.46,2.46 0 0 1 0.57,-0.07 1.81,1.81 0 0 1 1,0.3 1.24,1.24 0 0 1 0.45,1.1 1.28,1.28 0 0 1 -0.33,0.88 1.87,1.87 0 0 1 -0.86,0.56 11.56,11.56 0 0 0 -2.83,1.57 14.82,14.82 0 0 0 -2.55,2.41 16.87,16.87 0 0 0 -2,3 11.8,11.8 0 0 0 -1.17,3.33 l -0.86,0.28 a 9,9 0 0 1 1.55,-1.83 7.66,7.66 0 0 1 2.17,-1.41 6.77,6.77 0 0 1 2.72,-0.54 6.44,6.44 0 0 1 2.95,0.69 8.15,8.15 0 0 1 2.42,1.83 8.65,8.65 0 0 1 1.63,2.65 8.27,8.27 0 0 1 0.6,3.11 8.05,8.05 0 0 1 -1.06,4 8.34,8.34 0 0 1 -2.88,3 7.63,7.63 0 0 1 -4.12,1.18 z m 0,-2.7 a 5,5 0 0 0 4.5,-2.65 5.83,5.83 0 0 0 0.67,-2.87 6.14,6.14 0 0 0 -0.61,-2.73 5.17,5.17 0 0 0 -1.75,-2 4.72,4.72 0 0 0 -2.71,-0.77 5.41,5.41 0 0 0 -2.92,0.76 5.06,5.06 0 0 0 -1.89,2 6.06,6.06 0 0 0 -0.67,2.83 5.63,5.63 0 0 0 0.65,2.66 5.05,5.05 0 0 0 1.86,2 5.28,5.28 0 0 0 2.84,0.77 z"
     id="path58-5"
     style="fill:#363026" />
  <path
     inkscape:connector-curvature="0"
     class="cls-1"
     d="m 215.81987,477.8641 a 7.47,7.47 0 0 1 -5,-1.69 10.49,10.49 0 0 1 -3,-4.65 22.12,22.12 0 0 1 0,-13.28 10.46,10.46 0 0 1 3,-4.61 8.2,8.2 0 0 1 10,0 10.35,10.35 0 0 1 3,4.61 22.54,22.54 0 0 1 0,13.28 10.37,10.37 0 0 1 -3,4.65 7.5,7.5 0 0 1 -5,1.69 z m 0,-2.92 a 4.6,4.6 0 0 0 3.23,-1.22 7.72,7.72 0 0 0 2,-3.48 21.16,21.16 0 0 0 0,-10.72 7.54,7.54 0 0 0 -2,-3.46 4.9,4.9 0 0 0 -6.45,0 7.56,7.56 0 0 0 -2,3.46 20.59,20.59 0 0 0 0,10.72 7.74,7.74 0 0 0 2,3.48 4.58,4.58 0 0 0 3.22,1.22 z"
     id="path66-4"
     style="fill:#363026" />
  <path
     inkscape:connector-curvature="0"
     class="cls-1"
     d="m 242.70987,473.16306 a 1.55,1.55 0 0 1 0.49,0.09 1.76,1.76 0 0 1 0.59,0.38 5.76,5.76 0 0 0 3.93,1.44 5.83,5.83 0 0 0 2.84,-0.7 5.62,5.62 0 0 0 2.11,-2 5.51,5.51 0 0 0 0.81,-3 5.16,5.16 0 0 0 -0.81,-3 5,5 0 0 0 -2,-1.73 6.35,6.35 0 0 0 -2.61,-0.56 6.79,6.79 0 0 0 -0.94,0.07 8.14,8.14 0 0 0 -0.81,0.18 2.66,2.66 0 0 1 -0.7,0.11 1.07,1.07 0 0 1 -0.9,-0.4 1.44,1.44 0 0 1 -0.33,-1 1.63,1.63 0 0 1 0.11,-0.59 1.88,1.88 0 0 1 0.36,-0.56 l 7.06,-7.78 0.57,0.69 h -10.27 a 1.37,1.37 0 0 1 -1.37,-1.37 1.24,1.24 0 0 1 0.4,-0.95 1.32,1.32 0 0 1 1,-0.38 h 11.74 a 1.39,1.39 0 0 1 1.15,0.45 1.55,1.55 0 0 1 0.36,1 1.18,1.18 0 0 1 -0.15,0.59 1.86,1.86 0 0 1 -0.39,0.52 l -7,7.82 -0.83,-0.72 a 2.1,2.1 0 0 1 0.83,-0.27 5.39,5.39 0 0 1 1.08,-0.13 7.42,7.42 0 0 1 3.71,1 7.32,7.32 0 0 1 2.7,2.74 8.11,8.11 0 0 1 1,4.1 8.34,8.34 0 0 1 -1.18,4.5 8,8 0 0 1 -3.26,2.95 10.17,10.17 0 0 1 -4.66,1.05 9.1,9.1 0 0 1 -2.83,-0.45 6.85,6.85 0 0 1 -2.39,-1.32 1.32,1.32 0 0 1 -0.63,-0.57 1.43,1.43 0 0 1 -0.17,-0.65 1.6,1.6 0 0 1 0.42,-1 1.26,1.26 0 0 1 0.97,-0.55 z"
     id="path72-9"
     style="fill:#363026" />
  <path
     inkscape:connector-curvature="0"
     class="cls-1"
     d="m 279.68987,451.97177 a 8.12,8.12 0 0 1 3.61,0.77 7.4,7.4 0 0 1 2.61,2.11 9.55,9.55 0 0 1 1.59,3 10.93,10.93 0 0 1 0.54,3.42 16.45,16.45 0 0 1 -0.4,3.43 21.17,21.17 0 0 1 -1.2,3.84 19.09,19.09 0 0 1 -2.11,3.74 15.74,15.74 0 0 1 -3.1,3.22 13.71,13.71 0 0 1 -4.14,2.22 1.84,1.84 0 0 1 -0.57,0.11 1.6,1.6 0 0 1 -1,-0.36 1.3,1.3 0 0 1 -0.45,-1.08 1.33,1.33 0 0 1 0.33,-0.89 1.86,1.86 0 0 1 0.86,-0.55 12.57,12.57 0 0 0 3.73,-2.22 15.58,15.58 0 0 0 3.09,-3.51 11.79,11.79 0 0 0 1.75,-4.28 l 0.86,-0.29 a 7.91,7.91 0 0 1 -3.69,3.2 6.82,6.82 0 0 1 -2.75,0.54 6.68,6.68 0 0 1 -2.95,-0.66 8,8 0 0 1 -2.42,-1.82 8.65,8.65 0 0 1 -1.63,-2.65 8.24,8.24 0 0 1 -0.6,-3.11 8.07,8.07 0 0 1 1.06,-4.07 8.5,8.5 0 0 1 2.9,-3 7.72,7.72 0 0 1 4.08,-1.11 z m 0,2.7 a 5,5 0 0 0 -2.64,0.7 5.15,5.15 0 0 0 -1.86,1.93 5.76,5.76 0 0 0 -0.68,2.84 6.19,6.19 0 0 0 0.61,2.72 5,5 0 0 0 1.76,2 4.77,4.77 0 0 0 2.7,0.76 5.41,5.41 0 0 0 2.92,-0.76 5.06,5.06 0 0 0 1.89,-2 6,6 0 0 0 0.67,-2.79 5.56,5.56 0 0 0 -0.65,-2.68 5.16,5.16 0 0 0 -1.86,-2 5.28,5.28 0 0 0 -2.83,-0.72 z"
     id="path76-0"
     style="fill:#363026" />
  <path
     inkscape:connector-curvature="0"
     class="cls-1"
     d="m 38.10409,27.189037 a 1.33,1.33 0 0 1 -1,-0.43 1.46,1.46 0 0 1 -0.42,-1 V 6.0190366 l 0.58,0.22 -8.63,11.2300004 -0.14,-0.43 h 13.18 a 1.33,1.33 0 0 1 1.36,1.37 1.21,1.21 0 0 1 -0.39,0.91 1.33,1.33 0 0 1 -1,0.38 h -15.13 a 1.39,1.39 0 0 1 -1,-0.43 1.35,1.35 0 0 1 -0.45,-1 1.32,1.32 0 0 1 0.36,-0.93 l 11.48,-14.7200003 a 1.3,1.3 0 0 1 0.58,-0.45 1.68,1.68 0 0 1 0.65,-0.13 1.36,1.36 0 0 1 1,0.41 1.45,1.45 0 0 1 0.39,1 V 25.709037 a 1.49,1.49 0 0 1 -0.41,1 1.37,1.37 0 0 1 -1.01,0.48 z"
     id="path6-9-7"
     style="fill:#363026" />
  <path
     inkscape:connector-curvature="0"
     class="cls-1"
     d="m 65.75409,27.549037 a 7.47,7.47 0 0 1 -5,-1.69 10.39,10.39 0 0 1 -3,-4.65 20.13,20.13 0 0 1 -1,-6.62 20.08,20.08 0 0 1 1,-6.6600004 10.42,10.42 0 0 1 3,-4.6099999 8.21,8.21 0 0 1 10,0 10.3,10.3 0 0 1 3,4.6099999 20.35,20.35 0 0 1 1,6.6600004 20.4,20.4 0 0 1 -1,6.62 10.27,10.27 0 0 1 -3,4.65 7.47,7.47 0 0 1 -5,1.69 z m 0,-2.92 a 4.52,4.52 0 0 0 3.22,-1.22 7.7,7.7 0 0 0 2,-3.47 18.41,18.41 0 0 0 0.68,-5.32 18.48,18.48 0 0 0 -0.68,-5.3800004 7.6,7.6 0 0 0 -2,-3.4599999 4.92,4.92 0 0 0 -6.44,0 7.72,7.72 0 0 0 -2,3.4599999 18.1,18.1 0 0 0 -0.7,5.3800004 18,18 0 0 0 0.7,5.35 7.81,7.81 0 0 0 2,3.47 4.52,4.52 0 0 0 3.22,1.18 z"
     id="path8-50-5"
     style="fill:#363026" />
  <path
     inkscape:connector-curvature="0"
     class="cls-1"
     d="m 107.19409,27.549037 a 7.43,7.43 0 0 1 -5,-1.69 10.39,10.39 0 0 1 -3,-4.65 19.87,19.87 0 0 1 -1,-6.62 19.82,19.82 0 0 1 1,-6.6600004 10.42,10.42 0 0 1 3,-4.6099999 8.2,8.2 0 0 1 10,0 10.32,10.32 0 0 1 3,4.6099999 20.35,20.35 0 0 1 1,6.6600004 20.4,20.4 0 0 1 -1,6.62 10.29,10.29 0 0 1 -3,4.65 7.42,7.42 0 0 1 -5,1.69 z m 0,-2.92 a 4.54,4.54 0 0 0 3.22,-1.22 7.79,7.79 0 0 0 2,-3.47 18.76,18.76 0 0 0 0.68,-5.32 18.83,18.83 0 0 0 -0.68,-5.3800004 7.69,7.69 0 0 0 -2,-3.4599999 4.93,4.93 0 0 0 -6.45,0 7.8,7.8 0 0 0 -2,3.4599999 18.1,18.1 0 0 0 -0.7,5.3800004 18,18 0 0 0 0.7,5.35 7.89,7.89 0 0 0 2,3.47 4.54,4.54 0 0 0 3.23,1.18 z"
     id="path10-4-3"
     style="fill:#363026" />
  <path
     inkscape:connector-curvature="0"
     class="cls-1"
     d="m 138.72409,27.549037 a 7.42,7.42 0 0 1 -5,-1.69 10.4,10.4 0 0 1 -3,-4.65 20.13,20.13 0 0 1 -1,-6.62 20.08,20.08 0 0 1 1,-6.6600004 10.43,10.43 0 0 1 3,-4.6099999 8.2,8.2 0 0 1 10,0 10.3,10.3 0 0 1 3,4.6099999 20.35,20.35 0 0 1 1,6.6600004 20.4,20.4 0 0 1 -1,6.62 10.27,10.27 0 0 1 -3,4.65 7.45,7.45 0 0 1 -5,1.69 z m 0,-2.92 a 4.52,4.52 0 0 0 3.18,-1.22 7.7,7.7 0 0 0 2,-3.47 18.39,18.39 0 0 0 0.69,-5.35 18.46,18.46 0 0 0 -0.69,-5.3800004 7.6,7.6 0 0 0 -2,-3.4599999 4.92,4.92 0 0 0 -6.44,0 7.72,7.72 0 0 0 -2,3.4599999 18.44,18.44 0 0 0 -0.7,5.3800004 18.37,18.37 0 0 0 0.7,5.35 7.81,7.81 0 0 0 2,3.47 4.54,4.54 0 0 0 3.26,1.21 z"
     id="path12-8-5"
     style="fill:#363026" />
  <path
     inkscape:connector-curvature="0"
     class="cls-1"
     d="m 170.26409,27.549037 a 7.43,7.43 0 0 1 -5,-1.69 10.39,10.39 0 0 1 -3,-4.65 19.87,19.87 0 0 1 -1,-6.62 19.82,19.82 0 0 1 1,-6.6600004 10.42,10.42 0 0 1 3,-4.6099999 8.2,8.2 0 0 1 10,0 10.32,10.32 0 0 1 3,4.6099999 20.35,20.35 0 0 1 1,6.6600004 20.4,20.4 0 0 1 -1,6.62 10.29,10.29 0 0 1 -3,4.65 7.42,7.42 0 0 1 -5,1.69 z m 0,-2.92 a 4.54,4.54 0 0 0 3.22,-1.22 7.79,7.79 0 0 0 2,-3.47 18.76,18.76 0 0 0 0.68,-5.35 18.83,18.83 0 0 0 -0.68,-5.3800004 7.69,7.69 0 0 0 -2,-3.4599999 4.93,4.93 0 0 0 -6.45,0 7.8,7.8 0 0 0 -2,3.4599999 18.1,18.1 0 0 0 -0.7,5.3800004 18,18 0 0 0 0.7,5.35 7.89,7.89 0 0 0 2,3.47 4.54,4.54 0 0 0 3.23,1.21 z"
     id="path14-7-6"
     style="fill:#363026" />
  <path
     inkscape:connector-curvature="0"
     class="cls-1"
     d="m 211.69409,27.549037 a 7.42,7.42 0 0 1 -5,-1.69 10.4,10.4 0 0 1 -3,-4.65 20.13,20.13 0 0 1 -1,-6.62 20.08,20.08 0 0 1 1,-6.6600004 10.43,10.43 0 0 1 3,-4.6099999 8.2,8.2 0 0 1 10,0 10.3,10.3 0 0 1 3,4.6099999 20.09,20.09 0 0 1 1,6.6600004 20.14,20.14 0 0 1 -1,6.62 10.27,10.27 0 0 1 -3,4.65 7.45,7.45 0 0 1 -5,1.69 z m 0,-2.92 a 4.52,4.52 0 0 0 3.21,-1.22 7.61,7.61 0 0 0 2,-3.47 18.39,18.39 0 0 0 0.7,-5.32 18.46,18.46 0 0 0 -0.69,-5.3800004 7.52,7.52 0 0 0 -2,-3.4599999 4.92,4.92 0 0 0 -6.44,0 7.72,7.72 0 0 0 -2,3.4599999 18.44,18.44 0 0 0 -0.7,5.3800004 18.37,18.37 0 0 0 0.7,5.35 7.81,7.81 0 0 0 2,3.47 4.54,4.54 0 0 0 3.22,1.18 z"
     id="path16-1-2"
     style="fill:#363026" />
  <path
     inkscape:connector-curvature="0"
     class="cls-1"
     d="m 243.23409,27.549037 a 7.45,7.45 0 0 1 -5,-1.69 10.39,10.39 0 0 1 -3,-4.65 19.87,19.87 0 0 1 -1,-6.62 19.82,19.82 0 0 1 1,-6.6600004 10.42,10.42 0 0 1 3,-4.6099999 8.2,8.2 0 0 1 10,0 10.24,10.24 0 0 1 3,4.6099999 20.35,20.35 0 0 1 1,6.6600004 20.4,20.4 0 0 1 -1,6.62 10.21,10.21 0 0 1 -3,4.65 7.42,7.42 0 0 1 -5,1.69 z m 0,-2.92 a 4.54,4.54 0 0 0 3.22,-1.22 7.7,7.7 0 0 0 2,-3.47 18.76,18.76 0 0 0 0.68,-5.35 18.83,18.83 0 0 0 -0.68,-5.3800004 7.6,7.6 0 0 0 -2,-3.4599999 4.92,4.92 0 0 0 -6.44,0 7.72,7.72 0 0 0 -2,3.4599999 18.1,18.1 0 0 0 -0.7,5.3800004 18,18 0 0 0 0.7,5.35 7.81,7.81 0 0 0 2,3.47 4.52,4.52 0 0 0 3.22,1.21 z"
     id="path18-7-9"
     style="fill:#363026" />
  <path
     inkscape:connector-curvature="0"
     class="cls-1"
     d="m 274.76409,27.549037 a 7.42,7.42 0 0 1 -5,-1.69 10.49,10.49 0 0 1 -3,-4.65 20.13,20.13 0 0 1 -1,-6.62 20.08,20.08 0 0 1 1,-6.6600004 10.52,10.52 0 0 1 3,-4.6099999 8.2,8.2 0 0 1 10,0 10.4,10.4 0 0 1 3,4.6099999 20.36,20.36 0 0 1 1,6.6600004 20.41,20.41 0 0 1 -1,6.62 10.37,10.37 0 0 1 -3,4.65 7.43,7.43 0 0 1 -5,1.69 z m 0,-2.92 a 4.54,4.54 0 0 0 3.23,-1.22 7.69,7.69 0 0 0 2,-3.47 18.39,18.39 0 0 0 0.69,-5.35 18.46,18.46 0 0 0 -0.69,-5.3800004 7.59,7.59 0 0 0 -2,-3.4599999 4.93,4.93 0 0 0 -6.45,0 7.7,7.7 0 0 0 -2,3.4599999 18.08,18.08 0 0 0 -0.71,5.3800004 18,18 0 0 0 0.71,5.35 7.8,7.8 0 0 0 2,3.47 4.54,4.54 0 0 0 3.22,1.21 z"
     id="path20-27-1"
     style="fill:#363026" />
  <path
     inkscape:connector-curvature="0"
     class="cls-1"
     d="m 61.11409,80.619037 a 1.54,1.54 0 0 1 0.48,0.09 1.84,1.84 0 0 1 0.6,0.37 5.68,5.68 0 0 0 1.69,1 6,6 0 0 0 2.23,0.39 5.83,5.83 0 0 0 2.84,-0.7 5.55,5.55 0 0 0 2.92,-5 5.17,5.17 0 0 0 -0.81,-3 4.89,4.89 0 0 0 -2,-1.73 6.35,6.35 0 0 0 -2.61,-0.56 5.49,5.49 0 0 0 -0.94,0.08 4.81,4.81 0 0 0 -0.81,0.18 2.57,2.57 0 0 1 -0.7,0.1 1.12,1.12 0 0 1 -0.9,-0.39 1.47,1.47 0 0 1 -0.32,-1 1.64,1.64 0 0 1 0.1,-0.6 2.61,2.61 0 0 1 0.36,-0.56 l 7.01,-7.67 0.58,0.68 h -10.23 a 1.33,1.33 0 0 1 -1,-0.39 1.36,1.36 0 0 1 -0.4,-1 1.28,1.28 0 0 1 0.4,-1 1.36,1.36 0 0 1 1,-0.38 h 11.74 a 1.38,1.38 0 0 1 1.15,0.45 1.55,1.55 0 0 1 0.36,1 1.36,1.36 0 0 1 -0.14,0.6 2.34,2.34 0 0 1 -0.4,0.52 l -7,7.81 -0.83,-0.72 a 2.1,2.1 0 0 1 0.83,-0.27 6.24,6.24 0 0 1 1.08,-0.13 7.32,7.32 0 0 1 3.71,1 7.15,7.15 0 0 1 2.7,2.73 8.17,8.17 0 0 1 1,4.1 8.35,8.35 0 0 1 -1.19,4.5 8,8 0 0 1 -3.26,3 10.27,10.27 0 0 1 -4.66,1 9.15,9.15 0 0 1 -2.79,-0.45 7,7 0 0 1 -2.39,-1.31 1.44,1.44 0 0 1 -0.63,-0.58 1.39,1.39 0 0 1 -0.16,-0.65 1.6,1.6 0 0 1 0.41,-1 1.27,1.27 0 0 1 0.98,-0.51 z"
     id="path22-22-2"
     style="fill:#363026" />
  <path
     inkscape:connector-curvature="0"
     class="cls-1"
     d="m 107.19409,85.119037 a 7.43,7.43 0 0 1 -5,-1.69 10.41,10.41 0 0 1 -3,-4.64 21.95,21.95 0 0 1 0,-13.29 10.42,10.42 0 0 1 3,-4.61 8.2,8.2 0 0 1 10,0 10.32,10.32 0 0 1 3,4.61 22.36,22.36 0 0 1 0,13.29 10.31,10.31 0 0 1 -3,4.64 7.42,7.42 0 0 1 -5,1.69 z m 0,-2.92 a 4.54,4.54 0 0 0 3.22,-1.22 7.73,7.73 0 0 0 2,-3.47 21.5,21.5 0 0 0 0,-10.73 7.69,7.69 0 0 0 -2,-3.46 4.93,4.93 0 0 0 -6.45,0 7.8,7.8 0 0 0 -2,3.46 20.91,20.91 0 0 0 0,10.73 7.83,7.83 0 0 0 2,3.47 4.54,4.54 0 0 0 3.23,1.22 z"
     id="path24-61-7"
     style="fill:#363026" />
  <path
     inkscape:connector-curvature="0"
     class="cls-1"
     d="m 138.72409,85.119037 a 7.42,7.42 0 0 1 -5,-1.69 10.42,10.42 0 0 1 -3,-4.64 22.16,22.16 0 0 1 0,-13.29 10.43,10.43 0 0 1 3,-4.61 8.2,8.2 0 0 1 10,0 10.3,10.3 0 0 1 3,4.61 22.36,22.36 0 0 1 0,13.29 10.29,10.29 0 0 1 -3,4.64 7.45,7.45 0 0 1 -5,1.69 z m 0,-2.92 a 4.52,4.52 0 0 0 3.18,-1.22 7.55,7.55 0 0 0 2,-3.47 21.2,21.2 0 0 0 0,-10.73 7.52,7.52 0 0 0 -2,-3.46 4.92,4.92 0 0 0 -6.44,0 7.72,7.72 0 0 0 -2,3.46 20.91,20.91 0 0 0 0,10.73 7.75,7.75 0 0 0 2,3.47 4.54,4.54 0 0 0 3.26,1.22 z"
     id="path26-06-0"
     style="fill:#363026" />
  <path
     inkscape:connector-curvature="0"
     class="cls-1"
     d="m 170.26409,85.119037 a 7.45,7.45 0 0 1 -5,-1.69 10.41,10.41 0 0 1 -3,-4.64 21.95,21.95 0 0 1 0,-13.29 10.42,10.42 0 0 1 3,-4.61 8.2,8.2 0 0 1 10,0 10.24,10.24 0 0 1 3,4.61 22.36,22.36 0 0 1 0,13.29 10.23,10.23 0 0 1 -3,4.64 7.42,7.42 0 0 1 -5,1.69 z m 0,-2.92 a 4.54,4.54 0 0 0 3.22,-1.22 7.64,7.64 0 0 0 2,-3.47 21.5,21.5 0 0 0 0,-10.73 7.6,7.6 0 0 0 -2,-3.46 4.92,4.92 0 0 0 -6.44,0 7.72,7.72 0 0 0 -2,3.46 20.91,20.91 0 0 0 0,10.73 7.75,7.75 0 0 0 2,3.47 4.5,4.5 0 0 0 3.22,1.22 z"
     id="path28-1-9"
     style="fill:#363026" />
  <path
     inkscape:connector-curvature="0"
     class="cls-1"
     d="m 211.69409,85.119037 a 7.42,7.42 0 0 1 -5,-1.69 10.51,10.51 0 0 1 -3,-4.64 22.16,22.16 0 0 1 0,-13.29 10.52,10.52 0 0 1 3,-4.61 8.2,8.2 0 0 1 10,0 10.4,10.4 0 0 1 3,4.61 22.58,22.58 0 0 1 0,13.29 10.39,10.39 0 0 1 -3,4.64 7.45,7.45 0 0 1 -5,1.69 z m 0,-2.92 a 4.56,4.56 0 0 0 3.21,-1.22 7.63,7.63 0 0 0 2,-3.47 21.2,21.2 0 0 0 0,-10.73 7.59,7.59 0 0 0 -2,-3.46 4.93,4.93 0 0 0 -6.45,0 7.61,7.61 0 0 0 -2,3.46 20.62,20.62 0 0 0 0,10.73 7.65,7.65 0 0 0 2,3.47 4.54,4.54 0 0 0 3.24,1.22 z"
     id="path30-59-3"
     style="fill:#363026" />
  <path
     inkscape:connector-curvature="0"
     class="cls-1"
     d="m 243.23409,85.119037 a 7.45,7.45 0 0 1 -5,-1.69 10.41,10.41 0 0 1 -3,-4.64 21.95,21.95 0 0 1 0,-13.29 10.42,10.42 0 0 1 3,-4.61 8.2,8.2 0 0 1 10,0 10.24,10.24 0 0 1 3,4.61 22.36,22.36 0 0 1 0,13.29 10.23,10.23 0 0 1 -3,4.64 7.42,7.42 0 0 1 -5,1.69 z m 0,-2.92 a 4.54,4.54 0 0 0 3.22,-1.22 7.64,7.64 0 0 0 2,-3.47 21.5,21.5 0 0 0 0,-10.73 7.6,7.6 0 0 0 -2,-3.46 4.92,4.92 0 0 0 -6.44,0 7.72,7.72 0 0 0 -2,3.46 20.91,20.91 0 0 0 0,10.73 7.75,7.75 0 0 0 2,3.47 4.52,4.52 0 0 0 3.22,1.22 z"
     id="path32-49-6"
     style="fill:#363026" />
  <path
     inkscape:connector-curvature="0"
     class="cls-1"
     d="m 274.76409,85.119037 a 7.42,7.42 0 0 1 -5,-1.69 10.51,10.51 0 0 1 -3,-4.64 22.16,22.16 0 0 1 0,-13.29 10.52,10.52 0 0 1 3,-4.61 8.2,8.2 0 0 1 10,0 10.4,10.4 0 0 1 3,4.61 22.58,22.58 0 0 1 0,13.29 10.39,10.39 0 0 1 -3,4.64 7.43,7.43 0 0 1 -5,1.69 z m 0,-2.92 a 4.54,4.54 0 0 0 3.23,-1.22 7.63,7.63 0 0 0 2,-3.47 21.2,21.2 0 0 0 0,-10.73 7.59,7.59 0 0 0 -2,-3.46 4.93,4.93 0 0 0 -6.45,0 7.7,7.7 0 0 0 -2,3.46 20.62,20.62 0 0 0 0,10.73 7.74,7.74 0 0 0 2,3.47 4.54,4.54 0 0 0 3.22,1.22 z"
     id="path34-09-0"
     style="fill:#363026" />
  <path
     inkscape:connector-curvature="0"
     class="cls-1"
     d="m 105.49409,142.43904 a 1.57,1.57 0 0 1 -1,-0.38 1.21,1.21 0 0 1 -0.47,-1 1.57,1.57 0 0 1 0.15,-0.65 l 9.32,-21.24 0.4,0.65 h -11.64 a 1.33,1.33 0 0 1 -1.35,-1.36 1.27,1.27 0 0 1 0.39,-1 1.38,1.38 0 0 1 1,-0.38 h 13 a 1.5,1.5 0 0 1 1.08,0.38 1.32,1.32 0 0 1 0.4,1 1.57,1.57 0 0 1 -0.15,0.68 l -9.75,22.36 a 1.22,1.22 0 0 1 -0.53,0.67 1.55,1.55 0 0 1 -0.85,0.27 z"
     id="path36-1-6"
     style="fill:#363026" />
  <path
     inkscape:connector-curvature="0"
     class="cls-1"
     d="m 138.72409,142.68904 a 7.42,7.42 0 0 1 -5,-1.69 10.37,10.37 0 0 1 -3,-4.64 22.16,22.16 0 0 1 0,-13.29 10.43,10.43 0 0 1 3,-4.61 8.2,8.2 0 0 1 10,0 10.3,10.3 0 0 1 3,4.61 22.36,22.36 0 0 1 0,13.29 10.24,10.24 0 0 1 -3,4.64 7.45,7.45 0 0 1 -5,1.69 z m 0,-2.91 a 4.53,4.53 0 0 0 3.22,-1.23 7.64,7.64 0 0 0 2,-3.47 21.2,21.2 0 0 0 0,-10.73 7.51,7.51 0 0 0 -2,-3.45 4.89,4.89 0 0 0 -6.44,0 7.62,7.62 0 0 0 -2,3.45 20.91,20.91 0 0 0 0,10.73 7.75,7.75 0 0 0 2,3.47 4.54,4.54 0 0 0 3.22,1.23 z"
     id="path38-7-2"
     style="fill:#363026" />
  <path
     inkscape:connector-curvature="0"
     class="cls-1"
     d="m 170.26409,142.68904 a 7.45,7.45 0 0 1 -5,-1.69 10.35,10.35 0 0 1 -3,-4.64 21.95,21.95 0 0 1 0,-13.29 10.42,10.42 0 0 1 3,-4.61 8.2,8.2 0 0 1 10,0 10.24,10.24 0 0 1 3,4.61 22.36,22.36 0 0 1 0,13.29 10.17,10.17 0 0 1 -3,4.64 7.42,7.42 0 0 1 -5,1.69 z m 0,-2.91 a 4.54,4.54 0 0 0 3.22,-1.23 7.64,7.64 0 0 0 2,-3.47 21.5,21.5 0 0 0 0,-10.73 7.51,7.51 0 0 0 -2,-3.45 4.89,4.89 0 0 0 -6.44,0 7.62,7.62 0 0 0 -2,3.45 20.91,20.91 0 0 0 0,10.73 7.75,7.75 0 0 0 2,3.47 4.51,4.51 0 0 0 3.22,1.23 z"
     id="path40-7-6"
     style="fill:#363026" />
  <path
     inkscape:connector-curvature="0"
     class="cls-1"
     d="m 211.69409,142.68904 a 7.42,7.42 0 0 1 -5,-1.69 10.37,10.37 0 0 1 -3,-4.64 22.16,22.16 0 0 1 0,-13.29 10.43,10.43 0 0 1 3,-4.61 8.2,8.2 0 0 1 10,0 10.3,10.3 0 0 1 3,4.61 22.36,22.36 0 0 1 0,13.29 10.24,10.24 0 0 1 -3,4.64 7.45,7.45 0 0 1 -5,1.69 z m 0,-2.91 a 4.53,4.53 0 0 0 3.22,-1.23 7.55,7.55 0 0 0 2,-3.47 21.2,21.2 0 0 0 0,-10.73 7.43,7.43 0 0 0 -2,-3.45 4.89,4.89 0 0 0 -6.44,0 7.62,7.62 0 0 0 -2,3.45 20.91,20.91 0 0 0 0,10.73 7.75,7.75 0 0 0 2,3.47 4.54,4.54 0 0 0 3.22,1.23 z"
     id="path42-11-1"
     style="fill:#363026" />
  <path
     inkscape:connector-curvature="0"
     class="cls-1"
     d="m 243.23409,142.68904 a 7.45,7.45 0 0 1 -5,-1.69 10.35,10.35 0 0 1 -3,-4.64 21.95,21.95 0 0 1 0,-13.29 10.42,10.42 0 0 1 3,-4.61 8.2,8.2 0 0 1 10,0 10.24,10.24 0 0 1 3,4.61 22.36,22.36 0 0 1 0,13.29 10.17,10.17 0 0 1 -3,4.64 7.42,7.42 0 0 1 -5,1.69 z m 0,-2.91 a 4.54,4.54 0 0 0 3.22,-1.23 7.64,7.64 0 0 0 2,-3.47 21.5,21.5 0 0 0 0,-10.73 7.51,7.51 0 0 0 -2,-3.45 4.89,4.89 0 0 0 -6.44,0 7.62,7.62 0 0 0 -2,3.45 20.91,20.91 0 0 0 0,10.73 7.75,7.75 0 0 0 2,3.47 4.53,4.53 0 0 0 3.22,1.23 z"
     id="path44-5-8"
     style="fill:#363026" />
  <path
     inkscape:connector-curvature="0"
     class="cls-1"
     d="m 274.76409,142.68904 a 7.42,7.42 0 0 1 -5,-1.69 10.45,10.45 0 0 1 -3,-4.64 22.16,22.16 0 0 1 0,-13.29 10.52,10.52 0 0 1 3,-4.61 8.2,8.2 0 0 1 10,0 10.4,10.4 0 0 1 3,4.61 22.58,22.58 0 0 1 0,13.29 10.34,10.34 0 0 1 -3,4.64 7.43,7.43 0 0 1 -5,1.69 z m 0,-2.91 a 4.55,4.55 0 0 0 3.23,-1.23 7.63,7.63 0 0 0 2,-3.47 21.2,21.2 0 0 0 0,-10.73 7.5,7.5 0 0 0 -2,-3.45 4.9,4.9 0 0 0 -6.45,0 7.61,7.61 0 0 0 -2,3.45 20.62,20.62 0 0 0 0,10.73 7.74,7.74 0 0 0 2,3.47 4.54,4.54 0 0 0 3.22,1.23 z"
     id="path46-9-7"
     style="fill:#363026" />
  <path
     inkscape:connector-curvature="0"
     class="cls-1"
     d="m 142.61409,199.89904 a 1.37,1.37 0 0 1 -1,-0.43 1.47,1.47 0 0 1 -0.41,-1 v -19.73 l 0.58,0.21 -8.61,11.23 -0.14,-0.43 h 13.17 a 1.35,1.35 0 0 1 1.37,1.37 1.23,1.23 0 0 1 -0.39,0.92 1.38,1.38 0 0 1 -1,0.38 h -15.16 a 1.4,1.4 0 0 1 -1,-0.44 1.33,1.33 0 0 1 -0.45,-1 1.35,1.35 0 0 1 0.36,-0.94 l 11.48,-14.76 a 1.3,1.3 0 0 1 0.58,-0.45 1.84,1.84 0 0 1 0.65,-0.13 1.31,1.31 0 0 1 1,0.42 1.39,1.39 0 0 1 0.4,1 v 22.29 a 1.47,1.47 0 0 1 -0.41,1 1.37,1.37 0 0 1 -1.02,0.49 z"
     id="path48-7-9"
     style="fill:#363026" />
  <path
     inkscape:connector-curvature="0"
     class="cls-1"
     d="m 170.26409,200.25904 a 7.43,7.43 0 0 1 -5,-1.69 10.35,10.35 0 0 1 -3,-4.64 21.95,21.95 0 0 1 0,-13.29 10.33,10.33 0 0 1 3,-4.6 8.16,8.16 0 0 1 10,0 10.23,10.23 0 0 1 3,4.6 22.36,22.36 0 0 1 0,13.29 10.26,10.26 0 0 1 -3,4.64 7.42,7.42 0 0 1 -5,1.69 z m 0,-2.91 a 4.54,4.54 0 0 0 3.22,-1.23 7.73,7.73 0 0 0 2,-3.47 21.5,21.5 0 0 0 0,-10.73 7.6,7.6 0 0 0 -2,-3.45 4.9,4.9 0 0 0 -6.45,0 7.7,7.7 0 0 0 -2,3.45 20.91,20.91 0 0 0 0,10.73 7.83,7.83 0 0 0 2,3.47 4.55,4.55 0 0 0 3.23,1.23 z"
     id="path50-7-2"
     style="fill:#363026" />
  <path
     inkscape:connector-curvature="0"
     class="cls-1"
     d="m 211.69409,200.25904 a 7.42,7.42 0 0 1 -5,-1.69 10.37,10.37 0 0 1 -3,-4.64 22.16,22.16 0 0 1 0,-13.29 10.34,10.34 0 0 1 3,-4.6 8.16,8.16 0 0 1 10,0 10.21,10.21 0 0 1 3,4.6 22.36,22.36 0 0 1 0,13.29 10.24,10.24 0 0 1 -3,4.64 7.45,7.45 0 0 1 -5,1.69 z m 0,-2.91 a 4.53,4.53 0 0 0 3.21,-1.23 7.55,7.55 0 0 0 2,-3.47 21.2,21.2 0 0 0 0,-10.73 7.43,7.43 0 0 0 -2,-3.45 4.89,4.89 0 0 0 -6.44,0 7.62,7.62 0 0 0 -2,3.45 20.91,20.91 0 0 0 0,10.73 7.75,7.75 0 0 0 2,3.47 4.54,4.54 0 0 0 3.23,1.23 z"
     id="path52-6-0"
     style="fill:#363026" />
  <path
     inkscape:connector-curvature="0"
     class="cls-1"
     d="m 243.23409,200.25904 a 7.45,7.45 0 0 1 -5,-1.69 10.35,10.35 0 0 1 -3,-4.64 21.95,21.95 0 0 1 0,-13.29 10.33,10.33 0 0 1 3,-4.6 8.16,8.16 0 0 1 10,0 10.15,10.15 0 0 1 3,4.6 22.36,22.36 0 0 1 0,13.29 10.17,10.17 0 0 1 -3,4.64 7.42,7.42 0 0 1 -5,1.69 z m 0,-2.91 a 4.54,4.54 0 0 0 3.22,-1.23 7.64,7.64 0 0 0 2,-3.47 21.5,21.5 0 0 0 0,-10.73 7.51,7.51 0 0 0 -2,-3.45 4.89,4.89 0 0 0 -6.44,0 7.62,7.62 0 0 0 -2,3.45 20.91,20.91 0 0 0 0,10.73 7.75,7.75 0 0 0 2,3.47 4.53,4.53 0 0 0 3.22,1.23 z"
     id="path54-73-2"
     style="fill:#363026" />
  <path
     inkscape:connector-curvature="0"
     class="cls-1"
     d="m 274.76409,200.25904 a 7.42,7.42 0 0 1 -5,-1.69 10.45,10.45 0 0 1 -3,-4.64 22.16,22.16 0 0 1 0,-13.29 10.43,10.43 0 0 1 3,-4.6 8.16,8.16 0 0 1 10,0 10.31,10.31 0 0 1 3,4.6 22.58,22.58 0 0 1 0,13.29 10.34,10.34 0 0 1 -3,4.64 7.43,7.43 0 0 1 -5,1.69 z m 0,-2.91 a 4.55,4.55 0 0 0 3.23,-1.23 7.63,7.63 0 0 0 2,-3.47 21.2,21.2 0 0 0 0,-10.73 7.5,7.5 0 0 0 -2,-3.45 4.9,4.9 0 0 0 -6.45,0 7.61,7.61 0 0 0 -2,3.45 20.62,20.62 0 0 0 0,10.73 7.74,7.74 0 0 0 2,3.47 4.54,4.54 0 0 0 3.22,1.23 z"
     id="path56-6-3"
     style="fill:#363026" />
  <path
     inkscape:connector-curvature="0"
     class="cls-1"
     d="m 171.73409,255.83904 a 8,8 0 0 1 -3.61,-0.78 7.37,7.37 0 0 1 -2.61,-2.1 9.66,9.66 0 0 1 -1.59,-3 11,11 0 0 1 -0.54,-3.42 16.79,16.79 0 0 1 0.4,-3.46 22.23,22.23 0 0 1 1.2,-3.9 19.25,19.25 0 0 1 2.11,-3.84 16.34,16.34 0 0 1 3.1,-3.29 13.35,13.35 0 0 1 4.14,-2.25 2.46,2.46 0 0 1 0.57,-0.07 1.81,1.81 0 0 1 1,0.3 1.24,1.24 0 0 1 0.45,1.1 1.28,1.28 0 0 1 -0.33,0.88 1.87,1.87 0 0 1 -0.86,0.56 11.56,11.56 0 0 0 -2.83,1.57 14.82,14.82 0 0 0 -2.55,2.41 16.87,16.87 0 0 0 -2,3 11.8,11.8 0 0 0 -1.17,3.33 l -0.86,0.28 a 9,9 0 0 1 1.55,-1.83 7.66,7.66 0 0 1 2.17,-1.41 6.77,6.77 0 0 1 2.72,-0.54 6.44,6.44 0 0 1 2.95,0.69 8.15,8.15 0 0 1 2.42,1.83 8.65,8.65 0 0 1 1.63,2.65 8.27,8.27 0 0 1 0.6,3.11 8.05,8.05 0 0 1 -1.06,4 8.34,8.34 0 0 1 -2.88,3 7.63,7.63 0 0 1 -4.12,1.18 z m 0,-2.7 a 5,5 0 0 0 4.5,-2.65 5.83,5.83 0 0 0 0.67,-2.87 6.14,6.14 0 0 0 -0.61,-2.73 5.17,5.17 0 0 0 -1.75,-2 4.72,4.72 0 0 0 -2.71,-0.77 5.41,5.41 0 0 0 -2.92,0.76 5.06,5.06 0 0 0 -1.89,2 6.06,6.06 0 0 0 -0.67,2.83 5.63,5.63 0 0 0 0.65,2.66 5.05,5.05 0 0 0 1.86,2 5.28,5.28 0 0 0 2.84,0.77 z"
     id="path58-5-7"
     style="fill:#363026" />
  <path
     inkscape:connector-curvature="0"
     class="cls-1"
     d="m 211.69409,255.83904 a 7.43,7.43 0 0 1 -5,-1.7 10.31,10.31 0 0 1 -3,-4.64 22.12,22.12 0 0 1 0,-13.28 10.38,10.38 0 0 1 3,-4.61 8.2,8.2 0 0 1 10,0 10.25,10.25 0 0 1 3,4.61 22.33,22.33 0 0 1 0,13.28 10.19,10.19 0 0 1 -3,4.64 7.45,7.45 0 0 1 -5,1.7 z m 0,-2.92 a 4.56,4.56 0 0 0 3.22,-1.22 7.64,7.64 0 0 0 2,-3.48 18.32,18.32 0 0 0 0.69,-5.34 18.53,18.53 0 0 0 -0.69,-5.39 7.43,7.43 0 0 0 -2,-3.45 4.89,4.89 0 0 0 -6.44,0 7.62,7.62 0 0 0 -2,3.45 18.51,18.51 0 0 0 -0.7,5.39 18.29,18.29 0 0 0 0.7,5.34 7.85,7.85 0 0 0 2,3.48 4.58,4.58 0 0 0 3.22,1.22 z"
     id="path60-6-5"
     style="fill:#363026" />
  <path
     inkscape:connector-curvature="0"
     class="cls-1"
     d="m 243.23409,255.83904 a 7.45,7.45 0 0 1 -5,-1.7 10.3,10.3 0 0 1 -3,-4.64 21.92,21.92 0 0 1 0,-13.28 10.36,10.36 0 0 1 3,-4.61 8.2,8.2 0 0 1 10,0 10.18,10.18 0 0 1 3,4.61 22.33,22.33 0 0 1 0,13.28 10.12,10.12 0 0 1 -3,4.64 7.43,7.43 0 0 1 -5,1.7 z m 0,-2.92 a 4.58,4.58 0 0 0 3.22,-1.22 7.73,7.73 0 0 0 2,-3.48 18.69,18.69 0 0 0 0.68,-5.34 18.91,18.91 0 0 0 -0.68,-5.39 7.51,7.51 0 0 0 -2,-3.45 4.89,4.89 0 0 0 -6.44,0 7.62,7.62 0 0 0 -2,3.45 18.17,18.17 0 0 0 -0.7,5.39 18,18 0 0 0 0.7,5.34 7.85,7.85 0 0 0 2,3.48 4.56,4.56 0 0 0 3.22,1.22 z"
     id="path62-3-9"
     style="fill:#363026" />
  <path
     inkscape:connector-curvature="0"
     class="cls-1"
     d="m 274.76409,255.83904 a 7.43,7.43 0 0 1 -5,-1.7 10.39,10.39 0 0 1 -3,-4.64 22.12,22.12 0 0 1 0,-13.28 10.46,10.46 0 0 1 3,-4.61 8.2,8.2 0 0 1 10,0 10.35,10.35 0 0 1 3,4.61 22.54,22.54 0 0 1 0,13.28 10.28,10.28 0 0 1 -3,4.64 7.44,7.44 0 0 1 -5,1.7 z m 0,-2.92 a 4.59,4.59 0 0 0 3.23,-1.22 7.72,7.72 0 0 0 2,-3.48 18.32,18.32 0 0 0 0.69,-5.34 18.53,18.53 0 0 0 -0.69,-5.39 7.5,7.5 0 0 0 -2,-3.45 4.9,4.9 0 0 0 -6.45,0 7.61,7.61 0 0 0 -2,3.45 18.15,18.15 0 0 0 -0.71,5.39 17.94,17.94 0 0 0 0.71,5.34 7.84,7.84 0 0 0 2,3.48 4.58,4.58 0 0 0 3.22,1.22 z"
     id="path64-9-2"
     style="fill:#363026" />
  <path
     inkscape:connector-curvature="0"
     class="cls-1"
     d="m 211.69409,313.40904 a 7.47,7.47 0 0 1 -5,-1.69 10.49,10.49 0 0 1 -3,-4.65 22.12,22.12 0 0 1 0,-13.28 10.46,10.46 0 0 1 3,-4.61 8.2,8.2 0 0 1 10,0 10.35,10.35 0 0 1 3,4.61 22.54,22.54 0 0 1 0,13.28 10.37,10.37 0 0 1 -3,4.65 7.5,7.5 0 0 1 -5,1.69 z m 0,-2.92 a 4.6,4.6 0 0 0 3.23,-1.22 7.72,7.72 0 0 0 2,-3.48 21.16,21.16 0 0 0 0,-10.72 7.54,7.54 0 0 0 -2,-3.46 4.9,4.9 0 0 0 -6.45,0 7.56,7.56 0 0 0 -2,3.46 20.59,20.59 0 0 0 0,10.72 7.74,7.74 0 0 0 2,3.48 4.58,4.58 0 0 0 3.22,1.22 z"
     id="path66-4-2"
     style="fill:#363026" />
  <path
     inkscape:connector-curvature="0"
     class="cls-1"
     d="m 243.23409,313.40904 a 7.5,7.5 0 0 1 -5,-1.69 10.39,10.39 0 0 1 -3,-4.65 21.92,21.92 0 0 1 0,-13.28 10.36,10.36 0 0 1 3,-4.61 8.2,8.2 0 0 1 10,0 10.18,10.18 0 0 1 3,4.61 22.33,22.33 0 0 1 0,13.28 10.21,10.21 0 0 1 -3,4.65 7.47,7.47 0 0 1 -5,1.69 z m 0,-2.92 a 4.58,4.58 0 0 0 3.22,-1.22 7.73,7.73 0 0 0 2,-3.48 21.46,21.46 0 0 0 0,-10.72 7.55,7.55 0 0 0 -2,-3.46 4.89,4.89 0 0 0 -6.44,0 7.66,7.66 0 0 0 -2,3.46 20.87,20.87 0 0 0 0,10.72 7.85,7.85 0 0 0 2,3.48 4.56,4.56 0 0 0 3.22,1.22 z"
     id="path68-81-8"
     style="fill:#363026" />
  <path
     inkscape:connector-curvature="0"
     class="cls-1"
     d="m 274.76409,313.40904 a 7.47,7.47 0 0 1 -5,-1.69 10.49,10.49 0 0 1 -3,-4.65 22.12,22.12 0 0 1 0,-13.28 10.46,10.46 0 0 1 3,-4.61 8.2,8.2 0 0 1 10,0 10.35,10.35 0 0 1 3,4.61 22.54,22.54 0 0 1 0,13.28 10.37,10.37 0 0 1 -3,4.65 7.48,7.48 0 0 1 -5,1.69 z m 0,-2.92 a 4.59,4.59 0 0 0 3.23,-1.22 7.72,7.72 0 0 0 2,-3.48 21.16,21.16 0 0 0 0,-10.72 7.54,7.54 0 0 0 -2,-3.46 4.9,4.9 0 0 0 -6.45,0 7.65,7.65 0 0 0 -2,3.46 20.59,20.59 0 0 0 0,10.72 7.84,7.84 0 0 0 2,3.48 4.58,4.58 0 0 0 3.22,1.22 z"
     id="path70-2-9"
     style="fill:#363026" />
  <path
     inkscape:connector-curvature="0"
     class="cls-1"
     d="m 238.58409,366.43904 a 1.55,1.55 0 0 1 0.49,0.09 1.76,1.76 0 0 1 0.59,0.38 5.76,5.76 0 0 0 3.93,1.44 5.83,5.83 0 0 0 2.84,-0.7 5.62,5.62 0 0 0 2.11,-2 5.51,5.51 0 0 0 0.81,-3 5.16,5.16 0 0 0 -0.81,-3 5,5 0 0 0 -2,-1.73 6.35,6.35 0 0 0 -2.61,-0.56 6.79,6.79 0 0 0 -0.94,0.07 8.14,8.14 0 0 0 -0.81,0.18 2.66,2.66 0 0 1 -0.7,0.11 1.07,1.07 0 0 1 -0.9,-0.4 1.44,1.44 0 0 1 -0.33,-1 1.63,1.63 0 0 1 0.11,-0.59 1.88,1.88 0 0 1 0.36,-0.56 l 7.06,-7.78 0.57,0.69 h -10.27 a 1.37,1.37 0 0 1 -1.37,-1.37 1.24,1.24 0 0 1 0.4,-0.95 1.32,1.32 0 0 1 1,-0.38 h 11.74 a 1.39,1.39 0 0 1 1.15,0.45 1.55,1.55 0 0 1 0.36,1 1.18,1.18 0 0 1 -0.15,0.59 1.86,1.86 0 0 1 -0.39,0.52 l -7,7.82 -0.83,-0.72 a 2.1,2.1 0 0 1 0.83,-0.27 5.39,5.39 0 0 1 1.08,-0.13 7.42,7.42 0 0 1 3.71,1 7.32,7.32 0 0 1 2.7,2.74 8.11,8.11 0 0 1 1,4.1 8.34,8.34 0 0 1 -1.18,4.5 8,8 0 0 1 -3.26,2.95 10.17,10.17 0 0 1 -4.66,1.05 9.1,9.1 0 0 1 -2.83,-0.45 6.85,6.85 0 0 1 -2.39,-1.32 1.32,1.32 0 0 1 -0.63,-0.57 1.43,1.43 0 0 1 -0.17,-0.65 1.6,1.6 0 0 1 0.42,-1 1.26,1.26 0 0 1 0.97,-0.55 z"
     id="path72-9-7"
     style="fill:#363026" />
  <path
     inkscape:connector-curvature="0"
     class="cls-1"
     d="m 274.76409,370.97904 a 7.47,7.47 0 0 1 -5,-1.69 10.49,10.49 0 0 1 -3,-4.65 22.12,22.12 0 0 1 0,-13.28 10.46,10.46 0 0 1 3,-4.61 8.2,8.2 0 0 1 10,0 10.35,10.35 0 0 1 3,4.61 22.54,22.54 0 0 1 0,13.28 10.37,10.37 0 0 1 -3,4.65 7.48,7.48 0 0 1 -5,1.69 z m 0,-2.92 a 4.54,4.54 0 0 0 3.23,-1.22 7.72,7.72 0 0 0 2,-3.48 18.27,18.27 0 0 0 0.69,-5.34 18.46,18.46 0 0 0 -0.69,-5.38 7.59,7.59 0 0 0 -2,-3.46 4.9,4.9 0 0 0 -6.45,0 7.7,7.7 0 0 0 -2,3.46 18.08,18.08 0 0 0 -0.71,5.38 17.89,17.89 0 0 0 0.71,5.34 7.84,7.84 0 0 0 2,3.48 4.54,4.54 0 0 0 3.22,1.22 z"
     id="path74-39-3"
     style="fill:#363026" />
  <path
     inkscape:connector-curvature="0"
     class="cls-1"
     d="m 275.56409,402.55904 a 8.12,8.12 0 0 1 3.61,0.77 7.4,7.4 0 0 1 2.61,2.11 9.55,9.55 0 0 1 1.59,3 10.93,10.93 0 0 1 0.54,3.42 16.45,16.45 0 0 1 -0.4,3.43 21.17,21.17 0 0 1 -1.2,3.84 19.09,19.09 0 0 1 -2.11,3.74 15.74,15.74 0 0 1 -3.1,3.22 13.71,13.71 0 0 1 -4.14,2.22 1.84,1.84 0 0 1 -0.57,0.11 1.6,1.6 0 0 1 -1,-0.36 1.3,1.3 0 0 1 -0.45,-1.08 1.33,1.33 0 0 1 0.33,-0.89 1.86,1.86 0 0 1 0.86,-0.55 12.57,12.57 0 0 0 3.73,-2.22 15.58,15.58 0 0 0 3.09,-3.51 11.79,11.79 0 0 0 1.75,-4.28 l 0.86,-0.29 a 7.91,7.91 0 0 1 -3.69,3.2 6.82,6.82 0 0 1 -2.75,0.54 6.68,6.68 0 0 1 -2.95,-0.66 8,8 0 0 1 -2.42,-1.82 8.65,8.65 0 0 1 -1.63,-2.65 8.24,8.24 0 0 1 -0.6,-3.11 8.07,8.07 0 0 1 1.06,-4.07 8.5,8.5 0 0 1 2.9,-3 7.72,7.72 0 0 1 4.08,-1.11 z m 0,2.7 a 5,5 0 0 0 -2.64,0.7 5.15,5.15 0 0 0 -1.86,1.93 5.76,5.76 0 0 0 -0.68,2.84 6.19,6.19 0 0 0 0.61,2.72 5,5 0 0 0 1.76,2 4.77,4.77 0 0 0 2.7,0.76 5.41,5.41 0 0 0 2.92,-0.76 5.06,5.06 0 0 0 1.89,-2 6,6 0 0 0 0.67,-2.79 5.56,5.56 0 0 0 -0.65,-2.68 5.16,5.16 0 0 0 -1.86,-2 5.28,5.28 0 0 0 -2.83,-0.72 z"
     id="path76-0-6"
     style="fill:#363026" />
</svg>
