<?xml version="1.0" encoding="UTF-8" standalone="no"?>
<svg
   xmlns:dc="http://purl.org/dc/elements/1.1/"
   xmlns:cc="http://creativecommons.org/ns#"
   xmlns:rdf="http://www.w3.org/1999/02/22-rdf-syntax-ns#"
   xmlns:svg="http://www.w3.org/2000/svg"
   xmlns="http://www.w3.org/2000/svg"
   xmlns:sodipodi="http://sodipodi.sourceforge.net/DTD/sodipodi-0.dtd"
   xmlns:inkscape="http://www.inkscape.org/namespaces/inkscape"
   viewBox="0 0 283 49"
   version="1.1"
   id="svg26"
   sodipodi:docname="v3_glosa_1.svg"
   inkscape:version="0.92.3 (2405546, 2018-03-11)">
  <metadata
     id="metadata30">
    <rdf:RDF>
      <cc:Work
         rdf:about="">
        <dc:format>image/svg+xml</dc:format>
        <dc:type
           rdf:resource="http://purl.org/dc/dcmitype/StillImage" />
      </cc:Work>
    </rdf:RDF>
  </metadata>
  <sodipodi:namedview
     pagecolor="#ffffff"
     bordercolor="#666666"
     borderopacity="1"
     objecttolerance="10"
     gridtolerance="10"
     guidetolerance="10"
     inkscape:pageopacity="0"
     inkscape:pageshadow="2"
     inkscape:window-width="1600"
     inkscape:window-height="872"
     id="namedview28"
     showgrid="false"
     inkscape:zoom="2.3065815"
     inkscape:cx="100.31645"
     inkscape:cy="-42.059815"
     inkscape:window-x="1360"
     inkscape:window-y="0"
     inkscape:window-maximized="1"
     inkscape:current-layer="svg26" />
  <defs
     id="defs4">
    <style
       id="style2">.cls-1{fill:#363026;}.cls-2{fill:none;stroke:#1f8ebe;stroke-miterlimit:10;stroke-width:3px;}</style>
  </defs>
  <path
     class="cls-1"
     d="m 198.42,37.818712 a 7.42,7.42 0 0 1 -5,-1.69 10.32,10.32 0 0 1 -3,-4.65 20.13,20.13 0 0 1 -1,-6.62 20.08,20.08 0 0 1 1,-6.66 10.35,10.35 0 0 1 3,-4.61 8.2,8.2 0 0 1 10,0 10.3,10.3 0 0 1 3,4.61 20.35,20.35 0 0 1 1,6.66 20.4,20.4 0 0 1 -1,6.62 10.27,10.27 0 0 1 -3,4.65 7.47,7.47 0 0 1 -5,1.69 z m 0,-2.92 a 4.52,4.52 0 0 0 3.22,-1.22 7.7,7.7 0 0 0 2,-3.47 18.41,18.41 0 0 0 0.68,-5.35 18.48,18.48 0 0 0 -0.68,-5.38 7.6,7.6 0 0 0 -2,-3.46 4.92,4.92 0 0 0 -6.44,0 7.72,7.72 0 0 0 -2,3.46 18.1,18.1 0 0 0 -0.7,5.38 18,18 0 0 0 0.7,5.35 7.81,7.81 0 0 0 2,3.47 4.52,4.52 0 0 0 3.22,1.22 z"
     id="path16"
     inkscape:connector-curvature="0"
     style="fill:#363026" />
  <rect
     class="cls-2"
     x="1.5"
     y="1.5"
     width="280"
     height="46"
     rx="5.3600001"
     id="rect22"
     style="fill:none;stroke:#1f8ebe;stroke-width:3px;stroke-miterlimit:10" />
  <path
     class="cls-1"
     d="m 32.271998,37.431008 a 1.33,1.33 0 0 1 -1,-0.43 1.46,1.46 0 0 1 -0.42,-1 v -19.74 l 0.58,0.22 -8.63,11.23 -0.14,-0.43 h 13.18 a 1.33,1.33 0 0 1 1.36,1.37 1.21,1.21 0 0 1 -0.39,0.91 1.33,1.33 0 0 1 -1,0.38 h -15.13 a 1.39,1.39 0 0 1 -1,-0.43 1.35,1.35 0 0 1 -0.45,-1 1.32,1.32 0 0 1 0.36,-0.93 l 11.48,-14.72 a 1.3,1.3 0 0 1 0.58,-0.45 1.68,1.68 0 0 1 0.65,-0.13 1.36,1.36 0 0 1 1,0.41 1.45,1.45 0 0 1 0.39,1 v 22.26 a 1.49,1.49 0 0 1 -0.41,1 1.37,1.37 0 0 1 -1.01,0.48 z"
     id="path6-3"
     inkscape:connector-curvature="0"
     style="fill:#363026" />
  <path
     class="cls-1"
     d="m 48.778867,33.152474 a 1.54,1.54 0 0 1 0.48,0.09 1.84,1.84 0 0 1 0.6,0.37 5.68,5.68 0 0 0 1.69,1 6,6 0 0 0 2.23,0.39 5.83,5.83 0 0 0 2.84,-0.7 5.55,5.55 0 0 0 2.92,-5 5.17,5.17 0 0 0 -0.81,-3 4.89,4.89 0 0 0 -2,-1.73 6.35,6.35 0 0 0 -2.61,-0.56 5.49,5.49 0 0 0 -0.94,0.08 4.81,4.81 0 0 0 -0.81,0.18 2.57,2.57 0 0 1 -0.7,0.1 1.12,1.12 0 0 1 -0.9,-0.39 1.47,1.47 0 0 1 -0.32,-1 1.64,1.64 0 0 1 0.1,-0.6 2.61,2.61 0 0 1 0.36,-0.56 l 7.01,-7.67 0.58,0.68 h -10.23 a 1.33,1.33 0 0 1 -1,-0.39 1.36,1.36 0 0 1 -0.4,-1 1.28,1.28 0 0 1 0.4,-1 1.36,1.36 0 0 1 1,-0.38 h 11.74 a 1.38,1.38 0 0 1 1.15,0.45 1.55,1.55 0 0 1 0.36,1 1.36,1.36 0 0 1 -0.14,0.6 2.34,2.34 0 0 1 -0.4,0.52 l -7,7.81 -0.83,-0.72 a 2.1,2.1 0 0 1 0.83,-0.27 6.24,6.24 0 0 1 1.08,-0.13 7.32,7.32 0 0 1 3.71,1 7.15,7.15 0 0 1 2.7,2.73 8.17,8.17 0 0 1 1,4.1 8.35,8.35 0 0 1 -1.19,4.5 8,8 0 0 1 -3.26,3 10.27,10.27 0 0 1 -4.66,1 9.15,9.15 0 0 1 -2.79,-0.45 7,7 0 0 1 -2.39,-1.31 1.44,1.44 0 0 1 -0.63,-0.58 1.39,1.39 0 0 1 -0.16,-0.65 1.6,1.6 0 0 1 0.41,-1 1.27,1.27 0 0 1 0.98,-0.51 z"
     id="path22"
     inkscape:connector-curvature="0"
     style="fill:#363026" />
  <path
     class="cls-1"
     d="m 95.326576,37.537021 a 1.57,1.57 0 0 1 -1,-0.38 1.21,1.21 0 0 1 -0.47,-1 1.57,1.57 0 0 1 0.15,-0.65 l 9.320004,-21.24 0.4,0.65 H 92.086576 a 1.33,1.33 0 0 1 -1.35,-1.36 1.27,1.27 0 0 1 0.39,-1 1.38,1.38 0 0 1 1,-0.38 h 13.000004 a 1.5,1.5 0 0 1 1.08,0.38 1.32,1.32 0 0 1 0.4,1 1.57,1.57 0 0 1 -0.15,0.68 l -9.750004,22.36 a 1.22,1.22 0 0 1 -0.53,0.67 1.55,1.55 0 0 1 -0.85,0.27 z"
     id="path36"
     inkscape:connector-curvature="0"
     style="fill:#363026" />
  <path
     class="cls-1"
     d="m 131.13407,37.456238 a 1.37,1.37 0 0 1 -1,-0.43 1.47,1.47 0 0 1 -0.41,-1 V 16.296234 l 0.58,0.21 -8.61,11.230004 -0.14,-0.43 h 13.17 a 1.35,1.35 0 0 1 1.37,1.37 1.23,1.23 0 0 1 -0.39,0.92 1.38,1.38 0 0 1 -1,0.38 h -15.16 a 1.4,1.4 0 0 1 -1,-0.44 1.33,1.33 0 0 1 -0.45,-1 1.35,1.35 0 0 1 0.36,-0.94 l 11.48,-14.760004 a 1.3,1.3 0 0 1 0.58,-0.45 1.84,1.84 0 0 1 0.65,-0.13 1.31,1.31 0 0 1 1,0.42 1.39,1.39 0 0 1 0.4,1 v 22.290004 a 1.47,1.47 0 0 1 -0.41,1 1.37,1.37 0 0 1 -1.02,0.49 z"
     id="path48"
     inkscape:connector-curvature="0"
     style="fill:#363026" />
  <path
     class="cls-1"
     d="m 155.93053,37.910149 a 8,8 0 0 1 -3.61,-0.780001 7.37,7.37 0 0 1 -2.61,-2.1 9.66,9.66 0 0 1 -1.59,-3 11,11 0 0 1 -0.54,-3.42 16.79,16.79 0 0 1 0.4,-3.46 22.23,22.23 0 0 1 1.2,-3.9 19.25,19.25 0 0 1 2.11,-3.84 16.34,16.34 0 0 1 3.1,-3.29 13.35,13.35 0 0 1 4.14,-2.25 2.46,2.46 0 0 1 0.57,-0.07 1.81,1.81 0 0 1 1,0.3 1.24,1.24 0 0 1 0.45,1.1 1.28,1.28 0 0 1 -0.33,0.88 1.87,1.87 0 0 1 -0.86,0.56 11.56,11.56 0 0 0 -2.83,1.57 14.82,14.82 0 0 0 -2.55,2.41 16.87,16.87 0 0 0 -2,3 11.8,11.8 0 0 0 -1.17,3.33 l -0.86,0.28 a 9,9 0 0 1 1.55,-1.83 7.66,7.66 0 0 1 2.17,-1.41 6.77,6.77 0 0 1 2.72,-0.54 6.44,6.44 0 0 1 2.95,0.69 8.15,8.15 0 0 1 2.42,1.83 8.65,8.65 0 0 1 1.63,2.65 8.27,8.27 0 0 1 0.6,3.11 8.05,8.05 0 0 1 -1.06,4 8.34,8.34 0 0 1 -2.88,3 7.63,7.63 0 0 1 -4.12,1.180001 z m 0,-2.700001 a 5,5 0 0 0 4.5,-2.65 5.83,5.83 0 0 0 0.67,-2.87 6.14,6.14 0 0 0 -0.61,-2.73 5.17,5.17 0 0 0 -1.75,-2 4.72,4.72 0 0 0 -2.71,-0.77 5.41,5.41 0 0 0 -2.92,0.76 5.06,5.06 0 0 0 -1.89,2 6.06,6.06 0 0 0 -0.67,2.83 5.63,5.63 0 0 0 0.65,2.66 5.05,5.05 0 0 0 1.86,2 5.28,5.28 0 0 0 2.84,0.77 z"
     id="path58"
     inkscape:connector-curvature="0"
     style="fill:#363026" />
  <path
     class="cls-1"
     d="m 221.68952,33.118 a 1.55,1.55 0 0 1 0.49,0.09 1.76,1.76 0 0 1 0.59,0.38 5.76,5.76 0 0 0 3.93,1.44 5.83,5.83 0 0 0 2.84,-0.7 5.62,5.62 0 0 0 2.11,-2 5.51,5.51 0 0 0 0.81,-3 5.16,5.16 0 0 0 -0.81,-3 5,5 0 0 0 -2,-1.73 6.35,6.35 0 0 0 -2.61,-0.56 6.79,6.79 0 0 0 -0.94,0.07 8.14,8.14 0 0 0 -0.81,0.18 2.66,2.66 0 0 1 -0.7,0.11 1.07,1.07 0 0 1 -0.9,-0.4 1.44,1.44 0 0 1 -0.33,-1 1.63,1.63 0 0 1 0.11,-0.59 1.88,1.88 0 0 1 0.36,-0.56 l 7.06,-7.78 0.57,0.69 h -10.27 a 1.37,1.37 0 0 1 -1.37,-1.37 1.24,1.24 0 0 1 0.4,-0.95 1.32,1.32 0 0 1 1,-0.38 h 11.74 a 1.39,1.39 0 0 1 1.15,0.45 1.55,1.55 0 0 1 0.36,1 1.18,1.18 0 0 1 -0.15,0.59 1.86,1.86 0 0 1 -0.39,0.52 l -7,7.82 -0.83,-0.72 a 2.1,2.1 0 0 1 0.83,-0.27 5.39,5.39 0 0 1 1.08,-0.13 7.42,7.42 0 0 1 3.71,1 7.32,7.32 0 0 1 2.7,2.74 8.11,8.11 0 0 1 1,4.1 8.34,8.34 0 0 1 -1.18,4.5 8,8 0 0 1 -3.26,2.95 10.17,10.17 0 0 1 -4.66,1.05 9.1,9.1 0 0 1 -2.83,-0.45 6.85,6.85 0 0 1 -2.39,-1.32 1.32,1.32 0 0 1 -0.63,-0.57 1.43,1.43 0 0 1 -0.17,-0.65 1.6,1.6 0 0 1 0.42,-1 1.26,1.26 0 0 1 0.97,-0.55 z"
     id="path72"
     inkscape:connector-curvature="0"
     style="fill:#363026" />
  <path
     class="cls-1"
     d="m 255.85864,11.926703 a 8.12,8.12 0 0 1 3.61,0.77 7.4,7.4 0 0 1 2.61,2.11 9.55,9.55 0 0 1 1.59,3 10.93,10.93 0 0 1 0.54,3.42 16.45,16.45 0 0 1 -0.4,3.43 21.17,21.17 0 0 1 -1.2,3.84 19.09,19.09 0 0 1 -2.11,3.74 15.74,15.74 0 0 1 -3.1,3.22 13.71,13.71 0 0 1 -4.14,2.22 1.84,1.84 0 0 1 -0.57,0.11 1.6,1.6 0 0 1 -1,-0.36 1.3,1.3 0 0 1 -0.45,-1.08 1.33,1.33 0 0 1 0.33,-0.89 1.86,1.86 0 0 1 0.86,-0.55 12.57,12.57 0 0 0 3.73,-2.22 15.58,15.58 0 0 0 3.09,-3.51 11.79,11.79 0 0 0 1.75,-4.28 l 0.86,-0.29 a 7.91,7.91 0 0 1 -3.69,3.2 6.82,6.82 0 0 1 -2.75,0.54 6.68,6.68 0 0 1 -2.95,-0.66 8,8 0 0 1 -2.42,-1.82 8.65,8.65 0 0 1 -1.63,-2.65 8.24,8.24 0 0 1 -0.6,-3.11 8.07,8.07 0 0 1 1.06,-4.07 8.5,8.5 0 0 1 2.9,-3 7.72,7.72 0 0 1 4.08,-1.11 z m 0,2.7 a 5,5 0 0 0 -2.64,0.7 5.15,5.15 0 0 0 -1.86,1.93 5.76,5.76 0 0 0 -0.68,2.84 6.19,6.19 0 0 0 0.61,2.72 5,5 0 0 0 1.76,2 4.77,4.77 0 0 0 2.7,0.76 5.41,5.41 0 0 0 2.92,-0.76 5.06,5.06 0 0 0 1.89,-2 6,6 0 0 0 0.67,-2.79 5.56,5.56 0 0 0 -0.65,-2.68 5.16,5.16 0 0 0 -1.86,-2 5.28,5.28 0 0 0 -2.83,-0.72 z"
     id="path76"
     inkscape:connector-curvature="0"
     style="fill:#363026" />
</svg>
