<?xml version="1.0" encoding="UTF-8" standalone="no"?>
<svg
   xmlns:dc="http://purl.org/dc/elements/1.1/"
   xmlns:cc="http://creativecommons.org/ns#"
   xmlns:rdf="http://www.w3.org/1999/02/22-rdf-syntax-ns#"
   xmlns:svg="http://www.w3.org/2000/svg"
   xmlns="http://www.w3.org/2000/svg"
   xmlns:sodipodi="http://sodipodi.sourceforge.net/DTD/sodipodi-0.dtd"
   xmlns:inkscape="http://www.inkscape.org/namespaces/inkscape"
   viewBox="0 0 283 448"
   version="1.1"
   id="svg396"
   sodipodi:docname="V4.svg"
   inkscape:version="0.92.3 (2405546, 2018-03-11)">
  <metadata
     id="metadata400">
    <rdf:RDF>
      <cc:Work
         rdf:about="">
        <dc:format>image/svg+xml</dc:format>
        <dc:type
           rdf:resource="http://purl.org/dc/dcmitype/StillImage" />
      </cc:Work>
    </rdf:RDF>
  </metadata>
  <sodipodi:namedview
     pagecolor="#ffffff"
     bordercolor="#666666"
     borderopacity="1"
     objecttolerance="10"
     gridtolerance="10"
     guidetolerance="10"
     inkscape:pageopacity="0"
     inkscape:pageshadow="2"
     inkscape:window-width="1295"
     inkscape:window-height="713"
     id="namedview398"
     showgrid="false"
     inkscape:zoom="1.1358817"
     inkscape:cx="141.5"
     inkscape:cy="224"
     inkscape:window-x="65"
     inkscape:window-y="27"
     inkscape:window-maximized="1"
     inkscape:current-layer="svg396" />
  <defs
     id="defs304">
    <style
       id="style302">.cls-1{fill:#363026;}.cls-2{fill:none;stroke:#1f8ebe;stroke-miterlimit:10;stroke-width:3px;}</style>
  </defs>
  <path
     class="cls-1"
     d="m 15.67,33.39 a 1.6,1.6 0 0 1 0.49,0.09 1.76,1.76 0 0 1 0.59,0.38 5.89,5.89 0 0 0 1.69,1 6,6 0 0 0 2.23,0.39 5.87,5.87 0 0 0 2.85,-0.7 5.69,5.69 0 0 0 2.11,-2 5.51,5.51 0 0 0 0.81,-3 5.16,5.16 0 0 0 -0.81,-3 5,5 0 0 0 -2.06,-1.73 6.28,6.28 0 0 0 -2.57,-0.5 6.64,6.64 0 0 0 -0.93,0.07 8.14,8.14 0 0 0 -0.81,0.18 2.37,2.37 0 0 1 -0.71,0.11 1.08,1.08 0 0 1 -0.89,-0.39 1.49,1.49 0 0 1 -0.33,-1 1.63,1.63 0 0 1 0.11,-0.59 1.88,1.88 0 0 1 0.36,-0.56 l 7,-7.77 0.58,0.68 H 15.17 a 1.37,1.37 0 0 1 -1.37,-1.35 1.24,1.24 0 0 1 0.4,-0.95 1.34,1.34 0 0 1 1,-0.38 h 11.7 a 1.38,1.38 0 0 1 1.15,0.45 1.56,1.56 0 0 1 0.37,1 1.18,1.18 0 0 1 -0.15,0.59 2.67,2.67 0 0 1 -0.39,0.53 l -7,7.81 L 20,22 a 2,2 0 0 1 0.83,-0.27 5.39,5.39 0 0 1 1.08,-0.13 7.38,7.38 0 0 1 3.7,1 7.18,7.18 0 0 1 2.7,2.74 8.14,8.14 0 0 1 1,4.1 8.26,8.26 0 0 1 -1.19,4.5 7.92,7.92 0 0 1 -3.26,3 10.27,10.27 0 0 1 -4.66,1 9,9 0 0 1 -2.82,-0.45 7,7 0 0 1 -2.38,-1.32 1.44,1.44 0 0 1 -0.63,-0.58 1.56,1.56 0 0 1 -0.16,-0.65 1.63,1.63 0 0 1 0.41,-1 1.28,1.28 0 0 1 1.05,-0.55 z"
     id="path306"
     inkscape:connector-curvature="0"
     style="fill:#363026" />
  <path
     class="cls-1"
     d="m 51.85,37.93 a 7.42,7.42 0 0 1 -5,-1.69 10.32,10.32 0 0 1 -3,-4.65 20.13,20.13 0 0 1 -1,-6.62 20.08,20.08 0 0 1 1,-6.66 10.35,10.35 0 0 1 3,-4.61 8.2,8.2 0 0 1 10,0 10.3,10.3 0 0 1 3,4.61 20.35,20.35 0 0 1 1,6.66 20.4,20.4 0 0 1 -1,6.62 10.27,10.27 0 0 1 -3,4.65 7.47,7.47 0 0 1 -5,1.69 z m 0,-2.92 a 4.52,4.52 0 0 0 3.22,-1.22 7.7,7.7 0 0 0 2,-3.47 18.41,18.41 0 0 0 0.68,-5.32 18.48,18.48 0 0 0 -0.68,-5.38 7.6,7.6 0 0 0 -2,-3.46 4.92,4.92 0 0 0 -6.44,0 7.72,7.72 0 0 0 -2,3.46 18.1,18.1 0 0 0 -0.7,5.38 18,18 0 0 0 0.7,5.35 7.81,7.81 0 0 0 2,3.47 4.52,4.52 0 0 0 3.22,1.18 z"
     id="path308"
     inkscape:connector-curvature="0"
     style="fill:#363026" />
  <path
     class="cls-1"
     d="m 93.29,37.93 a 7.43,7.43 0 0 1 -5,-1.69 10.39,10.39 0 0 1 -3,-4.65 19.87,19.87 0 0 1 -1,-6.62 19.82,19.82 0 0 1 1,-6.66 10.42,10.42 0 0 1 3,-4.61 8.2,8.2 0 0 1 10,0 10.32,10.32 0 0 1 3,4.61 20.35,20.35 0 0 1 1,6.66 20.4,20.4 0 0 1 -1,6.62 10.29,10.29 0 0 1 -3,4.65 7.42,7.42 0 0 1 -5,1.69 z m 0,-2.92 a 4.54,4.54 0 0 0 3.22,-1.22 7.79,7.79 0 0 0 2,-3.47 18.76,18.76 0 0 0 0.68,-5.32 18.83,18.83 0 0 0 -0.68,-5.38 7.69,7.69 0 0 0 -2,-3.46 4.93,4.93 0 0 0 -6.45,0 7.8,7.8 0 0 0 -2,3.46 18.1,18.1 0 0 0 -0.7,5.38 18,18 0 0 0 0.7,5.35 7.89,7.89 0 0 0 2,3.47 4.54,4.54 0 0 0 3.23,1.18 z"
     id="path310"
     inkscape:connector-curvature="0"
     style="fill:#363026" />
  <path
     class="cls-1"
     d="m 124.82,37.93 a 7.42,7.42 0 0 1 -5,-1.69 10.4,10.4 0 0 1 -3,-4.65 20.13,20.13 0 0 1 -1,-6.62 20.08,20.08 0 0 1 1,-6.66 10.43,10.43 0 0 1 3,-4.61 8.2,8.2 0 0 1 10,0 10.3,10.3 0 0 1 3,4.61 20.09,20.09 0 0 1 1,6.66 20.14,20.14 0 0 1 -1,6.62 10.27,10.27 0 0 1 -3,4.65 7.45,7.45 0 0 1 -5,1.69 z m 0,-2.92 a 4.52,4.52 0 0 0 3.18,-1.22 7.61,7.61 0 0 0 2,-3.47 18.39,18.39 0 0 0 0.69,-5.35 18.46,18.46 0 0 0 -0.69,-5.38 7.52,7.52 0 0 0 -2,-3.46 4.92,4.92 0 0 0 -6.44,0 7.72,7.72 0 0 0 -2,3.46 18.44,18.44 0 0 0 -0.7,5.38 18.37,18.37 0 0 0 0.7,5.35 7.81,7.81 0 0 0 2,3.47 4.54,4.54 0 0 0 3.26,1.21 z"
     id="path312"
     inkscape:connector-curvature="0"
     style="fill:#363026" />
  <path
     class="cls-1"
     d="m 156.36,37.93 a 7.45,7.45 0 0 1 -5,-1.69 10.39,10.39 0 0 1 -3,-4.65 19.87,19.87 0 0 1 -1,-6.62 19.82,19.82 0 0 1 1,-6.66 10.42,10.42 0 0 1 3,-4.61 8.2,8.2 0 0 1 10,0 10.24,10.24 0 0 1 3,4.61 20.35,20.35 0 0 1 1,6.66 20.4,20.4 0 0 1 -1,6.62 10.21,10.21 0 0 1 -3,4.65 7.42,7.42 0 0 1 -5,1.69 z m 0,-2.92 a 4.54,4.54 0 0 0 3.22,-1.22 7.7,7.7 0 0 0 2,-3.47 18.76,18.76 0 0 0 0.68,-5.35 18.83,18.83 0 0 0 -0.68,-5.38 7.6,7.6 0 0 0 -2,-3.46 4.93,4.93 0 0 0 -6.45,0 7.8,7.8 0 0 0 -2,3.46 18.1,18.1 0 0 0 -0.7,5.38 18,18 0 0 0 0.7,5.35 7.89,7.89 0 0 0 2,3.47 4.54,4.54 0 0 0 3.23,1.21 z"
     id="path314"
     inkscape:connector-curvature="0"
     style="fill:#363026" />
  <path
     class="cls-1"
     d="m 197.79,37.93 a 7.42,7.42 0 0 1 -5,-1.69 10.4,10.4 0 0 1 -3,-4.65 20.13,20.13 0 0 1 -1,-6.62 20.08,20.08 0 0 1 1,-6.66 10.43,10.43 0 0 1 3,-4.61 8.2,8.2 0 0 1 10,0 10.4,10.4 0 0 1 3,4.61 20.36,20.36 0 0 1 1,6.66 20.41,20.41 0 0 1 -1,6.62 10.37,10.37 0 0 1 -3,4.65 7.43,7.43 0 0 1 -5,1.69 z m 0,-2.92 a 4.56,4.56 0 0 0 3.21,-1.22 7.69,7.69 0 0 0 2,-3.47 18.39,18.39 0 0 0 0.7,-5.32 18.46,18.46 0 0 0 -0.69,-5.38 7.59,7.59 0 0 0 -2,-3.46 4.93,4.93 0 0 0 -6.45,0 7.81,7.81 0 0 0 -2,3.46 18.44,18.44 0 0 0 -0.7,5.38 18.37,18.37 0 0 0 0.7,5.35 7.9,7.9 0 0 0 2,3.47 4.54,4.54 0 0 0 3.23,1.18 z"
     id="path316"
     inkscape:connector-curvature="0"
     style="fill:#363026" />
  <path
     class="cls-1"
     d="m 229.33,37.93 a 7.45,7.45 0 0 1 -5,-1.69 10.39,10.39 0 0 1 -3,-4.65 19.87,19.87 0 0 1 -1,-6.62 19.82,19.82 0 0 1 1,-6.66 10.42,10.42 0 0 1 3,-4.61 8.2,8.2 0 0 1 10,0 10.24,10.24 0 0 1 3,4.61 20.35,20.35 0 0 1 1,6.66 20.4,20.4 0 0 1 -1,6.62 10.21,10.21 0 0 1 -3,4.65 7.42,7.42 0 0 1 -5,1.69 z m 0,-2.92 a 4.54,4.54 0 0 0 3.22,-1.22 7.7,7.7 0 0 0 2,-3.47 18.76,18.76 0 0 0 0.68,-5.35 18.83,18.83 0 0 0 -0.68,-5.38 7.6,7.6 0 0 0 -2,-3.46 4.92,4.92 0 0 0 -6.44,0 7.72,7.72 0 0 0 -2,3.46 18.1,18.1 0 0 0 -0.7,5.38 18,18 0 0 0 0.7,5.35 7.81,7.81 0 0 0 2,3.47 4.52,4.52 0 0 0 3.22,1.21 z"
     id="path318"
     inkscape:connector-curvature="0"
     style="fill:#363026" />
  <path
     class="cls-1"
     d="m 260.86,37.93 a 7.42,7.42 0 0 1 -5,-1.69 10.49,10.49 0 0 1 -3,-4.65 20.13,20.13 0 0 1 -1,-6.62 20.08,20.08 0 0 1 1,-6.66 10.52,10.52 0 0 1 3,-4.61 8.2,8.2 0 0 1 10,0 10.4,10.4 0 0 1 3,4.61 20.36,20.36 0 0 1 1,6.66 20.41,20.41 0 0 1 -1,6.62 10.37,10.37 0 0 1 -3,4.65 7.43,7.43 0 0 1 -5,1.69 z m 0,-2.92 a 4.54,4.54 0 0 0 3.23,-1.22 7.69,7.69 0 0 0 2,-3.47 18.39,18.39 0 0 0 0.69,-5.35 18.46,18.46 0 0 0 -0.69,-5.38 7.59,7.59 0 0 0 -2,-3.46 4.93,4.93 0 0 0 -6.45,0 7.7,7.7 0 0 0 -2,3.46 18.08,18.08 0 0 0 -0.71,5.38 18,18 0 0 0 0.71,5.35 7.8,7.8 0 0 0 2,3.47 4.54,4.54 0 0 0 3.22,1.21 z"
     id="path320"
     inkscape:connector-curvature="0"
     style="fill:#363026" />
  <path
     class="cls-1"
     d="m 55.74,95.14 a 1.37,1.37 0 0 1 -1,-0.43 1.48,1.48 0 0 1 -0.41,-1 V 74 l 0.58,0.22 -8.64,11.2 L 46.13,85 H 59.3 a 1.35,1.35 0 0 1 1.37,1.37 1.21,1.21 0 0 1 -0.39,0.91 1.34,1.34 0 0 1 -1,0.38 H 44.15 a 1.39,1.39 0 0 1 -1,-0.43 1.35,1.35 0 0 1 -0.45,-1 1.32,1.32 0 0 1 0.36,-0.93 L 54.55,70.52 a 1.3,1.3 0 0 1 0.58,-0.45 1.64,1.64 0 0 1 0.65,-0.13 1.34,1.34 0 0 1 1,0.41 1.42,1.42 0 0 1 0.4,1 v 22.32 a 1.45,1.45 0 0 1 -0.42,1 1.33,1.33 0 0 1 -1.02,0.47 z"
     id="path322"
     inkscape:connector-curvature="0"
     style="fill:#363026" />
  <path
     class="cls-1"
     d="m 93.29,95.5 a 7.43,7.43 0 0 1 -5,-1.69 10.41,10.41 0 0 1 -3,-4.64 21.95,21.95 0 0 1 0,-13.29 10.42,10.42 0 0 1 3,-4.61 8.2,8.2 0 0 1 10,0 10.32,10.32 0 0 1 3,4.61 22.36,22.36 0 0 1 0,13.29 10.31,10.31 0 0 1 -3,4.64 7.42,7.42 0 0 1 -5,1.69 z m 0,-2.92 a 4.54,4.54 0 0 0 3.22,-1.22 7.73,7.73 0 0 0 2,-3.47 21.5,21.5 0 0 0 0,-10.73 7.69,7.69 0 0 0 -2,-3.46 4.93,4.93 0 0 0 -6.45,0 7.8,7.8 0 0 0 -2,3.46 20.91,20.91 0 0 0 0,10.73 7.83,7.83 0 0 0 2,3.47 4.54,4.54 0 0 0 3.23,1.22 z"
     id="path324"
     inkscape:connector-curvature="0"
     style="fill:#363026" />
  <path
     class="cls-1"
     d="m 124.82,95.5 a 7.42,7.42 0 0 1 -5,-1.69 10.42,10.42 0 0 1 -3,-4.64 22.16,22.16 0 0 1 0,-13.29 10.43,10.43 0 0 1 3,-4.61 8.2,8.2 0 0 1 10,0 10.3,10.3 0 0 1 3,4.61 22.36,22.36 0 0 1 0,13.29 10.29,10.29 0 0 1 -3,4.64 7.45,7.45 0 0 1 -5,1.69 z m 0,-2.92 a 4.52,4.52 0 0 0 3.18,-1.22 7.55,7.55 0 0 0 2,-3.47 21.2,21.2 0 0 0 0,-10.73 7.52,7.52 0 0 0 -2,-3.46 4.92,4.92 0 0 0 -6.44,0 7.72,7.72 0 0 0 -2,3.46 20.91,20.91 0 0 0 0,10.73 7.75,7.75 0 0 0 2,3.47 4.54,4.54 0 0 0 3.26,1.22 z"
     id="path326"
     inkscape:connector-curvature="0"
     style="fill:#363026" />
  <path
     class="cls-1"
     d="m 156.36,95.5 a 7.45,7.45 0 0 1 -5,-1.69 10.41,10.41 0 0 1 -3,-4.64 21.95,21.95 0 0 1 0,-13.29 10.42,10.42 0 0 1 3,-4.61 8.2,8.2 0 0 1 10,0 10.24,10.24 0 0 1 3,4.61 22.36,22.36 0 0 1 0,13.29 10.23,10.23 0 0 1 -3,4.64 7.42,7.42 0 0 1 -5,1.69 z m 0,-2.92 a 4.54,4.54 0 0 0 3.22,-1.22 7.64,7.64 0 0 0 2,-3.47 21.5,21.5 0 0 0 0,-10.73 7.6,7.6 0 0 0 -2,-3.46 4.93,4.93 0 0 0 -6.45,0 7.8,7.8 0 0 0 -2,3.46 20.91,20.91 0 0 0 0,10.73 7.83,7.83 0 0 0 2,3.47 4.54,4.54 0 0 0 3.23,1.22 z"
     id="path328"
     inkscape:connector-curvature="0"
     style="fill:#363026" />
  <path
     class="cls-1"
     d="m 197.79,95.5 a 7.42,7.42 0 0 1 -5,-1.69 10.42,10.42 0 0 1 -3,-4.64 22.16,22.16 0 0 1 0,-13.29 10.43,10.43 0 0 1 3,-4.61 8.2,8.2 0 0 1 10,0 10.4,10.4 0 0 1 3,4.61 22.58,22.58 0 0 1 0,13.29 10.39,10.39 0 0 1 -3,4.64 7.43,7.43 0 0 1 -5,1.69 z m 0,-2.92 a 4.56,4.56 0 0 0 3.21,-1.22 7.63,7.63 0 0 0 2,-3.47 21.2,21.2 0 0 0 0,-10.73 7.59,7.59 0 0 0 -2,-3.46 4.93,4.93 0 0 0 -6.45,0 7.81,7.81 0 0 0 -2,3.46 20.91,20.91 0 0 0 0,10.73 7.85,7.85 0 0 0 2,3.47 4.54,4.54 0 0 0 3.24,1.22 z"
     id="path330"
     inkscape:connector-curvature="0"
     style="fill:#363026" />
  <path
     class="cls-1"
     d="m 229.33,95.5 a 7.45,7.45 0 0 1 -5,-1.69 10.41,10.41 0 0 1 -3,-4.64 21.95,21.95 0 0 1 0,-13.29 10.42,10.42 0 0 1 3,-4.61 8.2,8.2 0 0 1 10,0 10.24,10.24 0 0 1 3,4.61 22.36,22.36 0 0 1 0,13.29 10.23,10.23 0 0 1 -3,4.64 7.42,7.42 0 0 1 -5,1.69 z m 0,-2.92 a 4.54,4.54 0 0 0 3.22,-1.22 7.64,7.64 0 0 0 2,-3.47 21.5,21.5 0 0 0 0,-10.73 7.6,7.6 0 0 0 -2,-3.46 4.92,4.92 0 0 0 -6.44,0 7.72,7.72 0 0 0 -2,3.46 20.91,20.91 0 0 0 0,10.73 7.75,7.75 0 0 0 2,3.47 4.52,4.52 0 0 0 3.22,1.22 z"
     id="path332"
     inkscape:connector-curvature="0"
     style="fill:#363026" />
  <path
     class="cls-1"
     d="m 260.86,95.5 a 7.42,7.42 0 0 1 -5,-1.69 10.51,10.51 0 0 1 -3,-4.64 22.16,22.16 0 0 1 0,-13.29 10.52,10.52 0 0 1 3,-4.61 8.2,8.2 0 0 1 10,0 10.4,10.4 0 0 1 3,4.61 22.58,22.58 0 0 1 0,13.29 10.39,10.39 0 0 1 -3,4.64 7.43,7.43 0 0 1 -5,1.69 z m 0,-2.92 a 4.54,4.54 0 0 0 3.23,-1.22 7.63,7.63 0 0 0 2,-3.47 21.2,21.2 0 0 0 0,-10.73 7.59,7.59 0 0 0 -2,-3.46 4.93,4.93 0 0 0 -6.45,0 7.7,7.7 0 0 0 -2,3.46 20.62,20.62 0 0 0 0,10.73 7.74,7.74 0 0 0 2,3.47 4.54,4.54 0 0 0 3.22,1.22 z"
     id="path334"
     inkscape:connector-curvature="0"
     style="fill:#363026" />
  <path
     class="cls-1"
     d="m 94.76,153.07 a 8.17,8.17 0 0 1 -3.62,-0.77 7.58,7.58 0 0 1 -2.61,-2.11 9.68,9.68 0 0 1 -1.58,-3 11,11 0 0 1 -0.54,-3.43 16.7,16.7 0 0 1 0.4,-3.45 22.33,22.33 0 0 1 1.2,-3.91 18.69,18.69 0 0 1 2.11,-3.83 16.33,16.33 0 0 1 3.09,-3.3 13.35,13.35 0 0 1 4.14,-2.27 3.36,3.36 0 0 1 0.58,-0.07 1.84,1.84 0 0 1 1,0.31 1.23,1.23 0 0 1 0.45,1.1 1.3,1.3 0 0 1 -0.33,0.88 1.87,1.87 0 0 1 -0.86,0.56 11.86,11.86 0 0 0 -2.83,1.56 15.63,15.63 0 0 0 -2.55,2.41 17.06,17.06 0 0 0 -2,3 12,12 0 0 0 -1.17,3.33 l -0.86,0.29 a 9,9 0 0 1 1.54,-1.84 7.91,7.91 0 0 1 2.18,-1.4 6.77,6.77 0 0 1 2.72,-0.54 6.56,6.56 0 0 1 3,0.68 8.14,8.14 0 0 1 2.41,1.84 8.49,8.49 0 0 1 1.64,2.65 8.24,8.24 0 0 1 0.6,3.11 8,8 0 0 1 -1.07,4 8.25,8.25 0 0 1 -2.88,3 7.65,7.65 0 0 1 -4.16,1.2 z m 0,-2.7 a 5,5 0 0 0 2.64,-0.7 5.18,5.18 0 0 0 1.86,-1.94 5.83,5.83 0 0 0 0.68,-2.83 6.14,6.14 0 0 0 -0.61,-2.73 5.17,5.17 0 0 0 -1.75,-2 4.73,4.73 0 0 0 -2.72,-0.77 5.46,5.46 0 0 0 -2.91,0.75 5.15,5.15 0 0 0 -1.89,2 5.93,5.93 0 0 0 -0.67,2.82 5.67,5.67 0 0 0 0.65,2.67 5.24,5.24 0 0 0 1.85,2 5.34,5.34 0 0 0 2.84,0.73 z"
     id="path336"
     inkscape:connector-curvature="0"
     style="fill:#363026" />
  <path
     class="cls-1"
     d="m 124.82,153.07 a 7.42,7.42 0 0 1 -5,-1.69 10.37,10.37 0 0 1 -3,-4.64 22.16,22.16 0 0 1 0,-13.29 10.43,10.43 0 0 1 3,-4.61 8.2,8.2 0 0 1 10,0 10.3,10.3 0 0 1 3,4.61 22.36,22.36 0 0 1 0,13.29 10.24,10.24 0 0 1 -3,4.64 7.45,7.45 0 0 1 -5,1.69 z m 0,-2.91 a 4.53,4.53 0 0 0 3.22,-1.23 7.64,7.64 0 0 0 2,-3.47 21.2,21.2 0 0 0 0,-10.73 7.6,7.6 0 0 0 -2,-3.46 4.92,4.92 0 0 0 -6.44,0 7.72,7.72 0 0 0 -2,3.46 20.91,20.91 0 0 0 0,10.73 7.75,7.75 0 0 0 2,3.47 4.53,4.53 0 0 0 3.22,1.23 z"
     id="path338"
     inkscape:connector-curvature="0"
     style="fill:#363026" />
  <path
     class="cls-1"
     d="m 156.36,153.07 a 7.45,7.45 0 0 1 -5,-1.69 10.35,10.35 0 0 1 -3,-4.64 21.95,21.95 0 0 1 0,-13.29 10.42,10.42 0 0 1 3,-4.61 8.2,8.2 0 0 1 10,0 10.24,10.24 0 0 1 3,4.61 22.36,22.36 0 0 1 0,13.29 10.17,10.17 0 0 1 -3,4.64 7.42,7.42 0 0 1 -5,1.69 z m 0,-2.91 a 4.54,4.54 0 0 0 3.22,-1.23 7.64,7.64 0 0 0 2,-3.47 21.5,21.5 0 0 0 0,-10.73 7.6,7.6 0 0 0 -2,-3.46 4.93,4.93 0 0 0 -6.45,0 7.8,7.8 0 0 0 -2,3.46 20.91,20.91 0 0 0 0,10.73 7.83,7.83 0 0 0 2,3.47 4.55,4.55 0 0 0 3.23,1.23 z"
     id="path340"
     inkscape:connector-curvature="0"
     style="fill:#363026" />
  <path
     class="cls-1"
     d="m 197.79,153.07 a 7.42,7.42 0 0 1 -5,-1.69 10.37,10.37 0 0 1 -3,-4.64 22.16,22.16 0 0 1 0,-13.29 10.43,10.43 0 0 1 3,-4.61 8.2,8.2 0 0 1 10,0 10.4,10.4 0 0 1 3,4.61 22.58,22.58 0 0 1 0,13.29 10.34,10.34 0 0 1 -3,4.64 7.43,7.43 0 0 1 -5,1.69 z m 0,-2.91 a 4.57,4.57 0 0 0 3.23,-1.23 7.63,7.63 0 0 0 2,-3.47 21.2,21.2 0 0 0 0,-10.73 7.59,7.59 0 0 0 -2,-3.46 4.93,4.93 0 0 0 -6.45,0 7.81,7.81 0 0 0 -2,3.46 20.91,20.91 0 0 0 0,10.73 7.85,7.85 0 0 0 2,3.47 4.54,4.54 0 0 0 3.22,1.23 z"
     id="path342"
     inkscape:connector-curvature="0"
     style="fill:#363026" />
  <path
     class="cls-1"
     d="m 229.33,153.07 a 7.45,7.45 0 0 1 -5,-1.69 10.35,10.35 0 0 1 -3,-4.64 21.95,21.95 0 0 1 0,-13.29 10.42,10.42 0 0 1 3,-4.61 8.2,8.2 0 0 1 10,0 10.24,10.24 0 0 1 3,4.61 22.36,22.36 0 0 1 0,13.29 10.17,10.17 0 0 1 -3,4.64 7.42,7.42 0 0 1 -5,1.69 z m 0,-2.91 a 4.54,4.54 0 0 0 3.22,-1.23 7.64,7.64 0 0 0 2,-3.47 21.5,21.5 0 0 0 0,-10.73 7.6,7.6 0 0 0 -2,-3.46 4.92,4.92 0 0 0 -6.44,0 7.72,7.72 0 0 0 -2,3.46 20.91,20.91 0 0 0 0,10.73 7.75,7.75 0 0 0 2,3.47 4.53,4.53 0 0 0 3.22,1.23 z"
     id="path344"
     inkscape:connector-curvature="0"
     style="fill:#363026" />
  <path
     class="cls-1"
     d="m 260.86,153.07 a 7.42,7.42 0 0 1 -5,-1.69 10.45,10.45 0 0 1 -3,-4.64 22.16,22.16 0 0 1 0,-13.29 10.52,10.52 0 0 1 3,-4.61 8.2,8.2 0 0 1 10,0 10.4,10.4 0 0 1 3,4.61 22.58,22.58 0 0 1 0,13.29 10.34,10.34 0 0 1 -3,4.64 7.43,7.43 0 0 1 -5,1.69 z m 0,-2.91 a 4.55,4.55 0 0 0 3.23,-1.23 7.63,7.63 0 0 0 2,-3.47 21.2,21.2 0 0 0 0,-10.73 7.59,7.59 0 0 0 -2,-3.46 4.93,4.93 0 0 0 -6.45,0 7.7,7.7 0 0 0 -2,3.46 20.62,20.62 0 0 0 0,10.73 7.74,7.74 0 0 0 2,3.47 4.54,4.54 0 0 0 3.22,1.23 z"
     id="path346"
     inkscape:connector-curvature="0"
     style="fill:#363026" />
  <path
     class="cls-1"
     d="m 120.18,206.11 a 1.54,1.54 0 0 1 0.48,0.09 1.73,1.73 0 0 1 0.6,0.38 5.65,5.65 0 0 0 1.69,1 6.22,6.22 0 0 0 5.08,-0.31 5.54,5.54 0 0 0 2.91,-5 5.17,5.17 0 0 0 -0.81,-3 5,5 0 0 0 -2,-1.73 6.34,6.34 0 0 0 -2.61,-0.55 5.53,5.53 0 0 0 -0.94,0.07 q -0.42,0.07 -0.81,0.18 a 2.6,2.6 0 0 1 -0.7,0.11 1.12,1.12 0 0 1 -0.9,-0.4 1.51,1.51 0 0 1 -0.32,-1 1.46,1.46 0 0 1 0.11,-0.6 1.85,1.85 0 0 1 0.36,-0.55 l 7,-7.78 0.58,0.68 h -10.23 a 1.33,1.33 0 0 1 -1,-0.39 1.34,1.34 0 0 1 -0.39,-1 1.27,1.27 0 0 1 0.39,-1 1.36,1.36 0 0 1 1,-0.38 h 11.74 a 1.38,1.38 0 0 1 1.15,0.45 1.55,1.55 0 0 1 0.36,1 1.33,1.33 0 0 1 -0.14,0.6 2.34,2.34 0 0 1 -0.4,0.52 l -7,7.81 -0.83,-0.72 a 2.5,2.5 0 0 1 0.83,-0.27 6.09,6.09 0 0 1 1.08,-0.12 7.26,7.26 0 0 1 6.41,3.7 8.18,8.18 0 0 1 1,4.11 8.35,8.35 0 0 1 -1.19,4.5 8,8 0 0 1 -3.26,2.95 10.14,10.14 0 0 1 -4.66,1 9.15,9.15 0 0 1 -2.83,-0.45 6.84,6.84 0 0 1 -2.39,-1.31 1.44,1.44 0 0 1 -0.63,-0.58 1.38,1.38 0 0 1 -0.16,-0.64 1.68,1.68 0 0 1 0.41,-1 1.3,1.3 0 0 1 1.02,-0.37 z"
     id="path348"
     inkscape:connector-curvature="0"
     style="fill:#363026" />
  <path
     class="cls-1"
     d="m 156.36,210.64 a 7.45,7.45 0 0 1 -5,-1.69 10.35,10.35 0 0 1 -3,-4.64 21.95,21.95 0 0 1 0,-13.29 10.33,10.33 0 0 1 3,-4.6 8.16,8.16 0 0 1 10,0 10.15,10.15 0 0 1 3,4.6 22.36,22.36 0 0 1 0,13.29 10.17,10.17 0 0 1 -3,4.64 7.42,7.42 0 0 1 -5,1.69 z m 0,-2.91 a 4.54,4.54 0 0 0 3.22,-1.23 7.64,7.64 0 0 0 2,-3.47 21.5,21.5 0 0 0 0,-10.73 7.51,7.51 0 0 0 -2,-3.45 4.9,4.9 0 0 0 -6.45,0 7.7,7.7 0 0 0 -2,3.45 20.91,20.91 0 0 0 0,10.73 7.83,7.83 0 0 0 2,3.47 4.55,4.55 0 0 0 3.23,1.23 z"
     id="path350"
     inkscape:connector-curvature="0"
     style="fill:#363026" />
  <path
     class="cls-1"
     d="m 197.79,210.64 a 7.42,7.42 0 0 1 -5,-1.69 10.37,10.37 0 0 1 -3,-4.64 22.16,22.16 0 0 1 0,-13.29 10.34,10.34 0 0 1 3,-4.6 8.16,8.16 0 0 1 10,0 10.31,10.31 0 0 1 3,4.6 22.58,22.58 0 0 1 0,13.29 10.34,10.34 0 0 1 -3,4.64 7.43,7.43 0 0 1 -5,1.69 z m 0,-2.91 a 4.57,4.57 0 0 0 3.21,-1.23 7.63,7.63 0 0 0 2,-3.47 21.2,21.2 0 0 0 0,-10.73 7.5,7.5 0 0 0 -2,-3.45 4.9,4.9 0 0 0 -6.45,0 7.71,7.71 0 0 0 -2,3.45 20.91,20.91 0 0 0 0,10.73 7.85,7.85 0 0 0 2,3.47 4.54,4.54 0 0 0 3.24,1.23 z"
     id="path352"
     inkscape:connector-curvature="0"
     style="fill:#363026" />
  <path
     class="cls-1"
     d="m 229.33,210.64 a 7.45,7.45 0 0 1 -5,-1.69 10.35,10.35 0 0 1 -3,-4.64 21.95,21.95 0 0 1 0,-13.29 10.33,10.33 0 0 1 3,-4.6 8.16,8.16 0 0 1 10,0 10.15,10.15 0 0 1 3,4.6 22.36,22.36 0 0 1 0,13.29 10.17,10.17 0 0 1 -3,4.64 7.42,7.42 0 0 1 -5,1.69 z m 0,-2.91 a 4.54,4.54 0 0 0 3.22,-1.23 7.64,7.64 0 0 0 2,-3.47 21.5,21.5 0 0 0 0,-10.73 7.51,7.51 0 0 0 -2,-3.45 4.89,4.89 0 0 0 -6.44,0 7.62,7.62 0 0 0 -2,3.45 20.91,20.91 0 0 0 0,10.73 7.75,7.75 0 0 0 2,3.47 4.53,4.53 0 0 0 3.22,1.23 z"
     id="path354"
     inkscape:connector-curvature="0"
     style="fill:#363026" />
  <path
     class="cls-1"
     d="m 260.86,210.64 a 7.42,7.42 0 0 1 -5,-1.69 10.45,10.45 0 0 1 -3,-4.64 22.16,22.16 0 0 1 0,-13.29 10.43,10.43 0 0 1 3,-4.6 8.16,8.16 0 0 1 10,0 10.31,10.31 0 0 1 3,4.6 22.58,22.58 0 0 1 0,13.29 10.34,10.34 0 0 1 -3,4.64 7.43,7.43 0 0 1 -5,1.69 z m 0,-2.91 a 4.55,4.55 0 0 0 3.23,-1.23 7.63,7.63 0 0 0 2,-3.47 21.2,21.2 0 0 0 0,-10.73 7.5,7.5 0 0 0 -2,-3.45 4.9,4.9 0 0 0 -6.45,0 7.61,7.61 0 0 0 -2,3.45 20.62,20.62 0 0 0 0,10.73 7.74,7.74 0 0 0 2,3.47 4.54,4.54 0 0 0 3.22,1.23 z"
     id="path356"
     inkscape:connector-curvature="0"
     style="fill:#363026" />
  <path
     class="cls-1"
     d="m 155.28,266 a 10.2,10.2 0 0 1 -2.94,-0.45 7.71,7.71 0 0 1 -2.61,-1.35 1.86,1.86 0 0 1 -0.46,-0.65 1.79,1.79 0 0 1 -0.18,-0.75 1.33,1.33 0 0 1 1.36,-1.26 1.83,1.83 0 0 1 1.08,0.46 6.63,6.63 0 0 0 1.77,1 5.54,5.54 0 0 0 1.94,0.36 7.07,7.07 0 0 0 3.39,-0.8 5.84,5.84 0 0 0 3.16,-5.29 5.6,5.6 0 0 0 -0.73,-2.9 5.09,5.09 0 0 0 -2.06,-1.92 6.32,6.32 0 0 0 -3,-0.69 6.47,6.47 0 0 0 -2.27,0.38 12.43,12.43 0 0 0 -1.73,0.78 2.64,2.64 0 0 1 -1.19,0.39 1.77,1.77 0 0 1 -1.08,-0.3 1.47,1.47 0 0 1 -0.52,-0.78 2,2 0 0 1 -0.05,-0.86 l 1.4,-9.54 a 1.48,1.48 0 0 1 0.51,-0.81 1.4,1.4 0 0 1 1,-0.34 h 10.69 a 1.33,1.33 0 0 1 1,0.39 1.39,1.39 0 0 1 0,1.95 1.33,1.33 0 0 1 -1,0.39 h -10 l 0.36,-0.32 -1.33,8.31 -0.58,-0.75 a 4.57,4.57 0 0 1 1.21,-0.72 10,10 0 0 1 1.87,-0.61 9.29,9.29 0 0 1 2.18,-0.26 8.27,8.27 0 0 1 4.19,1.07 7.82,7.82 0 0 1 2.93,2.89 8.18,8.18 0 0 1 1.08,4.22 8.39,8.39 0 0 1 -2.68,6.3 9,9 0 0 1 -3,1.83 10.46,10.46 0 0 1 -3.71,0.63 z"
     id="path358"
     inkscape:connector-curvature="0"
     style="fill:#363026" />
  <path
     class="cls-1"
     d="m 197.79,266.22 a 7.43,7.43 0 0 1 -5,-1.7 10.31,10.31 0 0 1 -3,-4.64 22.12,22.12 0 0 1 0,-13.28 10.38,10.38 0 0 1 3,-4.61 8.2,8.2 0 0 1 10,0 10.35,10.35 0 0 1 3,4.61 22.54,22.54 0 0 1 0,13.28 10.28,10.28 0 0 1 -3,4.64 7.44,7.44 0 0 1 -5,1.7 z m 0,-2.92 a 4.6,4.6 0 0 0 3.23,-1.22 7.72,7.72 0 0 0 2,-3.48 18.32,18.32 0 0 0 0.69,-5.34 18.53,18.53 0 0 0 -0.69,-5.39 7.5,7.5 0 0 0 -2,-3.45 4.9,4.9 0 0 0 -6.45,0 7.71,7.71 0 0 0 -2,3.45 18.51,18.51 0 0 0 -0.7,5.39 18.29,18.29 0 0 0 0.7,5.34 7.94,7.94 0 0 0 2,3.48 4.58,4.58 0 0 0 3.22,1.22 z"
     id="path360"
     inkscape:connector-curvature="0"
     style="fill:#363026" />
  <path
     class="cls-1"
     d="m 229.33,266.22 a 7.45,7.45 0 0 1 -5,-1.7 10.3,10.3 0 0 1 -3,-4.64 21.92,21.92 0 0 1 0,-13.28 10.36,10.36 0 0 1 3,-4.61 8.2,8.2 0 0 1 10,0 10.18,10.18 0 0 1 3,4.61 22.33,22.33 0 0 1 0,13.28 10.12,10.12 0 0 1 -3,4.64 7.43,7.43 0 0 1 -5,1.7 z m 0,-2.92 a 4.58,4.58 0 0 0 3.22,-1.22 7.73,7.73 0 0 0 2,-3.48 18.69,18.69 0 0 0 0.68,-5.34 18.91,18.91 0 0 0 -0.68,-5.39 7.51,7.51 0 0 0 -2,-3.45 4.89,4.89 0 0 0 -6.44,0 7.62,7.62 0 0 0 -2,3.45 18.17,18.17 0 0 0 -0.7,5.39 18,18 0 0 0 0.7,5.34 7.85,7.85 0 0 0 2,3.48 4.56,4.56 0 0 0 3.22,1.22 z"
     id="path362"
     inkscape:connector-curvature="0"
     style="fill:#363026" />
  <path
     class="cls-1"
     d="m 260.86,266.22 a 7.43,7.43 0 0 1 -5,-1.7 10.39,10.39 0 0 1 -3,-4.64 22.12,22.12 0 0 1 0,-13.28 10.46,10.46 0 0 1 3,-4.61 8.2,8.2 0 0 1 10,0 10.35,10.35 0 0 1 3,4.61 22.54,22.54 0 0 1 0,13.28 10.28,10.28 0 0 1 -3,4.64 7.44,7.44 0 0 1 -5,1.7 z m 0,-2.92 a 4.59,4.59 0 0 0 3.23,-1.22 7.72,7.72 0 0 0 2,-3.48 18.32,18.32 0 0 0 0.69,-5.34 18.53,18.53 0 0 0 -0.69,-5.39 7.5,7.5 0 0 0 -2,-3.45 4.9,4.9 0 0 0 -6.45,0 7.61,7.61 0 0 0 -2,3.45 18.15,18.15 0 0 0 -0.71,5.39 17.94,17.94 0 0 0 0.71,5.34 7.84,7.84 0 0 0 2,3.48 4.58,4.58 0 0 0 3.22,1.22 z"
     id="path364"
     inkscape:connector-curvature="0"
     style="fill:#363026" />
  <path
     class="cls-1"
     d="m 197.79,323.79 a 7.47,7.47 0 0 1 -5,-1.69 10.4,10.4 0 0 1 -3,-4.65 22.12,22.12 0 0 1 0,-13.28 10.38,10.38 0 0 1 3,-4.61 8.2,8.2 0 0 1 10,0 10.35,10.35 0 0 1 3,4.61 22.54,22.54 0 0 1 0,13.28 10.37,10.37 0 0 1 -3,4.65 7.48,7.48 0 0 1 -5,1.69 z m 0,-2.92 a 4.6,4.6 0 0 0 3.23,-1.22 7.72,7.72 0 0 0 2,-3.48 21.16,21.16 0 0 0 0,-10.72 7.54,7.54 0 0 0 -2,-3.46 4.9,4.9 0 0 0 -6.45,0 7.75,7.75 0 0 0 -2,3.46 20.87,20.87 0 0 0 0,10.72 7.94,7.94 0 0 0 2,3.48 4.58,4.58 0 0 0 3.22,1.22 z"
     id="path366"
     inkscape:connector-curvature="0"
     style="fill:#363026" />
  <path
     class="cls-1"
     d="m 229.33,323.79 a 7.5,7.5 0 0 1 -5,-1.69 10.39,10.39 0 0 1 -3,-4.65 21.92,21.92 0 0 1 0,-13.28 10.36,10.36 0 0 1 3,-4.61 8.2,8.2 0 0 1 10,0 10.18,10.18 0 0 1 3,4.61 22.33,22.33 0 0 1 0,13.28 10.21,10.21 0 0 1 -3,4.65 7.47,7.47 0 0 1 -5,1.69 z m 0,-2.92 a 4.58,4.58 0 0 0 3.22,-1.22 7.73,7.73 0 0 0 2,-3.48 21.46,21.46 0 0 0 0,-10.72 7.55,7.55 0 0 0 -2,-3.46 4.89,4.89 0 0 0 -6.44,0 7.66,7.66 0 0 0 -2,3.46 20.87,20.87 0 0 0 0,10.72 7.85,7.85 0 0 0 2,3.48 4.56,4.56 0 0 0 3.22,1.22 z"
     id="path368"
     inkscape:connector-curvature="0"
     style="fill:#363026" />
  <path
     class="cls-1"
     d="m 260.86,323.79 a 7.47,7.47 0 0 1 -5,-1.69 10.49,10.49 0 0 1 -3,-4.65 22.12,22.12 0 0 1 0,-13.28 10.46,10.46 0 0 1 3,-4.61 8.2,8.2 0 0 1 10,0 10.35,10.35 0 0 1 3,4.61 22.54,22.54 0 0 1 0,13.28 10.37,10.37 0 0 1 -3,4.65 7.48,7.48 0 0 1 -5,1.69 z m 0,-2.92 a 4.59,4.59 0 0 0 3.23,-1.22 7.72,7.72 0 0 0 2,-3.48 21.16,21.16 0 0 0 0,-10.72 7.54,7.54 0 0 0 -2,-3.46 4.9,4.9 0 0 0 -6.45,0 7.65,7.65 0 0 0 -2,3.46 20.59,20.59 0 0 0 0,10.72 7.84,7.84 0 0 0 2,3.48 4.58,4.58 0 0 0 3.22,1.22 z"
     id="path370"
     inkscape:connector-curvature="0"
     style="fill:#363026" />
  <path
     class="cls-1"
     d="m 237.32,378.3 a 1.35,1.35 0 0 1 1.37,1.37 1.24,1.24 0 0 1 -0.4,0.95 1.36,1.36 0 0 1 -1,0.38 h -13.04 a 1.53,1.53 0 0 1 -1.06,-0.38 1.3,1.3 0 0 1 -0.41,-1 1.49,1.49 0 0 1 0.43,-1 l 8.13,-8.89 a 18.82,18.82 0 0 0 2.7,-3.51 6.37,6.37 0 0 0 0.96,-3.22 5,5 0 0 0 -0.63,-2.55 4.36,4.36 0 0 0 -1.75,-1.68 5.75,5.75 0 0 0 -5.38,0.16 5.3,5.3 0 0 0 -2.07,2.34 1.5,1.5 0 0 1 -0.56,0.56 1.28,1.28 0 0 1 -0.63,0.16 1.53,1.53 0 0 1 -1,-0.37 1.13,1.13 0 0 1 -0.46,-0.89 1.32,1.32 0 0 1 0.23,-0.75 7.69,7.69 0 0 1 0.56,-0.76 7.56,7.56 0 0 1 3,-2.77 8.27,8.27 0 0 1 3.86,-1 8.79,8.79 0 0 1 4.19,0.93 6.5,6.5 0 0 1 2.64,2.62 7.72,7.72 0 0 1 0.92,3.8 8.71,8.71 0 0 1 -0.48,2.79 12.79,12.79 0 0 1 -1.5,2.94 25.25,25.25 0 0 1 -2.55,3.16 l -6.3,7 -0.36,-0.36 z"
     id="path372"
     inkscape:connector-curvature="0"
     style="fill:#363026" />
  <path
     class="cls-1"
     d="m 260.86,381.36 a 7.47,7.47 0 0 1 -5,-1.69 10.49,10.49 0 0 1 -3,-4.65 22.12,22.12 0 0 1 0,-13.28 10.46,10.46 0 0 1 3,-4.61 8.2,8.2 0 0 1 10,0 10.35,10.35 0 0 1 3,4.61 22.54,22.54 0 0 1 0,13.28 10.37,10.37 0 0 1 -3,4.65 7.48,7.48 0 0 1 -5,1.69 z m 0,-2.92 a 4.54,4.54 0 0 0 3.23,-1.22 7.69,7.69 0 0 0 2,-3.47 21.2,21.2 0 0 0 0,-10.73 7.54,7.54 0 0 0 -2,-3.46 4.9,4.9 0 0 0 -6.45,0 7.65,7.65 0 0 0 -2,3.46 20.62,20.62 0 0 0 0,10.73 7.8,7.8 0 0 0 2,3.47 4.54,4.54 0 0 0 3.22,1.22 z"
     id="path374"
     inkscape:connector-curvature="0"
     style="fill:#363026" />
  <path
     class="cls-1"
     d="m 264.93,425.86 -0.07,-0.5 a 7.91,7.91 0 0 1 2.27,1.47 7.45,7.45 0 0 1 1.6,2.15 5.75,5.75 0 0 1 0.59,2.61 6.44,6.44 0 0 1 -1.06,3.58 7.73,7.73 0 0 1 -2.88,2.61 8.42,8.42 0 0 1 -4.05,1 8.31,8.31 0 0 1 -4,-1 7.75,7.75 0 0 1 -2.86,-2.61 6.44,6.44 0 0 1 -1.06,-3.58 5.94,5.94 0 0 1 0.66,-2.85 7.5,7.5 0 0 1 1.69,-2.09 9.22,9.22 0 0 1 2.15,-1.36 l -0.18,0.57 a 6.13,6.13 0 0 1 -1.79,-1.17 6.23,6.23 0 0 1 -1.38,-1.87 5.6,5.6 0 0 1 -0.54,-2.5 6.6,6.6 0 0 1 1,-3.53 7,7 0 0 1 2.66,-2.5 7.7,7.7 0 0 1 3.71,-0.92 7.53,7.53 0 0 1 3.71,0.92 7.15,7.15 0 0 1 2.65,2.5 6.53,6.53 0 0 1 1,3.53 5.5,5.5 0 0 1 -0.58,2.57 6.28,6.28 0 0 1 -1.42,1.84 6.94,6.94 0 0 1 -1.82,1.13 z m -3.6,10.19 a 5.21,5.21 0 0 0 3.66,-1.3 4.34,4.34 0 0 0 0.73,-5.56 4.8,4.8 0 0 0 -1.83,-1.62 5.58,5.58 0 0 0 -2.56,-0.59 5.5,5.5 0 0 0 -2.52,0.59 4.8,4.8 0 0 0 -1.83,1.62 4.34,4.34 0 0 0 0.73,5.56 5.16,5.16 0 0 0 3.62,1.3 z m -4.43,-15.7 a 4.23,4.23 0 0 0 0.6,2.27 4.12,4.12 0 0 0 1.62,1.53 4.56,4.56 0 0 0 2.21,0.56 4.41,4.41 0 0 0 3.82,-2.09 4.15,4.15 0 0 0 0.61,-2.27 4.08,4.08 0 0 0 -1.24,-3.07 4.8,4.8 0 0 0 -6.37,0 4.09,4.09 0 0 0 -1.25,3.07 z"
     id="path376"
     inkscape:connector-curvature="0"
     style="fill:#363026" />
  <rect
     class="cls-2"
     x="1.5"
     y="1.5"
     width="280"
     height="46"
     rx="5.3600001"
     id="rect378"
     style="fill:none;stroke:#1f8ebe;stroke-width:3px;stroke-miterlimit:10" />
  <rect
     class="cls-2"
     x="35.5"
     y="58.5"
     width="246"
     height="46"
     rx="5.3600001"
     id="rect380"
     style="fill:none;stroke:#1f8ebe;stroke-width:3px;stroke-miterlimit:10" />
  <rect
     class="cls-2"
     x="76.5"
     y="115.5"
     width="205"
     height="46"
     rx="5.3600001"
     id="rect382"
     style="fill:none;stroke:#1f8ebe;stroke-width:3px;stroke-miterlimit:10" />
  <rect
     class="cls-2"
     x="107.5"
     y="172.5"
     width="174"
     height="46"
     rx="5.3600001"
     id="rect384"
     style="fill:none;stroke:#1f8ebe;stroke-width:3px;stroke-miterlimit:10" />
  <rect
     class="cls-2"
     x="136.5"
     y="229.5"
     width="145"
     height="46"
     rx="5.3600001"
     id="rect386"
     style="fill:none;stroke:#1f8ebe;stroke-width:3px;stroke-miterlimit:10" />
  <rect
     class="cls-2"
     x="178.5"
     y="286.5"
     width="103"
     height="46"
     rx="5.3600001"
     id="rect388"
     style="fill:none;stroke:#1f8ebe;stroke-width:3px;stroke-miterlimit:10" />
  <rect
     class="cls-2"
     x="206.5"
     y="343.5"
     width="75"
     height="46"
     rx="5.3600001"
     id="rect390"
     style="fill:none;stroke:#1f8ebe;stroke-width:3px;stroke-miterlimit:10" />
  <rect
     class="cls-2"
     x="240.5"
     y="400.5"
     width="41"
     height="46"
     rx="5.3600001"
     id="rect392"
     style="fill:none;stroke:#1f8ebe;stroke-width:3px;stroke-miterlimit:10" />
</svg>
