<?xml version="1.0" encoding="UTF-8" standalone="no"?>
<svg
   xmlns:dc="http://purl.org/dc/elements/1.1/"
   xmlns:cc="http://creativecommons.org/ns#"
   xmlns:rdf="http://www.w3.org/1999/02/22-rdf-syntax-ns#"
   xmlns:svg="http://www.w3.org/2000/svg"
   xmlns="http://www.w3.org/2000/svg"
   xmlns:sodipodi="http://sodipodi.sourceforge.net/DTD/sodipodi-0.dtd"
   xmlns:inkscape="http://www.inkscape.org/namespaces/inkscape"
   viewBox="0 0 283 448"
   version="1.1"
   id="svg496"
   sodipodi:docname="V5.svg"
   inkscape:version="0.92.3 (2405546, 2018-03-11)">
  <metadata
     id="metadata500">
    <rdf:RDF>
      <cc:Work
         rdf:about="">
        <dc:format>image/svg+xml</dc:format>
        <dc:type
           rdf:resource="http://purl.org/dc/dcmitype/StillImage" />
      </cc:Work>
    </rdf:RDF>
  </metadata>
  <sodipodi:namedview
     pagecolor="#ffffff"
     bordercolor="#666666"
     borderopacity="1"
     objecttolerance="10"
     gridtolerance="10"
     guidetolerance="10"
     inkscape:pageopacity="0"
     inkscape:pageshadow="2"
     inkscape:window-width="640"
     inkscape:window-height="660"
     id="namedview498"
     showgrid="false"
     inkscape:zoom="1.006243"
     inkscape:cx="141.5"
     inkscape:cy="44.047751"
     inkscape:window-x="636"
     inkscape:window-y="27"
     inkscape:window-maximized="0"
     inkscape:current-layer="svg496" />
  <defs
     id="defs404">
    <style
       id="style402">.cls-1{fill:#363026;}.cls-2{fill:none;stroke:#1f8ebe;stroke-miterlimit:10;stroke-width:3px;}</style>
  </defs>
  <path
     class="cls-1"
     d="m 28.31,34.87 a 1.35,1.35 0 0 1 1.36,1.37 1.27,1.27 0 0 1 -0.39,0.95 1.38,1.38 0 0 1 -1,0.38 H 15.24 a 1.51,1.51 0 0 1 -1.06,-0.38 1.3,1.3 0 0 1 -0.42,-1 1.5,1.5 0 0 1 0.44,-1.05 l 8.13,-8.89 A 18.82,18.82 0 0 0 25,22.72 6.44,6.44 0 0 0 26,19.53 5,5 0 0 0 25.34,17 4.42,4.42 0 0 0 23.59,15.32 5.58,5.58 0 0 0 21,14.71 a 5.36,5.36 0 0 0 -2.75,0.76 5.08,5.08 0 0 0 -2.07,2.34 1.46,1.46 0 0 1 -0.56,0.55 1.29,1.29 0 0 1 -0.63,0.17 1.55,1.55 0 0 1 -1,-0.38 1.12,1.12 0 0 1 -0.47,-0.88 1.34,1.34 0 0 1 0.24,-0.76 c 0.15,-0.24 0.34,-0.49 0.55,-0.76 a 7.59,7.59 0 0 1 3,-2.77 8.24,8.24 0 0 1 3.85,-1 8.71,8.71 0 0 1 4.2,0.94 6.38,6.38 0 0 1 2.64,2.64 7.76,7.76 0 0 1 0.92,3.79 8.37,8.37 0 0 1 -0.49,2.79 12.73,12.73 0 0 1 -1.49,2.94 25.44,25.44 0 0 1 -2.56,3.17 l -6.3,7 -0.36,-0.36 z"
     id="path406"
     inkscape:connector-curvature="0"
     style="fill:#363026" />
  <path
     class="cls-1"
     d="m 51.85,37.93 a 7.42,7.42 0 0 1 -5,-1.69 10.32,10.32 0 0 1 -3,-4.65 20.13,20.13 0 0 1 -1,-6.62 20.08,20.08 0 0 1 1,-6.66 10.35,10.35 0 0 1 3,-4.61 8.2,8.2 0 0 1 10,0 10.3,10.3 0 0 1 3,4.61 20.35,20.35 0 0 1 1,6.66 20.4,20.4 0 0 1 -1,6.62 10.27,10.27 0 0 1 -3,4.65 7.47,7.47 0 0 1 -5,1.69 z m 0,-2.92 a 4.52,4.52 0 0 0 3.22,-1.22 7.7,7.7 0 0 0 2,-3.47 18.41,18.41 0 0 0 0.68,-5.32 18.48,18.48 0 0 0 -0.68,-5.38 7.6,7.6 0 0 0 -2,-3.46 4.92,4.92 0 0 0 -6.44,0 7.72,7.72 0 0 0 -2,3.46 18.1,18.1 0 0 0 -0.7,5.38 18,18 0 0 0 0.7,5.35 7.81,7.81 0 0 0 2,3.47 4.52,4.52 0 0 0 3.22,1.18 z"
     id="path408"
     inkscape:connector-curvature="0"
     style="fill:#363026" />
  <path
     class="cls-1"
     d="m 93.29,37.93 a 7.43,7.43 0 0 1 -5,-1.69 10.39,10.39 0 0 1 -3,-4.65 19.87,19.87 0 0 1 -1,-6.62 19.82,19.82 0 0 1 1,-6.66 10.42,10.42 0 0 1 3,-4.61 8.2,8.2 0 0 1 10,0 10.32,10.32 0 0 1 3,4.61 20.35,20.35 0 0 1 1,6.66 20.4,20.4 0 0 1 -1,6.62 10.29,10.29 0 0 1 -3,4.65 7.42,7.42 0 0 1 -5,1.69 z m 0,-2.92 a 4.54,4.54 0 0 0 3.22,-1.22 7.79,7.79 0 0 0 2,-3.47 18.76,18.76 0 0 0 0.68,-5.32 18.83,18.83 0 0 0 -0.68,-5.38 7.69,7.69 0 0 0 -2,-3.46 4.93,4.93 0 0 0 -6.45,0 7.8,7.8 0 0 0 -2,3.46 18.1,18.1 0 0 0 -0.7,5.38 18,18 0 0 0 0.7,5.35 7.89,7.89 0 0 0 2,3.47 4.54,4.54 0 0 0 3.23,1.18 z"
     id="path410"
     inkscape:connector-curvature="0"
     style="fill:#363026" />
  <path
     class="cls-1"
     d="m 124.82,37.93 a 7.42,7.42 0 0 1 -5,-1.69 10.4,10.4 0 0 1 -3,-4.65 20.13,20.13 0 0 1 -1,-6.62 20.08,20.08 0 0 1 1,-6.66 10.43,10.43 0 0 1 3,-4.61 8.2,8.2 0 0 1 10,0 10.3,10.3 0 0 1 3,4.61 20.09,20.09 0 0 1 1,6.66 20.14,20.14 0 0 1 -1,6.62 10.27,10.27 0 0 1 -3,4.65 7.45,7.45 0 0 1 -5,1.69 z m 0,-2.92 a 4.52,4.52 0 0 0 3.18,-1.22 7.61,7.61 0 0 0 2,-3.47 18.39,18.39 0 0 0 0.69,-5.35 18.46,18.46 0 0 0 -0.69,-5.38 7.52,7.52 0 0 0 -2,-3.46 4.92,4.92 0 0 0 -6.44,0 7.72,7.72 0 0 0 -2,3.46 18.44,18.44 0 0 0 -0.7,5.38 18.37,18.37 0 0 0 0.7,5.35 7.81,7.81 0 0 0 2,3.47 4.54,4.54 0 0 0 3.26,1.21 z"
     id="path412"
     inkscape:connector-curvature="0"
     style="fill:#363026" />
  <path
     class="cls-1"
     d="m 156.36,37.93 a 7.45,7.45 0 0 1 -5,-1.69 10.39,10.39 0 0 1 -3,-4.65 19.87,19.87 0 0 1 -1,-6.62 19.82,19.82 0 0 1 1,-6.66 10.42,10.42 0 0 1 3,-4.61 8.2,8.2 0 0 1 10,0 10.24,10.24 0 0 1 3,4.61 20.35,20.35 0 0 1 1,6.66 20.4,20.4 0 0 1 -1,6.62 10.21,10.21 0 0 1 -3,4.65 7.42,7.42 0 0 1 -5,1.69 z m 0,-2.92 a 4.54,4.54 0 0 0 3.22,-1.22 7.7,7.7 0 0 0 2,-3.47 18.76,18.76 0 0 0 0.68,-5.35 18.83,18.83 0 0 0 -0.68,-5.38 7.6,7.6 0 0 0 -2,-3.46 4.93,4.93 0 0 0 -6.45,0 7.8,7.8 0 0 0 -2,3.46 18.1,18.1 0 0 0 -0.7,5.38 18,18 0 0 0 0.7,5.35 7.89,7.89 0 0 0 2,3.47 4.54,4.54 0 0 0 3.23,1.21 z"
     id="path414"
     inkscape:connector-curvature="0"
     style="fill:#363026" />
  <path
     class="cls-1"
     d="m 197.79,37.93 a 7.42,7.42 0 0 1 -5,-1.69 10.4,10.4 0 0 1 -3,-4.65 20.13,20.13 0 0 1 -1,-6.62 20.08,20.08 0 0 1 1,-6.66 10.43,10.43 0 0 1 3,-4.61 8.2,8.2 0 0 1 10,0 10.4,10.4 0 0 1 3,4.61 20.36,20.36 0 0 1 1,6.66 20.41,20.41 0 0 1 -1,6.62 10.37,10.37 0 0 1 -3,4.65 7.43,7.43 0 0 1 -5,1.69 z m 0,-2.92 a 4.56,4.56 0 0 0 3.21,-1.22 7.69,7.69 0 0 0 2,-3.47 18.39,18.39 0 0 0 0.7,-5.32 18.46,18.46 0 0 0 -0.69,-5.38 7.59,7.59 0 0 0 -2,-3.46 4.93,4.93 0 0 0 -6.45,0 7.81,7.81 0 0 0 -2,3.46 18.44,18.44 0 0 0 -0.7,5.38 18.37,18.37 0 0 0 0.7,5.35 7.9,7.9 0 0 0 2,3.47 4.54,4.54 0 0 0 3.23,1.18 z"
     id="path416"
     inkscape:connector-curvature="0"
     style="fill:#363026" />
  <path
     class="cls-1"
     d="m 229.33,37.93 a 7.45,7.45 0 0 1 -5,-1.69 10.39,10.39 0 0 1 -3,-4.65 19.87,19.87 0 0 1 -1,-6.62 19.82,19.82 0 0 1 1,-6.66 10.42,10.42 0 0 1 3,-4.61 8.2,8.2 0 0 1 10,0 10.24,10.24 0 0 1 3,4.61 20.35,20.35 0 0 1 1,6.66 20.4,20.4 0 0 1 -1,6.62 10.21,10.21 0 0 1 -3,4.65 7.42,7.42 0 0 1 -5,1.69 z m 0,-2.92 a 4.54,4.54 0 0 0 3.22,-1.22 7.7,7.7 0 0 0 2,-3.47 18.76,18.76 0 0 0 0.68,-5.35 18.83,18.83 0 0 0 -0.68,-5.38 7.6,7.6 0 0 0 -2,-3.46 4.92,4.92 0 0 0 -6.44,0 7.72,7.72 0 0 0 -2,3.46 18.1,18.1 0 0 0 -0.7,5.38 18,18 0 0 0 0.7,5.35 7.81,7.81 0 0 0 2,3.47 4.52,4.52 0 0 0 3.22,1.21 z"
     id="path418"
     inkscape:connector-curvature="0"
     style="fill:#363026" />
  <path
     class="cls-1"
     d="m 260.86,37.93 a 7.42,7.42 0 0 1 -5,-1.69 10.49,10.49 0 0 1 -3,-4.65 20.13,20.13 0 0 1 -1,-6.62 20.08,20.08 0 0 1 1,-6.66 10.52,10.52 0 0 1 3,-4.61 8.2,8.2 0 0 1 10,0 10.4,10.4 0 0 1 3,4.61 20.36,20.36 0 0 1 1,6.66 20.41,20.41 0 0 1 -1,6.62 10.37,10.37 0 0 1 -3,4.65 7.43,7.43 0 0 1 -5,1.69 z m 0,-2.92 a 4.54,4.54 0 0 0 3.23,-1.22 7.69,7.69 0 0 0 2,-3.47 18.39,18.39 0 0 0 0.69,-5.35 18.46,18.46 0 0 0 -0.69,-5.38 7.59,7.59 0 0 0 -2,-3.46 4.93,4.93 0 0 0 -6.45,0 7.7,7.7 0 0 0 -2,3.46 18.08,18.08 0 0 0 -0.71,5.38 18,18 0 0 0 0.71,5.35 7.8,7.8 0 0 0 2,3.47 4.54,4.54 0 0 0 3.22,1.21 z"
     id="path420"
     inkscape:connector-curvature="0"
     style="fill:#363026" />
  <path
     class="cls-1"
     d="m 50.77,95.29 a 9.78,9.78 0 0 1 -2.93,-0.46 7.34,7.34 0 0 1 -2.61,-1.34 2,2 0 0 1 -0.47,-0.65 1.87,1.87 0 0 1 -0.18,-0.76 1.24,1.24 0 0 1 0.38,-0.84 1.26,1.26 0 0 1 1,-0.42 1.9,1.9 0 0 1 1.08,0.47 6.4,6.4 0 0 0 1.76,1 5.58,5.58 0 0 0 1.94,0.36 7,7 0 0 0 3.39,-0.79 5.94,5.94 0 0 0 2.32,-2.18 5.88,5.88 0 0 0 0.85,-3.11 5.58,5.58 0 0 0 -0.74,-2.9 5.09,5.09 0 0 0 -2,-1.93 7,7 0 0 0 -5.28,-0.3 13.79,13.79 0 0 0 -1.73,0.77 2.55,2.55 0 0 1 -1.18,0.4 1.67,1.67 0 0 1 -1.08,-0.31 1.35,1.35 0 0 1 -0.52,-0.77 1.87,1.87 0 0 1 -0.06,-0.87 l 1.4,-9.54 a 1.54,1.54 0 0 1 0.51,-0.81 1.47,1.47 0 0 1 1,-0.34 h 10.6 a 1.37,1.37 0 1 1 0,2.74 h -10 l 0.36,-0.33 -1.33,8.32 -0.58,-0.76 a 4.74,4.74 0 0 1 1.21,-0.72 10.8,10.8 0 0 1 1.87,-0.61 9.29,9.29 0 0 1 2.25,-0.28 8.23,8.23 0 0 1 4.19,1.06 7.94,7.94 0 0 1 2.94,2.9 8.14,8.14 0 0 1 1.08,4.21 8.63,8.63 0 0 1 -0.75,3.5 8.08,8.08 0 0 1 -2,2.79 9,9 0 0 1 -3,1.84 10.47,10.47 0 0 1 -3.69,0.66 z"
     id="path422"
     inkscape:connector-curvature="0"
     style="fill:#363026" />
  <path
     class="cls-1"
     d="m 93.29,95.5 a 7.43,7.43 0 0 1 -5,-1.69 10.41,10.41 0 0 1 -3,-4.64 21.95,21.95 0 0 1 0,-13.29 10.42,10.42 0 0 1 3,-4.61 8.2,8.2 0 0 1 10,0 10.32,10.32 0 0 1 3,4.61 22.36,22.36 0 0 1 0,13.29 10.31,10.31 0 0 1 -3,4.64 7.42,7.42 0 0 1 -5,1.69 z m 0,-2.92 a 4.54,4.54 0 0 0 3.22,-1.22 7.73,7.73 0 0 0 2,-3.47 21.5,21.5 0 0 0 0,-10.73 7.69,7.69 0 0 0 -2,-3.46 4.93,4.93 0 0 0 -6.45,0 7.8,7.8 0 0 0 -2,3.46 20.91,20.91 0 0 0 0,10.73 7.83,7.83 0 0 0 2,3.47 4.54,4.54 0 0 0 3.23,1.22 z"
     id="path424"
     inkscape:connector-curvature="0"
     style="fill:#363026" />
  <path
     class="cls-1"
     d="m 124.82,95.5 a 7.42,7.42 0 0 1 -5,-1.69 10.42,10.42 0 0 1 -3,-4.64 22.16,22.16 0 0 1 0,-13.29 10.43,10.43 0 0 1 3,-4.61 8.2,8.2 0 0 1 10,0 10.3,10.3 0 0 1 3,4.61 22.36,22.36 0 0 1 0,13.29 10.29,10.29 0 0 1 -3,4.64 7.45,7.45 0 0 1 -5,1.69 z m 0,-2.92 a 4.52,4.52 0 0 0 3.18,-1.22 7.55,7.55 0 0 0 2,-3.47 21.2,21.2 0 0 0 0,-10.73 7.52,7.52 0 0 0 -2,-3.46 4.92,4.92 0 0 0 -6.44,0 7.72,7.72 0 0 0 -2,3.46 20.91,20.91 0 0 0 0,10.73 7.75,7.75 0 0 0 2,3.47 4.54,4.54 0 0 0 3.26,1.22 z"
     id="path426"
     inkscape:connector-curvature="0"
     style="fill:#363026" />
  <path
     class="cls-1"
     d="m 156.36,95.5 a 7.45,7.45 0 0 1 -5,-1.69 10.41,10.41 0 0 1 -3,-4.64 21.95,21.95 0 0 1 0,-13.29 10.42,10.42 0 0 1 3,-4.61 8.2,8.2 0 0 1 10,0 10.24,10.24 0 0 1 3,4.61 22.36,22.36 0 0 1 0,13.29 10.23,10.23 0 0 1 -3,4.64 7.42,7.42 0 0 1 -5,1.69 z m 0,-2.92 a 4.54,4.54 0 0 0 3.22,-1.22 7.64,7.64 0 0 0 2,-3.47 21.5,21.5 0 0 0 0,-10.73 7.6,7.6 0 0 0 -2,-3.46 4.93,4.93 0 0 0 -6.45,0 7.8,7.8 0 0 0 -2,3.46 20.91,20.91 0 0 0 0,10.73 7.83,7.83 0 0 0 2,3.47 4.54,4.54 0 0 0 3.23,1.22 z"
     id="path428"
     inkscape:connector-curvature="0"
     style="fill:#363026" />
  <path
     class="cls-1"
     d="m 197.79,95.5 a 7.42,7.42 0 0 1 -5,-1.69 10.42,10.42 0 0 1 -3,-4.64 22.16,22.16 0 0 1 0,-13.29 10.43,10.43 0 0 1 3,-4.61 8.2,8.2 0 0 1 10,0 10.4,10.4 0 0 1 3,4.61 22.58,22.58 0 0 1 0,13.29 10.39,10.39 0 0 1 -3,4.64 7.43,7.43 0 0 1 -5,1.69 z m 0,-2.92 a 4.56,4.56 0 0 0 3.21,-1.22 7.63,7.63 0 0 0 2,-3.47 21.2,21.2 0 0 0 0,-10.73 7.59,7.59 0 0 0 -2,-3.46 4.93,4.93 0 0 0 -6.45,0 7.81,7.81 0 0 0 -2,3.46 20.91,20.91 0 0 0 0,10.73 7.85,7.85 0 0 0 2,3.47 4.54,4.54 0 0 0 3.24,1.22 z"
     id="path430"
     inkscape:connector-curvature="0"
     style="fill:#363026" />
  <path
     class="cls-1"
     d="m 229.33,95.5 a 7.45,7.45 0 0 1 -5,-1.69 10.41,10.41 0 0 1 -3,-4.64 21.95,21.95 0 0 1 0,-13.29 10.42,10.42 0 0 1 3,-4.61 8.2,8.2 0 0 1 10,0 10.24,10.24 0 0 1 3,4.61 22.36,22.36 0 0 1 0,13.29 10.23,10.23 0 0 1 -3,4.64 7.42,7.42 0 0 1 -5,1.69 z m 0,-2.92 a 4.54,4.54 0 0 0 3.22,-1.22 7.64,7.64 0 0 0 2,-3.47 21.5,21.5 0 0 0 0,-10.73 7.6,7.6 0 0 0 -2,-3.46 4.92,4.92 0 0 0 -6.44,0 7.72,7.72 0 0 0 -2,3.46 20.91,20.91 0 0 0 0,10.73 7.75,7.75 0 0 0 2,3.47 4.52,4.52 0 0 0 3.22,1.22 z"
     id="path432"
     inkscape:connector-curvature="0"
     style="fill:#363026" />
  <path
     class="cls-1"
     d="m 260.86,95.5 a 7.42,7.42 0 0 1 -5,-1.69 10.51,10.51 0 0 1 -3,-4.64 22.16,22.16 0 0 1 0,-13.29 10.52,10.52 0 0 1 3,-4.61 8.2,8.2 0 0 1 10,0 10.4,10.4 0 0 1 3,4.61 22.58,22.58 0 0 1 0,13.29 10.39,10.39 0 0 1 -3,4.64 7.43,7.43 0 0 1 -5,1.69 z m 0,-2.92 a 4.54,4.54 0 0 0 3.23,-1.22 7.63,7.63 0 0 0 2,-3.47 21.2,21.2 0 0 0 0,-10.73 7.59,7.59 0 0 0 -2,-3.46 4.93,4.93 0 0 0 -6.45,0 7.7,7.7 0 0 0 -2,3.46 20.62,20.62 0 0 0 0,10.73 7.74,7.74 0 0 0 2,3.47 4.54,4.54 0 0 0 3.22,1.22 z"
     id="path434"
     inkscape:connector-curvature="0"
     style="fill:#363026" />
  <path
     class="cls-1"
     d="m 97.17,152.71 a 1.35,1.35 0 0 1 -1,-0.43 1.43,1.43 0 0 1 -0.42,-1 v -19.7 l 0.58,0.22 -8.62,11.2 -0.15,-0.43 h 13.18 a 1.3,1.3 0 0 1 1,0.4 1.32,1.32 0 0 1 0.4,1 1.26,1.26 0 0 1 -0.4,0.92 1.35,1.35 0 0 1 -1,0.37 H 85.58 a 1.39,1.39 0 0 1 -1,-0.43 1.35,1.35 0 0 1 -0.45,-1 1.32,1.32 0 0 1 0.36,-0.93 L 96,128.09 a 1.27,1.27 0 0 1 0.57,-0.45 1.68,1.68 0 0 1 0.65,-0.13 1.34,1.34 0 0 1 1,0.42 1.41,1.41 0 0 1 0.39,1 v 22.29 a 1.43,1.43 0 0 1 -0.41,1 1.37,1.37 0 0 1 -1.03,0.49 z"
     id="path436"
     inkscape:connector-curvature="0"
     style="fill:#363026" />
  <path
     class="cls-1"
     d="m 124.82,153.07 a 7.42,7.42 0 0 1 -5,-1.69 10.37,10.37 0 0 1 -3,-4.64 22.16,22.16 0 0 1 0,-13.29 10.43,10.43 0 0 1 3,-4.61 8.2,8.2 0 0 1 10,0 10.3,10.3 0 0 1 3,4.61 22.36,22.36 0 0 1 0,13.29 10.24,10.24 0 0 1 -3,4.64 7.45,7.45 0 0 1 -5,1.69 z m 0,-2.91 a 4.53,4.53 0 0 0 3.22,-1.23 7.64,7.64 0 0 0 2,-3.47 21.2,21.2 0 0 0 0,-10.73 7.6,7.6 0 0 0 -2,-3.46 4.92,4.92 0 0 0 -6.44,0 7.72,7.72 0 0 0 -2,3.46 20.91,20.91 0 0 0 0,10.73 7.75,7.75 0 0 0 2,3.47 4.53,4.53 0 0 0 3.22,1.23 z"
     id="path438"
     inkscape:connector-curvature="0"
     style="fill:#363026" />
  <path
     class="cls-1"
     d="m 156.36,153.07 a 7.45,7.45 0 0 1 -5,-1.69 10.35,10.35 0 0 1 -3,-4.64 21.95,21.95 0 0 1 0,-13.29 10.42,10.42 0 0 1 3,-4.61 8.2,8.2 0 0 1 10,0 10.32,10.32 0 0 1 3,4.61 22.36,22.36 0 0 1 0,13.29 10.26,10.26 0 0 1 -3,4.64 7.42,7.42 0 0 1 -5,1.69 z m 0,-2.91 a 4.54,4.54 0 0 0 3.22,-1.23 7.64,7.64 0 0 0 2,-3.47 21.5,21.5 0 0 0 0,-10.73 7.6,7.6 0 0 0 -2,-3.46 4.93,4.93 0 0 0 -6.45,0 7.8,7.8 0 0 0 -2,3.46 20.91,20.91 0 0 0 0,10.73 7.83,7.83 0 0 0 2,3.47 4.55,4.55 0 0 0 3.23,1.23 z"
     id="path440"
     inkscape:connector-curvature="0"
     style="fill:#363026" />
  <path
     class="cls-1"
     d="m 197.79,153.07 a 7.42,7.42 0 0 1 -5,-1.69 10.37,10.37 0 0 1 -3,-4.64 22.16,22.16 0 0 1 0,-13.29 10.43,10.43 0 0 1 3,-4.61 8.2,8.2 0 0 1 10,0 10.4,10.4 0 0 1 3,4.61 22.58,22.58 0 0 1 0,13.29 10.34,10.34 0 0 1 -3,4.64 7.45,7.45 0 0 1 -5,1.69 z m 0,-2.91 a 4.53,4.53 0 0 0 3.22,-1.23 7.55,7.55 0 0 0 2,-3.47 21.2,21.2 0 0 0 0,-10.73 7.52,7.52 0 0 0 -2,-3.46 4.92,4.92 0 0 0 -6.44,0 7.72,7.72 0 0 0 -2,3.46 20.91,20.91 0 0 0 0,10.73 7.75,7.75 0 0 0 2,3.47 4.54,4.54 0 0 0 3.22,1.23 z"
     id="path442"
     inkscape:connector-curvature="0"
     style="fill:#363026" />
  <path
     class="cls-1"
     d="m 229.33,153.07 a 7.45,7.45 0 0 1 -5,-1.69 10.35,10.35 0 0 1 -3,-4.64 21.95,21.95 0 0 1 0,-13.29 10.42,10.42 0 0 1 3,-4.61 8.2,8.2 0 0 1 10,0 10.24,10.24 0 0 1 3,4.61 22.36,22.36 0 0 1 0,13.29 10.17,10.17 0 0 1 -3,4.64 7.42,7.42 0 0 1 -5,1.69 z m 0,-2.91 a 4.54,4.54 0 0 0 3.22,-1.23 7.64,7.64 0 0 0 2,-3.47 21.5,21.5 0 0 0 0,-10.73 7.6,7.6 0 0 0 -2,-3.46 4.92,4.92 0 0 0 -6.44,0 7.72,7.72 0 0 0 -2,3.46 20.91,20.91 0 0 0 0,10.73 7.75,7.75 0 0 0 2,3.47 4.53,4.53 0 0 0 3.22,1.23 z"
     id="path444"
     inkscape:connector-curvature="0"
     style="fill:#363026" />
  <path
     class="cls-1"
     d="m 260.86,153.07 a 7.42,7.42 0 0 1 -5,-1.69 10.45,10.45 0 0 1 -3,-4.64 22.16,22.16 0 0 1 0,-13.29 10.52,10.52 0 0 1 3,-4.61 8.2,8.2 0 0 1 10,0 10.4,10.4 0 0 1 3,4.61 22.58,22.58 0 0 1 0,13.29 10.34,10.34 0 0 1 -3,4.64 7.43,7.43 0 0 1 -5,1.69 z m 0,-2.91 a 4.55,4.55 0 0 0 3.23,-1.23 7.63,7.63 0 0 0 2,-3.47 21.2,21.2 0 0 0 0,-10.73 7.59,7.59 0 0 0 -2,-3.46 4.93,4.93 0 0 0 -6.45,0 7.7,7.7 0 0 0 -2,3.46 20.62,20.62 0 0 0 0,10.73 7.74,7.74 0 0 0 2,3.47 4.54,4.54 0 0 0 3.22,1.23 z"
     id="path446"
     inkscape:connector-curvature="0"
     style="fill:#363026" />
  <path
     class="cls-1"
     d="m 130.91,210.28 a 1.51,1.51 0 0 1 -1.12,-0.43 1.4,1.4 0 0 1 -0.43,-1 v -20.53 l 0.43,0.51 -4.18,2.52 a 1.43,1.43 0 0 1 -0.72,0.18 1.34,1.34 0 0 1 -1,-0.49 1.46,1.46 0 0 1 -0.43,-1 1.42,1.42 0 0 1 0.75,-1.26 L 130,185.3 a 1.92,1.92 0 0 1 1.08,-0.22 1.21,1.21 0 0 1 1,0.42 1.5,1.5 0 0 1 0.36,1 v 22.29 a 1.4,1.4 0 0 1 -0.43,1 1.5,1.5 0 0 1 -1.1,0.49 z"
     id="path448"
     inkscape:connector-curvature="0"
     style="fill:#363026" />
  <path
     class="cls-1"
     d="m 156.36,210.64 a 7.45,7.45 0 0 1 -5,-1.69 10.35,10.35 0 0 1 -3,-4.64 21.95,21.95 0 0 1 0,-13.29 10.33,10.33 0 0 1 3,-4.6 8.16,8.16 0 0 1 10,0 10.15,10.15 0 0 1 3,4.6 22.36,22.36 0 0 1 0,13.29 10.17,10.17 0 0 1 -3,4.64 7.42,7.42 0 0 1 -5,1.69 z m 0,-2.91 a 4.54,4.54 0 0 0 3.22,-1.23 7.64,7.64 0 0 0 2,-3.47 21.5,21.5 0 0 0 0,-10.73 7.51,7.51 0 0 0 -2,-3.45 4.9,4.9 0 0 0 -6.45,0 7.7,7.7 0 0 0 -2,3.45 20.91,20.91 0 0 0 0,10.73 7.83,7.83 0 0 0 2,3.47 4.55,4.55 0 0 0 3.23,1.23 z"
     id="path450"
     inkscape:connector-curvature="0"
     style="fill:#363026" />
  <path
     class="cls-1"
     d="m 197.79,210.64 a 7.42,7.42 0 0 1 -5,-1.69 10.37,10.37 0 0 1 -3,-4.64 22.16,22.16 0 0 1 0,-13.29 10.34,10.34 0 0 1 3,-4.6 8.16,8.16 0 0 1 10,0 10.31,10.31 0 0 1 3,4.6 22.58,22.58 0 0 1 0,13.29 10.34,10.34 0 0 1 -3,4.64 7.43,7.43 0 0 1 -5,1.69 z m 0,-2.91 a 4.57,4.57 0 0 0 3.21,-1.23 7.63,7.63 0 0 0 2,-3.47 21.2,21.2 0 0 0 0,-10.73 7.5,7.5 0 0 0 -2,-3.45 4.9,4.9 0 0 0 -6.45,0 7.71,7.71 0 0 0 -2,3.45 20.91,20.91 0 0 0 0,10.73 7.85,7.85 0 0 0 2,3.47 4.54,4.54 0 0 0 3.24,1.23 z"
     id="path452"
     inkscape:connector-curvature="0"
     style="fill:#363026" />
  <path
     class="cls-1"
     d="m 229.33,210.64 a 7.45,7.45 0 0 1 -5,-1.69 10.35,10.35 0 0 1 -3,-4.64 21.95,21.95 0 0 1 0,-13.29 10.33,10.33 0 0 1 3,-4.6 8.16,8.16 0 0 1 10,0 10.15,10.15 0 0 1 3,4.6 22.36,22.36 0 0 1 0,13.29 10.17,10.17 0 0 1 -3,4.64 7.42,7.42 0 0 1 -5,1.69 z m 0,-2.91 a 4.54,4.54 0 0 0 3.22,-1.23 7.64,7.64 0 0 0 2,-3.47 21.5,21.5 0 0 0 0,-10.73 7.51,7.51 0 0 0 -2,-3.45 4.89,4.89 0 0 0 -6.44,0 7.62,7.62 0 0 0 -2,3.45 20.91,20.91 0 0 0 0,10.73 7.75,7.75 0 0 0 2,3.47 4.53,4.53 0 0 0 3.22,1.23 z"
     id="path454"
     inkscape:connector-curvature="0"
     style="fill:#363026" />
  <path
     class="cls-1"
     d="m 260.86,210.64 a 7.42,7.42 0 0 1 -5,-1.69 10.45,10.45 0 0 1 -3,-4.64 22.16,22.16 0 0 1 0,-13.29 10.43,10.43 0 0 1 3,-4.6 8.16,8.16 0 0 1 10,0 10.31,10.31 0 0 1 3,4.6 22.58,22.58 0 0 1 0,13.29 10.34,10.34 0 0 1 -3,4.64 7.43,7.43 0 0 1 -5,1.69 z m 0,-2.91 a 4.55,4.55 0 0 0 3.23,-1.23 7.63,7.63 0 0 0 2,-3.47 21.2,21.2 0 0 0 0,-10.73 7.5,7.5 0 0 0 -2,-3.45 4.9,4.9 0 0 0 -6.45,0 7.61,7.61 0 0 0 -2,3.45 20.62,20.62 0 0 0 0,10.73 7.74,7.74 0 0 0 2,3.47 4.54,4.54 0 0 0 3.22,1.23 z"
     id="path456"
     inkscape:connector-curvature="0"
     style="fill:#363026" />
  <path
     class="cls-1"
     d="m 160.25,265.86 a 1.38,1.38 0 0 1 -1,-0.44 1.41,1.41 0 0 1 -0.41,-1 v -19.73 l 0.57,0.21 -8.6,11.24 -0.15,-0.44 h 13.18 a 1.37,1.37 0 0 1 1.37,1.37 1.24,1.24 0 0 1 -0.4,0.92 1.36,1.36 0 0 1 -1,0.38 h -15.16 a 1.43,1.43 0 0 1 -1,-0.43 1.38,1.38 0 0 1 -0.09,-1.95 l 11.49,-14.76 a 1.43,1.43 0 0 1 0.57,-0.45 1.91,1.91 0 0 1 0.65,-0.12 1.31,1.31 0 0 1 1,0.41 1.46,1.46 0 0 1 0.4,1 v 22.28 a 1.42,1.42 0 0 1 -0.42,1 1.35,1.35 0 0 1 -1,0.51 z"
     id="path458"
     inkscape:connector-curvature="0"
     style="fill:#363026" />
  <path
     class="cls-1"
     d="m 197.79,266.22 a 7.43,7.43 0 0 1 -5,-1.7 10.31,10.31 0 0 1 -3,-4.64 22.12,22.12 0 0 1 0,-13.28 10.38,10.38 0 0 1 3,-4.61 8.2,8.2 0 0 1 10,0 10.35,10.35 0 0 1 3,4.61 22.54,22.54 0 0 1 0,13.28 10.28,10.28 0 0 1 -3,4.64 7.44,7.44 0 0 1 -5,1.7 z m 0,-2.92 a 4.6,4.6 0 0 0 3.23,-1.22 7.72,7.72 0 0 0 2,-3.48 18.32,18.32 0 0 0 0.69,-5.34 18.53,18.53 0 0 0 -0.69,-5.39 7.5,7.5 0 0 0 -2,-3.45 4.9,4.9 0 0 0 -6.45,0 7.71,7.71 0 0 0 -2,3.45 18.51,18.51 0 0 0 -0.7,5.39 18.29,18.29 0 0 0 0.7,5.34 7.94,7.94 0 0 0 2,3.48 4.58,4.58 0 0 0 3.22,1.22 z"
     id="path460"
     inkscape:connector-curvature="0"
     style="fill:#363026" />
  <path
     class="cls-1"
     d="m 229.33,266.22 a 7.45,7.45 0 0 1 -5,-1.7 10.3,10.3 0 0 1 -3,-4.64 21.92,21.92 0 0 1 0,-13.28 10.36,10.36 0 0 1 3,-4.61 8.2,8.2 0 0 1 10,0 10.18,10.18 0 0 1 3,4.61 22.33,22.33 0 0 1 0,13.28 10.12,10.12 0 0 1 -3,4.64 7.43,7.43 0 0 1 -5,1.7 z m 0,-2.92 a 4.58,4.58 0 0 0 3.22,-1.22 7.73,7.73 0 0 0 2,-3.48 18.69,18.69 0 0 0 0.68,-5.34 18.91,18.91 0 0 0 -0.68,-5.39 7.51,7.51 0 0 0 -2,-3.45 4.89,4.89 0 0 0 -6.44,0 7.62,7.62 0 0 0 -2,3.45 18.17,18.17 0 0 0 -0.7,5.39 18,18 0 0 0 0.7,5.34 7.85,7.85 0 0 0 2,3.48 4.56,4.56 0 0 0 3.22,1.22 z"
     id="path462"
     inkscape:connector-curvature="0"
     style="fill:#363026" />
  <path
     class="cls-1"
     d="m 260.86,266.22 a 7.43,7.43 0 0 1 -5,-1.7 10.39,10.39 0 0 1 -3,-4.64 22.12,22.12 0 0 1 0,-13.28 10.46,10.46 0 0 1 3,-4.61 8.2,8.2 0 0 1 10,0 10.35,10.35 0 0 1 3,4.61 22.54,22.54 0 0 1 0,13.28 10.28,10.28 0 0 1 -3,4.64 7.44,7.44 0 0 1 -5,1.7 z m 0,-2.92 a 4.59,4.59 0 0 0 3.23,-1.22 7.72,7.72 0 0 0 2,-3.48 18.32,18.32 0 0 0 0.69,-5.34 18.53,18.53 0 0 0 -0.69,-5.39 7.5,7.5 0 0 0 -2,-3.45 4.9,4.9 0 0 0 -6.45,0 7.61,7.61 0 0 0 -2,3.45 18.15,18.15 0 0 0 -0.71,5.39 17.94,17.94 0 0 0 0.71,5.34 7.84,7.84 0 0 0 2,3.48 4.58,4.58 0 0 0 3.22,1.22 z"
     id="path464"
     inkscape:connector-curvature="0"
     style="fill:#363026" />
  <path
     class="cls-1"
     d="m 197.79,323.79 a 7.47,7.47 0 0 1 -5,-1.69 10.4,10.4 0 0 1 -3,-4.65 22.12,22.12 0 0 1 0,-13.28 10.38,10.38 0 0 1 3,-4.61 8.2,8.2 0 0 1 10,0 10.35,10.35 0 0 1 3,4.61 22.54,22.54 0 0 1 0,13.28 10.37,10.37 0 0 1 -3,4.65 7.48,7.48 0 0 1 -5,1.69 z m 0,-2.92 a 4.6,4.6 0 0 0 3.23,-1.22 7.72,7.72 0 0 0 2,-3.48 21.16,21.16 0 0 0 0,-10.72 7.54,7.54 0 0 0 -2,-3.46 4.9,4.9 0 0 0 -6.45,0 7.75,7.75 0 0 0 -2,3.46 20.87,20.87 0 0 0 0,10.72 7.94,7.94 0 0 0 2,3.48 4.58,4.58 0 0 0 3.22,1.22 z"
     id="path466"
     inkscape:connector-curvature="0"
     style="fill:#363026" />
  <path
     class="cls-1"
     d="m 229.33,323.79 a 7.5,7.5 0 0 1 -5,-1.69 10.39,10.39 0 0 1 -3,-4.65 21.92,21.92 0 0 1 0,-13.28 10.36,10.36 0 0 1 3,-4.61 8.2,8.2 0 0 1 10,0 10.18,10.18 0 0 1 3,4.61 22.33,22.33 0 0 1 0,13.28 10.21,10.21 0 0 1 -3,4.65 7.47,7.47 0 0 1 -5,1.69 z m 0,-2.92 a 4.58,4.58 0 0 0 3.22,-1.22 7.73,7.73 0 0 0 2,-3.48 21.46,21.46 0 0 0 0,-10.72 7.55,7.55 0 0 0 -2,-3.46 4.89,4.89 0 0 0 -6.44,0 7.66,7.66 0 0 0 -2,3.46 20.87,20.87 0 0 0 0,10.72 7.85,7.85 0 0 0 2,3.48 4.56,4.56 0 0 0 3.22,1.22 z"
     id="path468"
     inkscape:connector-curvature="0"
     style="fill:#363026" />
  <path
     class="cls-1"
     d="m 260.86,323.79 a 7.47,7.47 0 0 1 -5,-1.69 10.49,10.49 0 0 1 -3,-4.65 22.12,22.12 0 0 1 0,-13.28 10.46,10.46 0 0 1 3,-4.61 8.2,8.2 0 0 1 10,0 10.35,10.35 0 0 1 3,4.61 22.54,22.54 0 0 1 0,13.28 10.37,10.37 0 0 1 -3,4.65 7.48,7.48 0 0 1 -5,1.69 z m 0,-2.92 a 4.59,4.59 0 0 0 3.23,-1.22 7.72,7.72 0 0 0 2,-3.48 21.16,21.16 0 0 0 0,-10.72 7.54,7.54 0 0 0 -2,-3.46 4.9,4.9 0 0 0 -6.45,0 7.65,7.65 0 0 0 -2,3.46 20.59,20.59 0 0 0 0,10.72 7.84,7.84 0 0 0 2,3.48 4.58,4.58 0 0 0 3.22,1.22 z"
     id="path470"
     inkscape:connector-curvature="0"
     style="fill:#363026" />
  <path
     class="cls-1"
     d="m 235.41,381 a 1.52,1.52 0 0 1 -1.11,-0.43 1.43,1.43 0 0 1 -0.43,-1.05 V 359 l 0.43,0.5 -4.18,2.52 a 1.48,1.48 0 0 1 -0.72,0.18 1.33,1.33 0 0 1 -1,-0.48 1.52,1.52 0 0 1 -0.44,-1 1.43,1.43 0 0 1 0.76,-1.26 l 5.87,-3.5 a 2,2 0 0 1 1.08,-0.21 1.23,1.23 0 0 1 1,0.41 1.52,1.52 0 0 1 0.36,1 v 22.28 a 1.43,1.43 0 0 1 -0.43,1.05 1.55,1.55 0 0 1 -1.19,0.51 z"
     id="path472"
     inkscape:connector-curvature="0"
     style="fill:#363026" />
  <path
     class="cls-1"
     d="m 260.86,381.36 a 7.47,7.47 0 0 1 -5,-1.69 10.49,10.49 0 0 1 -3,-4.65 22.12,22.12 0 0 1 0,-13.28 10.46,10.46 0 0 1 3,-4.61 8.2,8.2 0 0 1 10,0 10.35,10.35 0 0 1 3,4.61 22.54,22.54 0 0 1 0,13.28 10.37,10.37 0 0 1 -3,4.65 7.48,7.48 0 0 1 -5,1.69 z m 0,-2.92 a 4.54,4.54 0 0 0 3.23,-1.22 7.72,7.72 0 0 0 2,-3.48 18.27,18.27 0 0 0 0.69,-5.34 18.46,18.46 0 0 0 -0.69,-5.38 7.59,7.59 0 0 0 -2,-3.46 4.9,4.9 0 0 0 -6.45,0 7.7,7.7 0 0 0 -2,3.46 18.08,18.08 0 0 0 -0.71,5.38 17.89,17.89 0 0 0 0.71,5.34 7.84,7.84 0 0 0 2,3.48 4.54,4.54 0 0 0 3.22,1.22 z"
     id="path474"
     inkscape:connector-curvature="0"
     style="fill:#363026" />
  <path
     class="cls-1"
     d="m 259.17,438.68 a 1.63,1.63 0 0 1 -1,-0.38 1.21,1.21 0 0 1 -0.47,-1 1.69,1.69 0 0 1 0.14,-0.65 l 9.33,-21.24 0.4,0.65 h -11.6 a 1.3,1.3 0 0 1 -1,-0.4 1.32,1.32 0 0 1 -0.4,-1 1.28,1.28 0 0 1 0.4,-0.95 1.36,1.36 0 0 1 1,-0.38 h 13 a 1.53,1.53 0 0 1 1.08,0.38 1.31,1.31 0 0 1 0.39,1 1.56,1.56 0 0 1 -0.14,0.68 l -9.76,22.36 a 1.15,1.15 0 0 1 -0.52,0.66 1.47,1.47 0 0 1 -0.85,0.27 z"
     id="path476"
     inkscape:connector-curvature="0"
     style="fill:#363026" />
  <rect
     class="cls-2"
     x="1.5"
     y="1.5"
     width="280"
     height="46"
     rx="5.3600001"
     id="rect478"
     style="fill:none;stroke:#1f8ebe;stroke-width:3px;stroke-miterlimit:10" />
  <rect
     class="cls-2"
     x="35.5"
     y="58.5"
     width="246"
     height="46"
     rx="5.3600001"
     id="rect480"
     style="fill:none;stroke:#1f8ebe;stroke-width:3px;stroke-miterlimit:10" />
  <rect
     class="cls-2"
     x="76.5"
     y="115.5"
     width="205"
     height="46"
     rx="5.3600001"
     id="rect482"
     style="fill:none;stroke:#1f8ebe;stroke-width:3px;stroke-miterlimit:10" />
  <rect
     class="cls-2"
     x="107.5"
     y="172.5"
     width="174"
     height="46"
     rx="5.3600001"
     id="rect484"
     style="fill:none;stroke:#1f8ebe;stroke-width:3px;stroke-miterlimit:10" />
  <rect
     class="cls-2"
     x="136.5"
     y="229.5"
     width="145"
     height="46"
     rx="5.3600001"
     id="rect486"
     style="fill:none;stroke:#1f8ebe;stroke-width:3px;stroke-miterlimit:10" />
  <rect
     class="cls-2"
     x="178.5"
     y="286.5"
     width="103"
     height="46"
     rx="5.3600001"
     id="rect488"
     style="fill:none;stroke:#1f8ebe;stroke-width:3px;stroke-miterlimit:10" />
  <rect
     class="cls-2"
     x="206.5"
     y="343.5"
     width="75"
     height="46"
     rx="5.3600001"
     id="rect490"
     style="fill:none;stroke:#1f8ebe;stroke-width:3px;stroke-miterlimit:10" />
  <rect
     class="cls-2"
     x="240.5"
     y="400.5"
     width="41"
     height="46"
     rx="5.3600001"
     id="rect492"
     style="fill:none;stroke:#1f8ebe;stroke-width:3px;stroke-miterlimit:10" />
</svg>
