<?xml version="1.0" encoding="UTF-8" standalone="no"?>
<svg
   xmlns:dc="http://purl.org/dc/elements/1.1/"
   xmlns:cc="http://creativecommons.org/ns#"
   xmlns:rdf="http://www.w3.org/1999/02/22-rdf-syntax-ns#"
   xmlns:svg="http://www.w3.org/2000/svg"
   xmlns="http://www.w3.org/2000/svg"
   xmlns:sodipodi="http://sodipodi.sourceforge.net/DTD/sodipodi-0.dtd"
   xmlns:inkscape="http://www.inkscape.org/namespaces/inkscape"
   viewBox="0 0 283 49"
   version="1.1"
   id="svg26"
   sodipodi:docname="v5_glosa_1.svg"
   inkscape:version="0.92.3 (2405546, 2018-03-11)">
  <metadata
     id="metadata30">
    <rdf:RDF>
      <cc:Work
         rdf:about="">
        <dc:format>image/svg+xml</dc:format>
        <dc:type
           rdf:resource="http://purl.org/dc/dcmitype/StillImage" />
      </cc:Work>
    </rdf:RDF>
  </metadata>
  <sodipodi:namedview
     pagecolor="#ffffff"
     bordercolor="#666666"
     borderopacity="1"
     objecttolerance="10"
     gridtolerance="10"
     guidetolerance="10"
     inkscape:pageopacity="0"
     inkscape:pageshadow="2"
     inkscape:window-width="1600"
     inkscape:window-height="872"
     id="namedview28"
     showgrid="false"
     inkscape:zoom="2.3065815"
     inkscape:cx="109.52628"
     inkscape:cy="-26.459016"
     inkscape:window-x="1360"
     inkscape:window-y="0"
     inkscape:window-maximized="1"
     inkscape:current-layer="svg26" />
  <defs
     id="defs4">
    <style
       id="style2">.cls-1{fill:#363026;}.cls-2{fill:none;stroke:#1f8ebe;stroke-miterlimit:10;stroke-width:3px;}</style>
  </defs>
  <path
     class="cls-1"
     d="m 198.42,37.462753 a 7.42,7.42 0 0 1 -5,-1.69 10.32,10.32 0 0 1 -3,-4.65 20.13,20.13 0 0 1 -1,-6.62 20.08,20.08 0 0 1 1,-6.66 10.35,10.35 0 0 1 3,-4.61 8.2,8.2 0 0 1 10,0 10.3,10.3 0 0 1 3,4.61 20.35,20.35 0 0 1 1,6.66 20.4,20.4 0 0 1 -1,6.62 10.27,10.27 0 0 1 -3,4.65 7.47,7.47 0 0 1 -5,1.69 z m 0,-2.92 a 4.52,4.52 0 0 0 3.22,-1.22 7.7,7.7 0 0 0 2,-3.47 18.41,18.41 0 0 0 0.68,-5.35 18.48,18.48 0 0 0 -0.68,-5.38 7.6,7.6 0 0 0 -2,-3.46 4.92,4.92 0 0 0 -6.44,0 7.72,7.72 0 0 0 -2,3.46 18.1,18.1 0 0 0 -0.7,5.38 18,18 0 0 0 0.7,5.35 7.81,7.81 0 0 0 2,3.47 4.52,4.52 0 0 0 3.22,1.22 z"
     id="path16"
     inkscape:connector-curvature="0"
     style="fill:#363026" />
  <rect
     class="cls-2"
     x="1.5"
     y="1.5"
     width="280"
     height="46"
     rx="5.3600001"
     id="rect22"
     style="fill:none;stroke:#1f8ebe;stroke-width:3px;stroke-miterlimit:10" />
  <path
     class="cls-1"
     d="m 35.081371,34.59635 a 1.35,1.35 0 0 1 1.36,1.37 1.27,1.27 0 0 1 -0.39,0.95 1.38,1.38 0 0 1 -1,0.38 H 22.011366 a 1.51,1.51 0 0 1 -1.06,-0.38 1.3,1.3 0 0 1 -0.42,-1 1.5,1.5 0 0 1 0.44,-1.05 l 8.13,-8.89 a 18.82,18.82 0 0 0 2.670005,-3.53 6.44,6.44 0 0 0 1,-3.19 5,5 0 0 0 -0.66,-2.53 4.42,4.42 0 0 0 -1.75,-1.68 5.58,5.58 0 0 0 -2.590005,-0.61 5.36,5.36 0 0 0 -2.75,0.76 5.08,5.08 0 0 0 -2.07,2.34 1.46,1.46 0 0 1 -0.56,0.55 1.29,1.29 0 0 1 -0.63,0.17 1.55,1.55 0 0 1 -1,-0.38 1.12,1.12 0 0 1 -0.47,-0.88 1.34,1.34 0 0 1 0.24,-0.76 c 0.15,-0.24 0.34,-0.49 0.55,-0.76 a 7.59,7.59 0 0 1 3,-2.77 8.24,8.24 0 0 1 3.85,-1 8.71,8.71 0 0 1 4.200005,0.94 6.38,6.38 0 0 1 2.64,2.64 7.76,7.76 0 0 1 0.92,3.79 8.37,8.37 0 0 1 -0.49,2.79 12.73,12.73 0 0 1 -1.49,2.94 25.44,25.44 0 0 1 -2.56,3.17 l -6.300005,7 -0.36,-0.36 z"
     id="path406"
     inkscape:connector-curvature="0"
     style="fill:#363026" />
  <path
     class="cls-1"
     d="m 51.47178,37.160557 a 9.78,9.78 0 0 1 -2.93,-0.46 7.34,7.34 0 0 1 -2.61,-1.34 2,2 0 0 1 -0.47,-0.65 1.87,1.87 0 0 1 -0.18,-0.76 1.24,1.24 0 0 1 0.38,-0.84 1.26,1.26 0 0 1 1,-0.42 1.9,1.9 0 0 1 1.08,0.47 6.4,6.4 0 0 0 1.76,1 5.58,5.58 0 0 0 1.94,0.36 7,7 0 0 0 3.39,-0.79 5.94,5.94 0 0 0 2.32,-2.18 5.88,5.88 0 0 0 0.85,-3.11 5.58,5.58 0 0 0 -0.74,-2.9 5.09,5.09 0 0 0 -2,-1.93 7,7 0 0 0 -5.28,-0.3 13.79,13.79 0 0 0 -1.73,0.77 2.55,2.55 0 0 1 -1.18,0.4 1.67,1.67 0 0 1 -1.08,-0.31 1.35,1.35 0 0 1 -0.52,-0.77 1.87,1.87 0 0 1 -0.06,-0.87 l 1.4,-9.54 a 1.54,1.54 0 0 1 0.51,-0.81 1.47,1.47 0 0 1 1,-0.34 h 10.6 a 1.37,1.37 0 1 1 0,2.74 h -10 l 0.36,-0.33 -1.33,8.32 -0.58,-0.76 a 4.74,4.74 0 0 1 1.21,-0.72 10.8,10.8 0 0 1 1.87,-0.61 9.29,9.29 0 0 1 2.25,-0.28 8.23,8.23 0 0 1 4.19,1.06 7.94,7.94 0 0 1 2.94,2.9 8.14,8.14 0 0 1 1.08,4.21 8.63,8.63 0 0 1 -0.75,3.5 8.08,8.08 0 0 1 -2,2.79 9,9 0 0 1 -3,1.84 10.47,10.47 0 0 1 -3.69,0.66 z"
     id="path422"
     inkscape:connector-curvature="0"
     style="fill:#363026" />
  <path
     class="cls-1"
     d="m 97.004699,37.100095 a 1.35,1.35 0 0 1 -1,-0.43 1.43,1.43 0 0 1 -0.42,-1 v -19.7 l 0.58,0.22 -8.62,11.2 -0.15,-0.43 H 100.5747 a 1.3,1.3 0 0 1 1,0.4 1.32,1.32 0 0 1 0.4,1 1.26,1.26 0 0 1 -0.4,0.92 1.35,1.35 0 0 1 -1,0.37 H 85.414699 a 1.39,1.39 0 0 1 -1,-0.43 1.35,1.35 0 0 1 -0.45,-1 1.32,1.32 0 0 1 0.36,-0.93 l 11.51,-14.81 a 1.27,1.27 0 0 1 0.57,-0.45 1.68,1.68 0 0 1 0.65,-0.13 1.34,1.34 0 0 1 1,0.42 1.41,1.41 0 0 1 0.39,1 v 22.29 a 1.43,1.43 0 0 1 -0.41,1 1.37,1.37 0 0 1 -1.03,0.49 z"
     id="path436"
     inkscape:connector-curvature="0"
     style="fill:#363026" />
  <path
     class="cls-1"
     d="m 125.51396,37.103235 a 1.51,1.51 0 0 1 -1.12,-0.43 1.4,1.4 0 0 1 -0.43,-1 v -20.53 l 0.43,0.51 -4.18,2.52 a 1.43,1.43 0 0 1 -0.72,0.18 1.34,1.34 0 0 1 -1,-0.49 1.46,1.46 0 0 1 -0.43,-1 1.42,1.42 0 0 1 0.75,-1.26 l 5.79,-3.479999 a 1.92,1.92 0 0 1 1.08,-0.22 1.21,1.21 0 0 1 1,0.42 1.5,1.5 0 0 1 0.36,0.999999 v 22.29 a 1.4,1.4 0 0 1 -0.43,1 1.5,1.5 0 0 1 -1.1,0.49 z"
     id="path448"
     inkscape:connector-curvature="0"
     style="fill:#363026" />
  <path
     class="cls-1"
     d="m 156.18283,37.100427 a 1.38,1.38 0 0 1 -1,-0.44 1.41,1.41 0 0 1 -0.41,-1 v -19.73 l 0.57,0.21 -8.6,11.24 -0.15,-0.44 h 13.18 a 1.37,1.37 0 0 1 1.37,1.37 1.24,1.24 0 0 1 -0.4,0.92 1.36,1.36 0 0 1 -1,0.38 h -15.16 a 1.43,1.43 0 0 1 -1,-0.43 1.38,1.38 0 0 1 -0.09,-1.95 l 11.49,-14.76 a 1.43,1.43 0 0 1 0.57,-0.45 1.91,1.91 0 0 1 0.65,-0.12 1.31,1.31 0 0 1 1,0.41 1.46,1.46 0 0 1 0.4,1 v 22.28 a 1.42,1.42 0 0 1 -0.42,1 1.35,1.35 0 0 1 -1,0.51 z"
     id="path458"
     inkscape:connector-curvature="0"
     style="fill:#363026" />
  <path
     class="cls-1"
     d="m 230.7934,37.12834 a 1.52,1.52 0 0 1 -1.11,-0.43 1.43,1.43 0 0 1 -0.43,-1.05 v -20.52 l 0.43,0.5 -4.18,2.52 a 1.48,1.48 0 0 1 -0.72,0.18 1.33,1.33 0 0 1 -1,-0.48 1.52,1.52 0 0 1 -0.44,-1 1.43,1.43 0 0 1 0.76,-1.26 l 5.87,-3.5 a 2,2 0 0 1 1.08,-0.21 1.23,1.23 0 0 1 1,0.41 1.52,1.52 0 0 1 0.36,1 v 22.28 a 1.43,1.43 0 0 1 -0.43,1.05 1.55,1.55 0 0 1 -1.19,0.51 z"
     id="path472"
     inkscape:connector-curvature="0"
     style="fill:#363026" />
  <path
     class="cls-1"
     d="m 252.9351,37.17578 a 1.63,1.63 0 0 1 -1,-0.38 1.21,1.21 0 0 1 -0.47,-1 1.69,1.69 0 0 1 0.14,-0.65 l 9.33,-21.24 0.4,0.65 h -11.6 a 1.3,1.3 0 0 1 -1,-0.4 1.32,1.32 0 0 1 -0.4,-1 1.28,1.28 0 0 1 0.4,-0.95 1.36,1.36 0 0 1 1,-0.38 h 13 a 1.53,1.53 0 0 1 1.08,0.38 1.31,1.31 0 0 1 0.39,1 1.56,1.56 0 0 1 -0.14,0.68 l -9.76,22.36 a 1.15,1.15 0 0 1 -0.52,0.66 1.47,1.47 0 0 1 -0.85,0.27 z"
     id="path476"
     inkscape:connector-curvature="0"
     style="fill:#363026" />
</svg>
