<svg xmlns="http://www.w3.org/2000/svg" viewBox="0 0 105.3 28.75"><defs><style>.cls-1{fill:#1f8ebe;}.cls-2{fill:#363026;}</style></defs><g id="Layer_2" data-name="Layer 2"><g id="Layer_1-2" data-name="Layer 1"><path class="cls-1" d="M34.32,14a.84.84,0,0,1-.59-.23.79.79,0,0,1-.23-.56.74.74,0,0,1,.23-.54.87.87,0,0,1,.59-.21h5.62a.84.84,0,0,1,.59.21.74.74,0,0,1,.23.54.79.79,0,0,1-.23.56.81.81,0,0,1-.59.23Zm0,2.71a.8.8,0,0,1-.59-.23A.76.76,0,0,1,33.5,16a.71.71,0,0,1,.23-.54.83.83,0,0,1,.59-.22h5.62a.8.8,0,0,1,.59.22.71.71,0,0,1,.23.54.79.79,0,0,1-.82.78Z"/><path class="cls-2" d="M52,17.8a.54.54,0,0,1,.38.15.52.52,0,0,1,.15.38.5.5,0,0,1-.15.37.54.54,0,0,1-.38.15H46.94a.6.6,0,0,1-.42-.15.54.54,0,0,1-.16-.4.62.62,0,0,1,.17-.41l3.16-3.45a7.17,7.17,0,0,0,1.05-1.37,2.42,2.42,0,0,0,.37-1.24,1.87,1.87,0,0,0-.25-1,1.64,1.64,0,0,0-.68-.65,2.24,2.24,0,0,0-2.09.06,2,2,0,0,0-.8.91.66.66,0,0,1-.22.22.54.54,0,0,1-.25.06.57.57,0,0,1-.37-.15.4.4,0,0,1-.19-.34.52.52,0,0,1,.09-.29l.22-.3a3.09,3.09,0,0,1,1.16-1.08,3.26,3.26,0,0,1,1.5-.37,3.41,3.41,0,0,1,1.63.36,2.44,2.44,0,0,1,1,1,3,3,0,0,1,.36,1.47,3.52,3.52,0,0,1-.19,1.09A5.12,5.12,0,0,1,51.49,14a11.06,11.06,0,0,1-1,1.23L48,17.94l-.14-.14Z"/><path class="cls-2" d="M59.94,18.85a.58.58,0,0,1-.43-.17.57.57,0,0,1-.17-.41v-8l.17.19-1.63,1a.51.51,0,0,1-.28.07.5.5,0,0,1-.4-.19A.57.57,0,0,1,57,11a.56.56,0,0,1,.29-.49l2.29-1.36A.77.77,0,0,1,60,9.05a.46.46,0,0,1,.37.16.54.54,0,0,1,.14.4v8.66a.56.56,0,0,1-.16.41A.62.62,0,0,1,59.94,18.85Z"/><path class="cls-2" d="M65,18.9a4.2,4.2,0,0,1-1.14-.17,2.78,2.78,0,0,1-1-.53.69.69,0,0,1-.19-.25.82.82,0,0,1-.07-.29.46.46,0,0,1,.15-.33.5.5,0,0,1,.39-.16.74.74,0,0,1,.42.18,2.65,2.65,0,0,0,.68.38,2.27,2.27,0,0,0,.76.14,2.78,2.78,0,0,0,1.31-.31,2.33,2.33,0,0,0,.91-.85,2.27,2.27,0,0,0,.33-1.21,2.21,2.21,0,0,0-.29-1.13,2,2,0,0,0-.8-.75,2.58,2.58,0,0,0-1.17-.26,2.42,2.42,0,0,0-.88.15,3.52,3.52,0,0,0-.67.3,1.05,1.05,0,0,1-.46.15.66.66,0,0,1-.42-.12.57.57,0,0,1-.21-.3.79.79,0,0,1,0-.34l.55-3.71a.6.6,0,0,1,.19-.31.57.57,0,0,1,.38-.13h4.16a.51.51,0,0,1,.53.53.54.54,0,0,1-.15.38.52.52,0,0,1-.38.15H64l.14-.13-.52,3.24-.22-.3a2.06,2.06,0,0,1,.47-.28,3.93,3.93,0,0,1,.73-.23,3.33,3.33,0,0,1,.84-.1,3.26,3.26,0,0,1,1.63.41,3,3,0,0,1,1.15,1.13,3.15,3.15,0,0,1,.42,1.64,3.37,3.37,0,0,1-.28,1.36,3.23,3.23,0,0,1-.77,1.09,3.69,3.69,0,0,1-1.16.71A4,4,0,0,1,65,18.9Z"/><path class="cls-2" d="M73.82,19a2.87,2.87,0,0,1-1.94-.66,4.06,4.06,0,0,1-1.18-1.81A7.66,7.66,0,0,1,70.3,14a7.66,7.66,0,0,1,.4-2.59,4.08,4.08,0,0,1,1.18-1.8,3.21,3.21,0,0,1,3.87,0,4,4,0,0,1,1.17,1.8,7.91,7.91,0,0,1,.4,2.59,7.92,7.92,0,0,1-.4,2.57,4,4,0,0,1-1.17,1.81A2.86,2.86,0,0,1,73.82,19Zm0-1.14a1.8,1.8,0,0,0,1.25-.47A3.05,3.05,0,0,0,75.85,16,7.52,7.52,0,0,0,76.11,14a7.57,7.57,0,0,0-.26-2.1,3,3,0,0,0-.78-1.34,1.91,1.91,0,0,0-2.51,0,3,3,0,0,0-.78,1.34,7.19,7.19,0,0,0-.27,2.1A7.14,7.14,0,0,0,71.78,16a3.05,3.05,0,0,0,.78,1.35A1.8,1.8,0,0,0,73.82,17.85Z"/><path class="cls-2" d="M86.08,19a2.89,2.89,0,0,1-1.94-.66A4.06,4.06,0,0,1,83,16.52,7.93,7.93,0,0,1,82.57,14,7.92,7.92,0,0,1,83,11.36a4.08,4.08,0,0,1,1.18-1.8,3.22,3.22,0,0,1,3.88,0,4,4,0,0,1,1.17,1.8A7.92,7.92,0,0,1,89.58,14a7.93,7.93,0,0,1-.39,2.57A4,4,0,0,1,88,18.33,2.91,2.91,0,0,1,86.08,19Zm0-1.14a1.8,1.8,0,0,0,1.25-.47A3.05,3.05,0,0,0,88.11,16,7.14,7.14,0,0,0,88.38,14a7.19,7.19,0,0,0-.27-2.1,3,3,0,0,0-.78-1.34,1.9,1.9,0,0,0-2.5,0A3,3,0,0,0,84,11.85a7.19,7.19,0,0,0-.27,2.1A7.14,7.14,0,0,0,84,16a3.06,3.06,0,0,0,.79,1.35A1.8,1.8,0,0,0,86.08,17.85Z"/><path class="cls-2" d="M91.57,17.22a.5.5,0,0,1,.19,0,.74.74,0,0,1,.23.14,2,2,0,0,0,.66.41,2.47,2.47,0,0,0,2-.12,2.15,2.15,0,0,0,1.13-1.94,2,2,0,0,0-.31-1.17,2,2,0,0,0-.8-.67,2.51,2.51,0,0,0-1-.22,2.13,2.13,0,0,0-.37,0l-.31.07a1,1,0,0,1-.28,0,.44.44,0,0,1-.35-.15.6.6,0,0,1-.12-.38.59.59,0,0,1,0-.23.8.8,0,0,1,.14-.22l2.74-3,.23.27h-4A.55.55,0,0,1,91,9.94a.52.52,0,0,1-.15-.38A.51.51,0,0,1,91,9.19a.57.57,0,0,1,.38-.14h4.56a.52.52,0,0,1,.45.17.59.59,0,0,1,.14.39.46.46,0,0,1,0,.23.74.74,0,0,1-.16.2l-2.73,3-.32-.28a1,1,0,0,1,.32-.11,2.6,2.6,0,0,1,.42,0,2.88,2.88,0,0,1,1.45.38,2.92,2.92,0,0,1,1,1.07,3.15,3.15,0,0,1,.39,1.59,3.31,3.31,0,0,1-.46,1.75,3.14,3.14,0,0,1-1.27,1.15,4,4,0,0,1-1.81.41,3.43,3.43,0,0,1-1.1-.18,2.79,2.79,0,0,1-.93-.51.55.55,0,0,1-.25-.22.62.62,0,0,1-.06-.26.6.6,0,0,1,.16-.4A.51.51,0,0,1,91.57,17.22Z"/><path class="cls-2" d="M103.38,18.85a.54.54,0,0,1-.4-.17.6.6,0,0,1-.16-.41V10.61l.23.09L99.7,15.07l0-.17h5.12a.54.54,0,0,1,.38.15.52.52,0,0,1,.15.38.49.49,0,0,1-.15.36.53.53,0,0,1-.38.14H98.88a.56.56,0,0,1-.39-.16.54.54,0,0,1-.17-.4.48.48,0,0,1,.14-.36l4.46-5.74a.62.62,0,0,1,.48-.22.5.5,0,0,1,.39.16.55.55,0,0,1,.15.4v8.66a.56.56,0,0,1-.16.41A.53.53,0,0,1,103.38,18.85Z"/><rect class="cls-1" width="28.75" height="28.75"/></g></g></svg>