<svg xmlns="http://www.w3.org/2000/svg" viewBox="0 0 106.84 28.75"><defs><style>.cls-1{fill:#1f8ebe;}.cls-2{fill:#363026;}</style></defs><g id="Layer_2" data-name="Layer 2"><g id="Layer_1-2" data-name="Layer 1"><path class="cls-1" d="M34.32,14a.84.84,0,0,1-.59-.23.79.79,0,0,1-.23-.56.74.74,0,0,1,.23-.54.87.87,0,0,1,.59-.21h5.62a.84.84,0,0,1,.59.21.74.74,0,0,1,.23.54.79.79,0,0,1-.23.56.81.81,0,0,1-.59.23Zm0,2.71a.8.8,0,0,1-.59-.23A.76.76,0,0,1,33.5,16a.71.71,0,0,1,.23-.54.88.88,0,0,1,.59-.22h5.62a.84.84,0,0,1,.59.22.71.71,0,0,1,.23.54.79.79,0,0,1-.82.78Z"/><path class="cls-2" d="M52,17.8a.54.54,0,0,1,.38.15.52.52,0,0,1,.15.38.5.5,0,0,1-.15.37.54.54,0,0,1-.38.15H46.94a.6.6,0,0,1-.42-.15.54.54,0,0,1-.16-.4.62.62,0,0,1,.17-.41l3.16-3.45a7.17,7.17,0,0,0,1.05-1.37,2.42,2.42,0,0,0,.37-1.24,1.87,1.87,0,0,0-.25-1,1.64,1.64,0,0,0-.68-.65,2.24,2.24,0,0,0-2.09.06,2,2,0,0,0-.8.91.66.66,0,0,1-.22.22.54.54,0,0,1-.25.06.57.57,0,0,1-.37-.15.4.4,0,0,1-.19-.34.52.52,0,0,1,.09-.29l.22-.3a3.09,3.09,0,0,1,1.16-1.08,3.26,3.26,0,0,1,1.5-.37,3.41,3.41,0,0,1,1.63.36,2.44,2.44,0,0,1,1,1,3,3,0,0,1,.36,1.47,3.52,3.52,0,0,1-.19,1.09A5.12,5.12,0,0,1,51.49,14a11.06,11.06,0,0,1-1,1.23L48,17.94l-.14-.14Z"/><path class="cls-2" d="M60.8,8.88a3.1,3.1,0,0,1,1.4.3,2.83,2.83,0,0,1,1,.82,3.68,3.68,0,0,1,.61,1.16A4.25,4.25,0,0,1,64,12.49a6.78,6.78,0,0,1-.15,1.34,8.24,8.24,0,0,1-.47,1.49,7,7,0,0,1-.82,1.45A6.22,6.22,0,0,1,61.4,18a5.52,5.52,0,0,1-1.61.86.7.7,0,0,1-.23,0,.6.6,0,0,1-.39-.14.49.49,0,0,1-.18-.42.48.48,0,0,1,.13-.34.71.71,0,0,1,.33-.22A4.83,4.83,0,0,0,60.9,17a6.09,6.09,0,0,0,1.2-1.37,4.53,4.53,0,0,0,.68-1.66l.34-.11a3.18,3.18,0,0,1-.59.7,2.94,2.94,0,0,1-.85.54,2.62,2.62,0,0,1-1.07.21A2.45,2.45,0,0,1,59.47,15a2.93,2.93,0,0,1-.94-.7,3.34,3.34,0,0,1-.87-2.24,3.19,3.19,0,0,1,.41-1.59A3.27,3.27,0,0,1,59.2,9.32,3,3,0,0,1,60.8,8.88Zm0,1a1.94,1.94,0,0,0-1.75,1,2.23,2.23,0,0,0-.27,1.11,2.38,2.38,0,0,0,.24,1,1.89,1.89,0,0,0,1.74,1.09,2.07,2.07,0,0,0,1.13-.3,2,2,0,0,0,.74-.79A2.33,2.33,0,0,0,62.9,12a2.14,2.14,0,0,0-.26-1,1.9,1.9,0,0,0-.72-.77A2.08,2.08,0,0,0,60.81,9.93Z"/><path class="cls-2" d="M67.89,18.9a4.2,4.2,0,0,1-1.14-.17,2.87,2.87,0,0,1-1-.53.58.58,0,0,1-.18-.25.65.65,0,0,1-.07-.29.46.46,0,0,1,.14-.33.5.5,0,0,1,.39-.16.74.74,0,0,1,.42.18,2.65,2.65,0,0,0,.68.38,2.31,2.31,0,0,0,.76.14,2.78,2.78,0,0,0,1.31-.31,2.33,2.33,0,0,0,.91-.85,2.27,2.27,0,0,0,.33-1.21,2.21,2.21,0,0,0-.29-1.13,2,2,0,0,0-.8-.75,2.58,2.58,0,0,0-1.17-.26,2.46,2.46,0,0,0-.88.15,3.83,3.83,0,0,0-.67.3,1.05,1.05,0,0,1-.46.15.66.66,0,0,1-.42-.12.57.57,0,0,1-.21-.3.79.79,0,0,1,0-.34l.55-3.71a.56.56,0,0,1,.2-.31.52.52,0,0,1,.37-.13h4.16a.51.51,0,0,1,.53.53.54.54,0,0,1-.15.38.52.52,0,0,1-.38.15H66.91l.14-.13-.51,3.24-.23-.3a2.06,2.06,0,0,1,.47-.28,3.93,3.93,0,0,1,.73-.23,3.39,3.39,0,0,1,.84-.1,3.3,3.3,0,0,1,1.64.41,3.09,3.09,0,0,1,1.14,1.13,3.15,3.15,0,0,1,.42,1.64,3.21,3.21,0,0,1-.28,1.36,3.09,3.09,0,0,1-.77,1.09,3.58,3.58,0,0,1-1.16.71A4,4,0,0,1,67.89,18.9Z"/><path class="cls-2" d="M75.72,18.9a4.2,4.2,0,0,1-1.14-.17,2.91,2.91,0,0,1-1-.53.8.8,0,0,1-.18-.25.82.82,0,0,1-.07-.29.53.53,0,0,1,.53-.49.74.74,0,0,1,.42.18,2.89,2.89,0,0,0,.69.38,2.22,2.22,0,0,0,.76.14A2.78,2.78,0,0,0,77,17.56a2.48,2.48,0,0,0,.91-.85,2.35,2.35,0,0,0,.32-1.21A2.2,2.2,0,0,0,78,14.37a2.06,2.06,0,0,0-.8-.75A2.58,2.58,0,0,0,76,13.36a2.42,2.42,0,0,0-.88.15,3.52,3.52,0,0,0-.67.3A1.09,1.09,0,0,1,74,14a.7.7,0,0,1-.42-.12.55.55,0,0,1-.2-.3.79.79,0,0,1,0-.34l.55-3.71a.54.54,0,0,1,.19-.31.55.55,0,0,1,.38-.13h4.16A.54.54,0,0,1,79,9.2a.52.52,0,0,1,.15.38.51.51,0,0,1-.53.53H74.74l.14-.13-.52,3.24-.22-.3a2.06,2.06,0,0,1,.47-.28,4.07,4.07,0,0,1,.72-.23,3.47,3.47,0,0,1,.85-.1,3.26,3.26,0,0,1,1.63.41A3.09,3.09,0,0,1,79,13.85a3.15,3.15,0,0,1,.42,1.64,3.37,3.37,0,0,1-.27,1.36,3.23,3.23,0,0,1-.77,1.09,3.69,3.69,0,0,1-1.16.71A4.05,4.05,0,0,1,75.72,18.9Z"/><path class="cls-2" d="M90,18.85a.54.54,0,0,1-.4-.17.56.56,0,0,1-.16-.41V10.61l.22.09-3.34,4.37-.06-.17h5.13a.51.51,0,0,1,.37.15.51.51,0,0,1,.16.38.46.46,0,0,1-.16.36.5.5,0,0,1-.37.14h-5.9a.52.52,0,0,1-.38-.16.55.55,0,0,1-.18-.4.52.52,0,0,1,.14-.36l4.47-5.74a.51.51,0,0,1,.22-.17.59.59,0,0,1,.25,0,.54.54,0,0,1,.4.16.55.55,0,0,1,.15.4v8.66a.56.56,0,0,1-.16.41A.54.54,0,0,1,90,18.85Z"/><path class="cls-2" d="M94,17.22a.42.42,0,0,1,.18,0,.77.77,0,0,1,.24.14,2.06,2.06,0,0,0,.65.41,2.41,2.41,0,0,0,.87.15A2.34,2.34,0,0,0,97,17.69a2.19,2.19,0,0,0,.82-.78,2.12,2.12,0,0,0,.31-1.16,2,2,0,0,0-.31-1.17,2,2,0,0,0-.8-.67,2.53,2.53,0,0,0-1-.22,2,2,0,0,0-.36,0l-.32.07a.84.84,0,0,1-.27,0,.44.44,0,0,1-.35-.15.6.6,0,0,1-.13-.38.59.59,0,0,1,.05-.23.8.8,0,0,1,.14-.22l2.74-3,.23.27h-4a.49.49,0,0,1-.38-.16.52.52,0,0,1-.15-.38.51.51,0,0,1,.15-.37.56.56,0,0,1,.38-.14h4.56a.52.52,0,0,1,.45.17.64.64,0,0,1,.14.39.59.59,0,0,1-.05.23.74.74,0,0,1-.16.2l-2.73,3-.32-.28a.92.92,0,0,1,.32-.11,2.6,2.6,0,0,1,.42,0,2.87,2.87,0,0,1,1.44.38,2.77,2.77,0,0,1,1.05,1.07,3.15,3.15,0,0,1,.4,1.59,3.22,3.22,0,0,1-.47,1.75,3.11,3.11,0,0,1-1.26,1.15,4,4,0,0,1-1.82.41,3.47,3.47,0,0,1-1.1-.18,2.62,2.62,0,0,1-.93-.51.52.52,0,0,1-.24-.22.62.62,0,0,1-.06-.26.6.6,0,0,1,.16-.4A.49.49,0,0,1,94,17.22Z"/><path class="cls-2" d="M103.19,18.9a4.09,4.09,0,0,1-1.14-.17,2.91,2.91,0,0,1-1-.53.8.8,0,0,1-.18-.25.65.65,0,0,1-.07-.29.48.48,0,0,1,.15-.33.46.46,0,0,1,.38-.16.74.74,0,0,1,.42.18,2.89,2.89,0,0,0,.69.38,2.21,2.21,0,0,0,.75.14,2.8,2.8,0,0,0,1.32-.31,2.37,2.37,0,0,0,.9-.85,2.27,2.27,0,0,0,.33-1.21,2.11,2.11,0,0,0-.29-1.13,2,2,0,0,0-.79-.75,2.58,2.58,0,0,0-1.17-.26,2.42,2.42,0,0,0-.88.15,3.63,3.63,0,0,0-.68.3,1,1,0,0,1-.46.15.66.66,0,0,1-.42-.12.55.55,0,0,1-.2-.3.79.79,0,0,1,0-.34l.54-3.71a.62.62,0,0,1,.2-.31.55.55,0,0,1,.38-.13h4.16a.51.51,0,0,1,.37.15.49.49,0,0,1,.16.38.51.51,0,0,1-.16.38.51.51,0,0,1-.37.15h-3.88l.14-.13-.52,3.24-.23-.3a2.31,2.31,0,0,1,.47-.28,4.19,4.19,0,0,1,.73-.23,3.47,3.47,0,0,1,.85-.1,3.26,3.26,0,0,1,1.63.41,3.09,3.09,0,0,1,1.14,1.13,3.15,3.15,0,0,1,.42,1.64,3.37,3.37,0,0,1-.27,1.36,3.23,3.23,0,0,1-.77,1.09,3.69,3.69,0,0,1-1.16.71A4.05,4.05,0,0,1,103.19,18.9Z"/><circle class="cls-1" cx="14.37" cy="14.37" r="14.37"/></g></g></svg>