<svg xmlns="http://www.w3.org/2000/svg" viewBox="0 0 438.78 67.83"><defs><style>.cls-1{fill:#363026;}.cls-2{fill:#1f8ebe;}</style></defs><g id="Layer_2" data-name="Layer 2"><g id="Layer_1-2" data-name="Layer 1"><path class="cls-1" d="M5.75,66.64a.52.52,0,0,1,.38.15.55.55,0,0,1,.16.38.51.51,0,0,1-.16.37.52.52,0,0,1-.38.15H.67a.58.58,0,0,1-.41-.15.51.51,0,0,1-.16-.4.54.54,0,0,1,.17-.4l3.16-3.46a7.17,7.17,0,0,0,1.05-1.37,2.48,2.48,0,0,0,.36-1.24,2,2,0,0,0-.24-1A1.64,1.64,0,0,0,3.92,59a2.19,2.19,0,0,0-1-.23,2.15,2.15,0,0,0-1.07.29A2.07,2.07,0,0,0,1,60a.52.52,0,0,1-.22.22.5.5,0,0,1-.24.06.64.64,0,0,1-.38-.14A.45.45,0,0,1,0,59.79a.52.52,0,0,1,.09-.29,2.47,2.47,0,0,1,.22-.29,2.87,2.87,0,0,1,1.16-1.08A3.24,3.24,0,0,1,3,57.75a3.44,3.44,0,0,1,1.63.36,2.47,2.47,0,0,1,1,1A3,3,0,0,1,6,60.61a3.24,3.24,0,0,1-.19,1.08,4.72,4.72,0,0,1-.58,1.14,9.88,9.88,0,0,1-1,1.23L1.78,66.78l-.14-.14Z"/><path class="cls-1" d="M14.91,67.83A2.89,2.89,0,0,1,13,67.17a4.08,4.08,0,0,1-1.18-1.8,8.76,8.76,0,0,1,0-5.17A4,4,0,0,1,13,58.41a2.89,2.89,0,0,1,1.94-.66,2.91,2.91,0,0,1,1.94.66A4,4,0,0,1,18,60.2a8.76,8.76,0,0,1,0,5.17,4,4,0,0,1-1.17,1.8A2.91,2.91,0,0,1,14.91,67.83Zm0-1.13a1.76,1.76,0,0,0,1.25-.48,3.05,3.05,0,0,0,.78-1.35,8.19,8.19,0,0,0,0-4.17,3,3,0,0,0-.78-1.35,1.9,1.9,0,0,0-2.5,0,3,3,0,0,0-.79,1.35,8.19,8.19,0,0,0,0,4.17,3.06,3.06,0,0,0,.79,1.35A1.76,1.76,0,0,0,14.91,66.7Z"/><path class="cls-1" d="M23.32,67.83a2.91,2.91,0,0,1-1.94-.66,4.06,4.06,0,0,1-1.17-1.8,8.55,8.55,0,0,1,0-5.17,4,4,0,0,1,1.17-1.79,3.18,3.18,0,0,1,3.88,0,4,4,0,0,1,1.17,1.79,8.76,8.76,0,0,1,0,5.17,4,4,0,0,1-1.17,1.8A2.89,2.89,0,0,1,23.32,67.83Zm0-1.13a1.77,1.77,0,0,0,1.26-.48,3,3,0,0,0,.77-1.35,8.19,8.19,0,0,0,0-4.17,2.9,2.9,0,0,0-.77-1.35,1.91,1.91,0,0,0-2.51,0,3,3,0,0,0-.78,1.35,7.9,7.9,0,0,0,0,4.17,3.05,3.05,0,0,0,.78,1.35A1.76,1.76,0,0,0,23.32,66.7Z"/><path class="cls-1" d="M31.74,67.83a2.89,2.89,0,0,1-1.94-.66,4.08,4.08,0,0,1-1.18-1.8,8.55,8.55,0,0,1,0-5.17,4,4,0,0,1,1.18-1.79,3.18,3.18,0,0,1,3.88,0,4,4,0,0,1,1.16,1.79,8.55,8.55,0,0,1,0,5.17,4,4,0,0,1-1.16,1.8A2.91,2.91,0,0,1,31.74,67.83Zm0-1.13A1.76,1.76,0,0,0,33,66.22a3.05,3.05,0,0,0,.78-1.35,8.49,8.49,0,0,0,0-4.17A3,3,0,0,0,33,59.35a1.8,1.8,0,0,0-1.25-.47,1.82,1.82,0,0,0-1.26.47,3,3,0,0,0-.78,1.35,8.19,8.19,0,0,0,0,4.17,3.05,3.05,0,0,0,.78,1.35A1.79,1.79,0,0,0,31.74,66.7Z"/><path class="cls-1" d="M44,67.83a2.91,2.91,0,0,1-1.94-.66,4,4,0,0,1-1.17-1.8,8.55,8.55,0,0,1,0-5.17,4,4,0,0,1,1.17-1.79,3.18,3.18,0,0,1,3.88,0,4,4,0,0,1,1.17,1.79,8.76,8.76,0,0,1,0,5.17,4,4,0,0,1-1.17,1.8A2.89,2.89,0,0,1,44,67.83Zm0-1.13a1.74,1.74,0,0,0,1.25-.48A3.05,3.05,0,0,0,46,64.87a8.19,8.19,0,0,0,0-4.17,3,3,0,0,0-.78-1.35,1.9,1.9,0,0,0-2.5,0A3.1,3.1,0,0,0,42,60.7a8.19,8.19,0,0,0,0,4.17,3.16,3.16,0,0,0,.79,1.35A1.76,1.76,0,0,0,44,66.7Z"/><path class="cls-1" d="M52.42,67.83a2.87,2.87,0,0,1-1.94-.66,4.08,4.08,0,0,1-1.18-1.8,8.55,8.55,0,0,1,0-5.17,4,4,0,0,1,1.18-1.79,3.17,3.17,0,0,1,3.87,0,4,4,0,0,1,1.17,1.79,8.55,8.55,0,0,1,0,5.17,4,4,0,0,1-1.17,1.8A2.86,2.86,0,0,1,52.42,67.83Zm0-1.13a1.76,1.76,0,0,0,1.25-.48,3.05,3.05,0,0,0,.78-1.35,8.49,8.49,0,0,0,0-4.17,3,3,0,0,0-.78-1.35,1.91,1.91,0,0,0-2.51,0,3,3,0,0,0-.78,1.35,8.19,8.19,0,0,0,0,4.17,3.05,3.05,0,0,0,.78,1.35A1.77,1.77,0,0,0,52.42,66.7Z"/><path class="cls-1" d="M60.83,67.83a2.89,2.89,0,0,1-1.94-.66,4.08,4.08,0,0,1-1.18-1.8,8.76,8.76,0,0,1,0-5.17,4,4,0,0,1,1.18-1.79,3.18,3.18,0,0,1,3.88,0,4,4,0,0,1,1.17,1.79,8.76,8.76,0,0,1,0,5.17,4,4,0,0,1-1.17,1.8A2.91,2.91,0,0,1,60.83,67.83Zm0-1.13a1.76,1.76,0,0,0,1.25-.48,3.05,3.05,0,0,0,.78-1.35,8.19,8.19,0,0,0,0-4.17,3,3,0,0,0-.78-1.35,1.9,1.9,0,0,0-2.5,0,3,3,0,0,0-.79,1.35,8.19,8.19,0,0,0,0,4.17,3.06,3.06,0,0,0,.79,1.35A1.74,1.74,0,0,0,60.83,66.7Z"/><path class="cls-1" d="M375.29,66.07l.19,0a.56.56,0,0,1,.23.15,2.2,2.2,0,0,0,.66.4,2.14,2.14,0,0,0,.87.16,2.26,2.26,0,0,0,1.93-1,2.18,2.18,0,0,0,.31-1.17,2,2,0,0,0-.31-1.16,1.94,1.94,0,0,0-.8-.68,2.55,2.55,0,0,0-1-.21,2,2,0,0,0-.36,0,3,3,0,0,0-.32.06.91.91,0,0,1-.27,0,.41.41,0,0,1-.35-.16.57.57,0,0,1-.13-.37.6.6,0,0,1,.05-.24.51.51,0,0,1,.14-.21l2.74-3,.22.27h-4a.52.52,0,0,1-.38-.15.54.54,0,0,1-.15-.38.48.48,0,0,1,.15-.37.52.52,0,0,1,.38-.15h4.56a.55.55,0,0,1,.45.17.64.64,0,0,1,.14.39.46.46,0,0,1-.06.23.55.55,0,0,1-.15.2l-2.73,3-.32-.28a.78.78,0,0,1,.32-.1,1.81,1.81,0,0,1,.42,0,2.77,2.77,0,0,1,1.44.38,2.74,2.74,0,0,1,1.05,1.06,3.19,3.19,0,0,1,.39,1.6,3.24,3.24,0,0,1-.46,1.75,3.12,3.12,0,0,1-1.27,1.14,4,4,0,0,1-1.81.41,3.47,3.47,0,0,1-1.1-.18,2.47,2.47,0,0,1-.93-.51.52.52,0,0,1-.24-.22.47.47,0,0,1-.07-.25.64.64,0,0,1,.17-.41A.48.48,0,0,1,375.29,66.07Z"/><path class="cls-1" d="M389.36,67.83a2.91,2.91,0,0,1-1.94-.66,4.15,4.15,0,0,1-1.17-1.8,8.55,8.55,0,0,1,0-5.17,4.12,4.12,0,0,1,1.17-1.79,2.91,2.91,0,0,1,1.94-.66,2.87,2.87,0,0,1,1.94.66,4,4,0,0,1,1.17,1.79,8.76,8.76,0,0,1,0,5.17,4,4,0,0,1-1.17,1.8A2.87,2.87,0,0,1,389.36,67.83Zm0-1.13a1.77,1.77,0,0,0,1.26-.48,3,3,0,0,0,.77-1.35,8.19,8.19,0,0,0,0-4.17,2.9,2.9,0,0,0-.77-1.35,1.91,1.91,0,0,0-2.51,0,3,3,0,0,0-.78,1.35,7.9,7.9,0,0,0,0,4.17,3.05,3.05,0,0,0,.78,1.35A1.76,1.76,0,0,0,389.36,66.7Z"/><path class="cls-1" d="M397.78,67.83a2.89,2.89,0,0,1-1.94-.66,4.08,4.08,0,0,1-1.18-1.8,8.55,8.55,0,0,1,0-5.17,4,4,0,0,1,1.18-1.79,3.18,3.18,0,0,1,3.88,0,4.12,4.12,0,0,1,1.17,1.79,8.76,8.76,0,0,1,0,5.17,4.15,4.15,0,0,1-1.17,1.8A2.91,2.91,0,0,1,397.78,67.83Zm0-1.13a1.76,1.76,0,0,0,1.25-.48,3.05,3.05,0,0,0,.78-1.35,8.49,8.49,0,0,0,0-4.17,3,3,0,0,0-.78-1.35,1.8,1.8,0,0,0-1.25-.47,1.82,1.82,0,0,0-1.26.47,3,3,0,0,0-.78,1.35,8.19,8.19,0,0,0,0,4.17,3.05,3.05,0,0,0,.78,1.35A1.79,1.79,0,0,0,397.78,66.7Z"/><path class="cls-1" d="M406.19,67.83a2.91,2.91,0,0,1-1.94-.66,4,4,0,0,1-1.17-1.8,8.55,8.55,0,0,1,0-5.17,4,4,0,0,1,1.17-1.79,3.18,3.18,0,0,1,3.88,0,4,4,0,0,1,1.17,1.79,8.76,8.76,0,0,1,0,5.17,4,4,0,0,1-1.17,1.8A2.89,2.89,0,0,1,406.19,67.83Zm0-1.13a1.74,1.74,0,0,0,1.25-.48,3,3,0,0,0,.78-1.35,8.19,8.19,0,0,0,0-4.17,2.91,2.91,0,0,0-.78-1.35,1.9,1.9,0,0,0-2.5,0,3.1,3.1,0,0,0-.79,1.35,8.19,8.19,0,0,0,0,4.17,3.16,3.16,0,0,0,.79,1.35A1.76,1.76,0,0,0,406.19,66.7Z"/><path class="cls-1" d="M418.46,67.83a2.89,2.89,0,0,1-1.94-.66,4.08,4.08,0,0,1-1.18-1.8,8.55,8.55,0,0,1,0-5.17,4,4,0,0,1,1.18-1.79,3.17,3.17,0,0,1,3.87,0,4,4,0,0,1,1.17,1.79,8.55,8.55,0,0,1,0,5.17,4,4,0,0,1-1.17,1.8A2.86,2.86,0,0,1,418.46,67.83Zm0-1.13a1.76,1.76,0,0,0,1.25-.48,3.05,3.05,0,0,0,.78-1.35,8.49,8.49,0,0,0,0-4.17,3,3,0,0,0-.78-1.35,1.91,1.91,0,0,0-2.51,0,3,3,0,0,0-.78,1.35,8.19,8.19,0,0,0,0,4.17,3.05,3.05,0,0,0,.78,1.35A1.77,1.77,0,0,0,418.46,66.7Z"/><path class="cls-1" d="M426.87,67.83a2.89,2.89,0,0,1-1.94-.66,4.08,4.08,0,0,1-1.18-1.8,8.76,8.76,0,0,1,0-5.17,4,4,0,0,1,1.18-1.79,3.18,3.18,0,0,1,3.88,0A4,4,0,0,1,430,60.2a8.76,8.76,0,0,1,0,5.17,4,4,0,0,1-1.17,1.8A2.91,2.91,0,0,1,426.87,67.83Zm0-1.13a1.76,1.76,0,0,0,1.25-.48,3.05,3.05,0,0,0,.78-1.35,8.19,8.19,0,0,0,0-4.17,3,3,0,0,0-.78-1.35,1.9,1.9,0,0,0-2.5,0,3,3,0,0,0-.79,1.35,8.19,8.19,0,0,0,0,4.17,3.06,3.06,0,0,0,.79,1.35A1.76,1.76,0,0,0,426.87,66.7Z"/><path class="cls-1" d="M435.28,67.83a2.91,2.91,0,0,1-1.94-.66,4.06,4.06,0,0,1-1.17-1.8,8.55,8.55,0,0,1,0-5.17,4,4,0,0,1,1.17-1.79,3.18,3.18,0,0,1,3.88,0,4,4,0,0,1,1.17,1.79,8.76,8.76,0,0,1,0,5.17,4,4,0,0,1-1.17,1.8A2.89,2.89,0,0,1,435.28,67.83Zm0-1.13a1.77,1.77,0,0,0,1.26-.48,3,3,0,0,0,.77-1.35,8.19,8.19,0,0,0,0-4.17,2.9,2.9,0,0,0-.77-1.35,1.91,1.91,0,0,0-2.51,0,3,3,0,0,0-.78,1.35,7.9,7.9,0,0,0,0,4.17,3.05,3.05,0,0,0,.78,1.35A1.76,1.76,0,0,0,435.28,66.7Z"/><path class="cls-2" d="M423.23,46H4.16a1,1,0,0,1,0-1.88H423.23a1,1,0,0,1,0,1.88Z"/><polygon class="cls-2" points="8.72 52.74 10 51.36 3.2 45.04 10 38.71 8.72 37.33 0.43 45.04 8.72 52.74"/><polygon class="cls-2" points="416.83 52.74 415.54 51.36 422.35 45.04 415.54 38.71 416.83 37.33 425.11 45.04 416.83 52.74"/><path class="cls-2" d="M35.26,53.62a1,1,0,0,1-.95-.94V37.39a.95.95,0,0,1,1.89,0V52.68A.94.94,0,0,1,35.26,53.62Z"/><path class="cls-2" d="M71,53.62a.94.94,0,0,1-.94-.94V37.39a.94.94,0,0,1,1.88,0V52.68A.94.94,0,0,1,71,53.62Z"/><path class="cls-2" d="M211.89,53.62a.94.94,0,0,1-.94-.94V37.39a.95.95,0,0,1,1.89,0V52.68A.94.94,0,0,1,211.89,53.62Z"/><path class="cls-2" d="M352.84,53.62a.94.94,0,0,1-.94-.94V37.39a.94.94,0,1,1,1.88,0V52.68A.94.94,0,0,1,352.84,53.62Z"/><path class="cls-2" d="M388.53,53.62a.94.94,0,0,1-.94-.94V37.39a.95.95,0,0,1,1.89,0V52.68A1,1,0,0,1,388.53,53.62Z"/><rect class="cls-2" x="56.58" width="28.75" height="28.75"/><circle class="cls-2" cx="352.84" cy="14.37" r="14.37"/><polygon class="cls-2" points="211.9 0 195.3 28.75 228.49 28.75 211.9 0"/></g></g></svg>