<svg xmlns="http://www.w3.org/2000/svg" viewBox="0 0 102.86 28.75"><defs><style>.cls-1{fill:#1f8ebe;}.cls-2{fill:#363026;}</style></defs><g id="Layer_2" data-name="Layer 2"><g id="Layer_1-2" data-name="Layer 1"><path class="cls-1" d="M34.32,14a.84.84,0,0,1-.59-.23.79.79,0,0,1-.23-.56.74.74,0,0,1,.23-.54.87.87,0,0,1,.59-.21h5.62a.84.84,0,0,1,.59.21.74.74,0,0,1,.23.54.79.79,0,0,1-.23.56.81.81,0,0,1-.59.23Zm0,2.71a.8.8,0,0,1-.59-.23A.76.76,0,0,1,33.5,16a.71.71,0,0,1,.23-.54.88.88,0,0,1,.59-.22h5.62a.84.84,0,0,1,.59.22.71.71,0,0,1,.23.54.79.79,0,0,1-.82.78Z"/><path class="cls-2" d="M52,17.8a.54.54,0,0,1,.38.15.52.52,0,0,1,.15.38.5.5,0,0,1-.15.37.54.54,0,0,1-.38.15H46.94a.6.6,0,0,1-.42-.15.54.54,0,0,1-.16-.4.62.62,0,0,1,.17-.41l3.16-3.45a7.17,7.17,0,0,0,1.05-1.37,2.42,2.42,0,0,0,.37-1.24,1.87,1.87,0,0,0-.25-1,1.64,1.64,0,0,0-.68-.65,2.24,2.24,0,0,0-2.09.06,2,2,0,0,0-.8.91.66.66,0,0,1-.22.22.54.54,0,0,1-.25.06.57.57,0,0,1-.37-.15.4.4,0,0,1-.19-.34.52.52,0,0,1,.09-.29l.22-.3a3.09,3.09,0,0,1,1.16-1.08,3.26,3.26,0,0,1,1.5-.37,3.41,3.41,0,0,1,1.63.36,2.44,2.44,0,0,1,1,1,3,3,0,0,1,.36,1.47,3.52,3.52,0,0,1-.19,1.09A5.12,5.12,0,0,1,51.49,14a11.06,11.06,0,0,1-1,1.23L48,17.94l-.14-.14Z"/><path class="cls-2" d="M59.94,18.85a.58.58,0,0,1-.43-.17.57.57,0,0,1-.17-.41v-8l.17.19-1.63,1a.51.51,0,0,1-.28.07.5.5,0,0,1-.4-.19A.57.57,0,0,1,57,11a.56.56,0,0,1,.29-.49l2.29-1.36A.77.77,0,0,1,60,9.05a.46.46,0,0,1,.37.16.56.56,0,0,1,.14.4v8.66a.56.56,0,0,1-.16.41A.62.62,0,0,1,59.94,18.85Z"/><path class="cls-2" d="M67.18,13.9l0-.19a3,3,0,0,1,1.51,1.41,2.3,2.3,0,0,1,.23,1,2.47,2.47,0,0,1-.42,1.39,2.84,2.84,0,0,1-1.12,1,3.43,3.43,0,0,1-3.14,0,3,3,0,0,1-1.11-1,2.46,2.46,0,0,1-.41-1.39,2.26,2.26,0,0,1,.25-1.1,3.13,3.13,0,0,1,.66-.82,3.8,3.8,0,0,1,.84-.53l-.07.22a2.32,2.32,0,0,1-.7-.45,2.35,2.35,0,0,1-.54-.73,2.16,2.16,0,0,1-.21-1,2.57,2.57,0,0,1,.38-1.37,2.73,2.73,0,0,1,1-1,3.07,3.07,0,0,1,1.44-.35,3,3,0,0,1,1.44.35,2.85,2.85,0,0,1,1,1,2.49,2.49,0,0,1,.39,1.37,2.14,2.14,0,0,1-.23,1,2.45,2.45,0,0,1-.55.71A2.71,2.71,0,0,1,67.18,13.9Zm-1.4,4a2,2,0,0,0,1.42-.51,1.71,1.71,0,0,0,.29-2.16,1.83,1.83,0,0,0-.72-.63,2.22,2.22,0,0,0-2,0,1.74,1.74,0,0,0-.71.63,1.68,1.68,0,0,0,.28,2.16A2,2,0,0,0,65.78,17.87Zm-1.72-6.11a1.58,1.58,0,0,0,.23.88,1.52,1.52,0,0,0,.63.6,1.8,1.8,0,0,0,.86.22,1.77,1.77,0,0,0,.86-.22,1.62,1.62,0,0,0,.62-.6A1.72,1.72,0,0,0,67,10.57a1.87,1.87,0,0,0-2.48,0A1.59,1.59,0,0,0,64.06,11.76Z"/><path class="cls-2" d="M71.09,17.22a.45.45,0,0,1,.18,0,.68.68,0,0,1,.24.14,2.06,2.06,0,0,0,.65.41A2.37,2.37,0,0,0,73,18a2.34,2.34,0,0,0,1.11-.27,2.19,2.19,0,0,0,.82-.78,2.12,2.12,0,0,0,.31-1.16A2,2,0,0,0,75,14.58a2,2,0,0,0-.8-.67,2.53,2.53,0,0,0-1-.22,2,2,0,0,0-.36,0l-.32.07a.84.84,0,0,1-.27,0,.44.44,0,0,1-.35-.15.6.6,0,0,1-.12-.38.59.59,0,0,1,0-.23.8.8,0,0,1,.14-.22l2.74-3,.23.27h-4a.49.49,0,0,1-.38-.16.52.52,0,0,1-.15-.38.51.51,0,0,1,.15-.37.56.56,0,0,1,.38-.14h4.56a.55.55,0,0,1,.45.17.59.59,0,0,1,.14.39.59.59,0,0,1-.05.23.74.74,0,0,1-.16.2l-2.73,3-.32-.28a.92.92,0,0,1,.32-.11,2.6,2.6,0,0,1,.42,0A2.87,2.87,0,0,1,75,13,2.84,2.84,0,0,1,76,14.09a3.15,3.15,0,0,1,.4,1.59,3.22,3.22,0,0,1-.47,1.75,3,3,0,0,1-1.26,1.15,4,4,0,0,1-1.82.41,3.47,3.47,0,0,1-1.1-.18,2.8,2.8,0,0,1-.93-.51.52.52,0,0,1-.24-.22.62.62,0,0,1-.06-.26.6.6,0,0,1,.16-.4A.49.49,0,0,1,71.09,17.22Z"/><path class="cls-2" d="M84.89,19a3.18,3.18,0,0,1-1.41-.3,3,3,0,0,1-1-.82,3.87,3.87,0,0,1-.62-1.17,4.21,4.21,0,0,1-.21-1.33A6.23,6.23,0,0,1,81.8,14a8.71,8.71,0,0,1,.46-1.52A7.77,7.77,0,0,1,83.08,11a6.37,6.37,0,0,1,1.21-1.28,5.11,5.11,0,0,1,1.61-.88l.22,0a.7.7,0,0,1,.4.12.46.46,0,0,1,.18.42.56.56,0,0,1-.13.35.73.73,0,0,1-.34.21,4.82,4.82,0,0,0-1.1.61,5.85,5.85,0,0,0-1,.94,6.93,6.93,0,0,0-.78,1.16A4.81,4.81,0,0,0,82.9,14l-.33.11a3.58,3.58,0,0,1,.6-.72A3,3,0,0,1,84,12.8a2.72,2.72,0,0,1,2.21,0,3.27,3.27,0,0,1,1.57,1.75A3.15,3.15,0,0,1,88,15.81a3.05,3.05,0,0,1-.42,1.57,3.3,3.3,0,0,1-1.12,1.17A3,3,0,0,1,84.89,19Zm0-1a1.86,1.86,0,0,0,1-.28,2,2,0,0,0,.73-.75,2.32,2.32,0,0,0,.26-1.1,2.43,2.43,0,0,0-.24-1.07A1.92,1.92,0,0,0,86,14a1.8,1.8,0,0,0-1-.3,2.11,2.11,0,0,0-1.14.3,2,2,0,0,0-.73.79,2.38,2.38,0,0,0-.26,1.1,2.12,2.12,0,0,0,.25,1,2,2,0,0,0,.72.77A2.06,2.06,0,0,0,84.88,17.94Z"/><path class="cls-2" d="M91.15,18.89a.63.63,0,0,1-.41-.15.46.46,0,0,1-.18-.38.62.62,0,0,1,.06-.26l3.62-8.26.16.26H89.89a.49.49,0,0,1-.38-.16.53.53,0,0,1-.16-.38.52.52,0,0,1,.16-.37.56.56,0,0,1,.38-.14h5a.61.61,0,0,1,.42.14.53.53,0,0,1,.15.39.58.58,0,0,1-.05.26l-3.79,8.7a.49.49,0,0,1-.21.26A.59.59,0,0,1,91.15,18.89Z"/><path class="cls-2" d="M99.21,18.9a4.2,4.2,0,0,1-1.14-.17,2.87,2.87,0,0,1-1-.53.69.69,0,0,1-.19-.25.82.82,0,0,1-.07-.29.48.48,0,0,1,.15-.33.5.5,0,0,1,.39-.16.74.74,0,0,1,.42.18,2.65,2.65,0,0,0,.68.38,2.22,2.22,0,0,0,.76.14,2.78,2.78,0,0,0,1.31-.31,2.33,2.33,0,0,0,.91-.85,2.27,2.27,0,0,0,.33-1.21,2.21,2.21,0,0,0-.29-1.13,2,2,0,0,0-.8-.75,2.58,2.58,0,0,0-1.17-.26,2.42,2.42,0,0,0-.88.15,3.52,3.52,0,0,0-.67.3,1.05,1.05,0,0,1-.46.15.66.66,0,0,1-.42-.12.52.52,0,0,1-.21-.3.79.79,0,0,1,0-.34l.55-3.71a.6.6,0,0,1,.19-.31A.57.57,0,0,1,98,9.05h4.16a.54.54,0,0,1,.38.15.52.52,0,0,1,.15.38.51.51,0,0,1-.53.53H98.23l.14-.12-.52,3.23-.22-.3a2.06,2.06,0,0,1,.47-.28,3.93,3.93,0,0,1,.73-.23,3.33,3.33,0,0,1,.84-.1,3.26,3.26,0,0,1,1.63.41,3,3,0,0,1,1.14,1.13,3.06,3.06,0,0,1,.42,1.64,3.37,3.37,0,0,1-.27,1.36,3.23,3.23,0,0,1-.77,1.09,3.69,3.69,0,0,1-1.16.71A4,4,0,0,1,99.21,18.9Z"/><rect class="cls-1" width="28.75" height="28.75"/></g></g></svg>