<?xml version="1.0" encoding="UTF-8" standalone="no"?>
<svg
   xmlns:dc="http://purl.org/dc/elements/1.1/"
   xmlns:cc="http://creativecommons.org/ns#"
   xmlns:rdf="http://www.w3.org/1999/02/22-rdf-syntax-ns#"
   xmlns:svg="http://www.w3.org/2000/svg"
   xmlns="http://www.w3.org/2000/svg"
   xmlns:sodipodi="http://sodipodi.sourceforge.net/DTD/sodipodi-0.dtd"
   xmlns:inkscape="http://www.inkscape.org/namespaces/inkscape"
   viewBox="0 0 104.46 28.75"
   version="1.1"
   id="svg26"
   sodipodi:docname="V3_d_1.svg"
   inkscape:version="0.92.5 (2060ec1f9f, 2020-04-08)">
  <metadata
     id="metadata30">
    <rdf:RDF>
      <cc:Work
         rdf:about="">
        <dc:format>image/svg+xml</dc:format>
        <dc:type
           rdf:resource="http://purl.org/dc/dcmitype/StillImage" />
        <dc:title></dc:title>
      </cc:Work>
    </rdf:RDF>
  </metadata>
  <sodipodi:namedview
     pagecolor="#ffffff"
     bordercolor="#666666"
     borderopacity="1"
     objecttolerance="10"
     gridtolerance="10"
     guidetolerance="10"
     inkscape:pageopacity="0"
     inkscape:pageshadow="2"
     inkscape:window-width="918"
     inkscape:window-height="480"
     id="namedview28"
     showgrid="false"
     showguides="false"
     inkscape:zoom="3.4941605"
     inkscape:cx="83.678573"
     inkscape:cy="-8.5203423"
     inkscape:window-x="2401"
     inkscape:window-y="39"
     inkscape:window-maximized="0"
     inkscape:current-layer="svg26">
    <sodipodi:guide
       position="15.740548,16.312931"
       orientation="1,0"
       id="guide865"
       inkscape:locked="false" />
  </sodipodi:namedview>
  <defs
     id="defs4">
    <style
       id="style2">.cls-1{fill:#1f8ebe;}.cls-2{fill:#363026;}</style>
  </defs>
  <path
     class="cls-1"
     d="m 34.32,14 a 0.84,0.84 0 0 1 -0.59,-0.23 0.79,0.79 0 0 1 -0.23,-0.56 0.74,0.74 0 0 1 0.23,-0.54 0.87,0.87 0 0 1 0.59,-0.21 h 5.62 a 0.84,0.84 0 0 1 0.59,0.21 0.74,0.74 0 0 1 0.23,0.54 0.79,0.79 0 0 1 -0.23,0.56 0.81,0.81 0 0 1 -0.59,0.23 z m 0,2.71 A 0.8,0.8 0 0 1 33.73,16.48 0.76,0.76 0 0 1 33.5,16 a 0.71,0.71 0 0 1 0.23,-0.54 0.88,0.88 0 0 1 0.59,-0.22 h 5.62 a 0.84,0.84 0 0 1 0.59,0.22 0.71,0.71 0 0 1 0.23,0.54 0.79,0.79 0 0 1 -0.82,0.78 z"
     id="path6"
     inkscape:connector-curvature="0"
     style="fill:#1f8ebe" />
  <path
     class="cls-2"
     d="m 52,17.8 a 0.54,0.54 0 0 1 0.38,0.15 0.52,0.52 0 0 1 0.15,0.38 0.5,0.5 0 0 1 -0.15,0.37 0.54,0.54 0 0 1 -0.38,0.15 h -5.06 a 0.6,0.6 0 0 1 -0.42,-0.15 0.54,0.54 0 0 1 -0.16,-0.4 0.62,0.62 0 0 1 0.17,-0.41 l 3.16,-3.45 a 7.17,7.17 0 0 0 1.05,-1.37 2.42,2.42 0 0 0 0.37,-1.24 1.87,1.87 0 0 0 -0.25,-1 1.64,1.64 0 0 0 -0.68,-0.65 2.24,2.24 0 0 0 -2.09,0.06 2,2 0 0 0 -0.8,0.91 0.66,0.66 0 0 1 -0.22,0.22 0.54,0.54 0 0 1 -0.25,0.06 0.57,0.57 0 0 1 -0.37,-0.15 0.4,0.4 0 0 1 -0.19,-0.34 0.52,0.52 0 0 1 0.09,-0.29 l 0.22,-0.3 a 3.09,3.09 0 0 1 1.16,-1.08 3.26,3.26 0 0 1 1.5,-0.37 3.41,3.41 0 0 1 1.63,0.36 2.44,2.44 0 0 1 1,1 3,3 0 0 1 0.36,1.47 3.52,3.52 0 0 1 -0.19,1.09 5.12,5.12 0 0 1 -0.54,1.18 11.06,11.06 0 0 1 -1,1.23 L 48,17.94 47.86,17.8 Z"
     id="path8"
     inkscape:connector-curvature="0"
     style="fill:#363026" />
  <path
     class="cls-2"
     d="m 59.94,18.85 a 0.58,0.58 0 0 1 -0.43,-0.17 0.57,0.57 0 0 1 -0.17,-0.41 v -8 l 0.17,0.19 -1.63,1 A 0.51,0.51 0 0 1 57.6,11.53 0.5,0.5 0 0 1 57.2,11.34 0.57,0.57 0 0 1 57,11 0.56,0.56 0 0 1 57.29,10.51 l 2.29,-1.36 a 0.69,0.69 0 0 1 0.42,-0.1 0.46,0.46 0 0 1 0.37,0.16 0.54,0.54 0 0 1 0.14,0.4 v 8.66 a 0.56,0.56 0 0 1 -0.16,0.41 0.62,0.62 0 0 1 -0.41,0.17 z"
     id="path10"
     inkscape:connector-curvature="0"
     style="fill:#363026" />
  <path
     class="cls-2"
     d="M 64.41,18.89 A 0.63,0.63 0 0 1 64,18.74 0.46,0.46 0 0 1 63.82,18.36 0.62,0.62 0 0 1 63.88,18.1 L 67.5,9.84 67.66,10.1 H 63.15 A 0.49,0.49 0 0 1 62.77,9.94 0.52,0.52 0 0 1 62.62,9.56 0.51,0.51 0 0 1 62.77,9.19 0.56,0.56 0 0 1 63.15,9.05 h 5.05 a 0.61,0.61 0 0 1 0.42,0.14 0.53,0.53 0 0 1 0.16,0.39 0.58,0.58 0 0 1 -0.06,0.26 l -3.79,8.7 a 0.49,0.49 0 0 1 -0.21,0.26 0.59,0.59 0 0 1 -0.31,0.09 z"
     id="path12"
     inkscape:connector-curvature="0"
     style="fill:#363026" />
  <path
     class="cls-2"
     d="m 74.67,13.9 v -0.19 a 3,3 0 0 1 0.88,0.57 2.9,2.9 0 0 1 0.63,0.84 2.3,2.3 0 0 1 0.23,1 2.47,2.47 0 0 1 -0.41,1.4 2.88,2.88 0 0 1 -1.11,1 3.35,3.35 0 0 1 -1.58,0.38 3.28,3.28 0 0 1 -1.57,-0.38 2.88,2.88 0 0 1 -1.11,-1 2.46,2.46 0 0 1 -0.41,-1.39 2.33,2.33 0 0 1 0.21,-1.13 3.25,3.25 0 0 1 0.66,-0.81 3.8,3.8 0 0 1 0.84,-0.53 l -0.08,0.22 a 2.4,2.4 0 0 1 -0.69,-0.45 2.35,2.35 0 0 1 -0.54,-0.73 2.16,2.16 0 0 1 -0.21,-1 2.57,2.57 0 0 1 0.38,-1.37 2.73,2.73 0 0 1 1,-1 3.07,3.07 0 0 1 1.44,-0.35 3,3 0 0 1 1.44,0.35 2.85,2.85 0 0 1 1,1 2.49,2.49 0 0 1 0.39,1.37 2.14,2.14 0 0 1 -0.23,1 2.45,2.45 0 0 1 -0.55,0.71 2.71,2.71 0 0 1 -0.61,0.49 z m -1.4,4 a 2,2 0 0 0 1.42,-0.51 1.6,1.6 0 0 0 0.55,-1.24 1.68,1.68 0 0 0 -0.24,-0.95 1.83,1.83 0 0 0 -0.72,-0.63 2.22,2.22 0 0 0 -2,0 1.74,1.74 0 0 0 -0.71,0.63 1.68,1.68 0 0 0 0.28,2.16 2,2 0 0 0 1.42,0.51 z m -1.72,-6.11 a 1.58,1.58 0 0 0 0.23,0.88 1.52,1.52 0 0 0 0.63,0.6 1.83,1.83 0 0 0 0.86,0.22 1.77,1.77 0 0 0 0.86,-0.22 1.56,1.56 0 0 0 0.62,-0.6 1.72,1.72 0 0 0 -0.24,-2.07 1.87,1.87 0 0 0 -2.48,0 1.59,1.59 0 0 0 -0.48,1.16 z"
     id="path14"
     inkscape:connector-curvature="0"
     style="fill:#363026" />
  <path
     class="cls-2"
     d="M 84.34,18.9 A 4.2,4.2 0 0 1 83.2,18.73 3,3 0 0 1 82.2,18.2 0.58,0.58 0 0 1 82,18 a 0.67,0.67 0 0 1 -0.08,-0.29 0.48,0.48 0 0 1 0.15,-0.33 0.5,0.5 0 0 1 0.39,-0.16 0.74,0.74 0 0 1 0.42,0.18 2.65,2.65 0 0 0 0.68,0.38 2.31,2.31 0 0 0 0.76,0.14 2.86,2.86 0 0 0 1.32,-0.31 2.37,2.37 0 0 0 0.9,-0.85 2.27,2.27 0 0 0 0.33,-1.21 2.21,2.21 0 0 0 -0.29,-1.13 2,2 0 0 0 -0.8,-0.75 2.58,2.58 0 0 0 -1.17,-0.26 2.46,2.46 0 0 0 -0.88,0.15 3.83,3.83 0 0 0 -0.67,0.3 1.05,1.05 0 0 1 -0.46,0.15 0.66,0.66 0 0 1 -0.42,-0.12 0.63,0.63 0 0 1 -0.21,-0.3 0.79,0.79 0 0 1 0,-0.34 l 0.55,-3.71 a 0.56,0.56 0 0 1 0.2,-0.31 0.52,0.52 0 0 1 0.37,-0.13 h 4.16 a 0.51,0.51 0 0 1 0.53,0.53 0.54,0.54 0 0 1 -0.15,0.38 0.52,0.52 0 0 1 -0.38,0.15 H 83.36 L 83.5,10 83,13.22 82.77,12.92 a 2.06,2.06 0 0 1 0.47,-0.28 3.93,3.93 0 0 1 0.73,-0.23 3.41,3.41 0 0 1 0.85,-0.1 3.29,3.29 0 0 1 1.63,0.41 3.09,3.09 0 0 1 1.14,1.13 3.15,3.15 0 0 1 0.41,1.64 3.21,3.21 0 0 1 -0.28,1.36 3.09,3.09 0 0 1 -0.72,1.09 3.58,3.58 0 0 1 -1.16,0.71 4,4 0 0 1 -1.5,0.25 z"
     id="path16"
     inkscape:connector-curvature="0"
     style="fill:#363026" />
  <path
     class="cls-2"
     d="m 94.77,18.85 a 0.54,0.54 0 0 1 -0.4,-0.17 0.6,0.6 0 0 1 -0.16,-0.41 V 10.61 L 94.44,10.7 91.09,15.07 91,14.9 h 5.13 a 0.54,0.54 0 0 1 0.38,0.15 0.52,0.52 0 0 1 0.15,0.38 0.49,0.49 0 0 1 -0.15,0.36 0.53,0.53 0 0 1 -0.38,0.14 h -5.9 a 0.56,0.56 0 0 1 -0.38,-0.16 0.54,0.54 0 0 1 -0.17,-0.4 0.48,0.48 0 0 1 0.14,-0.36 l 4.46,-5.74 a 0.57,0.57 0 0 1 0.22,-0.17 0.6,0.6 0 0 1 0.26,0 0.5,0.5 0 0 1 0.39,0.16 0.55,0.55 0 0 1 0.15,0.4 v 8.66 a 0.56,0.56 0 0 1 -0.16,0.41 0.54,0.54 0 0 1 -0.37,0.12 z"
     id="path18"
     inkscape:connector-curvature="0"
     style="fill:#363026" />
  <path
     class="cls-2"
     d="m 100.09,18.89 a 0.6,0.6 0 0 1 -0.4,-0.15 0.46,0.46 0 0 1 -0.18,-0.38 0.6,0.6 0 0 1 0,-0.26 l 3.63,-8.26 0.15,0.26 H 98.83 A 0.47,0.47 0 0 1 98.46,9.94 0.49,0.49 0 0 1 98.3,9.56 0.49,0.49 0 0 1 98.46,9.19 0.53,0.53 0 0 1 98.83,9.05 h 5.06 a 0.64,0.64 0 0 1 0.42,0.14 0.53,0.53 0 0 1 0.15,0.39 0.75,0.75 0 0 1 0,0.26 l -3.8,8.7 a 0.47,0.47 0 0 1 -0.2,0.26 0.59,0.59 0 0 1 -0.37,0.09 z"
     id="path20"
     inkscape:connector-curvature="0"
     style="fill:#363026" />
  <polygon
     class="cls-1"
     points="33.2,28.75 0,28.75 16.6,0 "
     id="polygon22"
     style="fill:#1f8ebe"
     transform="translate(0.28531529,0.06541116)" />
</svg>
