<?xml version="1.0" encoding="UTF-8" standalone="no"?>
<svg
   xmlns:dc="http://purl.org/dc/elements/1.1/"
   xmlns:cc="http://creativecommons.org/ns#"
   xmlns:rdf="http://www.w3.org/1999/02/22-rdf-syntax-ns#"
   xmlns:svg="http://www.w3.org/2000/svg"
   xmlns="http://www.w3.org/2000/svg"
   xmlns:sodipodi="http://sodipodi.sourceforge.net/DTD/sodipodi-0.dtd"
   xmlns:inkscape="http://www.inkscape.org/namespaces/inkscape"
   viewBox="0 0 108.73 28.75"
   version="1.1"
   id="svg26"
   sodipodi:docname="V3_d_3.svg"
   inkscape:version="0.92.5 (2060ec1f9f, 2020-04-08)">
  <metadata
     id="metadata30">
    <rdf:RDF>
      <cc:Work
         rdf:about="">
        <dc:format>image/svg+xml</dc:format>
        <dc:type
           rdf:resource="http://purl.org/dc/dcmitype/StillImage" />
        <dc:title></dc:title>
      </cc:Work>
    </rdf:RDF>
  </metadata>
  <sodipodi:namedview
     pagecolor="#ffffff"
     bordercolor="#666666"
     borderopacity="1"
     objecttolerance="10"
     gridtolerance="10"
     guidetolerance="10"
     inkscape:pageopacity="0"
     inkscape:pageshadow="2"
     inkscape:window-width="918"
     inkscape:window-height="480"
     id="namedview28"
     showgrid="false"
     inkscape:zoom="3.3569391"
     inkscape:cx="72.782754"
     inkscape:cy="14.375"
     inkscape:window-x="1724"
     inkscape:window-y="163"
     inkscape:window-maximized="0"
     inkscape:current-layer="svg26" />
  <defs
     id="defs4">
    <style
       id="style2">.cls-1{fill:#1f8ebe;}.cls-2{fill:#363026;}</style>
  </defs>
  <path
     class="cls-1"
     d="m 36.55,14 a 0.82,0.82 0 0 1 -0.59,-0.23 0.76,0.76 0 0 1 -0.24,-0.56 0.71,0.71 0 0 1 0.24,-0.54 0.85,0.85 0 0 1 0.59,-0.21 h 5.61 a 0.84,0.84 0 0 1 0.59,0.21 0.71,0.71 0 0 1 0.24,0.54 0.76,0.76 0 0 1 -0.24,0.56 0.81,0.81 0 0 1 -0.59,0.23 z m 0,2.71 A 0.78,0.78 0 0 1 36,16.5 0.74,0.74 0 0 1 35.76,15.95 0.7,0.7 0 0 1 36,15.41 0.86,0.86 0 0 1 36.59,15.19 h 5.61 a 0.84,0.84 0 0 1 0.59,0.22 0.7,0.7 0 0 1 0.21,0.59 0.74,0.74 0 0 1 -0.24,0.55 0.77,0.77 0 0 1 -0.59,0.23 z"
     id="path6"
     inkscape:connector-curvature="0"
     style="fill:#1f8ebe" />
  <path
     class="cls-2"
     d="m 54.24,17.8 a 0.51,0.51 0 0 1 0.53,0.53 0.5,0.5 0 0 1 -0.15,0.37 0.52,0.52 0 0 1 -0.38,0.15 h -5.08 a 0.56,0.56 0 0 1 -0.41,-0.15 0.51,0.51 0 0 1 -0.16,-0.4 0.57,0.57 0 0 1 0.16,-0.4 l 3.17,-3.46 a 7.61,7.61 0 0 0 1,-1.37 2.51,2.51 0 0 0 0.36,-1.24 2,2 0 0 0 -0.24,-1 1.7,1.7 0 0 0 -0.68,-0.65 2.08,2.08 0 0 0 -1,-0.23 2.19,2.19 0 0 0 -1.08,0.29 2,2 0 0 0 -0.8,0.91 0.66,0.66 0 0 1 -0.22,0.22 0.53,0.53 0 0 1 -0.24,0.06 0.59,0.59 0 0 1 -0.38,-0.15 0.42,0.42 0 0 1 -0.18,-0.34 0.52,0.52 0 0 1 0.09,-0.29 2.52,2.52 0 0 1 0.22,-0.3 3,3 0 0 1 1.23,-1.07 3.2,3.2 0 0 1 1.5,-0.37 3.47,3.47 0 0 1 1.63,0.36 2.41,2.41 0 0 1 1,1 3,3 0 0 1 0.36,1.47 3.25,3.25 0 0 1 -0.19,1.09 5.12,5.12 0 0 1 -0.59,1.17 9.88,9.88 0 0 1 -1,1.23 l -2.45,2.72 -0.14,-0.14 z"
     id="path8"
     inkscape:connector-curvature="0"
     style="fill:#363026" />
  <path
     class="cls-2"
     d="m 62.39,18.9 a 3.85,3.85 0 0 1 -1.14,-0.17 2.91,2.91 0 0 1 -1,-0.53 0.8,0.8 0 0 1 -0.18,-0.25 0.65,0.65 0 0 1 -0.07,-0.29 0.49,0.49 0 0 1 0.15,-0.33 0.48,0.48 0 0 1 0.38,-0.16 0.72,0.72 0 0 1 0.42,0.18 2.89,2.89 0 0 0 0.69,0.38 2.22,2.22 0 0 0 0.76,0.14 2.78,2.78 0 0 0 1.31,-0.31 2.3,2.3 0 0 0 0.9,-0.85 2.27,2.27 0 0 0 0.33,-1.21 2.2,2.2 0 0 0 -0.28,-1.13 2,2 0 0 0 -0.8,-0.75 2.58,2.58 0 0 0 -1.17,-0.26 2.42,2.42 0 0 0 -0.88,0.15 3.52,3.52 0 0 0 -0.67,0.3 1.09,1.09 0 0 1 -0.47,0.15 0.7,0.7 0 0 1 -0.42,-0.12 0.55,0.55 0 0 1 -0.2,-0.3 0.79,0.79 0 0 1 0,-0.34 l 0.54,-3.71 a 0.62,0.62 0 0 1 0.2,-0.31 0.55,0.55 0 0 1 0.38,-0.13 h 4.16 a 0.54,0.54 0 0 1 0.38,0.15 0.52,0.52 0 0 1 0.15,0.38 0.51,0.51 0 0 1 -0.53,0.53 H 61.41 L 61.55,9.98 61,13.22 60.78,12.93 a 1.53,1.53 0 0 1 0.47,-0.28 3.38,3.38 0 0 1 0.72,-0.24 3.47,3.47 0 0 1 0.85,-0.1 3.26,3.26 0 0 1 1.63,0.41 3.09,3.09 0 0 1 1.14,1.13 3.15,3.15 0 0 1 0.41,1.64 3.37,3.37 0 0 1 -0.27,1.36 3.23,3.23 0 0 1 -0.73,1.09 3.69,3.69 0 0 1 -1.16,0.71 4.05,4.05 0 0 1 -1.45,0.25 z"
     id="path10"
     inkscape:connector-curvature="0"
     style="fill:#363026" />
  <path
     class="cls-2"
     d="m 69.64,18.89 a 0.65,0.65 0 0 1 -0.41,-0.15 0.46,0.46 0 0 1 -0.18,-0.38 0.62,0.62 0 0 1 0.06,-0.26 l 3.62,-8.25 0.16,0.25 H 68.38 A 0.51,0.51 0 0 1 68,9.94 0.52,0.52 0 0 1 67.85,9.56 0.51,0.51 0 0 1 68,9.19 0.57,0.57 0 0 1 68.38,9.05 h 5.05 a 0.65,0.65 0 0 1 0.43,0.14 0.53,0.53 0 0 1 0.15,0.39 0.66,0.66 0 0 1 -0.06,0.27 l -3.79,8.69 a 0.52,0.52 0 0 1 -0.2,0.26 0.62,0.62 0 0 1 -0.32,0.09 z"
     id="path12"
     inkscape:connector-curvature="0"
     style="fill:#363026" />
  <path
     class="cls-2"
     d="m 77.71,18.9 a 3.86,3.86 0 0 1 -1.15,-0.17 3,3 0 0 1 -1,-0.53 0.58,0.58 0 0 1 -0.18,-0.25 0.65,0.65 0 0 1 -0.07,-0.29 0.53,0.53 0 0 1 0.14,-0.33 0.5,0.5 0 0 1 0.39,-0.16 0.74,0.74 0 0 1 0.42,0.18 2.65,2.65 0 0 0 0.68,0.38 2.31,2.31 0 0 0 0.76,0.14 A 2.83,2.83 0 0 0 79,17.56 2.37,2.37 0 0 0 79.9,16.71 2.27,2.27 0 0 0 80.23,15.5 2.21,2.21 0 0 0 80,14.37 2,2 0 0 0 79.2,13.62 2.58,2.58 0 0 0 78,13.36 2.46,2.46 0 0 0 77.12,13.51 3.83,3.83 0 0 0 76.45,13.81 1.05,1.05 0 0 1 76,14 a 0.66,0.66 0 0 1 -0.42,-0.12 0.55,0.55 0 0 1 -0.2,-0.3 0.8,0.8 0 0 1 0,-0.34 l 0.55,-3.71 a 0.56,0.56 0 0 1 0.2,-0.31 0.54,0.54 0 0 1 0.37,-0.13 h 4.1 A 0.52,0.52 0 0 1 81,9.2 0.53,0.53 0 0 1 81.16,9.58 0.55,0.55 0 0 1 81,10 0.52,0.52 0 0 1 80.62,10.15 h -3.9 l 0.15,-0.13 -0.52,3.24 -0.23,-0.29 a 1.53,1.53 0 0 1 0.47,-0.28 3.29,3.29 0 0 1 0.73,-0.24 3.47,3.47 0 0 1 0.85,-0.1 3.29,3.29 0 0 1 1.63,0.41 3.09,3.09 0 0 1 1.14,1.13 3.15,3.15 0 0 1 0.42,1.64 3.27,3.27 0 0 1 -1,2.45 3.74,3.74 0 0 1 -1.17,0.71 4,4 0 0 1 -1.48,0.21 z"
     id="path14"
     inkscape:connector-curvature="0"
     style="fill:#363026" />
  <path
     class="cls-2"
     d="m 91.58,13.9 v -0.19 a 3,3 0 0 1 0.88,0.57 2.82,2.82 0 0 1 0.62,0.84 2.18,2.18 0 0 1 0.24,1 2.45,2.45 0 0 1 -0.42,1.39 2.91,2.91 0 0 1 -1.12,1 3.43,3.43 0 0 1 -3.14,0 2.88,2.88 0 0 1 -1.11,-1 A 2.45,2.45 0 0 1 87.11,16.12 2.33,2.33 0 0 1 87.34,15 3.25,3.25 0 0 1 88,14.19 4,4 0 0 1 88.83,13.66 l -0.07,0.22 a 2.4,2.4 0 0 1 -0.69,-0.45 2.35,2.35 0 0 1 -0.54,-0.73 2.16,2.16 0 0 1 -0.21,-1 2.57,2.57 0 0 1 0.38,-1.37 2.73,2.73 0 0 1 1,-1 3.07,3.07 0 0 1 1.44,-0.35 3,3 0 0 1 1.44,0.35 2.85,2.85 0 0 1 1,1 2.48,2.48 0 0 1 0.42,1.42 2.11,2.11 0 0 1 -0.22,1 2.54,2.54 0 0 1 -1.23,1.15 z m -1.4,4 a 2,2 0 0 0 1.42,-0.51 1.6,1.6 0 0 0 0.55,-1.24 1.68,1.68 0 0 0 -0.26,-0.92 1.83,1.83 0 0 0 -0.72,-0.63 2.19,2.19 0 0 0 -1,-0.23 2.14,2.14 0 0 0 -1,0.23 1.83,1.83 0 0 0 -0.72,0.63 1.68,1.68 0 0 0 -0.26,0.92 1.6,1.6 0 0 0 0.55,1.24 2,2 0 0 0 1.44,0.48 z m -1.72,-6.11 a 1.64,1.64 0 0 0 0.23,0.89 1.56,1.56 0 0 0 0.63,0.59 1.8,1.8 0 0 0 0.86,0.22 1.77,1.77 0 0 0 0.86,-0.22 1.67,1.67 0 0 0 0.62,-0.59 1.65,1.65 0 0 0 0.24,-0.89 1.59,1.59 0 0 0 -0.48,-1.19 1.87,1.87 0 0 0 -2.48,0 1.59,1.59 0 0 0 -0.48,1.16 z"
     id="path16"
     inkscape:connector-curvature="0"
     style="fill:#363026" />
  <path
     class="cls-2"
     d="m 95.48,17.22 a 0.46,0.46 0 0 1 0.19,0 0.65,0.65 0 0 1 0.23,0.14 2.23,2.23 0 0 0 0.66,0.41 2.38,2.38 0 0 0 2,-0.12 2.19,2.19 0 0 0 0.82,-0.78 2.12,2.12 0 0 0 0.31,-1.16 2,2 0 0 0 -0.31,-1.17 2,2 0 0 0 -0.8,-0.67 2.53,2.53 0 0 0 -1,-0.22 2,2 0 0 0 -0.36,0 l -0.32,0.07 a 0.84,0.84 0 0 1 -0.27,0 0.43,0.43 0 0 1 -0.35,-0.15 0.6,0.6 0 0 1 -0.12,-0.38 0.59,0.59 0 0 1 0,-0.23 0.62,0.62 0 0 1 0.14,-0.22 l 2.74,-3 0.22,0.27 h -4 A 0.49,0.49 0 0 1 94.88,9.85 0.52,0.52 0 0 1 94.73,9.47 0.51,0.51 0 0 1 94.88,9.1 0.56,0.56 0 0 1 95.26,8.96 h 4.56 a 0.52,0.52 0 0 1 0.45,0.17 0.64,0.64 0 0 1 0.14,0.39 0.59,0.59 0 0 1 0,0.23 0.74,0.74 0 0 1 -0.16,0.2 l -2.73,3 -0.32,-0.28 a 0.92,0.92 0 0 1 0.32,-0.11 2.43,2.43 0 0 1 0.42,0 2.86,2.86 0 0 1 1.44,0.37 2.77,2.77 0 0 1 1,1.07 3.15,3.15 0 0 1 0.39,1.59 3.22,3.22 0 0 1 -0.46,1.75 3,3 0 0 1 -1.26,1.15 4,4 0 0 1 -1.82,0.41 3.47,3.47 0 0 1 -1.1,-0.18 2.62,2.62 0 0 1 -0.93,-0.51 0.52,0.52 0 0 1 -0.24,-0.22 0.58,0.58 0 0 1 0.1,-0.66 0.49,0.49 0 0 1 0.42,-0.11 z"
     id="path18"
     inkscape:connector-curvature="0"
     style="fill:#363026" />
  <path
     class="cls-2"
     d="m 108.2,17.8 a 0.5,0.5 0 0 1 0.37,0.15 0.49,0.49 0 0 1 0.16,0.38 0.47,0.47 0 0 1 -0.16,0.37 0.5,0.5 0 0 1 -0.37,0.15 h -5.08 a 0.6,0.6 0 0 1 -0.42,-0.15 0.51,0.51 0 0 1 -0.16,-0.4 0.58,0.58 0 0 1 0.17,-0.4 l 3.16,-3.46 a 7.17,7.17 0 0 0 1,-1.37 2.42,2.42 0 0 0 0.37,-1.24 1.87,1.87 0 0 0 -0.25,-1 1.64,1.64 0 0 0 -0.68,-0.65 2.08,2.08 0 0 0 -1,-0.23 2.18,2.18 0 0 0 -1.07,0.29 2,2 0 0 0 -0.8,0.91 0.66,0.66 0 0 1 -0.22,0.22 0.54,0.54 0 0 1 -0.25,0.06 0.57,0.57 0 0 1 -0.37,-0.15 0.4,0.4 0 0 1 -0.19,-0.34 0.52,0.52 0 0 1 0.09,-0.29 c 0.06,-0.1 0.14,-0.19 0.22,-0.3 a 3.09,3.09 0 0 1 1.16,-1.08 3.26,3.26 0 0 1 1.5,-0.37 3.41,3.41 0 0 1 1.63,0.36 2.49,2.49 0 0 1 1,1 3,3 0 0 1 0.35,1.47 3.5,3.5 0 0 1 -0.18,1.09 4.78,4.78 0 0 1 -0.59,1.14 9.88,9.88 0 0 1 -1,1.23 l -2.45,2.72 -0.14,-0.14 z"
     id="path20"
     inkscape:connector-curvature="0"
     style="fill:#363026" />
  <rect
     class="cls-1"
     width="28.75"
     height="28.75"
     id="rect22"
     x="0.22163069"
     y="0.07625974"
     style="fill:#1f8ebe" />
</svg>
