<?xml version="1.0" encoding="UTF-8" standalone="no"?>
<svg
   xmlns:dc="http://purl.org/dc/elements/1.1/"
   xmlns:cc="http://creativecommons.org/ns#"
   xmlns:rdf="http://www.w3.org/1999/02/22-rdf-syntax-ns#"
   xmlns:svg="http://www.w3.org/2000/svg"
   xmlns="http://www.w3.org/2000/svg"
   xmlns:sodipodi="http://sodipodi.sourceforge.net/DTD/sodipodi-0.dtd"
   xmlns:inkscape="http://www.inkscape.org/namespaces/inkscape"
   viewBox="0 0 106.87 28.75"
   version="1.1"
   id="svg26"
   sodipodi:docname="V3_d_2.svg"
   inkscape:version="0.92.5 (2060ec1f9f, 2020-04-08)">
  <metadata
     id="metadata30">
    <rdf:RDF>
      <cc:Work
         rdf:about="">
        <dc:format>image/svg+xml</dc:format>
        <dc:type
           rdf:resource="http://purl.org/dc/dcmitype/StillImage" />
        <dc:title></dc:title>
      </cc:Work>
    </rdf:RDF>
  </metadata>
  <sodipodi:namedview
     pagecolor="#ffffff"
     bordercolor="#666666"
     borderopacity="1"
     objecttolerance="10"
     gridtolerance="10"
     guidetolerance="10"
     inkscape:pageopacity="0"
     inkscape:pageshadow="2"
     inkscape:window-width="918"
     inkscape:window-height="480"
     id="namedview28"
     showgrid="false"
     inkscape:zoom="3.4153644"
     inkscape:cx="53.435001"
     inkscape:cy="14.375"
     inkscape:window-x="2175"
     inkscape:window-y="303"
     inkscape:window-maximized="0"
     inkscape:current-layer="svg26" />
  <defs
     id="defs4">
    <style
       id="style2">.cls-1{fill:#1f8ebe;}.cls-2{fill:#363026;}</style>
  </defs>
  <path
     class="cls-1"
     d="m 34.32,14 a 0.84,0.84 0 0 1 -0.59,-0.23 0.79,0.79 0 0 1 -0.23,-0.56 0.74,0.74 0 0 1 0.23,-0.54 0.87,0.87 0 0 1 0.59,-0.21 h 5.62 a 0.84,0.84 0 0 1 0.59,0.21 0.74,0.74 0 0 1 0.23,0.54 0.79,0.79 0 0 1 -0.23,0.56 0.81,0.81 0 0 1 -0.59,0.23 z m 0,2.71 A 0.8,0.8 0 0 1 33.73,16.48 0.76,0.76 0 0 1 33.5,16 a 0.73,0.73 0 0 1 0.23,-0.54 0.83,0.83 0 0 1 0.59,-0.22 h 5.62 a 0.8,0.8 0 0 1 0.59,0.22 0.73,0.73 0 0 1 0.23,0.54 0.79,0.79 0 0 1 -0.82,0.78 z"
     id="path6"
     inkscape:connector-curvature="0"
     style="fill:#1f8ebe" />
  <path
     class="cls-2"
     d="m 52,17.8 a 0.54,0.54 0 0 1 0.38,0.15 0.52,0.52 0 0 1 0.15,0.38 0.5,0.5 0 0 1 -0.15,0.37 0.54,0.54 0 0 1 -0.38,0.15 h -5.06 a 0.6,0.6 0 0 1 -0.42,-0.15 0.54,0.54 0 0 1 -0.16,-0.4 0.62,0.62 0 0 1 0.17,-0.41 l 3.16,-3.45 a 7.17,7.17 0 0 0 1.05,-1.37 2.42,2.42 0 0 0 0.37,-1.24 1.87,1.87 0 0 0 -0.25,-1 1.64,1.64 0 0 0 -0.68,-0.65 2.08,2.08 0 0 0 -1,-0.23 2.18,2.18 0 0 0 -1.07,0.29 2,2 0 0 0 -0.8,0.91 0.66,0.66 0 0 1 -0.22,0.22 0.54,0.54 0 0 1 -0.25,0.06 0.57,0.57 0 0 1 -0.37,-0.15 0.4,0.4 0 0 1 -0.19,-0.34 0.52,0.52 0 0 1 0.09,-0.29 l 0.22,-0.3 a 3.09,3.09 0 0 1 1.16,-1.08 3.26,3.26 0 0 1 1.5,-0.37 3.41,3.41 0 0 1 1.63,0.36 2.44,2.44 0 0 1 1,1 3,3 0 0 1 0.36,1.47 3.52,3.52 0 0 1 -0.19,1.09 5.12,5.12 0 0 1 -0.56,1.18 11.06,11.06 0 0 1 -1,1.23 L 48,17.94 47.86,17.8 Z"
     id="path8"
     inkscape:connector-curvature="0"
     style="fill:#363026" />
  <path
     class="cls-2"
     d="m 60.8,8.88 a 3.1,3.1 0 0 1 1.4,0.3 2.83,2.83 0 0 1 1,0.82 3.68,3.68 0 0 1 0.61,1.16 4.25,4.25 0 0 1 0.19,1.33 6.78,6.78 0 0 1 -0.15,1.34 8.24,8.24 0 0 1 -0.47,1.49 7,7 0 0 1 -0.82,1.45 6.22,6.22 0 0 1 -1.16,1.23 5.52,5.52 0 0 1 -1.61,0.86 0.7,0.7 0 0 1 -0.23,0 0.6,0.6 0 0 1 -0.39,-0.14 0.49,0.49 0 0 1 -0.18,-0.42 0.48,0.48 0 0 1 0.13,-0.34 0.71,0.71 0 0 1 0.33,-0.22 4.83,4.83 0 0 0 1.45,-0.74 6.09,6.09 0 0 0 1.2,-1.37 4.53,4.53 0 0 0 0.68,-1.66 l 0.34,-0.11 a 3.18,3.18 0 0 1 -0.59,0.7 2.94,2.94 0 0 1 -0.85,0.54 2.62,2.62 0 0 1 -1.07,0.21 A 2.45,2.45 0 0 1 59.47,15 2.93,2.93 0 0 1 58.53,14.3 3.34,3.34 0 0 1 57.66,12.06 3.19,3.19 0 0 1 58.07,10.47 3.27,3.27 0 0 1 59.2,9.32 3,3 0 0 1 60.8,8.88 Z m 0,1 a 1.94,1.94 0 0 0 -1.75,1 2.23,2.23 0 0 0 -0.27,1.11 2.38,2.38 0 0 0 0.24,1 1.89,1.89 0 0 0 1.74,1.09 2.07,2.07 0 0 0 1.13,-0.3 2,2 0 0 0 0.74,-0.79 A 2.33,2.33 0 0 0 62.9,12 2.14,2.14 0 0 0 62.64,11 1.9,1.9 0 0 0 61.92,10.23 2.08,2.08 0 0 0 60.81,9.93 Z"
     id="path10"
     inkscape:connector-curvature="0"
     style="fill:#363026" />
  <path
     class="cls-2"
     d="m 66,17.22 a 0.42,0.42 0 0 1 0.18,0 0.77,0.77 0 0 1 0.24,0.14 2.06,2.06 0 0 0 0.65,0.41 2.41,2.41 0 0 0 0.87,0.16 2.34,2.34 0 0 0 1.06,-0.24 2.19,2.19 0 0 0 0.82,-0.78 2.12,2.12 0 0 0 0.31,-1.16 2,2 0 0 0 -0.31,-1.17 2,2 0 0 0 -0.8,-0.67 2.53,2.53 0 0 0 -1,-0.22 2,2 0 0 0 -0.36,0 l -0.32,0.07 a 0.84,0.84 0 0 1 -0.27,0 0.44,0.44 0 0 1 -0.35,-0.15 0.6,0.6 0 0 1 -0.13,-0.38 0.59,0.59 0 0 1 0.05,-0.23 0.8,0.8 0 0 1 0.14,-0.22 l 2.74,-3 0.23,0.27 h -4 A 0.49,0.49 0 0 1 65.37,9.89 0.52,0.52 0 0 1 65.22,9.51 0.51,0.51 0 0 1 65.37,9.14 0.56,0.56 0 0 1 65.75,9 h 4.56 a 0.52,0.52 0 0 1 0.45,0.17 0.64,0.64 0 0 1 0.14,0.39 0.59,0.59 0 0 1 -0.05,0.23 0.74,0.74 0 0 1 -0.16,0.2 l -2.73,3 -0.32,-0.28 a 0.92,0.92 0 0 1 0.32,-0.11 2.6,2.6 0 0 1 0.42,0 2.87,2.87 0 0 1 1.44,0.38 2.77,2.77 0 0 1 1.05,1.07 3.15,3.15 0 0 1 0.4,1.59 3.22,3.22 0 0 1 -0.47,1.75 3.11,3.11 0 0 1 -1.26,1.15 4,4 0 0 1 -1.82,0.41 3.47,3.47 0 0 1 -1.1,-0.18 2.62,2.62 0 0 1 -0.93,-0.51 0.52,0.52 0 0 1 -0.24,-0.22 0.62,0.62 0 0 1 -0.06,-0.26 0.6,0.6 0 0 1 0.16,-0.4 0.49,0.49 0 0 1 0.45,-0.16 z"
     id="path12"
     inkscape:connector-curvature="0"
     style="fill:#363026" />
  <path
     class="cls-2"
     d="m 78.69,17.8 a 0.54,0.54 0 0 1 0.38,0.15 0.52,0.52 0 0 1 0.15,0.38 0.5,0.5 0 0 1 -0.15,0.37 0.54,0.54 0 0 1 -0.38,0.15 H 73.6 A 0.59,0.59 0 0 1 73.19,18.7 0.54,0.54 0 0 1 73.03,18.3 0.62,0.62 0 0 1 73.2,17.89 l 3.16,-3.45 a 7.17,7.17 0 0 0 1,-1.37 2.42,2.42 0 0 0 0.37,-1.24 1.87,1.87 0 0 0 -0.25,-1 1.64,1.64 0 0 0 -0.68,-0.65 2.08,2.08 0 0 0 -1,-0.23 2.18,2.18 0 0 0 -1.07,0.29 2,2 0 0 0 -0.8,0.91 0.66,0.66 0 0 1 -0.22,0.22 0.54,0.54 0 0 1 -0.25,0.06 0.61,0.61 0 0 1 -0.38,-0.15 0.42,0.42 0 0 1 -0.18,-0.34 0.52,0.52 0 0 1 0.09,-0.29 l 0.22,-0.3 a 3.09,3.09 0 0 1 1.19,-1.07 3.26,3.26 0 0 1 1.5,-0.37 3.41,3.41 0 0 1 1.63,0.36 2.49,2.49 0 0 1 1,1 3,3 0 0 1 0.36,1.47 3.52,3.52 0 0 1 -0.19,1.09 5.12,5.12 0 0 1 -0.54,1.17 11.06,11.06 0 0 1 -1,1.23 l -2.45,2.72 -0.14,-0.14 z"
     id="path14"
     inkscape:connector-curvature="0"
     style="fill:#363026" />
  <path
     class="cls-2"
     d="m 89,13.9 v -0.19 a 3.17,3.17 0 0 1 0.88,0.57 2.82,2.82 0 0 1 0.62,0.84 2.3,2.3 0 0 1 0.23,1 2.51,2.51 0 0 1 -0.41,1.39 3,3 0 0 1 -1.12,1 3.32,3.32 0 0 1 -1.58,0.38 3.22,3.22 0 0 1 -1.56,-0.38 3,3 0 0 1 -1.12,-1 2.51,2.51 0 0 1 -0.41,-1.39 2.33,2.33 0 0 1 0.27,-1.12 2.87,2.87 0 0 1 0.66,-0.81 3.53,3.53 0 0 1 0.83,-0.53 l -0.07,0.22 a 2.4,2.4 0 0 1 -0.69,-0.45 2.35,2.35 0 0 1 -0.54,-0.73 2.16,2.16 0 0 1 -0.21,-1 2.48,2.48 0 0 1 0.38,-1.37 2.7,2.7 0 0 1 1,-1 3.07,3.07 0 0 1 1.44,-0.35 3,3 0 0 1 1.45,0.35 2.82,2.82 0 0 1 1,1 2.49,2.49 0 0 1 0.39,1.37 2.11,2.11 0 0 1 -0.23,1 2.29,2.29 0 0 1 -0.55,0.71 A 2.32,2.32 0 0 1 89,13.9 Z m -1.4,4 a 2,2 0 0 0 1.42,-0.51 1.67,1.67 0 0 0 0.29,-2.16 1.8,1.8 0 0 0 -0.71,-0.63 2.2,2.2 0 0 0 -1,-0.23 2.17,2.17 0 0 0 -1,0.23 1.8,1.8 0 0 0 -0.71,0.63 1.67,1.67 0 0 0 0.29,2.16 2,2 0 0 0 1.45,0.48 z m -1.72,-6.11 a 1.67,1.67 0 0 0 0.23,0.88 1.65,1.65 0 0 0 0.63,0.6 1.86,1.86 0 0 0 0.86,0.22 1.74,1.74 0 0 0 0.86,-0.22 1.65,1.65 0 0 0 0.63,-0.6 1.75,1.75 0 0 0 -0.25,-2.07 1.67,1.67 0 0 0 -1.24,-0.47 1.7,1.7 0 0 0 -1.24,0.47 1.59,1.59 0 0 0 -0.45,1.16 z"
     id="path16"
     inkscape:connector-curvature="0"
     style="fill:#363026" />
  <path
     class="cls-2"
     d="m 94.28,18.89 a 0.6,0.6 0 0 1 -0.4,-0.15 0.47,0.47 0 0 1 -0.19,-0.38 0.62,0.62 0 0 1 0.06,-0.26 l 3.63,-8.25 0.15,0.25 H 93 A 0.47,0.47 0 0 1 92.63,9.94 0.49,0.49 0 0 1 92.47,9.56 0.49,0.49 0 0 1 92.63,9.19 0.53,0.53 0 0 1 93,9.05 h 5.06 a 0.64,0.64 0 0 1 0.42,0.14 0.53,0.53 0 0 1 0.15,0.39 0.86,0.86 0 0 1 -0.05,0.27 l -3.8,8.69 a 0.47,0.47 0 0 1 -0.2,0.26 0.59,0.59 0 0 1 -0.3,0.09 z"
     id="path18"
     inkscape:connector-curvature="0"
     style="fill:#363026" />
  <path
     class="cls-2"
     d="m 105,18.85 a 0.54,0.54 0 0 1 -0.4,-0.17 0.56,0.56 0 0 1 -0.16,-0.41 v -7.66 l 0.22,0.09 -3.34,4.37 -0.06,-0.17 h 5.13 a 0.51,0.51 0 0 1 0.53,0.53 0.49,0.49 0 0 1 -0.15,0.36 0.53,0.53 0 0 1 -0.38,0.14 h -5.9 A 0.54,0.54 0 0 1 100.11,15.77 0.55,0.55 0 0 1 99.93,15.37 0.52,0.52 0 0 1 100,15 l 4.47,-5.74 a 0.51,0.51 0 0 1 0.22,-0.17 0.6,0.6 0 0 1 0.26,0 0.53,0.53 0 0 1 0.39,0.16 0.55,0.55 0 0 1 0.15,0.4 v 8.66 a 0.56,0.56 0 0 1 -0.16,0.41 0.54,0.54 0 0 1 -0.33,0.13 z"
     id="path20"
     inkscape:connector-curvature="0"
     style="fill:#363026" />
  <circle
     class="cls-1"
     cx="14.37"
     cy="14.37"
     r="14.37"
     id="circle22"
     style="fill:#1f8ebe" />
</svg>
