<svg xmlns="http://www.w3.org/2000/svg" viewBox="0 0 438.78 49.02"><defs><style>.cls-1{fill:#363026;}.cls-2{fill:#1f8ebe;}</style></defs><g id="Layer_2" data-name="Layer 2"><g id="Layer_1-2" data-name="Layer 1"><path class="cls-1" d="M5.75,47.83a.55.55,0,0,1,.54.54.51.51,0,0,1-.16.37.51.51,0,0,1-.38.14H.67a.57.57,0,0,1-.41-.14.51.51,0,0,1-.16-.4.56.56,0,0,1,.17-.41l3.16-3.46a7.14,7.14,0,0,0,1.05-1.36,2.54,2.54,0,0,0,.36-1.24,2,2,0,0,0-.24-1,1.64,1.64,0,0,0-.68-.65,2.08,2.08,0,0,0-1-.24,2.06,2.06,0,0,0-1.07.3A2,2,0,0,0,1,41.2a.66.66,0,0,1-.22.22.5.5,0,0,1-.24.06.59.59,0,0,1-.38-.15A.43.43,0,0,1,0,41a.58.58,0,0,1,.09-.3,2.47,2.47,0,0,1,.22-.29,2.87,2.87,0,0,1,1.16-1.08A3.24,3.24,0,0,1,3,38.94a3.44,3.44,0,0,1,1.63.37,2.45,2.45,0,0,1,1,1A3,3,0,0,1,6,41.8a3.25,3.25,0,0,1-.19,1.09A5.12,5.12,0,0,1,5.22,44a9.88,9.88,0,0,1-1,1.23L1.78,48l-.14-.14Z"/><path class="cls-1" d="M14.91,49A2.88,2.88,0,0,1,13,48.37a4.06,4.06,0,0,1-1.18-1.81,8.76,8.76,0,0,1,0-5.17A4.1,4.1,0,0,1,13,39.6a2.89,2.89,0,0,1,1.94-.66,2.91,2.91,0,0,1,1.94.66A4,4,0,0,1,18,41.39a8.76,8.76,0,0,1,0,5.17,4,4,0,0,1-1.17,1.81A2.9,2.9,0,0,1,14.91,49Zm0-1.13a1.76,1.76,0,0,0,1.25-.48,2.94,2.94,0,0,0,.78-1.35A7,7,0,0,0,17.21,44a7.12,7.12,0,0,0-.27-2.09,3,3,0,0,0-.78-1.34,1.9,1.9,0,0,0-2.5,0,3,3,0,0,0-.79,1.34A7.12,7.12,0,0,0,12.6,44a7,7,0,0,0,.27,2.08,3,3,0,0,0,.79,1.35A1.76,1.76,0,0,0,14.91,47.89Z"/><path class="cls-1" d="M23.32,49a2.9,2.9,0,0,1-1.94-.65,4.13,4.13,0,0,1-1.17-1.81,8.55,8.55,0,0,1,0-5.17,4.18,4.18,0,0,1,1.17-1.79,2.91,2.91,0,0,1,1.94-.66,2.87,2.87,0,0,1,1.94.66,4,4,0,0,1,1.17,1.79,8.76,8.76,0,0,1,0,5.17,4,4,0,0,1-1.17,1.81A2.86,2.86,0,0,1,23.32,49Zm0-1.13a1.77,1.77,0,0,0,1.26-.48,2.85,2.85,0,0,0,.77-1.35A7,7,0,0,0,25.62,44a7.12,7.12,0,0,0-.27-2.09,2.86,2.86,0,0,0-.77-1.34,1.91,1.91,0,0,0-2.51,0,3,3,0,0,0-.78,1.34,7.9,7.9,0,0,0,0,4.17,2.94,2.94,0,0,0,.78,1.35A1.76,1.76,0,0,0,23.32,47.89Z"/><path class="cls-1" d="M31.74,49a2.88,2.88,0,0,1-1.94-.65,4.06,4.06,0,0,1-1.18-1.81,8.55,8.55,0,0,1,0-5.17A4.1,4.1,0,0,1,29.8,39.6a3.18,3.18,0,0,1,3.88,0,4.07,4.07,0,0,1,1.16,1.79,8.55,8.55,0,0,1,0,5.17,4,4,0,0,1-1.16,1.81A2.9,2.9,0,0,1,31.74,49Zm0-1.13A1.76,1.76,0,0,0,33,47.41a2.94,2.94,0,0,0,.78-1.35A7.42,7.42,0,0,0,34,44a7.5,7.5,0,0,0-.26-2.09A3,3,0,0,0,33,40.55a1.8,1.8,0,0,0-1.25-.47,1.82,1.82,0,0,0-1.26.47,3,3,0,0,0-.78,1.34A7.12,7.12,0,0,0,29.43,44a7,7,0,0,0,.27,2.08,2.94,2.94,0,0,0,.78,1.35A1.79,1.79,0,0,0,31.74,47.89Z"/><path class="cls-1" d="M44,49a2.9,2.9,0,0,1-1.94-.65,4,4,0,0,1-1.17-1.81,8.55,8.55,0,0,1,0-5.17,4,4,0,0,1,1.17-1.79,3.18,3.18,0,0,1,3.88,0,4,4,0,0,1,1.17,1.79,8.76,8.76,0,0,1,0,5.17,4,4,0,0,1-1.17,1.81A2.88,2.88,0,0,1,44,49Zm0-1.13a1.74,1.74,0,0,0,1.25-.48A2.94,2.94,0,0,0,46,46.06,7,7,0,0,0,46.3,44,7.12,7.12,0,0,0,46,41.89a3,3,0,0,0-.78-1.34,1.9,1.9,0,0,0-2.5,0A3.06,3.06,0,0,0,42,41.89,7.12,7.12,0,0,0,41.69,44,7,7,0,0,0,42,46.06a3,3,0,0,0,.79,1.35A1.76,1.76,0,0,0,44,47.89Z"/><path class="cls-1" d="M52.42,49a2.88,2.88,0,0,1-1.94-.65,4.06,4.06,0,0,1-1.18-1.81,8.55,8.55,0,0,1,0-5.17,4.1,4.1,0,0,1,1.18-1.79,3.17,3.17,0,0,1,3.87,0,4,4,0,0,1,1.17,1.79,8.55,8.55,0,0,1,0,5.17,4,4,0,0,1-1.17,1.81A2.85,2.85,0,0,1,52.42,49Zm0-1.13a1.76,1.76,0,0,0,1.25-.48,2.94,2.94,0,0,0,.78-1.35A7.42,7.42,0,0,0,54.71,44a7.5,7.5,0,0,0-.26-2.09,3,3,0,0,0-.78-1.34,1.91,1.91,0,0,0-2.51,0,3,3,0,0,0-.78,1.34A7.12,7.12,0,0,0,50.11,44a7,7,0,0,0,.27,2.08,2.94,2.94,0,0,0,.78,1.35A1.77,1.77,0,0,0,52.42,47.89Z"/><path class="cls-1" d="M60.83,49a2.88,2.88,0,0,1-1.94-.65,4.06,4.06,0,0,1-1.18-1.81,8.76,8.76,0,0,1,0-5.17,4.1,4.1,0,0,1,1.18-1.79,3.18,3.18,0,0,1,3.88,0,4,4,0,0,1,1.17,1.79,8.76,8.76,0,0,1,0,5.17,4,4,0,0,1-1.17,1.81A2.9,2.9,0,0,1,60.83,49Zm0-1.13a1.76,1.76,0,0,0,1.25-.48,2.94,2.94,0,0,0,.78-1.35A7,7,0,0,0,63.13,44a7.12,7.12,0,0,0-.27-2.09,3,3,0,0,0-.78-1.34,1.9,1.9,0,0,0-2.5,0,3,3,0,0,0-.79,1.34A7.12,7.12,0,0,0,58.52,44a7,7,0,0,0,.27,2.08,3,3,0,0,0,.79,1.35A1.74,1.74,0,0,0,60.83,47.89Z"/><path class="cls-1" d="M56.7,8.92a.54.54,0,0,1,.38.15.52.52,0,0,1,.15.38.5.5,0,0,1-.15.37.54.54,0,0,1-.38.15H51.62a.6.6,0,0,1-.42-.15.54.54,0,0,1-.16-.4.58.58,0,0,1,.17-.4l3.17-3.46a8.1,8.1,0,0,0,1-1.37A2.48,2.48,0,0,0,55.79,3a1.87,1.87,0,0,0-.25-1,1.61,1.61,0,0,0-.67-.65,2.09,2.09,0,0,0-1-.23,2.18,2.18,0,0,0-1.07.29,2,2,0,0,0-.8.91.66.66,0,0,1-.22.22.53.53,0,0,1-.24.06.59.59,0,0,1-.38-.15A.42.42,0,0,1,51,2.07.52.52,0,0,1,51,1.78c.06-.1.13-.19.21-.3A2.94,2.94,0,0,1,52.42.41,3.09,3.09,0,0,1,53.91,0a3.41,3.41,0,0,1,1.63.36,2.44,2.44,0,0,1,1,1,3,3,0,0,1,.36,1.47A3.52,3.52,0,0,1,56.75,4a5.12,5.12,0,0,1-.58,1.14,9.17,9.17,0,0,1-1,1.23L52.72,9.06l-.14-.14Z"/><path class="cls-1" d="M64.62,10a.6.6,0,0,1-.43-.17A.57.57,0,0,1,64,9.39v-8l.17.19-1.62,1a.55.55,0,0,1-.28.07.52.52,0,0,1-.41-.19.57.57,0,0,1-.17-.38A.56.56,0,0,1,62,1.61L64.29.25a.77.77,0,0,1,.42-.08.44.44,0,0,1,.37.16.57.57,0,0,1,.15.4V9.39a.57.57,0,0,1-.17.41A.6.6,0,0,1,64.62,10Z"/><path class="cls-1" d="M69.09,10a.63.63,0,0,1-.41-.15.46.46,0,0,1-.18-.38.54.54,0,0,1,.06-.25L72.18,1l.16.25H67.83a.49.49,0,0,1-.38-.16A.51.51,0,0,1,67.3.69a.52.52,0,0,1,.15-.38.56.56,0,0,1,.38-.14h5a.61.61,0,0,1,.42.14.5.5,0,0,1,.16.39A.66.66,0,0,1,73.4,1L69.61,9.66a.49.49,0,0,1-.21.26A.56.56,0,0,1,69.09,10Z"/><path class="cls-1" d="M79.35,5l0-.2a3.22,3.22,0,0,1,.89.57,3,3,0,0,1,.62.84,2.3,2.3,0,0,1,.23,1,2.51,2.51,0,0,1-.41,1.39,3,3,0,0,1-1.12,1A3.35,3.35,0,0,1,78,10a3.28,3.28,0,0,1-1.57-.38,3,3,0,0,1-1.11-1,2.51,2.51,0,0,1-.41-1.39,2.16,2.16,0,0,1,.26-1.1,2.91,2.91,0,0,1,.65-.82,3.8,3.8,0,0,1,.84-.53L76.54,5a2.57,2.57,0,0,1-.7-.46,2.5,2.5,0,0,1-.53-.73,2.16,2.16,0,0,1-.22-1,2.59,2.59,0,0,1,.38-1.37,2.7,2.7,0,0,1,1-1A3,3,0,0,1,78,.17a2.9,2.9,0,0,1,1.44.36,2.67,2.67,0,0,1,1,1,2.51,2.51,0,0,1,.39,1.37,2.11,2.11,0,0,1-.23,1,2.33,2.33,0,0,1-.55.71A2.76,2.76,0,0,1,79.35,5ZM78,9a2,2,0,0,0,1.42-.51,1.6,1.6,0,0,0,.55-1.24,1.6,1.6,0,0,0-.26-.92A1.88,1.88,0,0,0,79,5.69a2.2,2.2,0,0,0-1-.23,2.17,2.17,0,0,0-1,.23,1.74,1.74,0,0,0-.71.63,1.68,1.68,0,0,0,.28,2.16A2,2,0,0,0,78,9ZM76.23,2.88a1.73,1.73,0,0,0,.23.89,1.56,1.56,0,0,0,.63.59,1.72,1.72,0,0,0,.86.22,1.64,1.64,0,0,0,.86-.22,1.6,1.6,0,0,0,.62-.59,1.65,1.65,0,0,0,.24-.89,1.59,1.59,0,0,0-.48-1.19,1.87,1.87,0,0,0-2.48,0A1.59,1.59,0,0,0,76.23,2.88Z"/><path class="cls-1" d="M89,10a3.86,3.86,0,0,1-1.15-.17,3,3,0,0,1-1-.53.58.58,0,0,1-.18-.25.65.65,0,0,1-.07-.29.53.53,0,0,1,.14-.33.5.5,0,0,1,.39-.16.74.74,0,0,1,.42.18,2.65,2.65,0,0,0,.68.38A2.31,2.31,0,0,0,89,9a2.83,2.83,0,0,0,1.32-.31,2.37,2.37,0,0,0,.9-.85,2.27,2.27,0,0,0,.33-1.21,2.21,2.21,0,0,0-.29-1.13,1.85,1.85,0,0,0-.8-.74,2.45,2.45,0,0,0-1.16-.27,2.48,2.48,0,0,0-.89.15,4.75,4.75,0,0,0-.67.3,1.05,1.05,0,0,1-.46.15A.66.66,0,0,1,86.87,5a.55.55,0,0,1-.2-.3.63.63,0,0,1,0-.33L87.19.62a.55.55,0,0,1,.2-.32.54.54,0,0,1,.37-.13h4.16a.52.52,0,0,1,.38.15.53.53,0,0,1,.16.38.55.55,0,0,1-.16.38.52.52,0,0,1-.38.15H88.05l.14-.12-.52,3.23-.23-.29a1.66,1.66,0,0,1,.47-.28,3.29,3.29,0,0,1,.73-.24,3.47,3.47,0,0,1,.85-.1,3.29,3.29,0,0,1,1.63.41A3.09,3.09,0,0,1,92.26,5a3.18,3.18,0,0,1,.42,1.64,3.27,3.27,0,0,1-1,2.45,3.56,3.56,0,0,1-1.17.71A4,4,0,0,1,89,10Z"/><path class="cls-1" d="M99.46,10a.53.53,0,0,1-.4-.17.56.56,0,0,1-.16-.41V1.74l.22.08L95.77,6.19l0-.17h5.12a.52.52,0,0,1,.38.15.54.54,0,0,1,.15.38.49.49,0,0,1-.15.36.52.52,0,0,1-.38.15H95a.57.57,0,0,1-.39-.17.56.56,0,0,1-.17-.39.5.5,0,0,1,.14-.37L99,.39a.53.53,0,0,1,.23-.17.56.56,0,0,1,.25,0,.5.5,0,0,1,.39.16.57.57,0,0,1,.15.4V9.39a.56.56,0,0,1-.16.41A.52.52,0,0,1,99.46,10Z"/><path class="cls-1" d="M104.77,10a.62.62,0,0,1-.4-.15.46.46,0,0,1-.18-.38.7.7,0,0,1,0-.25L107.87,1l.15.25h-4.51a.49.49,0,0,1-.37-.16A.49.49,0,0,1,103,.69a.49.49,0,0,1,.16-.38.55.55,0,0,1,.37-.14h5.06a.61.61,0,0,1,.42.14.53.53,0,0,1,.15.39.86.86,0,0,1,0,.27l-3.8,8.69a.43.43,0,0,1-.2.26A.59.59,0,0,1,104.77,10Z"/><path class="cls-1" d="M321.33,8.92a.52.52,0,0,1,.38.15.49.49,0,0,1,.16.38.47.47,0,0,1-.16.37.52.52,0,0,1-.38.15h-5.08a.58.58,0,0,1-.41-.15.51.51,0,0,1-.16-.4.54.54,0,0,1,.17-.4L319,5.56a7.17,7.17,0,0,0,1.05-1.37A2.48,2.48,0,0,0,320.42,3a2,2,0,0,0-.24-1,1.64,1.64,0,0,0-.68-.65,2.08,2.08,0,0,0-1-.23,2.18,2.18,0,0,0-1.07.29,2.07,2.07,0,0,0-.81.91.64.64,0,0,1-.21.22.57.57,0,0,1-.25.06.59.59,0,0,1-.38-.15.42.42,0,0,1-.18-.34.52.52,0,0,1,.09-.29,2.52,2.52,0,0,1,.22-.3A3,3,0,0,1,317.05.41a3.15,3.15,0,0,1,1.5-.38,3.44,3.44,0,0,1,1.63.36,2.49,2.49,0,0,1,1,1,3.07,3.07,0,0,1,.35,1.47A3.25,3.25,0,0,1,321.38,4a4.72,4.72,0,0,1-.58,1.14,9.88,9.88,0,0,1-1,1.23l-2.45,2.72-.14-.14Z"/><path class="cls-1" d="M330.11,0a3.18,3.18,0,0,1,1.41.3,2.79,2.79,0,0,1,1,.82,3.51,3.51,0,0,1,.62,1.16,4.25,4.25,0,0,1,.21,1.33A6.78,6.78,0,0,1,333.21,5a8.82,8.82,0,0,1-.47,1.49,7.85,7.85,0,0,1-.82,1.46,6.5,6.5,0,0,1-1.21,1.25,5.28,5.28,0,0,1-1.61.86.6.6,0,0,1-.22,0,.65.65,0,0,1-.4-.14.51.51,0,0,1-.17-.42.52.52,0,0,1,.12-.34.8.8,0,0,1,.34-.22,4.75,4.75,0,0,0,1.45-.86,6.26,6.26,0,0,0,1.2-1.36A4.64,4.64,0,0,0,332.1,5l.34-.11a3,3,0,0,1-.59.7,3.08,3.08,0,0,1-.85.54,2.8,2.8,0,0,1-2.22,0,3.38,3.38,0,0,1-.94-.71,3.28,3.28,0,0,1-.63-1A3.14,3.14,0,0,1,327,3.18a3,3,0,0,1,.41-1.58A3.22,3.22,0,0,1,328.52.44,3,3,0,0,1,330.11,0Zm0,1.05a2,2,0,0,0-1,.27,1.86,1.86,0,0,0-.72.75,2.23,2.23,0,0,0-.27,1.11,2.38,2.38,0,0,0,.24,1.05A2,2,0,0,0,329,5a1.92,1.92,0,0,0,1.05.29A2.19,2.19,0,0,0,331.22,5a1.94,1.94,0,0,0,.73-.8,2.21,2.21,0,0,0,.26-1.08,2.13,2.13,0,0,0-.25-1,2,2,0,0,0-.72-.77A2.08,2.08,0,0,0,330.13,1.05Z"/><path class="cls-1" d="M335.29,8.34a.72.72,0,0,1,.19,0,.56.56,0,0,1,.23.15,2.42,2.42,0,0,0,.66.4,2.14,2.14,0,0,0,.87.16,2.28,2.28,0,0,0,1.1-.28,2.15,2.15,0,0,0,1.14-1.94,2,2,0,0,0-.32-1.16,1.91,1.91,0,0,0-.79-.68,2.55,2.55,0,0,0-1-.21l-.36,0-.32.07a1,1,0,0,1-.27,0,.43.43,0,0,1-.35-.16.55.55,0,0,1-.13-.38.85.85,0,0,1,0-.23A.85.85,0,0,1,336.1,4l2.75-3,.22.27h-4a.49.49,0,0,1-.38-.16.52.52,0,0,1-.16-.37.53.53,0,0,1,.16-.38.56.56,0,0,1,.38-.14h4.56a.57.57,0,0,1,.45.17.64.64,0,0,1,.14.39.46.46,0,0,1-.06.23,1,1,0,0,1-.15.2l-2.73,3L337,3.92a.85.85,0,0,1,.32-.11,2.43,2.43,0,0,1,.42,0,2.78,2.78,0,0,1,2.49,1.44,3.18,3.18,0,0,1,.39,1.59,3.19,3.19,0,0,1-.46,1.75,3.07,3.07,0,0,1-1.27,1.15,4,4,0,0,1-1.81.41,3.47,3.47,0,0,1-1.1-.18,2.47,2.47,0,0,1-.93-.51.49.49,0,0,1-.31-.47.68.68,0,0,1,.16-.41A.51.51,0,0,1,335.29,8.34Z"/><path class="cls-1" d="M348,8.92a.52.52,0,0,1,.38.15.53.53,0,0,1,.16.38.51.51,0,0,1-.16.37A.52.52,0,0,1,348,10h-5.08a.58.58,0,0,1-.41-.15.51.51,0,0,1-.16-.4.54.54,0,0,1,.17-.4l3.16-3.46a7.17,7.17,0,0,0,1.05-1.37A2.48,2.48,0,0,0,347.09,3a2,2,0,0,0-.24-1,1.64,1.64,0,0,0-.68-.65,2.08,2.08,0,0,0-1-.23,2.15,2.15,0,0,0-1.07.29,2.07,2.07,0,0,0-.81.91.58.58,0,0,1-.22.22.5.5,0,0,1-.24.06.59.59,0,0,1-.38-.15.42.42,0,0,1-.18-.34.52.52,0,0,1,.09-.29,2.52,2.52,0,0,1,.22-.3A2.92,2.92,0,0,1,343.72.41a3.15,3.15,0,0,1,1.5-.38,3.44,3.44,0,0,1,1.63.36,2.41,2.41,0,0,1,1,1,3,3,0,0,1,.36,1.47A3.25,3.25,0,0,1,348.05,4a4.72,4.72,0,0,1-.58,1.14,9.88,9.88,0,0,1-1,1.23L344,9.06l-.14-.14Z"/><path class="cls-1" d="M358.35,5l0-.2a3,3,0,0,1,1.51,1.41,2.3,2.3,0,0,1,.23,1,2.51,2.51,0,0,1-.41,1.39,3,3,0,0,1-1.12,1A3.35,3.35,0,0,1,357,10a3.28,3.28,0,0,1-1.57-.38,3,3,0,0,1-1.11-1,2.44,2.44,0,0,1-.41-1.39,2.16,2.16,0,0,1,.26-1.1,2.91,2.91,0,0,1,.65-.82,3.8,3.8,0,0,1,.84-.53l-.07.23a2.57,2.57,0,0,1-.7-.46,2.35,2.35,0,0,1-.54-.73,2.16,2.16,0,0,1-.21-1,2.59,2.59,0,0,1,.38-1.37,2.63,2.63,0,0,1,1-1A3,3,0,0,1,357,.17a2.9,2.9,0,0,1,1.44.36,2.74,2.74,0,0,1,1,1,2.51,2.51,0,0,1,.39,1.37,2.11,2.11,0,0,1-.23,1,2.33,2.33,0,0,1-.55.71A2.76,2.76,0,0,1,358.35,5ZM357,9a2,2,0,0,0,1.42-.51,1.6,1.6,0,0,0,.55-1.24,1.68,1.68,0,0,0-.26-.92,1.83,1.83,0,0,0-.72-.63,2.22,2.22,0,0,0-2,0,1.74,1.74,0,0,0-.71.63,1.68,1.68,0,0,0,.28,2.16A2,2,0,0,0,357,9Zm-1.72-6.11a1.64,1.64,0,0,0,.23.89,1.56,1.56,0,0,0,.63.59,1.72,1.72,0,0,0,.86.22,1.67,1.67,0,0,0,.86-.22,1.6,1.6,0,0,0,.62-.59,1.65,1.65,0,0,0,.24-.89,1.59,1.59,0,0,0-.48-1.19,1.87,1.87,0,0,0-2.48,0A1.59,1.59,0,0,0,355.23,2.88Z"/><path class="cls-1" d="M363.6,10a.65.65,0,0,1-.41-.15.46.46,0,0,1-.18-.38.54.54,0,0,1,.06-.25L366.69,1l.16.25h-4.51a.49.49,0,0,1-.38-.16.51.51,0,0,1-.15-.37A.52.52,0,0,1,362,.31a.56.56,0,0,1,.38-.14h5.05a.61.61,0,0,1,.42.14A.5.5,0,0,1,368,.7a.66.66,0,0,1-.06.27l-3.79,8.69a.52.52,0,0,1-.2.26A.62.62,0,0,1,363.6,10Z"/><path class="cls-1" d="M374.27,10a.54.54,0,0,1-.4-.17.56.56,0,0,1-.16-.41V1.74l.22.08-3.34,4.37L370.53,6h5.12a.52.52,0,0,1,.38.15.55.55,0,0,1,.16.38.5.5,0,0,1-.16.36.52.52,0,0,1-.38.15h-5.89a.6.6,0,0,1-.56-.56.55.55,0,0,1,.14-.37L373.81.39A.51.51,0,0,1,374,.22a.56.56,0,0,1,.25,0,.5.5,0,0,1,.39.16.54.54,0,0,1,.16.4V9.39a.6.6,0,0,1-.16.41A.54.54,0,0,1,374.27,10Z"/><path class="cls-1" d="M188.31,8.92a.54.54,0,0,1,.38.15.52.52,0,0,1,.15.38.5.5,0,0,1-.15.37.54.54,0,0,1-.38.15h-5.08a.6.6,0,0,1-.42-.15.54.54,0,0,1-.16-.4.58.58,0,0,1,.17-.4L186,5.56a8.1,8.1,0,0,0,1-1.37A2.48,2.48,0,0,0,187.4,3a1.87,1.87,0,0,0-.25-1,1.68,1.68,0,0,0-.67-.65,2.09,2.09,0,0,0-1-.23,2.18,2.18,0,0,0-1.07.29,2,2,0,0,0-.8.91.66.66,0,0,1-.22.22.53.53,0,0,1-.24.06.59.59,0,0,1-.38-.15.42.42,0,0,1-.18-.34.52.52,0,0,1,.09-.29c.06-.1.13-.19.21-.3A2.94,2.94,0,0,1,184,.41,3.09,3.09,0,0,1,185.52,0a3.41,3.41,0,0,1,1.63.36,2.44,2.44,0,0,1,1,1,3,3,0,0,1,.36,1.47A3.52,3.52,0,0,1,188.36,4a5.12,5.12,0,0,1-.58,1.14,10,10,0,0,1-1,1.23l-2.45,2.72-.14-.14Z"/><path class="cls-1" d="M196.46,10a3.75,3.75,0,0,1-1.14-.17,2.91,2.91,0,0,1-1-.53.8.8,0,0,1-.18-.25.65.65,0,0,1-.07-.29.49.49,0,0,1,.15-.33.46.46,0,0,1,.38-.16.74.74,0,0,1,.42.18,2.89,2.89,0,0,0,.69.38,2.21,2.21,0,0,0,.75.14,2.8,2.8,0,0,0,1.32-.31,2.37,2.37,0,0,0,.9-.85A2.27,2.27,0,0,0,199,6.62a2.2,2.2,0,0,0-.28-1.13,2,2,0,0,0-.8-.74,2.46,2.46,0,0,0-1.17-.27,2.42,2.42,0,0,0-.88.15,4.43,4.43,0,0,0-.68.3,1,1,0,0,1-.46.15A.66.66,0,0,1,194.3,5a.55.55,0,0,1-.2-.3.76.76,0,0,1,0-.33l.54-3.71a.6.6,0,0,1,.2-.32.55.55,0,0,1,.38-.13h4.16a.51.51,0,0,1,.37.15.49.49,0,0,1,.16.38.51.51,0,0,1-.16.38.51.51,0,0,1-.37.15h-3.88l.14-.12-.52,3.23-.22-.29a1.46,1.46,0,0,1,.46-.28,4.06,4.06,0,0,1,1.58-.34,3.26,3.26,0,0,1,1.63.41A3.09,3.09,0,0,1,199.69,5a3.18,3.18,0,0,1,.42,1.64A3.37,3.37,0,0,1,199.84,8a3.23,3.23,0,0,1-.77,1.09,3.52,3.52,0,0,1-1.16.71A4.05,4.05,0,0,1,196.46,10Z"/><path class="cls-1" d="M203.71,10a.63.63,0,0,1-.41-.15.46.46,0,0,1-.18-.38.54.54,0,0,1,.06-.25L206.8,1l.16.25h-4.51a.49.49,0,0,1-.38-.16.51.51,0,0,1-.15-.37.52.52,0,0,1,.15-.38.56.56,0,0,1,.38-.14h5.05a.61.61,0,0,1,.42.14.5.5,0,0,1,.16.39A.66.66,0,0,1,208,1l-3.79,8.69a.49.49,0,0,1-.21.26A.56.56,0,0,1,203.71,10Z"/><path class="cls-1" d="M211.77,10a3.85,3.85,0,0,1-1.14-.17,3,3,0,0,1-1-.53.58.58,0,0,1-.18-.25.65.65,0,0,1-.07-.29.48.48,0,0,1,.14-.33.5.5,0,0,1,.39-.16.74.74,0,0,1,.42.18,2.65,2.65,0,0,0,.68.38,2.27,2.27,0,0,0,.76.14,2.86,2.86,0,0,0,1.32-.31,2.37,2.37,0,0,0,.9-.85,2.27,2.27,0,0,0,.33-1.21A2.21,2.21,0,0,0,214,5.49a1.91,1.91,0,0,0-.8-.74,2.66,2.66,0,0,0-2.05-.12,4.75,4.75,0,0,0-.67.3,1.05,1.05,0,0,1-.46.15.66.66,0,0,1-.42-.12.57.57,0,0,1-.21-.3.76.76,0,0,1,0-.33l.55-3.71a.59.59,0,0,1,.19-.32.57.57,0,0,1,.38-.13h4.16a.51.51,0,0,1,.53.53.54.54,0,0,1-.15.38.52.52,0,0,1-.38.15h-3.88l.14-.12-.51,3.23-.23-.29a1.53,1.53,0,0,1,.47-.28,3.29,3.29,0,0,1,.73-.24,3.41,3.41,0,0,1,.85-.1,3.29,3.29,0,0,1,1.63.41A3.09,3.09,0,0,1,215,5a3.18,3.18,0,0,1,.42,1.64,3.33,3.33,0,0,1-1.05,2.45,3.42,3.42,0,0,1-1.16.71A4,4,0,0,1,211.77,10Z"/><path class="cls-1" d="M225.65,5l0-.2a3,3,0,0,1,.88.57,2.82,2.82,0,0,1,.62.84,2.17,2.17,0,0,1,.23,1,2.44,2.44,0,0,1-.41,1.39,2.91,2.91,0,0,1-1.12,1,3.43,3.43,0,0,1-3.14,0,2.88,2.88,0,0,1-1.11-1,2.45,2.45,0,0,1-.42-1.39,2.26,2.26,0,0,1,.26-1.1,2.77,2.77,0,0,1,.66-.82,3.75,3.75,0,0,1,.83-.53l-.07.23a2.68,2.68,0,0,1-.69-.46,2.35,2.35,0,0,1-.54-.73,2.16,2.16,0,0,1-.21-1,2.59,2.59,0,0,1,.38-1.37,2.67,2.67,0,0,1,1-1,3,3,0,0,1,1.45-.36,2.9,2.9,0,0,1,1.44.36,2.74,2.74,0,0,1,1,1,2.59,2.59,0,0,1,.38,1.37,2.11,2.11,0,0,1-.22,1,2.49,2.49,0,0,1-.55.71A2.76,2.76,0,0,1,225.65,5Zm-1.4,4a2,2,0,0,0,1.42-.51,1.6,1.6,0,0,0,.55-1.24,1.68,1.68,0,0,0-.26-.92,1.83,1.83,0,0,0-.72-.63,2.19,2.19,0,0,0-1-.23,2.14,2.14,0,0,0-1,.23,1.83,1.83,0,0,0-.72.63,1.68,1.68,0,0,0-.26.92,1.6,1.6,0,0,0,.55,1.24A2,2,0,0,0,224.25,9Zm-1.72-6.11a1.64,1.64,0,0,0,.23.89,1.56,1.56,0,0,0,.63.59,1.79,1.79,0,0,0,1.72,0,1.75,1.75,0,0,0,.62-.59,1.65,1.65,0,0,0,.24-.89,1.59,1.59,0,0,0-.48-1.19,1.7,1.7,0,0,0-1.24-.47,1.67,1.67,0,0,0-1.24.47A1.59,1.59,0,0,0,222.53,2.88Z"/><path class="cls-1" d="M229.55,8.34a.72.72,0,0,1,.19,0,.56.56,0,0,1,.23.15,2.42,2.42,0,0,0,.66.4,2.14,2.14,0,0,0,.87.16,2.28,2.28,0,0,0,1.1-.28,2.15,2.15,0,0,0,1.14-1.94,2,2,0,0,0-.32-1.16,1.91,1.91,0,0,0-.79-.68,2.55,2.55,0,0,0-1-.21l-.36,0-.32.07a1,1,0,0,1-.27,0,.43.43,0,0,1-.35-.16.55.55,0,0,1-.13-.38.85.85,0,0,1,0-.23.69.69,0,0,1,.15-.21l2.74-3,.22.27h-4a.49.49,0,0,1-.38-.16.51.51,0,0,1-.15-.37A.52.52,0,0,1,229,.31a.56.56,0,0,1,.38-.14h4.56a.55.55,0,0,1,.45.17.64.64,0,0,1,.14.39.46.46,0,0,1-.06.23.7.7,0,0,1-.15.2l-2.73,3-.32-.28a.85.85,0,0,1,.32-.11,2.43,2.43,0,0,1,.42,0,2.78,2.78,0,0,1,2.49,1.44,3.18,3.18,0,0,1,.39,1.59,3.19,3.19,0,0,1-.46,1.75,3.07,3.07,0,0,1-1.27,1.15,4,4,0,0,1-1.81.41,3.47,3.47,0,0,1-1.1-.18,2.47,2.47,0,0,1-.93-.51.52.52,0,0,1-.24-.22A.5.5,0,0,1,229,9a.68.68,0,0,1,.16-.41A.51.51,0,0,1,229.55,8.34Z"/><path class="cls-1" d="M242.26,8.92a.52.52,0,0,1,.38.15.49.49,0,0,1,.16.38.47.47,0,0,1-.16.37.52.52,0,0,1-.38.15h-5.08a.58.58,0,0,1-.41-.15.51.51,0,0,1-.16-.4.58.58,0,0,1,.17-.4l3.16-3.46A7.17,7.17,0,0,0,241,4.19,2.48,2.48,0,0,0,241.35,3a2,2,0,0,0-.24-1,1.64,1.64,0,0,0-.68-.65,2.08,2.08,0,0,0-1-.23,2.18,2.18,0,0,0-1.07.29,2.07,2.07,0,0,0-.81.91.56.56,0,0,1-.21.22.54.54,0,0,1-.25.06.59.59,0,0,1-.38-.15.42.42,0,0,1-.18-.34.52.52,0,0,1,.09-.29,2.52,2.52,0,0,1,.22-.3A3,3,0,0,1,238,.41a3.15,3.15,0,0,1,1.5-.38,3.44,3.44,0,0,1,1.63.36,2.49,2.49,0,0,1,1,1,3.07,3.07,0,0,1,.35,1.47A3.25,3.25,0,0,1,242.31,4a4.72,4.72,0,0,1-.58,1.14,9.88,9.88,0,0,1-1,1.23l-2.45,2.72-.14-.14Z"/><path class="cls-1" d="M375.29,47.26a.46.46,0,0,1,.19,0,.65.65,0,0,1,.23.14,2.23,2.23,0,0,0,.66.41,2.49,2.49,0,0,0,2-.12,2.19,2.19,0,0,0,.82-.78,2.12,2.12,0,0,0,.31-1.16,2,2,0,0,0-.31-1.17,1.91,1.91,0,0,0-.8-.67,2.37,2.37,0,0,0-1-.22,2,2,0,0,0-.36,0l-.32.07a.88.88,0,0,1-.27,0,.43.43,0,0,1-.35-.15.6.6,0,0,1-.13-.38.59.59,0,0,1,.05-.23.62.62,0,0,1,.14-.22l2.74-3,.22.26h-4a.51.51,0,0,1-.53-.53.5.5,0,0,1,.15-.37.52.52,0,0,1,.38-.15h4.56a.53.53,0,0,1,.45.18.62.62,0,0,1,.14.38.48.48,0,0,1-.06.24.65.65,0,0,1-.15.2l-2.73,3-.32-.28a.75.75,0,0,1,.32-.11,2.6,2.6,0,0,1,.42,0,2.87,2.87,0,0,1,1.44.38,2.77,2.77,0,0,1,1.05,1.07,3.12,3.12,0,0,1,.39,1.59,3.22,3.22,0,0,1-.46,1.75,3.11,3.11,0,0,1-1.26,1.15,4,4,0,0,1-1.82.4,3.46,3.46,0,0,1-1.1-.17,2.79,2.79,0,0,1-.93-.51.54.54,0,0,1-.24-.23.45.45,0,0,1-.07-.25.62.62,0,0,1,.17-.4A.49.49,0,0,1,375.29,47.26Z"/><path class="cls-1" d="M389.36,49a2.9,2.9,0,0,1-1.94-.65,4.13,4.13,0,0,1-1.17-1.81,8.55,8.55,0,0,1,0-5.17,4.18,4.18,0,0,1,1.17-1.79,2.91,2.91,0,0,1,1.94-.66,2.87,2.87,0,0,1,1.94.66,4,4,0,0,1,1.17,1.79,8.76,8.76,0,0,1,0,5.17,4,4,0,0,1-1.17,1.81A2.86,2.86,0,0,1,389.36,49Zm0-1.13a1.77,1.77,0,0,0,1.26-.48,2.85,2.85,0,0,0,.77-1.35,7,7,0,0,0,.27-2.08,7.12,7.12,0,0,0-.27-2.09,2.86,2.86,0,0,0-.77-1.34,1.91,1.91,0,0,0-2.51,0,3,3,0,0,0-.78,1.34,7.1,7.1,0,0,0-.28,2.09,7,7,0,0,0,.28,2.08,2.94,2.94,0,0,0,.78,1.35A1.76,1.76,0,0,0,389.36,47.89Z"/><path class="cls-1" d="M397.78,49a2.88,2.88,0,0,1-1.94-.65,4.06,4.06,0,0,1-1.18-1.81,8.55,8.55,0,0,1,0-5.17,4.1,4.1,0,0,1,1.18-1.79,3.18,3.18,0,0,1,3.88,0,4.09,4.09,0,0,1,1.17,1.79,8.76,8.76,0,0,1,0,5.17,4,4,0,0,1-1.17,1.81A2.9,2.9,0,0,1,397.78,49Zm0-1.13a1.76,1.76,0,0,0,1.25-.48,2.94,2.94,0,0,0,.78-1.35,7.07,7.07,0,0,0,.26-2.08,7.14,7.14,0,0,0-.26-2.09,3,3,0,0,0-.78-1.34,1.8,1.8,0,0,0-1.25-.47,1.82,1.82,0,0,0-1.26.47,3,3,0,0,0-.78,1.34,7.12,7.12,0,0,0-.27,2.09,7,7,0,0,0,.27,2.08,2.94,2.94,0,0,0,.78,1.35A1.79,1.79,0,0,0,397.78,47.89Z"/><path class="cls-1" d="M406.19,49a2.9,2.9,0,0,1-1.94-.65,4,4,0,0,1-1.17-1.81,8.55,8.55,0,0,1,0-5.17,4.09,4.09,0,0,1,1.17-1.79,3.18,3.18,0,0,1,3.88,0,4,4,0,0,1,1.17,1.79,8.76,8.76,0,0,1,0,5.17,4,4,0,0,1-1.17,1.81A2.88,2.88,0,0,1,406.19,49Zm0-1.13a1.74,1.74,0,0,0,1.25-.48,2.86,2.86,0,0,0,.78-1.35,7,7,0,0,0,.27-2.08,7.12,7.12,0,0,0-.27-2.09,2.87,2.87,0,0,0-.78-1.34,1.9,1.9,0,0,0-2.5,0,3,3,0,0,0-.78,1.34,7.9,7.9,0,0,0,0,4.17,2.94,2.94,0,0,0,.78,1.35A1.76,1.76,0,0,0,406.19,47.89Z"/><path class="cls-1" d="M418.46,49a2.88,2.88,0,0,1-1.94-.65,4.06,4.06,0,0,1-1.18-1.81,8.55,8.55,0,0,1,0-5.17,4.1,4.1,0,0,1,1.18-1.79,3.18,3.18,0,0,1,3.88,0,4.07,4.07,0,0,1,1.16,1.79,8.55,8.55,0,0,1,0,5.17,4,4,0,0,1-1.16,1.81A2.9,2.9,0,0,1,418.46,49Zm0-1.13a1.76,1.76,0,0,0,1.25-.48,2.94,2.94,0,0,0,.78-1.35,7.42,7.42,0,0,0,.26-2.08,7.5,7.5,0,0,0-.26-2.09,3,3,0,0,0-.78-1.34,1.91,1.91,0,0,0-2.51,0,3,3,0,0,0-.78,1.34,7.12,7.12,0,0,0-.27,2.09,7,7,0,0,0,.27,2.08,2.94,2.94,0,0,0,.78,1.35A1.77,1.77,0,0,0,418.46,47.89Z"/><path class="cls-1" d="M426.87,49a2.88,2.88,0,0,1-1.94-.65,4.06,4.06,0,0,1-1.18-1.81,8.76,8.76,0,0,1,0-5.17,4.1,4.1,0,0,1,1.18-1.79,3.18,3.18,0,0,1,3.88,0A4,4,0,0,1,430,41.39a8.76,8.76,0,0,1,0,5.17,4,4,0,0,1-1.17,1.81A2.88,2.88,0,0,1,426.87,49Zm0-1.13a1.76,1.76,0,0,0,1.25-.48,2.94,2.94,0,0,0,.78-1.35,7,7,0,0,0,.27-2.08,7.12,7.12,0,0,0-.27-2.09,3,3,0,0,0-.78-1.34,1.9,1.9,0,0,0-2.5,0,3,3,0,0,0-.79,1.34,7.12,7.12,0,0,0-.27,2.09,7,7,0,0,0,.27,2.08,3,3,0,0,0,.79,1.35A1.76,1.76,0,0,0,426.87,47.89Z"/><path class="cls-1" d="M435.28,49a2.9,2.9,0,0,1-1.94-.65,4,4,0,0,1-1.17-1.81,8.55,8.55,0,0,1,0-5.17,4.09,4.09,0,0,1,1.17-1.79,3.18,3.18,0,0,1,3.88,0,4,4,0,0,1,1.17,1.79,8.76,8.76,0,0,1,0,5.17,4,4,0,0,1-1.17,1.81A2.88,2.88,0,0,1,435.28,49Zm0-1.13a1.77,1.77,0,0,0,1.26-.48,2.85,2.85,0,0,0,.77-1.35,7,7,0,0,0,.27-2.08,7.12,7.12,0,0,0-.27-2.09,2.86,2.86,0,0,0-.77-1.34,1.91,1.91,0,0,0-2.51,0,3,3,0,0,0-.78,1.34A7.1,7.1,0,0,0,433,44a7,7,0,0,0,.28,2.08,2.94,2.94,0,0,0,.78,1.35A1.76,1.76,0,0,0,435.28,47.89Z"/><path class="cls-2" d="M423.23,27.17H4.16a1,1,0,0,1,0-1.88H423.23a1,1,0,0,1,0,1.88Z"/><polygon class="cls-2" points="8.72 33.94 10 32.56 3.2 26.23 10 19.91 8.72 18.53 0.43 26.23 8.72 33.94"/><polygon class="cls-2" points="416.83 33.94 415.54 32.56 422.35 26.23 415.54 19.91 416.83 18.53 425.12 26.23 416.83 33.94"/><path class="cls-2" d="M35.26,34.82a1,1,0,0,1-.95-.94V18.59a.95.95,0,0,1,1.89,0V33.88A.94.94,0,0,1,35.26,34.82Z"/><path class="cls-2" d="M71,34.82a.94.94,0,0,1-.94-.94V18.59a.94.94,0,1,1,1.88,0V33.88A.94.94,0,0,1,71,34.82Z"/><path class="cls-2" d="M211.9,34.82a.94.94,0,0,1-1-.94V18.59a.95.95,0,0,1,1.89,0V33.88A.94.94,0,0,1,211.9,34.82Z"/><path class="cls-2" d="M352.84,34.82a.94.94,0,0,1-.94-.94V18.59a.94.94,0,1,1,1.88,0V33.88A.94.94,0,0,1,352.84,34.82Z"/><path class="cls-2" d="M388.53,34.82a.94.94,0,0,1-.94-.94V18.59a.95.95,0,0,1,1.89,0V33.88A.94.94,0,0,1,388.53,34.82Z"/></g></g></svg>