<?xml version="1.0" encoding="UTF-8" standalone="no"?>
<svg
   xmlns:dc="http://purl.org/dc/elements/1.1/"
   xmlns:cc="http://creativecommons.org/ns#"
   xmlns:rdf="http://www.w3.org/1999/02/22-rdf-syntax-ns#"
   xmlns:svg="http://www.w3.org/2000/svg"
   xmlns="http://www.w3.org/2000/svg"
   xmlns:sodipodi="http://sodipodi.sourceforge.net/DTD/sodipodi-0.dtd"
   xmlns:inkscape="http://www.inkscape.org/namespaces/inkscape"
   viewBox="0 0 103.69 28.75"
   version="1.1"
   id="svg26"
   sodipodi:docname="V4_d_1.svg"
   inkscape:version="0.92.5 (2060ec1f9f, 2020-04-08)">
  <metadata
     id="metadata30">
    <rdf:RDF>
      <cc:Work
         rdf:about="">
        <dc:format>image/svg+xml</dc:format>
        <dc:type
           rdf:resource="http://purl.org/dc/dcmitype/StillImage" />
        <dc:title></dc:title>
      </cc:Work>
    </rdf:RDF>
  </metadata>
  <sodipodi:namedview
     pagecolor="#ffffff"
     bordercolor="#666666"
     borderopacity="1"
     objecttolerance="10"
     gridtolerance="10"
     guidetolerance="10"
     inkscape:pageopacity="0"
     inkscape:pageshadow="2"
     inkscape:window-width="1920"
     inkscape:window-height="1017"
     id="namedview28"
     showgrid="false"
     inkscape:zoom="3.5201079"
     inkscape:cx="51.845001"
     inkscape:cy="14.375"
     inkscape:window-x="1352"
     inkscape:window-y="-8"
     inkscape:window-maximized="1"
     inkscape:current-layer="svg26" />
  <defs
     id="defs4">
    <style
       id="style2">.cls-1{fill:#1f8ebe;}.cls-2{fill:#363026;}</style>
  </defs>
  <path
     class="cls-1"
     d="m 34.32,14 a 0.84,0.84 0 0 1 -0.59,-0.23 0.79,0.79 0 0 1 -0.23,-0.56 0.74,0.74 0 0 1 0.23,-0.54 0.87,0.87 0 0 1 0.59,-0.21 h 5.62 a 0.84,0.84 0 0 1 0.59,0.21 0.74,0.74 0 0 1 0.23,0.54 0.79,0.79 0 0 1 -0.23,0.56 0.81,0.81 0 0 1 -0.59,0.23 z m 0,2.71 A 0.8,0.8 0 0 1 33.73,16.48 0.76,0.76 0 0 1 33.5,16 a 0.71,0.71 0 0 1 0.23,-0.54 0.83,0.83 0 0 1 0.59,-0.22 h 5.62 a 0.8,0.8 0 0 1 0.59,0.22 0.71,0.71 0 0 1 0.23,0.54 0.79,0.79 0 0 1 -0.82,0.78 z"
     id="path6"
     inkscape:connector-curvature="0"
     style="fill:#1f8ebe" />
  <path
     class="cls-2"
     d="m 52,17.8 a 0.54,0.54 0 0 1 0.38,0.15 0.52,0.52 0 0 1 0.15,0.38 0.5,0.5 0 0 1 -0.15,0.37 0.54,0.54 0 0 1 -0.38,0.15 h -5.06 a 0.6,0.6 0 0 1 -0.42,-0.15 0.54,0.54 0 0 1 -0.16,-0.4 0.62,0.62 0 0 1 0.17,-0.41 l 3.16,-3.45 a 7.17,7.17 0 0 0 1.05,-1.37 2.42,2.42 0 0 0 0.37,-1.24 1.87,1.87 0 0 0 -0.25,-1 1.64,1.64 0 0 0 -0.68,-0.65 2.24,2.24 0 0 0 -2.09,0.06 2,2 0 0 0 -0.8,0.91 0.66,0.66 0 0 1 -0.22,0.22 0.54,0.54 0 0 1 -0.25,0.06 0.57,0.57 0 0 1 -0.37,-0.15 0.4,0.4 0 0 1 -0.19,-0.34 0.52,0.52 0 0 1 0.09,-0.29 l 0.22,-0.3 a 3.09,3.09 0 0 1 1.16,-1.08 3.26,3.26 0 0 1 1.5,-0.37 3.41,3.41 0 0 1 1.63,0.36 2.44,2.44 0 0 1 1,1 3,3 0 0 1 0.36,1.47 3.52,3.52 0 0 1 -0.19,1.09 5.12,5.12 0 0 1 -0.54,1.18 11.06,11.06 0 0 1 -1,1.23 L 48,17.94 47.86,17.8 Z"
     id="path8"
     inkscape:connector-curvature="0"
     style="fill:#363026" />
  <path
     class="cls-2"
     d="m 59.94,18.85 a 0.58,0.58 0 0 1 -0.43,-0.17 0.57,0.57 0 0 1 -0.17,-0.41 v -8 l 0.17,0.19 -1.63,1 A 0.51,0.51 0 0 1 57.6,11.53 0.5,0.5 0 0 1 57.2,11.34 0.57,0.57 0 0 1 57,11 0.56,0.56 0 0 1 57.29,10.51 l 2.29,-1.36 a 0.77,0.77 0 0 1 0.42,-0.1 0.46,0.46 0 0 1 0.37,0.16 0.54,0.54 0 0 1 0.14,0.4 v 8.66 a 0.56,0.56 0 0 1 -0.16,0.41 0.62,0.62 0 0 1 -0.41,0.17 z"
     id="path10"
     inkscape:connector-curvature="0"
     style="fill:#363026" />
  <path
     class="cls-2"
     d="m 65,18.9 a 4.2,4.2 0 0 1 -1.14,-0.17 2.78,2.78 0 0 1 -1,-0.53 0.69,0.69 0 0 1 -0.19,-0.25 0.82,0.82 0 0 1 -0.07,-0.29 0.46,0.46 0 0 1 0.15,-0.33 0.5,0.5 0 0 1 0.39,-0.16 0.74,0.74 0 0 1 0.42,0.18 2.65,2.65 0 0 0 0.68,0.38 2.27,2.27 0 0 0 0.76,0.14 2.78,2.78 0 0 0 1.31,-0.31 2.33,2.33 0 0 0 0.91,-0.85 2.27,2.27 0 0 0 0.33,-1.21 2.21,2.21 0 0 0 -0.29,-1.13 2,2 0 0 0 -0.8,-0.75 2.58,2.58 0 0 0 -1.17,-0.26 2.42,2.42 0 0 0 -0.88,0.15 3.52,3.52 0 0 0 -0.67,0.3 1.05,1.05 0 0 1 -0.46,0.15 0.66,0.66 0 0 1 -0.42,-0.12 0.57,0.57 0 0 1 -0.21,-0.3 0.79,0.79 0 0 1 0,-0.34 L 63.2,9.49 a 0.6,0.6 0 0 1 0.19,-0.31 0.57,0.57 0 0 1 0.38,-0.13 h 4.16 a 0.51,0.51 0 0 1 0.53,0.53 0.54,0.54 0 0 1 -0.15,0.38 0.52,0.52 0 0 1 -0.38,0.15 H 64 l 0.14,-0.13 -0.52,3.24 -0.22,-0.3 a 2.06,2.06 0 0 1 0.47,-0.28 3.93,3.93 0 0 1 0.73,-0.23 3.33,3.33 0 0 1 0.84,-0.1 3.26,3.26 0 0 1 1.63,0.41 3,3 0 0 1 1.15,1.13 3.15,3.15 0 0 1 0.42,1.64 3.37,3.37 0 0 1 -0.28,1.36 3.23,3.23 0 0 1 -0.77,1.09 3.69,3.69 0 0 1 -1.16,0.71 A 4,4 0 0 1 65,18.9 Z"
     id="path12"
     inkscape:connector-curvature="0"
     style="fill:#363026" />
  <path
     class="cls-2"
     d="m 73.44,8.88 a 3.18,3.18 0 0 1 1.41,0.3 2.88,2.88 0 0 1 1,0.82 3.7,3.7 0 0 1 0.62,1.16 4.25,4.25 0 0 1 0.2,1.33 6.78,6.78 0 0 1 -0.15,1.34 8.24,8.24 0 0 1 -0.47,1.49 7,7 0 0 1 -0.82,1.45 A 6,6 0 0 1 74,18 a 5.4,5.4 0 0 1 -1.61,0.86 0.64,0.64 0 0 1 -0.22,0 0.63,0.63 0 0 1 -0.4,-0.14 0.49,0.49 0 0 1 -0.18,-0.42 0.48,0.48 0 0 1 0.13,-0.34 0.71,0.71 0 0 1 0.33,-0.22 4.83,4.83 0 0 0 1.49,-0.74 6.13,6.13 0 0 0 1.21,-1.37 4.7,4.7 0 0 0 0.68,-1.66 l 0.33,-0.11 a 2.93,2.93 0 0 1 -0.59,0.7 3,3 0 0 1 -0.84,0.54 2.69,2.69 0 0 1 -1.07,0.21 2.49,2.49 0 0 1 -1.15,-0.31 2.93,2.93 0 0 1 -0.94,-0.7 3.5,3.5 0 0 1 -0.64,-1 3.33,3.33 0 0 1 -0.23,-1.21 3.19,3.19 0 0 1 0.41,-1.59 3.36,3.36 0 0 1 1.13,-1.15 3,3 0 0 1 1.6,-0.47 z m 0,1 a 1.94,1.94 0 0 0 -1.75,1 2.23,2.23 0 0 0 -0.27,1.11 2.38,2.38 0 0 0 0.24,1 1.89,1.89 0 0 0 1.74,1.09 2,2 0 0 0 1.13,-0.3 1.88,1.88 0 0 0 0.74,-0.79 2.33,2.33 0 0 0 0.27,-0.99 2.25,2.25 0 0 0 -0.25,-1 2,2 0 0 0 -0.73,-0.77 2.08,2.08 0 0 0 -1.11,-0.3 z"
     id="path14"
     inkscape:connector-curvature="0"
     style="fill:#363026" />
  <path
     class="cls-2"
     d="m 82.47,17.22 a 0.5,0.5 0 0 1 0.19,0 0.74,0.74 0 0 1 0.23,0.14 2,2 0 0 0 0.66,0.41 2.47,2.47 0 0 0 2,-0.12 2.19,2.19 0 0 0 0.82,-0.78 2.12,2.12 0 0 0 0.31,-1.16 2,2 0 0 0 -0.31,-1.17 2,2 0 0 0 -0.8,-0.67 2.51,2.51 0 0 0 -1,-0.22 2.05,2.05 0 0 0 -0.37,0 l -0.31,0.07 a 1,1 0 0 1 -0.28,0 0.44,0.44 0 0 1 -0.35,-0.15 0.6,0.6 0 0 1 -0.12,-0.38 0.59,0.59 0 0 1 0,-0.23 0.8,0.8 0 0 1 0.14,-0.22 l 2.74,-3 0.23,0.27 h -4 A 0.55,0.55 0 0 1 81.87,9.85 0.52,0.52 0 0 1 81.72,9.47 0.51,0.51 0 0 1 81.87,9.1 0.57,0.57 0 0 1 82.25,8.96 h 4.57 a 0.51,0.51 0 0 1 0.44,0.17 0.59,0.59 0 0 1 0.14,0.39 0.59,0.59 0 0 1 0,0.23 0.74,0.74 0 0 1 -0.16,0.2 l -2.73,3 -0.32,-0.28 a 1,1 0 0 1 0.32,-0.11 2.6,2.6 0 0 1 0.42,0 2.88,2.88 0 0 1 1.45,0.38 2.92,2.92 0 0 1 1.05,1.07 3.15,3.15 0 0 1 0.39,1.59 3.31,3.31 0 0 1 -0.46,1.75 3.07,3.07 0 0 1 -1.27,1.15 4,4 0 0 1 -1.81,0.41 3.43,3.43 0 0 1 -1.1,-0.18 A 2.62,2.62 0 0 1 82.25,18.22 0.5,0.5 0 0 1 82,18 a 0.62,0.62 0 0 1 -0.06,-0.26 0.6,0.6 0 0 1 0.16,-0.4 0.51,0.51 0 0 1 0.37,-0.12 z"
     id="path16"
     inkscape:connector-curvature="0"
     style="fill:#363026" />
  <path
     class="cls-2"
     d="m 91.1,18.89 a 0.62,0.62 0 0 1 -0.4,-0.15 0.46,0.46 0 0 1 -0.18,-0.38 0.8,0.8 0 0 1 0,-0.26 l 3.68,-8.26 0.15,0.26 h -4.5 A 0.53,0.53 0 0 1 89.47,9.94 0.49,0.49 0 0 1 89.31,9.56 0.49,0.49 0 0 1 89.47,9.19 0.56,0.56 0 0 1 89.85,9.05 h 5.05 a 0.61,0.61 0 0 1 0.42,0.14 0.53,0.53 0 0 1 0.15,0.39 0.75,0.75 0 0 1 0,0.26 l -3.8,8.7 a 0.43,0.43 0 0 1 -0.2,0.26 0.59,0.59 0 0 1 -0.37,0.09 z"
     id="path18"
     inkscape:connector-curvature="0"
     style="fill:#363026" />
  <path
     class="cls-2"
     d="m 101.77,18.85 a 0.54,0.54 0 0 1 -0.4,-0.17 0.6,0.6 0 0 1 -0.16,-0.41 v -7.66 l 0.23,0.09 -3.35,4.37 L 98,14.9 h 5.13 a 0.51,0.51 0 0 1 0.53,0.53 0.49,0.49 0 0 1 -0.15,0.36 0.53,0.53 0 0 1 -0.38,0.14 h -5.9 a 0.56,0.56 0 0 1 -0.38,-0.16 0.54,0.54 0 0 1 -0.17,-0.4 0.48,0.48 0 0 1 0.14,-0.36 l 4.46,-5.74 a 0.57,0.57 0 0 1 0.22,-0.17 0.6,0.6 0 0 1 0.26,0 0.5,0.5 0 0 1 0.39,0.16 0.55,0.55 0 0 1 0.15,0.4 v 8.66 a 0.56,0.56 0 0 1 -0.16,0.41 0.54,0.54 0 0 1 -0.37,0.12 z"
     id="path20"
     inkscape:connector-curvature="0"
     style="fill:#363026" />
  <polygon
     class="cls-1"
     points="16.6,0 33.2,28.75 0,28.75 "
     id="polygon22"
     style="fill:#1f8ebe"
     transform="translate(0.16084924,0.17088973)" />
</svg>
