<?xml version="1.0" encoding="UTF-8" standalone="no"?>
<svg
   xmlns:dc="http://purl.org/dc/elements/1.1/"
   xmlns:cc="http://creativecommons.org/ns#"
   xmlns:rdf="http://www.w3.org/1999/02/22-rdf-syntax-ns#"
   xmlns:svg="http://www.w3.org/2000/svg"
   xmlns="http://www.w3.org/2000/svg"
   xmlns:sodipodi="http://sodipodi.sourceforge.net/DTD/sodipodi-0.dtd"
   xmlns:inkscape="http://www.inkscape.org/namespaces/inkscape"
   viewBox="0 0 109.01 28.75"
   version="1.1"
   id="svg26"
   sodipodi:docname="V4_d_3.svg"
   inkscape:version="0.92.5 (2060ec1f9f, 2020-04-08)">
  <metadata
     id="metadata30">
    <rdf:RDF>
      <cc:Work
         rdf:about="">
        <dc:format>image/svg+xml</dc:format>
        <dc:type
           rdf:resource="http://purl.org/dc/dcmitype/StillImage" />
        <dc:title></dc:title>
      </cc:Work>
    </rdf:RDF>
  </metadata>
  <sodipodi:namedview
     pagecolor="#ffffff"
     bordercolor="#666666"
     borderopacity="1"
     objecttolerance="10"
     gridtolerance="10"
     guidetolerance="10"
     inkscape:pageopacity="0"
     inkscape:pageshadow="2"
     inkscape:window-width="1920"
     inkscape:window-height="1017"
     id="namedview28"
     showgrid="false"
     inkscape:zoom="3.3483166"
     inkscape:cx="54.505001"
     inkscape:cy="14.375"
     inkscape:window-x="1352"
     inkscape:window-y="-8"
     inkscape:window-maximized="1"
     inkscape:current-layer="svg26" />
  <defs
     id="defs4">
    <style
       id="style2">.cls-1{fill:#1f8ebe;}.cls-2{fill:#363026;}</style>
  </defs>
  <path
     class="cls-1"
     d="m 36.55,14 a 0.82,0.82 0 0 1 -0.59,-0.23 0.76,0.76 0 0 1 -0.24,-0.56 0.71,0.71 0 0 1 0.24,-0.54 0.85,0.85 0 0 1 0.59,-0.21 h 5.61 a 0.84,0.84 0 0 1 0.59,0.21 0.71,0.71 0 0 1 0.24,0.54 0.76,0.76 0 0 1 -0.24,0.56 0.81,0.81 0 0 1 -0.59,0.23 z m 0,2.71 A 0.78,0.78 0 0 1 36,16.5 0.74,0.74 0 0 1 35.76,15.95 0.68,0.68 0 0 1 36,15.41 0.82,0.82 0 0 1 36.59,15.19 h 5.61 a 0.8,0.8 0 0 1 0.59,0.22 0.68,0.68 0 0 1 0.21,0.59 0.74,0.74 0 0 1 -0.24,0.55 0.77,0.77 0 0 1 -0.59,0.23 z"
     id="path6"
     inkscape:connector-curvature="0"
     style="fill:#1f8ebe" />
  <path
     class="cls-2"
     d="m 54.24,17.8 a 0.51,0.51 0 0 1 0.53,0.53 0.5,0.5 0 0 1 -0.15,0.37 0.52,0.52 0 0 1 -0.38,0.15 h -5.08 a 0.56,0.56 0 0 1 -0.41,-0.15 0.51,0.51 0 0 1 -0.16,-0.4 0.61,0.61 0 0 1 0.16,-0.41 l 3.17,-3.45 a 7.61,7.61 0 0 0 1,-1.37 2.51,2.51 0 0 0 0.36,-1.24 2,2 0 0 0 -0.24,-1 1.7,1.7 0 0 0 -0.68,-0.65 2.26,2.26 0 0 0 -2.1,0.06 2,2 0 0 0 -0.8,0.91 0.66,0.66 0 0 1 -0.22,0.22 0.53,0.53 0 0 1 -0.24,0.06 0.59,0.59 0 0 1 -0.38,-0.15 0.42,0.42 0 0 1 -0.18,-0.34 0.52,0.52 0 0 1 0.09,-0.29 2.52,2.52 0 0 1 0.22,-0.3 3,3 0 0 1 1.25,-1.07 3.2,3.2 0 0 1 1.5,-0.37 3.47,3.47 0 0 1 1.63,0.36 2.41,2.41 0 0 1 1,1 3,3 0 0 1 0.36,1.47 3.25,3.25 0 0 1 -0.19,1.09 5.12,5.12 0 0 1 -0.59,1.17 9.88,9.88 0 0 1 -1,1.23 l -2.45,2.72 -0.14,-0.14 z"
     id="path8"
     inkscape:connector-curvature="0"
     style="fill:#363026" />
  <path
     class="cls-2"
     d="m 62.39,18.9 a 4.2,4.2 0 0 1 -1.14,-0.17 2.91,2.91 0 0 1 -1,-0.53 0.8,0.8 0 0 1 -0.18,-0.25 0.65,0.65 0 0 1 -0.07,-0.29 0.46,0.46 0 0 1 0.15,-0.33 0.48,0.48 0 0 1 0.38,-0.16 0.72,0.72 0 0 1 0.42,0.18 2.89,2.89 0 0 0 0.69,0.38 2.22,2.22 0 0 0 0.76,0.14 2.78,2.78 0 0 0 1.31,-0.31 2.3,2.3 0 0 0 0.9,-0.85 2.27,2.27 0 0 0 0.33,-1.21 2.2,2.2 0 0 0 -0.28,-1.13 2,2 0 0 0 -0.8,-0.75 2.58,2.58 0 0 0 -1.17,-0.26 2.42,2.42 0 0 0 -0.88,0.15 3.52,3.52 0 0 0 -0.67,0.3 1.09,1.09 0 0 1 -0.47,0.15 0.7,0.7 0 0 1 -0.42,-0.12 0.55,0.55 0 0 1 -0.2,-0.3 0.79,0.79 0 0 1 0,-0.34 l 0.54,-3.7 a 0.6,0.6 0 0 1 0.2,-0.32 0.55,0.55 0 0 1 0.38,-0.13 h 4.16 a 0.54,0.54 0 0 1 0.38,0.15 0.52,0.52 0 0 1 0.15,0.38 0.51,0.51 0 0 1 -0.53,0.53 H 61.41 L 61.55,9.99 61,13.22 60.78,12.92 a 2.06,2.06 0 0 1 0.47,-0.28 4.07,4.07 0 0 1 0.72,-0.23 3.47,3.47 0 0 1 0.85,-0.1 3.26,3.26 0 0 1 1.63,0.41 3.09,3.09 0 0 1 1.14,1.13 3.18,3.18 0 0 1 0.41,1.64 3.37,3.37 0 0 1 -0.27,1.36 3.23,3.23 0 0 1 -0.73,1.09 3.52,3.52 0 0 1 -1.16,0.71 4.05,4.05 0 0 1 -1.45,0.25 z"
     id="path10"
     inkscape:connector-curvature="0"
     style="fill:#363026" />
  <path
     class="cls-2"
     d="m 72.41,13.91 v -0.2 a 3.17,3.17 0 0 1 0.88,0.57 2.82,2.82 0 0 1 0.62,0.84 2.3,2.3 0 0 1 0.23,1 2.54,2.54 0 0 1 -0.41,1.39 3,3 0 0 1 -1.12,1 3.32,3.32 0 0 1 -1.58,0.38 3.22,3.22 0 0 1 -1.56,-0.38 3,3 0 0 1 -1.12,-1 2.54,2.54 0 0 1 -0.41,-1.39 2.33,2.33 0 0 1 0.24,-1.12 2.87,2.87 0 0 1 0.66,-0.81 3.53,3.53 0 0 1 0.83,-0.53 l -0.07,0.23 a 2.68,2.68 0 0 1 -0.69,-0.46 2.35,2.35 0 0 1 -0.54,-0.73 2.16,2.16 0 0 1 -0.21,-1 2.5,2.5 0 0 1 0.38,-1.37 2.7,2.7 0 0 1 1,-1 3.07,3.07 0 0 1 1.46,-0.28 3,3 0 0 1 1.45,0.35 2.82,2.82 0 0 1 1,1 2.51,2.51 0 0 1 0.39,1.37 2.14,2.14 0 0 1 -0.23,1 2.29,2.29 0 0 1 -0.55,0.71 2.59,2.59 0 0 1 -0.65,0.43 z m -1.4,4 a 2,2 0 0 0 1.42,-0.51 1.67,1.67 0 0 0 0.29,-2.16 1.88,1.88 0 0 0 -0.71,-0.63 2.2,2.2 0 0 0 -1,-0.23 2.17,2.17 0 0 0 -1,0.23 1.8,1.8 0 0 0 -0.71,0.63 1.67,1.67 0 0 0 0.29,2.16 2,2 0 0 0 1.41,0.47 z M 69.29,11.8 a 1.67,1.67 0 0 0 0.23,0.88 1.73,1.73 0 0 0 0.63,0.6 1.86,1.86 0 0 0 0.86,0.22 1.74,1.74 0 0 0 0.86,-0.22 1.73,1.73 0 0 0 0.63,-0.6 1.75,1.75 0 0 0 -0.25,-2.07 1.67,1.67 0 0 0 -1.25,-0.51 1.7,1.7 0 0 0 -1.24,0.47 1.59,1.59 0 0 0 -0.47,1.19 z"
     id="path12"
     inkscape:connector-curvature="0"
     style="fill:#363026" />
  <path
     class="cls-2"
     d="m 78.24,18.9 a 4.09,4.09 0 0 1 -1.14,-0.17 2.91,2.91 0 0 1 -1,-0.53 0.8,0.8 0 0 1 -0.2,-0.2 0.65,0.65 0 0 1 -0.07,-0.29 0.46,0.46 0 0 1 0.15,-0.33 0.46,0.46 0 0 1 0.38,-0.16 0.74,0.74 0 0 1 0.42,0.18 2.89,2.89 0 0 0 0.69,0.38 2.21,2.21 0 0 0 0.75,0.14 2.8,2.8 0 0 0 1.32,-0.31 2.37,2.37 0 0 0 0.9,-0.85 2.27,2.27 0 0 0 0.33,-1.21 2.11,2.11 0 0 0 -0.29,-1.13 2,2 0 0 0 -0.79,-0.75 2.58,2.58 0 0 0 -1.17,-0.26 2.42,2.42 0 0 0 -0.88,0.15 3.63,3.63 0 0 0 -0.68,0.3 1,1 0 0 1 -0.46,0.15 0.66,0.66 0 0 1 -0.42,-0.12 0.55,0.55 0 0 1 -0.2,-0.3 0.79,0.79 0 0 1 0,-0.34 l 0.54,-3.7 A 0.6,0.6 0 0 1 76.62,9.23 0.55,0.55 0 0 1 77,9.05 h 4.16 a 0.51,0.51 0 0 1 0.37,0.15 0.49,0.49 0 0 1 0.16,0.38 0.51,0.51 0 0 1 -0.16,0.38 0.51,0.51 0 0 1 -0.37,0.15 h -3.9 L 77.4,10 l -0.52,3.23 -0.23,-0.3 a 2.31,2.31 0 0 1 0.47,-0.28 4.19,4.19 0 0 1 0.73,-0.23 3.47,3.47 0 0 1 0.85,-0.1 3.29,3.29 0 0 1 1.63,0.41 3.09,3.09 0 0 1 1.14,1.13 3.18,3.18 0 0 1 0.42,1.64 3.37,3.37 0 0 1 -0.27,1.36 3.23,3.23 0 0 1 -0.77,1.09 3.52,3.52 0 0 1 -1.16,0.71 4.05,4.05 0 0 1 -1.45,0.24 z"
     id="path14"
     inkscape:connector-curvature="0"
     style="fill:#363026" />
  <path
     class="cls-2"
     d="m 90.65,19 a 3.1,3.1 0 0 1 -1.4,-0.3 2.94,2.94 0 0 1 -1,-0.82 A 3.84,3.84 0 0 1 87.64,16.71 4.21,4.21 0 0 1 87.43,15.38 6.86,6.86 0 0 1 87.56,14 8.78,8.78 0 0 1 88,12.51 7.26,7.26 0 0 1 88.85,11 6.32,6.32 0 0 1 90.05,9.72 5.34,5.34 0 0 1 91.66,8.84 h 0.23 a 0.7,0.7 0 0 1 0.4,0.12 0.49,0.49 0 0 1 0.17,0.42 0.51,0.51 0 0 1 -0.13,0.35 0.7,0.7 0 0 1 -0.33,0.21 4.82,4.82 0 0 0 -1.1,0.61 5.85,5.85 0 0 0 -1,0.94 6.42,6.42 0 0 0 -0.79,1.16 4.47,4.47 0 0 0 -0.45,1.3 l -0.34,0.11 a 4,4 0 0 1 0.6,-0.72 3.24,3.24 0 0 1 0.85,-0.54 2.61,2.61 0 0 1 1.06,-0.21 2.58,2.58 0 0 1 1.14,0.26 3.14,3.14 0 0 1 0.94,0.72 3.34,3.34 0 0 1 0.87,2.24 3.14,3.14 0 0 1 -0.41,1.57 3.39,3.39 0 0 1 -1.12,1.17 3,3 0 0 1 -1.6,0.45 z m 0,-1 a 1.9,1.9 0 0 0 1,-0.28 2,2 0 0 0 0.72,-0.75 2.21,2.21 0 0 0 0.27,-1.1 2.36,2.36 0 0 0 -0.24,-1.06 2,2 0 0 0 -0.68,-0.8 1.84,1.84 0 0 0 -1.06,-0.3 2.07,2.07 0 0 0 -1.13,0.3 2,2 0 0 0 -0.74,0.79 2.38,2.38 0 0 0 -0.26,1.1 2.13,2.13 0 0 0 0.26,1 1.9,1.9 0 0 0 0.72,0.77 2,2 0 0 0 1.13,0.27 z"
     id="path16"
     inkscape:connector-curvature="0"
     style="fill:#363026" />
  <path
     class="cls-2"
     d="m 96.91,18.89 a 0.6,0.6 0 0 1 -0.4,-0.15 0.47,0.47 0 0 1 -0.19,-0.38 0.62,0.62 0 0 1 0.06,-0.26 l 3.62,-8.26 0.15,0.26 h -4.5 A 0.51,0.51 0 0 1 95.27,9.94 0.52,0.52 0 0 1 95.12,9.56 0.51,0.51 0 0 1 95.27,9.19 0.57,0.57 0 0 1 95.65,9.05 h 5.06 a 0.64,0.64 0 0 1 0.42,0.14 0.53,0.53 0 0 1 0.15,0.39 0.58,0.58 0 0 1 -0.06,0.26 l -3.79,8.7 a 0.47,0.47 0 0 1 -0.2,0.26 0.62,0.62 0 0 1 -0.32,0.09 z"
     id="path18"
     inkscape:connector-curvature="0"
     style="fill:#363026" />
  <path
     class="cls-2"
     d="m 108.48,17.8 a 0.5,0.5 0 0 1 0.37,0.15 0.49,0.49 0 0 1 0.16,0.38 0.47,0.47 0 0 1 -0.16,0.37 0.5,0.5 0 0 1 -0.37,0.15 h -5.09 a 0.59,0.59 0 0 1 -0.41,-0.15 0.51,0.51 0 0 1 -0.16,-0.4 0.62,0.62 0 0 1 0.17,-0.41 l 3.16,-3.45 a 7.17,7.17 0 0 0 1,-1.37 2.42,2.42 0 0 0 0.37,-1.24 2,2 0 0 0 -0.25,-1 1.64,1.64 0 0 0 -0.68,-0.65 2.1,2.1 0 0 0 -2.9,1 0.56,0.56 0 0 1 -0.21,0.22 0.54,0.54 0 0 1 -0.25,0.06 0.61,0.61 0 0 1 -0.38,-0.15 0.42,0.42 0 0 1 -0.18,-0.34 0.52,0.52 0 0 1 0.09,-0.29 c 0.06,-0.1 0.14,-0.19 0.22,-0.3 a 3.09,3.09 0 0 1 1.16,-1.08 3.26,3.26 0 0 1 1.5,-0.37 3.41,3.41 0 0 1 1.63,0.36 2.49,2.49 0 0 1 1,1 3,3 0 0 1 0.36,1.47 3.52,3.52 0 0 1 -0.19,1.09 4.78,4.78 0 0 1 -0.59,1.14 9.88,9.88 0 0 1 -1,1.23 l -2.45,2.72 -0.14,-0.14 z"
     id="path20"
     inkscape:connector-curvature="0"
     style="fill:#363026" />
  <circle
     class="cls-1"
     cx="14.932877"
     cy="14.414437"
     r="14.37"
     id="circle22"
     style="fill:#1f8ebe" />
</svg>
