<svg xmlns="http://www.w3.org/2000/svg" viewBox="0 0 438.78 49.07"><defs><style>.cls-1{fill:#363026;}.cls-2{fill:#1f8ebe;}</style></defs><g id="Layer_2" data-name="Layer 2"><g id="Layer_1-2" data-name="Layer 1"><path class="cls-1" d="M5.75,47.88a.52.52,0,0,1,.38.15.53.53,0,0,1,.16.38.51.51,0,0,1-.16.37.52.52,0,0,1-.38.15H.67a.58.58,0,0,1-.41-.15.51.51,0,0,1-.16-.4A.58.58,0,0,1,.27,48l3.16-3.45a7.17,7.17,0,0,0,1.05-1.37,2.51,2.51,0,0,0,.36-1.24,2,2,0,0,0-.24-1,1.64,1.64,0,0,0-.68-.65,2.08,2.08,0,0,0-1-.23A2,2,0,0,0,1,41.24a.58.58,0,0,1-.22.22.5.5,0,0,1-.24.06.59.59,0,0,1-.38-.15A.42.42,0,0,1,0,41a.52.52,0,0,1,.09-.29,2.52,2.52,0,0,1,.22-.3,2.92,2.92,0,0,1,1.16-1.07A3.12,3.12,0,0,1,3,39a3.44,3.44,0,0,1,1.63.36,2.41,2.41,0,0,1,1,1A3,3,0,0,1,6,41.84a3.25,3.25,0,0,1-.19,1.09,4.72,4.72,0,0,1-.58,1.14,9.88,9.88,0,0,1-1,1.23L1.78,48l-.14-.14Z"/><path class="cls-1" d="M14.91,49.07A2.89,2.89,0,0,1,13,48.41a4.06,4.06,0,0,1-1.18-1.81,8.73,8.73,0,0,1,0-5.16A4.08,4.08,0,0,1,13,39.64,2.93,2.93,0,0,1,14.91,39a3,3,0,0,1,1.94.65A4,4,0,0,1,18,41.44a8.73,8.73,0,0,1,0,5.16,4,4,0,0,1-1.17,1.81A2.91,2.91,0,0,1,14.91,49.07Zm0-1.14a1.8,1.8,0,0,0,1.25-.47,3.05,3.05,0,0,0,.78-1.35,8.22,8.22,0,0,0,0-4.18,3,3,0,0,0-.78-1.34,1.9,1.9,0,0,0-2.5,0,3,3,0,0,0-.79,1.34,8.22,8.22,0,0,0,0,4.18,3.06,3.06,0,0,0,.79,1.35A1.8,1.8,0,0,0,14.91,47.93Z"/><path class="cls-1" d="M23.32,49.07a2.91,2.91,0,0,1-1.94-.66,4.13,4.13,0,0,1-1.17-1.81,8.52,8.52,0,0,1,0-5.16,4.15,4.15,0,0,1,1.17-1.8A3,3,0,0,1,23.32,39a2.91,2.91,0,0,1,1.94.65,4,4,0,0,1,1.17,1.8,8.73,8.73,0,0,1,0,5.16,4,4,0,0,1-1.17,1.81A2.87,2.87,0,0,1,23.32,49.07Zm0-1.14a1.8,1.8,0,0,0,1.26-.47,3,3,0,0,0,.77-1.35,8.22,8.22,0,0,0,0-4.18,2.86,2.86,0,0,0-.77-1.34,1.91,1.91,0,0,0-2.51,0,3,3,0,0,0-.78,1.34,7.94,7.94,0,0,0,0,4.18,3.05,3.05,0,0,0,.78,1.35A1.8,1.8,0,0,0,23.32,47.93Z"/><path class="cls-1" d="M31.74,49.07a2.89,2.89,0,0,1-1.94-.66,4.06,4.06,0,0,1-1.18-1.81,8.52,8.52,0,0,1,0-5.16,4.08,4.08,0,0,1,1.18-1.8,3.22,3.22,0,0,1,3.88,0,4,4,0,0,1,1.16,1.8,8.52,8.52,0,0,1,0,5.16,4,4,0,0,1-1.16,1.81A2.91,2.91,0,0,1,31.74,49.07Zm0-1.14A1.8,1.8,0,0,0,33,47.46a3.05,3.05,0,0,0,.78-1.35,8.53,8.53,0,0,0,0-4.18A3,3,0,0,0,33,40.59a1.8,1.8,0,0,0-1.25-.47,1.82,1.82,0,0,0-1.26.47,3,3,0,0,0-.78,1.34,8.22,8.22,0,0,0,0,4.18,3.05,3.05,0,0,0,.78,1.35A1.82,1.82,0,0,0,31.74,47.93Z"/><path class="cls-1" d="M44,49.07a2.91,2.91,0,0,1-1.94-.66,4,4,0,0,1-1.17-1.81,8.52,8.52,0,0,1,0-5.16,4,4,0,0,1,1.17-1.8,3.22,3.22,0,0,1,3.88,0,4,4,0,0,1,1.17,1.8,8.73,8.73,0,0,1,0,5.16,4,4,0,0,1-1.17,1.81A2.89,2.89,0,0,1,44,49.07Zm0-1.14a1.78,1.78,0,0,0,1.25-.47A3.05,3.05,0,0,0,46,46.11a8.22,8.22,0,0,0,0-4.18,3,3,0,0,0-.78-1.34,1.9,1.9,0,0,0-2.5,0A3.06,3.06,0,0,0,42,41.93a8.22,8.22,0,0,0,0,4.18,3.16,3.16,0,0,0,.79,1.35A1.8,1.8,0,0,0,44,47.93Z"/><path class="cls-1" d="M52.42,49.07a2.89,2.89,0,0,1-1.94-.66A4.06,4.06,0,0,1,49.3,46.6a8.52,8.52,0,0,1,0-5.16,4.08,4.08,0,0,1,1.18-1.8,3.21,3.21,0,0,1,3.87,0,4,4,0,0,1,1.17,1.8,8.52,8.52,0,0,1,0,5.16,4,4,0,0,1-1.17,1.81A2.86,2.86,0,0,1,52.42,49.07Zm0-1.14a1.8,1.8,0,0,0,1.25-.47,3.05,3.05,0,0,0,.78-1.35,8.53,8.53,0,0,0,0-4.18,3,3,0,0,0-.78-1.34,1.91,1.91,0,0,0-2.51,0,3,3,0,0,0-.78,1.34,8.22,8.22,0,0,0,0,4.18,3.05,3.05,0,0,0,.78,1.35A1.8,1.8,0,0,0,52.42,47.93Z"/><path class="cls-1" d="M60.83,49.07a2.89,2.89,0,0,1-1.94-.66,4.06,4.06,0,0,1-1.18-1.81,8.73,8.73,0,0,1,0-5.16,4.08,4.08,0,0,1,1.18-1.8,3.22,3.22,0,0,1,3.88,0,4,4,0,0,1,1.17,1.8,8.73,8.73,0,0,1,0,5.16,4,4,0,0,1-1.17,1.81A2.91,2.91,0,0,1,60.83,49.07Zm0-1.14a1.8,1.8,0,0,0,1.25-.47,3.05,3.05,0,0,0,.78-1.35,8.22,8.22,0,0,0,0-4.18,3,3,0,0,0-.78-1.34,1.9,1.9,0,0,0-2.5,0,3,3,0,0,0-.79,1.34,8.22,8.22,0,0,0,0,4.18,3.06,3.06,0,0,0,.79,1.35A1.78,1.78,0,0,0,60.83,47.93Z"/><path class="cls-1" d="M56.7,9a.51.51,0,0,1,.53.53.5.5,0,0,1-.15.37.54.54,0,0,1-.38.15H51.62a.6.6,0,0,1-.42-.15.54.54,0,0,1-.16-.4.58.58,0,0,1,.17-.4L54.38,5.6a8.07,8.07,0,0,0,1-1.36A2.54,2.54,0,0,0,55.79,3a1.88,1.88,0,0,0-.25-1,1.61,1.61,0,0,0-.67-.65,2.21,2.21,0,0,0-1-.23,2.18,2.18,0,0,0-1.07.29,2,2,0,0,0-.8.91.58.58,0,0,1-.22.22.53.53,0,0,1-.24.06.64.64,0,0,1-.38-.14A.44.44,0,0,1,51,2.11.52.52,0,0,1,51,1.82c.06-.09.13-.19.21-.29A2.9,2.9,0,0,1,52.42.45,3.2,3.2,0,0,1,53.91.07a3.41,3.41,0,0,1,1.63.36,2.5,2.5,0,0,1,1,1,3,3,0,0,1,.36,1.48A3.51,3.51,0,0,1,56.75,4a5.12,5.12,0,0,1-.58,1.14,8.59,8.59,0,0,1-1,1.23L52.72,9.1,52.58,9Z"/><path class="cls-1" d="M64.62,10a.6.6,0,0,1-.43-.17.56.56,0,0,1-.17-.4v-8l.17.2-1.62,1a.68.68,0,0,1-.28.07.55.55,0,0,1-.41-.19.61.61,0,0,1-.17-.39A.57.57,0,0,1,62,1.65L64.29.29a.77.77,0,0,1,.42-.08.44.44,0,0,1,.37.16.57.57,0,0,1,.15.4V9.44a.56.56,0,0,1-.17.4A.6.6,0,0,1,64.62,10Z"/><path class="cls-1" d="M69.66,10.07a3.87,3.87,0,0,1-1.14-.18,3.12,3.12,0,0,1-1-.52.61.61,0,0,1-.18-.26.67.67,0,0,1-.08-.29.53.53,0,0,1,.54-.49.74.74,0,0,1,.42.18,2.38,2.38,0,0,0,.68.38,2.31,2.31,0,0,0,.76.14A2.74,2.74,0,0,0,71,8.72a2.35,2.35,0,0,0,.9-.84,2.3,2.3,0,0,0,.33-1.22,2.15,2.15,0,0,0-.29-1.12,1.93,1.93,0,0,0-.8-.75,2.66,2.66,0,0,0-2-.12,6.26,6.26,0,0,0-.67.3,1.05,1.05,0,0,1-.46.15A.66.66,0,0,1,67.51,5a.55.55,0,0,1-.21-.3.76.76,0,0,1,0-.33L67.83.66A.58.58,0,0,1,68,.34.52.52,0,0,1,68.4.21h4.16a.52.52,0,0,1,.38.15.54.54,0,0,1,.15.38.51.51,0,0,1-.53.53H68.68l.14-.12-.51,3.23-.23-.29a1.75,1.75,0,0,1,.47-.28,3.91,3.91,0,0,1,.73-.24,3.41,3.41,0,0,1,.85-.1,3.29,3.29,0,0,1,1.63.41,3.1,3.1,0,0,1,1.56,2.77A3.21,3.21,0,0,1,73,8a3.09,3.09,0,0,1-.77,1.09,3.27,3.27,0,0,1-1.16.71A4,4,0,0,1,69.66,10.07Z"/><path class="cls-1" d="M78.12,0a3.18,3.18,0,0,1,1.41.3,3,3,0,0,1,1,.82,3.81,3.81,0,0,1,.62,1.16,4.3,4.3,0,0,1,.21,1.33A6.09,6.09,0,0,1,81.21,5a8,8,0,0,1-.47,1.49,7.05,7.05,0,0,1-.82,1.46,5.91,5.91,0,0,1-1.2,1.25,5.18,5.18,0,0,1-1.61.86.64.64,0,0,1-.22,0,.58.58,0,0,1-.4-.14.49.49,0,0,1-.18-.42.48.48,0,0,1,.13-.34A.75.75,0,0,1,76.78,9a4.7,4.7,0,0,0,1.44-.86,5.84,5.84,0,0,0,1.21-1.36,4.57,4.57,0,0,0,.68-1.67L80.44,5a3,3,0,0,1-.59.71,3,3,0,0,1-.84.54,2.65,2.65,0,0,1-1.07.21,2.62,2.62,0,0,1-1.15-.26,3.11,3.11,0,0,1-.94-.71,3.5,3.5,0,0,1-.64-1A3.33,3.33,0,0,1,75,3.22a3,3,0,0,1,.42-1.58A3.27,3.27,0,0,1,76.52.48,3,3,0,0,1,78.12,0Zm0,1.05a1.92,1.92,0,0,0-1,.28,2,2,0,0,0-.72.74,2.33,2.33,0,0,0-.26,1.11,2.56,2.56,0,0,0,.23,1.06,2,2,0,0,0,.69.79,1.92,1.92,0,0,0,1,.29,2.19,2.19,0,0,0,1.14-.29A2.05,2.05,0,0,0,80,4.28a2.37,2.37,0,0,0,.26-1.09,2.13,2.13,0,0,0-.25-1,2,2,0,0,0-.72-.76A2.06,2.06,0,0,0,78.13,1.09Z"/><path class="cls-1" d="M87.15,8.39l.19,0a.56.56,0,0,1,.23.15,2,2,0,0,0,.66.4,2.13,2.13,0,0,0,.86.16,2.31,2.31,0,0,0,1.11-.27A2.27,2.27,0,0,0,91,8.08a2.17,2.17,0,0,0,.31-1.16A2,2,0,0,0,91,5.75a1.84,1.84,0,0,0-.8-.67,2.36,2.36,0,0,0-1-.22,2.22,2.22,0,0,0-.37,0L88.53,5a1.45,1.45,0,0,1-.28,0,.4.4,0,0,1-.34-.16.52.52,0,0,1-.13-.37.53.53,0,0,1,0-.23A.9.9,0,0,1,88,4l2.75-3,.22.27H87a.5.5,0,0,1-.37-.15.51.51,0,0,1-.16-.38.47.47,0,0,1,.16-.37A.5.5,0,0,1,87,.21h4.57A.54.54,0,0,1,92,.38a.59.59,0,0,1,.14.39.46.46,0,0,1,0,.23,1,1,0,0,1-.15.2l-2.73,3L88.84,4a.85.85,0,0,1,.33-.1,1.68,1.68,0,0,1,.41,0A2.78,2.78,0,0,1,91,4.19a2.74,2.74,0,0,1,1,1.06,3.19,3.19,0,0,1,.39,1.6A3.24,3.24,0,0,1,92,8.6a3.12,3.12,0,0,1-1.27,1.14,4,4,0,0,1-1.81.41,3.43,3.43,0,0,1-1.1-.18,2.47,2.47,0,0,1-.93-.51.55.55,0,0,1-.25-.22A.57.57,0,0,1,86.59,9a.63.63,0,0,1,.16-.41A.5.5,0,0,1,87.15,8.39Z"/><path class="cls-1" d="M95.79,10.05a.68.68,0,0,1-.41-.14.48.48,0,0,1-.18-.39.74.74,0,0,1,0-.25L98.88,1l.15.25h-4.5a.52.52,0,0,1-.38-.15A.54.54,0,0,1,94,.73a.5.5,0,0,1,.15-.37.52.52,0,0,1,.38-.15h5a.57.57,0,0,1,.42.15.51.51,0,0,1,.16.38.66.66,0,0,1-.06.27L96.3,9.7a.43.43,0,0,1-.2.26A.59.59,0,0,1,95.79,10.05Z"/><path class="cls-1" d="M106.45,10a.52.52,0,0,1-.39-.17.56.56,0,0,1-.17-.4V1.78l.23.08-3.35,4.37,0-.17h5.12a.49.49,0,0,1,.38.16.5.5,0,0,1,.15.37.49.49,0,0,1-.15.36.52.52,0,0,1-.38.15H102a.57.57,0,0,1-.39-.17.5.5,0,0,1-.17-.39.52.52,0,0,1,.14-.37L106,.43a.53.53,0,0,1,.23-.17.7.7,0,0,1,.25-.05.5.5,0,0,1,.39.16.57.57,0,0,1,.15.4V9.44a.55.55,0,0,1-.16.4A.53.53,0,0,1,106.45,10Z"/><path class="cls-1" d="M321.33,9a.52.52,0,0,1,.38.15.51.51,0,0,1,.16.38.47.47,0,0,1-.16.37.52.52,0,0,1-.38.15h-5.08a.58.58,0,0,1-.41-.15.51.51,0,0,1-.16-.4.54.54,0,0,1,.17-.4L319,5.6a7.14,7.14,0,0,0,1.05-1.36A2.54,2.54,0,0,0,320.42,3a2,2,0,0,0-.24-1,1.64,1.64,0,0,0-.68-.65,2.24,2.24,0,0,0-2.09.06,2.07,2.07,0,0,0-.81.91.56.56,0,0,1-.21.22.57.57,0,0,1-.25.06.64.64,0,0,1-.38-.14.44.44,0,0,1-.18-.35.52.52,0,0,1,.09-.29,2.47,2.47,0,0,1,.22-.29A2.94,2.94,0,0,1,317.05.45a3.27,3.27,0,0,1,1.5-.38,3.44,3.44,0,0,1,1.63.36,2.55,2.55,0,0,1,1,1,3.11,3.11,0,0,1,.35,1.48A3.24,3.24,0,0,1,321.38,4a4.72,4.72,0,0,1-.58,1.14,9.2,9.2,0,0,1-1,1.23L317.36,9.1,317.22,9Z"/><path class="cls-1" d="M330.11,0a3.18,3.18,0,0,1,1.41.3,2.9,2.9,0,0,1,1,.82,3.61,3.61,0,0,1,.62,1.16,4.3,4.3,0,0,1,.21,1.33A6.7,6.7,0,0,1,333.21,5a8.82,8.82,0,0,1-.47,1.49,7.55,7.55,0,0,1-.82,1.46,6.22,6.22,0,0,1-1.21,1.25,5.07,5.07,0,0,1-1.61.86.6.6,0,0,1-.22,0,.59.59,0,0,1-.4-.14.51.51,0,0,1-.17-.42.52.52,0,0,1,.12-.34.8.8,0,0,1,.34-.22,4.75,4.75,0,0,0,1.45-.86,6,6,0,0,0,1.2-1.36,4.57,4.57,0,0,0,.68-1.67l.34-.11a3.23,3.23,0,0,1-.59.71,3.08,3.08,0,0,1-.85.54,2.75,2.75,0,0,1-2.22,0,3.38,3.38,0,0,1-.94-.71,3.28,3.28,0,0,1-.63-1A3.14,3.14,0,0,1,327,3.22a3,3,0,0,1,.41-1.58A3.3,3.3,0,0,1,328.52.48,3,3,0,0,1,330.11,0Zm0,1.05a1.87,1.87,0,0,0-1,.28,1.9,1.9,0,0,0-.72.74,2.23,2.23,0,0,0-.27,1.11,2.42,2.42,0,0,0,.24,1.06,2,2,0,0,0,.68.79,1.92,1.92,0,0,0,1.05.29,2.19,2.19,0,0,0,1.14-.29,2,2,0,0,0,.73-.79,2.25,2.25,0,0,0,.26-1.09,2.13,2.13,0,0,0-.25-1,2,2,0,0,0-1.83-1.06Z"/><path class="cls-1" d="M337.21,10.07a3.87,3.87,0,0,1-1.14-.18,3.07,3.07,0,0,1-1-.52.86.86,0,0,1-.18-.26.82.82,0,0,1-.07-.29.53.53,0,0,1,.53-.49.69.69,0,0,1,.42.18,2.58,2.58,0,0,0,.69.38,2.22,2.22,0,0,0,.76.14,2.67,2.67,0,0,0,1.31-.31,2.38,2.38,0,0,0,.91-.84,2.39,2.39,0,0,0,.32-1.22,2.14,2.14,0,0,0-.28-1.12,1.93,1.93,0,0,0-.8-.75,2.46,2.46,0,0,0-1.17-.27,2.42,2.42,0,0,0-.88.15,5.47,5.47,0,0,0-.67.3,1,1,0,0,1-.47.15.7.7,0,0,1-.42-.12.49.49,0,0,1-.2-.3.76.76,0,0,1,0-.33l.55-3.71a.56.56,0,0,1,.19-.32A.55.55,0,0,1,336,.21h4.16a.54.54,0,0,1,.38.15.54.54,0,0,1,.15.38.52.52,0,0,1-.15.38.54.54,0,0,1-.38.15h-3.88l.14-.12-.52,3.23-.22-.29a1.75,1.75,0,0,1,.47-.28,3.91,3.91,0,0,1,.73-.24,3.33,3.33,0,0,1,.84-.1,3.26,3.26,0,0,1,1.63.41,3.1,3.1,0,0,1,1.56,2.77A3.37,3.37,0,0,1,340.59,8a3.23,3.23,0,0,1-.77,1.09,3.36,3.36,0,0,1-1.16.71A4,4,0,0,1,337.21,10.07Z"/><path class="cls-1" d="M347.64,10a.54.54,0,0,1-.4-.17.55.55,0,0,1-.16-.4V1.78l.22.08L344,6.23l-.06-.17H349a.55.55,0,0,1,.53.53.46.46,0,0,1-.16.36.5.5,0,0,1-.37.15h-5.9a.53.53,0,0,1-.38-.17.51.51,0,0,1-.18-.39.57.57,0,0,1,.14-.37L347.18.43a.51.51,0,0,1,.22-.17.79.79,0,0,1,.25-.05.54.54,0,0,1,.4.16.57.57,0,0,1,.15.4V9.44a.55.55,0,0,1-.16.4A.54.54,0,0,1,347.64,10Z"/><path class="cls-1" d="M359.58,5.07l0-.2a3,3,0,0,1,.89.58,2.78,2.78,0,0,1,.62.83,2.3,2.3,0,0,1,.23,1,2.57,2.57,0,0,1-.41,1.4,3,3,0,0,1-1.12,1,3.32,3.32,0,0,1-1.58.38,3.28,3.28,0,0,1-1.57-.38,3.09,3.09,0,0,1-1.11-1,2.57,2.57,0,0,1-.41-1.4,2.18,2.18,0,0,1,.26-1.1,2.73,2.73,0,0,1,.65-.81,3.52,3.52,0,0,1,.84-.54l-.07.23a2.31,2.31,0,0,1-.69-.46,2.35,2.35,0,0,1-.54-.73,2.13,2.13,0,0,1-.21-1,2.58,2.58,0,0,1,.37-1.37,2.7,2.7,0,0,1,1-1,3,3,0,0,1,1.44-.36,2.9,2.9,0,0,1,1.44.36,2.67,2.67,0,0,1,1,1A2.51,2.51,0,0,1,361,2.91a2.11,2.11,0,0,1-.23,1,2.22,2.22,0,0,1-.55.72A2.54,2.54,0,0,1,359.58,5.07Zm-1.4,4a2.05,2.05,0,0,0,1.42-.5,1.64,1.64,0,0,0,.56-1.25,1.61,1.61,0,0,0-.27-.92,2.06,2.06,0,0,0-.71-.63,2.2,2.2,0,0,0-1-.23,2.17,2.17,0,0,0-1,.23,2,2,0,0,0-.71.63,1.61,1.61,0,0,0-.27.92,1.64,1.64,0,0,0,.56,1.25A2,2,0,0,0,358.18,9Zm-1.72-6.1a1.7,1.7,0,0,0,.23.88,1.56,1.56,0,0,0,.63.59,1.72,1.72,0,0,0,.86.22A1.64,1.64,0,0,0,359,4.4a1.7,1.7,0,0,0,.63-.59,1.7,1.7,0,0,0,.23-.88,1.6,1.6,0,0,0-.48-1.2,1.87,1.87,0,0,0-2.48,0A1.6,1.6,0,0,0,356.46,2.93Z"/><path class="cls-1" d="M364.83,10.05a.65.65,0,0,1-.4-.14.47.47,0,0,1-.19-.39.57.57,0,0,1,.06-.25L367.93,1l.15.25h-4.51a.54.54,0,0,1-.38-.15A.54.54,0,0,1,363,.73a.5.5,0,0,1,.15-.37.54.54,0,0,1,.38-.15h5.06a.6.6,0,0,1,.42.15.5.5,0,0,1,.15.38.66.66,0,0,1-.06.27L365.35,9.7a.47.47,0,0,1-.2.26A.62.62,0,0,1,364.83,10.05Z"/><path class="cls-1" d="M372.67,10a.58.58,0,0,1-.43-.17.56.56,0,0,1-.17-.4v-8l.17.2-1.63,1a.61.61,0,0,1-.28.07.53.53,0,0,1-.4-.19.61.61,0,0,1-.17-.39.57.57,0,0,1,.29-.49L372.34.29a.77.77,0,0,1,.42-.08.46.46,0,0,1,.37.16.56.56,0,0,1,.14.4V9.44a.55.55,0,0,1-.16.4A.62.62,0,0,1,372.67,10Z"/><path class="cls-1" d="M188.31,9a.51.51,0,0,1,.53.53.5.5,0,0,1-.15.37.54.54,0,0,1-.38.15h-5.08a.6.6,0,0,1-.42-.15.54.54,0,0,1-.16-.4.58.58,0,0,1,.17-.4L186,5.6a8.07,8.07,0,0,0,1-1.36A2.54,2.54,0,0,0,187.4,3a1.88,1.88,0,0,0-.25-1,1.68,1.68,0,0,0-.67-.65,2.21,2.21,0,0,0-1-.23,2.18,2.18,0,0,0-1.07.29,2,2,0,0,0-.8.91.58.58,0,0,1-.22.22.53.53,0,0,1-.24.06.64.64,0,0,1-.38-.14.44.44,0,0,1-.18-.35.52.52,0,0,1,.09-.29c.06-.09.13-.19.21-.29A2.9,2.9,0,0,1,184,.45a3.2,3.2,0,0,1,1.49-.38,3.41,3.41,0,0,1,1.63.36,2.5,2.5,0,0,1,1,1,3,3,0,0,1,.36,1.48A3.51,3.51,0,0,1,188.36,4a5.12,5.12,0,0,1-.58,1.14,9.33,9.33,0,0,1-1,1.23L184.33,9.1,184.19,9Z"/><path class="cls-1" d="M196.46,10.07a3.77,3.77,0,0,1-1.14-.18,3.07,3.07,0,0,1-1-.52.86.86,0,0,1-.18-.26.65.65,0,0,1-.07-.29.49.49,0,0,1,.15-.33.46.46,0,0,1,.38-.16.74.74,0,0,1,.42.18,2.58,2.58,0,0,0,.69.38,2.21,2.21,0,0,0,.75.14,2.68,2.68,0,0,0,1.32-.31,2.35,2.35,0,0,0,.9-.84A2.3,2.3,0,0,0,199,6.66a2.14,2.14,0,0,0-.28-1.12,2,2,0,0,0-.8-.75,2.46,2.46,0,0,0-1.17-.27,2.42,2.42,0,0,0-.88.15,5.68,5.68,0,0,0-.68.3,1,1,0,0,1-.46.15A.66.66,0,0,1,194.3,5a.49.49,0,0,1-.2-.3.76.76,0,0,1,0-.33l.54-3.71a.64.64,0,0,1,.2-.32.55.55,0,0,1,.38-.13h4.16a.51.51,0,0,1,.37.15.51.51,0,0,1,.16.38.49.49,0,0,1-.16.38.51.51,0,0,1-.37.15h-3.88l.14-.12-.52,3.23-.22-.29a1.67,1.67,0,0,1,.46-.28,4.17,4.17,0,0,1,.73-.24,3.47,3.47,0,0,1,.85-.1,3.26,3.26,0,0,1,1.63.41,3.1,3.1,0,0,1,1.56,2.77A3.37,3.37,0,0,1,199.84,8a3.23,3.23,0,0,1-.77,1.09,3.36,3.36,0,0,1-1.16.71A4.06,4.06,0,0,1,196.46,10.07Z"/><path class="cls-1" d="M206.48,5.07l0-.2a2.86,2.86,0,0,1,.88.58,2.81,2.81,0,0,1,.63.83,2.3,2.3,0,0,1,.23,1,2.57,2.57,0,0,1-.41,1.4,3,3,0,0,1-1.12,1,3.35,3.35,0,0,1-1.58.38,3.28,3.28,0,0,1-1.57-.38,3.09,3.09,0,0,1-1.11-1,2.57,2.57,0,0,1-.41-1.4,2.18,2.18,0,0,1,.26-1.1,2.73,2.73,0,0,1,.65-.81,3.52,3.52,0,0,1,.84-.54l-.07.23a2.35,2.35,0,0,1-.7-.46,2.33,2.33,0,0,1-.53-.73,2,2,0,0,1-.21-1,2.58,2.58,0,0,1,.37-1.37,2.7,2.7,0,0,1,1-1,3,3,0,0,1,1.44-.36,2.9,2.9,0,0,1,1.44.36,2.67,2.67,0,0,1,1,1,2.51,2.51,0,0,1,.39,1.37,2.11,2.11,0,0,1-.23,1,2.37,2.37,0,0,1-.55.72A2.71,2.71,0,0,1,206.48,5.07Zm-1.4,4a2.05,2.05,0,0,0,1.42-.5,1.64,1.64,0,0,0,.56-1.25,1.61,1.61,0,0,0-.27-.92,2.06,2.06,0,0,0-.71-.63,2.2,2.2,0,0,0-1-.23,2.17,2.17,0,0,0-1,.23,1.89,1.89,0,0,0-.71.63,1.61,1.61,0,0,0-.27.92,1.67,1.67,0,0,0,.55,1.25A2,2,0,0,0,205.08,9Zm-1.72-6.1a1.7,1.7,0,0,0,.23.88,1.56,1.56,0,0,0,.63.59,1.72,1.72,0,0,0,.86.22,1.64,1.64,0,0,0,.86-.22,1.7,1.7,0,0,0,.63-.59,1.7,1.7,0,0,0,.23-.88,1.6,1.6,0,0,0-.48-1.2,1.87,1.87,0,0,0-2.48,0A1.6,1.6,0,0,0,203.36,2.93Z"/><path class="cls-1" d="M212.31,10.07a3.88,3.88,0,0,1-1.15-.18,3.12,3.12,0,0,1-1-.52.61.61,0,0,1-.18-.26.65.65,0,0,1-.07-.29.53.53,0,0,1,.14-.33.5.5,0,0,1,.39-.16.74.74,0,0,1,.42.18,2.31,2.31,0,0,0,.69.38,2.21,2.21,0,0,0,.75.14,2.71,2.71,0,0,0,1.32-.31,2.35,2.35,0,0,0,.9-.84,2.3,2.3,0,0,0,.33-1.22,2.15,2.15,0,0,0-.29-1.12,1.93,1.93,0,0,0-.8-.75,2.66,2.66,0,0,0-2.05-.12A6.26,6.26,0,0,0,211,5a1.05,1.05,0,0,1-.46.15.66.66,0,0,1-.42-.12.49.49,0,0,1-.2-.3.63.63,0,0,1,0-.33l.54-3.71a.58.58,0,0,1,.2-.32A.54.54,0,0,1,211,.21h4.16a.52.52,0,0,1,.38.15.55.55,0,0,1,.16.38.53.53,0,0,1-.16.38.52.52,0,0,1-.38.15h-3.87l.14-.12L211,4.38l-.23-.29a1.93,1.93,0,0,1,.47-.28,3.91,3.91,0,0,1,.73-.24,3.47,3.47,0,0,1,.85-.1,3.29,3.29,0,0,1,1.63.41A3.1,3.1,0,0,1,216,6.65a3.27,3.27,0,0,1-1,2.45,3.4,3.4,0,0,1-1.17.71A4,4,0,0,1,212.31,10.07Z"/><path class="cls-1" d="M224.72,10.15a3.1,3.1,0,0,1-1.4-.3,2.83,2.83,0,0,1-1-.82,3.79,3.79,0,0,1-.61-1.16,4,4,0,0,1-.21-1.33,7,7,0,0,1,.15-1.35,8.78,8.78,0,0,1,.47-1.52,7.53,7.53,0,0,1,.82-1.49A6.3,6.3,0,0,1,224.12.9,5.2,5.2,0,0,1,225.73,0L226,0a.67.67,0,0,1,.39.12.47.47,0,0,1,.18.43.48.48,0,0,1-.13.34.71.71,0,0,1-.33.22,4.57,4.57,0,0,0-1.1.6,6.31,6.31,0,0,0-1,.94,6.62,6.62,0,0,0-.78,1.17,4.31,4.31,0,0,0-.45,1.29l-.34.11a3.59,3.59,0,0,1,.6-.71,2.89,2.89,0,0,1,.85-.55,2.61,2.61,0,0,1,1.06-.21,2.46,2.46,0,0,1,1.14.27,3.11,3.11,0,0,1,.94.71,3.5,3.5,0,0,1,.64,1A3.33,3.33,0,0,1,227.86,7a3.18,3.18,0,0,1-.41,1.58,3.28,3.28,0,0,1-1.12,1.16A3,3,0,0,1,224.72,10.15Zm0-1.05a2,2,0,0,0,1-.27,2.1,2.1,0,0,0,.72-.76,2.21,2.21,0,0,0,.27-1.1,2.36,2.36,0,0,0-.24-1.06,2,2,0,0,0-.68-.79,1.86,1.86,0,0,0-1.06-.3,2,2,0,0,0-1.13.29,2,2,0,0,0-.74.79,2.38,2.38,0,0,0-.26,1.1,2.2,2.2,0,0,0,.26,1,2,2,0,0,0,.72.77A2.08,2.08,0,0,0,224.71,9.1Z"/><path class="cls-1" d="M231,10.05a.65.65,0,0,1-.4-.14.47.47,0,0,1-.19-.39.57.57,0,0,1,.06-.25L234.08,1l.15.25h-4.51a.54.54,0,0,1-.38-.15.54.54,0,0,1-.15-.38.5.5,0,0,1,.15-.37.54.54,0,0,1,.38-.15h5.05a.61.61,0,0,1,.43.15.5.5,0,0,1,.15.38.66.66,0,0,1-.06.27L231.5,9.7a.52.52,0,0,1-.2.26A.62.62,0,0,1,231,10.05Z"/><path class="cls-1" d="M242.54,9a.52.52,0,0,1,.38.15.51.51,0,0,1,.16.38.47.47,0,0,1-.16.37.52.52,0,0,1-.38.15h-5.08a.58.58,0,0,1-.41-.15.51.51,0,0,1-.16-.4.54.54,0,0,1,.17-.4l3.16-3.46a7.14,7.14,0,0,0,1.05-1.36A2.54,2.54,0,0,0,241.63,3a2,2,0,0,0-.24-1,1.64,1.64,0,0,0-.68-.65,2.24,2.24,0,0,0-2.09.06,2.07,2.07,0,0,0-.81.91.56.56,0,0,1-.21.22.57.57,0,0,1-.25.06.64.64,0,0,1-.38-.14.44.44,0,0,1-.18-.35.52.52,0,0,1,.09-.29,2.47,2.47,0,0,1,.22-.29A2.94,2.94,0,0,1,238.26.45a3.27,3.27,0,0,1,1.5-.38,3.44,3.44,0,0,1,1.63.36,2.55,2.55,0,0,1,1,1,3.11,3.11,0,0,1,.35,1.48A3.24,3.24,0,0,1,242.59,4,4.72,4.72,0,0,1,242,5.15a9.2,9.2,0,0,1-1,1.23L238.57,9.1,238.43,9Z"/><path class="cls-1" d="M375.29,47.3a.46.46,0,0,1,.19,0,.56.56,0,0,1,.23.15,2.42,2.42,0,0,0,.66.4,2.49,2.49,0,0,0,2-.12,2.24,2.24,0,0,0,.82-.77,2.18,2.18,0,0,0,.31-1.17,2,2,0,0,0-.31-1.17,2,2,0,0,0-.8-.67,2.52,2.52,0,0,0-1-.21,2.06,2.06,0,0,0-.36,0l-.32.07a.91.91,0,0,1-.27.05.43.43,0,0,1-.35-.16.6.6,0,0,1-.13-.38.59.59,0,0,1,.05-.23.62.62,0,0,1,.14-.22l2.74-3,.22.27h-4a.49.49,0,0,1-.38-.16.52.52,0,0,1-.15-.38.51.51,0,0,1,.15-.37.56.56,0,0,1,.38-.14h4.56a.55.55,0,0,1,.45.17.64.64,0,0,1,.14.39.46.46,0,0,1-.06.23.55.55,0,0,1-.15.2l-2.73,3-.32-.28a.92.92,0,0,1,.32-.11,2.6,2.6,0,0,1,.42-.05,2.87,2.87,0,0,1,1.44.38,2.84,2.84,0,0,1,1.05,1.07,3.15,3.15,0,0,1,.39,1.59,3.22,3.22,0,0,1-.46,1.75,3.11,3.11,0,0,1-1.26,1.15,4,4,0,0,1-1.82.41,3.47,3.47,0,0,1-1.1-.18,2.47,2.47,0,0,1-.93-.51.52.52,0,0,1-.24-.22.5.5,0,0,1-.07-.25.62.62,0,0,1,.17-.41A.49.49,0,0,1,375.29,47.3Z"/><path class="cls-1" d="M389.36,49.07a2.91,2.91,0,0,1-1.94-.66,4.13,4.13,0,0,1-1.17-1.81,8.52,8.52,0,0,1,0-5.16,4.15,4.15,0,0,1,1.17-1.8,3,3,0,0,1,1.94-.65,2.91,2.91,0,0,1,1.94.65,4,4,0,0,1,1.17,1.8,8.73,8.73,0,0,1,0,5.16,4,4,0,0,1-1.17,1.81A2.87,2.87,0,0,1,389.36,49.07Zm0-1.14a1.8,1.8,0,0,0,1.26-.47,3,3,0,0,0,.77-1.35,8.22,8.22,0,0,0,0-4.18,2.86,2.86,0,0,0-.77-1.34,1.91,1.91,0,0,0-2.51,0,3,3,0,0,0-.78,1.34,7.94,7.94,0,0,0,0,4.18,3.05,3.05,0,0,0,.78,1.35A1.8,1.8,0,0,0,389.36,47.93Z"/><path class="cls-1" d="M397.78,49.07a2.89,2.89,0,0,1-1.94-.66,4.06,4.06,0,0,1-1.18-1.81,8.52,8.52,0,0,1,0-5.16,4.08,4.08,0,0,1,1.18-1.8,3.22,3.22,0,0,1,3.88,0,4.06,4.06,0,0,1,1.17,1.8,8.73,8.73,0,0,1,0,5.16,4,4,0,0,1-1.17,1.81A2.91,2.91,0,0,1,397.78,49.07Zm0-1.14a1.8,1.8,0,0,0,1.25-.47,3.05,3.05,0,0,0,.78-1.35,8.53,8.53,0,0,0,0-4.18,3,3,0,0,0-.78-1.34,1.8,1.8,0,0,0-1.25-.47,1.82,1.82,0,0,0-1.26.47,3,3,0,0,0-.78,1.34,8.22,8.22,0,0,0,0,4.18,3.05,3.05,0,0,0,.78,1.35A1.82,1.82,0,0,0,397.78,47.93Z"/><path class="cls-1" d="M406.19,49.07a2.91,2.91,0,0,1-1.94-.66,4,4,0,0,1-1.17-1.81,8.52,8.52,0,0,1,0-5.16,4.06,4.06,0,0,1,1.17-1.8,3.22,3.22,0,0,1,3.88,0,4,4,0,0,1,1.17,1.8,8.73,8.73,0,0,1,0,5.16,4,4,0,0,1-1.17,1.81A2.89,2.89,0,0,1,406.19,49.07Zm0-1.14a1.78,1.78,0,0,0,1.25-.47,3,3,0,0,0,.78-1.35,8.22,8.22,0,0,0,0-4.18,2.87,2.87,0,0,0-.78-1.34,1.9,1.9,0,0,0-2.5,0,3,3,0,0,0-.78,1.34,7.94,7.94,0,0,0,0,4.18,3.05,3.05,0,0,0,.78,1.35A1.8,1.8,0,0,0,406.19,47.93Z"/><path class="cls-1" d="M418.46,49.07a2.89,2.89,0,0,1-1.94-.66,4.06,4.06,0,0,1-1.18-1.81,8.52,8.52,0,0,1,0-5.16,4.08,4.08,0,0,1,1.18-1.8,3.22,3.22,0,0,1,3.88,0,4,4,0,0,1,1.16,1.8,8.52,8.52,0,0,1,0,5.16,4,4,0,0,1-1.16,1.81A2.91,2.91,0,0,1,418.46,49.07Zm0-1.14a1.8,1.8,0,0,0,1.25-.47,3.05,3.05,0,0,0,.78-1.35,8.53,8.53,0,0,0,0-4.18,3,3,0,0,0-.78-1.34,1.91,1.91,0,0,0-2.51,0,3,3,0,0,0-.78,1.34,8.22,8.22,0,0,0,0,4.18,3.05,3.05,0,0,0,.78,1.35A1.8,1.8,0,0,0,418.46,47.93Z"/><path class="cls-1" d="M426.87,49.07a2.89,2.89,0,0,1-1.94-.66,4.06,4.06,0,0,1-1.18-1.81,8.73,8.73,0,0,1,0-5.16,4.08,4.08,0,0,1,1.18-1.8,3.22,3.22,0,0,1,3.88,0,4,4,0,0,1,1.17,1.8,8.73,8.73,0,0,1,0,5.16,4,4,0,0,1-1.17,1.81A2.89,2.89,0,0,1,426.87,49.07Zm0-1.14a1.8,1.8,0,0,0,1.25-.47,3.05,3.05,0,0,0,.78-1.35,8.22,8.22,0,0,0,0-4.18,3,3,0,0,0-.78-1.34,1.9,1.9,0,0,0-2.5,0,3,3,0,0,0-.79,1.34,8.22,8.22,0,0,0,0,4.18,3.06,3.06,0,0,0,.79,1.35A1.8,1.8,0,0,0,426.87,47.93Z"/><path class="cls-1" d="M435.28,49.07a2.91,2.91,0,0,1-1.94-.66,4,4,0,0,1-1.17-1.81,8.52,8.52,0,0,1,0-5.16,4.06,4.06,0,0,1,1.17-1.8,3.22,3.22,0,0,1,3.88,0,4,4,0,0,1,1.17,1.8,8.73,8.73,0,0,1,0,5.16,4,4,0,0,1-1.17,1.81A2.89,2.89,0,0,1,435.28,49.07Zm0-1.14a1.8,1.8,0,0,0,1.26-.47,3,3,0,0,0,.77-1.35,8.22,8.22,0,0,0,0-4.18,2.86,2.86,0,0,0-.77-1.34,1.91,1.91,0,0,0-2.51,0,3,3,0,0,0-.78,1.34,7.94,7.94,0,0,0,0,4.18,3.05,3.05,0,0,0,.78,1.35A1.8,1.8,0,0,0,435.28,47.93Z"/><path class="cls-2" d="M423.23,27.22H4.16a1,1,0,0,1,0-1.89H423.23a1,1,0,0,1,0,1.89Z"/><polygon class="cls-2" points="8.72 33.98 10 32.6 3.2 26.28 10 19.95 8.72 18.57 0.43 26.28 8.72 33.98"/><polygon class="cls-2" points="416.83 33.98 415.54 32.6 422.35 26.28 415.54 19.95 416.83 18.57 425.12 26.28 416.83 33.98"/><path class="cls-2" d="M35.26,34.86a1,1,0,0,1-.95-.94V18.63a.95.95,0,0,1,1.89,0V33.92A.94.94,0,0,1,35.26,34.86Z"/><path class="cls-2" d="M71,34.86a.94.94,0,0,1-.94-.94V18.63a.94.94,0,1,1,1.88,0V33.92A.94.94,0,0,1,71,34.86Z"/><path class="cls-2" d="M211.9,34.86a.94.94,0,0,1-1-.94V18.63a.95.95,0,0,1,1.89,0V33.92A.94.94,0,0,1,211.9,34.86Z"/><path class="cls-2" d="M352.84,34.86a.94.94,0,0,1-.94-.94V18.63a.94.94,0,1,1,1.88,0V33.92A.94.94,0,0,1,352.84,34.86Z"/><path class="cls-2" d="M388.53,34.86a.94.94,0,0,1-.94-.94V18.63a.95.95,0,0,1,1.89,0V33.92A.94.94,0,0,1,388.53,34.86Z"/></g></g></svg>