<?xml version="1.0" encoding="UTF-8" standalone="no"?>
<svg
   xmlns:dc="http://purl.org/dc/elements/1.1/"
   xmlns:cc="http://creativecommons.org/ns#"
   xmlns:rdf="http://www.w3.org/1999/02/22-rdf-syntax-ns#"
   xmlns:svg="http://www.w3.org/2000/svg"
   xmlns="http://www.w3.org/2000/svg"
   xmlns:sodipodi="http://sodipodi.sourceforge.net/DTD/sodipodi-0.dtd"
   xmlns:inkscape="http://www.inkscape.org/namespaces/inkscape"
   viewBox="0 0 102.15 28.75"
   version="1.1"
   id="svg26"
   sodipodi:docname="V5_d_3.svg"
   inkscape:version="0.92.5 (2060ec1f9f, 2020-04-08)">
  <metadata
     id="metadata30">
    <rdf:RDF>
      <cc:Work
         rdf:about="">
        <dc:format>image/svg+xml</dc:format>
        <dc:type
           rdf:resource="http://purl.org/dc/dcmitype/StillImage" />
        <dc:title></dc:title>
      </cc:Work>
    </rdf:RDF>
  </metadata>
  <sodipodi:namedview
     pagecolor="#ffffff"
     bordercolor="#666666"
     borderopacity="1"
     objecttolerance="10"
     gridtolerance="10"
     guidetolerance="10"
     inkscape:pageopacity="0"
     inkscape:pageshadow="2"
     inkscape:window-width="918"
     inkscape:window-height="480"
     id="namedview28"
     showgrid="false"
     inkscape:zoom="3.5731766"
     inkscape:cx="18.784215"
     inkscape:cy="14.375"
     inkscape:window-x="811"
     inkscape:window-y="67"
     inkscape:window-maximized="0"
     inkscape:current-layer="svg26" />
  <defs
     id="defs4">
    <style
       id="style2">.cls-1{fill:#1f8ebe;}.cls-2{fill:#363026;}</style>
  </defs>
  <path
     class="cls-1"
     d="m 36.55,14 a 0.82,0.82 0 0 1 -0.59,-0.23 0.76,0.76 0 0 1 -0.24,-0.56 0.71,0.71 0 0 1 0.24,-0.54 0.85,0.85 0 0 1 0.59,-0.21 h 5.61 a 0.84,0.84 0 0 1 0.59,0.21 0.71,0.71 0 0 1 0.24,0.54 0.76,0.76 0 0 1 -0.24,0.56 0.81,0.81 0 0 1 -0.59,0.23 z m 0,2.71 A 0.78,0.78 0 0 1 36,16.5 0.74,0.74 0 0 1 35.76,15.95 0.68,0.68 0 0 1 36,15.41 0.86,0.86 0 0 1 36.59,15.19 h 5.61 a 0.84,0.84 0 0 1 0.59,0.22 0.68,0.68 0 0 1 0.21,0.59 0.74,0.74 0 0 1 -0.24,0.55 0.77,0.77 0 0 1 -0.59,0.23 z"
     id="path6"
     inkscape:connector-curvature="0"
     style="fill:#1f8ebe" />
  <path
     class="cls-2"
     d="m 54.24,17.8 a 0.51,0.51 0 0 1 0.53,0.53 0.5,0.5 0 0 1 -0.15,0.37 0.52,0.52 0 0 1 -0.38,0.15 h -5.08 a 0.56,0.56 0 0 1 -0.41,-0.15 0.51,0.51 0 0 1 -0.16,-0.4 0.61,0.61 0 0 1 0.16,-0.41 l 3.17,-3.45 a 7.61,7.61 0 0 0 1,-1.37 2.51,2.51 0 0 0 0.36,-1.24 2,2 0 0 0 -0.24,-1 1.7,1.7 0 0 0 -0.68,-0.65 2.26,2.26 0 0 0 -2.1,0.06 2,2 0 0 0 -0.8,0.91 0.66,0.66 0 0 1 -0.22,0.22 0.53,0.53 0 0 1 -0.24,0.06 0.59,0.59 0 0 1 -0.38,-0.15 0.42,0.42 0 0 1 -0.18,-0.34 0.52,0.52 0 0 1 0.09,-0.29 2.52,2.52 0 0 1 0.22,-0.3 2.85,2.85 0 0 1 1.25,-1.06 3.1,3.1 0 0 1 1.5,-0.38 3.47,3.47 0 0 1 1.63,0.36 2.41,2.41 0 0 1 1,1 3,3 0 0 1 0.36,1.47 3.25,3.25 0 0 1 -0.19,1.09 5.12,5.12 0 0 1 -0.59,1.17 9.88,9.88 0 0 1 -1,1.23 l -2.45,2.72 -0.14,-0.14 z"
     id="path8"
     inkscape:connector-curvature="0"
     style="fill:#363026" />
  <path
     class="cls-2"
     d="m 62.39,18.9 a 4.2,4.2 0 0 1 -1.14,-0.17 2.91,2.91 0 0 1 -1,-0.53 0.8,0.8 0 0 1 -0.18,-0.25 0.65,0.65 0 0 1 -0.07,-0.29 0.53,0.53 0 0 1 0.53,-0.49 0.72,0.72 0 0 1 0.42,0.18 2.89,2.89 0 0 0 0.69,0.38 2.22,2.22 0 0 0 0.76,0.14 2.78,2.78 0 0 0 1.31,-0.31 2.3,2.3 0 0 0 0.9,-0.85 2.27,2.27 0 0 0 0.33,-1.21 2.2,2.2 0 0 0 -0.28,-1.13 2,2 0 0 0 -0.8,-0.75 2.58,2.58 0 0 0 -1.17,-0.26 2.42,2.42 0 0 0 -0.88,0.15 3.52,3.52 0 0 0 -0.67,0.3 1.09,1.09 0 0 1 -0.47,0.15 0.7,0.7 0 0 1 -0.42,-0.12 0.55,0.55 0 0 1 -0.2,-0.3 0.76,0.76 0 0 1 0,-0.33 L 60.59,9.5 a 0.6,0.6 0 0 1 0.2,-0.32 0.55,0.55 0 0 1 0.38,-0.13 h 4.16 a 0.54,0.54 0 0 1 0.38,0.15 0.52,0.52 0 0 1 0.15,0.38 0.51,0.51 0 0 1 -0.53,0.53 H 61.41 L 61.55,9.99 61,13.22 60.78,12.92 a 2.06,2.06 0 0 1 0.47,-0.28 4.07,4.07 0 0 1 0.72,-0.23 3.47,3.47 0 0 1 0.85,-0.1 3.26,3.26 0 0 1 1.63,0.41 3.09,3.09 0 0 1 1.14,1.13 3.18,3.18 0 0 1 0.41,1.64 3.37,3.37 0 0 1 -0.27,1.36 3.23,3.23 0 0 1 -0.73,1.09 3.52,3.52 0 0 1 -1.16,0.71 4.05,4.05 0 0 1 -1.45,0.25 z"
     id="path10"
     inkscape:connector-curvature="0"
     style="fill:#363026" />
  <path
     class="cls-2"
     d="m 68.3,17.22 a 0.5,0.5 0 0 1 0.19,0 0.63,0.63 0 0 1 0.23,0.15 2.15,2.15 0 0 0 0.66,0.4 2.47,2.47 0 0 0 2,-0.12 2.24,2.24 0 0 0 0.82,-0.77 2.18,2.18 0 0 0 0.31,-1.17 2,2 0 0 0 -0.31,-1.17 2,2 0 0 0 -0.8,-0.67 2.5,2.5 0 0 0 -1,-0.21 2.12,2.12 0 0 0 -0.37,0 l -0.31,0.07 a 1,1 0 0 1 -0.28,0 0.44,0.44 0 0 1 -0.35,-0.15 0.6,0.6 0 0 1 -0.12,-0.38 0.59,0.59 0 0 1 0,-0.23 0.8,0.8 0 0 1 0.14,-0.22 l 2.74,-3 0.23,0.27 h -4 A 0.51,0.51 0 0 1 67.7,9.86 0.52,0.52 0 0 1 67.55,9.48 0.51,0.51 0 0 1 67.7,9.11 0.57,0.57 0 0 1 68.08,8.97 h 4.56 a 0.55,0.55 0 0 1 0.45,0.17 0.59,0.59 0 0 1 0.14,0.39 0.59,0.59 0 0 1 0,0.23 A 0.74,0.74 0 0 1 73,10 L 70.27,13 70,12.8 a 0.92,0.92 0 0 1 0.32,-0.11 2.6,2.6 0 0 1 0.42,0 2.79,2.79 0 0 1 2.49,1.45 3.05,3.05 0 0 1 0.4,1.59 3.22,3.22 0 0 1 -0.47,1.75 3,3 0 0 1 -1.26,1.15 4,4 0 0 1 -1.82,0.41 3.41,3.41 0 0 1 -1.08,-0.23 2.47,2.47 0 0 1 -0.93,-0.51 0.5,0.5 0 0 1 -0.25,-0.22 0.58,0.58 0 0 1 0.1,-0.66 0.51,0.51 0 0 1 0.38,-0.2 z"
     id="path12"
     inkscape:connector-curvature="0"
     style="fill:#363026" />
  <path
     class="cls-2"
     d="m 81,17.8 a 0.54,0.54 0 0 1 0.38,0.15 0.52,0.52 0 0 1 0.15,0.38 0.5,0.5 0 0 1 -0.15,0.37 0.54,0.54 0 0 1 -0.38,0.15 h -5.07 a 0.6,0.6 0 0 1 -0.42,-0.15 0.54,0.54 0 0 1 -0.16,-0.4 0.62,0.62 0 0 1 0.17,-0.41 l 3.16,-3.45 a 7.17,7.17 0 0 0 1,-1.37 2.42,2.42 0 0 0 0.37,-1.24 1.87,1.87 0 0 0 -0.25,-1 1.68,1.68 0 0 0 -0.67,-0.65 2.26,2.26 0 0 0 -2.1,0.06 2,2 0 0 0 -0.8,0.91 0.66,0.66 0 0 1 -0.22,0.22 0.54,0.54 0 0 1 -0.25,0.06 0.57,0.57 0 0 1 -0.37,-0.15 0.42,0.42 0 0 1 -0.18,-0.34 0.52,0.52 0 0 1 0.09,-0.29 c 0.06,-0.1 0.13,-0.19 0.21,-0.3 a 3,3 0 0 1 1.16,-1.07 3.15,3.15 0 0 1 1.5,-0.38 3.41,3.41 0 0 1 1.63,0.36 2.44,2.44 0 0 1 1,1 3,3 0 0 1 0.36,1.47 3.52,3.52 0 0 1 -0.19,1.09 5.12,5.12 0 0 1 -0.49,1.18 10,10 0 0 1 -1,1.23 L 77,17.94 76.86,17.8 Z"
     id="path14"
     inkscape:connector-curvature="0"
     style="fill:#363026" />
  <path
     class="cls-2"
     d="M 92.66,17.8 A 0.54,0.54 0 0 1 93,18 0.52,0.52 0 0 1 93.15,18.38 0.5,0.5 0 0 1 93,18.75 0.54,0.54 0 0 1 92.62,18.9 H 87.57 A 0.59,0.59 0 0 1 87.16,18.75 0.51,0.51 0 0 1 87,18.35 0.62,0.62 0 0 1 87.17,17.94 l 3.16,-3.45 a 7.17,7.17 0 0 0 1,-1.37 2.42,2.42 0 0 0 0.37,-1.24 1.87,1.87 0 0 0 -0.25,-1 1.64,1.64 0 0 0 -0.68,-0.65 2.24,2.24 0 0 0 -2.09,0.06 2,2 0 0 0 -0.8,0.91 0.66,0.66 0 0 1 -0.22,0.22 0.54,0.54 0 0 1 -0.25,0.06 A 0.61,0.61 0 0 1 87.03,11.33 0.42,0.42 0 0 1 86.9,11 0.52,0.52 0 0 1 86.99,10.71 c 0.06,-0.1 0.14,-0.19 0.22,-0.3 a 3,3 0 0 1 1.16,-1.07 3.15,3.15 0 0 1 1.5,-0.38 3.41,3.41 0 0 1 1.63,0.36 2.49,2.49 0 0 1 1,1 3,3 0 0 1 0.35,1.47 3.5,3.5 0 0 1 -0.18,1.09 5.12,5.12 0 0 1 -0.54,1.12 11.06,11.06 0 0 1 -1,1.23 l -2.45,2.72 -0.14,-0.14 z"
     id="path16"
     inkscape:connector-curvature="0"
     style="fill:#363026" />
  <path
     class="cls-2"
     d="M 96.73,18.85 A 0.58,0.58 0 0 1 96.3,18.68 0.53,0.53 0 0 1 96.13,18.27 v -8 l 0.17,0.19 -1.63,1 a 0.51,0.51 0 0 1 -0.28,0.07 0.5,0.5 0 0 1 -0.4,-0.19 0.57,0.57 0 0 1 -0.17,-0.38 0.56,0.56 0 0 1 0.29,-0.49 l 2.28,-1.36 a 0.81,0.81 0 0 1 0.42,-0.08 0.46,0.46 0 0 1 0.38,0.16 0.56,0.56 0 0 1 0.14,0.4 v 8.66 a 0.53,0.53 0 0 1 -0.17,0.41 0.58,0.58 0 0 1 -0.43,0.19 z"
     id="path18"
     inkscape:connector-curvature="0"
     style="fill:#363026" />
  <path
     class="cls-2"
     d="m 101.55,18.85 a 0.6,0.6 0 0 1 -0.44,-0.17 0.57,0.57 0 0 1 -0.17,-0.41 v -8 l 0.17,0.19 -1.62,1 a 0.55,0.55 0 0 1 -0.28,0.07 0.52,0.52 0 0 1 -0.41,-0.19 0.56,0.56 0 0 1 -0.16,-0.38 0.54,0.54 0 0 1 0.29,-0.49 l 2.28,-1.36 a 0.77,0.77 0 0 1 0.42,-0.08 0.46,0.46 0 0 1 0.38,0.16 0.61,0.61 0 0 1 0.14,0.4 v 8.66 a 0.57,0.57 0 0 1 -0.17,0.41 0.6,0.6 0 0 1 -0.43,0.19 z"
     id="path20"
     inkscape:connector-curvature="0"
     style="fill:#363026" />
  <rect
     class="cls-1"
     width="28.75"
     height="28.75"
     id="rect22"
     x="0.17787695"
     y="-0.17787668"
     style="fill:#1f8ebe" />
</svg>
