<?xml version="1.0" encoding="UTF-8" standalone="no"?>
<svg
   xmlns:dc="http://purl.org/dc/elements/1.1/"
   xmlns:cc="http://creativecommons.org/ns#"
   xmlns:rdf="http://www.w3.org/1999/02/22-rdf-syntax-ns#"
   xmlns:svg="http://www.w3.org/2000/svg"
   xmlns="http://www.w3.org/2000/svg"
   xmlns:sodipodi="http://sodipodi.sourceforge.net/DTD/sodipodi-0.dtd"
   xmlns:inkscape="http://www.inkscape.org/namespaces/inkscape"
   viewBox="0 0 97.11 28.75"
   version="1.1"
   id="svg26"
   sodipodi:docname="V5_d_1.svg"
   inkscape:version="0.92.5 (2060ec1f9f, 2020-04-08)">
  <metadata
     id="metadata30">
    <rdf:RDF>
      <cc:Work
         rdf:about="">
        <dc:format>image/svg+xml</dc:format>
        <dc:type
           rdf:resource="http://purl.org/dc/dcmitype/StillImage" />
        <dc:title></dc:title>
      </cc:Work>
    </rdf:RDF>
  </metadata>
  <sodipodi:namedview
     pagecolor="#ffffff"
     bordercolor="#666666"
     borderopacity="1"
     objecttolerance="10"
     gridtolerance="10"
     guidetolerance="10"
     inkscape:pageopacity="0"
     inkscape:pageshadow="2"
     inkscape:window-width="918"
     inkscape:window-height="480"
     id="namedview28"
     showgrid="false"
     inkscape:zoom="3.7586242"
     inkscape:cx="29.551734"
     inkscape:cy="14.375"
     inkscape:window-x="670"
     inkscape:window-y="161"
     inkscape:window-maximized="0"
     inkscape:current-layer="svg26" />
  <defs
     id="defs4">
    <style
       id="style2">.cls-1{fill:#1f8ebe;}.cls-2{fill:#363026;}</style>
  </defs>
  <path
     class="cls-1"
     d="m 34.32,14 a 0.84,0.84 0 0 1 -0.59,-0.23 0.79,0.79 0 0 1 -0.23,-0.56 0.74,0.74 0 0 1 0.23,-0.54 0.87,0.87 0 0 1 0.59,-0.21 h 5.62 a 0.84,0.84 0 0 1 0.59,0.21 0.74,0.74 0 0 1 0.23,0.54 0.79,0.79 0 0 1 -0.23,0.56 0.81,0.81 0 0 1 -0.59,0.23 z m 0,2.71 A 0.8,0.8 0 0 1 33.73,16.48 0.76,0.76 0 0 1 33.5,16 a 0.71,0.71 0 0 1 0.23,-0.54 0.83,0.83 0 0 1 0.59,-0.22 h 5.62 a 0.8,0.8 0 0 1 0.59,0.22 0.71,0.71 0 0 1 0.23,0.54 0.79,0.79 0 0 1 -0.82,0.78 z"
     id="path6"
     inkscape:connector-curvature="0"
     style="fill:#1f8ebe" />
  <path
     class="cls-2"
     d="m 52,17.8 a 0.54,0.54 0 0 1 0.38,0.15 0.52,0.52 0 0 1 0.15,0.38 0.5,0.5 0 0 1 -0.15,0.37 0.54,0.54 0 0 1 -0.38,0.15 h -5.06 a 0.6,0.6 0 0 1 -0.42,-0.15 0.54,0.54 0 0 1 -0.16,-0.4 0.62,0.62 0 0 1 0.17,-0.41 l 3.16,-3.45 a 7.17,7.17 0 0 0 1.05,-1.37 2.42,2.42 0 0 0 0.37,-1.24 1.87,1.87 0 0 0 -0.25,-1 1.64,1.64 0 0 0 -0.68,-0.65 2.24,2.24 0 0 0 -2.09,0.06 2,2 0 0 0 -0.8,0.91 0.77,0.77 0 0 1 -0.22,0.22 0.54,0.54 0 0 1 -0.25,0.06 0.57,0.57 0 0 1 -0.37,-0.15 0.4,0.4 0 0 1 -0.19,-0.34 0.52,0.52 0 0 1 0.09,-0.29 l 0.22,-0.3 a 3.09,3.09 0 0 1 1.16,-1.08 3.26,3.26 0 0 1 1.5,-0.37 3.41,3.41 0 0 1 1.63,0.36 2.44,2.44 0 0 1 1,1 3,3 0 0 1 0.36,1.47 3.52,3.52 0 0 1 -0.19,1.09 5.12,5.12 0 0 1 -0.54,1.18 11.06,11.06 0 0 1 -1,1.23 L 48,17.94 47.86,17.8 Z"
     id="path8"
     inkscape:connector-curvature="0"
     style="fill:#363026" />
  <path
     class="cls-2"
     d="m 59.94,18.85 a 0.58,0.58 0 0 1 -0.43,-0.17 0.57,0.57 0 0 1 -0.17,-0.41 v -8 l 0.17,0.19 -1.63,1 A 0.51,0.51 0 0 1 57.6,11.53 0.5,0.5 0 0 1 57.2,11.34 0.57,0.57 0 0 1 57,11 0.56,0.56 0 0 1 57.29,10.51 l 2.29,-1.36 a 0.77,0.77 0 0 1 0.42,-0.1 0.46,0.46 0 0 1 0.37,0.16 0.54,0.54 0 0 1 0.14,0.4 v 8.66 a 0.56,0.56 0 0 1 -0.16,0.41 0.62,0.62 0 0 1 -0.41,0.17 z"
     id="path10"
     inkscape:connector-curvature="0"
     style="fill:#363026" />
  <path
     class="cls-2"
     d="m 68.48,17.8 a 0.51,0.51 0 0 1 0.53,0.53 0.5,0.5 0 0 1 -0.15,0.37 0.52,0.52 0 0 1 -0.38,0.15 H 63.4 A 0.56,0.56 0 0 1 63,18.7 0.51,0.51 0 0 1 62.84,18.3 0.61,0.61 0 0 1 63,17.89 l 3.17,-3.45 a 8.1,8.1 0 0 0 1,-1.37 2.51,2.51 0 0 0 0.36,-1.24 2,2 0 0 0 -0.24,-1 1.7,1.7 0 0 0 -0.68,-0.65 2.08,2.08 0 0 0 -1,-0.23 2.11,2.11 0 0 0 -1.08,0.29 2,2 0 0 0 -0.8,0.91 0.77,0.77 0 0 1 -0.22,0.22 0.53,0.53 0 0 1 -0.24,0.06 0.59,0.59 0 0 1 -0.38,-0.15 0.42,0.42 0 0 1 -0.18,-0.34 0.52,0.52 0 0 1 0.09,-0.29 1.91,1.91 0 0 1 0.22,-0.3 3,3 0 0 1 1.18,-1.07 3.2,3.2 0 0 1 1.5,-0.37 3.47,3.47 0 0 1 1.63,0.36 2.47,2.47 0 0 1 1,1 3,3 0 0 1 0.36,1.47 A 3.25,3.25 0 0 1 68.5,12.83 5.12,5.12 0 0 1 68,14 9.88,9.88 0 0 1 67,15.23 l -2.45,2.72 -0.14,-0.14 z"
     id="path12"
     inkscape:connector-curvature="0"
     style="fill:#363026" />
  <path
     class="cls-2"
     d="m 76.28,17.8 a 0.54,0.54 0 0 1 0.38,0.15 0.52,0.52 0 0 1 0.15,0.38 0.5,0.5 0 0 1 -0.15,0.37 0.54,0.54 0 0 1 -0.38,0.15 H 71.2 A 0.6,0.6 0 0 1 70.78,18.7 0.54,0.54 0 0 1 70.62,18.3 0.62,0.62 0 0 1 70.79,17.89 L 74,14.44 a 8.1,8.1 0 0 0 1,-1.37 2.51,2.51 0 0 0 0.36,-1.24 1.87,1.87 0 0 0 -0.25,-1 1.68,1.68 0 0 0 -0.67,-0.65 2.26,2.26 0 0 0 -2.1,0.06 2,2 0 0 0 -0.8,0.91 0.77,0.77 0 0 1 -0.22,0.22 0.53,0.53 0 0 1 -0.24,0.06 0.57,0.57 0 0 1 -0.38,-0.15 0.42,0.42 0 0 1 -0.18,-0.34 0.52,0.52 0 0 1 0.09,-0.29 2.73,2.73 0 0 1 0.21,-0.3 3,3 0 0 1 1.18,-1.07 3.19,3.19 0 0 1 1.49,-0.37 3.41,3.41 0 0 1 1.63,0.36 2.44,2.44 0 0 1 1,1 3,3 0 0 1 0.36,1.47 3.52,3.52 0 0 1 -0.19,1.09 5.12,5.12 0 0 1 -0.54,1.17 10,10 0 0 1 -1,1.23 L 72.3,17.94 72.16,17.8 Z"
     id="path14"
     inkscape:connector-curvature="0"
     style="fill:#363026" />
  <path
     class="cls-2"
     d="M 84.2,18.85 A 0.6,0.6 0 0 1 83.77,18.68 0.57,0.57 0 0 1 83.6,18.27 v -8 l 0.17,0.19 -1.62,1 a 0.55,0.55 0 0 1 -0.28,0.07 0.52,0.52 0 0 1 -0.41,-0.19 0.57,0.57 0 0 1 -0.17,-0.38 0.55,0.55 0 0 1 0.3,-0.49 l 2.28,-1.36 a 0.77,0.77 0 0 1 0.42,-0.08 0.48,0.48 0 0 1 0.38,0.16 0.59,0.59 0 0 1 0.14,0.4 v 8.66 a 0.57,0.57 0 0 1 -0.17,0.41 0.6,0.6 0 0 1 -0.44,0.19 z"
     id="path16"
     inkscape:connector-curvature="0"
     style="fill:#363026" />
  <path
     class="cls-2"
     d="m 88.67,18.89 a 0.63,0.63 0 0 1 -0.41,-0.15 0.46,0.46 0 0 1 -0.18,-0.38 0.62,0.62 0 0 1 0.06,-0.26 l 3.62,-8.26 0.16,0.26 H 87.41 A 0.53,0.53 0 0 1 87,9.94 0.52,0.52 0 0 1 86.85,9.56 0.5,0.5 0 0 1 87,9.19 0.56,0.56 0 0 1 87.38,9.05 h 5 a 0.61,0.61 0 0 1 0.42,0.14 0.5,0.5 0 0 1 0.16,0.39 0.58,0.58 0 0 1 -0.06,0.26 l -3.79,8.7 a 0.49,0.49 0 0 1 -0.21,0.26 0.56,0.56 0 0 1 -0.23,0.09 z"
     id="path18"
     inkscape:connector-curvature="0"
     style="fill:#363026" />
  <path
     class="cls-2"
     d="m 96.51,18.85 a 0.58,0.58 0 0 1 -0.43,-0.17 0.53,0.53 0 0 1 -0.17,-0.41 v -8 l 0.17,0.19 -1.63,1 A 0.56,0.56 0 0 1 93.76,11.34 0.56,0.56 0 0 1 93.6,11 0.54,0.54 0 0 1 93.89,10.51 l 2.28,-1.36 a 0.79,0.79 0 0 1 0.42,-0.08 0.46,0.46 0 0 1 0.38,0.16 0.59,0.59 0 0 1 0.14,0.4 v 8.66 a 0.53,0.53 0 0 1 -0.17,0.41 0.58,0.58 0 0 1 -0.43,0.15 z"
     id="path20"
     inkscape:connector-curvature="0"
     style="fill:#363026" />
  <circle
     class="cls-1"
     cx="15.155945"
     cy="14.383041"
     r="14.37"
     id="circle22"
     style="fill:#1f8ebe" />
</svg>
