<?xml version="1.0" encoding="UTF-8" standalone="no"?>
<svg
   xmlns:dc="http://purl.org/dc/elements/1.1/"
   xmlns:cc="http://creativecommons.org/ns#"
   xmlns:rdf="http://www.w3.org/1999/02/22-rdf-syntax-ns#"
   xmlns:svg="http://www.w3.org/2000/svg"
   xmlns="http://www.w3.org/2000/svg"
   xmlns:sodipodi="http://sodipodi.sourceforge.net/DTD/sodipodi-0.dtd"
   xmlns:inkscape="http://www.inkscape.org/namespaces/inkscape"
   viewBox="0 0 103.02 28.75"
   version="1.1"
   id="svg26"
   sodipodi:docname="V5_d_2.svg"
   inkscape:version="0.92.5 (2060ec1f9f, 2020-04-08)">
  <metadata
     id="metadata30">
    <rdf:RDF>
      <cc:Work
         rdf:about="">
        <dc:format>image/svg+xml</dc:format>
        <dc:type
           rdf:resource="http://purl.org/dc/dcmitype/StillImage" />
        <dc:title></dc:title>
      </cc:Work>
    </rdf:RDF>
  </metadata>
  <sodipodi:namedview
     pagecolor="#ffffff"
     bordercolor="#666666"
     borderopacity="1"
     objecttolerance="10"
     gridtolerance="10"
     guidetolerance="10"
     inkscape:pageopacity="0"
     inkscape:pageshadow="2"
     inkscape:window-width="918"
     inkscape:window-height="480"
     id="namedview28"
     showgrid="false"
     inkscape:zoom="3.5430015"
     inkscape:cx="51.509998"
     inkscape:cy="14.375"
     inkscape:window-x="1968"
     inkscape:window-y="132"
     inkscape:window-maximized="0"
     inkscape:current-layer="svg26" />
  <defs
     id="defs4">
    <style
       id="style2">.cls-1{fill:#1f8ebe;}.cls-2{fill:#363026;}</style>
  </defs>
  <path
     class="cls-1"
     d="m 34.32,14 a 0.84,0.84 0 0 1 -0.59,-0.23 0.79,0.79 0 0 1 -0.23,-0.56 0.74,0.74 0 0 1 0.23,-0.54 0.87,0.87 0 0 1 0.59,-0.21 h 5.62 a 0.84,0.84 0 0 1 0.59,0.21 0.74,0.74 0 0 1 0.23,0.54 0.79,0.79 0 0 1 -0.23,0.56 0.81,0.81 0 0 1 -0.59,0.23 z m 0,2.71 A 0.8,0.8 0 0 1 33.73,16.48 0.76,0.76 0 0 1 33.5,16 a 0.71,0.71 0 0 1 0.23,-0.54 0.88,0.88 0 0 1 0.59,-0.22 h 5.62 a 0.84,0.84 0 0 1 0.59,0.22 0.71,0.71 0 0 1 0.23,0.54 0.79,0.79 0 0 1 -0.82,0.78 z"
     id="path6"
     inkscape:connector-curvature="0"
     style="fill:#1f8ebe" />
  <path
     class="cls-2"
     d="m 52,17.8 a 0.54,0.54 0 0 1 0.38,0.15 0.52,0.52 0 0 1 0.15,0.38 0.5,0.5 0 0 1 -0.15,0.37 0.54,0.54 0 0 1 -0.38,0.15 h -5.06 a 0.6,0.6 0 0 1 -0.42,-0.15 0.54,0.54 0 0 1 -0.16,-0.4 0.62,0.62 0 0 1 0.17,-0.41 l 3.16,-3.45 a 7.17,7.17 0 0 0 1.05,-1.37 2.42,2.42 0 0 0 0.37,-1.24 1.87,1.87 0 0 0 -0.25,-1 1.64,1.64 0 0 0 -0.68,-0.65 2.24,2.24 0 0 0 -2.09,0.06 2,2 0 0 0 -0.8,0.91 0.66,0.66 0 0 1 -0.22,0.22 0.54,0.54 0 0 1 -0.25,0.06 0.57,0.57 0 0 1 -0.37,-0.15 0.4,0.4 0 0 1 -0.19,-0.34 0.52,0.52 0 0 1 0.09,-0.29 l 0.22,-0.3 a 3.09,3.09 0 0 1 1.16,-1.08 3.26,3.26 0 0 1 1.5,-0.37 3.41,3.41 0 0 1 1.63,0.36 2.44,2.44 0 0 1 1,1 3,3 0 0 1 0.36,1.47 3.52,3.52 0 0 1 -0.19,1.09 5.12,5.12 0 0 1 -0.54,1.18 11.06,11.06 0 0 1 -1,1.23 L 48,17.94 47.86,17.8 Z"
     id="path8"
     inkscape:connector-curvature="0"
     style="fill:#363026" />
  <path
     class="cls-2"
     d="m 60.8,8.88 a 3.1,3.1 0 0 1 1.4,0.3 2.83,2.83 0 0 1 1,0.82 3.68,3.68 0 0 1 0.61,1.16 4.25,4.25 0 0 1 0.19,1.33 6.78,6.78 0 0 1 -0.15,1.34 8.24,8.24 0 0 1 -0.47,1.49 7.32,7.32 0 0 1 -0.82,1.46 6.44,6.44 0 0 1 -1.16,1.22 5.52,5.52 0 0 1 -1.61,0.86 0.7,0.7 0 0 1 -0.23,0 0.6,0.6 0 0 1 -0.39,-0.14 0.49,0.49 0 0 1 -0.18,-0.42 0.48,0.48 0 0 1 0.13,-0.34 0.71,0.71 0 0 1 0.33,-0.22 4.83,4.83 0 0 0 1.45,-0.74 6.09,6.09 0 0 0 1.2,-1.37 4.53,4.53 0 0 0 0.68,-1.66 l 0.34,-0.11 a 3.18,3.18 0 0 1 -0.59,0.7 2.94,2.94 0 0 1 -0.85,0.54 2.62,2.62 0 0 1 -1.07,0.21 A 2.45,2.45 0 0 1 59.47,15 2.93,2.93 0 0 1 58.53,14.3 3.34,3.34 0 0 1 57.66,12.06 3.19,3.19 0 0 1 58.07,10.47 3.27,3.27 0 0 1 59.2,9.32 3,3 0 0 1 60.8,8.88 Z m 0,1 a 1.94,1.94 0 0 0 -1.75,1 2.23,2.23 0 0 0 -0.27,1.11 2.38,2.38 0 0 0 0.24,1 1.85,1.85 0 0 0 1.74,1.09 2.16,2.16 0 0 0 1.13,-0.29 2,2 0 0 0 0.74,-0.8 A 2.33,2.33 0 0 0 62.9,12 2.14,2.14 0 0 0 62.64,11 1.9,1.9 0 0 0 61.92,10.23 2.08,2.08 0 0 0 60.81,9.93 Z"
     id="path10"
     inkscape:connector-curvature="0"
     style="fill:#363026" />
  <path
     class="cls-2"
     d="m 71.39,17.8 a 0.52,0.52 0 0 1 0.38,0.15 0.53,0.53 0 0 1 0.16,0.38 0.51,0.51 0 0 1 -0.16,0.37 0.52,0.52 0 0 1 -0.38,0.15 H 66.31 A 0.58,0.58 0 0 1 65.9,18.7 0.51,0.51 0 0 1 65.74,18.3 0.58,0.58 0 0 1 65.91,17.89 l 3.16,-3.45 a 7.17,7.17 0 0 0 1.05,-1.37 2.51,2.51 0 0 0 0.36,-1.24 2,2 0 0 0 -0.24,-1 1.64,1.64 0 0 0 -0.68,-0.65 2.08,2.08 0 0 0 -1,-0.23 2,2 0 0 0 -1.88,1.2 0.58,0.58 0 0 1 -0.22,0.22 0.53,0.53 0 0 1 -0.24,0.06 0.59,0.59 0 0 1 -0.38,-0.15 0.42,0.42 0 0 1 -0.18,-0.34 0.52,0.52 0 0 1 0.09,-0.29 2.52,2.52 0 0 1 0.22,-0.3 3,3 0 0 1 1.16,-1.08 3.23,3.23 0 0 1 1.5,-0.37 3.44,3.44 0 0 1 1.63,0.36 2.41,2.41 0 0 1 1,1 3,3 0 0 1 0.36,1.47 3.25,3.25 0 0 1 -0.19,1.09 4.72,4.72 0 0 1 -0.57,1.18 9.88,9.88 0 0 1 -1,1.23 l -2.45,2.72 -0.14,-0.14 z"
     id="path12"
     inkscape:connector-curvature="0"
     style="fill:#363026" />
  <path
     class="cls-2"
     d="m 75.47,18.85 a 0.62,0.62 0 0 1 -0.44,-0.17 0.56,0.56 0 0 1 -0.16,-0.41 v -8 l 0.16,0.19 -1.62,1 a 0.56,0.56 0 0 1 -0.69,-0.12 0.56,0.56 0 0 1 -0.16,-0.38 0.54,0.54 0 0 1 0.29,-0.49 l 2.28,-1.36 a 0.77,0.77 0 0 1 0.42,-0.08 0.46,0.46 0 0 1 0.38,0.16 0.61,0.61 0 0 1 0.14,0.4 v 8.66 a 0.57,0.57 0 0 1 -0.17,0.41 0.6,0.6 0 0 1 -0.43,0.19 z"
     id="path14"
     inkscape:connector-curvature="0"
     style="fill:#363026" />
  <path
     class="cls-2"
     d="m 82.44,17.22 a 0.46,0.46 0 0 1 0.19,0 0.63,0.63 0 0 1 0.23,0.15 2.28,2.28 0 0 0 0.66,0.4 2.33,2.33 0 0 0 0.87,0.15 2.27,2.27 0 0 0 1.1,-0.27 2.18,2.18 0 0 0 1.14,-1.94 2,2 0 0 0 -0.32,-1.17 2,2 0 0 0 -0.8,-0.67 2.5,2.5 0 0 0 -1,-0.21 2.23,2.23 0 0 0 -0.37,0 l -0.31,0.07 a 0.93,0.93 0 0 1 -0.27,0 0.46,0.46 0 0 1 -0.36,-0.15 0.6,0.6 0 0 1 -0.12,-0.38 0.59,0.59 0 0 1 0,-0.23 1.13,1.13 0 0 1 0.14,-0.22 l 2.75,-3 0.22,0.27 h -4 A 0.51,0.51 0 0 1 81.81,9.86 0.52,0.52 0 0 1 81.66,9.48 0.51,0.51 0 0 1 81.81,9.11 0.57,0.57 0 0 1 82.19,8.97 h 4.57 a 0.58,0.58 0 0 1 0.45,0.17 0.64,0.64 0 0 1 0.14,0.39 0.46,0.46 0 0 1 -0.06,0.23 0.74,0.74 0 0 1 -0.16,0.2 l -2.72,3 -0.33,-0.28 a 1,1 0 0 1 0.33,-0.11 2.37,2.37 0 0 1 0.42,0 2.87,2.87 0 0 1 1.44,0.38 2.84,2.84 0 0 1 1.05,1.07 3.15,3.15 0 0 1 0.39,1.59 3.31,3.31 0 0 1 -0.46,1.75 3.07,3.07 0 0 1 -1.25,1.22 4,4 0 0 1 -1.81,0.41 3.43,3.43 0 0 1 -1.1,-0.18 2.47,2.47 0 0 1 -0.93,-0.51 0.55,0.55 0 0 1 -0.25,-0.22 0.58,0.58 0 0 1 0.1,-0.66 0.51,0.51 0 0 1 0.43,-0.2 z"
     id="path16"
     inkscape:connector-curvature="0"
     style="fill:#363026" />
  <path
     class="cls-2"
     d="m 92.39,19 a 3.1,3.1 0 0 1 -1.4,-0.3 2.94,2.94 0 0 1 -1,-0.82 4.1,4.1 0 0 1 -0.62,-1.17 4.51,4.51 0 0 1 -0.2,-1.33 A 6.86,6.86 0 0 1 89.3,14 8.78,8.78 0 0 1 89.77,12.48 7.26,7.26 0 0 1 90.59,11 6,6 0 0 1 91.79,9.72 5,5 0 0 1 93.4,8.85 h 0.23 A 0.67,0.67 0 0 1 94,9 a 0.46,0.46 0 0 1 0.18,0.42 0.51,0.51 0 0 1 -0.13,0.35 0.7,0.7 0 0 1 -0.33,0.21 4.62,4.62 0 0 0 -1.1,0.61 6.31,6.31 0 0 0 -1,0.94 6.93,6.93 0 0 0 -0.78,1.16 4.47,4.47 0 0 0 -0.45,1.3 l -0.34,0.11 a 4,4 0 0 1 0.6,-0.72 3.08,3.08 0 0 1 0.85,-0.54 2.61,2.61 0 0 1 1.06,-0.21 2.58,2.58 0 0 1 1.14,0.26 3.14,3.14 0 0 1 0.94,0.72 3.5,3.5 0 0 1 0.64,1 3.33,3.33 0 0 1 0.23,1.21 A 3.14,3.14 0 0 1 95.1,17.39 3.39,3.39 0 0 1 94,18.55 3,3 0 0 1 92.39,19 Z m 0,-1 a 1.92,1.92 0 0 0 1,-0.28 2,2 0 0 0 0.72,-0.75 2.21,2.21 0 0 0 0.27,-1.1 2.43,2.43 0 0 0 -0.24,-1.07 2.08,2.08 0 0 0 -0.68,-0.79 1.86,1.86 0 0 0 -1.06,-0.3 2,2 0 0 0 -1.13,0.3 1.94,1.94 0 0 0 -0.74,0.79 2.38,2.38 0 0 0 -0.26,1.1 2.13,2.13 0 0 0 0.26,1 1.84,1.84 0 0 0 0.72,0.77 2,2 0 0 0 1.13,0.27 z"
     id="path18"
     inkscape:connector-curvature="0"
     style="fill:#363026" />
  <path
     class="cls-2"
     d="m 98.65,18.89 a 0.6,0.6 0 0 1 -0.4,-0.15 0.45,0.45 0 0 1 -0.19,-0.38 0.62,0.62 0 0 1 0.06,-0.26 l 3.63,-8.26 0.15,0.26 H 97.39 A 0.51,0.51 0 0 1 97,9.94 0.52,0.52 0 0 1 96.85,9.56 0.51,0.51 0 0 1 97,9.19 0.57,0.57 0 0 1 97.38,9.05 h 5 a 0.61,0.61 0 0 1 0.42,0.14 0.5,0.5 0 0 1 0.16,0.39 0.58,0.58 0 0 1 -0.06,0.26 l -3.79,8.7 a 0.52,0.52 0 0 1 -0.2,0.26 0.62,0.62 0 0 1 -0.26,0.09 z"
     id="path20"
     inkscape:connector-curvature="0"
     style="fill:#363026" />
  <polygon
     class="cls-1"
     points="33.2,28.75 0,28.75 16.6,0 "
     id="polygon22"
     style="fill:#1f8ebe"
     transform="translate(0.05254701,-0.01957526)" />
</svg>
