<svg xmlns="http://www.w3.org/2000/svg" viewBox="0 0 438.78 49.07"><defs><style>.cls-1{fill:#363026;}.cls-2{fill:#1f8ebe;}</style></defs><g id="Layer_2" data-name="Layer 2"><g id="Layer_1-2" data-name="Layer 1"><path class="cls-1" d="M5.75,47.88a.52.52,0,0,1,.38.15.53.53,0,0,1,.16.38.51.51,0,0,1-.16.37.52.52,0,0,1-.38.15H.67a.58.58,0,0,1-.41-.15.51.51,0,0,1-.16-.4A.58.58,0,0,1,.27,48l3.16-3.45a7.17,7.17,0,0,0,1.05-1.37,2.51,2.51,0,0,0,.36-1.24,2,2,0,0,0-.24-1,1.64,1.64,0,0,0-.68-.65,2.08,2.08,0,0,0-1-.23A2,2,0,0,0,1,41.24a.58.58,0,0,1-.22.22.5.5,0,0,1-.24.06.59.59,0,0,1-.38-.15A.42.42,0,0,1,0,41a.52.52,0,0,1,.09-.29,1.91,1.91,0,0,1,.22-.3,3,3,0,0,1,1.16-1.08A3.23,3.23,0,0,1,3,39a3.44,3.44,0,0,1,1.63.36,2.41,2.41,0,0,1,1,1A3,3,0,0,1,6,41.84a3.25,3.25,0,0,1-.19,1.09,4.72,4.72,0,0,1-.58,1.14,9.88,9.88,0,0,1-1,1.23L1.78,48l-.14-.14Z"/><path class="cls-1" d="M14.91,49.07A2.89,2.89,0,0,1,13,48.41a4.06,4.06,0,0,1-1.18-1.81,8.73,8.73,0,0,1,0-5.16A4.08,4.08,0,0,1,13,39.64,2.93,2.93,0,0,1,14.91,39a3,3,0,0,1,1.94.65A4,4,0,0,1,18,41.44a8.73,8.73,0,0,1,0,5.16,4,4,0,0,1-1.17,1.81A2.91,2.91,0,0,1,14.91,49.07Zm0-1.14a1.8,1.8,0,0,0,1.25-.47,3.05,3.05,0,0,0,.78-1.35,8.22,8.22,0,0,0,0-4.18,3,3,0,0,0-.78-1.34,1.9,1.9,0,0,0-2.5,0,3,3,0,0,0-.79,1.34,8.22,8.22,0,0,0,0,4.18,3.06,3.06,0,0,0,.79,1.35A1.8,1.8,0,0,0,14.91,47.93Z"/><path class="cls-1" d="M23.32,49.07a2.91,2.91,0,0,1-1.94-.66,4.13,4.13,0,0,1-1.17-1.81,8.52,8.52,0,0,1,0-5.16,4.15,4.15,0,0,1,1.17-1.8A3,3,0,0,1,23.32,39a2.91,2.91,0,0,1,1.94.65,4,4,0,0,1,1.17,1.8,8.73,8.73,0,0,1,0,5.16,4,4,0,0,1-1.17,1.81A2.87,2.87,0,0,1,23.32,49.07Zm0-1.14a1.8,1.8,0,0,0,1.26-.47,3,3,0,0,0,.77-1.35,8.22,8.22,0,0,0,0-4.18,2.86,2.86,0,0,0-.77-1.34,1.91,1.91,0,0,0-2.51,0,3,3,0,0,0-.78,1.34,7.94,7.94,0,0,0,0,4.18,3.05,3.05,0,0,0,.78,1.35A1.8,1.8,0,0,0,23.32,47.93Z"/><path class="cls-1" d="M31.74,49.07a2.89,2.89,0,0,1-1.94-.66,4.06,4.06,0,0,1-1.18-1.81,8.52,8.52,0,0,1,0-5.16,4.08,4.08,0,0,1,1.18-1.8,3.22,3.22,0,0,1,3.88,0,4,4,0,0,1,1.16,1.8,8.52,8.52,0,0,1,0,5.16,4,4,0,0,1-1.16,1.81A2.91,2.91,0,0,1,31.74,49.07Zm0-1.14A1.8,1.8,0,0,0,33,47.46a3.05,3.05,0,0,0,.78-1.35,8.53,8.53,0,0,0,0-4.18A3,3,0,0,0,33,40.59a1.8,1.8,0,0,0-1.25-.47,1.82,1.82,0,0,0-1.26.47,3,3,0,0,0-.78,1.34,8.22,8.22,0,0,0,0,4.18,3.05,3.05,0,0,0,.78,1.35A1.82,1.82,0,0,0,31.74,47.93Z"/><path class="cls-1" d="M44,49.07a2.91,2.91,0,0,1-1.94-.66,4,4,0,0,1-1.17-1.81,8.52,8.52,0,0,1,0-5.16,4,4,0,0,1,1.17-1.8,3.22,3.22,0,0,1,3.88,0,4,4,0,0,1,1.17,1.8,8.73,8.73,0,0,1,0,5.16,4,4,0,0,1-1.17,1.81A2.89,2.89,0,0,1,44,49.07Zm0-1.14a1.78,1.78,0,0,0,1.25-.47A3.05,3.05,0,0,0,46,46.11a8.22,8.22,0,0,0,0-4.18,3,3,0,0,0-.78-1.34,1.9,1.9,0,0,0-2.5,0A3.06,3.06,0,0,0,42,41.93a8.22,8.22,0,0,0,0,4.18,3.16,3.16,0,0,0,.79,1.35A1.8,1.8,0,0,0,44,47.93Z"/><path class="cls-1" d="M52.42,49.07a2.89,2.89,0,0,1-1.94-.66A4.06,4.06,0,0,1,49.3,46.6a8.52,8.52,0,0,1,0-5.16,4.08,4.08,0,0,1,1.18-1.8,3.21,3.21,0,0,1,3.87,0,4,4,0,0,1,1.17,1.8,8.52,8.52,0,0,1,0,5.16,4,4,0,0,1-1.17,1.81A2.86,2.86,0,0,1,52.42,49.07Zm0-1.14a1.8,1.8,0,0,0,1.25-.47,3.05,3.05,0,0,0,.78-1.35,8.53,8.53,0,0,0,0-4.18,3,3,0,0,0-.78-1.34,1.91,1.91,0,0,0-2.51,0,3,3,0,0,0-.78,1.34,8.22,8.22,0,0,0,0,4.18,3.05,3.05,0,0,0,.78,1.35A1.8,1.8,0,0,0,52.42,47.93Z"/><path class="cls-1" d="M60.83,49.07a2.89,2.89,0,0,1-1.94-.66,4.06,4.06,0,0,1-1.18-1.81,8.73,8.73,0,0,1,0-5.16,4.08,4.08,0,0,1,1.18-1.8,3.22,3.22,0,0,1,3.88,0,4,4,0,0,1,1.17,1.8,8.73,8.73,0,0,1,0,5.16,4,4,0,0,1-1.17,1.81A2.91,2.91,0,0,1,60.83,49.07Zm0-1.14a1.8,1.8,0,0,0,1.25-.47,3.05,3.05,0,0,0,.78-1.35,8.22,8.22,0,0,0,0-4.18,3,3,0,0,0-.78-1.34,1.9,1.9,0,0,0-2.5,0,3,3,0,0,0-.79,1.34,8.22,8.22,0,0,0,0,4.18,3.06,3.06,0,0,0,.79,1.35A1.78,1.78,0,0,0,60.83,47.93Z"/><path class="cls-1" d="M56.7,9a.51.51,0,0,1,.53.53.5.5,0,0,1-.15.37.54.54,0,0,1-.38.15H51.62a.6.6,0,0,1-.42-.15.54.54,0,0,1-.16-.4.58.58,0,0,1,.17-.4L54.38,5.6a8.1,8.1,0,0,0,1-1.37A2.47,2.47,0,0,0,55.79,3a1.88,1.88,0,0,0-.25-1,1.61,1.61,0,0,0-.67-.65,2.21,2.21,0,0,0-1-.23,2.18,2.18,0,0,0-1.07.29,2,2,0,0,0-.8.91.58.58,0,0,1-.22.22.53.53,0,0,1-.24.06.64.64,0,0,1-.38-.14A.45.45,0,0,1,51,2.11.52.52,0,0,1,51,1.82c.06-.09.13-.19.21-.29A2.9,2.9,0,0,1,52.42.45,3.2,3.2,0,0,1,53.91.07a3.41,3.41,0,0,1,1.63.36,2.5,2.5,0,0,1,1,1,3,3,0,0,1,.36,1.48A3.51,3.51,0,0,1,56.75,4a5.12,5.12,0,0,1-.58,1.14,9.17,9.17,0,0,1-1,1.23L52.72,9.1,52.58,9Z"/><path class="cls-1" d="M64.62,10a.6.6,0,0,1-.43-.17.56.56,0,0,1-.17-.4v-8l.17.2-1.62,1a.67.67,0,0,1-.28.06.54.54,0,0,1-.41-.18.61.61,0,0,1-.17-.39A.57.57,0,0,1,62,1.65L64.29.29a.77.77,0,0,1,.42-.08.44.44,0,0,1,.37.16.57.57,0,0,1,.15.4V9.44a.56.56,0,0,1-.17.4A.6.6,0,0,1,64.62,10Z"/><path class="cls-1" d="M73.16,9a.52.52,0,0,1,.38.15.55.55,0,0,1,.16.38.51.51,0,0,1-.16.37.52.52,0,0,1-.38.15H68.08a.58.58,0,0,1-.41-.15.51.51,0,0,1-.16-.4.57.57,0,0,1,.16-.4L70.84,5.6a7.17,7.17,0,0,0,1-1.37A2.47,2.47,0,0,0,72.25,3,2,2,0,0,0,72,2a1.7,1.7,0,0,0-.68-.65,2.19,2.19,0,0,0-1-.23,2.15,2.15,0,0,0-1.07.29,2.07,2.07,0,0,0-.81.91.52.52,0,0,1-.22.22A.5.5,0,0,1,68,2.6a.64.64,0,0,1-.38-.14.45.45,0,0,1-.18-.35.52.52,0,0,1,.09-.29,2.47,2.47,0,0,1,.22-.29A2.87,2.87,0,0,1,68.88.45a3.21,3.21,0,0,1,1.5-.38A3.44,3.44,0,0,1,72,.43a2.47,2.47,0,0,1,1,1,3,3,0,0,1,.36,1.48A3.24,3.24,0,0,1,73.21,4a4.72,4.72,0,0,1-.58,1.14,9.88,9.88,0,0,1-1,1.23L69.19,9.1,69.05,9Z"/><path class="cls-1" d="M81,9a.52.52,0,0,1,.38.15.54.54,0,0,1,.15.38.5.5,0,0,1-.15.37A.52.52,0,0,1,81,10H75.88a.56.56,0,0,1-.41-.15.51.51,0,0,1-.16-.4.57.57,0,0,1,.16-.4L78.64,5.6a8.1,8.1,0,0,0,1-1.37A2.47,2.47,0,0,0,80.05,3a2,2,0,0,0-.24-1,1.7,1.7,0,0,0-.68-.65,2.19,2.19,0,0,0-1-.23A2.21,2.21,0,0,0,77,1.41a2,2,0,0,0-.8.91.58.58,0,0,1-.22.22.53.53,0,0,1-.24.06.64.64,0,0,1-.38-.14.45.45,0,0,1-.18-.35.52.52,0,0,1,.09-.29c.06-.09.13-.19.21-.29A2.9,2.9,0,0,1,76.68.45,3.2,3.2,0,0,1,78.17.07a3.48,3.48,0,0,1,1.64.36,2.53,2.53,0,0,1,1,1,3,3,0,0,1,.36,1.48A3.24,3.24,0,0,1,81,4a5.12,5.12,0,0,1-.58,1.14,9.88,9.88,0,0,1-1,1.23L77,9.1,76.84,9Z"/><path class="cls-1" d="M88.88,10a.6.6,0,0,1-.43-.17.56.56,0,0,1-.17-.4v-8l.17.2-1.62,1a.67.67,0,0,1-.28.06.54.54,0,0,1-.41-.18A.61.61,0,0,1,86,2.14a.56.56,0,0,1,.3-.49L88.55.29A.77.77,0,0,1,89,.21a.48.48,0,0,1,.38.16.61.61,0,0,1,.14.4V9.44a.56.56,0,0,1-.17.4A.6.6,0,0,1,88.88,10Z"/><path class="cls-1" d="M93.35,10.05a.65.65,0,0,1-.41-.15.45.45,0,0,1-.18-.38.57.57,0,0,1,.06-.25L96.44,1l.16.25H92.09a.54.54,0,0,1-.38-.15.54.54,0,0,1-.15-.38.48.48,0,0,1,.15-.37.54.54,0,0,1,.38-.15h5a.61.61,0,0,1,.43.15.49.49,0,0,1,.15.38.66.66,0,0,1-.06.27L93.87,9.7a.52.52,0,0,1-.2.26A.62.62,0,0,1,93.35,10.05Z"/><path class="cls-1" d="M101.19,10a.58.58,0,0,1-.43-.17.56.56,0,0,1-.17-.4v-8l.17.2-1.63,1a.61.61,0,0,1-.28.06.52.52,0,0,1-.4-.18.55.55,0,0,1,.12-.88L100.85.29a.81.81,0,0,1,.42-.08.46.46,0,0,1,.38.16.56.56,0,0,1,.14.4V9.44a.55.55,0,0,1-.16.4A.62.62,0,0,1,101.19,10Z"/><path class="cls-1" d="M321.33,9a.52.52,0,0,1,.38.15.51.51,0,0,1,.16.38.47.47,0,0,1-.16.37.52.52,0,0,1-.38.15h-5.08a.58.58,0,0,1-.41-.15.51.51,0,0,1-.16-.4.54.54,0,0,1,.17-.4L319,5.6a7.17,7.17,0,0,0,1.05-1.37A2.47,2.47,0,0,0,320.42,3a2,2,0,0,0-.24-1,1.64,1.64,0,0,0-.68-.65,2.24,2.24,0,0,0-2.09.06,2.07,2.07,0,0,0-.81.91.56.56,0,0,1-.21.22.57.57,0,0,1-.25.06.64.64,0,0,1-.38-.14.45.45,0,0,1-.18-.35.52.52,0,0,1,.09-.29,2.47,2.47,0,0,1,.22-.29A2.94,2.94,0,0,1,317.05.45a3.27,3.27,0,0,1,1.5-.38,3.44,3.44,0,0,1,1.63.36,2.55,2.55,0,0,1,1,1,3.11,3.11,0,0,1,.35,1.48A3.24,3.24,0,0,1,321.38,4a4.72,4.72,0,0,1-.58,1.14,9.88,9.88,0,0,1-1,1.23L317.36,9.1,317.22,9Z"/><path class="cls-1" d="M330.11,0a3.18,3.18,0,0,1,1.41.3,2.9,2.9,0,0,1,1,.82,3.61,3.61,0,0,1,.62,1.16,4.3,4.3,0,0,1,.21,1.33A6.78,6.78,0,0,1,333.21,5a8.82,8.82,0,0,1-.47,1.49,7.55,7.55,0,0,1-.82,1.46,6.5,6.5,0,0,1-1.21,1.25,5.07,5.07,0,0,1-1.61.86.6.6,0,0,1-.22,0,.59.59,0,0,1-.4-.14.51.51,0,0,1-.17-.42.52.52,0,0,1,.12-.34.8.8,0,0,1,.34-.22,4.75,4.75,0,0,0,1.45-.86,6.26,6.26,0,0,0,1.2-1.36,4.64,4.64,0,0,0,.68-1.67l.34-.11a3.23,3.23,0,0,1-.59.71,2.84,2.84,0,0,1-.85.53,2.5,2.5,0,0,1-1.07.22,2.65,2.65,0,0,1-1.15-.26,3.38,3.38,0,0,1-.94-.71,3.28,3.28,0,0,1-.63-1A3.14,3.14,0,0,1,327,3.22a3,3,0,0,1,.41-1.58A3.3,3.3,0,0,1,328.52.48,3,3,0,0,1,330.11,0Zm0,1.05a2,2,0,0,0-1,.27,2,2,0,0,0-.72.75,2.23,2.23,0,0,0-.27,1.11,2.42,2.42,0,0,0,.24,1.06,2,2,0,0,0,.68.79,1.92,1.92,0,0,0,1.05.29,2.19,2.19,0,0,0,1.14-.29,2,2,0,0,0,.73-.79,2.25,2.25,0,0,0,.26-1.09,2.08,2.08,0,0,0-1-1.81A2.08,2.08,0,0,0,330.13,1.09Z"/><path class="cls-1" d="M340.71,9a.52.52,0,0,1,.38.15.54.54,0,0,1,.15.38.5.5,0,0,1-.15.37.52.52,0,0,1-.38.15h-5.08a.6.6,0,0,1-.42-.15.54.54,0,0,1-.16-.4.58.58,0,0,1,.17-.4l3.17-3.46a8.1,8.1,0,0,0,1.05-1.37A2.47,2.47,0,0,0,339.8,3a1.88,1.88,0,0,0-.25-1,1.61,1.61,0,0,0-.67-.65,2.21,2.21,0,0,0-1-.23,2.18,2.18,0,0,0-1.07.29,2,2,0,0,0-.8.91.58.58,0,0,1-.22.22.53.53,0,0,1-.24.06.64.64,0,0,1-.38-.14.45.45,0,0,1-.18-.35.52.52,0,0,1,.09-.29c.06-.09.13-.19.21-.29A2.9,2.9,0,0,1,336.43.45a3.2,3.2,0,0,1,1.49-.38,3.41,3.41,0,0,1,1.63.36,2.5,2.5,0,0,1,1,1A3,3,0,0,1,341,2.93,3.51,3.51,0,0,1,340.76,4a5.12,5.12,0,0,1-.58,1.14,10,10,0,0,1-1,1.23L336.73,9.1,336.59,9Z"/><path class="cls-1" d="M344.78,10a.6.6,0,0,1-.43-.17.56.56,0,0,1-.17-.4v-8l.17.2-1.62,1a.67.67,0,0,1-.28.06.54.54,0,0,1-.41-.18.61.61,0,0,1-.17-.39.56.56,0,0,1,.3-.49L344.45.29a.77.77,0,0,1,.42-.08.48.48,0,0,1,.38.16.61.61,0,0,1,.14.4V9.44a.56.56,0,0,1-.17.4A.6.6,0,0,1,344.78,10Z"/><path class="cls-1" d="M351.76,8.38a.81.81,0,0,1,.19,0,.73.73,0,0,1,.23.15,2,2,0,0,0,.65.4,2.21,2.21,0,0,0,.87.16,2.26,2.26,0,0,0,1.93-1.05,2.17,2.17,0,0,0,.31-1.16,2,2,0,0,0-.31-1.17,1.94,1.94,0,0,0-.8-.68,2.52,2.52,0,0,0-1-.21l-.36,0-.32.08a1.26,1.26,0,0,1-.27,0,.42.42,0,0,1-.35-.16.58.58,0,0,1-.12-.38.59.59,0,0,1,0-.23.64.64,0,0,1,.14-.21l2.74-3,.23.27h-4a.52.52,0,0,1-.38-.15A.54.54,0,0,1,351,.73a.48.48,0,0,1,.15-.37.52.52,0,0,1,.38-.15h4.56a.55.55,0,0,1,.45.17.59.59,0,0,1,.14.39.59.59,0,0,1,0,.23.74.74,0,0,1-.16.2l-2.73,3L353.45,4a.78.78,0,0,1,.32-.1,1.81,1.81,0,0,1,.42,0,2.83,2.83,0,0,1,2.49,1.44,3.09,3.09,0,0,1,.4,1.6,3.25,3.25,0,0,1-.47,1.75,3.09,3.09,0,0,1-1.26,1.14,4,4,0,0,1-1.82.41,3.47,3.47,0,0,1-1.1-.18,2.64,2.64,0,0,1-.93-.51.52.52,0,0,1-.24-.22A.57.57,0,0,1,351.2,9a.63.63,0,0,1,.16-.41A.49.49,0,0,1,351.76,8.38Z"/><path class="cls-1" d="M361.71,10.15a3.18,3.18,0,0,1-1.41-.3,2.88,2.88,0,0,1-1-.82,3.81,3.81,0,0,1-.62-1.16,4.3,4.3,0,0,1-.21-1.33,6.31,6.31,0,0,1,.16-1.35,9.67,9.67,0,0,1,.46-1.52,8.08,8.08,0,0,1,.82-1.49A6.65,6.65,0,0,1,361.11.9,4.9,4.9,0,0,1,362.72,0l.22,0a.7.7,0,0,1,.4.12.47.47,0,0,1,.18.42.54.54,0,0,1-.13.35.75.75,0,0,1-.34.22,4.52,4.52,0,0,0-1.09.6,5.91,5.91,0,0,0-1,.94,6.93,6.93,0,0,0-.78,1.16,4.81,4.81,0,0,0-.46,1.3l-.33.11a3.28,3.28,0,0,1,.6-.71,2.84,2.84,0,0,1,.84-.55,2.67,2.67,0,0,1,1.06-.21A2.5,2.5,0,0,1,363,4a3.24,3.24,0,0,1,.94.71,3.5,3.5,0,0,1,.64,1A3.33,3.33,0,0,1,364.85,7a3.09,3.09,0,0,1-.42,1.58,3.27,3.27,0,0,1-1.12,1.16A3,3,0,0,1,361.71,10.15Zm0-1.05a1.94,1.94,0,0,0,1-.27,2,2,0,0,0,.73-.76,2.32,2.32,0,0,0,.26-1.1,2.36,2.36,0,0,0-.24-1.06,1.86,1.86,0,0,0-.68-.79,1.8,1.8,0,0,0-1.05-.3,2.1,2.1,0,0,0-1.14.29,2,2,0,0,0-.73.79,2.38,2.38,0,0,0-.26,1.1,2.19,2.19,0,0,0,.25,1,2,2,0,0,0,.72.76A2.06,2.06,0,0,0,361.7,9.1Z"/><path class="cls-1" d="M368,10.05a.63.63,0,0,1-.41-.15.45.45,0,0,1-.18-.38.57.57,0,0,1,.06-.25L371.06,1l.16.25h-4.51a.52.52,0,0,1-.38-.15.54.54,0,0,1-.15-.38.48.48,0,0,1,.15-.37.52.52,0,0,1,.38-.15h5.05a.57.57,0,0,1,.42.15.5.5,0,0,1,.16.38.66.66,0,0,1-.06.27L368.49,9.7a.49.49,0,0,1-.21.26A.59.59,0,0,1,368,10.05Z"/><path class="cls-1" d="M188.31,9a.51.51,0,0,1,.53.53.5.5,0,0,1-.15.37.54.54,0,0,1-.38.15h-5.08a.6.6,0,0,1-.42-.15.54.54,0,0,1-.16-.4.58.58,0,0,1,.17-.4L186,5.6a8.1,8.1,0,0,0,1-1.37A2.47,2.47,0,0,0,187.4,3a1.88,1.88,0,0,0-.25-1,1.68,1.68,0,0,0-.67-.65,2.21,2.21,0,0,0-1-.23,2.18,2.18,0,0,0-1.07.29,2,2,0,0,0-.8.91.58.58,0,0,1-.22.22.53.53,0,0,1-.24.06.64.64,0,0,1-.38-.14.45.45,0,0,1-.18-.35.52.52,0,0,1,.09-.29c.06-.09.13-.19.21-.29A2.9,2.9,0,0,1,184,.45a3.2,3.2,0,0,1,1.49-.38,3.41,3.41,0,0,1,1.63.36,2.5,2.5,0,0,1,1,1,3,3,0,0,1,.36,1.48A3.51,3.51,0,0,1,188.36,4a5.12,5.12,0,0,1-.58,1.14,10,10,0,0,1-1,1.23L184.33,9.1,184.19,9Z"/><path class="cls-1" d="M196.46,10.07a3.77,3.77,0,0,1-1.14-.18,3.07,3.07,0,0,1-1-.52.86.86,0,0,1-.18-.26.65.65,0,0,1-.07-.29.49.49,0,0,1,.15-.33.46.46,0,0,1,.38-.16.74.74,0,0,1,.42.18,2.58,2.58,0,0,0,.69.38,2.21,2.21,0,0,0,.75.14,2.68,2.68,0,0,0,1.32-.31,2.35,2.35,0,0,0,.9-.84A2.3,2.3,0,0,0,199,6.66a2.14,2.14,0,0,0-.28-1.12,1.93,1.93,0,0,0-.8-.75,2.46,2.46,0,0,0-1.17-.27,2.42,2.42,0,0,0-.88.15,5.68,5.68,0,0,0-.68.3,1,1,0,0,1-.46.15A.66.66,0,0,1,194.3,5a.52.52,0,0,1-.2-.3.76.76,0,0,1,0-.33l.54-3.71a.64.64,0,0,1,.2-.32.55.55,0,0,1,.38-.13h4.16a.51.51,0,0,1,.37.15.51.51,0,0,1,.16.38.49.49,0,0,1-.16.38.51.51,0,0,1-.37.15h-3.88l.14-.12-.52,3.23-.22-.29a1.46,1.46,0,0,1,.46-.28,4.06,4.06,0,0,1,1.58-.34,3.26,3.26,0,0,1,1.63.41,3.1,3.1,0,0,1,1.56,2.77A3.37,3.37,0,0,1,199.84,8a3.23,3.23,0,0,1-.77,1.09,3.36,3.36,0,0,1-1.16.71A4.06,4.06,0,0,1,196.46,10.07Z"/><path class="cls-1" d="M202.37,8.38a.74.74,0,0,1,.18,0,.66.66,0,0,1,.24.15,2,2,0,0,0,.65.4,2.18,2.18,0,0,0,.87.16,2.26,2.26,0,0,0,1.93-1.05,2.17,2.17,0,0,0,.31-1.16,2,2,0,0,0-.31-1.17,1.94,1.94,0,0,0-.8-.68,2.52,2.52,0,0,0-1-.21l-.36,0-.32.08a1.26,1.26,0,0,1-.27,0,.42.42,0,0,1-.35-.16.58.58,0,0,1-.12-.38.59.59,0,0,1,0-.23.64.64,0,0,1,.14-.21l2.74-3,.23.27h-4a.52.52,0,0,1-.38-.15.54.54,0,0,1-.15-.38.48.48,0,0,1,.15-.37.52.52,0,0,1,.38-.15h4.56a.55.55,0,0,1,.45.17.64.64,0,0,1,.14.39.59.59,0,0,1,0,.23.74.74,0,0,1-.16.2l-2.73,3L204.06,4a.78.78,0,0,1,.32-.1,1.81,1.81,0,0,1,.42,0,2.77,2.77,0,0,1,1.44.38,2.74,2.74,0,0,1,1,1.06,3.19,3.19,0,0,1,.4,1.6,3.25,3.25,0,0,1-.47,1.75A3.09,3.09,0,0,1,206,9.74a4,4,0,0,1-1.82.41A3.47,3.47,0,0,1,203,10a2.55,2.55,0,0,1-.93-.51.52.52,0,0,1-.24-.22.57.57,0,0,1-.06-.25.63.63,0,0,1,.16-.41A.49.49,0,0,1,202.37,8.38Z"/><path class="cls-1" d="M215.08,9a.51.51,0,0,1,.53.53.5.5,0,0,1-.15.37.54.54,0,0,1-.38.15H210a.6.6,0,0,1-.42-.15.51.51,0,0,1-.16-.4.58.58,0,0,1,.17-.4l3.16-3.46a7.17,7.17,0,0,0,1.05-1.37A2.39,2.39,0,0,0,214.17,3a1.88,1.88,0,0,0-.25-1,1.64,1.64,0,0,0-.68-.65,2.24,2.24,0,0,0-2.09.06,2,2,0,0,0-.8.91.58.58,0,0,1-.22.22.54.54,0,0,1-.25.06.66.66,0,0,1-.38-.14.45.45,0,0,1-.18-.35.52.52,0,0,1,.09-.29c.06-.09.14-.19.22-.29A2.94,2.94,0,0,1,210.79.45a3.27,3.27,0,0,1,1.5-.38,3.41,3.41,0,0,1,1.63.36,2.5,2.5,0,0,1,1,1,3,3,0,0,1,.36,1.48A3.51,3.51,0,0,1,215.13,4a4.78,4.78,0,0,1-.59,1.14,9.88,9.88,0,0,1-1,1.23L211.1,9.1,211,9Z"/><path class="cls-1" d="M226.73,9a.51.51,0,0,1,.37.15.51.51,0,0,1,.16.38.47.47,0,0,1-.16.37.51.51,0,0,1-.37.15h-5.09a.59.59,0,0,1-.41-.15.51.51,0,0,1-.16-.4.58.58,0,0,1,.17-.4L224.4,5.6a7.17,7.17,0,0,0,1-1.37A2.49,2.49,0,0,0,225.82,3a2,2,0,0,0-.25-1,1.64,1.64,0,0,0-.68-.65,2.24,2.24,0,0,0-2.09.06,2.07,2.07,0,0,0-.81.91.5.5,0,0,1-.21.22.54.54,0,0,1-.25.06.64.64,0,0,1-.38-.14.45.45,0,0,1-.18-.35.52.52,0,0,1,.09-.29c.06-.09.14-.19.22-.29A2.94,2.94,0,0,1,222.44.45a3.27,3.27,0,0,1,1.5-.38,3.44,3.44,0,0,1,1.63.36,2.55,2.55,0,0,1,1,1A3.11,3.11,0,0,1,227,2.93,3.24,3.24,0,0,1,226.77,4a4.72,4.72,0,0,1-.58,1.14,9.88,9.88,0,0,1-1,1.23L222.75,9.1,222.61,9Z"/><path class="cls-1" d="M230.8,10a.58.58,0,0,1-.43-.17.52.52,0,0,1-.17-.4v-8l.17.2-1.63,1a.64.64,0,0,1-.28.06.55.55,0,0,1-.41-.18.6.6,0,0,1-.16-.39.57.57,0,0,1,.29-.49L230.46.29a.79.79,0,0,1,.42-.08.46.46,0,0,1,.38.16.61.61,0,0,1,.14.4V9.44a.56.56,0,0,1-.17.4A.58.58,0,0,1,230.8,10Z"/><path class="cls-1" d="M235.62,10a.6.6,0,0,1-.44-.17.56.56,0,0,1-.17-.4v-8l.17.2-1.62,1a.67.67,0,0,1-.28.06.54.54,0,0,1-.41-.18.61.61,0,0,1-.17-.39.56.56,0,0,1,.3-.49L235.28.29a.77.77,0,0,1,.42-.08.48.48,0,0,1,.38.16.61.61,0,0,1,.14.4V9.44a.56.56,0,0,1-.17.4A.6.6,0,0,1,235.62,10Z"/><path class="cls-1" d="M375.29,47.3a.46.46,0,0,1,.19,0,.65.65,0,0,1,.23.14,2.23,2.23,0,0,0,.66.41,2.49,2.49,0,0,0,2-.12,2.19,2.19,0,0,0,.82-.78,2.12,2.12,0,0,0,.31-1.16,2,2,0,0,0-.31-1.17,2,2,0,0,0-.8-.67,2.53,2.53,0,0,0-1-.22,2,2,0,0,0-.36,0l-.32.07a.88.88,0,0,1-.27,0,.43.43,0,0,1-.35-.15.6.6,0,0,1-.13-.38.59.59,0,0,1,.05-.23.62.62,0,0,1,.14-.22l2.74-3,.22.27h-4a.49.49,0,0,1-.38-.16.52.52,0,0,1-.15-.38.51.51,0,0,1,.15-.37.56.56,0,0,1,.38-.14h4.56a.52.52,0,0,1,.45.17.64.64,0,0,1,.14.39.46.46,0,0,1-.06.23.65.65,0,0,1-.15.2l-2.73,3-.32-.28a.92.92,0,0,1,.32-.11,2.6,2.6,0,0,1,.42-.05,2.87,2.87,0,0,1,1.44.38,2.77,2.77,0,0,1,1.05,1.07,3.15,3.15,0,0,1,.39,1.59,3.22,3.22,0,0,1-.46,1.75,3.11,3.11,0,0,1-1.26,1.15,4,4,0,0,1-1.82.41,3.47,3.47,0,0,1-1.1-.18,2.62,2.62,0,0,1-.93-.51.58.58,0,0,1-.24-.22.51.51,0,0,1-.07-.26.62.62,0,0,1,.17-.4A.49.49,0,0,1,375.29,47.3Z"/><path class="cls-1" d="M389.36,49.07a2.91,2.91,0,0,1-1.94-.66,4.13,4.13,0,0,1-1.17-1.81,8.52,8.52,0,0,1,0-5.16,4.15,4.15,0,0,1,1.17-1.8,3,3,0,0,1,1.94-.65,2.91,2.91,0,0,1,1.94.65,4,4,0,0,1,1.17,1.8,8.73,8.73,0,0,1,0,5.16,4,4,0,0,1-1.17,1.81A2.87,2.87,0,0,1,389.36,49.07Zm0-1.14a1.8,1.8,0,0,0,1.26-.47,3,3,0,0,0,.77-1.35,8.22,8.22,0,0,0,0-4.18,2.86,2.86,0,0,0-.77-1.34,1.91,1.91,0,0,0-2.51,0,3,3,0,0,0-.78,1.34,7.94,7.94,0,0,0,0,4.18,3.05,3.05,0,0,0,.78,1.35A1.8,1.8,0,0,0,389.36,47.93Z"/><path class="cls-1" d="M397.78,49.07a2.89,2.89,0,0,1-1.94-.66,4.06,4.06,0,0,1-1.18-1.81,8.52,8.52,0,0,1,0-5.16,4.08,4.08,0,0,1,1.18-1.8,3.22,3.22,0,0,1,3.88,0,4.06,4.06,0,0,1,1.17,1.8,8.73,8.73,0,0,1,0,5.16,4,4,0,0,1-1.17,1.81A2.91,2.91,0,0,1,397.78,49.07Zm0-1.14a1.8,1.8,0,0,0,1.25-.47,3.05,3.05,0,0,0,.78-1.35,8.53,8.53,0,0,0,0-4.18,3,3,0,0,0-.78-1.34,1.8,1.8,0,0,0-1.25-.47,1.82,1.82,0,0,0-1.26.47,3,3,0,0,0-.78,1.34,8.22,8.22,0,0,0,0,4.18,3.05,3.05,0,0,0,.78,1.35A1.82,1.82,0,0,0,397.78,47.93Z"/><path class="cls-1" d="M406.19,49.07a2.91,2.91,0,0,1-1.94-.66,4,4,0,0,1-1.17-1.81,8.52,8.52,0,0,1,0-5.16,4.06,4.06,0,0,1,1.17-1.8,3.22,3.22,0,0,1,3.88,0,4,4,0,0,1,1.17,1.8,8.73,8.73,0,0,1,0,5.16,4,4,0,0,1-1.17,1.81A2.89,2.89,0,0,1,406.19,49.07Zm0-1.14a1.78,1.78,0,0,0,1.25-.47,3,3,0,0,0,.78-1.35,8.22,8.22,0,0,0,0-4.18,2.87,2.87,0,0,0-.78-1.34,1.9,1.9,0,0,0-2.5,0,3,3,0,0,0-.78,1.34,7.94,7.94,0,0,0,0,4.18,3.05,3.05,0,0,0,.78,1.35A1.8,1.8,0,0,0,406.19,47.93Z"/><path class="cls-1" d="M418.46,49.07a2.89,2.89,0,0,1-1.94-.66,4.06,4.06,0,0,1-1.18-1.81,8.52,8.52,0,0,1,0-5.16,4.08,4.08,0,0,1,1.18-1.8,3.22,3.22,0,0,1,3.88,0,4,4,0,0,1,1.16,1.8,8.52,8.52,0,0,1,0,5.16,4,4,0,0,1-1.16,1.81A2.91,2.91,0,0,1,418.46,49.07Zm0-1.14a1.8,1.8,0,0,0,1.25-.47,3.05,3.05,0,0,0,.78-1.35,8.53,8.53,0,0,0,0-4.18,3,3,0,0,0-.78-1.34,1.91,1.91,0,0,0-2.51,0,3,3,0,0,0-.78,1.34,8.22,8.22,0,0,0,0,4.18,3.05,3.05,0,0,0,.78,1.35A1.8,1.8,0,0,0,418.46,47.93Z"/><path class="cls-1" d="M426.87,49.07a2.89,2.89,0,0,1-1.94-.66,4.06,4.06,0,0,1-1.18-1.81,8.73,8.73,0,0,1,0-5.16,4.08,4.08,0,0,1,1.18-1.8,3.22,3.22,0,0,1,3.88,0,4,4,0,0,1,1.17,1.8,8.73,8.73,0,0,1,0,5.16,4,4,0,0,1-1.17,1.81A2.89,2.89,0,0,1,426.87,49.07Zm0-1.14a1.8,1.8,0,0,0,1.25-.47,3.05,3.05,0,0,0,.78-1.35,8.22,8.22,0,0,0,0-4.18,3,3,0,0,0-.78-1.34,1.9,1.9,0,0,0-2.5,0,3,3,0,0,0-.79,1.34,8.22,8.22,0,0,0,0,4.18,3.06,3.06,0,0,0,.79,1.35A1.8,1.8,0,0,0,426.87,47.93Z"/><path class="cls-1" d="M435.28,49.07a2.91,2.91,0,0,1-1.94-.66,4,4,0,0,1-1.17-1.81,8.52,8.52,0,0,1,0-5.16,4.06,4.06,0,0,1,1.17-1.8,3.22,3.22,0,0,1,3.88,0,4,4,0,0,1,1.17,1.8,8.73,8.73,0,0,1,0,5.16,4,4,0,0,1-1.17,1.81A2.89,2.89,0,0,1,435.28,49.07Zm0-1.14a1.8,1.8,0,0,0,1.26-.47,3,3,0,0,0,.77-1.35,8.22,8.22,0,0,0,0-4.18,2.86,2.86,0,0,0-.77-1.34,1.91,1.91,0,0,0-2.51,0,3,3,0,0,0-.78,1.34,7.94,7.94,0,0,0,0,4.18,3.05,3.05,0,0,0,.78,1.35A1.8,1.8,0,0,0,435.28,47.93Z"/><path class="cls-2" d="M423.23,27.22H4.16a.88.88,0,0,1-.79-.95.87.87,0,0,1,.79-.94H423.23a.87.87,0,0,1,.78.94A.88.88,0,0,1,423.23,27.22Z"/><polygon class="cls-2" points="8.72 33.98 10 32.6 3.2 26.28 10 19.95 8.72 18.57 0.43 26.28 8.72 33.98"/><polygon class="cls-2" points="416.83 33.98 415.54 32.6 422.35 26.28 415.54 19.95 416.83 18.57 425.12 26.28 416.83 33.98"/><path class="cls-2" d="M35.26,34.86a1,1,0,0,1-.95-.94V18.63a.95.95,0,0,1,1.89,0V33.92A.94.94,0,0,1,35.26,34.86Z"/><path class="cls-2" d="M71,34.86a.94.94,0,0,1-.94-.94V18.63a.94.94,0,1,1,1.88,0V33.92A.94.94,0,0,1,71,34.86Z"/><path class="cls-2" d="M211.9,34.86a.94.94,0,0,1-1-.94V18.63a.95.95,0,0,1,1.89,0V33.92A.94.94,0,0,1,211.9,34.86Z"/><path class="cls-2" d="M352.84,34.86a.94.94,0,0,1-.94-.94V18.63a.94.94,0,1,1,1.88,0V33.92A.94.94,0,0,1,352.84,34.86Z"/><path class="cls-2" d="M388.53,34.86a.94.94,0,0,1-.94-.94V18.63a.95.95,0,0,1,1.89,0V33.92A.94.94,0,0,1,388.53,34.86Z"/></g></g></svg>