<?xml version="1.0" encoding="UTF-8" standalone="no"?>
<svg
   xmlns:dc="http://purl.org/dc/elements/1.1/"
   xmlns:cc="http://creativecommons.org/ns#"
   xmlns:rdf="http://www.w3.org/1999/02/22-rdf-syntax-ns#"
   xmlns:svg="http://www.w3.org/2000/svg"
   xmlns="http://www.w3.org/2000/svg"
   xmlns:sodipodi="http://sodipodi.sourceforge.net/DTD/sodipodi-0.dtd"
   xmlns:inkscape="http://www.inkscape.org/namespaces/inkscape"
   viewBox="0 0 102.59 28.75"
   version="1.1"
   id="svg26"
   sodipodi:docname="VT_d_1.svg"
   inkscape:version="0.92.5 (2060ec1f9f, 2020-04-08)">
  <metadata
     id="metadata30">
    <rdf:RDF>
      <cc:Work
         rdf:about="">
        <dc:format>image/svg+xml</dc:format>
        <dc:type
           rdf:resource="http://purl.org/dc/dcmitype/StillImage" />
        <dc:title></dc:title>
      </cc:Work>
    </rdf:RDF>
  </metadata>
  <sodipodi:namedview
     pagecolor="#ffffff"
     bordercolor="#666666"
     borderopacity="1"
     objecttolerance="10"
     gridtolerance="10"
     guidetolerance="10"
     inkscape:pageopacity="0"
     inkscape:pageshadow="2"
     inkscape:window-width="1158"
     inkscape:window-height="480"
     id="namedview28"
     showgrid="false"
     inkscape:zoom="3.5578518"
     inkscape:cx="51.294998"
     inkscape:cy="14.375"
     inkscape:window-x="864"
     inkscape:window-y="71"
     inkscape:window-maximized="0"
     inkscape:current-layer="svg26" />
  <defs
     id="defs4">
    <style
       id="style2">.cls-1{fill:#1f8ebe;}.cls-2{fill:#363026;}</style>
  </defs>
  <path
     class="cls-1"
     d="m 34.32,14 a 0.84,0.84 0 0 1 -0.59,-0.23 0.79,0.79 0 0 1 -0.23,-0.56 0.74,0.74 0 0 1 0.23,-0.54 0.87,0.87 0 0 1 0.59,-0.21 h 5.62 a 0.84,0.84 0 0 1 0.59,0.21 0.74,0.74 0 0 1 0.23,0.54 0.79,0.79 0 0 1 -0.23,0.56 0.81,0.81 0 0 1 -0.59,0.23 z m 0,2.71 A 0.8,0.8 0 0 1 33.73,16.48 0.76,0.76 0 0 1 33.5,16 a 0.71,0.71 0 0 1 0.23,-0.54 0.83,0.83 0 0 1 0.59,-0.22 h 5.62 a 0.8,0.8 0 0 1 0.59,0.22 0.71,0.71 0 0 1 0.23,0.54 0.79,0.79 0 0 1 -0.82,0.78 z"
     id="path6"
     inkscape:connector-curvature="0"
     style="fill:#1f8ebe" />
  <path
     class="cls-2"
     d="m 52,17.8 a 0.54,0.54 0 0 1 0.38,0.15 0.52,0.52 0 0 1 0.15,0.38 0.5,0.5 0 0 1 -0.15,0.37 0.54,0.54 0 0 1 -0.38,0.15 h -5.06 a 0.6,0.6 0 0 1 -0.42,-0.15 0.54,0.54 0 0 1 -0.16,-0.4 0.62,0.62 0 0 1 0.17,-0.41 l 3.16,-3.45 a 7.17,7.17 0 0 0 1.05,-1.37 2.42,2.42 0 0 0 0.37,-1.24 1.87,1.87 0 0 0 -0.25,-1 1.64,1.64 0 0 0 -0.68,-0.65 2.24,2.24 0 0 0 -2.09,0.06 2,2 0 0 0 -0.8,0.91 0.66,0.66 0 0 1 -0.22,0.22 0.54,0.54 0 0 1 -0.25,0.06 0.57,0.57 0 0 1 -0.37,-0.15 0.4,0.4 0 0 1 -0.19,-0.34 0.52,0.52 0 0 1 0.09,-0.29 l 0.22,-0.3 a 3.09,3.09 0 0 1 1.16,-1.08 3.26,3.26 0 0 1 1.5,-0.37 3.41,3.41 0 0 1 1.63,0.36 2.44,2.44 0 0 1 1,1 3,3 0 0 1 0.36,1.47 3.52,3.52 0 0 1 -0.19,1.09 5.12,5.12 0 0 1 -0.54,1.18 11.06,11.06 0 0 1 -1,1.23 L 48,17.94 47.86,17.8 Z"
     id="path8"
     inkscape:connector-curvature="0"
     style="fill:#363026" />
  <path
     class="cls-2"
     d="m 59.94,18.85 a 0.58,0.58 0 0 1 -0.43,-0.17 0.57,0.57 0 0 1 -0.17,-0.41 v -8 l 0.17,0.19 -1.63,1 A 0.51,0.51 0 0 1 57.6,11.53 0.5,0.5 0 0 1 57.2,11.34 0.57,0.57 0 0 1 57,11 0.56,0.56 0 0 1 57.29,10.51 l 2.29,-1.36 a 0.77,0.77 0 0 1 0.42,-0.1 0.46,0.46 0 0 1 0.37,0.16 0.54,0.54 0 0 1 0.14,0.4 v 8.66 a 0.56,0.56 0 0 1 -0.16,0.41 0.62,0.62 0 0 1 -0.41,0.17 z"
     id="path10"
     inkscape:connector-curvature="0"
     style="fill:#363026" />
  <path
     class="cls-2"
     d="m 67.18,13.9 v -0.19 a 3,3 0 0 1 1.51,1.41 2.3,2.3 0 0 1 0.23,1 2.47,2.47 0 0 1 -0.42,1.39 2.84,2.84 0 0 1 -1.12,1 3.43,3.43 0 0 1 -3.14,0 3,3 0 0 1 -1.11,-1 2.46,2.46 0 0 1 -0.41,-1.39 2.33,2.33 0 0 1 0.22,-1.12 3.25,3.25 0 0 1 0.66,-0.81 3.8,3.8 0 0 1 0.84,-0.53 l -0.07,0.22 a 2.32,2.32 0 0 1 -0.7,-0.45 2.35,2.35 0 0 1 -0.54,-0.73 2.16,2.16 0 0 1 -0.21,-1 2.57,2.57 0 0 1 0.38,-1.37 2.73,2.73 0 0 1 1,-1 3.07,3.07 0 0 1 1.44,-0.35 3,3 0 0 1 1.44,0.35 2.85,2.85 0 0 1 1,1 2.49,2.49 0 0 1 0.39,1.37 2.14,2.14 0 0 1 -0.23,1 2.54,2.54 0 0 1 -1.23,1.15 z m -1.4,4 a 2,2 0 0 0 1.42,-0.51 1.71,1.71 0 0 0 0.29,-2.16 1.83,1.83 0 0 0 -0.72,-0.63 2.22,2.22 0 0 0 -2,0 1.74,1.74 0 0 0 -0.71,0.63 1.68,1.68 0 0 0 0.28,2.16 2,2 0 0 0 1.44,0.48 z m -1.72,-6.11 a 1.63,1.63 0 0 0 0.86,1.48 1.8,1.8 0 0 0 0.86,0.22 1.77,1.77 0 0 0 0.86,-0.22 1.7,1.7 0 0 0 0.62,-0.6 1.72,1.72 0 0 0 -0.26,-2.1 1.87,1.87 0 0 0 -2.48,0 1.59,1.59 0 0 0 -0.46,1.19 z"
     id="path12"
     inkscape:connector-curvature="0"
     style="fill:#363026" />
  <path
     class="cls-2"
     d="m 71.09,17.22 a 0.45,0.45 0 0 1 0.18,0 0.68,0.68 0 0 1 0.24,0.14 2.06,2.06 0 0 0 0.65,0.41 2.37,2.37 0 0 0 0.84,0.23 2.34,2.34 0 0 0 1.11,-0.27 2.19,2.19 0 0 0 0.82,-0.78 2.12,2.12 0 0 0 0.31,-1.16 2,2 0 0 0 -0.24,-1.21 2,2 0 0 0 -0.8,-0.67 2.53,2.53 0 0 0 -1,-0.22 2,2 0 0 0 -0.36,0 l -0.32,0.07 a 0.84,0.84 0 0 1 -0.27,0 0.44,0.44 0 0 1 -0.35,-0.15 0.6,0.6 0 0 1 -0.12,-0.38 0.59,0.59 0 0 1 0,-0.23 0.8,0.8 0 0 1 0.14,-0.22 l 2.74,-3 0.23,0.27 h -4 A 0.49,0.49 0 0 1 70.51,9.89 0.52,0.52 0 0 1 70.36,9.51 0.51,0.51 0 0 1 70.51,9.14 0.56,0.56 0 0 1 70.89,9 h 4.56 a 0.52,0.52 0 0 1 0.45,0.17 0.59,0.59 0 0 1 0.14,0.39 0.59,0.59 0 0 1 -0.05,0.23 0.74,0.74 0 0 1 -0.16,0.2 l -2.73,3 -0.32,-0.28 a 0.92,0.92 0 0 1 0.32,-0.11 2.6,2.6 0 0 1 0.42,0 2.87,2.87 0 0 1 1.48,0.4 2.77,2.77 0 0 1 1,1.09 3.15,3.15 0 0 1 0.4,1.59 3.22,3.22 0 0 1 -0.47,1.75 3,3 0 0 1 -1.26,1.15 4,4 0 0 1 -1.82,0.41 3.47,3.47 0 0 1 -1.1,-0.18 2.8,2.8 0 0 1 -0.93,-0.51 0.52,0.52 0 0 1 -0.24,-0.22 0.62,0.62 0 0 1 -0.06,-0.26 0.6,0.6 0 0 1 0.16,-0.4 0.49,0.49 0 0 1 0.41,-0.2 z"
     id="path14"
     inkscape:connector-curvature="0"
     style="fill:#363026" />
  <path
     class="cls-2"
     d="m 82.23,17.22 a 0.46,0.46 0 0 1 0.19,0 0.65,0.65 0 0 1 0.23,0.14 2.23,2.23 0 0 0 0.66,0.41 2.33,2.33 0 0 0 0.87,0.15 2.27,2.27 0 0 0 1.1,-0.27 2.18,2.18 0 0 0 1.14,-1.94 2,2 0 0 0 -0.32,-1.17 2,2 0 0 0 -0.8,-0.67 2.51,2.51 0 0 0 -1,-0.22 2.22,2.22 0 0 0 -0.37,0 l -0.31,0.07 a 0.93,0.93 0 0 1 -0.27,0 0.43,0.43 0 0 1 -0.35,-0.15 0.55,0.55 0 0 1 -0.13,-0.38 0.59,0.59 0 0 1 0,-0.23 1.13,1.13 0 0 1 0.14,-0.22 l 2.75,-3 0.22,0.27 H 82 A 0.47,0.47 0 0 1 81.63,9.85 0.49,0.49 0 0 1 81.47,9.47 0.49,0.49 0 0 1 81.63,9.1 0.53,0.53 0 0 1 82,9.05 h 4.6 A 0.55,0.55 0 0 1 87.05,9.22 0.64,0.64 0 0 1 87.19,9.61 0.46,0.46 0 0 1 87.13,9.84 1,1 0 0 1 87,10 l -2.73,3 -0.33,-0.28 a 1,1 0 0 1 0.33,-0.11 2.37,2.37 0 0 1 0.42,0 2.87,2.87 0 0 1 1.44,0.38 2.77,2.77 0 0 1 1,1.07 3.15,3.15 0 0 1 0.39,1.59 3.22,3.22 0 0 1 -0.46,1.75 3.07,3.07 0 0 1 -1.27,1.15 A 4,4 0 0 1 84,19 3.43,3.43 0 0 1 82.9,18.82 2.62,2.62 0 0 1 82,18.3 a 0.55,0.55 0 0 1 -0.25,-0.22 0.62,0.62 0 0 1 -0.06,-0.26 0.6,0.6 0 0 1 0.16,-0.4 0.51,0.51 0 0 1 0.38,-0.2 z"
     id="path16"
     inkscape:connector-curvature="0"
     style="fill:#363026" />
  <path
     class="cls-2"
     d="M 90.87,18.89 A 0.63,0.63 0 0 1 90.46,18.74 0.46,0.46 0 0 1 90.28,18.36 0.62,0.62 0 0 1 90.34,18.1 L 94,9.84 94.16,10.1 H 89.61 A 0.49,0.49 0 0 1 89.23,9.94 0.52,0.52 0 0 1 89.08,9.56 0.51,0.51 0 0 1 89.23,9.19 0.56,0.56 0 0 1 89.61,9.05 h 5 a 0.61,0.61 0 0 1 0.42,0.14 0.53,0.53 0 0 1 0.16,0.39 0.58,0.58 0 0 1 -0.06,0.26 l -3.79,8.7 a 0.49,0.49 0 0 1 -0.21,0.26 0.56,0.56 0 0 1 -0.26,0.09 z"
     id="path18"
     inkscape:connector-curvature="0"
     style="fill:#363026" />
  <path
     class="cls-2"
     d="m 98.93,18.9 a 4.2,4.2 0 0 1 -1.14,-0.17 2.91,2.91 0 0 1 -1,-0.53 0.8,0.8 0 0 1 -0.18,-0.25 0.82,0.82 0 0 1 -0.07,-0.29 0.48,0.48 0 0 1 0.15,-0.33 0.5,0.5 0 0 1 0.39,-0.16 0.74,0.74 0 0 1 0.42,0.18 2.65,2.65 0 0 0 0.68,0.38 2.27,2.27 0 0 0 0.76,0.14 2.78,2.78 0 0 0 1.31,-0.31 2.33,2.33 0 0 0 0.91,-0.85 2.27,2.27 0 0 0 0.33,-1.21 2.21,2.21 0 0 0 -0.29,-1.13 2,2 0 0 0 -0.8,-0.75 2.58,2.58 0 0 0 -1.17,-0.26 2.42,2.42 0 0 0 -0.88,0.15 3.52,3.52 0 0 0 -0.67,0.3 1.05,1.05 0 0 1 -0.46,0.15 0.71,0.71 0 0 1 -0.43,-0.12 0.55,0.55 0 0 1 -0.2,-0.3 0.79,0.79 0 0 1 0,-0.34 l 0.55,-3.71 a 0.6,0.6 0 0 1 0.19,-0.31 0.57,0.57 0 0 1 0.38,-0.13 h 4.16 a 0.54,0.54 0 0 1 0.38,0.15 0.52,0.52 0 0 1 0.15,0.38 0.51,0.51 0 0 1 -0.53,0.53 H 98 l 0.14,-0.13 -0.52,3.24 -0.22,-0.3 a 2.06,2.06 0 0 1 0.47,-0.28 3.93,3.93 0 0 1 0.73,-0.23 3.33,3.33 0 0 1 0.84,-0.1 3.26,3.26 0 0 1 1.63,0.41 3,3 0 0 1 1.15,1.13 3.15,3.15 0 0 1 0.42,1.64 3.37,3.37 0 0 1 -0.28,1.36 3.23,3.23 0 0 1 -0.77,1.09 3.69,3.69 0 0 1 -1.16,0.71 4,4 0 0 1 -1.5,0.25 z"
     id="path20"
     inkscape:connector-curvature="0"
     style="fill:#363026" />
  <circle
     class="cls-1"
     cx="14.334493"
     cy="14.415508"
     r="14.37"
     id="circle22"
     style="fill:#1f8ebe" />
</svg>
