<?xml version="1.0" encoding="UTF-8" standalone="no"?>
<svg
   xmlns:dc="http://purl.org/dc/elements/1.1/"
   xmlns:cc="http://creativecommons.org/ns#"
   xmlns:rdf="http://www.w3.org/1999/02/22-rdf-syntax-ns#"
   xmlns:svg="http://www.w3.org/2000/svg"
   xmlns="http://www.w3.org/2000/svg"
   xmlns:sodipodi="http://sodipodi.sourceforge.net/DTD/sodipodi-0.dtd"
   xmlns:inkscape="http://www.inkscape.org/namespaces/inkscape"
   viewBox="0 0 104.41 28.75"
   version="1.1"
   id="svg26"
   sodipodi:docname="VT_d_2.svg"
   inkscape:version="0.92.5 (2060ec1f9f, 2020-04-08)">
  <metadata
     id="metadata30">
    <rdf:RDF>
      <cc:Work
         rdf:about="">
        <dc:format>image/svg+xml</dc:format>
        <dc:type
           rdf:resource="http://purl.org/dc/dcmitype/StillImage" />
        <dc:title></dc:title>
      </cc:Work>
    </rdf:RDF>
  </metadata>
  <sodipodi:namedview
     pagecolor="#ffffff"
     bordercolor="#666666"
     borderopacity="1"
     objecttolerance="10"
     gridtolerance="10"
     guidetolerance="10"
     inkscape:pageopacity="0"
     inkscape:pageshadow="2"
     inkscape:window-width="1231"
     inkscape:window-height="480"
     id="namedview28"
     showgrid="false"
     inkscape:zoom="3.4958336"
     inkscape:cx="52.205002"
     inkscape:cy="14.375"
     inkscape:window-x="1838"
     inkscape:window-y="447"
     inkscape:window-maximized="0"
     inkscape:current-layer="svg26" />
  <defs
     id="defs4">
    <style
       id="style2">.cls-1{fill:#1f8ebe;}.cls-2{fill:#363026;}</style>
  </defs>
  <path
     class="cls-1"
     d="m 34.32,14 a 0.84,0.84 0 0 1 -0.59,-0.23 0.79,0.79 0 0 1 -0.23,-0.56 0.74,0.74 0 0 1 0.23,-0.54 0.87,0.87 0 0 1 0.59,-0.21 h 5.62 a 0.84,0.84 0 0 1 0.59,0.21 0.74,0.74 0 0 1 0.23,0.54 0.79,0.79 0 0 1 -0.23,0.56 0.81,0.81 0 0 1 -0.59,0.23 z m 0,2.71 A 0.8,0.8 0 0 1 33.73,16.48 0.76,0.76 0 0 1 33.5,16 a 0.71,0.71 0 0 1 0.23,-0.54 0.83,0.83 0 0 1 0.59,-0.22 h 5.62 a 0.8,0.8 0 0 1 0.59,0.22 0.71,0.71 0 0 1 0.23,0.54 0.79,0.79 0 0 1 -0.82,0.78 z"
     id="path6"
     inkscape:connector-curvature="0"
     style="fill:#1f8ebe" />
  <path
     class="cls-2"
     d="m 52,17.8 a 0.54,0.54 0 0 1 0.38,0.15 0.52,0.52 0 0 1 0.15,0.38 0.5,0.5 0 0 1 -0.15,0.37 0.54,0.54 0 0 1 -0.38,0.15 h -5.06 a 0.6,0.6 0 0 1 -0.42,-0.15 0.54,0.54 0 0 1 -0.16,-0.4 0.62,0.62 0 0 1 0.17,-0.41 l 3.16,-3.45 a 7.17,7.17 0 0 0 1.05,-1.37 2.42,2.42 0 0 0 0.37,-1.24 1.87,1.87 0 0 0 -0.25,-1 1.64,1.64 0 0 0 -0.68,-0.65 2.24,2.24 0 0 0 -2.09,0.06 2,2 0 0 0 -0.8,0.91 0.77,0.77 0 0 1 -0.22,0.22 0.54,0.54 0 0 1 -0.25,0.06 0.57,0.57 0 0 1 -0.37,-0.15 0.4,0.4 0 0 1 -0.19,-0.34 0.52,0.52 0 0 1 0.09,-0.29 l 0.22,-0.3 a 3.09,3.09 0 0 1 1.16,-1.08 3.26,3.26 0 0 1 1.5,-0.37 3.41,3.41 0 0 1 1.63,0.36 2.44,2.44 0 0 1 1,1 3,3 0 0 1 0.36,1.47 3.52,3.52 0 0 1 -0.19,1.09 5.12,5.12 0 0 1 -0.54,1.18 11.06,11.06 0 0 1 -1,1.23 L 48,17.94 47.86,17.8 Z"
     id="path8"
     inkscape:connector-curvature="0"
     style="fill:#363026" />
  <path
     class="cls-2"
     d="m 60.8,8.88 a 3.1,3.1 0 0 1 1.4,0.3 2.83,2.83 0 0 1 1,0.82 3.68,3.68 0 0 1 0.61,1.16 4.25,4.25 0 0 1 0.19,1.33 6.78,6.78 0 0 1 -0.15,1.34 8.24,8.24 0 0 1 -0.47,1.49 7,7 0 0 1 -0.82,1.45 6.22,6.22 0 0 1 -1.16,1.23 5.52,5.52 0 0 1 -1.61,0.86 0.7,0.7 0 0 1 -0.23,0 0.6,0.6 0 0 1 -0.39,-0.14 0.49,0.49 0 0 1 -0.18,-0.42 0.48,0.48 0 0 1 0.13,-0.34 0.71,0.71 0 0 1 0.33,-0.22 4.83,4.83 0 0 0 1.45,-0.74 6.09,6.09 0 0 0 1.2,-1.37 4.53,4.53 0 0 0 0.68,-1.66 l 0.34,-0.11 a 3.18,3.18 0 0 1 -0.59,0.7 2.94,2.94 0 0 1 -0.85,0.54 2.62,2.62 0 0 1 -1.07,0.21 A 2.45,2.45 0 0 1 59.47,15 2.93,2.93 0 0 1 58.53,14.3 3.34,3.34 0 0 1 57.66,12.06 3.19,3.19 0 0 1 58.07,10.47 3.27,3.27 0 0 1 59.2,9.32 3,3 0 0 1 60.8,8.88 Z m 0,1 a 1.94,1.94 0 0 0 -1.75,1 2.23,2.23 0 0 0 -0.27,1.11 2.38,2.38 0 0 0 0.24,1 1.85,1.85 0 0 0 1.74,1.09 2.16,2.16 0 0 0 1.13,-0.29 2,2 0 0 0 0.74,-0.8 A 2.33,2.33 0 0 0 62.9,12 2.14,2.14 0 0 0 62.64,11 1.9,1.9 0 0 0 61.92,10.23 2.08,2.08 0 0 0 60.81,9.93 Z"
     id="path10"
     inkscape:connector-curvature="0"
     style="fill:#363026" />
  <path
     class="cls-2"
     d="m 67.89,18.9 a 4.2,4.2 0 0 1 -1.14,-0.17 2.87,2.87 0 0 1 -1,-0.53 0.58,0.58 0 0 1 -0.18,-0.25 0.65,0.65 0 0 1 -0.07,-0.29 0.45,0.45 0 0 1 0.14,-0.33 0.5,0.5 0 0 1 0.39,-0.16 0.74,0.74 0 0 1 0.42,0.18 2.65,2.65 0 0 0 0.68,0.38 2.31,2.31 0 0 0 0.76,0.14 2.78,2.78 0 0 0 1.31,-0.31 2.33,2.33 0 0 0 0.91,-0.85 2.27,2.27 0 0 0 0.33,-1.21 2.21,2.21 0 0 0 -0.29,-1.13 2,2 0 0 0 -0.8,-0.75 2.58,2.58 0 0 0 -1.17,-0.26 2.46,2.46 0 0 0 -0.88,0.15 3.83,3.83 0 0 0 -0.67,0.3 1.05,1.05 0 0 1 -0.46,0.15 0.66,0.66 0 0 1 -0.42,-0.12 0.57,0.57 0 0 1 -0.21,-0.3 0.79,0.79 0 0 1 0,-0.34 l 0.55,-3.7 a 0.55,0.55 0 0 1 0.2,-0.32 0.52,0.52 0 0 1 0.37,-0.13 h 4.16 a 0.51,0.51 0 0 1 0.53,0.53 0.54,0.54 0 0 1 -0.15,0.38 0.52,0.52 0 0 1 -0.38,0.15 h -3.91 l 0.14,-0.12 -0.51,3.23 -0.23,-0.3 a 2.06,2.06 0 0 1 0.47,-0.28 3.93,3.93 0 0 1 0.73,-0.23 3.39,3.39 0 0 1 0.84,-0.1 3.3,3.3 0 0 1 1.64,0.41 3.09,3.09 0 0 1 1.14,1.13 3.18,3.18 0 0 1 0.42,1.64 3.21,3.21 0 0 1 -0.28,1.36 3.09,3.09 0 0 1 -0.77,1.09 3.42,3.42 0 0 1 -1.16,0.71 4,4 0 0 1 -1.45,0.25 z"
     id="path12"
     inkscape:connector-curvature="0"
     style="fill:#363026" />
  <path
     class="cls-2"
     d="m 75.5,18.85 a 0.6,0.6 0 0 1 -0.44,-0.17 0.57,0.57 0 0 1 -0.17,-0.41 v -8 l 0.17,0.19 -1.62,1 a 0.55,0.55 0 0 1 -0.28,0.07 0.52,0.52 0 0 1 -0.41,-0.19 0.57,0.57 0 0 1 -0.17,-0.38 0.55,0.55 0 0 1 0.3,-0.49 l 2.28,-1.36 a 0.77,0.77 0 0 1 0.42,-0.08 0.48,0.48 0 0 1 0.38,0.16 0.61,0.61 0 0 1 0.14,0.4 v 8.66 a 0.57,0.57 0 0 1 -0.17,0.41 0.6,0.6 0 0 1 -0.43,0.19 z"
     id="path14"
     inkscape:connector-curvature="0"
     style="fill:#363026" />
  <path
     class="cls-2"
     d="m 85,8.88 a 3.12,3.12 0 0 1 1.41,0.3 2.83,2.83 0 0 1 1,0.82 3.68,3.68 0 0 1 0.61,1.16 4.25,4.25 0 0 1 0.21,1.33 6.78,6.78 0 0 1 -0.15,1.34 8.24,8.24 0 0 1 -0.47,1.49 7,7 0 0 1 -0.82,1.45 6.22,6.22 0 0 1 -1.17,1.23 5.52,5.52 0 0 1 -1.61,0.86 0.7,0.7 0 0 1 -0.23,0 0.65,0.65 0 0 1 -0.4,-0.14 0.51,0.51 0 0 1 -0.17,-0.42 0.48,0.48 0 0 1 0.13,-0.34 0.71,0.71 0 0 1 0.33,-0.22 4.83,4.83 0 0 0 1.45,-0.74 6.09,6.09 0 0 0 1.2,-1.37 4.36,4.36 0 0 0 0.68,-1.71 l 0.34,-0.11 a 3.18,3.18 0 0 1 -0.59,0.7 2.94,2.94 0 0 1 -0.85,0.54 2.62,2.62 0 0 1 -1.07,0.21 A 2.52,2.52 0 0 1 83.68,15 3,3 0 0 1 82.75,14.3 3.34,3.34 0 0 1 81.88,12.06 3.19,3.19 0 0 1 82.29,10.47 3.27,3.27 0 0 1 83.42,9.32 3,3 0 0 1 85,8.88 Z m 0,1 a 1.94,1.94 0 0 0 -1.75,1 2.23,2.23 0 0 0 -0.25,1.18 2.38,2.38 0 0 0 0.24,1 1.85,1.85 0 0 0 1.76,1.14 2.16,2.16 0 0 0 1.13,-0.29 2,2 0 0 0 0.74,-0.8 A 2.33,2.33 0 0 0 87.12,12 2.14,2.14 0 0 0 86.86,11 2,2 0 0 0 86.14,10.23 2.08,2.08 0 0 0 85,9.93 Z"
     id="path16"
     inkscape:connector-curvature="0"
     style="fill:#363026" />
  <path
     class="cls-2"
     d="M 93.12,19 A 2.91,2.91 0 0 1 91.18,18.34 4,4 0 0 1 90,16.52 7.66,7.66 0 0 1 89.6,13.95 7.66,7.66 0 0 1 90,11.36 a 4,4 0 0 1 1.17,-1.8 3.22,3.22 0 0 1 3.88,0 4,4 0 0 1 1.17,1.8 7.92,7.92 0 0 1 0.4,2.64 7.93,7.93 0 0 1 -0.39,2.57 4,4 0 0 1 -1.17,1.81 2.89,2.89 0 0 1 -1.94,0.62 z m 0,-1.14 a 1.78,1.78 0 0 0 1.25,-0.47 3.05,3.05 0 0 0 0.78,-1.39 7.14,7.14 0 0 0 0.27,-2 7.19,7.19 0 0 0 -0.27,-2.1 3,3 0 0 0 -0.78,-1.34 1.9,1.9 0 0 0 -2.5,0 3.06,3.06 0 0 0 -0.79,1.34 7.19,7.19 0 0 0 -0.27,2.1 7.14,7.14 0 0 0 0.27,2 3.16,3.16 0 0 0 0.79,1.35 1.8,1.8 0 0 0 1.25,0.5 z"
     id="path18"
     inkscape:connector-curvature="0"
     style="fill:#363026" />
  <path
     class="cls-2"
     d="m 101.27,19 a 3.18,3.18 0 0 1 -1.41,-0.3 3,3 0 0 1 -1,-0.82 A 3.87,3.87 0 0 1 98.24,16.71 4.21,4.21 0 0 1 98,15.37 6.23,6.23 0 0 1 98.18,14 8.71,8.71 0 0 1 98.64,12.48 7.77,7.77 0 0 1 99.46,11 a 6.37,6.37 0 0 1 1.21,-1.28 5.11,5.11 0 0 1 1.61,-0.88 h 0.22 a 0.7,0.7 0 0 1 0.4,0.12 0.47,0.47 0 0 1 0.18,0.42 0.56,0.56 0 0 1 -0.13,0.35 0.79,0.79 0 0 1 -0.34,0.21 4.82,4.82 0 0 0 -1.1,0.61 5.85,5.85 0 0 0 -1,0.94 6.93,6.93 0 0 0 -0.78,1.16 4.49,4.49 0 0 0 -0.46,1.3 l -0.34,0.11 a 3.65,3.65 0 0 1 0.61,-0.72 3,3 0 0 1 0.84,-0.54 2.72,2.72 0 0 1 2.21,0 3.27,3.27 0 0 1 1.57,1.75 3.15,3.15 0 0 1 0.24,1.21 3.05,3.05 0 0 1 -0.42,1.57 3.3,3.3 0 0 1 -1.12,1.17 3,3 0 0 1 -1.59,0.5 z m 0,-1 a 1.86,1.86 0 0 0 1,-0.28 2,2 0 0 0 0.73,-0.75 2.46,2.46 0 0 0 0,-2.16 2,2 0 0 0 -0.68,-0.8 1.8,1.8 0 0 0 -1,-0.3 2.11,2.11 0 0 0 -1.14,0.3 2,2 0 0 0 -0.73,0.79 2.38,2.38 0 0 0 -0.26,1.1 2.12,2.12 0 0 0 0.25,1 2,2 0 0 0 0.72,0.77 2,2 0 0 0 1.1,0.27 z"
     id="path20"
     inkscape:connector-curvature="0"
     style="fill:#363026" />
  <rect
     class="cls-1"
     width="28.75"
     height="28.75"
     id="rect22"
     x="0.21379484"
     y="0.072260514"
     style="fill:#1f8ebe" />
</svg>
