<?xml version="1.0" encoding="UTF-8" standalone="no"?>
<svg
   xmlns:dc="http://purl.org/dc/elements/1.1/"
   xmlns:cc="http://creativecommons.org/ns#"
   xmlns:rdf="http://www.w3.org/1999/02/22-rdf-syntax-ns#"
   xmlns:svg="http://www.w3.org/2000/svg"
   xmlns="http://www.w3.org/2000/svg"
   xmlns:sodipodi="http://sodipodi.sourceforge.net/DTD/sodipodi-0.dtd"
   xmlns:inkscape="http://www.inkscape.org/namespaces/inkscape"
   viewBox="0 0 106.45 28.75"
   version="1.1"
   id="svg26"
   sodipodi:docname="VT_d_3.svg"
   inkscape:version="0.92.5 (2060ec1f9f, 2020-04-08)">
  <metadata
     id="metadata30">
    <rdf:RDF>
      <cc:Work
         rdf:about="">
        <dc:format>image/svg+xml</dc:format>
        <dc:type
           rdf:resource="http://purl.org/dc/dcmitype/StillImage" />
        <dc:title></dc:title>
      </cc:Work>
    </rdf:RDF>
  </metadata>
  <sodipodi:namedview
     pagecolor="#ffffff"
     bordercolor="#666666"
     borderopacity="1"
     objecttolerance="10"
     gridtolerance="10"
     guidetolerance="10"
     inkscape:pageopacity="0"
     inkscape:pageshadow="2"
     inkscape:window-width="1232"
     inkscape:window-height="480"
     id="namedview28"
     showgrid="false"
     inkscape:zoom="3.4288399"
     inkscape:cx="53.224998"
     inkscape:cy="14.375"
     inkscape:window-x="1886"
     inkscape:window-y="44"
     inkscape:window-maximized="0"
     inkscape:current-layer="svg26" />
  <defs
     id="defs4">
    <style
       id="style2">.cls-1{fill:#1f8ebe;}.cls-2{fill:#363026;}</style>
  </defs>
  <path
     class="cls-1"
     d="m 36.55,14 a 0.82,0.82 0 0 1 -0.59,-0.23 0.76,0.76 0 0 1 -0.24,-0.56 0.71,0.71 0 0 1 0.24,-0.54 0.85,0.85 0 0 1 0.59,-0.21 h 5.61 a 0.84,0.84 0 0 1 0.59,0.21 0.71,0.71 0 0 1 0.24,0.54 0.76,0.76 0 0 1 -0.24,0.56 0.81,0.81 0 0 1 -0.59,0.23 z m 0,2.71 A 0.78,0.78 0 0 1 36,16.5 0.74,0.74 0 0 1 35.76,15.95 0.68,0.68 0 0 1 36,15.41 0.86,0.86 0 0 1 36.59,15.19 h 5.61 a 0.84,0.84 0 0 1 0.59,0.22 0.68,0.68 0 0 1 0.21,0.59 0.74,0.74 0 0 1 -0.24,0.55 0.77,0.77 0 0 1 -0.59,0.23 z"
     id="path6"
     inkscape:connector-curvature="0"
     style="fill:#1f8ebe" />
  <path
     class="cls-2"
     d="m 54.24,17.8 a 0.51,0.51 0 0 1 0.53,0.53 0.5,0.5 0 0 1 -0.15,0.37 0.52,0.52 0 0 1 -0.38,0.15 h -5.08 a 0.56,0.56 0 0 1 -0.41,-0.15 0.51,0.51 0 0 1 -0.16,-0.4 0.61,0.61 0 0 1 0.16,-0.41 l 3.17,-3.45 a 7.61,7.61 0 0 0 1,-1.37 2.51,2.51 0 0 0 0.36,-1.24 2,2 0 0 0 -0.24,-1 1.7,1.7 0 0 0 -0.68,-0.65 2.26,2.26 0 0 0 -2.1,0.06 2,2 0 0 0 -0.8,0.91 0.66,0.66 0 0 1 -0.22,0.22 0.53,0.53 0 0 1 -0.24,0.06 0.59,0.59 0 0 1 -0.38,-0.15 0.42,0.42 0 0 1 -0.18,-0.34 0.52,0.52 0 0 1 0.09,-0.29 1.91,1.91 0 0 1 0.22,-0.3 2.85,2.85 0 0 1 1.25,-1.06 3.1,3.1 0 0 1 1.5,-0.38 3.47,3.47 0 0 1 1.63,0.36 2.41,2.41 0 0 1 1,1 3,3 0 0 1 0.36,1.47 3.25,3.25 0 0 1 -0.19,1.09 5.12,5.12 0 0 1 -0.59,1.17 9.88,9.88 0 0 1 -1,1.23 l -2.45,2.72 -0.14,-0.14 z"
     id="path8"
     inkscape:connector-curvature="0"
     style="fill:#363026" />
  <path
     class="cls-2"
     d="m 62.39,18.9 a 4.2,4.2 0 0 1 -1.14,-0.17 2.91,2.91 0 0 1 -1,-0.53 0.8,0.8 0 0 1 -0.18,-0.25 0.65,0.65 0 0 1 -0.07,-0.29 0.49,0.49 0 0 1 0.15,-0.33 0.48,0.48 0 0 1 0.38,-0.16 0.72,0.72 0 0 1 0.42,0.18 2.89,2.89 0 0 0 0.69,0.38 2.22,2.22 0 0 0 0.76,0.14 2.78,2.78 0 0 0 1.31,-0.31 2.3,2.3 0 0 0 0.9,-0.85 2.27,2.27 0 0 0 0.33,-1.21 2.2,2.2 0 0 0 -0.28,-1.13 1.91,1.91 0 0 0 -0.8,-0.74 2.46,2.46 0 0 0 -1.17,-0.27 2.42,2.42 0 0 0 -0.88,0.15 3.52,3.52 0 0 0 -0.67,0.3 1.09,1.09 0 0 1 -0.47,0.15 0.7,0.7 0 0 1 -0.42,-0.12 0.55,0.55 0 0 1 -0.2,-0.3 0.76,0.76 0 0 1 0,-0.33 l 0.54,-3.72 a 0.62,0.62 0 0 1 0.2,-0.31 0.55,0.55 0 0 1 0.38,-0.13 h 4.16 a 0.54,0.54 0 0 1 0.38,0.15 0.52,0.52 0 0 1 0.15,0.38 0.51,0.51 0 0 1 -0.53,0.53 H 61.41 L 61.55,9.98 61,13.22 60.78,12.92 a 2.06,2.06 0 0 1 0.47,-0.28 4.07,4.07 0 0 1 0.72,-0.23 3.47,3.47 0 0 1 0.85,-0.1 3.26,3.26 0 0 1 1.63,0.41 3.09,3.09 0 0 1 1.14,1.13 3.15,3.15 0 0 1 0.41,1.64 3.37,3.37 0 0 1 -0.27,1.36 3.23,3.23 0 0 1 -0.73,1.09 3.69,3.69 0 0 1 -1.16,0.71 4.05,4.05 0 0 1 -1.45,0.25 z"
     id="path10"
     inkscape:connector-curvature="0"
     style="fill:#363026" />
  <path
     class="cls-2"
     d="M 70,18.85 A 0.58,0.58 0 0 1 69.57,18.68 0.57,0.57 0 0 1 69.4,18.27 v -8 l 0.17,0.19 -1.63,1 a 0.51,0.51 0 0 1 -0.28,0.07 0.5,0.5 0 0 1 -0.4,-0.19 0.57,0.57 0 0 1 -0.17,-0.38 0.56,0.56 0 0 1 0.29,-0.49 l 2.28,-1.36 a 0.81,0.81 0 0 1 0.42,-0.08 0.46,0.46 0 0 1 0.38,0.16 0.54,0.54 0 0 1 0.14,0.4 v 8.66 A 0.56,0.56 0 0 1 70.44,18.66 0.62,0.62 0 0 1 70,18.85 Z"
     id="path12"
     inkscape:connector-curvature="0"
     style="fill:#363026" />
  <path
     class="cls-2"
     d="m 75.66,8.88 a 3.18,3.18 0 0 1 1.41,0.3 2.88,2.88 0 0 1 1,0.82 3.7,3.7 0 0 1 0.62,1.16 4.25,4.25 0 0 1 0.21,1.33 6.78,6.78 0 0 1 -0.15,1.34 9.12,9.12 0 0 1 -0.47,1.49 7.85,7.85 0 0 1 -0.82,1.46 6.5,6.5 0 0 1 -1.2,1.22 5.28,5.28 0 0 1 -1.61,0.86 0.64,0.64 0 0 1 -0.62,-0.1 A 0.49,0.49 0 0 1 73.85,18.34 0.53,0.53 0 0 1 74,18 0.75,0.75 0 0 1 74.34,17.78 5.09,5.09 0 0 0 75.77,17 6.09,6.09 0 0 0 77,15.58 4.53,4.53 0 0 0 77.68,13.92 l 0.33,-0.11 a 2.7,2.7 0 0 1 -0.58,0.7 3.24,3.24 0 0 1 -0.85,0.54 2.65,2.65 0 0 1 -1.07,0.21 2.52,2.52 0 0 1 -1.18,-0.26 3,3 0 0 1 -0.94,-0.7 3.28,3.28 0 0 1 -0.63,-1 3.14,3.14 0 0 1 -0.23,-1.21 3.09,3.09 0 0 1 0.41,-1.59 3.25,3.25 0 0 1 1.12,-1.15 3,3 0 0 1 1.6,-0.47 z m 0,1 a 2,2 0 0 0 -1,0.27 1.86,1.86 0 0 0 -0.72,0.75 2.23,2.23 0 0 0 -0.27,1.11 2.38,2.38 0 0 0 0.24,1 1.75,1.75 0 0 0 0.68,0.79 1.85,1.85 0 0 0 1,0.3 2.11,2.11 0 0 0 1.14,-0.3 1.92,1.92 0 0 0 0.73,-0.79 2.33,2.33 0 0 0 0.3,-1.01 2.13,2.13 0 0 0 -0.25,-1 2,2 0 0 0 -0.72,-0.77 2.14,2.14 0 0 0 -1.11,-0.3 z"
     id="path14"
     inkscape:connector-curvature="0"
     style="fill:#363026" />
  <path
     class="cls-2"
     d="m 86,18.89 a 0.63,0.63 0 0 1 -0.41,-0.15 0.46,0.46 0 0 1 -0.18,-0.38 0.8,0.8 0 0 1 0,-0.26 l 3.63,-8.26 0.15,0.26 h -4.5 A 0.55,0.55 0 0 1 84.15,9.56 0.49,0.49 0 0 1 84.31,9.19 0.56,0.56 0 0 1 84.69,9.05 h 5 a 0.61,0.61 0 0 1 0.42,0.14 0.53,0.53 0 0 1 0.15,0.39 0.75,0.75 0 0 1 -0.05,0.26 l -3.8,8.7 A 0.43,0.43 0 0 1 86.21,18.8 0.59,0.59 0 0 1 86,18.89 Z"
     id="path16"
     inkscape:connector-curvature="0"
     style="fill:#363026" />
  <path
     class="cls-2"
     d="M 94.1,18.9 A 4.15,4.15 0 0 1 93,18.73 2.91,2.91 0 0 1 92,18.2 a 0.8,0.8 0 0 1 -0.18,-0.25 0.65,0.65 0 0 1 -0.07,-0.29 0.49,0.49 0 0 1 0.15,-0.33 0.48,0.48 0 0 1 0.38,-0.16 0.74,0.74 0 0 1 0.42,0.18 2.89,2.89 0 0 0 0.69,0.38 2.21,2.21 0 0 0 0.75,0.14 2.8,2.8 0 0 0 1.32,-0.31 2.37,2.37 0 0 0 0.9,-0.85 2.27,2.27 0 0 0 0.33,-1.21 2.2,2.2 0 0 0 -0.28,-1.13 2,2 0 0 0 -0.8,-0.74 2.46,2.46 0 0 0 -1.17,-0.27 2.42,2.42 0 0 0 -0.88,0.15 4,4 0 0 0 -0.68,0.3 1,1 0 0 1 -0.46,0.15 0.7,0.7 0 0 1 -0.42,-0.12 0.55,0.55 0 0 1 -0.2,-0.3 0.76,0.76 0 0 1 0,-0.33 l 0.54,-3.72 a 0.62,0.62 0 0 1 0.2,-0.31 0.55,0.55 0 0 1 0.38,-0.13 H 97 A 0.54,0.54 0 0 1 97.38,9.2 0.52,0.52 0 0 1 97.53,9.58 0.51,0.51 0 0 1 97,10.11 h -3.88 l 0.14,-0.13 -0.52,3.24 -0.22,-0.3 a 2.06,2.06 0 0 1 0.47,-0.28 4.07,4.07 0 0 1 0.72,-0.23 3.47,3.47 0 0 1 0.85,-0.1 3.26,3.26 0 0 1 1.63,0.41 3.09,3.09 0 0 1 1.14,1.13 3.15,3.15 0 0 1 0.42,1.64 3.37,3.37 0 0 1 -0.27,1.36 3.23,3.23 0 0 1 -0.77,1.09 3.69,3.69 0 0 1 -1.16,0.71 4.05,4.05 0 0 1 -1.45,0.25 z"
     id="path18"
     inkscape:connector-curvature="0"
     style="fill:#363026" />
  <path
     class="cls-2"
     d="m 104.53,18.85 a 0.54,0.54 0 0 1 -0.4,-0.17 0.56,0.56 0 0 1 -0.16,-0.41 v -7.65 l 0.22,0.08 -3.34,4.37 -0.06,-0.17 h 5.12 a 0.52,0.52 0 0 1 0.38,0.15 0.55,0.55 0 0 1 0.16,0.38 0.5,0.5 0 0 1 -0.16,0.36 0.51,0.51 0 0 1 -0.38,0.14 H 100 A 0.52,0.52 0 0 1 99.62,15.77 0.54,0.54 0 0 1 99.44,15.38 0.53,0.53 0 0 1 99.6,15 l 4.47,-5.74 a 0.51,0.51 0 0 1 0.22,-0.17 0.56,0.56 0 0 1 0.25,0 0.5,0.5 0 0 1 0.39,0.16 0.52,0.52 0 0 1 0.16,0.4 v 8.66 a 0.56,0.56 0 0 1 -0.16,0.41 0.54,0.54 0 0 1 -0.4,0.13 z"
     id="path20"
     inkscape:connector-curvature="0"
     style="fill:#363026" />
  <polygon
     class="cls-1"
     points="33.2,28.75 0,28.75 16.6,0 "
     id="polygon22"
     style="fill:#1f8ebe" />
</svg>
