<svg xmlns="http://www.w3.org/2000/svg" viewBox="0 0 84.71 78.7"><defs><style>.cls-1{fill:#efe5d3;}.cls-2{fill:#f79011;}.cls-3{fill:#f6413a;}</style></defs><g id="Layer_2" data-name="Layer 2"><g id="Capa_1" data-name="Capa 1"><path class="cls-1" d="M76.41,5.49l3.94,10.27,1.54,5.33L66.34,71.31,55.6,75.45,6.77,74.71l-4-12.5s42.76-3.59,44.2-3.6S60.45,45.16,60.45,45.16Z"/><path class="cls-2" d="M25.27,11C24.71,16.23,22.57,34,22.57,34l35.18,1.51,7.78-9.8s5.37-16.1,5.11-16.1Z"/><path class="cls-3" d="M83.37,17.77a6.78,6.78,0,0,0-3-2.17,8,8,0,0,1-.24,2.91L65.1,69a3.66,3.66,0,0,1-1.78,2.12,5.51,5.51,0,0,1-2.85.81l-47.09.28C9.3,72.19,6.84,71,6,68.64a2.34,2.34,0,0,1,0-2.19A2.27,2.27,0,0,1,8,65.67l44.34-.26c3.16,0,5.35-.62,6.55-1.8s2.4-3.8,3.6-7.85L76.17,9.45a7.27,7.27,0,0,0-1-6.63A6.76,6.76,0,0,0,69.38,0L30.56.23A14.19,14.19,0,0,0,28,.7L28,.55A10.61,10.61,0,0,0,25.58.28a3.47,3.47,0,0,0-1.83.6A6,6,0,0,0,22.4,2.09a9.21,9.21,0,0,0-1,1.64c-.32.66-.59,1.28-.81,1.84s-.47,1.16-.75,1.79A12.07,12.07,0,0,1,19,8.92c-.21.27-.49.63-.86,1.08s-.68.84-.92,1.18a3.09,3.09,0,0,0-.45.92,3.41,3.41,0,0,0,.11,1.35,4.27,4.27,0,0,1,.16,1.3,19.24,19.24,0,0,1-1.37,4.93A21.24,21.24,0,0,1,13.56,24c-.14.17-.51.55-1.12,1.15a4,4,0,0,0-1.11,1.56c-.14.17-.14.65,0,1.43a7.84,7.84,0,0,1,.14,1.63,21.1,21.1,0,0,1-1.25,4.6,30.66,30.66,0,0,1-2.12,4.71,7.92,7.92,0,0,1-.86,1.18,4.36,4.36,0,0,0-.86,1.43,4.72,4.72,0,0,0,0,1.43,3.94,3.94,0,0,1,0,1.53,27.32,27.32,0,0,1-1.5,4.68A35.41,35.41,0,0,1,2.61,54a12.77,12.77,0,0,1-.83,1.2,10.45,10.45,0,0,0-.84,1.21,3,3,0,0,0-.4,1.07,2.56,2.56,0,0,0,.16,1,2.89,2.89,0,0,1,.16,1.1c0,.48-.1,1.11-.2,1.89S.52,62.72.52,62.86a9.24,9.24,0,0,0,.14,6.48A14.37,14.37,0,0,0,5.78,76a12.47,12.47,0,0,0,7.59,2.68l47.09-.28a10.18,10.18,0,0,0,6.24-2.25,10.66,10.66,0,0,0,3.87-5.51L84.32,24.35A7.21,7.21,0,0,0,83.37,17.77Zm-54.29.43,1.05-3.27A2.35,2.35,0,0,1,31,13.77a2.13,2.13,0,0,1,1.3-.49l31-.18a1.09,1.09,0,0,1,1,.48,1.31,1.31,0,0,1,.11,1.14L63.37,18a2.29,2.29,0,0,1-.84,1.16,2.13,2.13,0,0,1-1.3.49l-31,.18a1.09,1.09,0,0,1-1-.48A1.31,1.31,0,0,1,29.08,18.2ZM24.92,31.28,26,28a2.25,2.25,0,0,1,.83-1.15,2.09,2.09,0,0,1,1.3-.49l31-.19a1.11,1.11,0,0,1,1,.48,1.33,1.33,0,0,1,.11,1.15l-1,3.27a2.21,2.21,0,0,1-.84,1.15,2.14,2.14,0,0,1-1.29.5l-31,.18a1.14,1.14,0,0,1-1-.48A1.36,1.36,0,0,1,24.92,31.28Z"/></g></g></svg>