<svg xmlns="http://www.w3.org/2000/svg" viewBox="0 0 472.26 225.69"><defs><style>.cls-1{fill:#2057eb;}.cls-2{fill:#fd9243;}.cls-3{fill:#f0583d;}.cls-4{fill:#f5c265;}.cls-5,.cls-6{fill:none;stroke:#ff6412;stroke-linecap:round;stroke-miterlimit:10;stroke-width:1.76px;}.cls-6{stroke-dasharray:8.1 8.1;}.cls-10,.cls-7{fill:#c7b1b5;}.cls-8{font-size:20px;}.cls-8,.cls-9{fill:#3a3a3a;}.cls-10,.cls-8,.cls-9{font-family:Quicksand-Medium, Quicksand;font-weight:500;}.cls-10,.cls-9{font-size:30px;}</style></defs><g id="Capa_2" data-name="Capa 2"><g id="Capa_1-2" data-name="Capa 1"><polygon class="cls-1" points="159.18 180.16 161.38 180.16 459.04 180.16 459.04 183.69 467.56 179.06 459.04 174.43 459.04 177.96 161.38 177.96 159.18 177.96 8.52 177.96 8.52 174.43 0 179.06 8.52 183.69 8.52 180.16 159.18 180.16"/><polygon class="cls-2" points="67.28 177.38 310.28 177.38 310.28 13.38 67.28 177.38"/><rect class="cls-3" x="268.28" y="135.38" width="42" height="42"/><circle class="cls-4" cx="68.25" cy="179.48" r="5.77"/><path class="cls-5" d="M348.36,202.88s.36-1.37.93-3.89"/><path class="cls-6" d="M350.94,191.07c6.78-35.47,19.82-141.34-54.55-186.26"/><path class="cls-5" d="M292.88,2.77c-1.15-.64-2.33-1.27-3.52-1.89"/><circle class="cls-7" cx="353.25" cy="179.48" r="5.77"/><text class="cls-8" transform="translate(195.03 207.36)">a</text><text class="cls-9" transform="translate(59.1 219.36)">0</text><text class="cls-9" transform="translate(451.98 219.36)">R</text><text class="cls-10" transform="translate(360.46 205.36)">A</text><text class="cls-8" transform="translate(323.03 112.36)">b</text></g></g></svg>