<svg xmlns="http://www.w3.org/2000/svg" viewBox="0 0 237.87 211.02"><defs><style>.cls-1{fill:#69380a;}.cls-2{fill:#c56c07;}.cls-3{fill:#f9f3e9;}.cls-4{fill:#1467d2;}.cls-5{fill:#1f8ebe;}.cls-6{fill:#363026;}</style></defs><g id="Layer_2" data-name="Layer 2"><g id="Layer_1-2" data-name="Layer 1"><g id="b7d586a5-d7b6-4292-9b03-9aa5b839c19d"><g id="b1c2472a-feab-4335-b95a-a507660cbf5a"><path class="cls-1" d="M177.66,189.49H9.12A9.12,9.12,0,0,0,0,198.61V211H236.89V198.61a9.12,9.12,0,0,0-9.12-9.12Z"/><path class="cls-1" d="M72,24.78h0a2.37,2.37,0,0,1,2.37,2.37h0V199.59H69.58V27.15A2.37,2.37,0,0,1,72,24.78Z"/><path class="cls-1" d="M119.36,24.78h0a2.37,2.37,0,0,1,2.37,2.37h0V199.59H117V27.15A2.37,2.37,0,0,1,119.36,24.78Z"/><path class="cls-1" d="M166.57,24.78h0a2.37,2.37,0,0,1,2.37,2.37V199.59H164.2V27.15a2.37,2.37,0,0,1,2.37-2.37Z"/><path class="cls-1" d="M213.78,24.78h0a2.37,2.37,0,0,1,2.37,2.37V199.59H211.4V27.15a2.37,2.37,0,0,1,2.37-2.37Z"/><path class="cls-2" d="M72.94,24.38h0a2.37,2.37,0,0,1,2.37,2.37h0V199.19H70.57V26.75a2.37,2.37,0,0,1,2.37-2.37Z"/><path class="cls-1" d="M24.53,24.78h0a2.37,2.37,0,0,1,2.37,2.37V199.59H22.15V27.15a2.37,2.37,0,0,1,2.37-2.37Z"/><path class="cls-2" d="M25.51,24.38h0a2.37,2.37,0,0,1,2.37,2.37h0V199.19H23.14V26.75a2.37,2.37,0,0,1,2.37-2.37Z"/><path class="cls-2" d="M120.34,24.38h0a2.37,2.37,0,0,1,2.37,2.37h0V199.19H118V26.75A2.37,2.37,0,0,1,120.34,24.38Z"/><path class="cls-2" d="M167.55,24.38h0a2.37,2.37,0,0,1,2.37,2.37V199.19h-4.74V26.75a2.37,2.37,0,0,1,2.37-2.37Z"/><path class="cls-2" d="M214.76,24.38h0a2.37,2.37,0,0,1,2.37,2.37V199.19h-4.74V26.75a2.37,2.37,0,0,1,2.37-2.37Z"/><path class="cls-2" d="M228.76,188.38H10.12A9.12,9.12,0,0,0,1,197.45v12.41H237.87V197.45A9.1,9.1,0,0,0,228.76,188.38Z"/><path class="cls-3" d="M69.19,194.43a.68.68,0,0,1,.55.23.79.79,0,0,1,.21.57v6a4.56,4.56,0,0,1-.56,2.26,4.11,4.11,0,0,1-1.51,1.56,4.68,4.68,0,0,1-4.45,0,4.19,4.19,0,0,1-1.54-1.56,4.56,4.56,0,0,1-.56-2.26v-6a.73.73,0,0,1,.24-.57.84.84,0,0,1,.62-.23.74.74,0,0,1,.54.23.69.69,0,0,1,.25.57v6a2.76,2.76,0,0,0,.37,1.46,2.71,2.71,0,0,0,2.31,1.36,2.8,2.8,0,0,0,1.39-.36,2.74,2.74,0,0,0,1-1,2.68,2.68,0,0,0,.38-1.46v-6a.8.8,0,0,1,.2-.57A.67.67,0,0,1,69.19,194.43Z"/><path class="cls-3" d="M73.34,194.43a.93.93,0,0,1,.4.09.63.63,0,0,1,.31.27l4,6.11h-.68l4.09-6.08a.78.78,0,0,1,1.21-.13.73.73,0,0,1,.24.57v9.47a.76.76,0,0,1-.22.57.74.74,0,0,1-.58.23.79.79,0,0,1-.84-.8v-8l.51.11-3.48,5.29a1.21,1.21,0,0,1-.3.25.67.67,0,0,1-.37.08.62.62,0,0,1-.35-.08,1.42,1.42,0,0,1-.3-.25l-3.35-5.21.38-.64v8.46a.81.81,0,0,1-.21.57.78.78,0,0,1-1.1,0h0a.81.81,0,0,1-.21-.57v-9.47a.76.76,0,0,1,.25-.57A.84.84,0,0,1,73.34,194.43Z"/><path class="cls-3" d="M123.71,195.07a.68.68,0,0,1,.4.54.88.88,0,0,1-.18.66.63.63,0,0,1-.45.27,1,1,0,0,1-.55-.11,5,5,0,0,0-1-.38,4.38,4.38,0,0,0-1.08-.14,4.3,4.3,0,0,0-1.62.29,3.62,3.62,0,0,0-2,2.13,5.21,5.21,0,0,0,0,3.4,3.57,3.57,0,0,0,.83,1.3,3.41,3.41,0,0,0,1.25.79,4.55,4.55,0,0,0,1.55.26,4.22,4.22,0,0,0,1-.13,4,4,0,0,0,1-.37,1,1,0,0,1,.56-.11.7.7,0,0,1,.45.28.75.75,0,0,1,.19.67.68.68,0,0,1-.4.51,4.18,4.18,0,0,1-.87.38,8.64,8.64,0,0,1-1,.26,5.55,5.55,0,0,1-1,.09,5.87,5.87,0,0,1-2.15-.38,5.56,5.56,0,0,1-1.8-1.1,5.25,5.25,0,0,1-1.14-1.8,6.26,6.26,0,0,1-.45-2.42,6,6,0,0,1,.42-2.25,5.37,5.37,0,0,1,1.18-1.79,5.62,5.62,0,0,1,1.8-1.16,5.72,5.72,0,0,1,2.24-.42,5.91,5.91,0,0,1,2.82.72Z"/><path class="cls-3" d="M166.93,194.44a4.46,4.46,0,0,1,2,.44,4.2,4.2,0,0,1,1.48,1.2,5.56,5.56,0,0,1,.89,1.77,7.59,7.59,0,0,1,.3,2.12,7,7,0,0,1-.54,2.79,4.49,4.49,0,0,1-1.58,2,4.26,4.26,0,0,1-2.59.74H163a.77.77,0,0,1-.57-.23.73.73,0,0,1-.24-.57v-9.45a.75.75,0,0,1,.24-.58.81.81,0,0,1,.57-.23Zm-.16,9.55a2.83,2.83,0,0,0,1.82-.56,3.08,3.08,0,0,0,1-1.46,6.21,6.21,0,0,0,.14-3.52,3.78,3.78,0,0,0-.57-1.28,2.85,2.85,0,0,0-1-.89,3.13,3.13,0,0,0-1.44-.32h-3l.14-.14v8.32l-.09-.15Z"/><path class="cls-3" d="M217.53,194.43a.68.68,0,0,1,.55.23.79.79,0,0,1,.21.57v6a4.45,4.45,0,0,1-.55,2.26,4.14,4.14,0,0,1-1.52,1.56,4.68,4.68,0,0,1-4.45,0,4.09,4.09,0,0,1-1.53-1.56,4.46,4.46,0,0,1-.56-2.26v-6a.81.81,0,0,1,.23-.57.84.84,0,0,1,.62-.23.76.76,0,0,1,.55.23.73.73,0,0,1,.24.57v6a2.76,2.76,0,0,0,.37,1.46,2.67,2.67,0,0,0,1,1,2.53,2.53,0,0,0,1.31.36,2.81,2.81,0,0,0,2.41-1.34,2.69,2.69,0,0,0,.39-1.46v-6a.8.8,0,0,1,.2-.57A.64.64,0,0,1,217.53,194.43Z"/><path class="cls-3" d="M20.28,194.44a4.46,4.46,0,0,1,2,.44,4.08,4.08,0,0,1,1.47,1.2,5.39,5.39,0,0,1,.9,1.77A7.59,7.59,0,0,1,25,200a7,7,0,0,1-.54,2.79,4.56,4.56,0,0,1-1.58,2,4.33,4.33,0,0,1-2.59.74H16.42a.79.79,0,0,1-.8-.78v-9.47a.79.79,0,0,1,.8-.81ZM20.12,204a2.83,2.83,0,0,0,1.82-.56,3.22,3.22,0,0,0,1-1.46,5.9,5.9,0,0,0,.32-2,6.51,6.51,0,0,0-.18-1.52,3.78,3.78,0,0,0-.57-1.28,2.85,2.85,0,0,0-1-.89,3.06,3.06,0,0,0-1.43-.32h-3l.15-.14v8.32l-.1-.15Z"/><path class="cls-3" d="M27.75,194.43a.93.93,0,0,1,.4.09.63.63,0,0,1,.31.27l4,6.11h-.68l4.09-6.08a.78.78,0,0,1,1.21-.13.73.73,0,0,1,.24.57v9.47a.76.76,0,0,1-.22.57.74.74,0,0,1-.58.23.79.79,0,0,1-.84-.8v-8l.51.11-3.48,5.29a1.12,1.12,0,0,1-.28.25.67.67,0,0,1-.37.08.62.62,0,0,1-.35-.08,1.42,1.42,0,0,1-.3-.25l-3.34-5.21.37-.64v8.46a.81.81,0,0,1-.21.57.78.78,0,0,1-1.1,0h0a.81.81,0,0,1-.21-.57v-9.47a.76.76,0,0,1,.25-.57A.78.78,0,0,1,27.75,194.43Z"/></g></g><g id="b15e38e4-df09-4b0d-a168-614e4bbd91a3"><g id="a1460a2f-8f0f-43a3-91b6-25b00ba97723"><ellipse class="cls-4" cx="23.82" cy="182.83" rx="13.36" ry="5.82"/><ellipse class="cls-5" cx="25.74" cy="182.63" rx="13.36" ry="5.82"/></g></g><g id="b15e38e4-df09-4b0d-a168-614e4bbd91a3-2" data-name="b15e38e4-df09-4b0d-a168-614e4bbd91a3"><g id="a1460a2f-8f0f-43a3-91b6-25b00ba97723-2" data-name="a1460a2f-8f0f-43a3-91b6-25b00ba97723"><ellipse class="cls-4" cx="23.82" cy="170.99" rx="13.36" ry="5.82"/><ellipse class="cls-5" cx="25.74" cy="170.79" rx="13.36" ry="5.82"/></g></g><g id="b15e38e4-df09-4b0d-a168-614e4bbd91a3-3" data-name="b15e38e4-df09-4b0d-a168-614e4bbd91a3"><g id="a1460a2f-8f0f-43a3-91b6-25b00ba97723-3" data-name="a1460a2f-8f0f-43a3-91b6-25b00ba97723"><ellipse class="cls-4" cx="23.82" cy="159.15" rx="13.36" ry="5.82"/><ellipse class="cls-5" cx="25.74" cy="158.95" rx="13.36" ry="5.82"/></g></g><g id="b15e38e4-df09-4b0d-a168-614e4bbd91a3-4" data-name="b15e38e4-df09-4b0d-a168-614e4bbd91a3"><g id="a1460a2f-8f0f-43a3-91b6-25b00ba97723-4" data-name="a1460a2f-8f0f-43a3-91b6-25b00ba97723"><ellipse class="cls-4" cx="23.82" cy="147.31" rx="13.36" ry="5.82"/><ellipse class="cls-5" cx="25.74" cy="147.11" rx="13.36" ry="5.82"/></g></g><g id="b15e38e4-df09-4b0d-a168-614e4bbd91a3-5" data-name="b15e38e4-df09-4b0d-a168-614e4bbd91a3"><g id="a1460a2f-8f0f-43a3-91b6-25b00ba97723-5" data-name="a1460a2f-8f0f-43a3-91b6-25b00ba97723"><ellipse class="cls-4" cx="118.72" cy="182.83" rx="13.36" ry="5.82"/><ellipse class="cls-5" cx="120.64" cy="182.63" rx="13.36" ry="5.82"/></g></g><g id="b15e38e4-df09-4b0d-a168-614e4bbd91a3-6" data-name="b15e38e4-df09-4b0d-a168-614e4bbd91a3"><g id="a1460a2f-8f0f-43a3-91b6-25b00ba97723-6" data-name="a1460a2f-8f0f-43a3-91b6-25b00ba97723"><ellipse class="cls-4" cx="118.72" cy="170.99" rx="13.36" ry="5.82"/><ellipse class="cls-5" cx="120.64" cy="170.79" rx="13.36" ry="5.82"/></g></g><g id="b15e38e4-df09-4b0d-a168-614e4bbd91a3-7" data-name="b15e38e4-df09-4b0d-a168-614e4bbd91a3"><g id="a1460a2f-8f0f-43a3-91b6-25b00ba97723-7" data-name="a1460a2f-8f0f-43a3-91b6-25b00ba97723"><ellipse class="cls-4" cx="118.72" cy="159.15" rx="13.36" ry="5.82"/><ellipse class="cls-5" cx="120.64" cy="158.95" rx="13.36" ry="5.82"/></g></g><g id="b15e38e4-df09-4b0d-a168-614e4bbd91a3-8" data-name="b15e38e4-df09-4b0d-a168-614e4bbd91a3"><g id="a1460a2f-8f0f-43a3-91b6-25b00ba97723-8" data-name="a1460a2f-8f0f-43a3-91b6-25b00ba97723"><ellipse class="cls-4" cx="118.72" cy="147.31" rx="13.36" ry="5.82"/><ellipse class="cls-5" cx="120.64" cy="147.11" rx="13.36" ry="5.82"/></g></g><g id="b15e38e4-df09-4b0d-a168-614e4bbd91a3-9" data-name="b15e38e4-df09-4b0d-a168-614e4bbd91a3"><g id="a1460a2f-8f0f-43a3-91b6-25b00ba97723-9" data-name="a1460a2f-8f0f-43a3-91b6-25b00ba97723"><ellipse class="cls-4" cx="118.72" cy="135.37" rx="13.36" ry="5.82"/><ellipse class="cls-5" cx="120.64" cy="135.17" rx="13.36" ry="5.82"/></g></g><g id="b15e38e4-df09-4b0d-a168-614e4bbd91a3-10" data-name="b15e38e4-df09-4b0d-a168-614e4bbd91a3"><g id="a1460a2f-8f0f-43a3-91b6-25b00ba97723-10" data-name="a1460a2f-8f0f-43a3-91b6-25b00ba97723"><ellipse class="cls-4" cx="71.98" cy="182.83" rx="13.36" ry="5.82"/><ellipse class="cls-5" cx="73.9" cy="182.63" rx="13.36" ry="5.82"/></g></g><g id="b15e38e4-df09-4b0d-a168-614e4bbd91a3-11" data-name="b15e38e4-df09-4b0d-a168-614e4bbd91a3"><g id="a1460a2f-8f0f-43a3-91b6-25b00ba97723-11" data-name="a1460a2f-8f0f-43a3-91b6-25b00ba97723"><ellipse class="cls-4" cx="71.98" cy="170.99" rx="13.36" ry="5.82"/><ellipse class="cls-5" cx="73.9" cy="170.79" rx="13.36" ry="5.82"/></g></g><g id="b15e38e4-df09-4b0d-a168-614e4bbd91a3-12" data-name="b15e38e4-df09-4b0d-a168-614e4bbd91a3"><g id="a1460a2f-8f0f-43a3-91b6-25b00ba97723-12" data-name="a1460a2f-8f0f-43a3-91b6-25b00ba97723"><ellipse class="cls-4" cx="71.98" cy="159.15" rx="13.36" ry="5.82"/><ellipse class="cls-5" cx="73.9" cy="158.95" rx="13.36" ry="5.82"/></g></g><g id="b15e38e4-df09-4b0d-a168-614e4bbd91a3-13" data-name="b15e38e4-df09-4b0d-a168-614e4bbd91a3"><g id="a1460a2f-8f0f-43a3-91b6-25b00ba97723-13" data-name="a1460a2f-8f0f-43a3-91b6-25b00ba97723"><ellipse class="cls-4" cx="71.98" cy="147.31" rx="13.36" ry="5.82"/><ellipse class="cls-5" cx="73.9" cy="147.11" rx="13.36" ry="5.82"/></g></g><g id="b15e38e4-df09-4b0d-a168-614e4bbd91a3-14" data-name="b15e38e4-df09-4b0d-a168-614e4bbd91a3"><g id="a1460a2f-8f0f-43a3-91b6-25b00ba97723-14" data-name="a1460a2f-8f0f-43a3-91b6-25b00ba97723"><ellipse class="cls-4" cx="71.98" cy="135.47" rx="13.36" ry="5.82"/><ellipse class="cls-5" cx="73.9" cy="135.27" rx="13.36" ry="5.82"/></g></g><g id="b15e38e4-df09-4b0d-a168-614e4bbd91a3-15" data-name="b15e38e4-df09-4b0d-a168-614e4bbd91a3"><g id="a1460a2f-8f0f-43a3-91b6-25b00ba97723-15" data-name="a1460a2f-8f0f-43a3-91b6-25b00ba97723"><ellipse class="cls-4" cx="71.98" cy="123.63" rx="13.36" ry="5.82"/><ellipse class="cls-5" cx="73.9" cy="123.43" rx="13.36" ry="5.82"/></g></g><g id="b15e38e4-df09-4b0d-a168-614e4bbd91a3-16" data-name="b15e38e4-df09-4b0d-a168-614e4bbd91a3"><g id="a1460a2f-8f0f-43a3-91b6-25b00ba97723-16" data-name="a1460a2f-8f0f-43a3-91b6-25b00ba97723"><ellipse class="cls-4" cx="165.96" cy="182.83" rx="13.36" ry="5.82"/><ellipse class="cls-5" cx="167.88" cy="182.63" rx="13.36" ry="5.82"/></g></g><g id="b15e38e4-df09-4b0d-a168-614e4bbd91a3-17" data-name="b15e38e4-df09-4b0d-a168-614e4bbd91a3"><g id="a1460a2f-8f0f-43a3-91b6-25b00ba97723-17" data-name="a1460a2f-8f0f-43a3-91b6-25b00ba97723"><ellipse class="cls-4" cx="165.96" cy="170.99" rx="13.36" ry="5.82"/><ellipse class="cls-5" cx="167.88" cy="170.79" rx="13.36" ry="5.82"/></g></g><g id="b15e38e4-df09-4b0d-a168-614e4bbd91a3-18" data-name="b15e38e4-df09-4b0d-a168-614e4bbd91a3"><g id="a1460a2f-8f0f-43a3-91b6-25b00ba97723-18" data-name="a1460a2f-8f0f-43a3-91b6-25b00ba97723"><ellipse class="cls-4" cx="165.96" cy="159.15" rx="13.36" ry="5.82"/><ellipse class="cls-5" cx="167.88" cy="158.95" rx="13.36" ry="5.82"/></g></g><g id="b15e38e4-df09-4b0d-a168-614e4bbd91a3-19" data-name="b15e38e4-df09-4b0d-a168-614e4bbd91a3"><g id="a1460a2f-8f0f-43a3-91b6-25b00ba97723-19" data-name="a1460a2f-8f0f-43a3-91b6-25b00ba97723"><ellipse class="cls-4" cx="213.02" cy="182.83" rx="13.36" ry="5.82"/><ellipse class="cls-5" cx="214.94" cy="182.63" rx="13.36" ry="5.82"/></g></g><g id="b15e38e4-df09-4b0d-a168-614e4bbd91a3-20" data-name="b15e38e4-df09-4b0d-a168-614e4bbd91a3"><g id="a1460a2f-8f0f-43a3-91b6-25b00ba97723-20" data-name="a1460a2f-8f0f-43a3-91b6-25b00ba97723"><ellipse class="cls-4" cx="213.02" cy="170.99" rx="13.36" ry="5.82"/><ellipse class="cls-5" cx="214.94" cy="170.79" rx="13.36" ry="5.82"/></g></g><g id="b15e38e4-df09-4b0d-a168-614e4bbd91a3-21" data-name="b15e38e4-df09-4b0d-a168-614e4bbd91a3"><g id="a1460a2f-8f0f-43a3-91b6-25b00ba97723-21" data-name="a1460a2f-8f0f-43a3-91b6-25b00ba97723"><ellipse class="cls-4" cx="213.02" cy="159.15" rx="13.36" ry="5.82"/><ellipse class="cls-5" cx="214.94" cy="158.95" rx="13.36" ry="5.82"/></g></g><g id="b15e38e4-df09-4b0d-a168-614e4bbd91a3-22" data-name="b15e38e4-df09-4b0d-a168-614e4bbd91a3"><g id="a1460a2f-8f0f-43a3-91b6-25b00ba97723-22" data-name="a1460a2f-8f0f-43a3-91b6-25b00ba97723"><ellipse class="cls-4" cx="213.02" cy="147.31" rx="13.36" ry="5.82"/><ellipse class="cls-5" cx="214.94" cy="147.11" rx="13.36" ry="5.82"/></g></g><g id="b15e38e4-df09-4b0d-a168-614e4bbd91a3-23" data-name="b15e38e4-df09-4b0d-a168-614e4bbd91a3"><g id="a1460a2f-8f0f-43a3-91b6-25b00ba97723-23" data-name="a1460a2f-8f0f-43a3-91b6-25b00ba97723"><ellipse class="cls-4" cx="213.02" cy="135.47" rx="13.36" ry="5.82"/><ellipse class="cls-5" cx="214.94" cy="135.27" rx="13.36" ry="5.82"/></g></g><g id="b15e38e4-df09-4b0d-a168-614e4bbd91a3-24" data-name="b15e38e4-df09-4b0d-a168-614e4bbd91a3"><g id="a1460a2f-8f0f-43a3-91b6-25b00ba97723-24" data-name="a1460a2f-8f0f-43a3-91b6-25b00ba97723"><ellipse class="cls-4" cx="213.02" cy="123.63" rx="13.36" ry="5.82"/><ellipse class="cls-5" cx="214.94" cy="123.43" rx="13.36" ry="5.82"/></g></g><g id="b15e38e4-df09-4b0d-a168-614e4bbd91a3-25" data-name="b15e38e4-df09-4b0d-a168-614e4bbd91a3"><g id="a1460a2f-8f0f-43a3-91b6-25b00ba97723-25" data-name="a1460a2f-8f0f-43a3-91b6-25b00ba97723"><ellipse class="cls-4" cx="213.02" cy="111.79" rx="13.36" ry="5.82"/><ellipse class="cls-5" cx="214.94" cy="111.59" rx="13.36" ry="5.82"/></g></g><g id="b15e38e4-df09-4b0d-a168-614e4bbd91a3-26" data-name="b15e38e4-df09-4b0d-a168-614e4bbd91a3"><g id="a1460a2f-8f0f-43a3-91b6-25b00ba97723-26" data-name="a1460a2f-8f0f-43a3-91b6-25b00ba97723"><ellipse class="cls-4" cx="213.02" cy="99.95" rx="13.36" ry="5.82"/><ellipse class="cls-5" cx="214.94" cy="99.75" rx="13.36" ry="5.82"/></g></g><g id="b15e38e4-df09-4b0d-a168-614e4bbd91a3-27" data-name="b15e38e4-df09-4b0d-a168-614e4bbd91a3"><g id="a1460a2f-8f0f-43a3-91b6-25b00ba97723-27" data-name="a1460a2f-8f0f-43a3-91b6-25b00ba97723"><ellipse class="cls-4" cx="213.02" cy="88.11" rx="13.36" ry="5.82"/><ellipse class="cls-5" cx="214.94" cy="87.91" rx="13.36" ry="5.82"/></g></g><path class="cls-6" d="M113.75,18.1a1.2,1.2,0,0,1-.84-.31,1,1,0,0,1-.35-.75V1a1,1,0,0,1,.3-.73,1,1,0,0,1,.73-.3h7.14a5.17,5.17,0,0,1,2.61.66,4.87,4.87,0,0,1,1.85,1.81,5.06,5.06,0,0,1,.69,2.65,5,5,0,0,1-.42,2,4.92,4.92,0,0,1-1.13,1.63,5.08,5.08,0,0,1-1.66,1.05l-.57-.42a4.25,4.25,0,0,1,1.58.74,4,4,0,0,1,1.6,3.25c0,.63.08,1.14.13,1.52a2.75,2.75,0,0,0,.24.89,1.1,1.1,0,0,0,.44.51,1,1,0,0,1,.47.62.82.82,0,0,1-.14.75A.81.81,0,0,1,126,18a1.4,1.4,0,0,1-.57.07,1.09,1.09,0,0,1-.49-.16,2.9,2.9,0,0,1-.8-.68,3.55,3.55,0,0,1-.65-1.31,8.4,8.4,0,0,1-.26-2.33,3.23,3.23,0,0,0-.25-1.37,2.41,2.41,0,0,0-1.69-1.34,4.56,4.56,0,0,0-1.11-.13H114.4l.31-.47V17a1.12,1.12,0,0,1-.26.75A.87.87,0,0,1,113.75,18.1Zm.65-9.2h6.33a2.8,2.8,0,0,0,1.41-.52,3.56,3.56,0,0,0,1.09-1.31,4.18,4.18,0,0,0,.42-1.9,3.13,3.13,0,0,0-.86-2.27A2.89,2.89,0,0,0,120.6,2h-6.1l.21-.49V9.36Z"/></g></g></svg>