<svg xmlns="http://www.w3.org/2000/svg" viewBox="0 0 480.53 216.82"><defs><style>.cls-1{fill:#faf3a3;}.cls-2{fill:#40d6cb;}.cls-3{fill:#dfd9d0;}.cls-4{fill:#1f8ebe;}.cls-5{fill:#f9f3e9;}.cls-6{fill:#363026;}</style></defs><g id="Layer_2" data-name="Layer 2"><g id="Layer_1-2" data-name="Layer 1"><rect class="cls-1" x="96.19" y="16.84" width="95.56" height="199.09"/><rect class="cls-2" x="288.21" y="16.84" width="95.56" height="199.09"/><g id="a187db6a-9593-44ac-ba19-327ecd10a8b2"><g id="f2b5eb57-7ab0-40f7-a9ad-33e7793c79de"><polygon class="cls-3" points="480.53 93.44 95.28 93.44 95.28 8.69 97.08 8.69 97.08 91.64 478.73 91.64 478.73 4.15 480.53 4.15 480.53 93.44"/><rect class="cls-4" x="95.58" y="0.01" width="96.16" height="30.84"/><path class="cls-5" d="M140.36,8.55a.66.66,0,0,1,.51.21.72.72,0,0,1,.19.53v7.15a4.81,4.81,0,0,1-2.36,4.23,4.59,4.59,0,0,1-2.45.64,4.69,4.69,0,0,1-2.48-.64,4.63,4.63,0,0,1-1.72-1.74,4.83,4.83,0,0,1-.63-2.49V9.29a.73.73,0,0,1,.2-.53.77.77,0,0,1,.56-.21.73.73,0,0,1,.73.74v7.15a3.44,3.44,0,0,0,.46,1.77,3.27,3.27,0,0,0,2.88,1.66,3.4,3.4,0,0,0,1.7-.44,3.51,3.51,0,0,0,1.25-1.2,3.34,3.34,0,0,0,.48-1.77V9.29a.75.75,0,0,1,.18-.53A.57.57,0,0,1,140.36,8.55Z"/><path class="cls-5" d="M145,8.55a.73.73,0,0,1,.35.09.76.76,0,0,1,.3.23l4.78,7.21h-.63l4.8-7.21a.67.67,0,0,1,.6-.32.8.8,0,0,1,.51.21.75.75,0,0,1,.22.53V20.43a.75.75,0,0,1-.22.53.8.8,0,0,1-1.08,0,.75.75,0,0,1-.22-.53V10.66l.45.09-4.25,6.47a1.13,1.13,0,0,1-.27.22.8.8,0,0,1-.31.09,1,1,0,0,1-.33-.09,1.13,1.13,0,0,1-.27-.22l-4.2-6.47.38-.47V20.43a.78.78,0,0,1-.2.53.66.66,0,0,1-.51.21.64.64,0,0,1-.5-.21.82.82,0,0,1-.12-.53V9.29a.78.78,0,0,1,.21-.52A.69.69,0,0,1,145,8.55Z"/><rect class="cls-4" x="191.74" y="0.01" width="96.16" height="30.84"/><path class="cls-5" d="M244.68,9.39a.6.6,0,0,1,.35.49.72.72,0,0,1-.17.6.51.51,0,0,1-.41.25,1,1,0,0,1-.51-.1,5.06,5.06,0,0,0-1.28-.57,5.19,5.19,0,0,0-3.39.16,4.47,4.47,0,0,0-1.53,1,4.54,4.54,0,0,0-1,1.58,5.49,5.49,0,0,0-.36,2,5.54,5.54,0,0,0,.38,2.13,4.55,4.55,0,0,0,1,1.62,4.23,4.23,0,0,0,1.53,1,5.11,5.11,0,0,0,1.9.34,4.87,4.87,0,0,0,1.42-.2,5.12,5.12,0,0,0,1.3-.6.9.9,0,0,1,.51-.09.73.73,0,0,1,.43.25.82.82,0,0,1,.16.61.59.59,0,0,1-.34.45,6.53,6.53,0,0,1-1,.5,7.17,7.17,0,0,1-1.2.35,6.74,6.74,0,0,1-1.26.13,6.82,6.82,0,0,1-2.45-.45,6.1,6.1,0,0,1-3.43-3.35,6.72,6.72,0,0,1-.52-2.69,6.69,6.69,0,0,1,.49-2.58,6.13,6.13,0,0,1,1.36-2,6.31,6.31,0,0,1,2-1.35,6.38,6.38,0,0,1,2.51-.49,6.8,6.8,0,0,1,1.8.25A6.35,6.35,0,0,1,244.68,9.39Z"/><rect class="cls-4" x="287.9" y="0.01" width="96.16" height="30.84"/><path class="cls-5" d="M336.33,8.56a5.25,5.25,0,0,1,2.31.5,4.66,4.66,0,0,1,1.67,1.38,6,6,0,0,1,1,2,8.51,8.51,0,0,1,.34,2.41,8.33,8.33,0,0,1-.6,3.16,5.27,5.27,0,0,1-1.77,2.29,4.89,4.89,0,0,1-3,.86h-4.51a.7.7,0,0,1-.51-.22.73.73,0,0,1-.21-.52V9.29a.72.72,0,0,1,.21-.52.74.74,0,0,1,.51-.21Zm-.18,11.22a3.6,3.6,0,0,0,2.26-.67,3.86,3.86,0,0,0,1.28-1.8,7.33,7.33,0,0,0,.41-2.45,7.85,7.85,0,0,0-.23-1.87,5,5,0,0,0-.7-1.57A3.49,3.49,0,0,0,338,10.34a3.76,3.76,0,0,0-1.8-.4h-3.7l.15-.14V20l-.11-.18Z"/><path class="cls-4" d="M480.25,30.85H384.09V0h92.55a3.61,3.61,0,0,1,3.61,3.61V30.85Z"/><path class="cls-5" d="M436.28,8.55a.64.64,0,0,1,.5.21.78.78,0,0,1,.2.53v7.15a4.81,4.81,0,0,1-2.36,4.23,4.61,4.61,0,0,1-2.45.64,4.75,4.75,0,0,1-2.49-.64A4.61,4.61,0,0,1,428,18.93a4.83,4.83,0,0,1-.65-2.49V9.29a.74.74,0,0,1,.21-.53.73.73,0,0,1,.55-.21.69.69,0,0,1,.51.21.72.72,0,0,1,.23.53v7.15a3.43,3.43,0,0,0,.45,1.77,3.27,3.27,0,0,0,2.88,1.66,3.37,3.37,0,0,0,1.7-.44,3.51,3.51,0,0,0,1.25-1.2,3.34,3.34,0,0,0,.48-1.77V9.29a.79.79,0,0,1,.18-.53A.6.6,0,0,1,436.28,8.55Z"/><rect class="cls-3" x="190.84" y="0.01" width="1.8" height="215.91"/><rect class="cls-3" x="287" y="0.01" width="1.8" height="215.91"/><rect class="cls-3" x="383.17" y="0.01" width="1.8" height="215.91"/><polygon class="cls-3" points="480.53 155.13 95.28 155.13 95.28 92.54 97.08 92.54 97.08 153.32 478.73 153.32 478.73 92.54 480.53 92.54 480.53 155.13"/><path class="cls-3" d="M473.51,216.82H95.28V154.23h1.8V215H473.51a5.22,5.22,0,0,0,5.22-5.21V154.23h1.8V209.8a7,7,0,0,1-7,7Z"/><polygon class="cls-3" points="96.19 93.44 0 93.44 0 4.75 1.8 4.75 1.8 91.64 96.19 91.64 96.19 93.44"/><path class="cls-4" d="M3.61,0H97.12V30.84H0V3.61A3.6,3.6,0,0,1,3.61,0Z"/><polygon class="cls-3" points="96.19 155.13 0 155.13 0 66.44 1.8 66.44 1.8 153.33 96.19 153.33 96.19 155.13"/><path class="cls-3" d="M96.16,216.82h-90A6.13,6.13,0,0,1,0,210.7V128.12H1.8V210.7A4.33,4.33,0,0,0,6.12,215h90Z"/><rect class="cls-3" x="95.29" width="1.8" height="154.22"/><path class="cls-5" d="M41,8.55A4.91,4.91,0,0,1,43.27,9a4.63,4.63,0,0,1,1.67,1.37,6.41,6.41,0,0,1,1,2,8.48,8.48,0,0,1,.33,2.4A8.2,8.2,0,0,1,45.68,18a5.3,5.3,0,0,1-1.77,2.28,4.86,4.86,0,0,1-2.95.86H36.48a.72.72,0,0,1-.72-.74V9.27a.71.71,0,0,1,.2-.52.68.68,0,0,1,.52-.2ZM40.8,19.74a3.59,3.59,0,0,0,2.26-.66,3.89,3.89,0,0,0,1.28-1.81,7.22,7.22,0,0,0,.4-2.44A7.84,7.84,0,0,0,44.52,13a4.69,4.69,0,0,0-.71-1.54,3.37,3.37,0,0,0-1.2-1.08,3.76,3.76,0,0,0-1.8-.4h-3.7l.14-.14V19.92l-.11-.18Z"/><path class="cls-5" d="M49.42,8.53a.77.77,0,0,1,.36.09.8.8,0,0,1,.29.23l4.77,7.22h-.6l4.81-7.22a.67.67,0,0,1,.6-.32.86.86,0,0,1,.51.21.7.7,0,0,1,.21.53V20.43a.72.72,0,0,1-.76.74.7.7,0,0,1-.53-.21.67.67,0,0,1-.22-.53v-9.8l.45.09-4.26,6.46a.92.92,0,0,1-.26.22.56.56,0,0,1-.31.09.62.62,0,0,1-.32-.09,1,1,0,0,1-.27-.22l-4.21-6.46.38-.47V20.43a.78.78,0,0,1-.2.53.64.64,0,0,1-.5.21.62.62,0,0,1-.5-.21.83.83,0,0,1-.18-.53V9.27a.76.76,0,0,1,.21-.52A.67.67,0,0,1,49.42,8.53Z"/></g></g><path class="cls-6" d="M33.46,75.37a2.23,2.23,0,0,1,.75.14,2.67,2.67,0,0,1,.91.58,8.9,8.9,0,0,0,2.59,1.6,9.16,9.16,0,0,0,3.43.61,9,9,0,0,0,4.37-1.08,8.63,8.63,0,0,0,3.23-3.07A8.44,8.44,0,0,0,50,69.56,7.94,7.94,0,0,0,48.74,65a7.52,7.52,0,0,0-3.15-2.65,9.7,9.7,0,0,0-4-.86,9.13,9.13,0,0,0-1.43.11c-.45.08-.86.17-1.25.28a3.86,3.86,0,0,1-1.07.16,1.72,1.72,0,0,1-1.39-.6,2.31,2.31,0,0,1-.49-1.5,2.45,2.45,0,0,1,.16-.91,3,3,0,0,1,.56-.85L47.5,46.19l.88,1.05H32.69a2.07,2.07,0,0,1-2.1-2.1,2,2,0,0,1,.6-1.47,2.13,2.13,0,0,1,1.5-.58h18a2.14,2.14,0,0,1,1.77.69A2.37,2.37,0,0,1,53,45.3a1.92,1.92,0,0,1-.22.92,3.34,3.34,0,0,1-.61.8L41.42,59,40.15,57.9a3.49,3.49,0,0,1,1.27-.41,8.77,8.77,0,0,1,1.66-.19,11.17,11.17,0,0,1,5.69,1.49A11,11,0,0,1,52.91,63a12.47,12.47,0,0,1,1.55,6.3,12.88,12.88,0,0,1-1.82,6.91,12.34,12.34,0,0,1-5,4.53,15.6,15.6,0,0,1-7.15,1.6,14,14,0,0,1-4.34-.69,10.59,10.59,0,0,1-3.68-2,2,2,0,0,1-1.21-1.88,2.52,2.52,0,0,1,.63-1.6A2,2,0,0,1,33.46,75.37Z"/><path class="cls-6" d="M33.46,137a2.51,2.51,0,0,1,.75.14,2.67,2.67,0,0,1,.91.58,8.7,8.7,0,0,0,2.59,1.6,9.62,9.62,0,0,0,7.8-.47,8.63,8.63,0,0,0,3.23-3.07A8.43,8.43,0,0,0,50,131.21a8,8,0,0,0-1.24-4.62,7.52,7.52,0,0,0-3.15-2.65,9.7,9.7,0,0,0-4-.86,9.13,9.13,0,0,0-1.43.11c-.45.08-.86.17-1.25.28a3.86,3.86,0,0,1-1.07.16,1.72,1.72,0,0,1-1.39-.6,2.29,2.29,0,0,1-.49-1.49,2.47,2.47,0,0,1,.16-.92,3,3,0,0,1,.56-.85L47.5,107.83l.88,1H32.69a2.07,2.07,0,0,1-2.1-2.1,2,2,0,0,1,.6-1.47,2.13,2.13,0,0,1,1.5-.58h18a2.17,2.17,0,0,1,1.77.69,2.39,2.39,0,0,1,.55,1.52,1.9,1.9,0,0,1-.22.92,3.34,3.34,0,0,1-.61.8l-10.77,12-1.27-1.1a3.26,3.26,0,0,1,1.27-.42,8.77,8.77,0,0,1,1.66-.19,11.11,11.11,0,0,1,9.83,5.69,12.52,12.52,0,0,1,1.55,6.3,12.86,12.86,0,0,1-1.82,6.91,12.34,12.34,0,0,1-5,4.53,15.6,15.6,0,0,1-7.15,1.6,14,14,0,0,1-4.34-.69,10.59,10.59,0,0,1-3.68-2,2,2,0,0,1-1.21-1.87,2.53,2.53,0,0,1,.63-1.61A2,2,0,0,1,33.46,137Z"/><path class="cls-6" d="M33.46,201.45a2.51,2.51,0,0,1,.75.14,2.84,2.84,0,0,1,.91.58,8.5,8.5,0,0,0,2.59,1.6,9.62,9.62,0,0,0,7.8-.47,8.61,8.61,0,0,0,3.23-3.06A8.48,8.48,0,0,0,50,195.65,7.89,7.89,0,0,0,48.74,191a7.55,7.55,0,0,0-3.15-2.66,9.69,9.69,0,0,0-4-.85,8.06,8.06,0,0,0-1.43.11,10.53,10.53,0,0,0-1.25.27,3.89,3.89,0,0,1-1.07.17,1.7,1.7,0,0,1-1.39-.61A2.27,2.27,0,0,1,36,186a2.42,2.42,0,0,1,.16-.91,3.06,3.06,0,0,1,.56-.86L47.5,172.27l.88,1H32.69a2.05,2.05,0,0,1-2.1-2.1,1.93,1.93,0,0,1,.6-1.46,2.09,2.09,0,0,1,1.5-.58h18a2.14,2.14,0,0,1,1.77.69,2.37,2.37,0,0,1,.55,1.52,1.88,1.88,0,0,1-.22.91,3.15,3.15,0,0,1-.61.8l-10.77,12L40.15,184a3.26,3.26,0,0,1,1.27-.42,9.68,9.68,0,0,1,1.66-.19,11.27,11.27,0,0,1,5.69,1.49,11.13,11.13,0,0,1,4.14,4.2,12.52,12.52,0,0,1,1.55,6.3,12.83,12.83,0,0,1-1.82,6.91,12.2,12.2,0,0,1-5,4.53,15.61,15.61,0,0,1-7.15,1.61,14,14,0,0,1-4.34-.69,10.76,10.76,0,0,1-3.68-2,2.05,2.05,0,0,1-1.21-1.88,2.5,2.5,0,0,1,.63-1.6A2,2,0,0,1,33.46,201.45Z"/><path class="cls-6" d="M152.79,77.63a2.08,2.08,0,0,1,2.1,2.1,2,2,0,0,1-.61,1.47,2.07,2.07,0,0,1-1.49.58H132.73a2.29,2.29,0,0,1-1.63-.58,2,2,0,0,1-.64-1.58,2.31,2.31,0,0,1,.66-1.6l12.49-13.65A29.19,29.19,0,0,0,147.76,59a9.81,9.81,0,0,0,1.44-4.89,7.67,7.67,0,0,0-1-3.92,6.63,6.63,0,0,0-2.68-2.57,8.45,8.45,0,0,0-4-.92,8.27,8.27,0,0,0-4.22,1.17,7.86,7.86,0,0,0-3.18,3.59,2.39,2.39,0,0,1-.86.85,2,2,0,0,1-1,.25,2.34,2.34,0,0,1-1.49-.58,1.68,1.68,0,0,1-.72-1.35,2.08,2.08,0,0,1,.36-1.16,12.76,12.76,0,0,1,.86-1.16A11.62,11.62,0,0,1,135.88,44a12.7,12.7,0,0,1,5.91-1.49A13.46,13.46,0,0,1,148.23,44a9.92,9.92,0,0,1,4.09,4,12,12,0,0,1,1.41,5.83A13.15,13.15,0,0,1,153,58.1a19.93,19.93,0,0,1-2.29,4.5,38.16,38.16,0,0,1-3.93,4.87l-9.67,10.72-.55-.56Z"/><path class="cls-6" d="M147.65,123.91l-.11-.77A12.12,12.12,0,0,1,151,125.4a11.39,11.39,0,0,1,2.46,3.29,8.94,8.94,0,0,1,.91,4,9.89,9.89,0,0,1-1.63,5.5,11.79,11.79,0,0,1-4.42,4,12.91,12.91,0,0,1-6.22,1.5,12.77,12.77,0,0,1-6.19-1.5,11.78,11.78,0,0,1-4.39-4,9.89,9.89,0,0,1-1.63-5.5,9,9,0,0,1,1-4.37,11,11,0,0,1,2.6-3.2,13.64,13.64,0,0,1,3.29-2.1l-.28.88a9.63,9.63,0,0,1-4.86-4.67,8.47,8.47,0,0,1-.83-3.84,10.14,10.14,0,0,1,1.49-5.42,10.65,10.65,0,0,1,4.09-3.84,11.73,11.73,0,0,1,5.69-1.41,11.51,11.51,0,0,1,5.69,1.41,11,11,0,0,1,4.07,3.84,10.07,10.07,0,0,1,1.52,5.42,8.37,8.37,0,0,1-.89,3.95,9.57,9.57,0,0,1-2.18,2.82A10.39,10.39,0,0,1,147.65,123.91Zm-5.53,15.64a8,8,0,0,0,5.61-2,6.69,6.69,0,0,0,1.13-8.54,7.3,7.3,0,0,0-2.82-2.48,8.7,8.7,0,0,0-7.79,0,7.3,7.3,0,0,0-2.82,2.48,6.68,6.68,0,0,0,1.14,8.54A7.89,7.89,0,0,0,142.12,139.55Zm-6.8-24.09a6.55,6.55,0,0,0,.92,3.48,6.45,6.45,0,0,0,2.48,2.35,7,7,0,0,0,3.4.85,6.81,6.81,0,0,0,3.4-.85,6.92,6.92,0,0,0,2.46-2.35,6.39,6.39,0,0,0,.94-3.48,6.32,6.32,0,0,0-1.91-4.73,7.39,7.39,0,0,0-9.78,0A6.32,6.32,0,0,0,135.32,115.46Z"/><path class="cls-6" d="M152.79,203.72a2,2,0,0,1,1.49.61,2,2,0,0,1,.61,1.49,1.94,1.94,0,0,1-.61,1.46,2.07,2.07,0,0,1-1.49.58H132.73a2.29,2.29,0,0,1-1.63-.58,2,2,0,0,1-.64-1.57,2.31,2.31,0,0,1,.66-1.6l12.49-13.65a29.52,29.52,0,0,0,4.15-5.39,9.84,9.84,0,0,0,1.44-4.89,7.74,7.74,0,0,0-1-3.93,6.76,6.76,0,0,0-2.68-2.57,8.45,8.45,0,0,0-4-.91,8.36,8.36,0,0,0-4.22,1.16,7.86,7.86,0,0,0-3.18,3.59,2.43,2.43,0,0,1-.86.86,2,2,0,0,1-1,.25,2.4,2.4,0,0,1-1.49-.58,1.71,1.71,0,0,1-.72-1.36,2.11,2.11,0,0,1,.36-1.16c.24-.36.53-.75.86-1.16a11.52,11.52,0,0,1,4.59-4.25,12.58,12.58,0,0,1,5.91-1.49,13.46,13.46,0,0,1,6.44,1.43,9.94,9.94,0,0,1,4.09,4,11.92,11.92,0,0,1,1.41,5.83,13.09,13.09,0,0,1-.75,4.28,19.79,19.79,0,0,1-2.29,4.51,38.12,38.12,0,0,1-3.93,4.86l-9.67,10.72-.55-.55Z"/><path class="cls-6" d="M246.32,81.78a2.09,2.09,0,0,1-1.57-.66,2.23,2.23,0,0,1-.64-1.61V49.28l.89.33L231.79,66.86l-.22-.67h20.22a2.07,2.07,0,0,1,2.1,2.1,1.87,1.87,0,0,1-.6,1.41,2.09,2.09,0,0,1-1.5.58H228.53a2.14,2.14,0,0,1-1.52-.66,2.08,2.08,0,0,1-.69-1.55,2,2,0,0,1,.55-1.43L244.5,44a2,2,0,0,1,.88-.69,2.74,2.74,0,0,1,1-.2,2.05,2.05,0,0,1,1.55.64,2.2,2.2,0,0,1,.6,1.57V79.51a2.27,2.27,0,0,1-.63,1.61A2.11,2.11,0,0,1,246.32,81.78Z"/><path class="cls-6" d="M246.32,143.42a2.09,2.09,0,0,1-1.57-.66,2.23,2.23,0,0,1-.64-1.61V110.92l.89.34L231.79,128.5l-.22-.66h20.22a2.05,2.05,0,0,1,2.1,2.1,1.86,1.86,0,0,1-.6,1.4,2.09,2.09,0,0,1-1.5.58H228.53a2.14,2.14,0,0,1-1.52-.66,2.08,2.08,0,0,1-.69-1.55,2,2,0,0,1,.55-1.43l17.63-22.66a2.11,2.11,0,0,1,.88-.69,2.74,2.74,0,0,1,1-.2,2.09,2.09,0,0,1,1.55.64,2.2,2.2,0,0,1,.6,1.57v34.21a2.27,2.27,0,0,1-.63,1.61A2.11,2.11,0,0,1,246.32,143.42Z"/><path class="cls-6" d="M246.32,207.86a2.09,2.09,0,0,1-1.57-.66,2.21,2.21,0,0,1-.64-1.6V175.37l.89.33-13.21,17.24-.22-.66h20.22a2.07,2.07,0,0,1,2.1,2.1,1.9,1.9,0,0,1-.6,1.41,2.13,2.13,0,0,1-1.5.58H228.53a2.14,2.14,0,0,1-1.52-.66,2.1,2.1,0,0,1-.69-1.55,2.08,2.08,0,0,1,.55-1.44l17.63-22.66a2.11,2.11,0,0,1,.88-.69,2.73,2.73,0,0,1,1-.19,2.08,2.08,0,0,1,1.55.63,2.22,2.22,0,0,1,.6,1.58V205.6a2.24,2.24,0,0,1-.63,1.6A2.11,2.11,0,0,1,246.32,207.86Z"/><path class="cls-6" d="M338.55,82.33A12.38,12.38,0,0,1,333,81.14a11.53,11.53,0,0,1-4-3.23,14.65,14.65,0,0,1-2.43-4.59,16.86,16.86,0,0,1-.83-5.25,26,26,0,0,1,.61-5.3,34.24,34.24,0,0,1,1.85-6,29.78,29.78,0,0,1,3.23-5.89,25.24,25.24,0,0,1,4.76-5.05,20.42,20.42,0,0,1,6.35-3.46,4.4,4.4,0,0,1,.89-.11,2.76,2.76,0,0,1,1.57.47,1.91,1.91,0,0,1,.69,1.69,2,2,0,0,1-.5,1.35,2.85,2.85,0,0,1-1.32.86,17.64,17.64,0,0,0-4.34,2.4,22.83,22.83,0,0,0-3.92,3.71,25.78,25.78,0,0,0-3.1,4.58,17.85,17.85,0,0,0-1.79,5.12l-1.33.44a13.77,13.77,0,0,1,2.37-2.82,12,12,0,0,1,3.35-2.16,10.38,10.38,0,0,1,4.17-.83,9.87,9.87,0,0,1,4.53,1.06,12.52,12.52,0,0,1,3.71,2.81A13.55,13.55,0,0,1,350,65a12.74,12.74,0,0,1,.91,4.78A12.23,12.23,0,0,1,349.3,76a12.87,12.87,0,0,1-4.42,4.59A11.71,11.71,0,0,1,338.55,82.33Zm-.05-4.14a7.68,7.68,0,0,0,6.91-4.07,8.81,8.81,0,0,0,1-4.33,9.58,9.58,0,0,0-.94-4.2,8,8,0,0,0-2.68-3.13,7.26,7.26,0,0,0-4.18-1.19,8.27,8.27,0,0,0-4.47,1.17,7.78,7.78,0,0,0-2.9,3.12,9.15,9.15,0,0,0-1,4.34,8.56,8.56,0,0,0,1,4.09,8,8,0,0,0,2.84,3A8.16,8.16,0,0,0,338.5,78.19Z"/><path class="cls-6" d="M338.55,144a12.25,12.25,0,0,1-5.55-1.19,11.42,11.42,0,0,1-4-3.23,14.71,14.71,0,0,1-2.43-4.58,17,17,0,0,1-.83-5.26,26,26,0,0,1,.61-5.3,34.5,34.5,0,0,1,1.85-6,29.71,29.71,0,0,1,3.23-5.88,25,25,0,0,1,4.76-5.06,20.4,20.4,0,0,1,6.35-3.45,3.78,3.78,0,0,1,.89-.11,2.69,2.69,0,0,1,1.57.47,1.88,1.88,0,0,1,.69,1.68,2,2,0,0,1-.5,1.35,2.85,2.85,0,0,1-1.32.86,18,18,0,0,0-4.34,2.4,23.22,23.22,0,0,0-3.92,3.71,25.86,25.86,0,0,0-3.1,4.59,17.68,17.68,0,0,0-1.79,5.11l-1.33.44a14,14,0,0,1,2.37-2.82,12,12,0,0,1,3.35-2.15,10.22,10.22,0,0,1,4.17-.83,10,10,0,0,1,4.53,1,12.55,12.55,0,0,1,3.71,2.82,13.38,13.38,0,0,1,2.51,4.06,12.77,12.77,0,0,1,.91,4.78,12.23,12.23,0,0,1-1.63,6.21,12.87,12.87,0,0,1-4.42,4.59A11.71,11.71,0,0,1,338.55,144Zm-.05-4.14a7.7,7.7,0,0,0,6.91-4.06,8.85,8.85,0,0,0,1-4.34,9.58,9.58,0,0,0-.94-4.2,8,8,0,0,0-2.68-3.13,7.26,7.26,0,0,0-4.18-1.18,8.27,8.27,0,0,0-4.47,1.16,7.78,7.78,0,0,0-2.9,3.12,9.15,9.15,0,0,0-1,4.34,8.54,8.54,0,0,0,1,4.09,8,8,0,0,0,2.84,3A8.16,8.16,0,0,0,338.5,139.83Z"/><path class="cls-6" d="M343,188.36l-.11-.78a12.13,12.13,0,0,1,3.49,2.27,11,11,0,0,1,2.45,3.29,8.9,8.9,0,0,1,.92,4,10,10,0,0,1-1.63,5.5,11.82,11.82,0,0,1-4.42,4,13.08,13.08,0,0,1-6.22,1.49,12.85,12.85,0,0,1-6.19-1.49,11.91,11.91,0,0,1-4.4-4,10,10,0,0,1-1.63-5.5,8.87,8.87,0,0,1,1-4.36,11,11,0,0,1,2.59-3.21,14.49,14.49,0,0,1,3.29-2.1l-.27.89a9.82,9.82,0,0,1-2.74-1.8,9.47,9.47,0,0,1-2.13-2.87,8.68,8.68,0,0,1-.83-3.85,10.09,10.09,0,0,1,1.5-5.41,10.63,10.63,0,0,1,4.08-3.84,11.77,11.77,0,0,1,5.7-1.41,11.51,11.51,0,0,1,5.69,1.41,11,11,0,0,1,4.06,3.84,10,10,0,0,1,1.52,5.41,8.41,8.41,0,0,1-.88,4,9.52,9.52,0,0,1-2.19,2.81A10.53,10.53,0,0,1,343,188.36ZM337.45,204a8.05,8.05,0,0,0,5.61-2,6.69,6.69,0,0,0,1.13-8.54,7.41,7.41,0,0,0-2.82-2.49,8.41,8.41,0,0,0-3.92-.91,8.3,8.3,0,0,0-3.87.91,7.41,7.41,0,0,0-2.82,2.49,6.69,6.69,0,0,0,1.13,8.54A8,8,0,0,0,337.45,204Zm-6.8-24.1a6.37,6.37,0,0,0,3.4,5.83,7,7,0,0,0,3.4.86,6.79,6.79,0,0,0,5.86-3.21,6.42,6.42,0,0,0,.94-3.48,6.32,6.32,0,0,0-1.91-4.73,7.39,7.39,0,0,0-9.78,0A6.32,6.32,0,0,0,330.65,179.9Z"/><path class="cls-6" d="M438.42,62.27l-.11-.77a11.91,11.91,0,0,1,3.48,2.26,11,11,0,0,1,2.46,3.29,8.94,8.94,0,0,1,.92,4,10,10,0,0,1-1.63,5.5,11.82,11.82,0,0,1-4.43,4,12.9,12.9,0,0,1-6.21,1.49,12.73,12.73,0,0,1-6.19-1.49,11.81,11.81,0,0,1-4.4-4,10,10,0,0,1-1.63-5.5,8.91,8.91,0,0,1,1-4.37,11,11,0,0,1,2.59-3.2,13.83,13.83,0,0,1,3.29-2.1l-.27.88a9.81,9.81,0,0,1-4.87-4.67,8.6,8.6,0,0,1-.83-3.84,10.12,10.12,0,0,1,1.5-5.42,10.63,10.63,0,0,1,4.08-3.84,11.77,11.77,0,0,1,5.7-1.41,11.54,11.54,0,0,1,5.69,1.41,11,11,0,0,1,4.06,3.84,10,10,0,0,1,1.52,5.42,8.37,8.37,0,0,1-.88,4,9.56,9.56,0,0,1-2.19,2.82A10.76,10.76,0,0,1,438.42,62.27ZM432.9,77.91a8,8,0,0,0,5.61-2,6.69,6.69,0,0,0,1.13-8.54,7.41,7.41,0,0,0-2.82-2.49A8.54,8.54,0,0,0,432.9,64a8.42,8.42,0,0,0-3.87.91,7.41,7.41,0,0,0-2.82,2.49,6.69,6.69,0,0,0,1.13,8.54A7.93,7.93,0,0,0,432.9,77.91Zm-6.8-24.1a6.34,6.34,0,0,0,3.4,5.83,6.9,6.9,0,0,0,3.4.86,6.77,6.77,0,0,0,5.85-3.2,6.4,6.4,0,0,0,.94-3.49,6.29,6.29,0,0,0-1.9-4.72,7.39,7.39,0,0,0-9.78,0A6.26,6.26,0,0,0,426.1,53.81Z"/><path class="cls-6" d="M438.42,123.91l-.11-.77a12.12,12.12,0,0,1,3.48,2.26,11,11,0,0,1,2.46,3.29,8.94,8.94,0,0,1,.92,4,10,10,0,0,1-1.63,5.5,11.82,11.82,0,0,1-4.43,4,12.9,12.9,0,0,1-6.21,1.5,12.74,12.74,0,0,1-6.19-1.5,11.81,11.81,0,0,1-4.4-4,10,10,0,0,1-1.63-5.5,8.93,8.93,0,0,1,1-4.37,11,11,0,0,1,2.59-3.2,13.83,13.83,0,0,1,3.29-2.1l-.27.88a9.7,9.7,0,0,1-4.87-4.67,8.6,8.6,0,0,1-.83-3.84,10.14,10.14,0,0,1,1.5-5.42,10.63,10.63,0,0,1,4.08-3.84,11.77,11.77,0,0,1,5.7-1.41,11.54,11.54,0,0,1,5.69,1.41,11,11,0,0,1,4.06,3.84,10.07,10.07,0,0,1,1.52,5.42,8.37,8.37,0,0,1-.88,3.95,9.43,9.43,0,0,1-2.19,2.82A10.22,10.22,0,0,1,438.42,123.91Zm-5.52,15.64a8,8,0,0,0,5.61-2,6.69,6.69,0,0,0,1.13-8.54,7.3,7.3,0,0,0-2.82-2.48,8.42,8.42,0,0,0-3.92-.92,8.31,8.31,0,0,0-3.87.92,7.3,7.3,0,0,0-2.82,2.48,6.69,6.69,0,0,0,1.13,8.54A7.93,7.93,0,0,0,432.9,139.55Zm-6.8-24.09a6.37,6.37,0,0,0,3.4,5.83,7,7,0,0,0,3.4.85,6.71,6.71,0,0,0,5.85-3.2,6.39,6.39,0,0,0,.94-3.48,6.31,6.31,0,0,0-1.9-4.73,7.39,7.39,0,0,0-9.78,0A6.28,6.28,0,0,0,426.1,115.46Z"/><path class="cls-6" d="M434,208.42a12.38,12.38,0,0,1-5.55-1.19,11.44,11.44,0,0,1-4-3.23,14.87,14.87,0,0,1-2.43-4.59,17,17,0,0,1-.83-5.25,26.06,26.06,0,0,1,.61-5.31,34.14,34.14,0,0,1,1.85-6,29.51,29.51,0,0,1,3.23-5.89,25.29,25.29,0,0,1,4.76-5.06,20.4,20.4,0,0,1,6.35-3.45,4.4,4.4,0,0,1,.89-.11,2.76,2.76,0,0,1,1.57.47,1.88,1.88,0,0,1,.69,1.68,2,2,0,0,1-.5,1.36,2.93,2.93,0,0,1-1.32.86,17.64,17.64,0,0,0-4.34,2.4,23.19,23.19,0,0,0-3.93,3.7,26.35,26.35,0,0,0-3.09,4.59,18.12,18.12,0,0,0-1.8,5.11l-1.32.44a14.32,14.32,0,0,1,2.37-2.82,12,12,0,0,1,3.35-2.15,10.38,10.38,0,0,1,4.17-.83,10,10,0,0,1,4.53,1.05A12.55,12.55,0,0,1,443,187a13.5,13.5,0,0,1,2.51,4.06,12.77,12.77,0,0,1,.91,4.78,12.27,12.27,0,0,1-1.63,6.22,12.87,12.87,0,0,1-4.42,4.59A11.71,11.71,0,0,1,434,208.42Zm-.05-4.15a7.7,7.7,0,0,0,6.91-4.06,9,9,0,0,0,1.05-4.34,9.58,9.58,0,0,0-.94-4.2,7.88,7.88,0,0,0-2.68-3.12,7.29,7.29,0,0,0-4.18-1.19,8.36,8.36,0,0,0-4.47,1.16,8,8,0,0,0-2.91,3.12,9.29,9.29,0,0,0-1,4.34,8.51,8.51,0,0,0,1,4.09,7.89,7.89,0,0,0,2.84,3A8.16,8.16,0,0,0,434,204.27Z"/></g></g></svg>