<svg xmlns="http://www.w3.org/2000/svg" viewBox="0 0 480.53 216.82"><defs><style>.cls-1{fill:#faf3a3;}.cls-2{fill:#40d6cb;}.cls-3{fill:#dfd9d0;}.cls-4{fill:#1f8ebe;}.cls-5{fill:#f9f3e9;}.cls-6{fill:#363026;}</style></defs><g id="Layer_2" data-name="Layer 2"><g id="Layer_1-2" data-name="Layer 1"><rect class="cls-1" x="96.19" y="16.84" width="95.56" height="199.09"/><rect class="cls-2" x="288.21" y="16.84" width="95.56" height="199.09"/><g id="a187db6a-9593-44ac-ba19-327ecd10a8b2"><g id="f2b5eb57-7ab0-40f7-a9ad-33e7793c79de"><polygon class="cls-3" points="480.53 93.44 95.28 93.44 95.28 8.69 97.08 8.69 97.08 91.64 478.73 91.64 478.73 4.15 480.53 4.15 480.53 93.44"/><rect class="cls-4" x="95.58" y="0.01" width="96.16" height="30.84"/><path class="cls-5" d="M140.36,8.55a.66.66,0,0,1,.51.21.72.72,0,0,1,.19.53v7.15a4.81,4.81,0,0,1-2.36,4.23,4.59,4.59,0,0,1-2.45.64,4.69,4.69,0,0,1-2.48-.64,4.63,4.63,0,0,1-1.72-1.74,4.83,4.83,0,0,1-.63-2.49V9.29a.73.73,0,0,1,.2-.53.77.77,0,0,1,.56-.21.73.73,0,0,1,.73.74v7.15a3.44,3.44,0,0,0,.46,1.77,3.27,3.27,0,0,0,2.88,1.66,3.4,3.4,0,0,0,1.7-.44,3.51,3.51,0,0,0,1.25-1.2,3.34,3.34,0,0,0,.48-1.77V9.29a.75.75,0,0,1,.18-.53A.57.57,0,0,1,140.36,8.55Z"/><path class="cls-5" d="M145,8.55a.73.73,0,0,1,.35.09.76.76,0,0,1,.3.23l4.78,7.21h-.63l4.8-7.21a.67.67,0,0,1,.6-.32.8.8,0,0,1,.51.21.75.75,0,0,1,.22.53V20.43a.75.75,0,0,1-.22.53.8.8,0,0,1-1.08,0,.75.75,0,0,1-.22-.53V10.66l.45.09-4.25,6.47a1.13,1.13,0,0,1-.27.22.8.8,0,0,1-.31.09,1,1,0,0,1-.33-.09,1.13,1.13,0,0,1-.27-.22l-4.2-6.47.38-.47V20.43a.78.78,0,0,1-.2.53.66.66,0,0,1-.51.21.64.64,0,0,1-.5-.21.82.82,0,0,1-.12-.53V9.29a.78.78,0,0,1,.21-.52A.69.69,0,0,1,145,8.55Z"/><rect class="cls-4" x="191.74" y="0.01" width="96.16" height="30.84"/><path class="cls-5" d="M244.68,9.39a.6.6,0,0,1,.35.49.72.72,0,0,1-.17.6.51.51,0,0,1-.41.25,1,1,0,0,1-.51-.1,5.06,5.06,0,0,0-1.28-.57,5.19,5.19,0,0,0-3.39.16,4.47,4.47,0,0,0-1.53,1,4.54,4.54,0,0,0-1,1.58,5.49,5.49,0,0,0-.36,2,5.54,5.54,0,0,0,.38,2.13,4.55,4.55,0,0,0,1,1.62,4.23,4.23,0,0,0,1.53,1,5.11,5.11,0,0,0,1.9.34,4.87,4.87,0,0,0,1.42-.2,5.12,5.12,0,0,0,1.3-.6.9.9,0,0,1,.51-.09.73.73,0,0,1,.43.25.82.82,0,0,1,.16.61.59.59,0,0,1-.34.45,6.53,6.53,0,0,1-1,.5,7.17,7.17,0,0,1-1.2.35,6.74,6.74,0,0,1-1.26.13,6.82,6.82,0,0,1-2.45-.45,6.1,6.1,0,0,1-3.43-3.35,6.72,6.72,0,0,1-.52-2.69,6.69,6.69,0,0,1,.49-2.58,6.13,6.13,0,0,1,1.36-2,6.31,6.31,0,0,1,2-1.35,6.38,6.38,0,0,1,2.51-.49,6.8,6.8,0,0,1,1.8.25A6.35,6.35,0,0,1,244.68,9.39Z"/><rect class="cls-4" x="287.9" y="0.01" width="96.16" height="30.84"/><path class="cls-5" d="M336.33,8.56a5.25,5.25,0,0,1,2.31.5,4.66,4.66,0,0,1,1.67,1.38,6,6,0,0,1,1,2,8.51,8.51,0,0,1,.34,2.41,8.33,8.33,0,0,1-.6,3.16,5.27,5.27,0,0,1-1.77,2.29,4.89,4.89,0,0,1-3,.86h-4.51a.7.7,0,0,1-.51-.22.73.73,0,0,1-.21-.52V9.29a.72.72,0,0,1,.21-.52.74.74,0,0,1,.51-.21Zm-.18,11.22a3.6,3.6,0,0,0,2.26-.67,3.86,3.86,0,0,0,1.28-1.8,7.33,7.33,0,0,0,.41-2.45,7.85,7.85,0,0,0-.23-1.87,5,5,0,0,0-.7-1.57A3.49,3.49,0,0,0,338,10.34a3.76,3.76,0,0,0-1.8-.4h-3.7l.15-.14V20l-.11-.18Z"/><path class="cls-4" d="M480.25,30.85H384.09V0h92.55a3.61,3.61,0,0,1,3.61,3.61V30.85Z"/><path class="cls-5" d="M436.28,8.55a.64.64,0,0,1,.5.21.78.78,0,0,1,.2.53v7.15a4.81,4.81,0,0,1-2.36,4.23,4.61,4.61,0,0,1-2.45.64,4.75,4.75,0,0,1-2.49-.64A4.61,4.61,0,0,1,428,18.93a4.83,4.83,0,0,1-.65-2.49V9.29a.74.74,0,0,1,.21-.53.73.73,0,0,1,.55-.21.69.69,0,0,1,.51.21.72.72,0,0,1,.23.53v7.15a3.43,3.43,0,0,0,.45,1.77,3.27,3.27,0,0,0,2.88,1.66,3.37,3.37,0,0,0,1.7-.44,3.51,3.51,0,0,0,1.25-1.2,3.34,3.34,0,0,0,.48-1.77V9.29a.79.79,0,0,1,.18-.53A.6.6,0,0,1,436.28,8.55Z"/><rect class="cls-3" x="190.84" y="0.01" width="1.8" height="215.91"/><rect class="cls-3" x="287" y="0.01" width="1.8" height="215.91"/><rect class="cls-3" x="383.17" y="0.01" width="1.8" height="215.91"/><polygon class="cls-3" points="480.53 155.13 95.28 155.13 95.28 92.54 97.08 92.54 97.08 153.32 478.73 153.32 478.73 92.54 480.53 92.54 480.53 155.13"/><path class="cls-3" d="M473.51,216.82H95.28V154.23h1.8V215H473.51a5.22,5.22,0,0,0,5.22-5.21V154.23h1.8V209.8a7,7,0,0,1-7,7Z"/><polygon class="cls-3" points="96.19 93.44 0 93.44 0 4.75 1.8 4.75 1.8 91.64 96.19 91.64 96.19 93.44"/><path class="cls-4" d="M3.61,0H97.12V30.84H0V3.61A3.6,3.6,0,0,1,3.61,0Z"/><polygon class="cls-3" points="96.19 155.13 0 155.13 0 66.44 1.8 66.44 1.8 153.33 96.19 153.33 96.19 155.13"/><path class="cls-3" d="M96.16,216.82h-90A6.13,6.13,0,0,1,0,210.7V128.12H1.8V210.7A4.33,4.33,0,0,0,6.12,215h90Z"/><rect class="cls-3" x="95.29" width="1.8" height="154.22"/><path class="cls-5" d="M41,8.55A4.91,4.91,0,0,1,43.27,9a4.63,4.63,0,0,1,1.67,1.37,6.41,6.41,0,0,1,1,2,8.48,8.48,0,0,1,.33,2.4A8.2,8.2,0,0,1,45.68,18a5.3,5.3,0,0,1-1.77,2.28,4.86,4.86,0,0,1-2.95.86H36.48a.72.72,0,0,1-.72-.74V9.27a.71.71,0,0,1,.2-.52.68.68,0,0,1,.52-.2ZM40.8,19.74a3.59,3.59,0,0,0,2.26-.66,3.89,3.89,0,0,0,1.28-1.81,7.22,7.22,0,0,0,.4-2.44A7.84,7.84,0,0,0,44.52,13a4.69,4.69,0,0,0-.71-1.54,3.37,3.37,0,0,0-1.2-1.08,3.76,3.76,0,0,0-1.8-.4h-3.7l.14-.14V19.92l-.11-.18Z"/><path class="cls-5" d="M49.42,8.53a.77.77,0,0,1,.36.09.8.8,0,0,1,.29.23l4.77,7.22h-.6l4.81-7.22a.67.67,0,0,1,.6-.32.86.86,0,0,1,.51.21.7.7,0,0,1,.21.53V20.43a.72.72,0,0,1-.76.74.7.7,0,0,1-.53-.21.67.67,0,0,1-.22-.53v-9.8l.45.09-4.26,6.46a.92.92,0,0,1-.26.22.56.56,0,0,1-.31.09.62.62,0,0,1-.32-.09,1,1,0,0,1-.27-.22l-4.21-6.46.38-.47V20.43a.78.78,0,0,1-.2.53.64.64,0,0,1-.5.21.62.62,0,0,1-.5-.21.83.83,0,0,1-.18-.53V9.27a.76.76,0,0,1,.21-.52A.67.67,0,0,1,49.42,8.53Z"/></g></g><path class="cls-6" d="M41,82a15.58,15.58,0,0,1-4.5-.69,11.66,11.66,0,0,1-4-2.07,2.89,2.89,0,0,1-.72-1,2.83,2.83,0,0,1-.27-1.16,2.07,2.07,0,0,1,2.09-1.93,2.86,2.86,0,0,1,1.66.72A10.48,10.48,0,0,0,38,77.36a8.53,8.53,0,0,0,3,.55,10.7,10.7,0,0,0,5.19-1.22,9.19,9.19,0,0,0,3.57-3.34A9,9,0,0,0,51,68.57a8.51,8.51,0,0,0-1.13-4.45,7.69,7.69,0,0,0-3.15-3,9.94,9.94,0,0,0-4.61-1,10.1,10.1,0,0,0-3.49.58A21.91,21.91,0,0,0,36,61.88a4,4,0,0,1-1.82.61A2.66,2.66,0,0,1,32.52,62a2.16,2.16,0,0,1-.8-1.19,2.88,2.88,0,0,1-.08-1.32l2.15-14.65a2.31,2.31,0,0,1,.77-1.24,2.24,2.24,0,0,1,1.5-.53H52.47A2,2,0,0,1,54,43.7a2.1,2.1,0,0,1-1.49,3.59H37.16l.55-.49-2,12.76-.88-1.16a6.7,6.7,0,0,1,1.85-1.1,15.59,15.59,0,0,1,2.87-.94A14.32,14.32,0,0,1,42.85,56a12.66,12.66,0,0,1,6.44,1.63,12.19,12.19,0,0,1,4.51,4.45,12.55,12.55,0,0,1,1.66,6.46,13.24,13.24,0,0,1-1.08,5.39,12.86,12.86,0,0,1-3,4.29A14.14,14.14,0,0,1,46.75,81,16.1,16.1,0,0,1,41,82Z"/><path class="cls-6" d="M41,143.64a15.58,15.58,0,0,1-4.5-.69,11.66,11.66,0,0,1-4-2.07,2.89,2.89,0,0,1-.72-1,2.83,2.83,0,0,1-.27-1.16,2.07,2.07,0,0,1,2.09-1.93,2.86,2.86,0,0,1,1.66.72A10.48,10.48,0,0,0,38,139a8.53,8.53,0,0,0,3,.55,10.81,10.81,0,0,0,5.19-1.21A9.22,9.22,0,0,0,49.74,135,9,9,0,0,0,51,130.21a8.51,8.51,0,0,0-1.13-4.45,7.67,7.67,0,0,0-3.15-3,10.71,10.71,0,0,0-8.1-.47A20.52,20.52,0,0,0,36,123.52a4,4,0,0,1-1.82.61,2.6,2.6,0,0,1-1.66-.47,2.16,2.16,0,0,1-.8-1.19,2.87,2.87,0,0,1-.08-1.32l2.15-14.65a2.31,2.31,0,0,1,.77-1.24,2.24,2.24,0,0,1,1.5-.53H52.47a2.1,2.1,0,1,1,0,4.2H37.16l.55-.49-2,12.76L34.79,120a7.23,7.23,0,0,1,1.85-1.1,16.38,16.38,0,0,1,2.87-.94,14.32,14.32,0,0,1,3.34-.39,12.76,12.76,0,0,1,6.44,1.63,12.19,12.19,0,0,1,4.51,4.45,12.56,12.56,0,0,1,1.66,6.47,13.27,13.27,0,0,1-1.08,5.39,12.92,12.92,0,0,1-3,4.28,14.14,14.14,0,0,1-4.59,2.82A16.1,16.1,0,0,1,41,143.64Z"/><path class="cls-6" d="M41,208.09a15.27,15.27,0,0,1-4.5-.7,11.66,11.66,0,0,1-4-2.07,3,3,0,0,1-.72-1,2.87,2.87,0,0,1-.27-1.16,1.89,1.89,0,0,1,.58-1.3,1.92,1.92,0,0,1,1.51-.64,2.86,2.86,0,0,1,1.66.72A9.92,9.92,0,0,0,38,203.44a8.55,8.55,0,0,0,3,.56,10.81,10.81,0,0,0,5.19-1.22,9.26,9.26,0,0,0,3.57-3.34A9.06,9.06,0,0,0,51,194.66a8.49,8.49,0,0,0-1.13-4.45,7.69,7.69,0,0,0-3.15-3,10.71,10.71,0,0,0-8.1-.47A20.46,20.46,0,0,0,36,188a4.11,4.11,0,0,1-1.82.61,2.66,2.66,0,0,1-1.66-.47,2.19,2.19,0,0,1-.8-1.19,2.91,2.91,0,0,1-.08-1.33L33.79,171a2.34,2.34,0,0,1,.77-1.25,2.23,2.23,0,0,1,1.5-.52H52.47a2.1,2.1,0,1,1,0,4.2H37.16l.55-.5-2,12.77-.88-1.16a6.94,6.94,0,0,1,1.85-1.11,16.38,16.38,0,0,1,2.87-.94,14.32,14.32,0,0,1,3.34-.38,12.66,12.66,0,0,1,6.44,1.63,12.16,12.16,0,0,1,4.51,4.44,12.59,12.59,0,0,1,1.66,6.47A13.27,13.27,0,0,1,54.38,200a12.72,12.72,0,0,1-3,4.28,13.8,13.8,0,0,1-4.59,2.82A16.1,16.1,0,0,1,41,208.09Z"/><path class="cls-6" d="M141.9,82.33a12.38,12.38,0,0,1-5.55-1.19,11.44,11.44,0,0,1-4-3.23,14.65,14.65,0,0,1-2.43-4.59,16.86,16.86,0,0,1-.83-5.25,26,26,0,0,1,.61-5.3,34.24,34.24,0,0,1,1.85-6,28.94,28.94,0,0,1,3.23-5.88,25.25,25.25,0,0,1,4.75-5.06,20.47,20.47,0,0,1,6.36-3.46,4.39,4.39,0,0,1,.88-.11,2.77,2.77,0,0,1,1.58.47,1.91,1.91,0,0,1,.69,1.69,2,2,0,0,1-.5,1.35,2.85,2.85,0,0,1-1.32.86,17.64,17.64,0,0,0-4.34,2.4,23.25,23.25,0,0,0-3.93,3.71,25.73,25.73,0,0,0-3.09,4.58,17.87,17.87,0,0,0-1.8,5.12l-1.32.44a13.46,13.46,0,0,1,2.37-2.82,12.05,12.05,0,0,1,3.35-2.16,10.38,10.38,0,0,1,4.17-.83,10,10,0,0,1,4.53,1.06,12.48,12.48,0,0,1,3.7,2.81A13.38,13.38,0,0,1,153.37,65a12.74,12.74,0,0,1,.91,4.78A12.23,12.23,0,0,1,152.65,76a12.87,12.87,0,0,1-4.42,4.59A11.71,11.71,0,0,1,141.9,82.33Zm-.06-4.14a7.65,7.65,0,0,0,6.91-4.07,8.81,8.81,0,0,0,1.05-4.33,9.44,9.44,0,0,0-.94-4.2,7.9,7.9,0,0,0-2.68-3.13A7.23,7.23,0,0,0,142,61.27a8.33,8.33,0,0,0-4.48,1.17,7.85,7.85,0,0,0-2.9,3.12,9.26,9.26,0,0,0-1,4.34,8.56,8.56,0,0,0,1,4.09,8,8,0,0,0,2.84,3A8.15,8.15,0,0,0,141.84,78.19Z"/><path class="cls-6" d="M141.9,144a12.25,12.25,0,0,1-5.55-1.19,11.33,11.33,0,0,1-4-3.23,14.71,14.71,0,0,1-2.43-4.58,17,17,0,0,1-.83-5.26,26,26,0,0,1,.61-5.3,34.5,34.5,0,0,1,1.85-6,29.21,29.21,0,0,1,3.23-5.88,25.25,25.25,0,0,1,4.75-5.06,20.45,20.45,0,0,1,6.36-3.45,3.77,3.77,0,0,1,.88-.11,2.7,2.7,0,0,1,1.58.47,1.88,1.88,0,0,1,.69,1.68,2,2,0,0,1-.5,1.35,2.85,2.85,0,0,1-1.32.86,17.69,17.69,0,0,0-4.34,2.41,23.19,23.19,0,0,0-3.93,3.7,25.81,25.81,0,0,0-3.09,4.59,17.71,17.71,0,0,0-1.8,5.11l-1.32.44a13.71,13.71,0,0,1,2.37-2.82,11.8,11.8,0,0,1,3.35-2.15,10.22,10.22,0,0,1,4.17-.83,10,10,0,0,1,4.53,1,12.51,12.51,0,0,1,3.7,2.82,13.22,13.22,0,0,1,2.52,4.06,12.77,12.77,0,0,1,.91,4.78,12.21,12.21,0,0,1-1.63,6.21,12.87,12.87,0,0,1-4.42,4.59A11.71,11.71,0,0,1,141.9,144Zm-.06-4.14a7.74,7.74,0,0,0,4.07-1.08,7.83,7.83,0,0,0,2.84-3,8.85,8.85,0,0,0,1.05-4.34,9.44,9.44,0,0,0-.94-4.2,7.9,7.9,0,0,0-2.68-3.13,7.23,7.23,0,0,0-4.17-1.18,8.33,8.33,0,0,0-4.48,1.16,7.85,7.85,0,0,0-2.9,3.12,9.26,9.26,0,0,0-1,4.34,8.54,8.54,0,0,0,1,4.09,8,8,0,0,0,2.84,3A8.15,8.15,0,0,0,141.84,139.83Z"/><path class="cls-6" d="M141.46,168.51A12.38,12.38,0,0,1,147,169.7a11.46,11.46,0,0,1,4,3.24,14.71,14.71,0,0,1,2.43,4.58,17,17,0,0,1,.83,5.25,25.56,25.56,0,0,1-.61,5.28,32.2,32.2,0,0,1-1.85,5.89,29,29,0,0,1-3.23,5.74,24.23,24.23,0,0,1-4.76,4.95,20.92,20.92,0,0,1-6.35,3.4,2.89,2.89,0,0,1-.89.17,2.44,2.44,0,0,1-1.57-.56,2,2,0,0,1-.69-1.65,2,2,0,0,1,.5-1.36,2.93,2.93,0,0,1,1.32-.86,19.36,19.36,0,0,0,5.72-3.39,24.39,24.39,0,0,0,4.76-5.39,18.49,18.49,0,0,0,2.68-6.58l1.32-.44a12.31,12.31,0,0,1-5.66,4.92,10.54,10.54,0,0,1-4.23.83,10.1,10.1,0,0,1-4.53-1,12.12,12.12,0,0,1-3.71-2.79,13.5,13.5,0,0,1-2.51-4.06,12.77,12.77,0,0,1-.91-4.78,12.25,12.25,0,0,1,1.63-6.25,12.84,12.84,0,0,1,4.45-4.55A11.76,11.76,0,0,1,141.46,168.51Zm0,4.15a7.71,7.71,0,0,0-6.9,4,8.83,8.83,0,0,0-1.05,4.37,9.46,9.46,0,0,0,.94,4.17,7.54,7.54,0,0,0,2.7,3.13,7.42,7.42,0,0,0,4.15,1.16,8.36,8.36,0,0,0,4.47-1.16,8,8,0,0,0,2.91-3.13,9.1,9.1,0,0,0,1-4.28,8.51,8.51,0,0,0-1-4.12,8,8,0,0,0-2.84-3A8.16,8.16,0,0,0,141.51,172.66Z"/><path class="cls-6" d="M228.47,75.37a2.23,2.23,0,0,1,.75.14,2.67,2.67,0,0,1,.91.58,9.34,9.34,0,0,0,10.39,1.13,8.56,8.56,0,0,0,3.23-3.07A8.44,8.44,0,0,0,245,69.56,7.94,7.94,0,0,0,243.75,65a7.52,7.52,0,0,0-3.15-2.65,9.65,9.65,0,0,0-4-.86,9.16,9.16,0,0,0-1.44.11,12.68,12.68,0,0,0-1.24.28,4,4,0,0,1-1.08.16,1.69,1.69,0,0,1-1.38-.6,2.27,2.27,0,0,1-.5-1.5,2.45,2.45,0,0,1,.16-.91,3.27,3.27,0,0,1,.56-.85l10.83-11.94.88,1.05H227.7a2.08,2.08,0,0,1-2.1-2.1,1.94,1.94,0,0,1,.61-1.47,2.09,2.09,0,0,1,1.49-.58h18a2.11,2.11,0,0,1,1.77.69A2.38,2.38,0,0,1,248,45.3a2,2,0,0,1-.22.92,4,4,0,0,1-.61.8L236.43,59l-1.27-1.11a3.57,3.57,0,0,1,1.27-.41,8.86,8.86,0,0,1,1.66-.19A11.14,11.14,0,0,1,247.93,63a12.46,12.46,0,0,1,1.54,6.3,12.79,12.79,0,0,1-1.82,6.91,12.31,12.31,0,0,1-5,4.53,15.67,15.67,0,0,1-7.16,1.6,14,14,0,0,1-4.34-.69,10.46,10.46,0,0,1-3.67-2,2,2,0,0,1-1.22-1.88,2.48,2.48,0,0,1,.64-1.6A2,2,0,0,1,228.47,75.37Z"/><path class="cls-6" d="M228.47,137a2.51,2.51,0,0,1,.75.14,2.67,2.67,0,0,1,.91.58,8.75,8.75,0,0,0,2.6,1.6,8.88,8.88,0,0,0,3.42.61,9,9,0,0,0,4.37-1.08,8.56,8.56,0,0,0,3.23-3.07,8.43,8.43,0,0,0,1.25-4.58,8,8,0,0,0-1.25-4.62,7.52,7.52,0,0,0-3.15-2.65,9.65,9.65,0,0,0-4-.86,9.16,9.16,0,0,0-1.44.11,12.68,12.68,0,0,0-1.24.28,4,4,0,0,1-1.08.17,1.7,1.7,0,0,1-1.38-.61,2.24,2.24,0,0,1-.5-1.49,2.47,2.47,0,0,1,.16-.92,3.27,3.27,0,0,1,.56-.85l10.83-11.94.88,1H227.7a2.08,2.08,0,0,1-2.1-2.1,1.94,1.94,0,0,1,.61-1.47,2.09,2.09,0,0,1,1.49-.58h18a2.12,2.12,0,0,1,1.77.7,2.36,2.36,0,0,1,.56,1.51,2,2,0,0,1-.22.92,4,4,0,0,1-.61.8l-10.78,12-1.27-1.1a3.33,3.33,0,0,1,1.27-.42,8.86,8.86,0,0,1,1.66-.19,11.14,11.14,0,0,1,9.84,5.69,12.51,12.51,0,0,1,1.54,6.3,12.77,12.77,0,0,1-1.82,6.91,12.31,12.31,0,0,1-5,4.53,15.67,15.67,0,0,1-7.16,1.6,14,14,0,0,1-4.34-.69,10.46,10.46,0,0,1-3.67-2,2.17,2.17,0,0,1-1-.88,2.14,2.14,0,0,1-.25-1,2.49,2.49,0,0,1,.64-1.61A2,2,0,0,1,228.47,137Z"/><path class="cls-6" d="M228.47,201.45a2.51,2.51,0,0,1,.75.14,2.84,2.84,0,0,1,.91.58,8.55,8.55,0,0,0,2.6,1.6,8.88,8.88,0,0,0,3.42.61,9.12,9.12,0,0,0,4.37-1.07,8.64,8.64,0,0,0,3.23-3.07,8.49,8.49,0,0,0,1.25-4.59,7.89,7.89,0,0,0-1.25-4.61,7.55,7.55,0,0,0-3.15-2.66,9.65,9.65,0,0,0-4-.85,8.1,8.1,0,0,0-1.44.11,10.35,10.35,0,0,0-1.24.27,4,4,0,0,1-1.08.17,1.67,1.67,0,0,1-1.38-.61A2.22,2.22,0,0,1,231,186a2.42,2.42,0,0,1,.16-.91,3.3,3.3,0,0,1,.56-.86l10.83-11.94.88,1H227.7a2.07,2.07,0,0,1-2.1-2.1,1.9,1.9,0,0,1,.61-1.46,2.05,2.05,0,0,1,1.49-.58h18a2.11,2.11,0,0,1,1.77.69,2.38,2.38,0,0,1,.56,1.52,2,2,0,0,1-.22.91,3.47,3.47,0,0,1-.61.8l-10.78,12L235.16,184a3.33,3.33,0,0,1,1.27-.42,9.79,9.79,0,0,1,1.66-.19,11.14,11.14,0,0,1,9.84,5.69,12.51,12.51,0,0,1,1.54,6.3,12.75,12.75,0,0,1-1.82,6.91,12.17,12.17,0,0,1-5,4.53,15.68,15.68,0,0,1-7.16,1.61,14,14,0,0,1-4.34-.69,10.62,10.62,0,0,1-3.67-2,2.18,2.18,0,0,1-1-.89,2.14,2.14,0,0,1-.25-1,2.46,2.46,0,0,1,.64-1.6A2,2,0,0,1,228.47,201.45Z"/><path class="cls-6" d="M335.62,82a15.58,15.58,0,0,1-4.5-.69,11.66,11.66,0,0,1-4-2.07,3,3,0,0,1-.72-1,2.83,2.83,0,0,1-.27-1.16,1.93,1.93,0,0,1,.58-1.3,2,2,0,0,1,1.52-.63,2.89,2.89,0,0,1,1.66.72,10.42,10.42,0,0,0,2.7,1.49,8.53,8.53,0,0,0,3,.55,10.7,10.7,0,0,0,5.19-1.22,9.19,9.19,0,0,0,3.57-3.34,9,9,0,0,0,1.3-4.78,8.52,8.52,0,0,0-1.14-4.45,7.69,7.69,0,0,0-3.15-3,10.68,10.68,0,0,0-8.09-.47,22.12,22.12,0,0,0-2.66,1.19,4,4,0,0,1-1.82.61,2.68,2.68,0,0,1-1.66-.47,2.21,2.21,0,0,1-.8-1.19,2.88,2.88,0,0,1-.08-1.32l2.15-14.65a2.27,2.27,0,0,1,.78-1.24,2.19,2.19,0,0,1,1.49-.53h16.41a2.08,2.08,0,0,1,1.5.61,2.1,2.1,0,0,1-1.5,3.59H331.75l.56-.49-2.05,12.76-.88-1.16a6.7,6.7,0,0,1,1.85-1.1,15.84,15.84,0,0,1,2.87-.94,14.35,14.35,0,0,1,3.35-.39,12.71,12.71,0,0,1,6.44,1.63,12.16,12.16,0,0,1,4.5,4.45,12.45,12.45,0,0,1,1.66,6.46A13.24,13.24,0,0,1,349,73.9a12.86,12.86,0,0,1-3,4.29A14.14,14.14,0,0,1,341.34,81,16.06,16.06,0,0,1,335.62,82Z"/><path class="cls-6" d="M349.44,139.28a2.07,2.07,0,0,1,2.1,2.1,1.92,1.92,0,0,1-.61,1.46,2.05,2.05,0,0,1-1.49.58H329.38a2.31,2.31,0,0,1-1.63-.58,2,2,0,0,1-.64-1.58,2.29,2.29,0,0,1,.67-1.6L340.27,126a29.2,29.2,0,0,0,4.14-5.39,9.79,9.79,0,0,0,1.44-4.89,7.57,7.57,0,0,0-1-3.92,6.63,6.63,0,0,0-2.68-2.57,8.44,8.44,0,0,0-4-.91,8.27,8.27,0,0,0-4.23,1.16,7.86,7.86,0,0,0-3.18,3.59,2.35,2.35,0,0,1-.86.86,2.07,2.07,0,0,1-1,.24,2.35,2.35,0,0,1-1.5-.58,1.67,1.67,0,0,1-.71-1.35,2.1,2.1,0,0,1,.35-1.16,14.32,14.32,0,0,1,.86-1.16,11.62,11.62,0,0,1,4.59-4.26,12.73,12.73,0,0,1,5.91-1.49,13.43,13.43,0,0,1,6.44,1.44,9.82,9.82,0,0,1,4.09,4,11.89,11.89,0,0,1,1.41,5.83,13.14,13.14,0,0,1-.75,4.28,19.33,19.33,0,0,1-2.29,4.5,38.9,38.9,0,0,1-3.92,4.87l-9.67,10.72-.56-.55Z"/><path class="cls-6" d="M348.11,203.72a2.07,2.07,0,0,1,2.1,2.1,1.93,1.93,0,0,1-.6,1.46,2.09,2.09,0,0,1-1.5.58H328.05a2.32,2.32,0,0,1-1.63-.58,2,2,0,0,1-.63-1.57,2.31,2.31,0,0,1,.66-1.6l12.49-13.65a29,29,0,0,0,4.14-5.39,9.84,9.84,0,0,0,1.44-4.89,7.64,7.64,0,0,0-1-3.93,6.64,6.64,0,0,0-2.68-2.57,8.78,8.78,0,0,0-8.26.25,8,8,0,0,0-3.18,3.59,2.33,2.33,0,0,1-.85.86,2,2,0,0,1-1,.25,2.38,2.38,0,0,1-1.49-.58,1.71,1.71,0,0,1-.72-1.36,2.11,2.11,0,0,1,.36-1.16,13.72,13.72,0,0,1,.86-1.16,11.56,11.56,0,0,1,4.58-4.25,12.65,12.65,0,0,1,5.92-1.49,13.39,13.39,0,0,1,6.43,1.43,9.83,9.83,0,0,1,4.09,4,11.92,11.92,0,0,1,1.41,5.83,13.34,13.34,0,0,1-.74,4.28,19.85,19.85,0,0,1-2.3,4.51,38.86,38.86,0,0,1-3.92,4.86l-9.67,10.72-.55-.55Z"/><path class="cls-6" d="M443.56,77.63a2.08,2.08,0,0,1,1.5.61,2,2,0,0,1,.6,1.49,2,2,0,0,1-.6,1.47,2.09,2.09,0,0,1-1.5.58H423.5a2.31,2.31,0,0,1-1.63-.58,2,2,0,0,1-.63-1.58,2.31,2.31,0,0,1,.66-1.6l12.49-13.65A29.09,29.09,0,0,0,438.53,59,9.79,9.79,0,0,0,440,54.09a7.57,7.57,0,0,0-1-3.92,6.57,6.57,0,0,0-2.68-2.57,8.41,8.41,0,0,0-4-.92,8.31,8.31,0,0,0-4.23,1.17,8,8,0,0,0-3.18,3.59,2.37,2.37,0,0,1-.85.85,2,2,0,0,1-1,.25,2.32,2.32,0,0,1-1.49-.58,1.68,1.68,0,0,1-.72-1.35,2.08,2.08,0,0,1,.36-1.16,12.55,12.55,0,0,1,.85-1.16A11.75,11.75,0,0,1,426.65,44a12.77,12.77,0,0,1,5.92-1.49A13.39,13.39,0,0,1,439,44a9.86,9.86,0,0,1,4.09,4,12,12,0,0,1,1.41,5.83,13.4,13.4,0,0,1-.74,4.29,20,20,0,0,1-2.3,4.5,38.9,38.9,0,0,1-3.92,4.87l-9.67,10.72-.55-.56Z"/><path class="cls-6" d="M429.75,143.64a15.6,15.6,0,0,1-4.51-.69,11.61,11.61,0,0,1-4-2.07,2.77,2.77,0,0,1-.72-1,2.7,2.7,0,0,1-.28-1.16,1.93,1.93,0,0,1,.58-1.3,2,2,0,0,1,1.52-.63,2.89,2.89,0,0,1,1.66.72,10.32,10.32,0,0,0,2.71,1.49,8.48,8.48,0,0,0,3,.55,10.87,10.87,0,0,0,5.2-1.21,9.19,9.19,0,0,0,3.56-3.35,9,9,0,0,0,1.3-4.78,8.61,8.61,0,0,0-1.13-4.45,7.79,7.79,0,0,0-3.15-3,9.89,9.89,0,0,0-4.62-1,9.77,9.77,0,0,0-3.48.58,19.92,19.92,0,0,0-2.65,1.18,4,4,0,0,1-1.83.61,2.57,2.57,0,0,1-1.65-.47,2.17,2.17,0,0,1-.81-1.19,3,3,0,0,1-.08-1.32l2.16-14.65a2.26,2.26,0,0,1,.77-1.24,2.21,2.21,0,0,1,1.49-.53h16.42a2.08,2.08,0,0,1,2.1,2.1,2.08,2.08,0,0,1-.61,1.5,2,2,0,0,1-1.49.6H425.88l.55-.49-2,12.76L423.5,120a7.41,7.41,0,0,1,1.85-1.1,16.5,16.5,0,0,1,2.88-.94,14.26,14.26,0,0,1,3.34-.39,12.81,12.81,0,0,1,6.44,1.63,12.09,12.09,0,0,1,4.5,4.45,12.46,12.46,0,0,1,1.66,6.47,13.27,13.27,0,0,1-1.08,5.39,12.92,12.92,0,0,1-3,4.28,14,14,0,0,1-4.58,2.82A16.1,16.1,0,0,1,429.75,143.64Z"/><path class="cls-6" d="M431.07,208.09a15.27,15.27,0,0,1-4.5-.7,11.66,11.66,0,0,1-4-2.07,3.09,3.09,0,0,1-.72-1,2.87,2.87,0,0,1-.27-1.16,1.89,1.89,0,0,1,.58-1.3,1.93,1.93,0,0,1,1.52-.64,2.89,2.89,0,0,1,1.66.72,9.72,9.72,0,0,0,2.7,1.49,8.55,8.55,0,0,0,3,.56,10.81,10.81,0,0,0,5.19-1.22,9.26,9.26,0,0,0,3.57-3.34,9.07,9.07,0,0,0,1.3-4.78,8.49,8.49,0,0,0-1.14-4.45,7.69,7.69,0,0,0-3.15-3,10.68,10.68,0,0,0-8.09-.47A20.64,20.64,0,0,0,426,188a4.07,4.07,0,0,1-1.82.61,2.68,2.68,0,0,1-1.66-.47,2.25,2.25,0,0,1-.8-1.19,2.91,2.91,0,0,1-.08-1.33L423.83,171a2.3,2.3,0,0,1,.78-1.25,2.18,2.18,0,0,1,1.49-.52h16.41a2.1,2.1,0,1,1,0,4.2H427.2l.56-.5-2.05,12.77-.88-1.16a6.94,6.94,0,0,1,1.85-1.11,16.66,16.66,0,0,1,2.87-.94,14.34,14.34,0,0,1,3.35-.38,12.65,12.65,0,0,1,6.43,1.63,12.16,12.16,0,0,1,4.51,4.44,12.59,12.59,0,0,1,1.66,6.47,13.27,13.27,0,0,1-1.08,5.39,12.72,12.72,0,0,1-3,4.28,13.8,13.8,0,0,1-4.59,2.82A16.06,16.06,0,0,1,431.07,208.09Z"/></g></g></svg>