<svg xmlns="http://www.w3.org/2000/svg" viewBox="0 0 480.53 216.82"><defs><style>.cls-1{fill:#faf3a3;}.cls-2{fill:#40d6cb;}.cls-3{fill:#dfd9d0;}.cls-4{fill:#1f8ebe;}.cls-5{fill:#f9f3e9;}.cls-6{fill:#363026;}</style></defs><g id="Layer_2" data-name="Layer 2"><g id="Layer_1-2" data-name="Layer 1"><rect class="cls-1" x="96.19" y="16.84" width="95.56" height="199.09"/><rect class="cls-2" x="288.21" y="16.84" width="95.56" height="199.09"/><g id="a187db6a-9593-44ac-ba19-327ecd10a8b2"><g id="f2b5eb57-7ab0-40f7-a9ad-33e7793c79de"><polygon class="cls-3" points="480.53 93.44 95.28 93.44 95.28 8.69 97.08 8.69 97.08 91.64 478.73 91.64 478.73 4.15 480.53 4.15 480.53 93.44"/><rect class="cls-4" x="95.58" y="0.01" width="96.16" height="30.84"/><path class="cls-5" d="M140.36,8.55a.66.66,0,0,1,.51.21.72.72,0,0,1,.19.53v7.15a4.81,4.81,0,0,1-2.36,4.23,4.59,4.59,0,0,1-2.45.64,4.69,4.69,0,0,1-2.48-.64,4.63,4.63,0,0,1-1.72-1.74,4.83,4.83,0,0,1-.63-2.49V9.29a.73.73,0,0,1,.2-.53.77.77,0,0,1,.56-.21.73.73,0,0,1,.73.74v7.15a3.44,3.44,0,0,0,.46,1.77,3.27,3.27,0,0,0,2.88,1.66,3.4,3.4,0,0,0,1.7-.44,3.51,3.51,0,0,0,1.25-1.2,3.34,3.34,0,0,0,.48-1.77V9.29a.75.75,0,0,1,.18-.53A.57.57,0,0,1,140.36,8.55Z"/><path class="cls-5" d="M145,8.55a.73.73,0,0,1,.35.09.76.76,0,0,1,.3.23l4.78,7.21h-.63l4.8-7.21a.67.67,0,0,1,.6-.32.8.8,0,0,1,.51.21.75.75,0,0,1,.22.53V20.43a.75.75,0,0,1-.22.53.8.8,0,0,1-1.08,0,.75.75,0,0,1-.22-.53V10.66l.45.09-4.25,6.47a1.13,1.13,0,0,1-.27.22.8.8,0,0,1-.31.09,1,1,0,0,1-.33-.09,1.13,1.13,0,0,1-.27-.22l-4.2-6.47.38-.47V20.43a.78.78,0,0,1-.2.53.66.66,0,0,1-.51.21.64.64,0,0,1-.5-.21.82.82,0,0,1-.12-.53V9.29a.78.78,0,0,1,.21-.52A.69.69,0,0,1,145,8.55Z"/><rect class="cls-4" x="191.74" y="0.01" width="96.16" height="30.84"/><path class="cls-5" d="M244.68,9.39a.6.6,0,0,1,.35.49.72.72,0,0,1-.17.6.51.51,0,0,1-.41.25,1,1,0,0,1-.51-.1,5.06,5.06,0,0,0-1.28-.57,5.19,5.19,0,0,0-3.39.16,4.47,4.47,0,0,0-1.53,1,4.54,4.54,0,0,0-1,1.58,5.49,5.49,0,0,0-.36,2,5.54,5.54,0,0,0,.38,2.13,4.55,4.55,0,0,0,1,1.62,4.23,4.23,0,0,0,1.53,1,5.11,5.11,0,0,0,1.9.34,4.87,4.87,0,0,0,1.42-.2,5.12,5.12,0,0,0,1.3-.6.9.9,0,0,1,.51-.09.73.73,0,0,1,.43.25.82.82,0,0,1,.16.61.59.59,0,0,1-.34.45,6.53,6.53,0,0,1-1,.5,7.17,7.17,0,0,1-1.2.35,6.74,6.74,0,0,1-1.26.13,6.82,6.82,0,0,1-2.45-.45,6.1,6.1,0,0,1-3.43-3.35,6.72,6.72,0,0,1-.52-2.69,6.69,6.69,0,0,1,.49-2.58,6.13,6.13,0,0,1,1.36-2,6.31,6.31,0,0,1,2-1.35,6.38,6.38,0,0,1,2.51-.49,6.8,6.8,0,0,1,1.8.25A6.35,6.35,0,0,1,244.68,9.39Z"/><rect class="cls-4" x="287.9" y="0.01" width="96.16" height="30.84"/><path class="cls-5" d="M336.33,8.56a5.25,5.25,0,0,1,2.31.5,4.66,4.66,0,0,1,1.67,1.38,6,6,0,0,1,1,2,8.51,8.51,0,0,1,.34,2.41,8.33,8.33,0,0,1-.6,3.16,5.27,5.27,0,0,1-1.77,2.29,4.89,4.89,0,0,1-3,.86h-4.51a.7.7,0,0,1-.51-.22.73.73,0,0,1-.21-.52V9.29a.72.72,0,0,1,.21-.52.74.74,0,0,1,.51-.21Zm-.18,11.22a3.6,3.6,0,0,0,2.26-.67,3.86,3.86,0,0,0,1.28-1.8,7.33,7.33,0,0,0,.41-2.45,7.85,7.85,0,0,0-.23-1.87,5,5,0,0,0-.7-1.57A3.49,3.49,0,0,0,338,10.34a3.76,3.76,0,0,0-1.8-.4h-3.7l.15-.14V20l-.11-.18Z"/><path class="cls-4" d="M480.25,30.85H384.09V0h92.55a3.61,3.61,0,0,1,3.61,3.61V30.85Z"/><path class="cls-5" d="M436.28,8.55a.64.64,0,0,1,.5.21.78.78,0,0,1,.2.53v7.15a4.81,4.81,0,0,1-2.36,4.23,4.61,4.61,0,0,1-2.45.64,4.75,4.75,0,0,1-2.49-.64A4.61,4.61,0,0,1,428,18.93a4.83,4.83,0,0,1-.65-2.49V9.29a.74.74,0,0,1,.21-.53.73.73,0,0,1,.55-.21.69.69,0,0,1,.51.21.72.72,0,0,1,.23.53v7.15a3.43,3.43,0,0,0,.45,1.77,3.27,3.27,0,0,0,2.88,1.66,3.37,3.37,0,0,0,1.7-.44,3.51,3.51,0,0,0,1.25-1.2,3.34,3.34,0,0,0,.48-1.77V9.29a.79.79,0,0,1,.18-.53A.6.6,0,0,1,436.28,8.55Z"/><rect class="cls-3" x="190.84" y="0.01" width="1.8" height="215.91"/><rect class="cls-3" x="287" y="0.01" width="1.8" height="215.91"/><rect class="cls-3" x="383.17" y="0.01" width="1.8" height="215.91"/><polygon class="cls-3" points="480.53 155.13 95.28 155.13 95.28 92.54 97.08 92.54 97.08 153.32 478.73 153.32 478.73 92.54 480.53 92.54 480.53 155.13"/><path class="cls-3" d="M473.51,216.82H95.28V154.23h1.8V215H473.51a5.22,5.22,0,0,0,5.22-5.21V154.23h1.8V209.8a7,7,0,0,1-7,7Z"/><polygon class="cls-3" points="96.19 93.44 0 93.44 0 4.75 1.8 4.75 1.8 91.64 96.19 91.64 96.19 93.44"/><path class="cls-4" d="M3.61,0H97.12V30.84H0V3.61A3.6,3.6,0,0,1,3.61,0Z"/><polygon class="cls-3" points="96.19 155.13 0 155.13 0 66.44 1.8 66.44 1.8 153.33 96.19 153.33 96.19 155.13"/><path class="cls-3" d="M96.16,216.82h-90A6.13,6.13,0,0,1,0,210.7V128.12H1.8V210.7A4.33,4.33,0,0,0,6.12,215h90Z"/><rect class="cls-3" x="95.29" width="1.8" height="154.22"/><path class="cls-5" d="M41,8.55A4.91,4.91,0,0,1,43.27,9a4.63,4.63,0,0,1,1.67,1.37,6.41,6.41,0,0,1,1,2,8.48,8.48,0,0,1,.33,2.4A8.2,8.2,0,0,1,45.68,18a5.3,5.3,0,0,1-1.77,2.28,4.86,4.86,0,0,1-2.95.86H36.48a.72.72,0,0,1-.72-.74V9.27a.71.71,0,0,1,.2-.52.68.68,0,0,1,.52-.2ZM40.8,19.74a3.59,3.59,0,0,0,2.26-.66,3.89,3.89,0,0,0,1.28-1.81,7.22,7.22,0,0,0,.4-2.44A7.84,7.84,0,0,0,44.52,13a4.69,4.69,0,0,0-.71-1.54,3.37,3.37,0,0,0-1.2-1.08,3.76,3.76,0,0,0-1.8-.4h-3.7l.14-.14V19.92l-.11-.18Z"/><path class="cls-5" d="M49.42,8.53a.77.77,0,0,1,.36.09.8.8,0,0,1,.29.23l4.77,7.22h-.6l4.81-7.22a.67.67,0,0,1,.6-.32.86.86,0,0,1,.51.21.7.7,0,0,1,.21.53V20.43a.72.72,0,0,1-.76.74.7.7,0,0,1-.53-.21.67.67,0,0,1-.22-.53v-9.8l.45.09-4.26,6.46a.92.92,0,0,1-.26.22.56.56,0,0,1-.31.09.62.62,0,0,1-.32-.09,1,1,0,0,1-.27-.22l-4.21-6.46.38-.47V20.43a.78.78,0,0,1-.2.53.64.64,0,0,1-.5.21.62.62,0,0,1-.5-.21.83.83,0,0,1-.18-.53V9.27a.76.76,0,0,1,.21-.52A.67.67,0,0,1,49.42,8.53Z"/></g></g><path class="cls-6" d="M41,82a15.58,15.58,0,0,1-4.5-.69,11.66,11.66,0,0,1-4-2.07,2.89,2.89,0,0,1-.72-1,2.83,2.83,0,0,1-.27-1.16,2.07,2.07,0,0,1,2.09-1.93,2.91,2.91,0,0,1,1.66.71A10.22,10.22,0,0,0,38,77.36a8.53,8.53,0,0,0,3,.55,10.7,10.7,0,0,0,5.19-1.22,9.19,9.19,0,0,0,3.57-3.34A9,9,0,0,0,51,68.57a8.51,8.51,0,0,0-1.13-4.45,7.69,7.69,0,0,0-3.15-3,9.94,9.94,0,0,0-4.61-1,10.1,10.1,0,0,0-3.49.58A21.91,21.91,0,0,0,36,61.88a4,4,0,0,1-1.82.61A2.66,2.66,0,0,1,32.52,62a2.16,2.16,0,0,1-.8-1.19,2.88,2.88,0,0,1-.08-1.32l2.15-14.65a2.31,2.31,0,0,1,.77-1.24,2.24,2.24,0,0,1,1.5-.53H52.47A2,2,0,0,1,54,43.7a2.1,2.1,0,0,1-1.49,3.59H37.16l.55-.49-2,12.76-.88-1.16a6.7,6.7,0,0,1,1.85-1.1,15.59,15.59,0,0,1,2.87-.94A14.32,14.32,0,0,1,42.85,56a12.66,12.66,0,0,1,6.44,1.63,12.19,12.19,0,0,1,4.51,4.45,12.56,12.56,0,0,1,1.66,6.47,13.19,13.19,0,0,1-1.08,5.38,12.86,12.86,0,0,1-3,4.29A14.14,14.14,0,0,1,46.75,81,16.1,16.1,0,0,1,41,82Z"/><path class="cls-6" d="M41,143.64a15.58,15.58,0,0,1-4.5-.69,11.66,11.66,0,0,1-4-2.07,2.89,2.89,0,0,1-.72-1,2.83,2.83,0,0,1-.27-1.16,2.07,2.07,0,0,1,2.09-1.93,2.86,2.86,0,0,1,1.66.72A10.48,10.48,0,0,0,38,139a8.53,8.53,0,0,0,3,.55,10.81,10.81,0,0,0,5.19-1.21A9.22,9.22,0,0,0,49.74,135,9,9,0,0,0,51,130.21a8.51,8.51,0,0,0-1.13-4.45,7.67,7.67,0,0,0-3.15-3,10.71,10.71,0,0,0-8.1-.47A20.52,20.52,0,0,0,36,123.52a4,4,0,0,1-1.82.61,2.6,2.6,0,0,1-1.66-.47,2.16,2.16,0,0,1-.8-1.19,2.87,2.87,0,0,1-.08-1.32l2.15-14.65a2.31,2.31,0,0,1,.77-1.24,2.24,2.24,0,0,1,1.5-.53H52.47a2.1,2.1,0,1,1,0,4.2H37.16l.55-.49-2,12.76L34.79,120a7.23,7.23,0,0,1,1.85-1.1,16.38,16.38,0,0,1,2.87-.94,14.32,14.32,0,0,1,3.34-.39,12.76,12.76,0,0,1,6.44,1.63,12.19,12.19,0,0,1,4.51,4.45,12.59,12.59,0,0,1,1.66,6.47,13.19,13.19,0,0,1-1.08,5.38,12.86,12.86,0,0,1-3,4.29,14.14,14.14,0,0,1-4.59,2.82A16.1,16.1,0,0,1,41,143.64Z"/><path class="cls-6" d="M41,208.09a15.6,15.6,0,0,1-4.5-.7,11.66,11.66,0,0,1-4-2.07,3,3,0,0,1-.72-1,2.91,2.91,0,0,1-.27-1.16,1.89,1.89,0,0,1,.58-1.3,1.92,1.92,0,0,1,1.51-.64,2.86,2.86,0,0,1,1.66.72A9.92,9.92,0,0,0,38,203.44a8.55,8.55,0,0,0,3,.56,10.81,10.81,0,0,0,5.19-1.22,9.26,9.26,0,0,0,3.57-3.34A9.06,9.06,0,0,0,51,194.66a8.49,8.49,0,0,0-1.13-4.45,7.63,7.63,0,0,0-3.15-3,10.71,10.71,0,0,0-8.1-.47A20.46,20.46,0,0,0,36,188a4.11,4.11,0,0,1-1.82.61,2.66,2.66,0,0,1-1.66-.47,2.19,2.19,0,0,1-.8-1.19,2.91,2.91,0,0,1-.08-1.33L33.79,171a2.34,2.34,0,0,1,.77-1.25,2.23,2.23,0,0,1,1.5-.52H52.47a2.1,2.1,0,1,1,0,4.2H37.16l.55-.5-2,12.77-.88-1.16a6.94,6.94,0,0,1,1.85-1.11,16.38,16.38,0,0,1,2.87-.94,14.32,14.32,0,0,1,3.34-.38,12.76,12.76,0,0,1,6.44,1.62,12.26,12.26,0,0,1,4.51,4.45,12.59,12.59,0,0,1,1.66,6.47A13.27,13.27,0,0,1,54.38,200a12.72,12.72,0,0,1-3,4.28,13.8,13.8,0,0,1-4.59,2.82A16.1,16.1,0,0,1,41,208.09Z"/><path class="cls-6" d="M147.94,81.78a2.11,2.11,0,0,1-1.58-.66,2.27,2.27,0,0,1-.63-1.61V49.28l.88.33L133.4,66.86l-.22-.67h20.23a2,2,0,0,1,1.49.61,2,2,0,0,1,.61,1.49,1.84,1.84,0,0,1-.61,1.41,2.05,2.05,0,0,1-1.49.58H130.14a2.16,2.16,0,0,1-1.52-.66,2.11,2.11,0,0,1-.14-3L146.11,44a2.06,2.06,0,0,1,.89-.69,2.69,2.69,0,0,1,1-.2,2.07,2.07,0,0,1,1.55.64,2.16,2.16,0,0,1,.61,1.57V79.51a2.23,2.23,0,0,1-.64,1.61A2.09,2.09,0,0,1,147.94,81.78Z"/><path class="cls-6" d="M147.27,123.91l-.11-.77a12.31,12.31,0,0,1,3.49,2.26,11.18,11.18,0,0,1,2.45,3.29,8.94,8.94,0,0,1,.92,4,10,10,0,0,1-1.63,5.5,11.75,11.75,0,0,1-4.43,4,12.9,12.9,0,0,1-6.21,1.5,12.74,12.74,0,0,1-6.19-1.5,11.81,11.81,0,0,1-4.4-4,10,10,0,0,1-1.63-5.5,8.93,8.93,0,0,1,1-4.37,11,11,0,0,1,2.59-3.2,13.83,13.83,0,0,1,3.29-2.1l-.27.88a9.81,9.81,0,0,1-4.87-4.67,8.6,8.6,0,0,1-.83-3.84A10.14,10.14,0,0,1,132,110a10.63,10.63,0,0,1,4.08-3.84,11.77,11.77,0,0,1,5.7-1.41,11.51,11.51,0,0,1,5.69,1.41A11,11,0,0,1,151.5,110,10.07,10.07,0,0,1,153,115.4a8.37,8.37,0,0,1-.88,3.95,9.43,9.43,0,0,1-2.19,2.82A10.22,10.22,0,0,1,147.27,123.91Zm-5.52,15.64a8,8,0,0,0,5.61-2,6.69,6.69,0,0,0,1.13-8.54,7.3,7.3,0,0,0-2.82-2.48,8.42,8.42,0,0,0-3.92-.92,8.31,8.31,0,0,0-3.87.92,7.3,7.3,0,0,0-2.82,2.48,6.69,6.69,0,0,0,1.13,8.54A7.93,7.93,0,0,0,141.75,139.55ZM135,115.46a6.37,6.37,0,0,0,3.4,5.83,7,7,0,0,0,3.4.85,6.84,6.84,0,0,0,3.4-.85,6.92,6.92,0,0,0,2.46-2.35,6.47,6.47,0,0,0,.93-3.48,6.31,6.31,0,0,0-1.9-4.73,7.39,7.39,0,0,0-9.78,0A6.28,6.28,0,0,0,135,115.46Z"/><path class="cls-6" d="M147.94,207.86a2.11,2.11,0,0,1-1.58-.66,2.23,2.23,0,0,1-.63-1.6V175.37l.88.33L133.4,192.94l-.22-.66h20.23a2.08,2.08,0,0,1,2.1,2.1,1.87,1.87,0,0,1-.61,1.41,2.05,2.05,0,0,1-1.49.58H130.14a2.16,2.16,0,0,1-1.52-.66,2.12,2.12,0,0,1-.14-3l17.63-22.66a2.14,2.14,0,0,1,.89-.69,2.68,2.68,0,0,1,1-.19,2.07,2.07,0,0,1,1.55.63,2.19,2.19,0,0,1,.61,1.58V205.6a2.19,2.19,0,0,1-.64,1.6A2.09,2.09,0,0,1,147.94,207.86Z"/><path class="cls-6" d="M236,82a15.58,15.58,0,0,1-4.5-.69,11.66,11.66,0,0,1-4-2.07,3,3,0,0,1-.72-1,2.83,2.83,0,0,1-.27-1.16,1.93,1.93,0,0,1,.58-1.3,2,2,0,0,1,1.52-.63,2.93,2.93,0,0,1,1.66.71,10.16,10.16,0,0,0,2.7,1.5,8.53,8.53,0,0,0,3,.55,10.7,10.7,0,0,0,5.19-1.22,9.19,9.19,0,0,0,3.57-3.34,9,9,0,0,0,1.3-4.78,8.52,8.52,0,0,0-1.14-4.45,7.69,7.69,0,0,0-3.15-3,10.68,10.68,0,0,0-8.09-.47A22.12,22.12,0,0,0,231,61.88a4,4,0,0,1-1.82.61,2.68,2.68,0,0,1-1.66-.47,2.21,2.21,0,0,1-.8-1.19,2.88,2.88,0,0,1-.08-1.32l2.15-14.65a2.27,2.27,0,0,1,.78-1.24,2.19,2.19,0,0,1,1.49-.53h16.41a2.08,2.08,0,0,1,1.5.61,2.1,2.1,0,0,1-1.5,3.59H232.17l.56-.49-2,12.76-.88-1.16a6.7,6.7,0,0,1,1.85-1.1,15.84,15.84,0,0,1,2.87-.94,14.35,14.35,0,0,1,3.35-.39,12.71,12.71,0,0,1,6.44,1.63,12.16,12.16,0,0,1,4.5,4.45,12.46,12.46,0,0,1,1.66,6.47,13.19,13.19,0,0,1-1.08,5.38,12.86,12.86,0,0,1-3,4.29A14.14,14.14,0,0,1,241.76,81,16.06,16.06,0,0,1,236,82Z"/><path class="cls-6" d="M236,143.64a15.58,15.58,0,0,1-4.5-.69,11.66,11.66,0,0,1-4-2.07,3,3,0,0,1-.72-1,2.83,2.83,0,0,1-.27-1.16,1.93,1.93,0,0,1,.58-1.3,2,2,0,0,1,1.52-.63,2.89,2.89,0,0,1,1.66.72A10.42,10.42,0,0,0,233,139a8.53,8.53,0,0,0,3,.55,10.81,10.81,0,0,0,5.19-1.21,9.22,9.22,0,0,0,3.57-3.35,9,9,0,0,0,1.3-4.78,8.52,8.52,0,0,0-1.14-4.45,7.67,7.67,0,0,0-3.15-3,10.68,10.68,0,0,0-8.09-.47,20.71,20.71,0,0,0-2.66,1.18,4,4,0,0,1-1.82.61,2.62,2.62,0,0,1-1.66-.47,2.21,2.21,0,0,1-.8-1.19,2.87,2.87,0,0,1-.08-1.32l2.15-14.65a2.27,2.27,0,0,1,.78-1.24,2.19,2.19,0,0,1,1.49-.53h16.41a2.1,2.1,0,1,1,0,4.2H232.17l.56-.49-2,12.76L229.8,120a7.23,7.23,0,0,1,1.85-1.1,16.66,16.66,0,0,1,2.87-.94,14.35,14.35,0,0,1,3.35-.39,12.81,12.81,0,0,1,6.44,1.63,12.16,12.16,0,0,1,4.5,4.45,12.49,12.49,0,0,1,1.66,6.47,13.19,13.19,0,0,1-1.08,5.38,12.86,12.86,0,0,1-3,4.29,14.14,14.14,0,0,1-4.59,2.82A16.06,16.06,0,0,1,236,143.64Z"/><path class="cls-6" d="M236,208.09a15.6,15.6,0,0,1-4.5-.7,11.66,11.66,0,0,1-4-2.07,3.09,3.09,0,0,1-.72-1,2.91,2.91,0,0,1-.27-1.16,1.89,1.89,0,0,1,.58-1.3,1.93,1.93,0,0,1,1.52-.64,2.89,2.89,0,0,1,1.66.72,9.86,9.86,0,0,0,2.7,1.49,8.55,8.55,0,0,0,3,.56,10.81,10.81,0,0,0,5.19-1.22,9.26,9.26,0,0,0,3.57-3.34,9.07,9.07,0,0,0,1.3-4.78,8.49,8.49,0,0,0-1.14-4.45,7.63,7.63,0,0,0-3.15-3,10.68,10.68,0,0,0-8.09-.47A20.64,20.64,0,0,0,231,188a4.07,4.07,0,0,1-1.82.61,2.68,2.68,0,0,1-1.66-.47,2.25,2.25,0,0,1-.8-1.19,2.91,2.91,0,0,1-.08-1.33L228.8,171a2.3,2.3,0,0,1,.78-1.25,2.18,2.18,0,0,1,1.49-.52h16.41a2.1,2.1,0,1,1,0,4.2H232.17l.56-.5-2,12.77-.88-1.16a6.94,6.94,0,0,1,1.85-1.11,16.66,16.66,0,0,1,2.87-.94,14.34,14.34,0,0,1,3.35-.38,12.81,12.81,0,0,1,6.44,1.62,12.23,12.23,0,0,1,4.5,4.45,12.49,12.49,0,0,1,1.66,6.47,13.27,13.27,0,0,1-1.08,5.39,12.72,12.72,0,0,1-3,4.28,13.8,13.8,0,0,1-4.59,2.82A16.06,16.06,0,0,1,236,208.09Z"/><path class="cls-6" d="M324.27,75.37a2.18,2.18,0,0,1,.75.14,2.58,2.58,0,0,1,.91.58,9.34,9.34,0,0,0,10.39,1.13,8.56,8.56,0,0,0,4.48-7.66A7.94,7.94,0,0,0,339.55,65a7.44,7.44,0,0,0-3.14-2.65,9.73,9.73,0,0,0-4-.86,9.16,9.16,0,0,0-1.44.11,12.68,12.68,0,0,0-1.24.28,4,4,0,0,1-1.08.16,1.69,1.69,0,0,1-1.38-.6,2.32,2.32,0,0,1-.5-1.5,2.46,2.46,0,0,1,.17-.91,3,3,0,0,1,.55-.86l10.83-11.93.89,1.05H323.5a2.08,2.08,0,0,1-2.1-2.1,1.94,1.94,0,0,1,.61-1.47,2.09,2.09,0,0,1,1.49-.58h18a2.14,2.14,0,0,1,1.77.69,2.43,2.43,0,0,1,.55,1.52,2,2,0,0,1-.22.92,3.62,3.62,0,0,1-.61.8L332.23,59,331,57.9a3.65,3.65,0,0,1,1.27-.41,9,9,0,0,1,1.66-.19,11.17,11.17,0,0,1,5.69,1.49,11,11,0,0,1,4.15,4.2,12.47,12.47,0,0,1,1.55,6.3,12.8,12.8,0,0,1-1.83,6.91,12.25,12.25,0,0,1-5,4.53,15.64,15.64,0,0,1-7.16,1.6,14,14,0,0,1-4.34-.69,10.55,10.55,0,0,1-3.67-2,2.17,2.17,0,0,1-1-.88,2.28,2.28,0,0,1-.25-1,2.48,2.48,0,0,1,.64-1.6A2,2,0,0,1,324.27,75.37Z"/><path class="cls-6" d="M344.67,139.27a2.05,2.05,0,0,1,1.49.61,2.08,2.08,0,0,1,.61,1.5,2,2,0,0,1-.61,1.46,2.07,2.07,0,0,1-1.49.58H324.61a2.33,2.33,0,0,1-1.64-.58,2,2,0,0,1-.63-1.57,2.33,2.33,0,0,1,.66-1.61L335.49,126a28.86,28.86,0,0,0,4.15-5.39,9.87,9.87,0,0,0,1.43-4.89,7.67,7.67,0,0,0-1-3.92,6.7,6.7,0,0,0-2.68-2.57,8.48,8.48,0,0,0-4-.91,8.26,8.26,0,0,0-4.22,1.16,7.86,7.86,0,0,0-3.18,3.59,2.43,2.43,0,0,1-.86.86,2.08,2.08,0,0,1-1,.24,2.34,2.34,0,0,1-1.49-.58,1.68,1.68,0,0,1-.72-1.35,2.11,2.11,0,0,1,.36-1.16,14.32,14.32,0,0,1,.86-1.16,11.66,11.66,0,0,1,4.58-4.26,12.77,12.77,0,0,1,5.92-1.49,13.46,13.46,0,0,1,6.44,1.44,9.92,9.92,0,0,1,4.09,4,12,12,0,0,1,1.41,5.84,13.14,13.14,0,0,1-.75,4.28,19.73,19.73,0,0,1-2.29,4.5,38.16,38.16,0,0,1-3.93,4.87L329,139.83l-.55-.56Z"/><path class="cls-6" d="M344.67,203.72a2,2,0,0,1,1.49.61,2,2,0,0,1,.61,1.49,1.94,1.94,0,0,1-.61,1.46,2.07,2.07,0,0,1-1.49.58H324.61a2.33,2.33,0,0,1-1.64-.58,2,2,0,0,1-.63-1.57,2.31,2.31,0,0,1,.66-1.6l12.49-13.65a29.52,29.52,0,0,0,4.15-5.39,9.93,9.93,0,0,0,1.43-4.89,7.73,7.73,0,0,0-1-3.93,6.76,6.76,0,0,0-2.68-2.57,8.48,8.48,0,0,0-4-.91,8.36,8.36,0,0,0-4.22,1.16,7.86,7.86,0,0,0-3.18,3.59,2.43,2.43,0,0,1-.86.86,2,2,0,0,1-1,.25,2.4,2.4,0,0,1-1.49-.58,1.71,1.71,0,0,1-.72-1.36,2.11,2.11,0,0,1,.36-1.16c.24-.36.53-.75.86-1.16a11.56,11.56,0,0,1,4.58-4.25,12.65,12.65,0,0,1,5.92-1.49,13.46,13.46,0,0,1,6.44,1.43,9.94,9.94,0,0,1,4.09,4,11.92,11.92,0,0,1,1.41,5.83,13.09,13.09,0,0,1-.75,4.28,19.79,19.79,0,0,1-2.29,4.51,38.12,38.12,0,0,1-3.93,4.86L329,204.27l-.55-.55Z"/><path class="cls-6" d="M441.34,77.63a2,2,0,0,1,1.49.61,2,2,0,0,1,.61,1.49,1.94,1.94,0,0,1-.61,1.47,2.05,2.05,0,0,1-1.49.58H421.28a2.31,2.31,0,0,1-1.63-.58,2,2,0,0,1-.64-1.58,2.32,2.32,0,0,1,.67-1.6l12.49-13.65A29.53,29.53,0,0,0,436.31,59a9.79,9.79,0,0,0,1.44-4.89,7.57,7.57,0,0,0-1-3.92,6.57,6.57,0,0,0-2.68-2.57,8.41,8.41,0,0,0-4-.92,8.28,8.28,0,0,0-4.23,1.17,8,8,0,0,0-3.18,3.59,2.37,2.37,0,0,1-.85.85,2,2,0,0,1-1,.25,2.32,2.32,0,0,1-1.49-.58,1.7,1.7,0,0,1-.72-1.35,2.08,2.08,0,0,1,.36-1.16,12.55,12.55,0,0,1,.85-1.16A11.69,11.69,0,0,1,424.43,44a12.76,12.76,0,0,1,5.91-1.49A13.41,13.41,0,0,1,436.78,44a9.8,9.8,0,0,1,4.09,4,12,12,0,0,1,1.41,5.83,13.45,13.45,0,0,1-.74,4.29,20,20,0,0,1-2.3,4.5,38.15,38.15,0,0,1-3.92,4.86l-9.67,10.73-.56-.56Z"/><path class="cls-6" d="M421,137a2.39,2.39,0,0,1,.74.14,2.61,2.61,0,0,1,.92.58,8.7,8.7,0,0,0,2.59,1.6,9.62,9.62,0,0,0,7.8-.47,8.63,8.63,0,0,0,3.23-3.07,8.43,8.43,0,0,0,1.24-4.58,8,8,0,0,0-1.24-4.62,7.52,7.52,0,0,0-3.15-2.65,9.7,9.7,0,0,0-4-.86,9.13,9.13,0,0,0-1.43.11c-.45.08-.86.17-1.25.28a3.9,3.9,0,0,1-1.08.17,1.7,1.7,0,0,1-1.38-.61,2.31,2.31,0,0,1-.49-1.5,2.45,2.45,0,0,1,.16-.91,3.21,3.21,0,0,1,.55-.85L435,107.83l.88,1h-15.7a2.07,2.07,0,0,1-2.09-2.1,2,2,0,0,1,.6-1.47,2.11,2.11,0,0,1,1.49-.58h18a2.11,2.11,0,0,1,1.77.7,2.34,2.34,0,0,1,.55,1.51,1.9,1.9,0,0,1-.22.92,3.62,3.62,0,0,1-.61.8l-10.77,12-1.27-1.1a3.26,3.26,0,0,1,1.27-.42,8.77,8.77,0,0,1,1.66-.19,11.11,11.11,0,0,1,9.83,5.69,12.49,12.49,0,0,1,1.55,6.3,12.86,12.86,0,0,1-1.82,6.91,12.34,12.34,0,0,1-5,4.53A15.63,15.63,0,0,1,428,144a14,14,0,0,1-4.34-.69,10.74,10.74,0,0,1-3.68-2,2.05,2.05,0,0,1-1.21-1.88,2.53,2.53,0,0,1,.63-1.61A2,2,0,0,1,421,137Z"/><path class="cls-6" d="M421,201.45a2.39,2.39,0,0,1,.74.14,2.76,2.76,0,0,1,.92.58,8.5,8.5,0,0,0,2.59,1.6,9.62,9.62,0,0,0,7.8-.47,8.61,8.61,0,0,0,3.23-3.06,8.48,8.48,0,0,0,1.24-4.59,7.89,7.89,0,0,0-1.24-4.61,7.55,7.55,0,0,0-3.15-2.66,9.69,9.69,0,0,0-4-.85,8.06,8.06,0,0,0-1.43.11,10.53,10.53,0,0,0-1.25.27,3.9,3.9,0,0,1-1.08.17,1.67,1.67,0,0,1-1.38-.61,2.27,2.27,0,0,1-.49-1.49,2.42,2.42,0,0,1,.16-.91,3.25,3.25,0,0,1,.55-.86L435,172.27l.88,1h-15.7a2.07,2.07,0,0,1-2.09-2.1,1.93,1.93,0,0,1,.6-1.46,2.07,2.07,0,0,1,1.49-.58h18a2.14,2.14,0,0,1,1.77.69,2.37,2.37,0,0,1,.55,1.52,1.88,1.88,0,0,1-.22.91,3.21,3.21,0,0,1-.61.8l-10.77,12L427.64,184a3.26,3.26,0,0,1,1.27-.42,9.68,9.68,0,0,1,1.66-.19,11.27,11.27,0,0,1,5.69,1.49,11.13,11.13,0,0,1,4.14,4.2,12.52,12.52,0,0,1,1.55,6.3,12.83,12.83,0,0,1-1.82,6.91,12.2,12.2,0,0,1-5,4.53,15.64,15.64,0,0,1-7.15,1.61,14,14,0,0,1-4.34-.69,10.76,10.76,0,0,1-3.68-2,2.1,2.1,0,0,1-1-.89,2.14,2.14,0,0,1-.25-1,2.5,2.5,0,0,1,.63-1.6A2,2,0,0,1,421,201.45Z"/></g></g></svg>