<svg xmlns="http://www.w3.org/2000/svg" viewBox="0 0 257.62 350.99"><defs><style>.cls-1{fill:none;}.cls-2{fill:#d3f7a4;}.cls-3{fill:#58d313;}.cls-4{fill:#25a5dd;}.cls-5{fill:#363026;}</style></defs><g id="Layer_2" data-name="Layer 2"><g id="Layer_1-2" data-name="Layer 1"><rect class="cls-1" width="257.62" height="350.99"/><path class="cls-2" d="M99.51,146.11S70.35,179.72,62,198.33,48.13,248.6,53.13,255s-8.62,16.39-8.62,16.39-8,7.78-1.94,16.39,19.17,0,19.17,0S64,294.71,74,293.88,93.4,290,93.4,289.16s10,6.69,18.06,6.54,33.89,2.9,47.22-4,10-2.78,10-2.78,19.44,3.89,20.83-3.05,3.89-.28,3.89-.28.56,3.33,13.61,2.5,10-7.5,10-7.5-4.16-13.33-8-21.11-4.73-18.06-4.73-18.06-3-39.72-15-59.16-10.55-23.65-28.88-41.13c0,.17-12.95-1.88-27.78-1.1C119.46,140.69,99.51,146.11,99.51,146.11Z"/><path class="cls-3" d="M130.91,296.66c-4.61,0-9-.19-12.55-.35-2.82-.12-5.26-.23-6.89-.2-5.8.1-12.38-3.56-15.92-5.53-.78-.43-1.59-.88-1.94-1C92,291.14,82,293.63,74,294.3c-8.64.72-11.7-4.31-12.45-5.92-2.33,1.4-13.67,7.57-19.31-.37-6.25-8.8,1.91-16.85,2-16.93S53,264.58,53.76,259a4.76,4.76,0,0,0-1-3.71c-5.28-6.74.69-38.9,8.83-57.09,8.27-18.46,37.28-52,37.57-52.33l.08-.09.12,0c.2,0,20.14-5.44,33.15-6.12a164,164,0,0,1,26.19.95l1.2.13v-.52l.68.65c13.07,12.46,16.11,18.11,21.14,27.46,2,3.81,4.36,8.12,7.82,13.75,11.86,19.3,15,58.95,15.06,59.35,0,.1.87,10.29,4.68,17.9s8,21,8.08,21.17a4.66,4.66,0,0,1-.31,4.08c-1.37,2.29-4.75,3.63-10.06,4-13,.84-14-2.46-14-2.84-.4-1.05-1.28-2.58-1.82-2.54-.12,0-.72.19-1.25,2.83-1.45,7.27-20.51,3.54-21.32,3.38l-.67-.13.42-.54a1.12,1.12,0,0,0,.28-.57c-.13-.07-1.37-.39-9.76,4C151.61,295.81,140.67,296.66,130.91,296.66Zm-18.83-1.38c1.62,0,3.82.09,6.32.2,11.06.48,29.58,1.28,40.09-4.19,9.71-5.06,10.45-4.16,10.8-3.73a.94.94,0,0,1,.05,1c3.21.57,18.6,3,19.76-2.84.47-2.3,1.1-3.41,2-3.49,1.42-.09,2.49,2.61,2.69,3.15,0,.09.92,3,13.2,2.23,4.93-.31,8.18-1.54,9.39-3.54a3.84,3.84,0,0,0,.25-3.37c-.06-.18-4.22-13.44-8-21.1s-4.75-18.1-4.76-18.2c0-.4-3.19-39.85-14.94-59-3.47-5.64-5.79-10-7.84-13.78-5-9.26-8-14.86-20.85-27.14-.26,0-.71-.06-1.54-.15a163.69,163.69,0,0,0-26.06-1c-12.38.65-31.15,5.61-32.84,6.06-1.74,2-29.36,34.17-37.36,52-8.64,19.3-13.57,50.31-8.94,56.24a5.5,5.5,0,0,1,1.13,4.33c-.82,6-9.45,12.38-9.82,12.65s-7.68,7.6-1.85,15.81,18.47,0,18.6-.11l.45-.3.17.52c.09.27,2.26,6.61,11.79,5.83s18.23-3.61,19.07-4.41v-.14l.23-.17c.35-.21.74,0,2.73,1.1,3.43,1.91,9.78,5.43,15.27,5.43h.86Z"/><path class="cls-2" d="M157.5,121.56s2.08-9.38,9.17-14.38,5.93-1.56,9.68-7.29,9-15.73,10.52-15.52,4.69-17-2.29-18.54-20.73-2.5-25.62,0l-4.9,2.5a7.29,7.29,0,0,1-2-4c-.21-2.31-.41-8.25-15.31-9.4s-16.56,4.9-16.56,4.9,1.85,13.44,1.46,14.79c-.48,1.61-1.15,2.81-8.34,1s-3.85-5.94-13.54-5.42S88.65,73,86,73s-11.25-2.3-21.87,2.29,2.39,17,5.31,18.33A48.93,48.93,0,0,1,88.23,107.7c7.6,9.27,12.28,22.21,12.28,22.21S128.8,120.83,157.5,121.56Z"/><path class="cls-3" d="M100.26,130.43l-.14-.37c-.05-.13-4.74-13-12.21-22.09A48.1,48.1,0,0,0,69.82,94.26L69.3,94c-2.09-1-9.73-7.8-9.65-13.5,0-2.48,1.5-4.36,4.35-5.59a37,37,0,0,1,20.06-2.5c.85.09,1.53.17,2,.17a7.48,7.48,0,0,0,2.65-.67,32.87,32.87,0,0,1,11.08-2.14c5.79-.31,7.09,1,8.61,2.55a9.14,9.14,0,0,0,5.05,2.88c7.11,1.74,7.46.53,7.84-.76.27-.92-.76-9.45-1.47-14.62l0-.08,0-.08c.07-.26,1.93-6.36,17-5.2s15.46,7.09,15.68,9.62l0,.15a6.77,6.77,0,0,0,1.65,3.56l4.62-2.35c5.29-2.7,19.46-1.48,25.9,0,5.22,1.17,5.11,9.91,4.23,14.88-.38,2.12-1,4.62-2.08,4.48-.89,0-4.19,5.57-6.37,9.23-1.27,2.13-2.59,4.34-3.75,6.11-2.27,3.46-2.84,3.7-4.38,4.33a24.39,24.39,0,0,0-5.41,3.07c-6.87,4.85-9,14-9,14.13l-.08.33h-.34c-28.3-.71-56.57,8.25-56.85,8.34ZM78.09,72.86a34.35,34.35,0,0,0-13.76,2.83c-2.53,1.09-3.82,2.72-3.85,4.84-.07,5.26,7.25,11.84,9.18,12.73l.51.24a48.75,48.75,0,0,1,18.38,13.94c6.84,8.34,11.38,19.76,12.21,22,3.46-1.06,29.87-8.86,56.41-8.27.45-1.75,2.79-9.73,9.26-14.29a24.64,24.64,0,0,1,5.58-3.16c1.4-.58,1.87-.77,4-4,1.16-1.76,2.46-4,3.73-6.08,4-6.64,5.87-9.63,7.1-9.63h0c.7-.55,2.25-6.86,1.42-12.1-.35-2.25-1.3-5.06-3.79-5.61-7.2-1.62-20.66-2.43-25.34,0L154,68.84l-.21-.21a7.67,7.67,0,0,1-2.1-4.31l0-.14c-.2-2.33-.67-7.78-14.91-8.87-13.42-1-15.85,3.87-16.11,4.52.25,1.79,1.84,13.5,1.44,14.87-.56,1.91-1.52,3.13-8.84,1.33a10,10,0,0,1-5.44-3.11c-1.43-1.45-2.56-2.59-8-2.3A32.13,32.13,0,0,0,89,72.71a8.27,8.27,0,0,1-2.94.72c-.5,0-1.2-.08-2.08-.18A49.87,49.87,0,0,0,78.09,72.86Z"/><path class="cls-3" d="M121.72,74.28a8.44,8.44,0,0,0,3.26-.7,9.6,9.6,0,0,0,2.79-1.75,6.76,6.76,0,0,0,2.53-5.67,4.1,4.1,0,0,0-.89-2.88,7.59,7.59,0,0,0-2.85-1.44l-3.22-1c-1.07-.38-2.15-.73-3.21-1.13,1.11.22,2.21.49,3.32.74l3.31.82A7.57,7.57,0,0,1,130,62.72a3.63,3.63,0,0,1,.92,1.64,7.39,7.39,0,0,1,.24,1.78,9.81,9.81,0,0,1-.1,1.78,6.33,6.33,0,0,1-.58,1.7,8.25,8.25,0,0,1-2.27,2.7A8.71,8.71,0,0,1,121.72,74.28Z"/><path class="cls-3" d="M108.11,72.54c1.71,2.67,3.27,5.43,4.76,8.24s2.83,5.69,4,8.64a54.09,54.09,0,0,1,3.1,9.06,30.8,30.8,0,0,1,.69,9.57h-.17c-.57-3.14-1.29-6.16-2.13-9.16l-1.31-4.51c-.4-1.51-.92-3-1.43-4.48-1-3-2.26-5.88-3.55-8.76s-2.64-5.74-4.15-8.51Z"/><path class="cls-3" d="M97.36,88.26a56.4,56.4,0,0,0,6.63,8c1.22,1.24,2.47,2.38,3.78,3.57a23,23,0,0,1,3.48,4.15,36.45,36.45,0,0,1,2.53,4.73,41.66,41.66,0,0,1,1.76,5,32.93,32.93,0,0,1,1.33,10.47,53.8,53.8,0,0,0-2.57-10.08,43.71,43.71,0,0,0-4.44-9.24,22.67,22.67,0,0,0-3.17-3.92c-1.22-1.23-2.53-2.48-3.65-3.83A34.18,34.18,0,0,1,97.36,88.26Z"/><path class="cls-3" d="M130.44,68.75a32.41,32.41,0,0,1,5.28,8.33,25.12,25.12,0,0,1,1.51,4.76,22.66,22.66,0,0,1,.4,2.49l.2,2.46c.23,3.28.51,6.56.42,9.84a78.9,78.9,0,0,1-.77,9.82h-.17c-.41-3.27-.59-6.54-.73-9.81s0-6.53-.08-9.79l-.08-2.44a20.92,20.92,0,0,0-.25-2.37,24.64,24.64,0,0,0-1.23-4.66,31.91,31.91,0,0,0-4.63-8.52Z"/><path class="cls-3" d="M133.55,122.76a18.4,18.4,0,0,0,.47-2.37c.11-.8.19-1.62.22-2.43a22.33,22.33,0,0,0-.34-4.89,21.75,21.75,0,0,1,.75,4.89,23,23,0,0,1,0,2.49,18,18,0,0,1-.28,2.51Z"/><path class="cls-3" d="M146.27,91.71a13.57,13.57,0,0,1,1-6.18,23.72,23.72,0,0,1,1.36-2.82,9,9,0,0,0,.87-2.71c.08-.46.1-1,.15-1.48L149.8,77c0-.51.09-1,.16-1.54a15.09,15.09,0,0,1,.27-1.59,7.83,7.83,0,0,1,3.58-5.31l.86-.45-.45.88a5.13,5.13,0,0,0,0,4.27,7.75,7.75,0,0,0,3,3.28,17.91,17.91,0,0,0,4.08,1.92,42.52,42.52,0,0,0,4.39,1.25,64.74,64.74,0,0,0,9,1.58,43,43,0,0,0,4.53.23c.75,0,1.5,0,2.24-.12a13.34,13.34,0,0,0,2.13-.35l.11,0a7.52,7.52,0,0,0,2.19-.83,5.71,5.71,0,0,0,2.84-3.71,8.66,8.66,0,0,0,.18-2.5l.16,0a7.71,7.71,0,0,1,.2,2.63,6,6,0,0,1-.87,2.57,7.06,7.06,0,0,1-1.91,2,8.09,8.09,0,0,1-2.53,1.2l.1,0a18.09,18.09,0,0,1-4.78.85,36,36,0,0,1-4.76-.08,51.38,51.38,0,0,1-9.23-1.87,24.11,24.11,0,0,1-8.55-4,9.63,9.63,0,0,1-3-3.72,6.39,6.39,0,0,1,0-4.77l.41.44a5,5,0,0,0-1.77,2.18,9.61,9.61,0,0,0-.76,2.8c-.07.48-.1,1-.14,1.47s-.07,1-.12,1.54l-.14,1.54c0,.5-.09,1-.19,1.59a9.69,9.69,0,0,1-1.15,3.09c-.57.92-1.08,1.71-1.54,2.63a16.62,16.62,0,0,0-1.82,5.74Z"/><path class="cls-3" d="M151.74,121.34c-.16-2.2-.19-4.36-.17-6.55s.14-4.34.38-6.51a45.1,45.1,0,0,1,1.1-6.42,23.73,23.73,0,0,1,2.37-6,23.26,23.26,0,0,0-2,6.12,44.39,44.39,0,0,0-.68,6.4c-.1,2.14-.06,4.28,0,6.42s.29,4.29.58,6.38Z"/><path class="cls-4" d="M100.51,129.91s-6.34,2.72-5,5.15,2.42,2.5,2.42,2.5-2.74,1.71-2.6,4.45c.14,3,1.66,4.78,4.2,4.1,1.85-.5,22.82-4.92,31.08-5.89s22,.14,22,.14l6.3.55a5.41,5.41,0,0,0,3.86-.36,4.33,4.33,0,0,0,3-3.19c.8-3-1.87-7.37-5.07-7.09-2.06.18-1.08-1.66-.13-3a3.67,3.67,0,0,0-3.06-5.72C151.46,121.76,134.22,120,100.51,129.91Z"/><path class="cls-5" d="M113.12,229.23a1.54,1.54,0,0,1-1.14-.44,1.43,1.43,0,0,1-.43-1.06V206.92l.43.51L107.74,210a1.49,1.49,0,0,1-.73.18,1.35,1.35,0,0,1-1.06-.49,1.52,1.52,0,0,1-.44-1,1.46,1.46,0,0,1,.77-1.28l6-3.54a1.89,1.89,0,0,1,1.1-.22,1.26,1.26,0,0,1,1,.42,1.55,1.55,0,0,1,.36,1v22.64a1.4,1.4,0,0,1-.44,1.06A1.5,1.5,0,0,1,113.12,229.23Z"/><path class="cls-5" d="M128.92,229.6a7.63,7.63,0,0,1-5.07-1.72,10.65,10.65,0,0,1-3.07-4.72,22.42,22.42,0,0,1,0-13.5,10.68,10.68,0,0,1,3.07-4.68A8.33,8.33,0,0,1,134,205a10.48,10.48,0,0,1,3,4.68,22.84,22.84,0,0,1,0,13.5,10.45,10.45,0,0,1-3,4.72A7.63,7.63,0,0,1,128.92,229.6Zm0-3a4.61,4.61,0,0,0,3.27-1.24,7.76,7.76,0,0,0,2-3.53,18.5,18.5,0,0,0,.7-5.43,18.69,18.69,0,0,0-.7-5.47,7.68,7.68,0,0,0-2-3.51,5,5,0,0,0-6.54,0A7.79,7.79,0,0,0,123.6,211a18.34,18.34,0,0,0-.71,5.47,18.15,18.15,0,0,0,.71,5.43,7.87,7.87,0,0,0,2.05,3.53A4.61,4.61,0,0,0,128.92,226.63Z"/><path class="cls-5" d="M150.9,229.6a7.59,7.59,0,0,1-5.06-1.72,10.58,10.58,0,0,1-3.08-4.72,22.42,22.42,0,0,1,0-13.5,10.61,10.61,0,0,1,3.08-4.68A8.32,8.32,0,0,1,156,205a10.48,10.48,0,0,1,3.05,4.68,22.63,22.63,0,0,1,0,13.5,10.45,10.45,0,0,1-3.05,4.72A7.59,7.59,0,0,1,150.9,229.6Zm0-3a4.62,4.62,0,0,0,3.28-1.24,7.85,7.85,0,0,0,2-3.53,18.87,18.87,0,0,0,.69-5.43,19.06,19.06,0,0,0-.69-5.47,7.77,7.77,0,0,0-2-3.51,5,5,0,0,0-6.55,0,7.88,7.88,0,0,0-2,3.51,18.67,18.67,0,0,0-.71,5.47,18.48,18.48,0,0,0,.71,5.43,8,8,0,0,0,2,3.53A4.61,4.61,0,0,0,150.9,226.63Z"/><path class="cls-4" d="M129.14,275.21a17.11,17.11,0,0,1-6.28-1.06,16.7,16.7,0,0,1-5.21-3.38,3.06,3.06,0,0,1-.56-.75,1.81,1.81,0,0,1-.22-.89,2,2,0,0,1,.56-1.38,1.8,1.8,0,0,1,1.37-.6,1.62,1.62,0,0,1,1.21.53,13.9,13.9,0,0,0,4.08,2.8,12.29,12.29,0,0,0,5,1,10.46,10.46,0,0,0,3.84-.68,6.68,6.68,0,0,0,2.73-1.89,4.23,4.23,0,0,0,1-2.8,4.93,4.93,0,0,0-1.13-3.19,8.62,8.62,0,0,0-3-2.1,24.19,24.19,0,0,0-4.42-1.42,27.13,27.13,0,0,1-4.08-1.31,12,12,0,0,1-3.21-1.91,7.71,7.71,0,0,1-2.11-2.75,8.93,8.93,0,0,1-.75-3.79,8.19,8.19,0,0,1,1.46-4.83,9.38,9.38,0,0,1,4-3.22,14.58,14.58,0,0,1,5.9-1.13,16.2,16.2,0,0,1,5.58,1,11,11,0,0,1,4.23,2.66,2.57,2.57,0,0,1,1,1.79,1.86,1.86,0,0,1-.6,1.33,1.9,1.9,0,0,1-1.38.6,1.44,1.44,0,0,1-1-.38,8.37,8.37,0,0,0-2.08-1.65,12.64,12.64,0,0,0-2.76-1.16,10.6,10.6,0,0,0-3-.43,10.9,10.9,0,0,0-3.91.65,6.12,6.12,0,0,0-2.64,1.84,4.38,4.38,0,0,0-.94,2.82,4.33,4.33,0,0,0,1.06,3,7.85,7.85,0,0,0,2.85,1.94,31.29,31.29,0,0,0,4,1.32,40.38,40.38,0,0,1,4.37,1.33,13.29,13.29,0,0,1,3.45,1.86,7.45,7.45,0,0,1,2.25,2.83,10,10,0,0,1,.8,4.23,7.86,7.86,0,0,1-1.5,4.73A10.07,10.07,0,0,1,135,274,14.36,14.36,0,0,1,129.14,275.21Zm2.18,4.45a1.88,1.88,0,0,1-.56,1.38,1.91,1.91,0,0,1-1.42.55A1.81,1.81,0,0,1,128,281a1.93,1.93,0,0,1-.53-1.38V237.53a1.94,1.94,0,0,1,.56-1.4,2,2,0,0,1,2.78,0,2,2,0,0,1,.53,1.4Z"/></g></g></svg>