<svg xmlns="http://www.w3.org/2000/svg" viewBox="0 0 329.08 426.26"><defs><style>.cls-1{fill:none;}.cls-2{fill:#d3f7a4;}.cls-3{fill:#58d313;}.cls-4{fill:#25a5dd;}.cls-5{fill:#363026;}</style></defs><g id="Layer_2" data-name="Layer 2"><g id="Layer_1-2" data-name="Layer 1"><rect class="cls-1" width="329.08" height="426.26"/><path class="cls-2" d="M94.26,149.27s-29.17,33.61-37.5,52.22-13.89,50.28-8.89,56.67-8.61,16.39-8.61,16.39-8.06,7.78-1.95,16.39,19.17,0,19.17,0,2.22,6.94,12.22,6.11,19.45-3.89,19.45-4.73,10,6.69,18,6.54,33.89,2.91,47.22-4,10-2.77,10-2.77,19.45,3.89,20.84-3.06,3.89-.28,3.89-.28.55,3.34,13.61,2.5,10-7.5,10-7.5-4.17-13.33-8.06-21.11S199,244.55,199,244.55s-3.06-39.72-15-59.17-10.56-23.64-28.89-41.13c0,.18-13-1.87-27.78-1.09C114.2,143.85,94.26,149.27,94.26,149.27Z"/><path class="cls-3" d="M125.66,299.82c-4.62,0-9-.19-12.55-.34-2.83-.12-5.27-.23-6.9-.2-5.8.1-12.37-3.56-15.92-5.53-.78-.44-1.58-.88-1.94-1-1.57,1.59-11.61,4.08-19.61,4.74-8.65.73-11.7-4.3-12.46-5.91-2.33,1.39-13.67,7.57-19.31-.37-6.24-8.8,1.92-16.85,2-16.93s8.76-6.5,9.53-12.13a4.74,4.74,0,0,0-1-3.7c-5.28-6.75.69-38.91,8.84-57.1,8.26-18.45,37.27-52,37.56-52.32l.09-.1.12,0c.2-.06,20.14-5.44,33.14-6.13a165.1,165.1,0,0,1,26.2,1l1.19.12,0-.52.68.65c13.06,12.46,16.1,18.11,21.13,27.47,2.05,3.8,4.37,8.12,7.82,13.74,11.86,19.31,15,59,15.06,59.36,0,.1.88,10.28,4.68,17.9s8,21,8.08,21.17a4.62,4.62,0,0,1-.31,4.08c-1.36,2.29-4.75,3.62-10.06,4-13.05.84-14-2.47-14.05-2.85-.4-1-1.28-2.58-1.82-2.53-.12,0-.72.19-1.24,2.82-1.46,7.27-20.52,3.55-21.33,3.39l-.67-.14.43-.53a1.38,1.38,0,0,0,.28-.57c-.14-.07-1.38-.39-9.76,4C146.35,299,135.42,299.82,125.66,299.82Zm-18.84-1.38c1.62,0,3.82.1,6.32.2,11.07.48,29.59,1.29,40.09-4.18,9.72-5.06,10.45-4.17,10.81-3.74a1,1,0,0,1,.05,1c3.21.56,18.6,3,19.76-2.84.46-2.31,1.09-3.42,2-3.49,1.42-.09,2.49,2.6,2.7,3.15,0,.09.92,3,13.19,2.23,4.94-.32,8.19-1.54,9.39-3.55a3.83,3.83,0,0,0,.26-3.36c-.06-.18-4.22-13.44-8-21.1s-4.76-18.1-4.77-18.21c0-.4-3.18-39.84-14.94-59-3.47-5.65-5.79-10-7.84-13.79-5-9.25-8-14.85-20.85-27.13-.26,0-.7-.06-1.53-.15a162.53,162.53,0,0,0-26.06-.95c-12.39.65-31.15,5.61-32.85,6.06-1.73,2-29.36,34.17-37.35,52C48.49,221,43.56,252,48.2,257.9a5.6,5.6,0,0,1,1.13,4.34c-.82,6-9.46,12.37-9.82,12.64s-7.68,7.6-1.86,15.81,18.47,0,18.6-.1l.46-.3.17.52c.09.27,2.26,6.61,11.79,5.82s18.22-3.61,19.06-4.4v-.14l.23-.18c.36-.21.74,0,2.74,1.11,3.43,1.9,9.77,5.43,15.26,5.43h.86Z"/><path class="cls-2" d="M152.24,124.72s2.09-9.37,9.17-14.37,5.94-1.56,9.69-7.29,9-15.73,10.52-15.52,4.69-17-2.29-18.55-20.73-2.5-25.63,0l-4.89,2.5a7.22,7.22,0,0,1-2-4c-.21-2.31-.42-8.25-15.32-9.39S115,63,115,63s1.85,13.45,1.46,14.79c-.47,1.62-1.15,2.82-8.33,1.05s-3.86-5.94-13.54-5.42-11.15,2.81-13.75,2.81-11.25-2.29-21.88,2.29,2.4,17,5.31,18.34A48.81,48.81,0,0,1,83,110.87c7.61,9.27,12.29,22.21,12.29,22.21S123.55,124,152.24,124.72Z"/><path class="cls-3" d="M95,133.6l-.14-.38c0-.13-4.74-13-12.21-22.09A48.2,48.2,0,0,0,64.57,97.42l-.52-.24c-2.1-1-9.74-7.8-9.66-13.5,0-2.48,1.5-4.36,4.36-5.59a37.06,37.06,0,0,1,20-2.5c.86.1,1.53.18,2,.18a7.57,7.57,0,0,0,2.65-.68A33.05,33.05,0,0,1,94.51,73c5.79-.31,7.1,1,8.62,2.55a9,9,0,0,0,5.05,2.88c7.1,1.75,7.45.53,7.83-.75.27-.92-.76-9.46-1.47-14.62v-.08l0-.09c.07-.26,1.93-6.36,17-5.2s15.46,7.09,15.68,9.63v.14A6.69,6.69,0,0,0,148.9,71l4.61-2.36c5.29-2.7,19.46-1.47,25.91,0,5.22,1.17,5.11,9.9,4.22,14.88-.38,2.12-1,4.62-2.08,4.48-.89,0-4.19,5.56-6.37,9.23-1.27,2.13-2.58,4.33-3.74,6.11-2.27,3.46-2.85,3.69-4.38,4.32a24.14,24.14,0,0,0-5.42,3.08c-6.86,4.84-9,14-9,14.12l-.08.34h-.34c-28.29-.71-56.57,8.25-56.85,8.34ZM72.83,76a34.17,34.17,0,0,0-13.75,2.84c-2.53,1.09-3.83,2.71-3.86,4.84C55.15,89,62.48,95.54,64.4,96.43l.51.24A48.83,48.83,0,0,1,83.3,110.61c6.84,8.34,11.37,19.76,12.21,22,3.45-1.06,29.87-8.85,56.41-8.26.45-1.75,2.79-9.73,9.25-14.29a25.28,25.28,0,0,1,5.58-3.17c1.4-.57,1.87-.76,4-4,1.15-1.76,2.46-4,3.72-6.08,4-6.64,5.88-9.63,7.11-9.63h0c.71-.56,2.26-6.86,1.43-12.1-.36-2.26-1.31-5.06-3.8-5.62-7.2-1.61-20.65-2.43-25.34,0L148.73,72l-.22-.21a7.69,7.69,0,0,1-2.1-4.3v-.15c-.21-2.33-.68-7.77-14.92-8.87-13.41-1-15.84,3.87-16.1,4.53.24,1.78,1.83,13.5,1.43,14.86-.56,1.92-1.52,3.13-8.83,1.33a9.94,9.94,0,0,1-5.45-3.1c-1.43-1.45-2.56-2.6-8-2.3a32.09,32.09,0,0,0-10.83,2.08,8.09,8.09,0,0,1-2.94.73c-.51,0-1.2-.08-2.08-.18A49.92,49.92,0,0,0,72.83,76Z"/><path class="cls-3" d="M116.46,77.45a8.63,8.63,0,0,0,3.27-.7A10.1,10.1,0,0,0,122.52,75,6.75,6.75,0,0,0,125,69.33a4.09,4.09,0,0,0-.88-2.88A7.52,7.52,0,0,0,121.31,65L118.08,64c-1.07-.37-2.15-.72-3.21-1.12,1.11.22,2.21.49,3.32.73l3.31.82a7.43,7.43,0,0,1,3.21,1.5,3.56,3.56,0,0,1,.93,1.64,7.31,7.31,0,0,1,.23,1.78,10.72,10.72,0,0,1-.09,1.77,6.66,6.66,0,0,1-.59,1.71,8.45,8.45,0,0,1-2.26,2.7A8.78,8.78,0,0,1,116.46,77.45Z"/><path class="cls-3" d="M102.85,75.71c1.71,2.67,3.27,5.43,4.76,8.24s2.83,5.69,4,8.63a55.15,55.15,0,0,1,3.11,9.07,30.75,30.75,0,0,1,.68,9.56h-.16c-.58-3.14-1.29-6.16-2.14-9.17l-1.31-4.5c-.4-1.52-.92-3-1.42-4.49-1-3-2.26-5.87-3.56-8.75s-2.64-5.74-4.15-8.52Z"/><path class="cls-3" d="M92.11,91.43a56.78,56.78,0,0,0,6.62,8c1.23,1.23,2.47,2.38,3.78,3.56a22.61,22.61,0,0,1,3.48,4.16,33.61,33.61,0,0,1,2.53,4.73,42.86,42.86,0,0,1,1.77,5,33.18,33.18,0,0,1,1.33,10.47,54.38,54.38,0,0,0-2.57-10.08,44.24,44.24,0,0,0-4.45-9.24,22.74,22.74,0,0,0-3.17-3.93c-1.22-1.22-2.52-2.47-3.65-3.83A33.83,33.83,0,0,1,92.11,91.43Z"/><path class="cls-3" d="M125.18,71.91a32.76,32.76,0,0,1,5.28,8.33A24.89,24.89,0,0,1,132,85c.19.82.28,1.66.39,2.49l.2,2.46c.23,3.28.51,6.56.42,9.84a77.33,77.33,0,0,1-.77,9.83h-.16c-.42-3.28-.6-6.55-.74-9.81s0-6.53-.08-9.79l-.07-2.44a24.4,24.4,0,0,0-1.48-7A32.4,32.4,0,0,0,125.06,72Z"/><path class="cls-3" d="M128.3,125.92a21.89,21.89,0,0,0,.47-2.36q.16-1.22.21-2.43a22.41,22.41,0,0,0-.33-4.9,23,23,0,0,1,.75,4.89c0,.83,0,1.67,0,2.5a21.73,21.73,0,0,1-.28,2.5Z"/><path class="cls-3" d="M141,94.88a13.55,13.55,0,0,1,1-6.18,23,23,0,0,1,1.37-2.82,9.54,9.54,0,0,0,.87-2.71c.07-.46.1-1,.14-1.48l.14-1.54c0-.51.09-1,.15-1.53A12.62,12.62,0,0,1,145,77a7.8,7.8,0,0,1,3.58-5.31l.85-.46-.45.89a5.21,5.21,0,0,0,0,4.27,7.68,7.68,0,0,0,3,3.27A17.15,17.15,0,0,0,156,81.62a42.34,42.34,0,0,0,4.38,1.25,66.39,66.39,0,0,0,9,1.58,42.74,42.74,0,0,0,4.52.22c.75,0,1.5,0,2.24-.11a13.64,13.64,0,0,0,2.14-.36l.1,0a8.14,8.14,0,0,0,2.19-.83,6,6,0,0,0,1.81-1.54,5.81,5.81,0,0,0,1-2.17,8.71,8.71,0,0,0,.18-2.51l.17,0a7.91,7.91,0,0,1,.19,2.62,5.87,5.87,0,0,1-.87,2.57,7.1,7.1,0,0,1-1.91,2,8,8,0,0,1-2.52,1.19l.1,0a17.79,17.79,0,0,1-4.79.86,35.81,35.81,0,0,1-4.75-.09A51.18,51.18,0,0,1,160,84.36a24,24,0,0,1-8.55-4,9.66,9.66,0,0,1-3-3.73,6.32,6.32,0,0,1,0-4.76l.4.43a5.08,5.08,0,0,0-1.76,2.18,9.37,9.37,0,0,0-.76,2.81c-.07.48-.1,1-.14,1.46s-.08,1-.12,1.55l-.14,1.54c-.06.5-.1,1-.2,1.58a9.59,9.59,0,0,1-1.15,3.1A28.39,28.39,0,0,0,143,89.14a16.57,16.57,0,0,0-1.83,5.74Z"/><path class="cls-3" d="M146.48,124.51c-.16-2.21-.19-4.37-.16-6.55s.13-4.35.37-6.51A44.88,44.88,0,0,1,147.8,105a23.63,23.63,0,0,1,2.36-6,23.42,23.42,0,0,0-1.95,6.13,44.12,44.12,0,0,0-.69,6.39c-.1,2.14-.06,4.29,0,6.43s.29,4.29.58,6.38Z"/><path class="cls-4" d="M95.26,133.08s-6.35,2.72-5,5.15,2.42,2.5,2.42,2.5-2.73,1.71-2.6,4.44c.14,3,1.66,4.79,4.21,4.1,1.84-.49,22.81-4.91,31.08-5.88s22,.13,22,.13l6.31.55a5.34,5.34,0,0,0,3.85-.35,4.38,4.38,0,0,0,3-3.2c.79-3-1.88-7.36-5.07-7.08-2.06.18-1.09-1.67-.14-3a3.47,3.47,0,0,0,.21-3.75,3.52,3.52,0,0,0-3.27-2C146.2,124.93,129,123.21,95.26,133.08Z"/><path class="cls-5" d="M107.86,232.4a1.54,1.54,0,0,1-1.13-.44,1.46,1.46,0,0,1-.44-1.06V210.08l.44.52-4.24,2.56a1.53,1.53,0,0,1-.74.18,1.38,1.38,0,0,1-1.06-.49,1.54,1.54,0,0,1-.44-1,1.45,1.45,0,0,1,.77-1.28l6-3.55a2,2,0,0,1,1.1-.22,1.23,1.23,0,0,1,1,.42,1.56,1.56,0,0,1,.37,1V230.9A1.46,1.46,0,0,1,109,232,1.56,1.56,0,0,1,107.86,232.4Z"/><path class="cls-5" d="M123.66,232.76A7.53,7.53,0,0,1,118.6,231a10.51,10.51,0,0,1-3.07-4.72,22.19,22.19,0,0,1,0-13.49,10.48,10.48,0,0,1,3.07-4.68,8.32,8.32,0,0,1,10.13,0,10.47,10.47,0,0,1,3.06,4.68,22.81,22.81,0,0,1,0,13.49,10.49,10.49,0,0,1-3.06,4.72A7.54,7.54,0,0,1,123.66,232.76Zm0-3a4.62,4.62,0,0,0,3.28-1.24,7.9,7.9,0,0,0,2-3.53,21.87,21.87,0,0,0,0-10.9,7.75,7.75,0,0,0-2-3.52,5,5,0,0,0-6.55,0,7.86,7.86,0,0,0-2,3.52,21.27,21.27,0,0,0,0,10.9,8,8,0,0,0,2,3.53A4.61,4.61,0,0,0,123.66,229.8Z"/><path class="cls-5" d="M145.65,232.76a7.56,7.56,0,0,1-5.07-1.72,10.51,10.51,0,0,1-3.07-4.72,22.39,22.39,0,0,1,0-13.49,10.48,10.48,0,0,1,3.07-4.68,8.32,8.32,0,0,1,10.13,0,10.38,10.38,0,0,1,3.06,4.68,22.81,22.81,0,0,1,0,13.49,10.41,10.41,0,0,1-3.06,4.72A7.53,7.53,0,0,1,145.65,232.76Zm0-3a4.61,4.61,0,0,0,3.27-1.24,7.81,7.81,0,0,0,2-3.53,21.57,21.57,0,0,0,0-10.9,7.66,7.66,0,0,0-2-3.52,5,5,0,0,0-6.55,0,7.76,7.76,0,0,0-2,3.52,21,21,0,0,0,0,10.9,7.91,7.91,0,0,0,2,3.53A4.64,4.64,0,0,0,145.65,229.8Z"/><path class="cls-4" d="M123.89,278.38a17,17,0,0,1-6.28-1.06,16.66,16.66,0,0,1-5.22-3.39,3.07,3.07,0,0,1-.56-.74,2,2,0,0,1-.21-.9,2,2,0,0,1,.55-1.37,1.78,1.78,0,0,1,1.38-.61,1.7,1.7,0,0,1,1.21.53,13.69,13.69,0,0,0,4.08,2.81,12.24,12.24,0,0,0,5,1,10.18,10.18,0,0,0,3.84-.68,6.53,6.53,0,0,0,2.73-1.88,4.2,4.2,0,0,0,1-2.8,4.92,4.92,0,0,0-1.14-3.19,8.24,8.24,0,0,0-3-2.1,24.69,24.69,0,0,0-4.42-1.43,26.92,26.92,0,0,1-4.09-1.3,12.29,12.29,0,0,1-3.21-1.91,7.89,7.89,0,0,1-2.1-2.75,9,9,0,0,1-.75-3.8,8.23,8.23,0,0,1,1.45-4.83,9.4,9.4,0,0,1,4-3.21,14.36,14.36,0,0,1,5.89-1.14,16.12,16.12,0,0,1,5.58,1,10.69,10.69,0,0,1,4.23,2.66,2.59,2.59,0,0,1,1,1.79,1.81,1.81,0,0,1-.61,1.32,1.86,1.86,0,0,1-1.37.61,1.41,1.41,0,0,1-1-.39,8.34,8.34,0,0,0-2.08-1.64,12.56,12.56,0,0,0-2.75-1.16,11.23,11.23,0,0,0-6.91.22,5.93,5.93,0,0,0-2.63,1.83,4.75,4.75,0,0,0,.12,5.85,7.83,7.83,0,0,0,2.85,1.93,31.09,31.09,0,0,0,4,1.33,39.06,39.06,0,0,1,4.37,1.33,13.36,13.36,0,0,1,3.46,1.86,7.49,7.49,0,0,1,2.24,2.82,10.07,10.07,0,0,1,.8,4.23,7.91,7.91,0,0,1-1.5,4.74,10.15,10.15,0,0,1-4.08,3.26A14.27,14.27,0,0,1,123.89,278.38Zm2.17,4.44a1.87,1.87,0,0,1-.55,1.38,1.94,1.94,0,0,1-1.43.56,1.78,1.78,0,0,1-1.35-.56,1.89,1.89,0,0,1-.53-1.38V240.7a2,2,0,0,1,.55-1.41,1.86,1.86,0,0,1,1.38-.58,1.82,1.82,0,0,1,1.4.58,2,2,0,0,1,.53,1.41Z"/><path class="cls-2" d="M123.71,175.51s-29.17,33.61-37.5,52.23S72.32,278,77.32,284.4s-8.61,16.39-8.61,16.39-8.06,7.78-1.95,16.39,19.17,0,19.17,0,2.22,6.94,12.22,6.11,19.45-3.89,19.45-4.72,10,6.69,18.05,6.54,33.89,2.9,47.22-4,10-2.78,10-2.78,19.45,3.89,20.84-3.06,3.88-.27,3.88-.27.56,3.33,13.62,2.5,10-7.5,10-7.5-4.17-13.34-8.06-21.11-4.72-18.06-4.72-18.06-3.06-39.72-15-59.17S202.87,188,184.54,170.5c0,.17-12.95-1.88-27.78-1.1C143.65,170.09,123.71,175.51,123.71,175.51Z"/><path class="cls-3" d="M155.11,326.06c-4.62,0-9-.18-12.55-.34-2.83-.12-5.27-.23-6.9-.2-5.8.1-12.37-3.56-15.92-5.53-.78-.44-1.58-.88-1.94-1-1.57,1.59-11.61,4.08-19.61,4.74-8.65.73-11.7-4.3-12.46-5.91-2.33,1.4-13.67,7.57-19.31-.37-6.24-8.8,1.91-16.85,2-16.93S77.18,294,78,288.36a4.74,4.74,0,0,0-1-3.7c-5.28-6.75.69-38.9,8.84-57.09,8.26-18.46,37.27-52,37.56-52.33l.08-.1.13,0c.2-.05,20.14-5.44,33.14-6.12a164.22,164.22,0,0,1,26.2.95l1.19.13v-.53l.69.65c13.06,12.46,16.1,18.11,21.13,27.47,2,3.81,4.37,8.12,7.82,13.75,11.86,19.3,15,59,15.06,59.35,0,.1.88,10.29,4.68,17.9s8,21,8.08,21.17a4.66,4.66,0,0,1-.31,4.08c-1.36,2.29-4.75,3.62-10.06,4-13,.84-14-2.47-14-2.85-.4-1-1.28-2.57-1.82-2.53-.12,0-.72.19-1.25,2.83-1.45,7.27-20.51,3.54-21.32,3.38l-.67-.14.43-.53a1.38,1.38,0,0,0,.28-.57c-.14-.07-1.38-.39-9.76,4C175.8,325.22,164.87,326.06,155.11,326.06Zm-18.84-1.38c1.62,0,3.82.1,6.32.21,11.07.48,29.59,1.28,40.09-4.19,9.71-5.06,10.45-4.17,10.81-3.74a1,1,0,0,1,0,1c3.21.57,18.59,3,19.76-2.84.46-2.31,1.09-3.42,2-3.49,1.42-.09,2.49,2.6,2.69,3.15,0,.09.93,3,13.2,2.23,4.94-.31,8.18-1.54,9.39-3.54a3.85,3.85,0,0,0,.26-3.37c-.06-.18-4.22-13.44-8.05-21.1S228,270.93,228,270.82c0-.39-3.18-39.84-14.94-59-3.47-5.65-5.79-10-7.84-13.78-5-9.26-8-14.86-20.85-27.14-.26,0-.7-.06-1.53-.15a163.84,163.84,0,0,0-26.07-1c-12.38.65-31.14,5.61-32.84,6.06-1.73,2-29.36,34.17-37.35,52-8.65,19.3-13.58,50.31-8.94,56.23a5.61,5.61,0,0,1,1.13,4.34c-.82,6-9.46,12.38-9.83,12.65s-7.68,7.6-1.85,15.81,18.47,0,18.6-.11l.46-.3.17.52c.08.27,2.26,6.61,11.79,5.82s18.22-3.6,19.06-4.4v-.14l.23-.17c.36-.21.74,0,2.74,1.1,3.43,1.91,9.77,5.43,15.26,5.43h.86Z"/><path class="cls-2" d="M181.69,151s2.09-9.38,9.17-14.38,5.94-1.56,9.69-7.29,8.95-15.73,10.52-15.52,4.68-17-2.29-18.54-20.73-2.5-25.63,0l-4.9,2.5a7.28,7.28,0,0,1-2-4c-.21-2.31-.42-8.24-15.32-9.39s-16.56,4.9-16.56,4.9,1.85,13.44,1.46,14.79c-.47,1.61-1.15,2.81-8.33,1s-3.86-5.94-13.55-5.42-11.14,2.81-13.75,2.81-11.25-2.29-21.87,2.3,2.4,17,5.31,18.33a48.81,48.81,0,0,1,18.75,14.06c7.61,9.27,12.28,22.21,12.28,22.21S153,150.24,181.69,151Z"/><path class="cls-3" d="M124.45,159.84l-.14-.38c0-.12-4.74-13-12.21-22.08A48.09,48.09,0,0,0,94,123.67l-.52-.24c-2.1-1-9.74-7.81-9.66-13.5,0-2.48,1.5-4.36,4.35-5.6a37.19,37.19,0,0,1,20.06-2.5c.85.1,1.53.18,2,.18a7.48,7.48,0,0,0,2.65-.67A32.67,32.67,0,0,1,124,99.2c5.79-.31,7.1,1,8.61,2.55a9.18,9.18,0,0,0,5.06,2.87c7.1,1.75,7.45.54,7.83-.75.27-.92-.76-9.45-1.47-14.62v-.08l0-.09c.07-.26,1.93-6.36,17-5.2s15.47,7.09,15.69,9.63v.15a6.69,6.69,0,0,0,1.66,3.56L183,94.87c5.29-2.71,19.46-1.48,25.91,0,5.21,1.17,5.11,9.9,4.22,14.88-.38,2.12-1,4.62-2.08,4.48-.89,0-4.19,5.57-6.37,9.23-1.27,2.13-2.58,4.33-3.75,6.11-2.26,3.46-2.84,3.7-4.37,4.32a25,25,0,0,0-5.42,3.08c-6.87,4.85-9,14-9,14.13l-.08.33h-.34c-28.3-.71-56.57,8.25-56.85,8.34Zm-22.17-57.57a34.11,34.11,0,0,0-13.75,2.83c-2.53,1.09-3.83,2.72-3.86,4.84-.07,5.26,7.25,11.84,9.18,12.73l.51.24a48.75,48.75,0,0,1,18.38,13.94c6.84,8.34,11.38,19.76,12.22,22,3.45-1.06,29.87-8.86,56.41-8.27.44-1.75,2.79-9.73,9.25-14.29a25.28,25.28,0,0,1,5.58-3.17c1.4-.57,1.87-.76,4-4,1.15-1.76,2.46-3.95,3.72-6.08,4-6.64,5.88-9.63,7.1-9.63h0c.71-.55,2.26-6.86,1.43-12.1-.36-2.25-1.31-5.06-3.8-5.62-7.2-1.61-20.66-2.42-25.34,0l-5.16,2.63L178,98a7.74,7.74,0,0,1-2.1-4.31v-.15c-.21-2.32-.68-7.77-14.92-8.86-13.41-1-15.84,3.87-16.1,4.52.24,1.79,1.83,13.5,1.43,14.86-.56,1.92-1.52,3.14-8.83,1.33a9.94,9.94,0,0,1-5.45-3.1c-1.43-1.45-2.56-2.59-8-2.3a32,32,0,0,0-10.83,2.09,8.27,8.27,0,0,1-3,.72c-.5,0-1.19-.08-2.07-.18A50.22,50.22,0,0,0,102.28,102.27Z"/><path class="cls-3" d="M145.91,103.69a8.63,8.63,0,0,0,3.27-.7,9.68,9.68,0,0,0,2.78-1.75,6.73,6.73,0,0,0,2.53-5.67,4.05,4.05,0,0,0-.89-2.88,7.54,7.54,0,0,0-2.84-1.44l-3.23-1c-1.07-.38-2.15-.73-3.21-1.13,1.11.22,2.21.49,3.32.73l3.31.83a7.29,7.29,0,0,1,3.21,1.49,3.56,3.56,0,0,1,.93,1.64,7.31,7.31,0,0,1,.23,1.78,9.71,9.71,0,0,1-.1,1.77,6.28,6.28,0,0,1-.58,1.71,8.36,8.36,0,0,1-2.27,2.7A8.74,8.74,0,0,1,145.91,103.69Z"/><path class="cls-3" d="M132.3,102c1.71,2.67,3.27,5.43,4.76,8.24s2.83,5.69,4.05,8.63a54.19,54.19,0,0,1,3.1,9.07,30.5,30.5,0,0,1,.69,9.57h-.17c-.57-3.14-1.29-6.16-2.13-9.17l-1.31-4.5c-.4-1.51-.92-3-1.42-4.49-1.05-3-2.26-5.87-3.56-8.75s-2.64-5.74-4.15-8.52Z"/><path class="cls-3" d="M121.55,117.67a57,57,0,0,0,6.63,8c1.23,1.23,2.47,2.38,3.78,3.56a22.61,22.61,0,0,1,3.48,4.16,34.17,34.17,0,0,1,2.53,4.73,43.52,43.52,0,0,1,1.77,5,33.22,33.22,0,0,1,1.33,10.47,53.82,53.82,0,0,0-2.58-10.08,43.71,43.71,0,0,0-4.44-9.24,22.67,22.67,0,0,0-3.17-3.92c-1.22-1.23-2.52-2.48-3.65-3.83A34.35,34.35,0,0,1,121.55,117.67Z"/><path class="cls-3" d="M154.63,98.15a32.64,32.64,0,0,1,5.28,8.34,24.45,24.45,0,0,1,1.52,4.76c.19.81.28,1.65.39,2.49l.2,2.46c.23,3.27.51,6.55.42,9.84a77.18,77.18,0,0,1-.77,9.82h-.17c-.41-3.28-.59-6.54-.73-9.81s0-6.53-.08-9.79l-.07-2.44c-.07-.79-.11-1.59-.26-2.38a23.78,23.78,0,0,0-1.22-4.65,32.15,32.15,0,0,0-4.64-8.53Z"/><path class="cls-3" d="M157.75,152.17a20.26,20.26,0,0,0,.46-2.37,23.31,23.31,0,0,0-.11-7.32,22.85,22.85,0,0,1,.75,4.89c0,.83,0,1.66,0,2.49a21.48,21.48,0,0,1-.28,2.5Z"/><path class="cls-3" d="M170.46,121.12a13.57,13.57,0,0,1,1-6.18,23,23,0,0,1,1.37-2.82,9.22,9.22,0,0,0,.86-2.71c.08-.46.11-1,.15-1.48l.14-1.54c.05-.51.09-1,.15-1.53a14.67,14.67,0,0,1,.27-1.59A7.87,7.87,0,0,1,178,98l.86-.45-.45.88a5.17,5.17,0,0,0,0,4.27,7.71,7.71,0,0,0,3,3.28,17.52,17.52,0,0,0,4.08,1.92,42.34,42.34,0,0,0,4.38,1.25,66.12,66.12,0,0,0,9,1.58,40.12,40.12,0,0,0,4.52.22,20.87,20.87,0,0,0,2.24-.11,13.66,13.66,0,0,0,2.14-.35l.1,0a7.82,7.82,0,0,0,2.19-.83,6.05,6.05,0,0,0,1.81-1.53,5.92,5.92,0,0,0,1-2.18,8.71,8.71,0,0,0,.18-2.51l.17,0a7.91,7.91,0,0,1,.19,2.62,5.87,5.87,0,0,1-.87,2.57,7,7,0,0,1-1.91,2,7.86,7.86,0,0,1-2.53,1.19l.11,0a17.79,17.79,0,0,1-4.79.86,37.59,37.59,0,0,1-4.75-.08,52.37,52.37,0,0,1-9.24-1.87,24.07,24.07,0,0,1-8.54-4,9.59,9.59,0,0,1-3-3.73,6.37,6.37,0,0,1,0-4.76l.41.43a5.11,5.11,0,0,0-1.76,2.19,9,9,0,0,0-.76,2.8c-.08.48-.1,1-.14,1.47s-.08,1-.12,1.54l-.14,1.54c-.06.5-.1,1-.2,1.59a9.54,9.54,0,0,1-1.15,3.09,29.76,29.76,0,0,0-1.53,2.63,16.57,16.57,0,0,0-1.83,5.74Z"/><path class="cls-3" d="M175.93,150.75c-.16-2.21-.19-4.37-.17-6.55s.14-4.35.38-6.51a43.53,43.53,0,0,1,1.11-6.42,23.42,23.42,0,0,1,2.36-6,23.63,23.63,0,0,0-2,6.12,45.71,45.71,0,0,0-.68,6.39c-.1,2.14-.06,4.29,0,6.43s.29,4.29.58,6.38Z"/><path class="cls-4" d="M124.7,159.32s-6.34,2.72-5,5.15,2.42,2.5,2.42,2.5-2.73,1.71-2.6,4.45c.14,3,1.66,4.78,4.21,4.09,1.84-.49,22.81-4.91,31.08-5.88s22,.13,22,.13l6.31.55a5.34,5.34,0,0,0,3.85-.35,4.36,4.36,0,0,0,3.05-3.2c.79-3-1.88-7.36-5.07-7.08-2.06.18-1.09-1.66-.14-3a3.45,3.45,0,0,0,.21-3.74,3.5,3.5,0,0,0-3.27-2C175.65,151.17,158.41,149.45,124.7,159.32Z"/><path class="cls-5" d="M137.31,258.64a1.54,1.54,0,0,1-1.13-.44,1.42,1.42,0,0,1-.44-1.06V236.33l.44.51-4.25,2.56a1.49,1.49,0,0,1-.73.18,1.36,1.36,0,0,1-1.06-.49,1.54,1.54,0,0,1-.44-1,1.46,1.46,0,0,1,.77-1.28l6-3.55a2,2,0,0,1,1.1-.22,1.26,1.26,0,0,1,1,.43,1.53,1.53,0,0,1,.36,1v22.64a1.45,1.45,0,0,1-.43,1.06A1.58,1.58,0,0,1,137.31,258.64Z"/><path class="cls-5" d="M153.11,259a7.59,7.59,0,0,1-5.06-1.72,10.58,10.58,0,0,1-3.08-4.72,22.42,22.42,0,0,1,0-13.5,10.5,10.5,0,0,1,3.08-4.68,8.32,8.32,0,0,1,10.13,0,10.37,10.37,0,0,1,3,4.68,22.63,22.63,0,0,1,0,13.5,10.45,10.45,0,0,1-3,4.72A7.59,7.59,0,0,1,153.11,259Zm0-3a4.62,4.62,0,0,0,3.28-1.24,7.9,7.9,0,0,0,2-3.53,21.87,21.87,0,0,0,0-10.9,7.72,7.72,0,0,0-2-3.51,5,5,0,0,0-6.55,0,7.83,7.83,0,0,0-2.05,3.51,21.27,21.27,0,0,0,0,10.9,8,8,0,0,0,2.05,3.53A4.61,4.61,0,0,0,153.11,256Z"/><path class="cls-5" d="M175.1,259a7.59,7.59,0,0,1-5.07-1.72,10.56,10.56,0,0,1-3.07-4.72,22.42,22.42,0,0,1,0-13.5,10.48,10.48,0,0,1,3.07-4.68,8.32,8.32,0,0,1,10.13,0,10.38,10.38,0,0,1,3.06,4.68,22.84,22.84,0,0,1,0,13.5,10.46,10.46,0,0,1-3.06,4.72A7.59,7.59,0,0,1,175.1,259Zm0-3a4.61,4.61,0,0,0,3.27-1.24,7.81,7.81,0,0,0,2-3.53,21.57,21.57,0,0,0,0-10.9,7.63,7.63,0,0,0-2-3.51,5,5,0,0,0-6.55,0,7.83,7.83,0,0,0-2,3.51,21.27,21.27,0,0,0,0,10.9,8,8,0,0,0,2,3.53A4.62,4.62,0,0,0,175.1,256Z"/><path class="cls-4" d="M153.34,304.62a17,17,0,0,1-6.28-1.06,16.8,16.8,0,0,1-5.22-3.38,3.33,3.33,0,0,1-.56-.75,1.93,1.93,0,0,1-.21-.9,2,2,0,0,1,.55-1.37,1.81,1.81,0,0,1,1.38-.61,1.67,1.67,0,0,1,1.21.54,13.84,13.84,0,0,0,4.08,2.8,12.21,12.21,0,0,0,5,1,10.38,10.38,0,0,0,3.84-.67,6.68,6.68,0,0,0,2.73-1.89,4.2,4.2,0,0,0,1-2.8,5,5,0,0,0-1.14-3.19,8.24,8.24,0,0,0-3-2.1,24.57,24.57,0,0,0-4.43-1.42,27.13,27.13,0,0,1-4.08-1.31,12,12,0,0,1-3.21-1.91,7.8,7.8,0,0,1-2.1-2.75,8.93,8.93,0,0,1-.75-3.79,8.23,8.23,0,0,1,1.45-4.84,9.4,9.4,0,0,1,4-3.21,14.49,14.49,0,0,1,5.89-1.13,16.12,16.12,0,0,1,5.58,1,10.8,10.8,0,0,1,4.23,2.66,2.59,2.59,0,0,1,1,1.79,2.08,2.08,0,0,1-2,1.93,1.41,1.41,0,0,1-1-.39,8.34,8.34,0,0,0-2.08-1.64,12.56,12.56,0,0,0-2.75-1.16,11.44,11.44,0,0,0-6.91.22,6,6,0,0,0-2.63,1.83,4.42,4.42,0,0,0-.95,2.83,4.34,4.34,0,0,0,1.07,3,7.66,7.66,0,0,0,2.85,1.93,29.59,29.59,0,0,0,4,1.33,39.71,39.71,0,0,1,4.37,1.33,13.36,13.36,0,0,1,3.46,1.86,7.45,7.45,0,0,1,2.24,2.83,10,10,0,0,1,.8,4.22,7.89,7.89,0,0,1-1.5,4.74,10.15,10.15,0,0,1-4.08,3.26A14.31,14.31,0,0,1,153.34,304.62Zm2.17,4.45a1.9,1.9,0,0,1-.55,1.37,2,2,0,0,1-1.43.56,1.78,1.78,0,0,1-1.35-.56,1.89,1.89,0,0,1-.53-1.37V266.94a1.93,1.93,0,0,1,.55-1.4,2,2,0,0,1,2.78,0,2,2,0,0,1,.53,1.4Z"/><path class="cls-2" d="M147,193s-29.17,33.61-37.5,52.22-13.89,50.28-8.89,56.67S92,318.29,92,318.29s-8.06,7.78-2,16.39,19.17,0,19.17,0,2.22,6.94,12.22,6.11,19.45-3.89,19.45-4.72,10,6.68,18,6.53,33.89,2.91,47.22-4,10-2.78,10-2.78,19.45,3.89,20.84-3.06,3.88-.28,3.88-.28.56,3.34,13.62,2.5,10-7.5,10-7.5-4.17-13.33-8.06-21.11-4.72-18-4.72-18-3.06-39.72-15-59.17S226.17,205.48,207.84,188c0,.18-13-1.87-27.78-1.09C167,187.59,147,193,147,193Z"/><path class="cls-3" d="M178.41,343.56c-4.62,0-9-.19-12.55-.34-2.83-.12-5.27-.23-6.9-.2-5.8.1-12.37-3.56-15.92-5.53-.78-.44-1.58-.88-1.94-1-1.57,1.59-11.61,4.08-19.61,4.74-8.65.73-11.7-4.3-12.46-5.91-2.33,1.39-13.67,7.57-19.31-.37-6.24-8.8,1.92-16.85,2-16.93s8.76-6.5,9.53-12.13a4.74,4.74,0,0,0-1-3.7c-5.28-6.75.69-38.91,8.84-57.1,8.26-18.45,37.27-52,37.56-52.32l.09-.1.12,0c.2-.06,20.14-5.44,33.14-6.13a165.1,165.1,0,0,1,26.2,1l1.19.12V187l.69.65c13.06,12.46,16.1,18.11,21.13,27.47,2.05,3.8,4.37,8.12,7.82,13.74,11.86,19.31,15,59,15.06,59.36,0,.1.88,10.28,4.68,17.9s8,21,8.08,21.17a4.66,4.66,0,0,1-.31,4.08c-1.36,2.29-4.75,3.62-10.06,4-13.05.84-14-2.47-14.05-2.85-.4-1-1.28-2.58-1.82-2.53-.12,0-.72.19-1.25,2.82-1.45,7.27-20.51,3.55-21.32,3.39l-.67-.14.43-.53a1.38,1.38,0,0,0,.28-.57c-.14-.07-1.38-.39-9.76,4C199.1,342.72,188.17,343.56,178.41,343.56Zm-18.84-1.38c1.62,0,3.82.1,6.32.21,11.07.47,29.59,1.28,40.09-4.19,9.71-5.06,10.45-4.17,10.81-3.74a1,1,0,0,1,.05,1c3.21.56,18.59,3,19.76-2.84.46-2.31,1.09-3.42,2-3.49,1.42-.09,2.49,2.6,2.69,3.15,0,.09.93,3,13.2,2.23,4.94-.32,8.18-1.54,9.39-3.55a3.83,3.83,0,0,0,.26-3.36c-.06-.18-4.22-13.44-8.05-21.1s-4.76-18.1-4.77-18.21c0-.4-3.18-39.84-14.94-59-3.47-5.65-5.79-10-7.84-13.78-5-9.26-8-14.86-20.85-27.14-.26,0-.7-.06-1.53-.15a162.61,162.61,0,0,0-26.07-1c-12.38.65-31.14,5.61-32.84,6.06-1.73,2-29.36,34.17-37.35,52-8.65,19.31-13.58,50.32-8.94,56.24a5.6,5.6,0,0,1,1.13,4.34c-.82,6-9.46,12.37-9.83,12.64s-7.68,7.6-1.85,15.82,18.47,0,18.6-.11l.46-.3.17.52c.08.27,2.26,6.61,11.79,5.82s18.22-3.61,19.06-4.4v-.14l.23-.18c.36-.2.74,0,2.74,1.11,3.43,1.9,9.77,5.43,15.26,5.43h.86Z"/><path class="cls-2" d="M205,168.46s2.09-9.37,9.17-14.37,5.94-1.56,9.69-7.29,9-15.73,10.52-15.52,4.68-17-2.29-18.54-20.73-2.5-25.63,0l-4.9,2.5a7.28,7.28,0,0,1-2-4c-.21-2.31-.42-8.25-15.32-9.39s-16.56,4.89-16.56,4.89,1.85,13.45,1.46,14.79c-.47,1.62-1.15,2.82-8.33,1s-3.86-5.94-13.55-5.42-11.14,2.81-13.75,2.81-11.24-2.29-21.87,2.29,2.4,17,5.31,18.34a48.81,48.81,0,0,1,18.75,14.06c7.61,9.27,12.28,22.21,12.28,22.21S176.29,167.73,205,168.46Z"/><path class="cls-3" d="M147.75,177.34l-.14-.38c0-.13-4.74-13-12.21-22.09a48.2,48.2,0,0,0-18.08-13.71l-.52-.23c-2.1-1-9.74-7.81-9.66-13.51,0-2.47,1.5-4.36,4.35-5.59a37.09,37.09,0,0,1,20.06-2.5c.85.1,1.53.18,2,.18a7.46,7.46,0,0,0,2.65-.68,33.2,33.2,0,0,1,11.08-2.14c5.79-.31,7.1,1,8.61,2.55a9.12,9.12,0,0,0,5.06,2.88c7.1,1.75,7.45.53,7.83-.75.27-.92-.76-9.46-1.47-14.62v-.08l0-.09c.07-.26,1.93-6.36,17-5.2S199.76,108.47,200,111v.14a6.69,6.69,0,0,0,1.66,3.57l4.61-2.36c5.29-2.7,19.46-1.47,25.91,0,5.21,1.17,5.11,9.9,4.22,14.88-.38,2.12-1,4.62-2.08,4.48-.89,0-4.19,5.56-6.37,9.23-1.27,2.13-2.58,4.33-3.75,6.11-2.26,3.46-2.84,3.69-4.37,4.32a24.14,24.14,0,0,0-5.42,3.08c-6.87,4.84-9,14-9,14.12l-.08.34H205c-28.29-.71-56.57,8.25-56.85,8.34Zm-22.17-57.58a34.14,34.14,0,0,0-13.75,2.84c-2.53,1.09-3.83,2.72-3.86,4.84-.07,5.25,7.25,11.84,9.18,12.73l.51.24A48.75,48.75,0,0,1,136,154.35c6.85,8.34,11.38,19.76,12.22,22,3.45-1.07,29.87-8.86,56.41-8.27.44-1.75,2.79-9.73,9.25-14.29a25.28,25.28,0,0,1,5.58-3.17c1.4-.57,1.87-.76,4-4,1.15-1.76,2.46-4,3.72-6.08,4-6.64,5.88-9.63,7.11-9.63h0c.71-.56,2.26-6.86,1.43-12.1-.36-2.26-1.31-5.06-3.8-5.62-7.2-1.61-20.66-2.43-25.34,0l-5.16,2.63-.22-.21a7.65,7.65,0,0,1-2.1-4.3v-.15c-.21-2.32-.68-7.77-14.92-8.87-13.41-1-15.84,3.88-16.1,4.53.24,1.78,1.83,13.5,1.43,14.86-.56,1.92-1.52,3.13-8.83,1.33a9.94,9.94,0,0,1-5.45-3.1c-1.43-1.45-2.56-2.6-8-2.3a32.09,32.09,0,0,0-10.83,2.08,8.09,8.09,0,0,1-2.95.73c-.5,0-1.19-.08-2.07-.18A49.92,49.92,0,0,0,125.58,119.76Z"/><path class="cls-3" d="M169.21,121.19a8.63,8.63,0,0,0,3.27-.7,9.68,9.68,0,0,0,2.78-1.75,6.73,6.73,0,0,0,2.53-5.67,4.05,4.05,0,0,0-.89-2.88,7.4,7.4,0,0,0-2.84-1.44l-3.23-1c-1.07-.37-2.15-.72-3.21-1.12,1.11.22,2.21.49,3.32.73l3.31.82a7.43,7.43,0,0,1,3.21,1.5,3.56,3.56,0,0,1,.93,1.64,7.31,7.31,0,0,1,.23,1.78,9.76,9.76,0,0,1-.1,1.77,6.28,6.28,0,0,1-.58,1.71,8.36,8.36,0,0,1-2.27,2.7A8.74,8.74,0,0,1,169.21,121.19Z"/><path class="cls-3" d="M155.6,119.45c1.71,2.67,3.27,5.43,4.76,8.24s2.83,5.69,4,8.63a54.19,54.19,0,0,1,3.1,9.07,30.46,30.46,0,0,1,.69,9.56H168c-.57-3.14-1.28-6.16-2.13-9.17l-1.31-4.5c-.4-1.52-.92-3-1.42-4.49-1-3-2.26-5.87-3.56-8.75s-2.64-5.74-4.15-8.52Z"/><path class="cls-3" d="M144.85,135.17a57,57,0,0,0,6.63,8c1.23,1.23,2.47,2.38,3.78,3.56a22.61,22.61,0,0,1,3.48,4.16,33.61,33.61,0,0,1,2.53,4.73,42.86,42.86,0,0,1,1.77,5,33.18,33.18,0,0,1,1.33,10.47,54.38,54.38,0,0,0-2.57-10.08,44.24,44.24,0,0,0-4.45-9.24,22.29,22.29,0,0,0-3.17-3.92c-1.22-1.23-2.52-2.48-3.65-3.84A34.13,34.13,0,0,1,144.85,135.17Z"/><path class="cls-3" d="M177.93,115.65a32.76,32.76,0,0,1,5.28,8.33,24.89,24.89,0,0,1,1.52,4.76c.19.82.28,1.66.39,2.49l.2,2.46c.23,3.28.51,6.56.42,9.84a77.33,77.33,0,0,1-.77,9.83h-.16c-.42-3.28-.6-6.55-.74-9.81s0-6.53-.08-9.79l-.07-2.44c-.07-.79-.11-1.59-.26-2.38a23.78,23.78,0,0,0-1.22-4.65,32.15,32.15,0,0,0-4.64-8.53Z"/><path class="cls-3" d="M181.05,169.66a19.7,19.7,0,0,0,.46-2.36,22.16,22.16,0,0,0,.22-2.43,22.41,22.41,0,0,0-.33-4.9,23,23,0,0,1,.75,4.89c0,.83,0,1.67,0,2.5a21.73,21.73,0,0,1-.28,2.5Z"/><path class="cls-3" d="M193.76,138.62a13.57,13.57,0,0,1,1-6.18,23,23,0,0,1,1.37-2.82,9.54,9.54,0,0,0,.87-2.71c.07-.46.1-1,.14-1.48l.14-1.54c0-.51.09-1,.15-1.53a14.67,14.67,0,0,1,.27-1.59,7.87,7.87,0,0,1,3.58-5.31l.86-.45-.45.88a5.17,5.17,0,0,0,0,4.27,7.68,7.68,0,0,0,3,3.27,17.15,17.15,0,0,0,4.08,1.93,42.34,42.34,0,0,0,4.38,1.25,66.12,66.12,0,0,0,9,1.58,42.62,42.62,0,0,0,4.52.22c.75,0,1.5,0,2.24-.11a12.57,12.57,0,0,0,2.14-.36l.1,0a8.14,8.14,0,0,0,2.19-.83,6.08,6.08,0,0,0,1.81-1.54,5.81,5.81,0,0,0,1-2.17,8.71,8.71,0,0,0,.18-2.51l.17,0a7.91,7.91,0,0,1,.19,2.62,5.87,5.87,0,0,1-.87,2.57,7.1,7.1,0,0,1-1.91,2,8.07,8.07,0,0,1-2.53,1.19l.11,0a17.79,17.79,0,0,1-4.79.86,35.81,35.81,0,0,1-4.75-.09,51.46,51.46,0,0,1-9.24-1.86,24.07,24.07,0,0,1-8.54-4,9.66,9.66,0,0,1-3-3.73,6.37,6.37,0,0,1,0-4.76l.41.43a5.11,5.11,0,0,0-1.76,2.19A9,9,0,0,0,199,121c-.07.48-.1,1-.14,1.46s-.08,1-.12,1.55l-.14,1.54c-.06.5-.1,1-.2,1.58a9.59,9.59,0,0,1-1.15,3.1,29.76,29.76,0,0,0-1.53,2.63,16.57,16.57,0,0,0-1.83,5.74Z"/><path class="cls-3" d="M199.23,168.25c-.16-2.21-.19-4.37-.17-6.55s.14-4.35.38-6.51a44.88,44.88,0,0,1,1.11-6.42,23.63,23.63,0,0,1,2.36-6,23.83,23.83,0,0,0-2,6.13,45.71,45.71,0,0,0-.68,6.39c-.1,2.14-.06,4.29,0,6.43s.29,4.29.58,6.38Z"/><path class="cls-4" d="M148,176.82s-6.34,2.72-5,5.15,2.42,2.5,2.42,2.5-2.73,1.71-2.6,4.44c.14,3,1.66,4.79,4.21,4.1,1.84-.49,22.81-4.91,31.08-5.88s22,.13,22,.13l6.31.55a5.34,5.34,0,0,0,3.85-.35,4.38,4.38,0,0,0,3-3.2c.79-3-1.88-7.36-5.07-7.08-2.06.18-1.09-1.67-.14-3a3.45,3.45,0,0,0,.21-3.74,3.53,3.53,0,0,0-3.27-2C199,168.67,181.71,167,148,176.82Z"/><path class="cls-5" d="M160.61,276.14a1.54,1.54,0,0,1-1.13-.44,1.42,1.42,0,0,1-.44-1.06V253.82l.44.52-4.25,2.56a1.49,1.49,0,0,1-.73.18,1.36,1.36,0,0,1-1.06-.49,1.54,1.54,0,0,1-.44-1,1.45,1.45,0,0,1,.77-1.28l6-3.55a2,2,0,0,1,1.1-.22,1.25,1.25,0,0,1,1,.42,1.56,1.56,0,0,1,.36,1.05v22.64a1.45,1.45,0,0,1-.43,1.06A1.58,1.58,0,0,1,160.61,276.14Z"/><path class="cls-5" d="M176.41,276.5a7.53,7.53,0,0,1-5.06-1.72,10.49,10.49,0,0,1-3.08-4.71,22.42,22.42,0,0,1,0-13.5,10.5,10.5,0,0,1,3.08-4.68,8.32,8.32,0,0,1,10.13,0,10.37,10.37,0,0,1,3.05,4.68,22.63,22.63,0,0,1,0,13.5,10.36,10.36,0,0,1-3.05,4.71A7.54,7.54,0,0,1,176.41,276.5Zm0-3a4.62,4.62,0,0,0,3.28-1.24,7.9,7.9,0,0,0,2-3.53,21.87,21.87,0,0,0,0-10.9,7.75,7.75,0,0,0-2-3.52,5,5,0,0,0-6.55,0,7.86,7.86,0,0,0-2,3.52,21.27,21.27,0,0,0,0,10.9,8,8,0,0,0,2,3.53A4.61,4.61,0,0,0,176.41,273.54Z"/><path class="cls-5" d="M198.4,276.5a7.54,7.54,0,0,1-5.07-1.72,10.47,10.47,0,0,1-3.07-4.71,22.42,22.42,0,0,1,0-13.5,10.48,10.48,0,0,1,3.07-4.68,8.32,8.32,0,0,1,10.13,0,10.38,10.38,0,0,1,3.06,4.68,22.84,22.84,0,0,1,0,13.5,10.38,10.38,0,0,1-3.06,4.71A7.53,7.53,0,0,1,198.4,276.5Zm0-3a4.61,4.61,0,0,0,3.27-1.24,7.81,7.81,0,0,0,2-3.53,21.57,21.57,0,0,0,0-10.9,7.66,7.66,0,0,0-2-3.52,5,5,0,0,0-6.55,0,7.86,7.86,0,0,0-2.05,3.52,21.27,21.27,0,0,0,0,10.9,8,8,0,0,0,2.05,3.53A4.62,4.62,0,0,0,198.4,273.54Z"/><path class="cls-4" d="M176.64,322.12a17,17,0,0,1-6.28-1.06,16.8,16.8,0,0,1-5.22-3.38,3.33,3.33,0,0,1-.56-.75,2,2,0,0,1-.21-.9,2,2,0,0,1,.55-1.37,1.78,1.78,0,0,1,1.38-.61,1.7,1.7,0,0,1,1.21.53,13.69,13.69,0,0,0,4.08,2.81,12.21,12.21,0,0,0,4.95,1,10.38,10.38,0,0,0,3.84-.67,6.78,6.78,0,0,0,2.73-1.89,4.2,4.2,0,0,0,1-2.8A5,5,0,0,0,183,309.8a8.24,8.24,0,0,0-3-2.1,25.36,25.36,0,0,0-4.43-1.43,27.14,27.14,0,0,1-4.08-1.3,12.29,12.29,0,0,1-3.21-1.91,7.89,7.89,0,0,1-2.1-2.75,9,9,0,0,1-.75-3.8,8.23,8.23,0,0,1,1.45-4.83,9.4,9.4,0,0,1,4-3.21,14.33,14.33,0,0,1,5.89-1.14,16.12,16.12,0,0,1,5.58,1,10.8,10.8,0,0,1,4.23,2.66,2.59,2.59,0,0,1,1,1.79,2.1,2.1,0,0,1-2,1.93,1.41,1.41,0,0,1-1-.39,8.34,8.34,0,0,0-2.08-1.64,12.56,12.56,0,0,0-2.75-1.16,11.23,11.23,0,0,0-6.91.22,5.93,5.93,0,0,0-2.63,1.83,4.75,4.75,0,0,0,.12,5.85,7.66,7.66,0,0,0,2.85,1.93,31.09,31.09,0,0,0,4,1.33,39.71,39.71,0,0,1,4.37,1.33,13.36,13.36,0,0,1,3.46,1.86,7.49,7.49,0,0,1,2.24,2.82,10.07,10.07,0,0,1,.8,4.23,7.91,7.91,0,0,1-1.5,4.74,10.15,10.15,0,0,1-4.08,3.26A14.27,14.27,0,0,1,176.64,322.12Zm2.17,4.45a1.86,1.86,0,0,1-.55,1.37,2,2,0,0,1-1.43.56,1.78,1.78,0,0,1-1.35-.56,1.89,1.89,0,0,1-.53-1.37V284.44a2,2,0,0,1,.55-1.41,2,2,0,0,1,2.78,0,2,2,0,0,1,.53,1.41Z"/><path class="cls-2" d="M176.23,218.21s-29.17,33.61-37.5,52.22-13.89,50.28-8.89,56.67-8.61,16.39-8.61,16.39-8.06,7.78-2,16.39,19.17,0,19.17,0,2.22,6.94,12.22,6.11,19.45-3.89,19.45-4.72,10,6.68,18,6.54,33.89,2.9,47.22-4,10-2.78,10-2.78,19.45,3.89,20.84-3.06,3.88-.27,3.88-.27.56,3.33,13.62,2.5,10-7.5,10-7.5-4.17-13.34-8.06-21.12S281,313.49,281,313.49s-3.06-39.72-15-59.17-10.56-23.64-28.89-41.12c0,.17-12.95-1.88-27.78-1.1C196.17,212.79,176.23,218.21,176.23,218.21Z"/><path class="cls-3" d="M207.63,368.76c-4.62,0-9-.19-12.55-.34-2.83-.12-5.27-.23-6.9-.2-5.8.1-12.37-3.56-15.92-5.53-.78-.44-1.58-.88-1.94-1-1.57,1.59-11.61,4.08-19.61,4.74-8.65.73-11.7-4.3-12.46-5.91-2.33,1.39-13.67,7.57-19.31-.37-6.24-8.8,1.92-16.85,2-16.93s8.76-6.5,9.53-12.13a4.74,4.74,0,0,0-1-3.7c-5.28-6.75.69-38.91,8.84-57.1,8.26-18.45,37.27-52,37.56-52.32l.09-.1.12,0c.2-.05,20.14-5.44,33.14-6.12a164.22,164.22,0,0,1,26.2.95l1.19.13,0-.53.68.65c13.06,12.46,16.1,18.11,21.13,27.47,2,3.81,4.37,8.12,7.82,13.75,11.86,19.3,15,58.95,15.06,59.35,0,.1.88,10.29,4.68,17.9s8,21,8.08,21.17a4.62,4.62,0,0,1-.31,4.08c-1.36,2.29-4.75,3.62-10.06,4-13.05.84-14-2.47-14.05-2.85-.4-1-1.28-2.57-1.82-2.53-.12,0-.72.19-1.25,2.82-1.45,7.27-20.51,3.55-21.32,3.39l-.67-.14.43-.53a1.38,1.38,0,0,0,.28-.57c-.14-.07-1.38-.39-9.76,4C228.32,367.92,217.39,368.76,207.63,368.76Zm-18.84-1.38c1.62,0,3.82.1,6.32.21,11.07.47,29.59,1.28,40.09-4.19,9.72-5.06,10.45-4.17,10.81-3.74a1,1,0,0,1,.05,1c3.21.57,18.59,3,19.76-2.84.46-2.31,1.09-3.42,2-3.49,1.42-.09,2.49,2.6,2.7,3.15,0,.09.92,3,13.19,2.23,4.94-.32,8.18-1.54,9.39-3.55a3.83,3.83,0,0,0,.26-3.36c-.06-.18-4.22-13.44-8.05-21.1s-4.76-18.1-4.77-18.21c0-.39-3.18-39.84-14.94-59-3.47-5.65-5.79-10-7.84-13.78-5-9.26-8-14.86-20.85-27.14-.26,0-.7-.06-1.53-.15a162.61,162.61,0,0,0-26.07-.95c-12.38.65-31.14,5.61-32.84,6.06-1.73,2-29.36,34.17-37.35,52-8.65,19.31-13.58,50.32-8.94,56.24a5.61,5.61,0,0,1,1.13,4.34c-.82,6-9.46,12.38-9.83,12.65s-7.67,7.59-1.85,15.81,18.47,0,18.6-.11l.46-.3.17.52c.08.27,2.26,6.61,11.79,5.82s18.22-3.6,19.06-4.4V361l.23-.18c.36-.2.74,0,2.74,1.11,3.43,1.9,9.77,5.43,15.26,5.43h.86Z"/><path class="cls-2" d="M234.21,193.66s2.09-9.37,9.17-14.37,5.94-1.56,9.69-7.29,8.95-15.73,10.52-15.52,4.68-17-2.29-18.54-20.73-2.5-25.63,0l-4.89,2.5a7.27,7.27,0,0,1-2-4.05c-.21-2.31-.42-8.25-15.32-9.39s-16.56,4.89-16.56,4.89,1.85,13.45,1.46,14.8c-.47,1.61-1.15,2.81-8.33,1s-3.86-5.94-13.54-5.42-11.15,2.81-13.75,2.81-11.25-2.29-21.88,2.3,2.4,17,5.31,18.33a48.81,48.81,0,0,1,18.75,14.06c7.61,9.27,12.28,22.21,12.28,22.21S205.52,192.94,234.21,193.66Z"/><path class="cls-3" d="M177,202.54l-.14-.38c0-.13-4.74-13-12.21-22.09a48.14,48.14,0,0,0-18.08-13.7l-.52-.24c-2.1-1-9.74-7.81-9.66-13.5,0-2.48,1.5-4.37,4.36-5.6a37.15,37.15,0,0,1,20.05-2.5c.85.1,1.53.18,2,.18a7.43,7.43,0,0,0,2.64-.67,32.85,32.85,0,0,1,11.08-2.15c5.79-.3,7.1,1,8.62,2.56a9.1,9.1,0,0,0,5.05,2.87c7.1,1.75,7.45.54,7.83-.75.27-.92-.76-9.45-1.47-14.62v-.08l0-.09c.07-.26,1.93-6.36,17-5.2s15.46,7.09,15.68,9.63v.15a6.69,6.69,0,0,0,1.66,3.56l4.61-2.35c5.29-2.71,19.46-1.48,25.91,0,5.22,1.17,5.11,9.9,4.22,14.88-.38,2.12-1,4.62-2.08,4.48-.89,0-4.19,5.57-6.37,9.23-1.27,2.13-2.58,4.33-3.75,6.11-2.26,3.46-2.84,3.69-4.37,4.32a24.58,24.58,0,0,0-5.42,3.08c-6.87,4.85-9,14-9,14.12l-.08.34h-.34c-28.29-.71-56.57,8.25-56.85,8.34ZM154.8,145a34.14,34.14,0,0,0-13.75,2.84c-2.53,1.09-3.83,2.72-3.86,4.84-.07,5.25,7.25,11.84,9.18,12.73l.51.24a48.75,48.75,0,0,1,18.38,13.94c6.85,8.34,11.38,19.76,12.22,22,3.45-1.07,29.87-8.86,56.41-8.27.45-1.75,2.79-9.73,9.25-14.29a25.28,25.28,0,0,1,5.58-3.17c1.4-.57,1.87-.76,4-4,1.15-1.76,2.46-4,3.72-6.08,4-6.64,5.88-9.63,7.11-9.63h0c.71-.55,2.26-6.86,1.43-12.1-.36-2.26-1.31-5.06-3.8-5.62-7.2-1.61-20.65-2.43-25.34,0l-5.16,2.63-.22-.21a7.65,7.65,0,0,1-2.1-4.3v-.15c-.21-2.32-.68-7.77-14.92-8.87-13.41-1-15.84,3.88-16.1,4.53.24,1.79,1.83,13.5,1.43,14.86-.56,1.92-1.52,3.14-8.83,1.33a9.94,9.94,0,0,1-5.45-3.1c-1.43-1.45-2.56-2.6-8-2.3a32,32,0,0,0-10.83,2.09,8.27,8.27,0,0,1-2.94.72c-.51,0-1.2-.08-2.08-.18A49.92,49.92,0,0,0,154.8,145Z"/><path class="cls-3" d="M198.43,146.39a8.63,8.63,0,0,0,3.27-.7,9.68,9.68,0,0,0,2.78-1.75,6.73,6.73,0,0,0,2.53-5.67,4.05,4.05,0,0,0-.89-2.88,7.54,7.54,0,0,0-2.84-1.44l-3.23-1c-1.07-.38-2.15-.73-3.21-1.13,1.11.22,2.21.49,3.32.73l3.31.83a7.29,7.29,0,0,1,3.21,1.49,3.56,3.56,0,0,1,.93,1.64,7.31,7.31,0,0,1,.23,1.78,9.76,9.76,0,0,1-.1,1.77,6.28,6.28,0,0,1-.58,1.71,8.45,8.45,0,0,1-2.26,2.7A8.78,8.78,0,0,1,198.43,146.39Z"/><path class="cls-3" d="M184.82,144.65c1.71,2.67,3.27,5.43,4.76,8.24s2.83,5.69,4,8.63a54.19,54.19,0,0,1,3.1,9.07,30.5,30.5,0,0,1,.69,9.57h-.17C196.68,177,196,174,195.12,171l-1.31-4.5c-.4-1.51-.92-3-1.42-4.49-1-3-2.26-5.87-3.56-8.75s-2.64-5.74-4.15-8.52Z"/><path class="cls-3" d="M174.07,160.37a57,57,0,0,0,6.63,8c1.23,1.23,2.47,2.38,3.78,3.56a22.61,22.61,0,0,1,3.48,4.16,34.17,34.17,0,0,1,2.53,4.73,42.86,42.86,0,0,1,1.77,5,33.22,33.22,0,0,1,1.33,10.47A54.38,54.38,0,0,0,191,186.26a44.24,44.24,0,0,0-4.45-9.24,22.29,22.29,0,0,0-3.17-3.92c-1.22-1.23-2.52-2.48-3.65-3.83A34.35,34.35,0,0,1,174.07,160.37Z"/><path class="cls-3" d="M207.15,140.85a32.64,32.64,0,0,1,5.28,8.34A24.45,24.45,0,0,1,214,154c.19.81.28,1.65.39,2.48l.2,2.47c.23,3.27.51,6.55.42,9.83a77.33,77.33,0,0,1-.77,9.83H214c-.42-3.28-.6-6.54-.74-9.81s0-6.53-.08-9.79l-.07-2.44c-.07-.79-.11-1.59-.26-2.38a23.78,23.78,0,0,0-1.22-4.65A32.15,32.15,0,0,0,207,141Z"/><path class="cls-3" d="M210.27,194.86a19.7,19.7,0,0,0,.46-2.36,23.31,23.31,0,0,0-.11-7.32,22.85,22.85,0,0,1,.75,4.89c0,.82,0,1.66,0,2.49a21.73,21.73,0,0,1-.28,2.5Z"/><path class="cls-3" d="M223,163.82a13.57,13.57,0,0,1,1-6.18,23,23,0,0,1,1.37-2.82,9.54,9.54,0,0,0,.87-2.71c.07-.46.1-1,.14-1.48l.14-1.54c0-.51.09-1,.15-1.53a14.67,14.67,0,0,1,.27-1.59,7.87,7.87,0,0,1,3.58-5.31l.86-.45-.45.88a5.17,5.17,0,0,0,0,4.27,7.76,7.76,0,0,0,3,3.28,17.52,17.52,0,0,0,4.08,1.92,42.34,42.34,0,0,0,4.38,1.25,66.12,66.12,0,0,0,9,1.58,40.12,40.12,0,0,0,4.52.22,20.87,20.87,0,0,0,2.24-.11,13.66,13.66,0,0,0,2.14-.35l.1,0a8.14,8.14,0,0,0,2.19-.83,6.07,6.07,0,0,0,1.81-1.53,5.92,5.92,0,0,0,1-2.18,8.71,8.71,0,0,0,.18-2.51l.17,0a7.91,7.91,0,0,1,.19,2.62,5.87,5.87,0,0,1-.87,2.57,7,7,0,0,1-1.91,2,8.12,8.12,0,0,1-2.52,1.19l.1,0a17.79,17.79,0,0,1-4.79.86,35.81,35.81,0,0,1-4.75-.09,51.18,51.18,0,0,1-9.23-1.86,24,24,0,0,1-8.55-4,9.66,9.66,0,0,1-3-3.73,6.37,6.37,0,0,1,0-4.76l.41.43a5.11,5.11,0,0,0-1.76,2.19,9.3,9.3,0,0,0-.76,2.8c-.07.48-.1,1-.14,1.47s-.08,1-.12,1.54l-.14,1.54c-.06.5-.1,1-.2,1.58a9.51,9.51,0,0,1-1.15,3.1,29.76,29.76,0,0,0-1.53,2.63,16.57,16.57,0,0,0-1.83,5.74Z"/><path class="cls-3" d="M228.45,193.45c-.16-2.21-.19-4.37-.17-6.55s.14-4.35.38-6.51a44.88,44.88,0,0,1,1.11-6.42,23.42,23.42,0,0,1,2.36-6,23.63,23.63,0,0,0-2,6.12,45.71,45.71,0,0,0-.68,6.39c-.1,2.14-.06,4.29,0,6.43s.29,4.29.58,6.38Z"/><path class="cls-4" d="M177.22,202s-6.34,2.72-5,5.15,2.42,2.5,2.42,2.5-2.73,1.71-2.6,4.45c.14,3,1.66,4.78,4.21,4.09,1.84-.49,22.81-4.91,31.08-5.88s22,.13,22,.13l6.31.55a5.34,5.34,0,0,0,3.85-.35,4.36,4.36,0,0,0,3-3.2c.79-3-1.88-7.36-5.07-7.08-2.06.18-1.09-1.66-.14-3a3.45,3.45,0,0,0,.21-3.74,3.51,3.51,0,0,0-3.27-2C228.17,193.87,210.93,192.15,177.22,202Z"/><path class="cls-5" d="M189.83,301.34a1.54,1.54,0,0,1-1.13-.44,1.46,1.46,0,0,1-.44-1.06V279l.44.51-4.25,2.56a1.46,1.46,0,0,1-.73.18,1.36,1.36,0,0,1-1.06-.49,1.54,1.54,0,0,1-.44-1,1.46,1.46,0,0,1,.77-1.28l6-3.55a2,2,0,0,1,1.1-.22,1.25,1.25,0,0,1,1,.42,1.56,1.56,0,0,1,.37,1.05v22.64a1.46,1.46,0,0,1-.44,1.06A1.58,1.58,0,0,1,189.83,301.34Z"/><path class="cls-5" d="M205.63,301.7a7.58,7.58,0,0,1-5.06-1.71,10.58,10.58,0,0,1-3.08-4.72,22.42,22.42,0,0,1,0-13.5,10.5,10.5,0,0,1,3.08-4.68,8.32,8.32,0,0,1,10.13,0,10.37,10.37,0,0,1,3.05,4.68,22.63,22.63,0,0,1,0,13.5A10.45,10.45,0,0,1,210.7,300,7.59,7.59,0,0,1,205.63,301.7Zm0-3a4.62,4.62,0,0,0,3.28-1.24,7.9,7.9,0,0,0,2-3.53,21.87,21.87,0,0,0,0-10.9,7.66,7.66,0,0,0-2-3.51,5,5,0,0,0-6.55,0,7.77,7.77,0,0,0-2.05,3.51,21.27,21.27,0,0,0,0,10.9,8,8,0,0,0,2.05,3.53A4.61,4.61,0,0,0,205.63,298.74Z"/><path class="cls-5" d="M227.62,301.7a7.61,7.61,0,0,1-5.07-1.71,10.56,10.56,0,0,1-3.07-4.72,22.42,22.42,0,0,1,0-13.5,10.48,10.48,0,0,1,3.07-4.68,8.32,8.32,0,0,1,10.13,0,10.38,10.38,0,0,1,3.06,4.68,22.84,22.84,0,0,1,0,13.5,10.46,10.46,0,0,1-3.06,4.72A7.58,7.58,0,0,1,227.62,301.7Zm0-3a4.61,4.61,0,0,0,3.27-1.24,7.81,7.81,0,0,0,2-3.53,21.57,21.57,0,0,0,0-10.9,7.58,7.58,0,0,0-2-3.51,5,5,0,0,0-6.55,0,7.77,7.77,0,0,0-2.05,3.51,21.27,21.27,0,0,0,0,10.9,8,8,0,0,0,2.05,3.53A4.64,4.64,0,0,0,227.62,298.74Z"/><path class="cls-4" d="M205.86,347.32a17,17,0,0,1-6.28-1.06,16.8,16.8,0,0,1-5.22-3.38,3.33,3.33,0,0,1-.56-.75,2,2,0,0,1,.34-2.27,1.78,1.78,0,0,1,1.38-.61,1.7,1.7,0,0,1,1.21.53,13.69,13.69,0,0,0,4.08,2.81,12.21,12.21,0,0,0,4.95,1,10.38,10.38,0,0,0,3.84-.67,6.62,6.62,0,0,0,2.73-1.89,4.2,4.2,0,0,0,1-2.8,4.92,4.92,0,0,0-1.14-3.19,8.24,8.24,0,0,0-3-2.1,25.36,25.36,0,0,0-4.43-1.43,26,26,0,0,1-4.08-1.3,12,12,0,0,1-3.21-1.91,7.8,7.8,0,0,1-2.1-2.75,9,9,0,0,1-.75-3.79,8.23,8.23,0,0,1,1.45-4.84,9.4,9.4,0,0,1,4-3.21,14.36,14.36,0,0,1,5.89-1.13,16.12,16.12,0,0,1,5.58,1,10.8,10.8,0,0,1,4.23,2.66,2.59,2.59,0,0,1,1,1.79,1.85,1.85,0,0,1-.61,1.33,1.89,1.89,0,0,1-1.37.6,1.41,1.41,0,0,1-1-.39,8.34,8.34,0,0,0-2.08-1.64,12.56,12.56,0,0,0-2.75-1.16,11.44,11.44,0,0,0-6.91.22,5.93,5.93,0,0,0-2.63,1.83,4.42,4.42,0,0,0-1,2.83,4.36,4.36,0,0,0,1.07,3,7.83,7.83,0,0,0,2.85,1.93,31.09,31.09,0,0,0,4,1.33,39.71,39.71,0,0,1,4.37,1.33,13.36,13.36,0,0,1,3.46,1.86,7.45,7.45,0,0,1,2.24,2.83,10,10,0,0,1,.8,4.22,7.89,7.89,0,0,1-1.5,4.74,10.15,10.15,0,0,1-4.08,3.26A14.27,14.27,0,0,1,205.86,347.32Zm2.17,4.45a1.86,1.86,0,0,1-.55,1.37,1.94,1.94,0,0,1-1.43.56,1.78,1.78,0,0,1-1.35-.56,1.89,1.89,0,0,1-.53-1.37V309.64a1.93,1.93,0,0,1,.55-1.4,1.82,1.82,0,0,1,1.38-.58,1.79,1.79,0,0,1,1.4.58,2,2,0,0,1,.53,1.4Z"/></g></g></svg>