<svg xmlns="http://www.w3.org/2000/svg" viewBox="0 0 329.08 426.26"><defs><style>.cls-1{fill:none;}.cls-2{fill:#d3f7a4;}.cls-3{fill:#58d313;}.cls-4{fill:#25a5dd;}.cls-5{fill:#363026;}</style></defs><g id="Layer_2" data-name="Layer 2"><g id="Layer_1-2" data-name="Layer 1"><rect class="cls-1" width="329.08" height="426.26"/><path class="cls-2" d="M97.59,141.29S59.05,185.7,48,210.3,29.69,276.73,36.3,285.18s-11.38,21.65-11.38,21.65-10.65,10.28-2.57,21.66,25.32,0,25.32,0,2.94,9.18,16.16,8.07,25.69-5.13,25.69-6.24,13.21,8.84,23.86,8.64,44.78,3.84,62.4-5.33S189,330,189,330s25.7,5.14,27.53-4,5.14-.37,5.14-.37.74,4.41,18,3.31S252.86,319,252.86,319s-5.5-17.62-10.64-27.9S236,267.19,236,267.19s-4-52.49-19.82-78.18S202.21,157.76,178,134.66c0,.23-17.11-2.48-36.7-1.45C124,134.13,97.59,141.29,97.59,141.29Z"/><path class="cls-3" d="M139.09,340.23c-6.1,0-11.86-.25-16.59-.45-3.73-.16-7-.31-9.11-.26-7.66.12-16.35-4.71-21-7.32-1-.57-2.09-1.16-2.56-1.35-2.08,2.09-15.34,5.38-25.92,6.26-11.42,1-15.46-5.69-16.45-7.81-3.09,1.84-18.07,10-25.52-.49-8.26-11.63,2.52-22.27,2.63-22.37s11.58-8.6,12.6-16a6.26,6.26,0,0,0-1.27-4.89c-7-8.92.92-51.41,11.68-75.45,10.92-24.38,49.25-68.7,49.64-69.14l.11-.13.16,0c.26-.08,26.61-7.19,43.8-8.1a217.51,217.51,0,0,1,34.61,1.26l1.58.17,0-.69.9.86c17.27,16.46,21.28,23.93,27.93,36.3,2.7,5,5.77,10.72,10.33,18.16,15.68,25.51,19.87,77.9,19.91,78.43,0,.13,1.15,13.59,6.18,23.65s10.62,27.8,10.68,28a6.19,6.19,0,0,1-.41,5.39c-1.81,3-6.28,4.79-13.3,5.24-17.24,1.1-18.48-3.27-18.56-3.77-.53-1.38-1.69-3.4-2.41-3.34-.16,0-1,.25-1.65,3.73-1.92,9.6-27.1,4.68-28.17,4.47l-.89-.18.56-.71a1.54,1.54,0,0,0,.37-.75c-.18-.09-1.81-.52-12.9,5.26C166.43,339.12,152,340.23,139.09,340.23Zm-24.89-1.82c2.14,0,5,.12,8.35.27,14.62.63,39.09,1.69,53-5.54,12.84-6.69,13.82-5.5,14.28-4.93a1.27,1.27,0,0,1,.07,1.35c4.24.75,24.58,3.93,26.11-3.75.61-3.05,1.45-4.52,2.64-4.61,1.87-.12,3.29,3.44,3.56,4.16,0,.12,1.21,4,17.43,2.95,6.53-.42,10.82-2,12.41-4.69a5,5,0,0,0,.34-4.45c-.08-.24-5.58-17.76-10.64-27.88s-6.28-23.92-6.29-24.06c0-.52-4.21-52.65-19.74-77.94-4.59-7.46-7.66-13.17-10.37-18.21-6.58-12.23-10.55-19.63-27.55-35.87-.34,0-.93-.07-2-.19a215.46,215.46,0,0,0-34.44-1.26c-16.36.86-41.16,7.41-43.4,8-2.29,2.65-38.79,45.15-49.36,68.74C37.12,236,30.61,277,36.73,284.84a7.3,7.3,0,0,1,1.49,5.72c-1.08,7.9-12.49,16.36-13,16.72s-10.15,10-2.44,20.89,24.4,0,24.57-.14l.6-.4.23.69c.11.36,3,8.73,15.58,7.7S87.86,331.25,89,330.2V330l.31-.23c.47-.28,1,0,3.61,1.46,4.53,2.52,12.91,7.18,20.17,7.18h1.14Z"/><path class="cls-2" d="M174.22,108.85s2.75-12.39,12.11-19,7.85-2.06,12.8-9.63S211,59.43,213,59.71s6.19-22.44-3-24.5-27.39-3.31-33.86,0l-6.47,3.3a9.66,9.66,0,0,1-2.62-5.34c-.27-3.06-.55-10.9-20.23-12.42s-21.89,6.47-21.89,6.47,2.45,17.77,1.93,19.55c-.63,2.13-1.52,3.72-11,1.38S110.76,40.3,98,41,83.23,44.7,79.79,44.7s-14.86-3-28.9,3,3.16,22.44,7,24.23A64.68,64.68,0,0,1,82.68,90.54c10,12.25,16.23,29.35,16.23,29.35S136.3,107.89,174.22,108.85Z"/><path class="cls-3" d="M98.57,120.58l-.18-.5c-.06-.17-6.26-17.16-16.13-29.19a63.73,63.73,0,0,0-23.9-18.12l-.69-.31c-2.76-1.29-12.86-10.31-12.76-17.84.05-3.28,2-5.76,5.76-7.39,11.59-5,21.29-3.9,26.5-3.31,1.13.13,2,.23,2.62.23a9.93,9.93,0,0,0,3.5-.88c2.53-1,6.35-2.39,14.64-2.83,7.65-.41,9.38,1.34,11.38,3.37a12.1,12.1,0,0,0,6.68,3.8c9.38,2.31,9.85.71,10.35-1,.35-1.21-1-12.49-1.94-19.31l0-.11,0-.11c.09-.35,2.56-8.41,22.46-6.87,19.74,1.51,20.43,9.36,20.72,12.72l0,.19a8.92,8.92,0,0,0,2.19,4.71l6.09-3.11c7-3.57,25.72-2,34.24,0,6.89,1.54,6.75,13.09,5.58,19.67-.5,2.8-1.37,6.1-2.75,5.91-1.17,0-5.53,7.36-8.42,12.2-1.68,2.81-3.41,5.73-4.95,8.07-3,4.58-3.75,4.89-5.78,5.72a32.06,32.06,0,0,0-7.16,4.06c-9.07,6.41-11.87,18.55-11.89,18.67l-.1.44h-.46c-37.39-.94-74.75,10.9-75.12,11ZM69.28,44.49A45.37,45.37,0,0,0,51.1,48.24c-3.34,1.44-5.05,3.59-5.09,6.39-.09,6.95,9.59,15.65,12.13,16.83l.68.31A64.68,64.68,0,0,1,83.11,90.19c9,11,15,26.12,16.14,29,4.56-1.4,39.47-11.7,74.54-10.92.59-2.32,3.69-12.86,12.22-18.89a33.29,33.29,0,0,1,7.38-4.18c1.85-.76,2.47-1,5.28-5.3,1.52-2.33,3.25-5.23,4.93-8,5.23-8.77,7.76-12.73,9.38-12.73h0c.93-.74,3-9.07,1.88-16-.47-3-1.73-6.69-5-7.43-9.52-2.13-27.3-3.2-33.49,0l-6.83,3.48-.28-.28a10.08,10.08,0,0,1-2.78-5.68V33c-.27-3.07-.9-10.27-19.72-11.72-17.72-1.36-20.93,5.12-21.28,6,.33,2.36,2.42,17.84,1.9,19.64-.75,2.53-2,4.14-11.68,1.76a13.09,13.09,0,0,1-7.19-4.1c-1.89-1.91-3.38-3.43-10.54-3-8.12.44-11.84,1.83-14.31,2.76a10.93,10.93,0,0,1-3.89,1c-.66,0-1.58-.11-2.74-.24A64.67,64.67,0,0,0,69.28,44.49Z"/><path class="cls-3" d="M126.94,46.38a11.3,11.3,0,0,0,4.31-.93,13,13,0,0,0,3.69-2.31,8.89,8.89,0,0,0,3.33-7.49,5.38,5.38,0,0,0-1.17-3.81,10,10,0,0,0-3.76-1.9l-4.26-1.38c-1.42-.5-2.84-1-4.25-1.49,1.47.29,2.93.65,4.39,1l4.38,1.09a9.88,9.88,0,0,1,4.24,2,4.76,4.76,0,0,1,1.22,2.17,9.61,9.61,0,0,1,.31,2.35,12.58,12.58,0,0,1-.13,2.35,8.44,8.44,0,0,1-.77,2.25,10.9,10.9,0,0,1-3,3.57A11.6,11.6,0,0,1,126.94,46.38Z"/><path class="cls-3" d="M109,44.08c2.26,3.53,4.33,7.18,6.29,10.88s3.74,7.52,5.35,11.42a70.43,70.43,0,0,1,4.1,12A40.51,40.51,0,0,1,125.6,91h-.22c-.75-4.15-1.7-8.13-2.82-12.11l-1.73-6c-.53-2-1.21-4-1.88-5.93-1.38-3.92-3-7.76-4.7-11.57s-3.49-7.58-5.48-11.25Z"/><path class="cls-3" d="M94.75,64.85a75.92,75.92,0,0,0,8.76,10.6c1.62,1.63,3.26,3.14,5,4.71a30.06,30.06,0,0,1,4.6,5.49,46.94,46.94,0,0,1,3.35,6.25,58.21,58.21,0,0,1,2.33,6.65,43.85,43.85,0,0,1,1.76,13.83,71.49,71.49,0,0,0-3.4-13.32,57.94,57.94,0,0,0-5.88-12.2,29.67,29.67,0,0,0-4.19-5.19c-1.61-1.62-3.33-3.27-4.82-5.06A45.37,45.37,0,0,1,94.75,64.85Z"/><path class="cls-3" d="M138.46,39.06a43.26,43.26,0,0,1,7,11A32.9,32.9,0,0,1,148,59.65l.27,3.25c.3,4.34.67,8.67.55,13a101.19,101.19,0,0,1-1,13h-.22c-.55-4.33-.78-8.65-1-13s0-8.64-.11-12.94l-.1-3.23a31.71,31.71,0,0,0-2-9.28,42.1,42.1,0,0,0-6.12-11.27Z"/><path class="cls-3" d="M142.58,110.43a24.24,24.24,0,0,0,.61-3.12,31.56,31.56,0,0,0,.29-3.22,29.85,29.85,0,0,0-.44-6.46,29.86,29.86,0,0,1,1,6.46c.05,1.1.05,2.2,0,3.3a27.3,27.3,0,0,1-.38,3.31Z"/><path class="cls-3" d="M159.38,69.41a18,18,0,0,1,1.35-8.17,31.25,31.25,0,0,1,1.8-3.72,12.55,12.55,0,0,0,1.15-3.59c.1-.6.13-1.26.19-2l.18-2c.06-.67.12-1.35.21-2a17.51,17.51,0,0,1,.35-2.11c.69-2.74,2-5.58,4.74-7l1.12-.59-.58,1.17a6.77,6.77,0,0,0-.06,5.64,10.15,10.15,0,0,0,3.92,4.32,23.36,23.36,0,0,0,5.39,2.55,55.2,55.2,0,0,0,5.8,1.65,86.53,86.53,0,0,0,11.89,2.08,52.07,52.07,0,0,0,6,.3,29.39,29.39,0,0,0,3-.15,18.25,18.25,0,0,0,2.82-.46l.13,0a10.69,10.69,0,0,0,2.9-1.09,8,8,0,0,0,2.38-2,7.83,7.83,0,0,0,1.37-2.88,11.38,11.38,0,0,0,.24-3.31l.22,0a10.31,10.31,0,0,1,.25,3.47,7.65,7.65,0,0,1-1.15,3.39,9.39,9.39,0,0,1-2.52,2.62A10.39,10.39,0,0,1,209.08,57l.13,0a23.28,23.28,0,0,1-6.32,1.14,48.7,48.7,0,0,1-6.28-.12,67.81,67.81,0,0,1-12.2-2.46,31.82,31.82,0,0,1-11.3-5.3,12.7,12.7,0,0,1-3.91-4.92,8.37,8.37,0,0,1,0-6.3l.54.57a6.7,6.7,0,0,0-2.34,2.89,12.37,12.37,0,0,0-1,3.7c-.1.64-.13,1.28-.19,1.94s-.1,1.36-.15,2l-.19,2c-.07.67-.12,1.37-.26,2.1A12.48,12.48,0,0,1,164,58.35c-.75,1.21-1.43,2.26-2,3.47a22,22,0,0,0-2.41,7.59Z"/><path class="cls-3" d="M166.61,108.56c-.21-2.91-.26-5.77-.22-8.65s.18-5.74.49-8.6a59.58,59.58,0,0,1,1.47-8.49,31.09,31.09,0,0,1,3.12-8,31,31,0,0,0-2.59,8.09,58.51,58.51,0,0,0-.9,8.45c-.13,2.83-.08,5.67.06,8.49s.38,5.67.76,8.43Z"/><path class="cls-4" d="M98.91,119.89s-8.38,3.6-6.64,6.81,3.2,3.3,3.2,3.3-3.61,2.26-3.44,5.87c.19,3.93,2.2,6.32,5.56,5.42,2.44-.66,30.16-6.5,41.08-7.78s29,.18,29,.18l8.33.73c2.39.65,3.46.07,5.1-.47a5.75,5.75,0,0,0,4-4.22c1.05-3.95-2.48-9.73-6.7-9.36-2.72.23-1.44-2.2-.18-4a4.85,4.85,0,0,0-4-7.56C166.24,109.12,143.45,106.85,98.91,119.89Z"/><path class="cls-4" d="M136.75,311.9a22.51,22.51,0,0,1-8.3-1.41,22,22,0,0,1-6.9-4.47,4,4,0,0,1-.73-1,2.48,2.48,0,0,1-.29-1.18,2.63,2.63,0,0,1,.74-1.82,2.36,2.36,0,0,1,1.82-.8,2.2,2.2,0,0,1,1.59.71,18.14,18.14,0,0,0,5.4,3.7,16.1,16.1,0,0,0,6.54,1.28,13.68,13.68,0,0,0,5.08-.9,8.67,8.67,0,0,0,3.6-2.49,5.55,5.55,0,0,0,1.34-3.7,6.42,6.42,0,0,0-1.5-4.21,10.86,10.86,0,0,0-3.95-2.78,33,33,0,0,0-5.85-1.88,36.27,36.27,0,0,1-5.39-1.73,16.2,16.2,0,0,1-4.25-2.52,10.35,10.35,0,0,1-2.77-3.64,11.82,11.82,0,0,1-1-5,10.9,10.9,0,0,1,1.91-6.38,12.43,12.43,0,0,1,5.3-4.25,19.06,19.06,0,0,1,7.79-1.5,21.23,21.23,0,0,1,7.37,1.28,14.24,14.24,0,0,1,5.59,3.51,3.39,3.39,0,0,1,1.28,2.36,2.47,2.47,0,0,1-.8,1.76,2.5,2.5,0,0,1-1.82.79,1.9,1.9,0,0,1-1.28-.51,11.08,11.08,0,0,0-2.74-2.17,16.24,16.24,0,0,0-3.64-1.53,15.08,15.08,0,0,0-9.13.29,8,8,0,0,0-3.48,2.42,5.84,5.84,0,0,0-1.25,3.74,5.72,5.72,0,0,0,1.41,4,10.27,10.27,0,0,0,3.77,2.55,40.49,40.49,0,0,0,5.23,1.76,51.44,51.44,0,0,1,5.78,1.75,17.31,17.31,0,0,1,4.56,2.46,9.85,9.85,0,0,1,3,3.74,13.22,13.22,0,0,1,1.06,5.58,10.44,10.44,0,0,1-2,6.26,13.3,13.3,0,0,1-5.4,4.31A19.14,19.14,0,0,1,136.75,311.9Zm2.87,5.87a2.47,2.47,0,0,1-.73,1.82,2.55,2.55,0,0,1-1.89.73,2.34,2.34,0,0,1-1.78-.73,2.54,2.54,0,0,1-.71-1.82V262.1a2.58,2.58,0,0,1,.74-1.85,2.57,2.57,0,0,1,3.67,0,2.63,2.63,0,0,1,.7,1.85Z"/><path class="cls-2" d="M126.51,178.06S88,222.48,77,247.07,58.61,313.51,65.21,322s-11.37,21.66-11.37,21.66-10.65,10.27-2.57,21.65,25.32,0,25.32,0,2.94,9.18,16.15,8.08,25.7-5.14,25.7-6.24,13.21,8.84,23.86,8.64,44.78,3.84,62.4-5.34,13.21-3.67,13.21-3.67,25.7,5.14,27.53-4,5.14-.36,5.14-.36.73,4.4,18,3.3,13.21-9.91,13.21-9.91-5.51-17.62-10.64-27.9S264.9,304,264.9,304s-4-52.49-19.83-78.18-13.94-31.25-38.17-54.35c0,.23-17.11-2.48-36.71-1.44C152.87,170.9,126.51,178.06,126.51,178.06Z"/><path class="cls-3" d="M168,377c-6.1,0-11.86-.24-16.59-.45-3.73-.16-6.95-.31-9.11-.26-7.66.13-16.35-4.71-21-7.31-1-.58-2.09-1.17-2.56-1.36-2.08,2.1-15.34,5.39-25.92,6.27-11.42.95-15.46-5.69-16.46-7.82-3.08,1.85-18.06,10-25.51-.49-8.26-11.63,2.52-22.26,2.63-22.37s11.58-8.59,12.6-16a6.28,6.28,0,0,0-1.27-4.9c-7-8.91.91-51.41,11.68-75.45,10.92-24.38,49.25-68.69,49.64-69.14l.11-.13.16,0c.26-.07,26.61-7.19,43.8-8.09a216.28,216.28,0,0,1,34.61,1.26l1.58.16,0-.69.9.86c17.26,16.47,21.28,23.93,27.93,36.3,2.7,5,5.77,10.72,10.33,18.16,15.68,25.51,19.86,77.91,19.91,78.43,0,.13,1.15,13.6,6.18,23.66s10.62,27.8,10.68,28a6.18,6.18,0,0,1-.41,5.39c-1.81,3-6.28,4.78-13.3,5.23-17.24,1.1-18.48-3.26-18.56-3.76-.53-1.38-1.69-3.41-2.41-3.35-.16,0-.95.25-1.65,3.73-1.92,9.61-27.1,4.69-28.18,4.47l-.88-.17.56-.71a1.56,1.56,0,0,0,.37-.76c-.18-.08-1.82-.51-12.9,5.26C195.35,375.89,180.9,377,168,377Zm-24.9-1.82c2.15,0,5.06.13,8.36.27,14.62.63,39.09,1.69,53-5.54,12.84-6.68,13.82-5.5,14.28-4.93a1.27,1.27,0,0,1,.07,1.35c4.24.75,24.58,3.93,26.11-3.74.61-3.06,1.45-4.52,2.64-4.62,1.87-.12,3.29,3.44,3.56,4.16,0,.12,1.21,4,17.43,2.95,6.53-.42,10.82-2,12.41-4.68a5,5,0,0,0,.34-4.45c-.08-.24-5.58-17.76-10.64-27.88s-6.28-23.92-6.29-24.06c0-.53-4.21-52.66-19.74-77.94-4.59-7.47-7.66-13.18-10.37-18.22-6.58-12.23-10.56-19.63-27.55-35.86-.34,0-.93-.08-2-.2a217,217,0,0,0-34.44-1.25c-16.36.86-41.16,7.41-43.4,8C124.53,181.2,88,223.7,77.46,247.29,66,272.81,59.52,313.79,65.65,321.61a7.35,7.35,0,0,1,1.49,5.73c-1.08,7.89-12.49,16.35-13,16.71s-10.15,10-2.44,20.89,24.4,0,24.57-.14l.6-.39.23.68c.11.36,3,8.74,15.58,7.7S116.78,368,117.89,367v-.19l.3-.23c.47-.27,1,0,3.62,1.46,4.53,2.52,12.91,7.18,20.17,7.18h1.13Z"/><path class="cls-2" d="M203.14,145.62s2.75-12.39,12.11-19,7.85-2.07,12.8-9.64S239.89,96.21,242,96.48s6.2-22.43-3-24.5-27.4-3.3-33.87,0l-6.46,3.3A9.61,9.61,0,0,1,196,69.94c-.28-3-.55-10.9-20.23-12.41S153.86,64,153.86,64s2.45,17.76,1.93,19.54c-.63,2.13-1.52,3.72-11,1.38s-5.1-7.85-17.9-7.16-14.73,3.72-18.17,3.72-14.86-3-28.9,3,3.16,22.43,7,24.22a64.75,64.75,0,0,1,24.77,18.59c10.05,12.25,16.23,29.35,16.23,29.35S165.22,144.66,203.14,145.62Z"/><path class="cls-3" d="M127.49,157.35l-.18-.5c-.06-.17-6.26-17.15-16.13-29.19a63.55,63.55,0,0,0-23.9-18.11l-.69-.32C83.83,108,73.73,98.92,73.83,91.39c0-3.27,2-5.76,5.76-7.39,11.58-5,21.29-3.89,26.5-3.3,1.13.13,2,.23,2.62.23a9.75,9.75,0,0,0,3.5-.89c2.53-1,6.35-2.38,14.64-2.83,7.65-.41,9.38,1.34,11.38,3.37a12.1,12.1,0,0,0,6.68,3.81c9.38,2.31,9.85.7,10.35-1,.35-1.22-1-12.49-1.95-19.32V64l0-.11c.09-.34,2.55-8.4,22.46-6.87,19.74,1.52,20.43,9.37,20.72,12.72l0,.19a8.81,8.81,0,0,0,2.19,4.71l6.09-3.11c7-3.57,25.72-1.95,34.24,0,6.89,1.55,6.75,13.09,5.58,19.67-.5,2.8-1.37,6.1-2.75,5.92-1.18,0-5.53,7.35-8.42,12.19-1.68,2.82-3.41,5.73-5,8.07-3,4.58-3.75,4.89-5.78,5.72a32.28,32.28,0,0,0-7.16,4.07c-9.07,6.4-11.87,18.54-11.89,18.66l-.1.44h-.46c-37.39-.94-74.75,10.9-75.12,11ZM98.2,81.27A45.34,45.34,0,0,0,80,85c-3.34,1.44-5,3.59-5.09,6.4-.09,6.94,9.59,15.64,12.13,16.82l.68.32A64.56,64.56,0,0,1,112,127c9,11,15,26.11,16.13,29,4.57-1.41,39.48-11.71,74.55-10.93.59-2.31,3.69-12.86,12.22-18.88a33.06,33.06,0,0,1,7.38-4.19c1.85-.75,2.47-1,5.28-5.3,1.52-2.32,3.25-5.23,4.92-8,5.24-8.78,7.77-12.73,9.39-12.73h0c.93-.73,3-9.07,1.88-16-.47-3-1.73-6.69-5-7.42-9.52-2.13-27.3-3.21-33.49,0L198.49,76l-.28-.28A10.13,10.13,0,0,1,195.43,70l0-.19c-.26-3.08-.89-10.28-19.71-11.72-17.72-1.36-20.93,5.11-21.28,6,.33,2.36,2.42,17.84,1.89,19.64-.74,2.53-2,4.14-11.67,1.75a13.09,13.09,0,0,1-7.19-4.09c-1.89-1.92-3.38-3.43-10.54-3-8.12.44-11.85,1.84-14.31,2.76a10.72,10.72,0,0,1-3.89,1,26.19,26.19,0,0,1-2.75-.24A66.78,66.78,0,0,0,98.2,81.27Z"/><path class="cls-3" d="M155.86,83.15a11.12,11.12,0,0,0,4.31-.93,12.57,12.57,0,0,0,3.68-2.31,8.9,8.9,0,0,0,3.34-7.49,5.34,5.34,0,0,0-1.17-3.8,9.83,9.83,0,0,0-3.76-1.91L158,65.33c-1.41-.49-2.83-1-4.24-1.49,1.47.29,2.93.65,4.39,1l4.37,1.08a9.88,9.88,0,0,1,4.25,2A4.73,4.73,0,0,1,168,70a9.61,9.61,0,0,1,.31,2.35,12.54,12.54,0,0,1-.13,2.35,8.5,8.5,0,0,1-.77,2.26,11.09,11.09,0,0,1-3,3.56A11.56,11.56,0,0,1,155.86,83.15Z"/><path class="cls-3" d="M137.87,80.85c2.26,3.53,4.32,7.18,6.29,10.89s3.74,7.52,5.35,11.41a70.84,70.84,0,0,1,4.1,12,40.43,40.43,0,0,1,.91,12.64h-.22c-.75-4.15-1.7-8.14-2.82-12.12l-1.73-6c-.53-2-1.22-4-1.88-5.92-1.38-3.92-3-7.77-4.7-11.57s-3.49-7.59-5.49-11.26Z"/><path class="cls-3" d="M123.67,101.62a74.66,74.66,0,0,0,8.76,10.6c1.62,1.63,3.26,3.15,5,4.71a30.06,30.06,0,0,1,4.6,5.49,48.21,48.21,0,0,1,3.35,6.25,56.93,56.93,0,0,1,2.32,6.65,43.92,43.92,0,0,1,1.77,13.84,71.49,71.49,0,0,0-3.4-13.32,57.78,57.78,0,0,0-5.88-12.21,29.67,29.67,0,0,0-4.19-5.19c-1.61-1.62-3.33-3.27-4.82-5.06A45,45,0,0,1,123.67,101.62Z"/><path class="cls-3" d="M167.38,75.84a43.09,43.09,0,0,1,7,11,33.14,33.14,0,0,1,2,6.29,32.65,32.65,0,0,1,.52,3.29l.26,3.25c.31,4.33.67,8.66.56,13a103.17,103.17,0,0,1-1,13h-.22c-.55-4.33-.78-8.65-1-13s0-8.63-.11-12.94l-.09-3.22A30.13,30.13,0,0,0,175,93.4a31.69,31.69,0,0,0-1.62-6.15A42.54,42.54,0,0,0,167.21,76Z"/><path class="cls-3" d="M171.49,147.21a24.41,24.41,0,0,0,.62-3.13,31.12,31.12,0,0,0,.29-3.21,29.9,29.9,0,0,0-.44-6.47,30,30,0,0,1,1,6.47,32.83,32.83,0,0,1,0,3.29,26.85,26.85,0,0,1-.38,3.31Z"/><path class="cls-3" d="M188.3,106.19A18,18,0,0,1,189.65,98a29.92,29.92,0,0,1,1.8-3.73,12.49,12.49,0,0,0,1.15-3.58c.1-.61.13-1.27.19-2l.18-2c.06-.68.12-1.36.21-2a17,17,0,0,1,.35-2.1c.69-2.74,2-5.58,4.73-7l1.13-.6-.58,1.17a6.77,6.77,0,0,0-.06,5.64,10.18,10.18,0,0,0,3.92,4.33,22.93,22.93,0,0,0,5.39,2.54,55.75,55.75,0,0,0,5.79,1.66,86.93,86.93,0,0,0,11.9,2.08,57,57,0,0,0,6,.3c1,0,2,0,3-.15a18.16,18.16,0,0,0,2.83-.47l.13,0a10.37,10.37,0,0,0,2.9-1.09,8.14,8.14,0,0,0,2.38-2,7.78,7.78,0,0,0,1.37-2.87,11.45,11.45,0,0,0,.24-3.32l.21,0a10.08,10.08,0,0,1,.26,3.47,7.74,7.74,0,0,1-1.15,3.39,9.29,9.29,0,0,1-2.52,2.63A10.6,10.6,0,0,1,238,93.77l.13,0a23.65,23.65,0,0,1-6.32,1.13,48.7,48.7,0,0,1-6.28-.11,67.83,67.83,0,0,1-12.2-2.47A31.8,31.8,0,0,1,202,87a12.64,12.64,0,0,1-3.91-4.93,8.35,8.35,0,0,1-.05-6.29l.54.57a6.61,6.61,0,0,0-2.34,2.88,12.45,12.45,0,0,0-1,3.7c-.1.64-.13,1.28-.19,1.94s-.1,1.36-.15,2l-.19,2c-.07.66-.12,1.36-.26,2.09A12.48,12.48,0,0,1,193,95.12c-.75,1.22-1.43,2.27-2,3.48a21.9,21.9,0,0,0-2.41,7.59Z"/><path class="cls-3" d="M195.53,145.34c-.21-2.92-.26-5.77-.23-8.65s.18-5.75.5-8.61a59.42,59.42,0,0,1,1.46-8.48,31.91,31.91,0,0,1,3.12-8,31.35,31.35,0,0,0-2.58,8.1,58.37,58.37,0,0,0-.9,8.44c-.13,2.83-.08,5.67.06,8.5s.38,5.66.76,8.42Z"/><path class="cls-4" d="M127.83,156.67s-8.38,3.59-6.64,6.8,3.2,3.3,3.2,3.3-3.61,2.26-3.44,5.88c.19,3.93,2.2,6.32,5.56,5.41,2.44-.65,30.15-6.49,41.07-7.77s29,.17,29,.17l8.33.73c2.39.66,3.46.07,5.1-.47a5.75,5.75,0,0,0,4-4.22c1.05-3.95-2.48-9.73-6.7-9.36-2.72.24-1.44-2.2-.18-4a4.85,4.85,0,0,0-4-7.56C195.15,145.89,172.37,143.62,127.83,156.67Z"/><path class="cls-4" d="M165.67,348.67a22.73,22.73,0,0,1-8.3-1.4,22.34,22.34,0,0,1-6.9-4.47,4.09,4.09,0,0,1-.73-1,2.51,2.51,0,0,1-.29-1.18,2.62,2.62,0,0,1,.74-1.82A2.35,2.35,0,0,1,152,338a2.2,2.2,0,0,1,1.6.7,18.14,18.14,0,0,0,5.4,3.7,15.9,15.9,0,0,0,6.54,1.28,13.92,13.92,0,0,0,5.08-.89,8.86,8.86,0,0,0,3.6-2.49,5.57,5.57,0,0,0,1.34-3.71,6.44,6.44,0,0,0-1.5-4.21,10.94,10.94,0,0,0-4-2.78,32.62,32.62,0,0,0-5.84-1.88,35.9,35.9,0,0,1-5.39-1.72,16,16,0,0,1-4.25-2.53,10.2,10.2,0,0,1-2.77-3.63,11.71,11.71,0,0,1-1-5,10.85,10.85,0,0,1,1.91-6.38,12.43,12.43,0,0,1,5.3-4.25,19.06,19.06,0,0,1,7.79-1.5,21.23,21.23,0,0,1,7.37,1.28,14.24,14.24,0,0,1,5.59,3.51,3.41,3.41,0,0,1,1.28,2.36,2.45,2.45,0,0,1-.8,1.76,2.52,2.52,0,0,1-1.82.8,1.88,1.88,0,0,1-1.28-.51,10.85,10.85,0,0,0-2.74-2.17,16.74,16.74,0,0,0-3.64-1.54,14.25,14.25,0,0,0-4-.57,14.4,14.4,0,0,0-5.17.86,8.08,8.08,0,0,0-3.48,2.43,5.81,5.81,0,0,0-1.25,3.73,5.72,5.72,0,0,0,1.41,4,10.21,10.21,0,0,0,3.76,2.56,41.21,41.21,0,0,0,5.24,1.75,51.4,51.4,0,0,1,5.78,1.76,17.47,17.47,0,0,1,4.56,2.46,9.81,9.81,0,0,1,3,3.73,13.24,13.24,0,0,1,1.06,5.59,10.48,10.48,0,0,1-2,6.25,13.3,13.3,0,0,1-5.4,4.31A18.81,18.81,0,0,1,165.67,348.67Zm2.87,5.87a2.5,2.5,0,0,1-.73,1.82,2.56,2.56,0,0,1-1.89.74,2.35,2.35,0,0,1-1.78-.74,2.52,2.52,0,0,1-.71-1.82V298.87a2.58,2.58,0,0,1,.74-1.85,2.6,2.6,0,0,1,3.67,0,2.63,2.63,0,0,1,.7,1.85Z"/><path class="cls-2" d="M154.06,207.3s-38.54,44.42-49.56,69-18.35,66.44-11.74,74.88-11.38,21.66-11.38,21.66-10.65,10.28-2.57,21.66,25.33,0,25.33,0,2.93,9.17,16.15,8.07S146,397.44,146,396.34s13.22,8.84,23.86,8.64,44.78,3.84,62.4-5.34S245.45,396,245.45,396s25.7,5.14,27.53-4,5.14-.37,5.14-.37.74,4.4,18,3.3S309.32,385,309.32,385s-5.5-17.62-10.64-27.89-6.24-23.86-6.24-23.86-4-52.49-19.82-78.19-13.95-31.24-38.18-54.35c0,.23-17.11-2.47-36.7-1.44C180.41,200.14,154.06,207.3,154.06,207.3Z"/><path class="cls-3" d="M195.55,406.25c-6.1,0-11.85-.25-16.58-.46-3.73-.16-7-.3-9.12-.26-7.66.13-16.35-4.71-21-7.31-1-.58-2.1-1.17-2.57-1.35-2.08,2.09-15.34,5.38-25.92,6.26-11.42.95-15.46-5.69-16.45-7.82-3.09,1.85-18.07,10-25.52-.49-8.25-11.63,2.53-22.26,2.64-22.37s11.57-8.59,12.59-16a6.24,6.24,0,0,0-1.27-4.9c-7-8.91.92-51.41,11.68-75.44,10.92-24.39,49.25-68.7,49.64-69.15l.11-.12.16,0c.27-.07,26.61-7.19,43.8-8.09a216.28,216.28,0,0,1,34.61,1.26l1.59.17v-.69l.9.86c17.27,16.46,21.28,23.92,27.93,36.29,2.7,5,5.77,10.73,10.34,18.16,15.67,25.52,19.86,77.91,19.9,78.43,0,.14,1.15,13.6,6.18,23.66s10.62,27.8,10.68,28a6.14,6.14,0,0,1-.41,5.39c-1.81,3-6.28,4.79-13.3,5.23-17.24,1.11-18.48-3.26-18.56-3.76-.53-1.38-1.69-3.41-2.41-3.35-.15,0-.95.25-1.65,3.73-1.92,9.61-27.1,4.69-28.17,4.47l-.89-.17.56-.71a1.58,1.58,0,0,0,.37-.75c-.18-.09-1.81-.52-12.89,5.25C222.89,405.13,208.45,406.25,195.55,406.25Zm-24.89-1.83c2.14,0,5.05.13,8.35.27,14.62.63,39.09,1.69,53-5.53,12.83-6.69,13.81-5.51,14.28-4.94a1.27,1.27,0,0,1,.06,1.36c4.24.75,24.58,3.93,26.11-3.75.62-3.05,1.45-4.52,2.64-4.62,1.88-.11,3.29,3.44,3.56,4.17,0,.12,1.22,4,17.43,2.94,6.53-.41,10.82-2,12.42-4.68a5.06,5.06,0,0,0,.33-4.45c-.08-.24-5.57-17.76-10.63-27.88s-6.29-23.92-6.3-24.06c0-.53-4.21-52.65-19.74-77.94-4.59-7.46-7.66-13.18-10.37-18.22-6.57-12.23-10.55-19.63-27.55-35.86-.34,0-.93-.08-2-.2a217.18,217.18,0,0,0-34.44-1.25c-16.37.86-41.16,7.41-43.41,8-2.29,2.66-38.79,45.15-49.35,68.75C93.58,302.05,87.07,343,93.19,350.85a7.32,7.32,0,0,1,1.49,5.73c-1.08,7.89-12.49,16.36-13,16.71s-10.14,10-2.44,20.9,24.41,0,24.57-.14l.61-.4.22.69c.12.35,3,8.73,15.58,7.69s24.09-4.77,25.19-5.82V396l.31-.23c.47-.28,1,0,3.61,1.46,4.53,2.51,12.91,7.17,20.17,7.17h1.14Z"/><path class="cls-2" d="M230.68,174.87s2.75-12.39,12.11-19,7.85-2.06,12.8-9.64,11.84-20.78,13.91-20.51,6.19-22.43-3-24.5-27.39-3.3-33.86,0l-6.47,3.31a9.66,9.66,0,0,1-2.62-5.35c-.27-3.05-.55-10.9-20.23-12.41s-21.89,6.47-21.89,6.47,2.45,17.77,1.93,19.55c-.62,2.13-1.51,3.71-11,1.37s-5.1-7.84-17.9-7.16-14.72,3.72-18.17,3.72-14.86-3-28.9,3,3.16,22.44,7,24.23a64.61,64.61,0,0,1,24.77,18.58c10.05,12.25,16.23,29.35,16.23,29.35S192.76,173.9,230.68,174.87Z"/><path class="cls-3" d="M155,186.59l-.18-.5c-.07-.17-6.27-17.15-16.14-29.18a63.61,63.61,0,0,0-23.9-18.12l-.68-.31c-2.77-1.29-12.87-10.32-12.77-17.85,0-3.27,2-5.76,5.76-7.39,11.59-5,21.29-3.89,26.5-3.3,1.13.13,2,.23,2.62.23a9.85,9.85,0,0,0,3.51-.89c2.52-1,6.34-2.38,14.63-2.83,7.65-.4,9.38,1.35,11.38,3.38a12.1,12.1,0,0,0,6.68,3.8c9.39,2.31,9.85.7,10.35-1,.36-1.21-1-12.49-1.94-19.31l0-.12,0-.11c.1-.34,2.56-8.4,22.46-6.87,19.75,1.52,20.43,9.37,20.72,12.72l0,.19a8.92,8.92,0,0,0,2.19,4.72l6.1-3.12c7-3.57,25.71-2,34.23,0,6.9,1.54,6.75,13.08,5.58,19.66-.5,2.8-1.36,6.11-2.75,5.92-1.17,0-5.53,7.35-8.42,12.19-1.67,2.82-3.41,5.73-4.95,8.08-3,4.57-3.75,4.88-5.78,5.71a32.72,32.72,0,0,0-7.16,4.07c-9.07,6.4-11.87,18.54-11.89,18.66l-.1.45h-.45c-37.4-.94-74.75,10.89-75.13,11Zm-29.29-76.08a45.13,45.13,0,0,0-18.18,3.75c-3.34,1.44-5.06,3.59-5.09,6.39-.1,6.95,9.58,15.65,12.12,16.83l.68.31a64.56,64.56,0,0,1,24.29,18.42c9,11,15,26.11,16.14,29,4.57-1.41,39.47-11.71,74.54-10.93.59-2.31,3.69-12.85,12.23-18.88a33.31,33.31,0,0,1,7.37-4.18c1.85-.76,2.48-1,5.28-5.31,1.53-2.32,3.26-5.22,4.93-8,5.23-8.78,7.76-12.73,9.38-12.73h0c.93-.73,3-9.06,1.88-16-.47-3-1.72-6.68-5-7.42-9.52-2.13-27.3-3.21-33.49-.05L226,105.2l-.29-.28A10.13,10.13,0,0,1,223,99.23V99c-.27-3.08-.9-10.27-19.71-11.72-17.73-1.36-20.94,5.12-21.28,6,.32,2.36,2.42,17.84,1.89,19.64-.74,2.53-2,4.14-11.67,1.76a13.19,13.19,0,0,1-7.2-4.1c-1.89-1.92-3.38-3.43-10.54-3-8.12.44-11.84,1.84-14.31,2.76a10.67,10.67,0,0,1-3.89,1c-.66,0-1.58-.1-2.74-.23A64.63,64.63,0,0,0,125.75,110.51Z"/><path class="cls-3" d="M183.4,112.4a11.45,11.45,0,0,0,4.31-.93,13,13,0,0,0,3.69-2.31,8.89,8.89,0,0,0,3.33-7.49,5.36,5.36,0,0,0-1.17-3.81A10.12,10.12,0,0,0,189.8,96l-4.26-1.37c-1.42-.5-2.84-1-4.25-1.49,1.47.28,2.93.64,4.4,1l4.37,1.08a9.9,9.9,0,0,1,4.24,2,4.67,4.67,0,0,1,1.22,2.17,9.54,9.54,0,0,1,.31,2.35,12.48,12.48,0,0,1-.13,2.34,8.38,8.38,0,0,1-.77,2.26,11,11,0,0,1-3,3.56A11.59,11.59,0,0,1,183.4,112.4Z"/><path class="cls-3" d="M165.42,110.09c2.25,3.54,4.32,7.18,6.29,10.89s3.74,7.52,5.34,11.41a71.77,71.77,0,0,1,4.11,12,40.73,40.73,0,0,1,.9,12.64h-.22c-.75-4.15-1.7-8.14-2.82-12.11L177.3,139c-.54-2-1.22-4-1.89-5.93-1.38-3.92-3-7.77-4.7-11.57s-3.49-7.58-5.48-11.25Z"/><path class="cls-3" d="M151.21,130.86A75.43,75.43,0,0,0,160,141.47c1.62,1.63,3.27,3.14,5,4.71a30.07,30.07,0,0,1,4.59,5.49,45.81,45.81,0,0,1,3.35,6.25,56.84,56.84,0,0,1,2.33,6.64A43.62,43.62,0,0,1,177,178.4a71.49,71.49,0,0,0-3.4-13.32,58,58,0,0,0-5.88-12.21,29.54,29.54,0,0,0-4.18-5.18c-1.62-1.62-3.34-3.27-4.83-5.07A45,45,0,0,1,151.21,130.86Z"/><path class="cls-3" d="M194.92,105.08a43.26,43.26,0,0,1,7,11,32.44,32.44,0,0,1,2,6.29,30,30,0,0,1,.52,3.29l.27,3.25c.3,4.33.67,8.66.55,13a101.19,101.19,0,0,1-1,13H204c-.55-4.33-.78-8.64-1-13s0-8.63-.11-12.94l-.1-3.22a30.13,30.13,0,0,0-.34-3.14,31.66,31.66,0,0,0-1.61-6.15,42.57,42.57,0,0,0-6.13-11.27Z"/><path class="cls-3" d="M199,176.45a26.26,26.26,0,0,0,.62-3.13,31.11,31.11,0,0,0,.28-3.21,29.23,29.23,0,0,0-.44-6.46,31.72,31.72,0,0,1,1,9.75,26.82,26.82,0,0,1-.37,3.31Z"/><path class="cls-3" d="M215.84,135.43a18,18,0,0,1,1.35-8.17,30.52,30.52,0,0,1,1.8-3.72,12.66,12.66,0,0,0,1.15-3.59c.1-.6.13-1.26.19-2l.18-2c.07-.68.12-1.35.21-2a15.64,15.64,0,0,1,.36-2.1c.68-2.74,2-5.58,4.73-7l1.13-.6-.59,1.17a6.83,6.83,0,0,0-.06,5.65,10.21,10.21,0,0,0,3.92,4.32,22.93,22.93,0,0,0,5.39,2.54,55.94,55.94,0,0,0,5.8,1.66,86.79,86.79,0,0,0,11.89,2.08,54.55,54.55,0,0,0,6,.3c1,0,2,0,3-.15a18.22,18.22,0,0,0,2.82-.47l.13,0a10.26,10.26,0,0,0,2.9-1.09,7.58,7.58,0,0,0,3.75-4.9,11.41,11.41,0,0,0,.24-3.31l.22,0a10.33,10.33,0,0,1,.25,3.47,7.81,7.81,0,0,1-1.14,3.4,9.28,9.28,0,0,1-2.53,2.62,10.6,10.6,0,0,1-3.34,1.58l.14,0a23.39,23.39,0,0,1-6.33,1.13,47,47,0,0,1-6.28-.11,68,68,0,0,1-12.2-2.47,31.67,31.67,0,0,1-11.29-5.29,12.76,12.76,0,0,1-3.92-4.93,8.35,8.35,0,0,1,0-6.29l.54.57a6.65,6.65,0,0,0-2.34,2.89,12.68,12.68,0,0,0-1,3.7c-.09.64-.13,1.27-.18,1.94s-.11,1.36-.16,2l-.19,2c-.07.66-.12,1.36-.26,2.1a12.34,12.34,0,0,1-1.52,4.08c-.75,1.22-1.43,2.27-2,3.48a21.77,21.77,0,0,0-2.42,7.59Z"/><path class="cls-3" d="M223.07,174.58c-.21-2.91-.26-5.77-.22-8.65s.18-5.75.49-8.61a59.44,59.44,0,0,1,1.47-8.48,31,31,0,0,1,3.12-8,31.18,31.18,0,0,0-2.59,8.09,58.36,58.36,0,0,0-.9,8.45c-.13,2.83-.08,5.66.06,8.49s.38,5.67.76,8.43Z"/><path class="cls-4" d="M155.37,185.91s-8.38,3.59-6.64,6.8,3.21,3.31,3.21,3.31-3.62,2.26-3.44,5.87c.18,3.93,2.2,6.32,5.56,5.41,2.43-.65,30.15-6.49,41.07-7.77s29,.18,29,.18l8.33.72c2.4.66,3.46.07,5.1-.46a5.77,5.77,0,0,0,4-4.23c1.06-4-2.48-9.73-6.7-9.36-2.72.24-1.43-2.2-.18-4a4.84,4.84,0,0,0-4-7.55C222.7,175.13,199.91,172.86,155.37,185.91Z"/><path class="cls-4" d="M193.21,377.91a22.73,22.73,0,0,1-8.3-1.4A22.3,22.3,0,0,1,178,372a4.13,4.13,0,0,1-.74-1,2.51,2.51,0,0,1-.29-1.18,2.62,2.62,0,0,1,.74-1.82,2.37,2.37,0,0,1,1.82-.8,2.23,2.23,0,0,1,1.59.7,18.18,18.18,0,0,0,5.4,3.71,16.13,16.13,0,0,0,6.54,1.27,13.68,13.68,0,0,0,5.08-.89,9,9,0,0,0,3.61-2.49,5.6,5.6,0,0,0,1.34-3.7,6.58,6.58,0,0,0-1.5-4.22,11.1,11.1,0,0,0-4-2.77,32.06,32.06,0,0,0-5.84-1.89,36,36,0,0,1-5.4-1.72,16.13,16.13,0,0,1-4.24-2.52,10.35,10.35,0,0,1-2.78-3.64,11.85,11.85,0,0,1-1-5,10.93,10.93,0,0,1,1.91-6.39,12.47,12.47,0,0,1,5.3-4.24,19.09,19.09,0,0,1,7.79-1.5,21.28,21.28,0,0,1,7.38,1.27,14.2,14.2,0,0,1,5.58,3.51,3.41,3.41,0,0,1,1.28,2.37,2.45,2.45,0,0,1-.8,1.75,2.52,2.52,0,0,1-1.82.8,1.85,1.85,0,0,1-1.27-.51A11.14,11.14,0,0,0,201,339a16.24,16.24,0,0,0-3.64-1.53,13.91,13.91,0,0,0-4-.58,14.4,14.4,0,0,0-5.17.86,8.08,8.08,0,0,0-3.48,2.43,6.32,6.32,0,0,0,.16,7.73,10.35,10.35,0,0,0,3.77,2.55,40.52,40.52,0,0,0,5.23,1.75,51.4,51.4,0,0,1,5.78,1.76,17.54,17.54,0,0,1,4.57,2.46,9.89,9.89,0,0,1,3,3.73,13.12,13.12,0,0,1,1.06,5.59,10.44,10.44,0,0,1-2,6.26,13.38,13.38,0,0,1-5.4,4.31A18.93,18.93,0,0,1,193.21,377.91Zm2.87,5.88a2.47,2.47,0,0,1-.73,1.82,2.55,2.55,0,0,1-1.88.73,2.36,2.36,0,0,1-1.79-.73,2.53,2.53,0,0,1-.7-1.82V328.12a2.58,2.58,0,0,1,.73-1.86,2.42,2.42,0,0,1,1.82-.76,2.38,2.38,0,0,1,1.85.76,2.64,2.64,0,0,1,.7,1.86Z"/><path class="cls-5" d="M110.13,313.38a1.73,1.73,0,0,1-1.28-.5,1.59,1.59,0,0,1-.49-1.19V288.31l.49.58-4.76,2.87a1.68,1.68,0,0,1-.83.21,1.55,1.55,0,0,1-1.19-.56,1.68,1.68,0,0,1-.49-1.13,1.62,1.62,0,0,1,.86-1.43l6.7-4a2.24,2.24,0,0,1,1.23-.25,1.38,1.38,0,0,1,1.11.48,1.67,1.67,0,0,1,.41,1.17v25.43a1.59,1.59,0,0,1-.49,1.19A1.72,1.72,0,0,1,110.13,313.38Z"/><path class="cls-5" d="M139.18,313.79a8.52,8.52,0,0,1-5.69-1.93,11.83,11.83,0,0,1-3.46-5.3,25.17,25.17,0,0,1,0-15.17,11.81,11.81,0,0,1,3.46-5.26,9.35,9.35,0,0,1,11.38,0,11.76,11.76,0,0,1,3.43,5.26,25.59,25.59,0,0,1,0,15.17,11.79,11.79,0,0,1-3.43,5.3A8.54,8.54,0,0,1,139.18,313.79Zm0-3.33a5.19,5.19,0,0,0,3.67-1.4,8.75,8.75,0,0,0,2.28-4,24.44,24.44,0,0,0,0-12.25,8.62,8.62,0,0,0-2.28-3.94,5.58,5.58,0,0,0-7.35,0,8.73,8.73,0,0,0-2.3,3.94,23.85,23.85,0,0,0,0,12.25,8.86,8.86,0,0,0,2.3,4A5.2,5.2,0,0,0,139.18,310.46Z"/><path class="cls-5" d="M163.87,313.79a8.54,8.54,0,0,1-5.69-1.93,11.9,11.9,0,0,1-3.45-5.3,25.17,25.17,0,0,1,0-15.17,11.87,11.87,0,0,1,3.45-5.26,9.35,9.35,0,0,1,11.38,0,11.68,11.68,0,0,1,3.43,5.26,25.59,25.59,0,0,1,0,15.17,11.7,11.7,0,0,1-3.43,5.3A8.54,8.54,0,0,1,163.87,313.79Zm0-3.33a5.21,5.21,0,0,0,3.68-1.4,8.75,8.75,0,0,0,2.28-4,24.44,24.44,0,0,0,0-12.25,8.62,8.62,0,0,0-2.28-3.94,5.6,5.6,0,0,0-7.36,0,8.82,8.82,0,0,0-2.3,3.94,23.85,23.85,0,0,0,0,12.25,9,9,0,0,0,2.3,4A5.21,5.21,0,0,0,163.87,310.46Z"/><path class="cls-5" d="M188.57,313.79a8.52,8.52,0,0,1-5.69-1.93,11.83,11.83,0,0,1-3.46-5.3,25.17,25.17,0,0,1,0-15.17,11.81,11.81,0,0,1,3.46-5.26,9.35,9.35,0,0,1,11.38,0,11.76,11.76,0,0,1,3.43,5.26,25.59,25.59,0,0,1,0,15.17,11.79,11.79,0,0,1-3.43,5.3A8.54,8.54,0,0,1,188.57,313.79Zm0-3.33a5.19,5.19,0,0,0,3.67-1.4,8.75,8.75,0,0,0,2.28-4,24.44,24.44,0,0,0,0-12.25,8.62,8.62,0,0,0-2.28-3.94,5.58,5.58,0,0,0-7.35,0,8.73,8.73,0,0,0-2.3,3.94,23.85,23.85,0,0,0,0,12.25,8.86,8.86,0,0,0,2.3,4A5.2,5.2,0,0,0,188.57,310.46Z"/><path class="cls-5" d="M224.56,313.79a8.54,8.54,0,0,1-5.69-1.93,11.9,11.9,0,0,1-3.45-5.3,25.17,25.17,0,0,1,0-15.17,11.87,11.87,0,0,1,3.45-5.26,9.35,9.35,0,0,1,11.38,0,11.68,11.68,0,0,1,3.43,5.26,25.59,25.59,0,0,1,0,15.17,11.7,11.7,0,0,1-3.43,5.3A8.54,8.54,0,0,1,224.56,313.79Zm0-3.33a5.21,5.21,0,0,0,3.68-1.4,8.75,8.75,0,0,0,2.28-4,24.44,24.44,0,0,0,0-12.25,8.62,8.62,0,0,0-2.28-3.94,5.6,5.6,0,0,0-7.36,0,8.82,8.82,0,0,0-2.3,3.94,23.85,23.85,0,0,0,0,12.25,9,9,0,0,0,2.3,4A5.21,5.21,0,0,0,224.56,310.46Z"/><path class="cls-5" d="M249.26,313.79a8.52,8.52,0,0,1-5.69-1.93,11.91,11.91,0,0,1-3.46-5.3,25.17,25.17,0,0,1,0-15.17,11.89,11.89,0,0,1,3.46-5.26,9.35,9.35,0,0,1,11.38,0,11.76,11.76,0,0,1,3.43,5.26,25.59,25.59,0,0,1,0,15.17,11.79,11.79,0,0,1-3.43,5.3A8.54,8.54,0,0,1,249.26,313.79Zm0-3.33a5.19,5.19,0,0,0,3.67-1.4,8.75,8.75,0,0,0,2.28-4,24.14,24.14,0,0,0,0-12.25,8.62,8.62,0,0,0-2.28-3.94,5.58,5.58,0,0,0-7.35,0,8.73,8.73,0,0,0-2.3,3.94,23.85,23.85,0,0,0,0,12.25,8.86,8.86,0,0,0,2.3,4A5.2,5.2,0,0,0,249.26,310.46Z"/><path class="cls-5" d="M274,313.79a8.54,8.54,0,0,1-5.69-1.93,11.9,11.9,0,0,1-3.45-5.3,25.17,25.17,0,0,1,0-15.17,11.87,11.87,0,0,1,3.45-5.26,9.35,9.35,0,0,1,11.38,0,11.68,11.68,0,0,1,3.43,5.26,25.59,25.59,0,0,1,0,15.17,11.7,11.7,0,0,1-3.43,5.3A8.52,8.52,0,0,1,274,313.79Zm0-3.33a5.21,5.21,0,0,0,3.68-1.4,8.75,8.75,0,0,0,2.28-4,24.44,24.44,0,0,0,0-12.25,8.62,8.62,0,0,0-2.28-3.94,5.6,5.6,0,0,0-7.36,0,8.82,8.82,0,0,0-2.3,3.94,23.85,23.85,0,0,0,0,12.25,9,9,0,0,0,2.3,4A5.21,5.21,0,0,0,274,310.46Z"/></g></g></svg>