<svg xmlns="http://www.w3.org/2000/svg" viewBox="0 0 329.08 426.26"><defs><style>.cls-1{fill:none;}.cls-2{fill:#d3f7a4;}.cls-3{fill:#58d313;}.cls-4{fill:#25a5dd;}.cls-5{fill:#363026;}</style></defs><g id="Layer_2" data-name="Layer 2"><g id="Layer_1-2" data-name="Layer 1"><rect class="cls-1" width="329.08" height="426.26"/><path class="cls-2" d="M110.79,160.12s-34.91,40.23-44.88,62.5-16.62,60.17-10.64,67.82S45,310.06,45,310.06s-9.64,9.3-2.32,19.61,22.94,0,22.94,0S68.24,338,80.2,337s23.28-4.65,23.28-5.65,12,8,21.61,7.83,40.55,3.48,56.51-4.84,12-3.32,12-3.32,23.27,4.65,24.93-3.66,4.66-.33,4.66-.33.66,4,16.29,3,12-9,12-9-5-16-9.64-25.27-5.66-21.61-5.66-21.61-3.65-47.54-18-70.81S205.54,175,183.6,154.11c0,.21-15.5-2.24-33.25-1.3C134.66,153.63,110.79,160.12,110.79,160.12Z"/><path class="cls-3" d="M148.37,340.3c-5.52,0-10.74-.22-15-.41-3.38-.14-6.3-.27-8.26-.23-6.93.11-14.8-4.27-19-6.63-.93-.52-1.89-1-2.32-1.22-1.88,1.9-13.9,4.87-23.47,5.67-10.35.87-14-5.15-14.91-7.08-2.79,1.67-16.36,9.06-23.11-.44-7.48-10.54,2.29-20.17,2.39-20.26S55.1,301.91,56,295.18a5.69,5.69,0,0,0-1.15-4.43c-6.32-8.07.83-46.56,10.57-68.33,9.89-22.09,44.61-62.23,45-62.63l.1-.11.15,0c.24-.07,24.1-6.51,39.67-7.33a195.88,195.88,0,0,1,31.35,1.14l1.43.15V153l.82.78c15.64,14.92,19.27,21.68,25.3,32.88,2.44,4.55,5.22,9.71,9.36,16.45,14.19,23.1,18,70.56,18,71,0,.12,1,12.31,5.6,21.43s9.62,25.18,9.67,25.34a5.54,5.54,0,0,1-.37,4.88c-1.63,2.74-5.69,4.34-12,4.74-15.62,1-16.74-2.95-16.81-3.41-.48-1.25-1.54-3.08-2.19-3-.14,0-.86.23-1.49,3.38-1.74,8.7-24.55,4.24-25.52,4.05l-.8-.16.51-.64a1.37,1.37,0,0,0,.33-.68c-.16-.08-1.64-.47-11.68,4.76C173.14,339.3,160.05,340.3,148.37,340.3Zm-22.54-1.65c1.94,0,4.57.12,7.56.25,13.25.57,35.41,1.53,48-5,11.63-6.05,12.51-5,12.94-4.47a1.19,1.19,0,0,1,.06,1.23c3.84.68,22.25,3.56,23.65-3.39.55-2.77,1.31-4.1,2.38-4.18,1.7-.11,3,3.11,3.23,3.77,0,.1,1.1,3.61,15.79,2.66,5.91-.37,9.79-1.84,11.24-4.24a4.56,4.56,0,0,0,.3-4c-.07-.21-5.05-16.08-9.63-25.25s-5.69-21.66-5.7-21.79c0-.48-3.82-47.69-17.88-70.59-4.16-6.76-6.94-11.93-9.39-16.5-6-11.08-9.56-17.78-25-32.48-.3,0-.84-.07-1.83-.18a196.43,196.43,0,0,0-31.19-1.14c-14.82.78-37.28,6.72-39.31,7.26-2.08,2.4-35.14,40.9-44.71,62.26C56,245.93,50.12,283.05,55.66,290.13A6.63,6.63,0,0,1,57,295.32c-1,7.15-11.31,14.81-11.75,15.14s-9.19,9.09-2.22,18.92,22.11,0,22.26-.13l.55-.36.2.63c.11.32,2.71,7.91,14.11,7S102,332.17,103,331.22v-.17l.28-.21c.42-.25.88,0,3.27,1.32,4.1,2.28,11.69,6.5,18.27,6.5h1Z"/><path class="cls-2" d="M180.19,130.74s2.49-11.22,11-17.21,7.11-1.87,11.59-8.72S213.48,86,215.35,86.23,221,65.91,212.6,64s-24.81-3-30.67,0l-5.85,3a8.71,8.71,0,0,1-2.37-4.84c-.25-2.76-.5-9.87-18.33-11.24s-19.82,5.86-19.82,5.86,2.22,16.09,1.74,17.7c-.56,1.93-1.37,3.37-10,1.25s-4.61-7.11-16.21-6.48-13.34,3.36-16.45,3.36S81.2,69.9,68.49,75.39s2.86,20.32,6.35,21.94a58.49,58.49,0,0,1,22.44,16.83c9.11,11.09,14.7,26.58,14.7,26.58S145.84,129.87,180.19,130.74Z"/><path class="cls-3" d="M111.68,141.36l-.17-.45c-.05-.15-5.67-15.54-14.61-26.44a57.58,57.58,0,0,0-21.64-16.4l-.63-.29C72.13,96.62,63,88.44,63.07,81.62c0-3,1.8-5.22,5.22-6.69,10.49-4.53,19.28-3.53,24-3,1,.11,1.83.2,2.38.2a8.94,8.94,0,0,0,3.17-.8c2.29-.86,5.75-2.16,13.26-2.56,6.92-.37,8.49,1.21,10.3,3a11,11,0,0,0,6,3.45c8.5,2.09,8.92.63,9.37-.91.33-1.1-.91-11.31-1.76-17.49v-.1l0-.1c.08-.31,2.31-7.62,20.34-6.23s18.5,8.49,18.77,11.52v.18a8.15,8.15,0,0,0,2,4.27l5.53-2.82c6.33-3.24,23.29-1.77,31-.05,6.25,1.4,6.12,11.86,5.06,17.82-.46,2.53-1.24,5.52-2.49,5.36-1.07,0-5,6.66-7.63,11-1.52,2.55-3.09,5.19-4.48,7.31-2.71,4.15-3.4,4.43-5.24,5.18a28.85,28.85,0,0,0-6.48,3.68c-8.22,5.8-10.75,16.8-10.77,16.91l-.09.4h-.41c-33.87-.85-67.71,9.87-68,10ZM85.15,72.45a41,41,0,0,0-16.47,3.39c-3,1.31-4.57,3.26-4.61,5.8-.08,6.29,8.68,14.17,11,15.24l.62.28a58.53,58.53,0,0,1,22,16.68c8.19,10,13.61,23.65,14.62,26.28,4.13-1.27,35.75-10.6,67.51-9.89.54-2.1,3.34-11.65,11.07-17.1a29.91,29.91,0,0,1,6.68-3.79c1.68-.69,2.24-.92,4.79-4.81,1.38-2.1,2.94-4.73,4.46-7.27,4.73-8,7-11.53,8.5-11.53h0c.84-.66,2.7-8.21,1.7-14.48-.42-2.7-1.56-6.06-4.54-6.72-8.62-1.93-24.72-2.91-30.33,0L176,67.64l-.25-.25a9.1,9.1,0,0,1-2.52-5.15l0-.18c-.24-2.78-.81-9.3-17.85-10.61-16.05-1.23-19,4.63-19.27,5.41.29,2.14,2.19,16.16,1.71,17.79-.67,2.29-1.82,3.75-10.57,1.59a11.84,11.84,0,0,1-6.52-3.71c-1.71-1.73-3.06-3.11-9.54-2.75-7.36.39-10.73,1.66-13,2.49a9.67,9.67,0,0,1-3.52.87,24.76,24.76,0,0,1-2.49-.21A58.08,58.08,0,0,0,85.15,72.45Z"/><path class="cls-3" d="M137.37,74.16a10.15,10.15,0,0,0,3.9-.84,11.76,11.76,0,0,0,3.34-2.09,8.06,8.06,0,0,0,3-6.79A4.89,4.89,0,0,0,146.57,61a8.92,8.92,0,0,0-3.41-1.72L139.3,58c-1.28-.45-2.57-.87-3.84-1.35,1.33.26,2.65.59,4,.88l4,1a8.84,8.84,0,0,1,3.84,1.78,4.28,4.28,0,0,1,1.11,2,8.64,8.64,0,0,1,.28,2.12,11.92,11.92,0,0,1-.12,2.13,7.25,7.25,0,0,1-.7,2,9.86,9.86,0,0,1-2.71,3.23A10.49,10.49,0,0,1,137.37,74.16Z"/><path class="cls-3" d="M121.08,72.07c2,3.2,3.91,6.51,5.69,9.86s3.39,6.82,4.85,10.34a64.28,64.28,0,0,1,3.71,10.85,36.78,36.78,0,0,1,.83,11.45H136c-.69-3.76-1.55-7.37-2.56-11l-1.56-5.39c-.48-1.82-1.11-3.59-1.71-5.37-1.25-3.55-2.71-7-4.25-10.48s-3.17-6.87-5-10.19Z"/><path class="cls-3" d="M108.21,90.89a68.07,68.07,0,0,0,7.94,9.6c1.46,1.47,2.95,2.85,4.52,4.26a27,27,0,0,1,4.16,5,41.62,41.62,0,0,1,3,5.66,50,50,0,0,1,2.11,6,39.45,39.45,0,0,1,1.6,12.53,64.65,64.65,0,0,0-3.08-12.06,52.21,52.21,0,0,0-5.32-11.06,27.86,27.86,0,0,0-3.79-4.7c-1.46-1.46-3-3-4.38-4.58A41.44,41.44,0,0,1,108.21,90.89Z"/><path class="cls-3" d="M147.8,67.53a39.1,39.1,0,0,1,6.32,10,29.08,29.08,0,0,1,1.81,5.7,27.19,27.19,0,0,1,.48,3l.24,2.95c.27,3.92.6,7.84.5,11.77a92.85,92.85,0,0,1-.92,11.76H156c-.5-3.92-.71-7.83-.88-11.74s0-7.82-.1-11.72L155,86.28a24.64,24.64,0,0,0-.3-2.84,28.57,28.57,0,0,0-1.46-5.57,38.51,38.51,0,0,0-5.55-10.21Z"/><path class="cls-3" d="M151.53,132.17a23.22,23.22,0,0,0,.56-2.83,28.08,28.08,0,0,0,.26-2.91,26.75,26.75,0,0,0-.4-5.85,28,28,0,0,1,.88,8.83,23.52,23.52,0,0,1-.33,3Z"/><path class="cls-3" d="M166.75,95a16.28,16.28,0,0,1,1.22-7.4,27.67,27.67,0,0,1,1.63-3.37,10.93,10.93,0,0,0,1-3.25c.09-.55.12-1.14.17-1.77l.17-1.84c.06-.61.11-1.22.19-1.83a15.7,15.7,0,0,1,.32-1.9c.62-2.48,1.82-5.06,4.29-6.36l1-.54-.53,1.06a6.12,6.12,0,0,0-.05,5.11,9.18,9.18,0,0,0,3.54,3.92,21,21,0,0,0,4.89,2.3,52.84,52.84,0,0,0,5.25,1.5,79.32,79.32,0,0,0,10.77,1.88,49.18,49.18,0,0,0,5.42.27c.89,0,1.8,0,2.68-.13a16.26,16.26,0,0,0,2.56-.43l.12,0a9.33,9.33,0,0,0,2.62-1,7.08,7.08,0,0,0,2.16-1.84,6.88,6.88,0,0,0,1.24-2.6,10,10,0,0,0,.21-3l.2,0a9.42,9.42,0,0,1,.24,3.14A7.07,7.07,0,0,1,217.07,80a8.3,8.3,0,0,1-2.28,2.37,9.51,9.51,0,0,1-3,1.43l.13,0a21.29,21.29,0,0,1-5.73,1,43.14,43.14,0,0,1-5.69-.1,62.37,62.37,0,0,1-11.05-2.23,28.83,28.83,0,0,1-10.23-4.8,11.55,11.55,0,0,1-3.55-4.46,7.59,7.59,0,0,1,0-5.7l.49.52A6,6,0,0,0,174,70.6a11.32,11.32,0,0,0-.91,3.35c-.08.58-.12,1.16-.17,1.76s-.09,1.23-.14,1.84l-.17,1.85c-.06.6-.11,1.23-.23,1.9A11.42,11.42,0,0,1,171,85c-.68,1.1-1.29,2-1.83,3.15A19.68,19.68,0,0,0,167,95Z"/><path class="cls-3" d="M173.3,130.48c-.19-2.64-.24-5.23-.21-7.83s.17-5.21.45-7.8a54.1,54.1,0,0,1,1.33-7.68A28.11,28.11,0,0,1,177.7,100a27.86,27.86,0,0,0-2.34,7.33,51.71,51.71,0,0,0-.82,7.65c-.12,2.56-.08,5.13.05,7.69s.34,5.13.69,7.63Z"/><path class="cls-4" d="M112,140.74s-7.59,3.26-6,6.16,2.9,3,2.9,3-3.27,2-3.12,5.32c.17,3.56,2,5.72,5,4.9,2.2-.59,27.31-5.88,37.2-7s26.29.16,26.29.16l7.54.66c2.17.59,3.13.06,4.62-.43a5.2,5.2,0,0,0,3.64-3.82c.95-3.58-2.24-8.81-6.07-8.48-2.46.21-1.3-2-.16-3.59a4.14,4.14,0,0,0,.25-4.48,4.19,4.19,0,0,0-3.91-2.36C173,131,152.32,128.92,112,140.74Z"/><path class="cls-4" d="M146.25,314.64a20.47,20.47,0,0,1-7.52-1.27,20.18,20.18,0,0,1-6.24-4.05,3.74,3.74,0,0,1-.66-.89,2.21,2.21,0,0,1-.27-1.07,2.38,2.38,0,0,1,.67-1.65,2.15,2.15,0,0,1,1.65-.72,2,2,0,0,1,1.44.63,16.78,16.78,0,0,0,4.89,3.36,14.59,14.59,0,0,0,5.93,1.15,12.42,12.42,0,0,0,4.59-.81,8,8,0,0,0,3.27-2.25,5.07,5.07,0,0,0,1.22-3.36,5.89,5.89,0,0,0-1.36-3.81,10.05,10.05,0,0,0-3.59-2.52,29.66,29.66,0,0,0-5.29-1.7,33,33,0,0,1-4.89-1.57,14.46,14.46,0,0,1-3.84-2.28,9.32,9.32,0,0,1-2.52-3.3,10.8,10.8,0,0,1-.89-4.53,9.92,9.92,0,0,1,1.73-5.79,11.3,11.3,0,0,1,4.8-3.84,17.2,17.2,0,0,1,7.06-1.36,19,19,0,0,1,6.67,1.16,12.84,12.84,0,0,1,5.06,3.18,3,3,0,0,1,1.16,2.14,2.24,2.24,0,0,1-.72,1.59,2.27,2.27,0,0,1-1.65.72,1.74,1.74,0,0,1-1.16-.46,9.8,9.8,0,0,0-2.48-2A15,15,0,0,0,150,278a12.66,12.66,0,0,0-3.58-.52,13,13,0,0,0-4.69.78,7.27,7.27,0,0,0-3.15,2.2,5.71,5.71,0,0,0,.14,7,9.45,9.45,0,0,0,3.42,2.31,35.52,35.52,0,0,0,4.74,1.59,45.62,45.62,0,0,1,5.23,1.59,16,16,0,0,1,4.14,2.23,8.84,8.84,0,0,1,2.68,3.38,11.9,11.9,0,0,1,1,5.06,9.44,9.44,0,0,1-1.79,5.66,12.17,12.17,0,0,1-4.89,3.91A17.29,17.29,0,0,1,146.25,314.64Zm2.6,5.32a2.24,2.24,0,0,1-.66,1.65,2.31,2.31,0,0,1-1.71.66,2.17,2.17,0,0,1-1.62-.66,2.3,2.3,0,0,1-.63-1.65V269.54a2.36,2.36,0,0,1,.66-1.68,2.22,2.22,0,0,1,1.65-.69,2.19,2.19,0,0,1,1.68.69,2.42,2.42,0,0,1,.63,1.68Z"/><path class="cls-2" d="M148.16,195.8S113.25,236,103.28,258.3s-16.62,60.17-10.64,67.82-10.3,19.61-10.3,19.61S72.7,355,80,365.35s22.94,0,22.94,0,2.66,8.31,14.63,7.31S140.85,368,140.85,367s12,8,21.61,7.82S203,378.31,219,370s12-3.32,12-3.32,23.27,4.65,24.94-3.66,4.65-.33,4.65-.33.67,4,16.29,3,12-9,12-9-5-16-9.64-25.26-5.65-21.61-5.65-21.61-3.66-47.54-18-70.82S242.91,210.72,221,189.79c0,.21-15.5-2.24-33.25-1.31C172,189.31,148.16,195.8,148.16,195.8Z"/><path class="cls-3" d="M185.74,376c-5.52,0-10.73-.23-15-.41-3.38-.15-6.3-.28-8.25-.24-6.94.12-14.81-4.26-19.06-6.62-.93-.52-1.89-1-2.32-1.23-1.88,1.9-13.89,4.88-23.47,5.68-10.35.86-14-5.16-14.91-7.08-2.79,1.67-16.36,9.06-23.11-.45-7.47-10.53,2.29-20.16,2.39-20.26s10.48-7.78,11.41-14.51a5.7,5.7,0,0,0-1.15-4.44c-6.32-8.07.83-46.56,10.58-68.33,9.88-22.08,44.61-62.22,45-62.62l.1-.12.15,0c.24-.06,24.1-6.51,39.67-7.33a195.53,195.53,0,0,1,31.35,1.15l1.43.15,0-.63.81.78c15.64,14.91,19.28,21.67,25.3,32.87,2.45,4.56,5.22,9.72,9.36,16.45,14.19,23.11,18,70.56,18,71,0,.12,1.05,12.31,5.6,21.42s9.62,25.18,9.68,25.34a5.59,5.59,0,0,1-.38,4.89c-1.63,2.74-5.68,4.33-12,4.74-15.62,1-16.74-3-16.81-3.41-.48-1.25-1.53-3.09-2.19-3-.13,0-.85.22-1.48,3.38-1.74,8.7-24.56,4.24-25.53,4.05l-.79-.16.5-.64a1.58,1.58,0,0,0,.34-.69c-.17-.08-1.65-.46-11.69,4.76C210.51,375,197.42,376,185.74,376Zm-22.54-1.65c1.94,0,4.57.11,7.56.24,13.25.58,35.41,1.54,48-5,11.63-6.06,12.51-5,12.94-4.47a1.18,1.18,0,0,1,.06,1.23c3.84.68,22.26,3.55,23.65-3.4.55-2.76,1.31-4.09,2.38-4.18,1.7-.1,3,3.12,3.23,3.77,0,.11,1.1,3.62,15.79,2.67,5.91-.38,9.8-1.84,11.24-4.24a4.56,4.56,0,0,0,.3-4c-.07-.22-5.05-16.09-9.63-25.25S273,310,273,309.87c0-.48-3.81-47.69-17.88-70.59-4.15-6.76-6.94-11.94-9.39-16.5-6-11.08-9.56-17.78-24.95-32.48-.31,0-.85-.08-1.84-.18A195.2,195.2,0,0,0,187.75,189c-14.82.78-37.28,6.71-39.31,7.26-2.08,2.4-35.14,40.89-44.7,62.26C93.39,281.61,87.49,318.72,93,325.81A6.63,6.63,0,0,1,94.39,331c-1,7.15-11.32,14.81-11.76,15.13s-9.19,9.1-2.21,18.93,22.1,0,22.25-.13l.55-.36.2.62c.11.33,2.71,7.91,14.11,7s21.82-4.31,22.82-5.27v-.17l.28-.2c.42-.25.88,0,3.27,1.32,4.1,2.28,11.7,6.5,18.27,6.5h1Z"/><path class="cls-2" d="M217.56,166.42s2.49-11.22,11-17.21,7.11-1.87,11.6-8.73,10.72-18.82,12.59-18.57,5.61-20.32-2.74-22.19-24.81-3-30.67,0l-5.86,3a8.71,8.71,0,0,1-2.37-4.84c-.25-2.77-.5-9.87-18.33-11.24s-19.82,5.86-19.82,5.86,2.22,16.09,1.74,17.7c-.56,1.93-1.37,3.37-10,1.25s-4.61-7.11-16.21-6.49-13.34,3.37-16.45,3.37-13.47-2.74-26.18,2.74,2.86,20.32,6.36,21.94a58.6,58.6,0,0,1,22.44,16.83c9.1,11.1,14.7,26.59,14.7,26.59S183.21,165.54,217.56,166.42Z"/><path class="cls-3" d="M149.05,177l-.16-.45c-.06-.16-5.68-15.54-14.62-26.44a57.65,57.65,0,0,0-21.64-16.41l-.63-.28c-2.5-1.17-11.65-9.34-11.55-16.16,0-3,1.79-5.22,5.21-6.7,10.49-4.52,19.28-3.52,24-3a23.79,23.79,0,0,0,2.38.21,9.11,9.11,0,0,0,3.17-.8c2.29-.86,5.75-2.16,13.26-2.56,6.92-.38,8.49,1.21,10.31,3.05a10.9,10.9,0,0,0,6,3.44c8.5,2.09,8.92.64,9.38-.9.32-1.1-.91-11.32-1.76-17.5l0-.1,0-.1c.08-.31,2.31-7.61,20.34-6.22,17.88,1.38,18.5,8.49,18.77,11.52v.18a8.06,8.06,0,0,0,2,4.26l5.52-2.82c6.33-3.23,23.29-1.77,31,0,6.25,1.4,6.12,11.85,5.06,17.81-.46,2.54-1.24,5.53-2.49,5.36-1.06,0-5,6.66-7.63,11-1.52,2.55-3.09,5.18-4.48,7.31-2.71,4.14-3.4,4.42-5.24,5.18a29.08,29.08,0,0,0-6.48,3.68c-8.22,5.8-10.75,16.79-10.77,16.9l-.09.4h-.41c-33.87-.85-67.7,9.87-68,10Zm-26.53-68.91a41.07,41.07,0,0,0-16.47,3.39c-3,1.3-4.57,3.25-4.61,5.79-.08,6.29,8.68,14.17,11,15.24l.61.29a58.34,58.34,0,0,1,22,16.68c8.19,10,13.61,23.65,14.62,26.28,4.14-1.27,35.75-10.6,67.51-9.89.54-2.1,3.34-11.65,11.07-17.11a30.1,30.1,0,0,1,6.69-3.79c1.67-.68,2.23-.91,4.78-4.8,1.38-2.1,2.94-4.73,4.46-7.27,4.74-8,7-11.53,8.5-11.53h0c.84-.67,2.7-8.21,1.71-14.48-.43-2.7-1.57-6.06-4.54-6.73-8.63-1.93-24.73-2.9-30.34,0l-6.18,3.16-.25-.25a9.17,9.17,0,0,1-2.52-5.16v-.17c-.25-2.79-.82-9.3-17.86-10.62-16.05-1.23-19,4.64-19.27,5.42.29,2.14,2.19,16.16,1.71,17.79-.67,2.29-1.82,3.75-10.57,1.59a11.88,11.88,0,0,1-6.51-3.71c-1.72-1.74-3.07-3.11-9.55-2.76-7.35.4-10.73,1.66-13,2.5a9.67,9.67,0,0,1-3.52.87c-.61,0-1.44-.1-2.49-.22A60.52,60.52,0,0,0,122.52,108.13Z"/><path class="cls-3" d="M174.74,109.84a10.11,10.11,0,0,0,3.9-.85A11.33,11.33,0,0,0,182,106.9a8,8,0,0,0,3-6.78,4.87,4.87,0,0,0-1.06-3.45,9,9,0,0,0-3.4-1.73l-3.87-1.24c-1.28-.45-2.56-.87-3.84-1.35,1.33.26,2.65.58,4,.88l4,1A8.92,8.92,0,0,1,184.61,96a4.29,4.29,0,0,1,1.11,2,8.78,8.78,0,0,1,.28,2.13,12,12,0,0,1-.12,2.13,7.36,7.36,0,0,1-.7,2,9.86,9.86,0,0,1-2.71,3.23A10.49,10.49,0,0,1,174.74,109.84Z"/><path class="cls-3" d="M158.45,107.75c2,3.2,3.91,6.5,5.7,9.86s3.38,6.81,4.84,10.34a64.51,64.51,0,0,1,3.72,10.84,37.16,37.16,0,0,1,.82,11.46h-.2c-.69-3.75-1.54-7.37-2.56-11l-1.56-5.39c-.48-1.81-1.1-3.59-1.71-5.37-1.25-3.55-2.7-7-4.25-10.47s-3.17-6.87-5-10.2Z"/><path class="cls-3" d="M145.59,126.56a68,68,0,0,0,7.93,9.61c1.46,1.47,3,2.84,4.52,4.26a27.77,27.77,0,0,1,4.17,5,44.08,44.08,0,0,1,3,5.67,51.54,51.54,0,0,1,2.1,6,39.55,39.55,0,0,1,1.6,12.54,64.75,64.75,0,0,0-3.08-12.07,51.9,51.9,0,0,0-5.32-11.05,27,27,0,0,0-3.79-4.7c-1.46-1.47-3-3-4.37-4.59A40.58,40.58,0,0,1,145.59,126.56Z"/><path class="cls-3" d="M185.17,103.21a38.83,38.83,0,0,1,6.32,10,29.52,29.52,0,0,1,2.29,8.68l.24,2.94c.27,3.93.61,7.85.5,11.78a93,93,0,0,1-.92,11.76h-.2c-.5-3.93-.71-7.84-.88-11.74s0-7.82-.1-11.72l-.08-2.92a27.58,27.58,0,0,0-.31-2.85,28.66,28.66,0,0,0-1.46-5.56A38.51,38.51,0,0,0,185,103.34Z"/><path class="cls-3" d="M188.9,167.85a21.47,21.47,0,0,0,.56-2.83,25.78,25.78,0,0,0,.26-2.91,26.24,26.24,0,0,0-.4-5.86,26.88,26.88,0,0,1,.9,5.86,29.62,29.62,0,0,1,0,3,24,24,0,0,1-.34,3Z"/><path class="cls-3" d="M204.12,130.7a16.26,16.26,0,0,1,1.22-7.4,27.67,27.67,0,0,1,1.63-3.37,11,11,0,0,0,1-3.25c.09-.55.12-1.15.18-1.77l.16-1.84c.06-.61.11-1.22.19-1.83a16.2,16.2,0,0,1,.32-1.91c.62-2.48,1.83-5,4.29-6.35l1-.55-.53,1.06a6.12,6.12,0,0,0,0,5.11,9.14,9.14,0,0,0,3.55,3.92,21.41,21.41,0,0,0,4.88,2.31,50.24,50.24,0,0,0,5.25,1.49A77.83,77.83,0,0,0,238,118.21a49.3,49.3,0,0,0,5.42.27,26.42,26.42,0,0,0,2.68-.14,15.2,15.2,0,0,0,2.56-.42l.12,0a9.64,9.64,0,0,0,2.62-1,7.22,7.22,0,0,0,2.16-1.84,7,7,0,0,0,1.24-2.6,10.33,10.33,0,0,0,.22-3l.19,0a9.42,9.42,0,0,1,.24,3.14,7.15,7.15,0,0,1-1,3.07,8.51,8.51,0,0,1-2.29,2.38,9.45,9.45,0,0,1-3,1.43l.12,0a21.24,21.24,0,0,1-5.73,1,43.17,43.17,0,0,1-5.69-.1,61.5,61.5,0,0,1-11.05-2.24,28.72,28.72,0,0,1-10.23-4.79,11.55,11.55,0,0,1-3.55-4.46,7.59,7.59,0,0,1,0-5.7l.49.51a6.05,6.05,0,0,0-2.12,2.62,11.32,11.32,0,0,0-.91,3.35c-.08.58-.12,1.15-.17,1.76s-.09,1.23-.14,1.84l-.16,1.84c-.07.6-.12,1.24-.24,1.9a11.38,11.38,0,0,1-1.38,3.71c-.68,1.1-1.29,2-1.83,3.14a19.8,19.8,0,0,0-2.19,6.88Z"/><path class="cls-3" d="M210.67,166.16c-.19-2.64-.23-5.23-.2-7.84s.16-5.2.45-7.79a52.23,52.23,0,0,1,1.32-7.68,28.54,28.54,0,0,1,2.83-7.23,28.1,28.1,0,0,0-2.34,7.33,53.09,53.09,0,0,0-.82,7.65c-.12,2.56-.07,5.13.05,7.69s.35,5.14.69,7.64Z"/><path class="cls-4" d="M149.36,176.42s-7.6,3.25-6,6.16,2.9,3,2.9,3-3.27,2.05-3.11,5.32c.17,3.56,2,5.72,5,4.91,2.21-.6,27.31-5.89,37.2-7s26.29.15,26.29.15l7.55.66c2.16.6,3.12.07,4.61-.42a5.2,5.2,0,0,0,3.64-3.83c1-3.57-2.24-8.81-6.07-8.47-2.46.21-1.3-2-.16-3.59a4.39,4.39,0,0,0-3.66-6.84C210.33,166.66,189.7,164.6,149.36,176.42Z"/><path class="cls-4" d="M183.62,350.32a20.62,20.62,0,0,1-7.51-1.27,20.22,20.22,0,0,1-6.25-4.05,3.6,3.6,0,0,1-.66-.9,2.15,2.15,0,0,1-.26-1.07,2.41,2.41,0,0,1,.66-1.65,2.15,2.15,0,0,1,1.65-.72,2,2,0,0,1,1.45.64,16.57,16.57,0,0,0,4.88,3.35,14.63,14.63,0,0,0,5.93,1.16,12.48,12.48,0,0,0,4.6-.81,8,8,0,0,0,3.26-2.26,5,5,0,0,0,1.22-3.35,5.94,5.94,0,0,0-1.36-3.82,10,10,0,0,0-3.59-2.51,29.37,29.37,0,0,0-5.29-1.71,31.4,31.4,0,0,1-4.88-1.56,14.9,14.9,0,0,1-3.85-2.28,9.36,9.36,0,0,1-2.51-3.3,10.66,10.66,0,0,1-.9-4.54,9.89,9.89,0,0,1,1.73-5.78,11.32,11.32,0,0,1,4.8-3.85,17.4,17.4,0,0,1,7.06-1.35,19.26,19.26,0,0,1,6.68,1.15,13,13,0,0,1,5.06,3.18,3.08,3.08,0,0,1,1.15,2.14,2.21,2.21,0,0,1-.72,1.59,2.27,2.27,0,0,1-1.65.72,1.67,1.67,0,0,1-1.15-.46,10,10,0,0,0-2.49-2,14.81,14.81,0,0,0-3.3-1.39,12.66,12.66,0,0,0-3.58-.52,13,13,0,0,0-4.69.78,7.18,7.18,0,0,0-3.15,2.2,5.25,5.25,0,0,0-1.12,3.38,5.18,5.18,0,0,0,1.27,3.61,9.22,9.22,0,0,0,3.41,2.32,39.22,39.22,0,0,0,4.74,1.59,45.62,45.62,0,0,1,5.23,1.59,15.93,15.93,0,0,1,4.14,2.22,9.12,9.12,0,0,1,2.69,3.38,12.09,12.09,0,0,1,1,5.06,9.49,9.49,0,0,1-1.79,5.67,12.06,12.06,0,0,1-4.89,3.9A17.09,17.09,0,0,1,183.62,350.32Zm2.61,5.32a2.28,2.28,0,0,1-.67,1.65,2.31,2.31,0,0,1-1.7.66,2.14,2.14,0,0,1-1.62-.66,2.29,2.29,0,0,1-.64-1.65V305.22a2.34,2.34,0,0,1,.66-1.68,2.23,2.23,0,0,1,1.65-.7,2.17,2.17,0,0,1,1.68.7,2.41,2.41,0,0,1,.64,1.68Z"/><path class="cls-5" d="M124.92,295.32a1.84,1.84,0,0,1-1.36-.53,1.73,1.73,0,0,1-.53-1.27v-25l.53.62-5.1,3.07a1.74,1.74,0,0,1-.88.22,1.65,1.65,0,0,1-1.27-.59,1.84,1.84,0,0,1-.53-1.21,1.75,1.75,0,0,1,.92-1.54l7.17-4.26a2.35,2.35,0,0,1,1.32-.27,1.48,1.48,0,0,1,1.18.51,1.87,1.87,0,0,1,.44,1.25v27.21a1.69,1.69,0,0,1-.53,1.27A1.84,1.84,0,0,1,124.92,295.32Z"/><path class="cls-5" d="M143.91,295.76a9.1,9.1,0,0,1-6.09-2.07,12.53,12.53,0,0,1-3.69-5.67,26.9,26.9,0,0,1,0-16.21,12.61,12.61,0,0,1,3.69-5.63,10,10,0,0,1,12.17,0,12.5,12.5,0,0,1,3.67,5.63,27.32,27.32,0,0,1,0,16.21,12.42,12.42,0,0,1-3.67,5.67A9.05,9.05,0,0,1,143.91,295.76Zm0-3.56a5.54,5.54,0,0,0,3.93-1.5,9.33,9.33,0,0,0,2.44-4.24,26.22,26.22,0,0,0,0-13.09,9.25,9.25,0,0,0-2.44-4.22,6,6,0,0,0-7.87,0,9.36,9.36,0,0,0-2.46,4.22,25.62,25.62,0,0,0,0,13.09A9.44,9.44,0,0,0,140,290.7,5.55,5.55,0,0,0,143.91,292.2Z"/><path class="cls-5" d="M182.41,295.76a9.1,9.1,0,0,1-6.09-2.07,12.53,12.53,0,0,1-3.69-5.67,26.9,26.9,0,0,1,0-16.21,12.61,12.61,0,0,1,3.69-5.63,10,10,0,0,1,12.17,0,12.5,12.5,0,0,1,3.67,5.63,27.32,27.32,0,0,1,0,16.21,12.42,12.42,0,0,1-3.67,5.67A9.05,9.05,0,0,1,182.41,295.76Zm0-3.56a5.54,5.54,0,0,0,3.93-1.5,9.33,9.33,0,0,0,2.44-4.24,26.22,26.22,0,0,0,0-13.09,9.25,9.25,0,0,0-2.44-4.22,6,6,0,0,0-7.87,0,9.36,9.36,0,0,0-2.46,4.22,25.62,25.62,0,0,0,0,13.09,9.44,9.44,0,0,0,2.46,4.24A5.55,5.55,0,0,0,182.41,292.2Z"/><path class="cls-5" d="M208.82,295.76a9.1,9.1,0,0,1-6.09-2.07A12.69,12.69,0,0,1,199,288a26.9,26.9,0,0,1,0-16.21,12.78,12.78,0,0,1,3.69-5.63,10,10,0,0,1,12.18,0,12.58,12.58,0,0,1,3.67,5.63,27.32,27.32,0,0,1,0,16.21,12.5,12.5,0,0,1-3.67,5.67A9.1,9.1,0,0,1,208.82,295.76Zm0-3.56a5.54,5.54,0,0,0,3.93-1.5,9.24,9.24,0,0,0,2.44-4.24,25.92,25.92,0,0,0,0-13.09,9.16,9.16,0,0,0-2.44-4.22,6,6,0,0,0-7.86,0,9.36,9.36,0,0,0-2.46,4.22,25.33,25.33,0,0,0,0,13.09,9.44,9.44,0,0,0,2.46,4.24A5.54,5.54,0,0,0,208.82,292.2Z"/><path class="cls-5" d="M235.23,295.76a9.05,9.05,0,0,1-6.08-2.07,12.63,12.63,0,0,1-3.7-5.67,26.9,26.9,0,0,1,0-16.21,12.71,12.71,0,0,1,3.7-5.63,10,10,0,0,1,12.17,0,12.5,12.5,0,0,1,3.67,5.63A27.32,27.32,0,0,1,245,288a12.42,12.42,0,0,1-3.67,5.67A9.1,9.1,0,0,1,235.23,295.76Zm0-3.56a5.55,5.55,0,0,0,3.94-1.5,9.33,9.33,0,0,0,2.44-4.24,26.22,26.22,0,0,0,0-13.09,9.25,9.25,0,0,0-2.44-4.22,6,6,0,0,0-7.87,0,9.36,9.36,0,0,0-2.46,4.22,25.33,25.33,0,0,0,0,13.09,9.44,9.44,0,0,0,2.46,4.24A5.54,5.54,0,0,0,235.23,292.2Z"/></g></g></svg>