<svg xmlns="http://www.w3.org/2000/svg" viewBox="0 0 329.08 426.26"><defs><style>.cls-1{fill:none;}.cls-2{fill:#d3f7a4;}.cls-3{fill:#58d313;}.cls-4{fill:#25a5dd;}.cls-5{fill:#363026;}</style></defs><g id="Layer_2" data-name="Layer 2"><g id="Layer_1-2" data-name="Layer 1"><rect class="cls-1" width="329.08" height="426.26"/><path class="cls-2" d="M84.9,133.65s-29.16,33.61-37.5,52.22-13.88,50.28-8.89,56.67-8.61,16.39-8.61,16.39-8,7.78-1.94,16.39,19.17,0,19.17,0,2.22,6.94,12.22,6.11,19.44-3.89,19.44-4.72,10,6.68,18.06,6.53,33.89,2.91,47.22-4,10-2.78,10-2.78,19.44,3.89,20.83-3.06,3.89-.28,3.89-.28.56,3.34,13.61,2.5,10-7.5,10-7.5-4.17-13.33-8.05-21.11-4.73-18-4.73-18-3.05-39.72-15-59.17-10.55-23.64-28.88-41.12c0,.17-13-1.88-27.78-1.1C104.85,128.23,84.9,133.65,84.9,133.65Z"/><path class="cls-3" d="M116.3,284.2c-4.61,0-9-.19-12.55-.34-2.82-.12-5.26-.23-6.89-.2-5.8.1-12.38-3.56-15.92-5.53-.78-.44-1.59-.88-1.94-1-1.58,1.59-11.61,4.08-19.62,4.74-8.64.73-11.7-4.3-12.45-5.91-2.33,1.39-13.67,7.57-19.31-.37-6.25-8.8,1.91-16.85,2-16.93s8.76-6.5,9.54-12.13a4.74,4.74,0,0,0-1-3.7c-5.28-6.75.69-38.91,8.83-57.1,8.27-18.45,37.28-52,37.57-52.32l.08-.1.12,0c.2-.05,20.14-5.44,33.15-6.12a164.07,164.07,0,0,1,26.19,1l1.2.12v-.52l.68.65c13.07,12.46,16.11,18.11,21.14,27.47,2,3.81,4.36,8.12,7.82,13.75,11.86,19.3,15,58.95,15.06,59.35,0,.1.87,10.28,4.68,17.9s8,21,8.08,21.17a4.66,4.66,0,0,1-.31,4.08c-1.37,2.29-4.75,3.62-10.06,4-13.05.84-14-2.47-14.05-2.85-.4-1-1.28-2.58-1.83-2.53-.11,0-.71.19-1.24,2.82-1.45,7.27-20.51,3.55-21.32,3.39l-.67-.14.42-.53a1.16,1.16,0,0,0,.28-.57c-.14-.07-1.37-.39-9.76,4C137,283.36,126.06,284.2,116.3,284.2Zm-18.83-1.38c1.62,0,3.82.1,6.32.21,11.06.47,29.58,1.28,40.09-4.19,9.71-5.06,10.45-4.17,10.8-3.74a1,1,0,0,1,0,1c3.21.57,18.6,3,19.76-2.84.47-2.31,1.1-3.42,2-3.49,1.42-.09,2.49,2.6,2.69,3.15,0,.09.92,3,13.19,2.23,4.94-.32,8.19-1.54,9.4-3.55a3.81,3.81,0,0,0,.25-3.36c-.06-.18-4.22-13.44-8.05-21.1s-4.75-18.1-4.76-18.21c0-.4-3.19-39.84-14.94-59-3.47-5.65-5.79-10-7.85-13.78-5-9.26-8-14.86-20.85-27.14-.25,0-.7-.06-1.53-.15A162.47,162.47,0,0,0,118,128c-12.38.65-31.15,5.61-32.84,6.06-1.74,2-29.36,34.17-37.36,52-8.64,19.31-13.57,50.32-8.94,56.24A5.53,5.53,0,0,1,40,246.62c-.82,6-9.45,12.37-9.82,12.64s-7.68,7.6-1.85,15.82,18.47,0,18.6-.11l.45-.3.17.52c.09.27,2.26,6.61,11.79,5.82s18.23-3.61,19.07-4.4v-.14l.23-.18c.35-.2.74,0,2.73,1.11,3.43,1.9,9.77,5.43,15.27,5.43h.86Z"/><path class="cls-2" d="M142.89,109.1s2.08-9.37,9.17-14.37,5.93-1.56,9.68-7.29,9-15.73,10.52-15.52,4.69-17-2.29-18.54-20.73-2.5-25.62,0l-4.9,2.5a7.34,7.34,0,0,1-2-4.05c-.21-2.31-.41-8.25-15.31-9.39s-16.56,4.89-16.56,4.89,1.85,13.45,1.46,14.8c-.48,1.61-1.15,2.81-8.34,1s-3.85-5.94-13.54-5.42S74,60.56,71.43,60.56s-11.25-2.29-21.87,2.29,2.39,17,5.31,18.34A48.89,48.89,0,0,1,73.62,95.25c7.6,9.27,12.28,22.21,12.28,22.21S114.19,108.37,142.89,109.1Z"/><path class="cls-3" d="M85.64,118l-.13-.38c-.05-.13-4.74-13-12.21-22.09A48.21,48.21,0,0,0,55.21,81.8l-.52-.23C52.6,80.59,45,73.76,45,68.06c0-2.47,1.5-4.36,4.35-5.59A37.19,37.19,0,0,1,69.45,60c.85.1,1.52.18,2,.18a7.51,7.51,0,0,0,2.65-.68,33.14,33.14,0,0,1,11.08-2.14c5.78-.31,7.09,1,8.61,2.55a9.08,9.08,0,0,0,5,2.88c7.11,1.75,7.46.54,7.84-.75.26-.92-.76-9.46-1.48-14.62v-.08l0-.09c.07-.26,1.93-6.36,17-5.2s15.46,7.09,15.68,9.63l0,.14a6.69,6.69,0,0,0,1.65,3.57L144.16,53c5.29-2.7,19.46-1.47,25.9,0,5.22,1.17,5.11,9.9,4.22,14.88-.37,2.12-1,4.62-2.07,4.48-.89,0-4.19,5.57-6.37,9.23-1.27,2.13-2.59,4.33-3.75,6.11-2.27,3.46-2.84,3.69-4.38,4.32a24.37,24.37,0,0,0-5.42,3.08c-6.86,4.85-9,14-9,14.12l-.08.34h-.34c-28.3-.71-56.57,8.25-56.85,8.34ZM63.48,60.4a34.21,34.21,0,0,0-13.76,2.84c-2.53,1.09-3.82,2.72-3.85,4.84C45.8,73.33,53.12,79.92,55,80.81l.52.24A48.75,48.75,0,0,1,73.94,95c6.84,8.34,11.37,19.76,12.21,22,3.46-1.07,29.87-8.86,56.41-8.27.45-1.75,2.79-9.73,9.25-14.29a25.49,25.49,0,0,1,5.59-3.17c1.4-.57,1.87-.76,4-4,1.16-1.76,2.46-4,3.73-6.08,4-6.64,5.87-9.63,7.1-9.63h0c.7-.56,2.25-6.86,1.42-12.1-.35-2.26-1.3-5.06-3.79-5.62-7.2-1.61-20.66-2.43-25.34,0l-5.17,2.63-.21-.21a7.58,7.58,0,0,1-2.1-4.3l0-.15c-.2-2.32-.68-7.77-14.91-8.87-13.42-1-15.85,3.88-16.11,4.53.25,1.79,1.83,13.5,1.43,14.86-.56,1.92-1.51,3.13-8.83,1.33a9.91,9.91,0,0,1-5.44-3.1c-1.43-1.45-2.56-2.6-8-2.3a31.87,31.87,0,0,0-10.83,2.09,8.27,8.27,0,0,1-2.94.72c-.5,0-1.2-.08-2.08-.18A49.56,49.56,0,0,0,63.48,60.4Z"/><path class="cls-3" d="M107.11,61.83a8.63,8.63,0,0,0,3.26-.7,9.6,9.6,0,0,0,2.79-1.75,6.76,6.76,0,0,0,2.53-5.67,4.14,4.14,0,0,0-.89-2.88A7.59,7.59,0,0,0,112,49.39l-3.22-1c-1.07-.38-2.15-.73-3.22-1.13,1.12.22,2.22.49,3.33.73l3.31.83a7.34,7.34,0,0,1,3.21,1.49,3.63,3.63,0,0,1,.92,1.64,7.33,7.33,0,0,1,.24,1.78,9.76,9.76,0,0,1-.1,1.77,6.3,6.3,0,0,1-.59,1.71,8.2,8.2,0,0,1-2.26,2.7A8.77,8.77,0,0,1,107.11,61.83Z"/><path class="cls-3" d="M93.5,60.09c1.7,2.67,3.27,5.43,4.76,8.24s2.83,5.69,4,8.63a54.19,54.19,0,0,1,3.1,9.07,31.11,31.11,0,0,1,.69,9.57h-.17c-.57-3.14-1.29-6.16-2.14-9.17l-1.3-4.5c-.4-1.51-.92-3-1.43-4.49-1-3-2.26-5.87-3.55-8.75S94.86,63,93.36,60.17Z"/><path class="cls-3" d="M82.75,75.81a57,57,0,0,0,6.63,8c1.22,1.23,2.47,2.38,3.78,3.56a23,23,0,0,1,3.48,4.16,35.81,35.81,0,0,1,2.53,4.73,41.06,41.06,0,0,1,1.76,5,32.89,32.89,0,0,1,1.33,10.47,53.6,53.6,0,0,0-2.57-10.08,44.2,44.2,0,0,0-4.44-9.24,22.29,22.29,0,0,0-3.17-3.92c-1.22-1.23-2.53-2.48-3.66-3.84A34.35,34.35,0,0,1,82.75,75.81Z"/><path class="cls-3" d="M115.83,56.29a33,33,0,0,1,5.28,8.33,25.58,25.58,0,0,1,1.51,4.76,23.46,23.46,0,0,1,.4,2.49l.2,2.46c.23,3.28.5,6.56.42,9.84a79.21,79.21,0,0,1-.77,9.83h-.17c-.41-3.28-.59-6.55-.73-9.81s0-6.53-.08-9.79L121.81,72a21.34,21.34,0,0,0-.25-2.38,24.54,24.54,0,0,0-1.23-4.65,32.12,32.12,0,0,0-4.63-8.53Z"/><path class="cls-3" d="M118.94,110.3a17.92,17.92,0,0,0,.47-2.36c.11-.81.19-1.62.22-2.43a22.42,22.42,0,0,0-.34-4.9,21.84,21.84,0,0,1,.75,4.9,23,23,0,0,1,0,2.49,18,18,0,0,1-.28,2.5Z"/><path class="cls-3" d="M131.66,79.26a13.57,13.57,0,0,1,1-6.18A23,23,0,0,1,134,70.26a9.24,9.24,0,0,0,.87-2.71c.08-.46.1-1,.14-1.48l.14-1.54c.05-.51.09-1,.16-1.53a12.58,12.58,0,0,1,.27-1.59,7.83,7.83,0,0,1,3.58-5.31l.85-.45-.44.88a5.13,5.13,0,0,0,0,4.27,7.72,7.72,0,0,0,3,3.27A17.53,17.53,0,0,0,146.61,66,42.52,42.52,0,0,0,151,67.25a66.25,66.25,0,0,0,9,1.58,40.41,40.41,0,0,0,4.53.22c.75,0,1.5,0,2.24-.11a13.34,13.34,0,0,0,2.13-.35l.11,0a8.27,8.27,0,0,0,2.19-.83,6,6,0,0,0,1.8-1.54A6,6,0,0,0,174,64a8.71,8.71,0,0,0,.18-2.51l.16,0a7.65,7.65,0,0,1,.2,2.62,6,6,0,0,1-.87,2.57,7,7,0,0,1-1.92,2,7.92,7.92,0,0,1-2.52,1.19l.1,0a17.72,17.72,0,0,1-4.79.86,35.84,35.84,0,0,1-4.75-.09,51.36,51.36,0,0,1-9.23-1.86,24.11,24.11,0,0,1-8.55-4,9.55,9.55,0,0,1-3-3.73,6.37,6.37,0,0,1,0-4.76l.41.43a5.06,5.06,0,0,0-1.77,2.19,9.61,9.61,0,0,0-.76,2.8c-.07.48-.1,1-.14,1.46s-.07,1-.12,1.55l-.14,1.54a15.88,15.88,0,0,1-.2,1.58,9.49,9.49,0,0,1-1.14,3.1c-.57.92-1.08,1.71-1.54,2.63a16.55,16.55,0,0,0-1.82,5.74Z"/><path class="cls-3" d="M137.13,108.89c-.16-2.21-.2-4.37-.17-6.55s.14-4.35.38-6.51a44.86,44.86,0,0,1,1.1-6.42,23.45,23.45,0,0,1,2.37-6,23.26,23.26,0,0,0-2,6.12,42.89,42.89,0,0,0-.68,6.39c-.1,2.14-.06,4.29,0,6.43s.29,4.29.58,6.38Z"/><path class="cls-4" d="M85.9,117.46s-6.34,2.72-5,5.15,2.42,2.5,2.42,2.5-2.74,1.71-2.61,4.45c.15,3,1.67,4.78,4.21,4.09,1.84-.49,22.82-4.91,31.08-5.88s22,.13,22,.13l6.3.55a5.36,5.36,0,0,0,3.86-.35,4.36,4.36,0,0,0,3-3.2c.8-3-1.87-7.36-5.07-7.08-2.06.18-1.08-1.67-.13-3a3.47,3.47,0,0,0,.21-3.74,3.54,3.54,0,0,0-3.27-2C136.85,109.31,119.61,107.59,85.9,117.46Z"/><path class="cls-5" d="M98.51,216.78a1.56,1.56,0,0,1-1.14-.44,1.45,1.45,0,0,1-.43-1.06V194.47l.43.51-4.24,2.56a1.49,1.49,0,0,1-.73.18,1.35,1.35,0,0,1-1.06-.49,1.54,1.54,0,0,1-.44-1,1.45,1.45,0,0,1,.77-1.28l6-3.55a2,2,0,0,1,1.1-.22,1.23,1.23,0,0,1,1,.42,1.51,1.51,0,0,1,.37,1v22.64a1.46,1.46,0,0,1-.44,1.06A1.54,1.54,0,0,1,98.51,216.78Z"/><path class="cls-5" d="M114.31,217.14a7.56,7.56,0,0,1-5.07-1.72,10.56,10.56,0,0,1-3.07-4.71,22.42,22.42,0,0,1,0-13.5,10.57,10.57,0,0,1,3.07-4.68,8.33,8.33,0,0,1,10.14,0,10.37,10.37,0,0,1,3.05,4.68,22.84,22.84,0,0,1,0,13.5,10.36,10.36,0,0,1-3.05,4.71A7.58,7.58,0,0,1,114.31,217.14Zm0-3a4.61,4.61,0,0,0,3.27-1.24,7.81,7.81,0,0,0,2-3.53,21.57,21.57,0,0,0,0-10.9,7.58,7.58,0,0,0-2-3.51,5,5,0,0,0-6.54,0,7.68,7.68,0,0,0-2.05,3.51,21,21,0,0,0,0,10.9,7.92,7.92,0,0,0,2.05,3.53A4.61,4.61,0,0,0,114.31,214.18Z"/><path class="cls-5" d="M136.29,217.14a7.53,7.53,0,0,1-5.06-1.72,10.49,10.49,0,0,1-3.08-4.71,22.42,22.42,0,0,1,0-13.5,10.5,10.5,0,0,1,3.08-4.68,8.32,8.32,0,0,1,10.13,0,10.37,10.37,0,0,1,3,4.68,22.63,22.63,0,0,1,0,13.5,10.36,10.36,0,0,1-3,4.71A7.54,7.54,0,0,1,136.29,217.14Zm0-3a4.62,4.62,0,0,0,3.28-1.24,7.9,7.9,0,0,0,2-3.53,21.87,21.87,0,0,0,0-10.9,7.66,7.66,0,0,0-2-3.51,5,5,0,0,0-6.55,0,7.77,7.77,0,0,0-2.05,3.51,21.27,21.27,0,0,0,0,10.9,8,8,0,0,0,2.05,3.53A4.61,4.61,0,0,0,136.29,214.18Z"/><path class="cls-4" d="M114.53,262.76a15.56,15.56,0,0,1-11.5-4.44,3.29,3.29,0,0,1-.55-.75,1.85,1.85,0,0,1-.22-.9,2,2,0,0,1,.56-1.37,1.77,1.77,0,0,1,1.37-.61,1.68,1.68,0,0,1,1.21.53,13.94,13.94,0,0,0,4.08,2.81,12.29,12.29,0,0,0,5,1,10.46,10.46,0,0,0,3.84-.67,6.78,6.78,0,0,0,2.73-1.89,4.25,4.25,0,0,0,1-2.8,4.91,4.91,0,0,0-1.13-3.19,8.37,8.37,0,0,0-3-2.1,25.24,25.24,0,0,0-4.42-1.43,27.14,27.14,0,0,1-4.08-1.3,12.52,12.52,0,0,1-3.22-1.91,7.89,7.89,0,0,1-2.1-2.75,9,9,0,0,1-.75-3.8,8.3,8.3,0,0,1,1.45-4.83,9.52,9.52,0,0,1,4-3.21,14.41,14.41,0,0,1,5.9-1.14,16.21,16.21,0,0,1,5.58,1,11,11,0,0,1,4.23,2.66,2.57,2.57,0,0,1,1,1.79,1.83,1.83,0,0,1-.6,1.32,1.87,1.87,0,0,1-1.38.61,1.43,1.43,0,0,1-1-.39,8.28,8.28,0,0,0-2.07-1.64,12.64,12.64,0,0,0-2.76-1.16,10.65,10.65,0,0,0-3-.43,10.78,10.78,0,0,0-3.92.65,6,6,0,0,0-2.63,1.83,4.78,4.78,0,0,0,.12,5.85A7.83,7.83,0,0,0,111.1,242a31.63,31.63,0,0,0,4,1.33,39.9,39.9,0,0,1,4.38,1.33,13.29,13.29,0,0,1,3.45,1.86,7.38,7.38,0,0,1,2.25,2.83,10,10,0,0,1,.8,4.22,7.91,7.91,0,0,1-1.5,4.74,10.15,10.15,0,0,1-4.08,3.26A14.36,14.36,0,0,1,114.53,262.76Zm2.18,4.45a1.87,1.87,0,0,1-.56,1.37,1.92,1.92,0,0,1-1.42.56,1.82,1.82,0,0,1-1.36-.56,1.93,1.93,0,0,1-.53-1.37V225.08a2,2,0,0,1,.56-1.41,2,2,0,0,1,2.78,0,2,2,0,0,1,.53,1.41Z"/><path class="cls-2" d="M103.61,164.89s-29.16,33.61-37.5,52.22-13.89,50.28-8.89,56.67-8.61,16.39-8.61,16.39-8,7.77-1.94,16.39,19.17,0,19.17,0,2.22,6.94,12.22,6.11,19.44-3.89,19.44-4.73,10,6.69,18.06,6.54,33.89,2.91,47.22-4,10-2.77,10-2.77,19.44,3.89,20.83-3.06,3.89-.28,3.89-.28.56,3.34,13.61,2.5,10-7.5,10-7.5-4.17-13.33-8.05-21.11-4.73-18.05-4.73-18.05-3.05-39.72-15-59.17-10.55-23.64-28.88-41.13c0,.18-13-1.87-27.78-1.09C123.56,159.47,103.61,164.89,103.61,164.89Z"/><path class="cls-3" d="M135,315.44c-4.61,0-9-.19-12.55-.34-2.82-.12-5.26-.23-6.9-.2-5.79.1-12.37-3.56-15.91-5.54-.78-.43-1.59-.88-1.94-1-1.58,1.59-11.62,4.08-19.62,4.74-8.64.72-11.7-4.31-12.45-5.91-2.34,1.39-13.67,7.57-19.31-.37-6.25-8.81,1.91-16.85,2-16.93s8.76-6.51,9.54-12.13a4.73,4.73,0,0,0-1-3.7c-5.28-6.75.69-38.91,8.83-57.1C74,198.49,103,165,103.3,164.62l.08-.1.12,0c.2-.06,20.14-5.44,33.15-6.13a163.72,163.72,0,0,1,26.19,1l1.2.12v-.52l.68.65C177.8,172,180.84,177.68,185.87,187c2,3.8,4.36,8.12,7.82,13.74,11.86,19.31,15,59,15.06,59.36,0,.1.87,10.28,4.68,17.9s8,21,8.08,21.17a4.65,4.65,0,0,1-.31,4.08c-1.37,2.29-4.75,3.62-10.06,4-13,.83-14-2.47-14-2.85-.4-1-1.28-2.58-1.83-2.53-.11,0-.71.19-1.24,2.82-1.45,7.27-20.51,3.55-21.32,3.39l-.67-.14.42-.53a1.16,1.16,0,0,0,.28-.57c-.14-.07-1.37-.39-9.76,4C155.7,314.6,144.77,315.44,135,315.44Zm-18.83-1.38c1.62,0,3.82.1,6.32.2,11.06.48,29.58,1.28,40.09-4.19,9.71-5.05,10.45-4.16,10.8-3.73a1,1,0,0,1,.05,1c3.21.56,18.6,3,19.76-2.84.46-2.31,1.1-3.42,2-3.49,1.42-.09,2.49,2.6,2.69,3.15,0,.09.92,3,13.19,2.23,4.94-.32,8.19-1.54,9.4-3.55a3.81,3.81,0,0,0,.25-3.36c-.06-.19-4.22-13.44-8-21.1s-4.75-18.11-4.76-18.21c0-.4-3.19-39.85-14.94-59-3.47-5.65-5.8-10-7.85-13.79-5-9.25-8-14.85-20.85-27.14-.25,0-.7,0-1.53-.14a162.47,162.47,0,0,0-26.06-1c-12.38.65-31.15,5.6-32.85,6.06-1.73,2-29.35,34.17-37.35,52-8.64,19.31-13.57,50.32-8.94,56.24a5.51,5.51,0,0,1,1.13,4.33c-.82,6-9.45,12.38-9.82,12.65s-7.68,7.6-1.85,15.81,18.47,0,18.6-.1l.45-.3.17.52c.09.27,2.26,6.61,11.79,5.82s18.23-3.61,19.07-4.4v-.14l.23-.18c.35-.21.74,0,2.73,1.11,3.43,1.9,9.77,5.43,15.26,5.43h.87Z"/><path class="cls-2" d="M161.6,140.34s2.08-9.37,9.16-14.37,5.94-1.56,9.69-7.29,9-15.73,10.52-15.52,4.69-17-2.29-18.55-20.73-2.5-25.62,0l-4.9,2.5a7.29,7.29,0,0,1-2-4c-.21-2.31-.42-8.25-15.31-9.39s-16.56,4.89-16.56,4.89,1.85,13.45,1.45,14.79c-.47,1.62-1.14,2.82-8.33,1s-3.85-5.94-13.54-5.42S92.74,91.8,90.14,91.8s-11.25-2.29-21.87,2.29,2.39,17,5.31,18.34a49,49,0,0,1,18.75,14.06c7.6,9.27,12.28,22.21,12.28,22.21S132.9,139.61,161.6,140.34Z"/><path class="cls-3" d="M104.35,149.22l-.13-.38c0-.13-4.74-13-12.21-22.09A48.21,48.21,0,0,0,73.92,113l-.52-.24c-2.09-1-9.73-7.8-9.66-13.5,0-2.48,1.5-4.36,4.36-5.59a37.09,37.09,0,0,1,20.06-2.5,19.43,19.43,0,0,0,2,.17,7.48,7.48,0,0,0,2.65-.67,33.07,33.07,0,0,1,11.08-2.14c5.78-.31,7.09,1,8.61,2.55a9.14,9.14,0,0,0,5,2.88c7.1,1.75,7.46.53,7.84-.75.26-.92-.76-9.46-1.48-14.62v-.09l0-.08c.08-.26,1.94-6.36,17-5.2s15.46,7.09,15.68,9.63l0,.14a6.73,6.73,0,0,0,1.65,3.57l4.62-2.36c5.29-2.7,19.45-1.48,25.9,0,5.22,1.17,5.11,9.9,4.22,14.88-.37,2.12-1,4.62-2.07,4.48-.89,0-4.19,5.56-6.38,9.23-1.27,2.13-2.58,4.33-3.74,6.1-2.27,3.47-2.84,3.7-4.38,4.33a24.37,24.37,0,0,0-5.42,3.08c-6.86,4.84-9,14-9,14.12l-.07.34h-.34c-28.3-.71-56.57,8.25-56.85,8.34ZM82.19,91.64a34.21,34.21,0,0,0-13.76,2.84c-2.53,1.09-3.82,2.71-3.85,4.83-.07,5.26,7.25,11.85,9.17,12.74l.52.24a48.8,48.8,0,0,1,18.38,13.93c6.84,8.34,11.37,19.77,12.21,22,3.46-1.06,29.87-8.85,56.41-8.26.45-1.76,2.79-9.73,9.25-14.29a25.49,25.49,0,0,1,5.59-3.17c1.4-.57,1.87-.77,4-4,1.15-1.76,2.46-4,3.73-6.08,4-6.64,5.87-9.63,7.1-9.63h0c.7-.56,2.25-6.86,1.42-12.1-.35-2.26-1.3-5.06-3.79-5.62-7.21-1.61-20.66-2.43-25.34,0l-5.17,2.64-.21-.21a7.62,7.62,0,0,1-2.1-4.3l0-.15c-.2-2.33-.68-7.77-14.91-8.87-13.42-1-15.85,3.87-16.11,4.53.25,1.78,1.83,13.5,1.43,14.86-.56,1.91-1.52,3.13-8.83,1.33a9.93,9.93,0,0,1-5.44-3.1c-1.43-1.45-2.56-2.6-8-2.3a32.21,32.21,0,0,0-10.83,2.08,8.09,8.09,0,0,1-2.94.73c-.5,0-1.2-.08-2.08-.18A49.56,49.56,0,0,0,82.19,91.64Z"/><path class="cls-3" d="M125.82,93.07a8.45,8.45,0,0,0,3.26-.71,9.57,9.57,0,0,0,2.79-1.74A6.76,6.76,0,0,0,134.4,85a4.14,4.14,0,0,0-.89-2.88,7.6,7.6,0,0,0-2.85-1.45l-3.22-1c-1.07-.37-2.15-.72-3.22-1.13,1.12.22,2.22.5,3.33.74l3.31.82a7.48,7.48,0,0,1,3.21,1.5,3.63,3.63,0,0,1,.92,1.64,7.26,7.26,0,0,1,.24,1.78,9.76,9.76,0,0,1-.1,1.77,6.3,6.3,0,0,1-.59,1.71,8.2,8.2,0,0,1-2.26,2.7A8.81,8.81,0,0,1,125.82,93.07Z"/><path class="cls-3" d="M112.21,91.33c1.7,2.67,3.27,5.43,4.76,8.23s2.83,5.7,4,8.64a54.4,54.4,0,0,1,3.1,9.06,31.15,31.15,0,0,1,.69,9.57h-.17c-.57-3.14-1.29-6.16-2.14-9.17l-1.3-4.5c-.4-1.52-.92-3-1.43-4.49-1-3-2.26-5.87-3.55-8.75s-2.65-5.74-4.15-8.52Z"/><path class="cls-3" d="M101.46,107a57.05,57.05,0,0,0,6.63,8c1.22,1.23,2.47,2.38,3.78,3.56a23,23,0,0,1,3.48,4.16,35.19,35.19,0,0,1,2.53,4.73,42.81,42.81,0,0,1,1.76,5A32.89,32.89,0,0,1,121,143a53.6,53.6,0,0,0-2.57-10.08A43.74,43.74,0,0,0,114,123.7a22.77,22.77,0,0,0-3.16-3.93c-1.22-1.22-2.53-2.47-3.66-3.83A34.24,34.24,0,0,1,101.46,107Z"/><path class="cls-3" d="M134.54,87.53a33,33,0,0,1,5.28,8.33,25.58,25.58,0,0,1,1.51,4.76,23.46,23.46,0,0,1,.4,2.49l.2,2.46c.23,3.28.5,6.56.42,9.84a79.21,79.21,0,0,1-.77,9.83h-.17c-.42-3.28-.59-6.55-.73-9.81s0-6.53-.08-9.79l-.08-2.44a23.7,23.7,0,0,0-.25-2.38A24.54,24.54,0,0,0,139,96.17a32.12,32.12,0,0,0-4.63-8.53Z"/><path class="cls-3" d="M137.65,141.54a17.92,17.92,0,0,0,.47-2.36c.11-.81.19-1.62.22-2.44a22.33,22.33,0,0,0-.34-4.89,22.42,22.42,0,0,1,.75,4.89,23.18,23.18,0,0,1,0,2.5,19.72,19.72,0,0,1-.28,2.5Z"/><path class="cls-3" d="M150.37,110.5a13.55,13.55,0,0,1,1-6.18,23,23,0,0,1,1.36-2.82,9.24,9.24,0,0,0,.87-2.71c.08-.46.1-1,.14-1.48l.14-1.54c0-.51.09-1,.16-1.53a12.58,12.58,0,0,1,.27-1.59,7.81,7.81,0,0,1,3.58-5.31l.85-.46-.44.89a5.13,5.13,0,0,0,0,4.27,7.72,7.72,0,0,0,3,3.27,17.94,17.94,0,0,0,4.08,1.93,42.52,42.52,0,0,0,4.39,1.25,66.25,66.25,0,0,0,9,1.58,42.87,42.87,0,0,0,4.52.22c.76,0,1.51,0,2.25-.11a13.31,13.31,0,0,0,2.13-.36l.1,0a7.85,7.85,0,0,0,2.2-.82,6,6,0,0,0,1.8-1.54,6,6,0,0,0,1-2.17,8.73,8.73,0,0,0,.18-2.51l.16,0a7.65,7.65,0,0,1,.2,2.62,6,6,0,0,1-.87,2.57,7.1,7.1,0,0,1-1.92,2,7.73,7.73,0,0,1-2.52,1.2l.1,0a17.72,17.72,0,0,1-4.79.86,35.84,35.84,0,0,1-4.75-.09,51.38,51.38,0,0,1-9.23-1.87,23.84,23.84,0,0,1-8.55-4,9.55,9.55,0,0,1-3-3.73,6.32,6.32,0,0,1,0-4.76l.41.43a5,5,0,0,0-1.77,2.18,9.69,9.69,0,0,0-.76,2.8c-.07.49-.1,1-.14,1.47s-.08,1-.12,1.54l-.14,1.55A15.88,15.88,0,0,1,155,99a9.57,9.57,0,0,1-1.14,3.1c-.57.91-1.08,1.71-1.54,2.63a16.49,16.49,0,0,0-1.82,5.74Z"/><path class="cls-3" d="M155.84,140.13c-.16-2.21-.2-4.37-.17-6.55s.14-4.35.38-6.51a44.86,44.86,0,0,1,1.1-6.42,24,24,0,0,1,2.36-6,23.8,23.8,0,0,0-1.95,6.13,42.75,42.75,0,0,0-.68,6.39c-.1,2.14-.07,4.29,0,6.43s.29,4.28.58,6.37Z"/><path class="cls-4" d="M104.61,148.7s-6.34,2.72-5,5.15,2.43,2.5,2.43,2.5-2.74,1.71-2.61,4.44c.15,3,1.67,4.78,4.21,4.1,1.84-.49,22.82-4.92,31.08-5.88s22,.13,22,.13l6.3.55a5.42,5.42,0,0,0,3.86-.35,4.36,4.36,0,0,0,3-3.2c.8-3-1.87-7.36-5.07-7.08-2.06.18-1.08-1.67-.13-3a3.49,3.49,0,0,0,.21-3.75,3.53,3.53,0,0,0-3.27-2C155.56,140.54,138.31,138.83,104.61,148.7Z"/><path class="cls-5" d="M117.22,248a1.56,1.56,0,0,1-1.14-.44,1.47,1.47,0,0,1-.44-1.06V225.7l.44.52-4.24,2.56a1.49,1.49,0,0,1-.73.18,1.38,1.38,0,0,1-1.06-.49,1.54,1.54,0,0,1-.44-1,1.43,1.43,0,0,1,.77-1.28l6-3.55a2,2,0,0,1,1.1-.22,1.23,1.23,0,0,1,1,.42,1.51,1.51,0,0,1,.37,1v22.65a1.47,1.47,0,0,1-.44,1.06A1.54,1.54,0,0,1,117.22,248Z"/><path class="cls-5" d="M133,248.38a7.56,7.56,0,0,1-5.07-1.72,10.59,10.59,0,0,1-3.07-4.72,22.39,22.39,0,0,1,0-13.49,10.66,10.66,0,0,1,3.07-4.69,8.37,8.37,0,0,1,10.14,0,10.46,10.46,0,0,1,3,4.69,22.81,22.81,0,0,1,0,13.49,10.4,10.4,0,0,1-3,4.72A7.58,7.58,0,0,1,133,248.38Zm0-3a4.61,4.61,0,0,0,3.27-1.24,7.81,7.81,0,0,0,2-3.53,21.57,21.57,0,0,0,0-10.9,7.66,7.66,0,0,0-2-3.52,5,5,0,0,0-6.54,0,7.69,7.69,0,0,0-2,3.52,21,21,0,0,0,0,10.9,7.83,7.83,0,0,0,2,3.53A4.6,4.6,0,0,0,133,245.42Z"/><path class="cls-5" d="M155,248.38a7.53,7.53,0,0,1-5.06-1.72,10.52,10.52,0,0,1-3.08-4.72,22.39,22.39,0,0,1,0-13.49,10.59,10.59,0,0,1,3.08-4.69,8.36,8.36,0,0,1,10.13,0,10.46,10.46,0,0,1,3.05,4.69,22.6,22.6,0,0,1,0,13.49,10.4,10.4,0,0,1-3.05,4.72A7.54,7.54,0,0,1,155,248.38Zm0-3a4.62,4.62,0,0,0,3.28-1.24,7.9,7.9,0,0,0,2-3.53,21.87,21.87,0,0,0,0-10.9,7.75,7.75,0,0,0-2-3.52,5,5,0,0,0-6.55,0,7.86,7.86,0,0,0-2,3.52,21.27,21.27,0,0,0,0,10.9,8,8,0,0,0,2,3.53A4.61,4.61,0,0,0,155,245.42Z"/><path class="cls-4" d="M133.24,294a17.28,17.28,0,0,1-6.28-1.06,16.89,16.89,0,0,1-5.22-3.39,3,3,0,0,1-.55-.74,1.87,1.87,0,0,1-.22-.9,2,2,0,0,1,.56-1.38,1.8,1.8,0,0,1,1.37-.6,1.68,1.68,0,0,1,1.21.53,13.72,13.72,0,0,0,4.08,2.8,12.13,12.13,0,0,0,5,1,10.26,10.26,0,0,0,3.84-.68,6.67,6.67,0,0,0,2.73-1.88,4.26,4.26,0,0,0,1-2.8,4.91,4.91,0,0,0-1.13-3.19,8.37,8.37,0,0,0-3-2.1,24.42,24.42,0,0,0-4.42-1.43,27.14,27.14,0,0,1-4.08-1.3,12.52,12.52,0,0,1-3.22-1.91,8,8,0,0,1-2.1-2.75,9,9,0,0,1-.75-3.8,8.3,8.3,0,0,1,1.45-4.83,9.52,9.52,0,0,1,4-3.21,14.41,14.41,0,0,1,5.9-1.14,16.21,16.21,0,0,1,5.58,1,10.84,10.84,0,0,1,4.23,2.66,2.55,2.55,0,0,1,1,1.78,1.84,1.84,0,0,1-.6,1.33,1.89,1.89,0,0,1-1.38.61,1.43,1.43,0,0,1-1-.39,8.28,8.28,0,0,0-2.07-1.64,12.17,12.17,0,0,0-2.76-1.16,11.23,11.23,0,0,0-6.91.22,6,6,0,0,0-2.63,1.83,4.78,4.78,0,0,0,.12,5.85,7.83,7.83,0,0,0,2.85,1.93,31.09,31.09,0,0,0,4,1.33,37.84,37.84,0,0,1,4.38,1.33,13.45,13.45,0,0,1,3.45,1.86,7.42,7.42,0,0,1,2.25,2.82,10.08,10.08,0,0,1,.79,4.23,8,8,0,0,1-1.49,4.74,10.11,10.11,0,0,1-4.09,3.26A14.27,14.27,0,0,1,133.24,294Zm2.18,4.44a1.88,1.88,0,0,1-.56,1.38,1.92,1.92,0,0,1-1.42.56,1.82,1.82,0,0,1-1.36-.56,1.93,1.93,0,0,1-.53-1.38V256.31a2,2,0,0,1,.56-1.4,1.85,1.85,0,0,1,1.37-.58,1.82,1.82,0,0,1,1.4.58,2,2,0,0,1,.54,1.4Z"/><path class="cls-2" d="M133.06,191.13s-29.16,33.61-37.5,52.22S81.67,293.63,86.67,300s-8.61,16.39-8.61,16.39-8,7.78-1.94,16.39,19.16,0,19.16,0,2.23,6.94,12.23,6.11S127,335,127,334.19s10,6.68,18.06,6.54,33.88,2.9,47.22-4,10-2.78,10-2.78,19.44,3.89,20.83-3.06,3.89-.27,3.89-.27.55,3.33,13.61,2.5,10-7.5,10-7.5-4.17-13.34-8.06-21.12-4.72-18-4.72-18-3.05-39.72-15-59.17-10.55-23.64-28.89-41.12c0,.17-12.95-1.88-27.77-1.1C153,185.71,133.06,191.13,133.06,191.13Z"/><path class="cls-3" d="M164.46,341.68c-4.62,0-9-.19-12.55-.34-2.82-.12-5.26-.23-6.9-.2-5.79.1-12.37-3.56-15.91-5.53-.79-.44-1.59-.88-1.94-1-1.58,1.59-11.62,4.08-19.62,4.74-8.64.73-11.7-4.3-12.45-5.91-2.34,1.4-13.68,7.57-19.31-.37-6.25-8.8,1.91-16.85,2-16.93s8.76-6.5,9.54-12.13a4.78,4.78,0,0,0-1-3.7c-5.28-6.75.69-38.91,8.83-57.1,8.26-18.45,37.27-52,37.57-52.32l.08-.1.12,0c.2,0,20.14-5.44,33.14-6.12a164.15,164.15,0,0,1,26.2.95l1.2.13v-.53l.68.65c13.07,12.46,16.1,18.11,21.14,27.47,2,3.81,4.36,8.12,7.82,13.75,11.86,19.3,15,59,15.06,59.35,0,.1.87,10.29,4.68,17.9s8,21,8.08,21.17a4.66,4.66,0,0,1-.31,4.08c-1.37,2.29-4.75,3.62-10.06,4-13.05.84-14-2.47-14.05-2.85-.4-1-1.28-2.57-1.83-2.53-.11,0-.71.19-1.24,2.82-1.45,7.28-20.51,3.55-21.32,3.39l-.67-.14.42-.53a1.26,1.26,0,0,0,.28-.57c-.14-.07-1.37-.39-9.76,4C185.15,340.84,174.22,341.68,164.46,341.68Zm-18.84-1.38c1.63,0,3.83.1,6.33.21,11.06.47,29.58,1.28,40.08-4.19,9.72-5.06,10.46-4.17,10.81-3.74a1,1,0,0,1,0,1c3.21.57,18.6,3,19.76-2.84.46-2.31,1.1-3.42,2-3.49,1.42-.09,2.48,2.6,2.69,3.15,0,.09.92,3,13.19,2.23,4.94-.32,8.19-1.54,9.4-3.55a3.81,3.81,0,0,0,.25-3.36c-.06-.18-4.22-13.44-8.05-21.1s-4.75-18.1-4.76-18.21c0-.39-3.19-39.84-14.94-59-3.47-5.65-5.8-10-7.85-13.78-5-9.26-8-14.86-20.85-27.14-.25,0-.7-.06-1.53-.15a162.47,162.47,0,0,0-26.06-.95c-12.39.65-31.15,5.61-32.85,6.06-1.73,2-29.35,34.17-37.35,52C87.3,262.83,82.37,293.84,87,299.76a5.53,5.53,0,0,1,1.13,4.34c-.82,6-9.45,12.38-9.82,12.65s-7.68,7.59-1.85,15.81,18.47,0,18.6-.11l.45-.3.17.52c.09.27,2.26,6.61,11.79,5.82s18.23-3.6,19.06-4.4V334l.24-.18c.35-.2.73,0,2.73,1.11,3.43,1.9,9.77,5.43,15.26,5.43h.86Z"/><path class="cls-2" d="M191.05,166.58s2.08-9.37,9.16-14.37,5.94-1.56,9.69-7.29,9-15.73,10.52-15.52,4.69-17-2.29-18.54-20.73-2.5-25.62,0l-4.9,2.5a7.34,7.34,0,0,1-2-4c-.21-2.31-.42-8.25-15.31-9.39s-16.56,4.89-16.56,4.89,1.85,13.45,1.45,14.8c-.47,1.61-1.14,2.81-8.33,1s-3.85-5.94-13.54-5.42S122.19,118,119.59,118s-11.25-2.29-21.88,2.3,2.4,17,5.32,18.33a49,49,0,0,1,18.75,14.06c7.6,9.27,12.28,22.21,12.28,22.21S162.35,165.86,191.05,166.58Z"/><path class="cls-3" d="M133.8,175.46l-.13-.38c0-.13-4.75-13-12.22-22.09a48.06,48.06,0,0,0-18.08-13.7l-.52-.24c-2.09-1-9.73-7.81-9.66-13.5,0-2.48,1.5-4.37,4.36-5.6a37.19,37.19,0,0,1,20.06-2.5c.85.1,1.52.18,2,.18a7.48,7.48,0,0,0,2.65-.67,32.55,32.55,0,0,1,11.08-2.14c5.78-.31,7.09,1,8.61,2.55a9.14,9.14,0,0,0,5,2.87c7.1,1.75,7.46.54,7.83-.75.27-.92-.76-9.45-1.47-14.62v-.08l0-.09c.08-.26,1.94-6.36,17-5.2s15.46,7.09,15.68,9.63v.15a6.76,6.76,0,0,0,1.66,3.56l4.62-2.35c5.28-2.71,19.45-1.48,25.9,0,5.22,1.17,5.11,9.9,4.22,14.88-.38,2.12-1,4.62-2.07,4.48-.89,0-4.19,5.57-6.38,9.23-1.27,2.13-2.58,4.33-3.74,6.11-2.27,3.46-2.84,3.69-4.38,4.32a24.82,24.82,0,0,0-5.42,3.08c-6.86,4.85-9,14-9,14.13l-.07.33H191c-28.3-.71-56.57,8.25-56.85,8.34Zm-22.16-57.58a34.21,34.21,0,0,0-13.76,2.84c-2.53,1.09-3.82,2.72-3.85,4.84-.07,5.25,7.25,11.84,9.17,12.73l.52.24a48.83,48.83,0,0,1,18.38,13.94c6.84,8.34,11.37,19.76,12.21,22,3.46-1.07,29.87-8.86,56.41-8.27.45-1.75,2.79-9.73,9.25-14.29a25.49,25.49,0,0,1,5.59-3.17c1.4-.57,1.87-.76,4-4,1.15-1.76,2.46-3.95,3.73-6.08,4-6.64,5.87-9.63,7.1-9.63h0c.7-.55,2.25-6.86,1.42-12.1-.36-2.26-1.3-5.06-3.79-5.62-7.21-1.61-20.66-2.43-25.35,0l-5.16,2.63-.21-.21a7.57,7.57,0,0,1-2.11-4.3v-.15c-.2-2.32-.68-7.77-14.91-8.87-13.42-1-15.85,3.88-16.11,4.53.25,1.79,1.83,13.5,1.43,14.86-.56,1.92-1.52,3.14-8.83,1.33a9.87,9.87,0,0,1-5.44-3.1c-1.44-1.45-2.56-2.6-8-2.3a32.13,32.13,0,0,0-10.83,2.09,8.27,8.27,0,0,1-2.94.72c-.5,0-1.2-.08-2.08-.18A49.72,49.72,0,0,0,111.64,117.88Z"/><path class="cls-3" d="M155.27,119.31a8.63,8.63,0,0,0,3.26-.7,9.73,9.73,0,0,0,2.79-1.75,6.75,6.75,0,0,0,2.52-5.67,4.09,4.09,0,0,0-.88-2.88,7.59,7.59,0,0,0-2.85-1.44l-3.23-1c-1.06-.38-2.14-.73-3.21-1.13,1.12.22,2.22.49,3.33.73l3.3.83a7.38,7.38,0,0,1,3.22,1.49,3.63,3.63,0,0,1,.92,1.64,7.33,7.33,0,0,1,.24,1.78,10.75,10.75,0,0,1-.1,1.77,6.3,6.3,0,0,1-.59,1.71,8.33,8.33,0,0,1-2.26,2.7A8.77,8.77,0,0,1,155.27,119.31Z"/><path class="cls-3" d="M141.66,117.57c1.7,2.67,3.27,5.43,4.76,8.24s2.83,5.69,4,8.63a53.34,53.34,0,0,1,3.11,9.07,31.11,31.11,0,0,1,.69,9.57h-.17c-.57-3.14-1.29-6.16-2.14-9.17l-1.3-4.5c-.41-1.51-.92-3-1.43-4.49-1.05-3-2.26-5.87-3.55-8.75s-2.65-5.74-4.16-8.52Z"/><path class="cls-3" d="M130.91,133.29a57,57,0,0,0,6.63,8c1.22,1.23,2.47,2.38,3.78,3.56A23,23,0,0,1,144.8,149a36.45,36.45,0,0,1,2.53,4.73,42.81,42.81,0,0,1,1.76,5,32.93,32.93,0,0,1,1.33,10.47,53.6,53.6,0,0,0-2.57-10.08,43.74,43.74,0,0,0-4.45-9.24,22.7,22.7,0,0,0-3.16-3.92c-1.23-1.23-2.53-2.48-3.66-3.83A34.58,34.58,0,0,1,130.91,133.29Z"/><path class="cls-3" d="M164,113.77a32.67,32.67,0,0,1,5.29,8.34,25.12,25.12,0,0,1,1.51,4.76,22.87,22.87,0,0,1,.4,2.48l.2,2.47c.22,3.27.5,6.55.41,9.83a77.31,77.31,0,0,1-.76,9.83h-.17c-.42-3.28-.59-6.54-.73-9.81s0-6.53-.09-9.79l-.07-2.44c-.07-.79-.11-1.59-.25-2.38a24.54,24.54,0,0,0-1.23-4.65,32.12,32.12,0,0,0-4.63-8.53Z"/><path class="cls-3" d="M167.1,167.78a17.92,17.92,0,0,0,.47-2.36,22.13,22.13,0,0,0,.21-2.43,21.68,21.68,0,0,0-.33-4.89,22.24,22.24,0,0,1,.75,4.89,23,23,0,0,1,0,2.49,19.72,19.72,0,0,1-.28,2.5Z"/><path class="cls-3" d="M179.82,136.74a13.44,13.44,0,0,1,1-6.18,21.63,21.63,0,0,1,1.36-2.82,9.54,9.54,0,0,0,.87-2.71c.08-.46.1-1,.14-1.48l.14-1.54c.05-.51.09-1,.16-1.53a12.58,12.58,0,0,1,.27-1.59,7.83,7.83,0,0,1,3.58-5.31l.85-.45-.44.88a5.13,5.13,0,0,0,0,4.27,7.68,7.68,0,0,0,3,3.28,17.71,17.71,0,0,0,4.08,1.92,42.52,42.52,0,0,0,4.39,1.25,66,66,0,0,0,9,1.58,40.35,40.35,0,0,0,4.52.22,20.93,20.93,0,0,0,2.25-.11,13.53,13.53,0,0,0,2.13-.35l.1,0a8.33,8.33,0,0,0,2.2-.83,5.71,5.71,0,0,0,2.84-3.71,8.71,8.71,0,0,0,.18-2.51l.16,0a7.91,7.91,0,0,1,.2,2.62,6,6,0,0,1-.87,2.57,7,7,0,0,1-1.92,2,7.92,7.92,0,0,1-2.52,1.19l.1,0a17.72,17.72,0,0,1-4.79.86,35.84,35.84,0,0,1-4.75-.09,51.36,51.36,0,0,1-9.23-1.86,24,24,0,0,1-8.55-4,9.55,9.55,0,0,1-3-3.73,6.32,6.32,0,0,1,0-4.76l.41.43a5.06,5.06,0,0,0-1.77,2.19,9.61,9.61,0,0,0-.76,2.8c-.07.48-.1,1-.14,1.47s-.08,1-.12,1.54l-.14,1.54a15.88,15.88,0,0,1-.2,1.58,9.49,9.49,0,0,1-1.14,3.1,29.91,29.91,0,0,0-1.54,2.63,16.57,16.57,0,0,0-1.83,5.74Z"/><path class="cls-3" d="M185.29,166.37c-.16-2.21-.2-4.37-.17-6.55s.13-4.35.37-6.51a44.88,44.88,0,0,1,1.11-6.42,23.79,23.79,0,0,1,2.36-6,23.61,23.61,0,0,0-2,6.12,42.89,42.89,0,0,0-.68,6.39c-.1,2.14-.07,4.29,0,6.43s.29,4.29.57,6.38Z"/><path class="cls-4" d="M134.06,174.94s-6.35,2.72-5,5.15,2.43,2.5,2.43,2.5-2.74,1.71-2.61,4.45c.15,3,1.67,4.78,4.21,4.09,1.84-.49,22.82-4.91,31.08-5.88s22,.13,22,.13l6.3.55a5.36,5.36,0,0,0,3.86-.35,4.35,4.35,0,0,0,3-3.2c.8-3-1.87-7.36-5.07-7.08-2.06.18-1.09-1.66-.14-3a3.47,3.47,0,0,0,.22-3.74,3.54,3.54,0,0,0-3.27-2C185,166.79,167.76,165.07,134.06,174.94Z"/><path class="cls-5" d="M146.67,274.26a1.56,1.56,0,0,1-1.14-.44,1.46,1.46,0,0,1-.44-1.06V252l.44.51L141.29,255a1.49,1.49,0,0,1-.73.18,1.35,1.35,0,0,1-1.06-.49,1.49,1.49,0,0,1-.44-1,1.44,1.44,0,0,1,.77-1.28l6-3.55a2,2,0,0,1,1.1-.22,1.23,1.23,0,0,1,1,.42,1.51,1.51,0,0,1,.37,1.05v22.64a1.46,1.46,0,0,1-.44,1.06A1.54,1.54,0,0,1,146.67,274.26Z"/><path class="cls-5" d="M162.47,274.62a7.61,7.61,0,0,1-5.07-1.71,10.56,10.56,0,0,1-3.07-4.72,22.42,22.42,0,0,1,0-13.5A10.48,10.48,0,0,1,157.4,250a8.32,8.32,0,0,1,10.13,0,10.3,10.3,0,0,1,3.06,4.68,22.84,22.84,0,0,1,0,13.5,10.38,10.38,0,0,1-3.06,4.72A7.58,7.58,0,0,1,162.47,274.62Zm0-3a4.61,4.61,0,0,0,3.27-1.24,7.81,7.81,0,0,0,2-3.53,21.57,21.57,0,0,0,0-10.9,7.58,7.58,0,0,0-2-3.51,5,5,0,0,0-6.55,0,7.67,7.67,0,0,0-2,3.51,21,21,0,0,0,0,10.9,7.91,7.91,0,0,0,2,3.53A4.64,4.64,0,0,0,162.47,271.66Z"/><path class="cls-5" d="M184.45,274.62a7.58,7.58,0,0,1-5.06-1.71,10.58,10.58,0,0,1-3.08-4.72,22.42,22.42,0,0,1,0-13.5,10.5,10.5,0,0,1,3.08-4.68,8.32,8.32,0,0,1,10.13,0,10.37,10.37,0,0,1,3,4.68,22.63,22.63,0,0,1,0,13.5,10.45,10.45,0,0,1-3,4.72A7.61,7.61,0,0,1,184.45,274.62Zm0-3a4.65,4.65,0,0,0,3.28-1.24,7.9,7.9,0,0,0,2-3.53,21.87,21.87,0,0,0,0-10.9,7.66,7.66,0,0,0-2-3.51,5,5,0,0,0-6.55,0,7.68,7.68,0,0,0-2.05,3.51,21.27,21.27,0,0,0,0,10.9,7.92,7.92,0,0,0,2.05,3.53A4.61,4.61,0,0,0,184.45,271.66Z"/><path class="cls-4" d="M162.69,320.24a15.56,15.56,0,0,1-11.5-4.44,3.29,3.29,0,0,1-.55-.75,1.85,1.85,0,0,1-.22-.9,1.93,1.93,0,0,1,.56-1.37,1.76,1.76,0,0,1,1.37-.61,1.7,1.7,0,0,1,1.21.53,13.94,13.94,0,0,0,4.08,2.81,12.28,12.28,0,0,0,5,1,10.47,10.47,0,0,0,3.85-.67,6.68,6.68,0,0,0,2.73-1.89,4.25,4.25,0,0,0,1-2.8,4.86,4.86,0,0,0-1.14-3.19,8.24,8.24,0,0,0-3-2.1,25.24,25.24,0,0,0-4.42-1.43,26,26,0,0,1-4.08-1.3,12.09,12.09,0,0,1-3.22-1.91,7.8,7.8,0,0,1-2.1-2.75,9,9,0,0,1-.75-3.79,8.31,8.31,0,0,1,1.45-4.84,9.46,9.46,0,0,1,4-3.21,14.38,14.38,0,0,1,5.9-1.13,16.2,16.2,0,0,1,5.58,1,10.84,10.84,0,0,1,4.22,2.66,2.55,2.55,0,0,1,1,1.79,1.87,1.87,0,0,1-.6,1.33,1.93,1.93,0,0,1-1.38.6,1.43,1.43,0,0,1-1-.39,8.28,8.28,0,0,0-2.07-1.64,12.64,12.64,0,0,0-2.76-1.16,11.43,11.43,0,0,0-6.91.22,6,6,0,0,0-2.63,1.83,4.41,4.41,0,0,0-.94,2.83,4.35,4.35,0,0,0,1.06,3,7.83,7.83,0,0,0,2.85,1.93,31.09,31.09,0,0,0,4,1.33,39.9,39.9,0,0,1,4.38,1.33,13.45,13.45,0,0,1,3.45,1.86,7.47,7.47,0,0,1,2.25,2.83,10,10,0,0,1,.79,4.22,8,8,0,0,1-1.49,4.74,10.11,10.11,0,0,1-4.09,3.26A14.27,14.27,0,0,1,162.69,320.24Zm2.18,4.45a1.87,1.87,0,0,1-.56,1.37,1.94,1.94,0,0,1-1.43.56,1.81,1.81,0,0,1-1.35-.56,1.93,1.93,0,0,1-.53-1.37V282.56a1.94,1.94,0,0,1,.56-1.4,1.94,1.94,0,0,1,2.77,0,2,2,0,0,1,.54,1.4Z"/><path class="cls-2" d="M156.36,208.63s-29.16,33.61-37.5,52.22S105,311.13,110,317.52s-8.61,16.39-8.61,16.39-8,7.77-1.94,16.39,19.16,0,19.16,0,2.23,6.94,12.23,6.11,19.44-3.89,19.44-4.73,10,6.69,18.06,6.54,33.88,2.91,47.22-4,10-2.77,10-2.77,19.44,3.89,20.83-3.06,3.89-.28,3.89-.28.55,3.34,13.61,2.5,10-7.5,10-7.5-4.17-13.33-8.06-21.11-4.72-18-4.72-18-3.05-39.72-15-59.17-10.55-23.64-28.89-41.13c0,.18-12.95-1.87-27.77-1.09C176.31,203.21,156.36,208.63,156.36,208.63Z"/><path class="cls-3" d="M187.76,359.18c-4.61,0-9-.19-12.55-.34-2.82-.12-5.26-.23-6.9-.2-5.79.1-12.37-3.56-15.91-5.53-.79-.44-1.59-.89-1.94-1-1.58,1.59-11.62,4.08-19.62,4.74-8.64.72-11.7-4.3-12.45-5.91-2.34,1.39-13.68,7.57-19.31-.37-6.25-8.8,1.91-16.85,2-16.93s8.76-6.51,9.54-12.13a4.77,4.77,0,0,0-1-3.7c-5.28-6.75.69-38.91,8.83-57.1,8.26-18.45,37.27-52,37.57-52.32l.08-.1.12,0c.2-.06,20.14-5.44,33.15-6.13a163.72,163.72,0,0,1,26.19,1l1.2.12v-.52l.68.65c13.07,12.46,16.1,18.11,21.14,27.47,2,3.8,4.36,8.12,7.82,13.74,11.86,19.31,15,59,15.06,59.36,0,.1.87,10.28,4.68,17.9s8,21,8.08,21.17A4.66,4.66,0,0,1,274,347c-1.37,2.29-4.75,3.62-10.06,4-13,.84-14-2.47-14-2.85-.4-1-1.28-2.58-1.83-2.53-.11,0-.71.19-1.24,2.82-1.45,7.27-20.51,3.55-21.32,3.39l-.67-.14.42-.53a1.26,1.26,0,0,0,.28-.57c-.14-.07-1.37-.39-9.76,4C208.45,358.34,197.52,359.18,187.76,359.18Zm-18.84-1.38c1.63,0,3.83.1,6.33.2,11.06.48,29.58,1.29,40.08-4.19,9.72-5.05,10.46-4.16,10.81-3.73a1,1,0,0,1,.05,1c3.21.56,18.6,3,19.76-2.84.46-2.31,1.1-3.42,2-3.49,1.42-.09,2.49,2.6,2.69,3.15,0,.09.92,3,13.19,2.23,4.94-.32,8.19-1.54,9.4-3.55a3.81,3.81,0,0,0,.25-3.36c-.06-.19-4.22-13.44-8.05-21.1s-4.75-18.1-4.76-18.21c0-.4-3.19-39.85-14.94-59-3.47-5.65-5.8-10-7.85-13.79-5-9.25-8-14.85-20.85-27.13l-1.53-.15a162.47,162.47,0,0,0-26.06-.95c-12.39.65-31.15,5.61-32.85,6.06-1.73,2-29.35,34.17-37.35,52-8.64,19.31-13.57,50.32-8.94,56.24a5.51,5.51,0,0,1,1.13,4.33c-.82,6-9.45,12.38-9.82,12.65s-7.68,7.6-1.85,15.81,18.47,0,18.6-.1l.45-.3.17.52c.09.27,2.26,6.61,11.79,5.82s18.23-3.61,19.06-4.4v-.14l.24-.18c.35-.21.74,0,2.73,1.11,3.43,1.9,9.77,5.43,15.26,5.43h.86Z"/><path class="cls-2" d="M214.35,184.08s2.08-9.37,9.16-14.37,5.94-1.56,9.69-7.29,9-15.73,10.52-15.52,4.69-17-2.29-18.55-20.73-2.5-25.62,0l-4.9,2.5a7.29,7.29,0,0,1-2-4c-.21-2.31-.42-8.25-15.31-9.39s-16.56,4.89-16.56,4.89,1.85,13.45,1.45,14.79c-.47,1.62-1.14,2.82-8.33,1.05s-3.85-5.94-13.54-5.42-11.15,2.81-13.75,2.81-11.25-2.29-21.88,2.29,2.4,17,5.32,18.34a49,49,0,0,1,18.75,14.06c7.6,9.27,12.28,22.21,12.28,22.21S185.65,183.35,214.35,184.08Z"/><path class="cls-3" d="M157.1,193l-.13-.38c-.05-.13-4.75-13-12.22-22.09a48.12,48.12,0,0,0-18.08-13.71l-.52-.24c-2.09-1-9.73-7.8-9.66-13.5,0-2.48,1.5-4.36,4.36-5.59a37.09,37.09,0,0,1,20.06-2.5,19.43,19.43,0,0,0,2,.17,7.48,7.48,0,0,0,2.65-.67,33.07,33.07,0,0,1,11.08-2.14c5.78-.31,7.09,1,8.61,2.55a9.14,9.14,0,0,0,5.05,2.88c7.1,1.75,7.46.53,7.83-.75.27-.92-.76-9.46-1.47-14.62v-.09l0-.08c.08-.26,1.94-6.36,17-5.2s15.46,7.09,15.68,9.63l0,.14a6.73,6.73,0,0,0,1.65,3.57l4.62-2.36c5.28-2.7,19.45-1.48,25.9,0,5.22,1.17,5.11,9.9,4.22,14.88-.37,2.12-1,4.62-2.07,4.48-.89,0-4.19,5.56-6.38,9.23-1.27,2.13-2.58,4.33-3.74,6.1-2.27,3.47-2.84,3.7-4.38,4.33a24.37,24.37,0,0,0-5.42,3.08c-6.86,4.84-9,14-9,14.12l-.07.34h-.34c-28.3-.71-56.57,8.25-56.85,8.34Zm-22.16-57.58a34.21,34.21,0,0,0-13.76,2.84c-2.53,1.09-3.82,2.71-3.85,4.83-.07,5.26,7.25,11.85,9.17,12.74l.52.24A48.88,48.88,0,0,1,145.4,170c6.84,8.34,11.37,19.77,12.21,22,3.46-1.06,29.87-8.85,56.41-8.26.45-1.76,2.79-9.73,9.25-14.29a25.49,25.49,0,0,1,5.59-3.17c1.4-.57,1.87-.77,4-4,1.15-1.76,2.46-4,3.73-6.08,4-6.64,5.87-9.63,7.1-9.63h0c.7-.56,2.25-6.86,1.42-12.1-.36-2.26-1.3-5.06-3.79-5.62-7.21-1.61-20.66-2.43-25.35,0l-5.16,2.63-.21-.21a7.56,7.56,0,0,1-2.1-4.3l0-.15c-.2-2.33-.68-7.77-14.91-8.87-13.42-1-15.85,3.87-16.11,4.53.25,1.78,1.83,13.5,1.43,14.86-.56,1.92-1.52,3.13-8.83,1.33a9.87,9.87,0,0,1-5.44-3.1c-1.44-1.45-2.56-2.6-8-2.3a32.21,32.21,0,0,0-10.83,2.08,8.09,8.09,0,0,1-2.94.73c-.5,0-1.2-.08-2.08-.18A49.72,49.72,0,0,0,134.94,135.38Z"/><path class="cls-3" d="M178.57,136.81a8.45,8.45,0,0,0,3.26-.71,9.57,9.57,0,0,0,2.79-1.74,6.72,6.72,0,0,0,2.52-5.67,4.09,4.09,0,0,0-.88-2.88,7.44,7.44,0,0,0-2.85-1.44l-3.23-1.05c-1.06-.37-2.14-.72-3.21-1.12,1.12.21,2.22.49,3.33.73l3.3.82a7.51,7.51,0,0,1,3.22,1.5,3.63,3.63,0,0,1,.92,1.64,7.33,7.33,0,0,1,.24,1.78,9.76,9.76,0,0,1-.1,1.77,6.3,6.3,0,0,1-.59,1.71,8.33,8.33,0,0,1-2.26,2.7A8.81,8.81,0,0,1,178.57,136.81Z"/><path class="cls-3" d="M165,135.07c1.7,2.67,3.27,5.43,4.76,8.23s2.83,5.7,4,8.64a53.54,53.54,0,0,1,3.11,9.06,31.15,31.15,0,0,1,.69,9.57h-.17c-.57-3.14-1.29-6.16-2.14-9.17l-1.3-4.5c-.4-1.52-.92-3-1.43-4.49-1.05-3-2.26-5.87-3.55-8.75s-2.65-5.74-4.16-8.52Z"/><path class="cls-3" d="M154.21,150.78a57.05,57.05,0,0,0,6.63,8c1.22,1.23,2.47,2.38,3.78,3.56a23,23,0,0,1,3.48,4.16,35.19,35.19,0,0,1,2.53,4.73,42.81,42.81,0,0,1,1.76,5,32.89,32.89,0,0,1,1.33,10.47,53.6,53.6,0,0,0-2.57-10.08,43.74,43.74,0,0,0-4.45-9.24,22.77,22.77,0,0,0-3.16-3.93c-1.22-1.22-2.53-2.47-3.66-3.83A34.24,34.24,0,0,1,154.21,150.78Z"/><path class="cls-3" d="M187.28,131.27a32.79,32.79,0,0,1,5.29,8.33,25.58,25.58,0,0,1,1.51,4.76,23.46,23.46,0,0,1,.4,2.49l.2,2.46c.22,3.28.5,6.56.41,9.84a77.31,77.31,0,0,1-.76,9.83h-.17c-.42-3.28-.59-6.55-.73-9.81s0-6.53-.09-9.79l-.07-2.44a23.7,23.7,0,0,0-.25-2.38,24.54,24.54,0,0,0-1.23-4.65,32.12,32.12,0,0,0-4.63-8.53Z"/><path class="cls-3" d="M190.4,185.28a17.92,17.92,0,0,0,.47-2.36,22.1,22.1,0,0,0,.21-2.44,21.72,21.72,0,0,0-.33-4.89,22.42,22.42,0,0,1,.75,4.89,23.18,23.18,0,0,1,0,2.5,19.72,19.72,0,0,1-.28,2.5Z"/><path class="cls-3" d="M203.12,154.24a13.42,13.42,0,0,1,1-6.18,21.63,21.63,0,0,1,1.36-2.82,9.54,9.54,0,0,0,.87-2.71c.08-.46.1-1,.14-1.48l.14-1.54c0-.51.09-1,.16-1.53a12.58,12.58,0,0,1,.27-1.59,7.83,7.83,0,0,1,3.58-5.31l.85-.46-.44.89a5.13,5.13,0,0,0,0,4.27,7.6,7.6,0,0,0,3,3.27,17.74,17.74,0,0,0,4.08,1.93,42.52,42.52,0,0,0,4.39,1.25,66,66,0,0,0,9,1.58A42.87,42.87,0,0,0,236,144c.76,0,1.51,0,2.25-.11a13.31,13.31,0,0,0,2.13-.36l.1,0a8,8,0,0,0,2.2-.82,6,6,0,0,0,1.8-1.54,6,6,0,0,0,1-2.17,8.73,8.73,0,0,0,.18-2.51l.16,0a7.65,7.65,0,0,1,.2,2.62,6,6,0,0,1-.87,2.57,7.27,7.27,0,0,1-1.92,2,7.92,7.92,0,0,1-2.52,1.19l.1,0a17.72,17.72,0,0,1-4.79.86,35.84,35.84,0,0,1-4.75-.09,52.24,52.24,0,0,1-9.23-1.86,24,24,0,0,1-8.55-4,9.55,9.55,0,0,1-3-3.73,6.32,6.32,0,0,1,0-4.76l.41.43a5,5,0,0,0-1.77,2.18,9.69,9.69,0,0,0-.76,2.8c-.07.49-.1,1-.14,1.47s-.08,1-.12,1.55l-.14,1.54a15.88,15.88,0,0,1-.2,1.58,9.57,9.57,0,0,1-1.14,3.1,28.52,28.52,0,0,0-1.54,2.63,16.5,16.5,0,0,0-1.83,5.74Z"/><path class="cls-3" d="M208.59,183.87c-.16-2.21-.2-4.37-.17-6.55s.14-4.35.37-6.51a44.88,44.88,0,0,1,1.11-6.42,24,24,0,0,1,2.36-6,23.8,23.8,0,0,0-1.95,6.13,42.75,42.75,0,0,0-.68,6.39c-.1,2.14-.07,4.29,0,6.43s.29,4.29.57,6.37Z"/><path class="cls-4" d="M157.36,192.44s-6.35,2.72-5,5.15,2.43,2.5,2.43,2.5-2.74,1.71-2.61,4.44c.15,3,1.67,4.79,4.21,4.1,1.84-.49,22.82-4.91,31.08-5.88s22,.13,22,.13l6.3.55a5.42,5.42,0,0,0,3.86-.35,4.36,4.36,0,0,0,3-3.2c.8-3-1.87-7.36-5.07-7.08-2.06.18-1.09-1.67-.13-3a3.49,3.49,0,0,0,.21-3.75,3.55,3.55,0,0,0-3.27-2C208.31,184.28,191.06,182.57,157.36,192.44Z"/><path class="cls-5" d="M170,291.76a1.56,1.56,0,0,1-1.14-.44,1.46,1.46,0,0,1-.44-1.06V269.44l.44.52-4.24,2.56a1.49,1.49,0,0,1-.73.18,1.38,1.38,0,0,1-1.06-.49,1.49,1.49,0,0,1-.44-1,1.43,1.43,0,0,1,.77-1.28l6-3.55a2,2,0,0,1,1.1-.22,1.23,1.23,0,0,1,1,.42,1.51,1.51,0,0,1,.37,1.05v22.64a1.46,1.46,0,0,1-.44,1.06A1.54,1.54,0,0,1,170,291.76Z"/><path class="cls-5" d="M185.77,292.12a7.56,7.56,0,0,1-5.07-1.72,10.51,10.51,0,0,1-3.07-4.72,22.39,22.39,0,0,1,0-13.49,10.48,10.48,0,0,1,3.07-4.68,8.32,8.32,0,0,1,10.13,0,10.3,10.3,0,0,1,3.06,4.68,22.81,22.81,0,0,1,0,13.49,10.33,10.33,0,0,1-3.06,4.72A7.53,7.53,0,0,1,185.77,292.12Zm0-3a4.61,4.61,0,0,0,3.27-1.24,7.81,7.81,0,0,0,2-3.53,21.57,21.57,0,0,0,0-10.9,7.66,7.66,0,0,0-2-3.52,5,5,0,0,0-6.55,0,7.76,7.76,0,0,0-2,3.52,21,21,0,0,0,0,10.9,7.91,7.91,0,0,0,2,3.53A4.64,4.64,0,0,0,185.77,289.16Z"/><path class="cls-5" d="M207.75,292.12a7.53,7.53,0,0,1-5.06-1.72,10.52,10.52,0,0,1-3.08-4.72,22.39,22.39,0,0,1,0-13.49,10.5,10.5,0,0,1,3.08-4.68,8.32,8.32,0,0,1,10.13,0,10.37,10.37,0,0,1,3.05,4.68,22.6,22.6,0,0,1,0,13.49,10.4,10.4,0,0,1-3.05,4.72A7.56,7.56,0,0,1,207.75,292.12Zm0-3a4.64,4.64,0,0,0,3.28-1.24,7.9,7.9,0,0,0,2-3.53,21.87,21.87,0,0,0,0-10.9,7.75,7.75,0,0,0-2-3.52,5,5,0,0,0-6.55,0,7.77,7.77,0,0,0-2,3.52,21.27,21.27,0,0,0,0,10.9,7.92,7.92,0,0,0,2,3.53A4.61,4.61,0,0,0,207.75,289.16Z"/><path class="cls-4" d="M186,337.74a17.28,17.28,0,0,1-6.28-1.06,16.89,16.89,0,0,1-5.22-3.39,3,3,0,0,1-.55-.74,1.87,1.87,0,0,1-.22-.9,2,2,0,0,1,.56-1.38,1.78,1.78,0,0,1,1.37-.6,1.68,1.68,0,0,1,1.21.53,13.72,13.72,0,0,0,4.08,2.8,12.11,12.11,0,0,0,4.95,1,10.27,10.27,0,0,0,3.85-.68,6.67,6.67,0,0,0,2.73-1.88,4.25,4.25,0,0,0,1-2.8,4.86,4.86,0,0,0-1.14-3.19,8.24,8.24,0,0,0-3-2.1,24.42,24.42,0,0,0-4.42-1.43,27.14,27.14,0,0,1-4.08-1.3,12.36,12.36,0,0,1-3.22-1.91,7.89,7.89,0,0,1-2.1-2.75,9,9,0,0,1-.75-3.8,8.3,8.3,0,0,1,1.45-4.83,9.46,9.46,0,0,1,4-3.21,14.38,14.38,0,0,1,5.9-1.14,16.21,16.21,0,0,1,5.58,1,10.72,10.72,0,0,1,4.22,2.66,2.53,2.53,0,0,1,1,1.78,1.84,1.84,0,0,1-.6,1.33,1.9,1.9,0,0,1-1.38.61,1.43,1.43,0,0,1-1-.39,8.28,8.28,0,0,0-2.07-1.64,12.17,12.17,0,0,0-2.76-1.16,11.23,11.23,0,0,0-6.91.22,6,6,0,0,0-2.63,1.83,4.78,4.78,0,0,0,.12,5.85,7.83,7.83,0,0,0,2.85,1.93,31.09,31.09,0,0,0,4,1.33,39.9,39.9,0,0,1,4.38,1.33,13.45,13.45,0,0,1,3.45,1.86,7.52,7.52,0,0,1,2.25,2.82,10.08,10.08,0,0,1,.79,4.23,8,8,0,0,1-1.49,4.74,10.11,10.11,0,0,1-4.09,3.26A14.27,14.27,0,0,1,186,337.74Zm2.18,4.44a1.88,1.88,0,0,1-.56,1.38,1.94,1.94,0,0,1-1.43.56,1.81,1.81,0,0,1-1.35-.56,1.93,1.93,0,0,1-.53-1.38V300.05a2,2,0,0,1,.56-1.4,1.94,1.94,0,0,1,2.77,0,2,2,0,0,1,.54,1.4Z"/><path class="cls-2" d="M185.58,233.83s-29.16,33.61-37.5,52.22-13.89,50.28-8.89,56.67-8.61,16.39-8.61,16.39-8.05,7.78-1.94,16.39,19.16,0,19.16,0,2.23,6.94,12.23,6.11,19.44-3.89,19.44-4.72,10,6.68,18.06,6.53,33.88,2.91,47.22-4,10-2.78,10-2.78,19.44,3.89,20.83-3.06,3.89-.28,3.89-.28.56,3.34,13.61,2.5,10-7.5,10-7.5-4.17-13.33-8.06-21.11-4.72-18.05-4.72-18.05-3.05-39.72-15-59.17-10.55-23.64-28.89-41.13c0,.18-12.95-1.87-27.77-1.09C205.53,228.41,185.58,233.83,185.58,233.83Z"/><path class="cls-3" d="M217,384.38c-4.61,0-9-.19-12.55-.34-2.82-.12-5.26-.23-6.9-.2-5.79.1-12.37-3.56-15.91-5.53-.78-.44-1.59-.88-1.94-1-1.58,1.59-11.62,4.08-19.62,4.74-8.64.73-11.7-4.3-12.45-5.91-2.34,1.39-13.68,7.57-19.31-.37-6.25-8.8,1.91-16.85,2-16.93s8.76-6.5,9.54-12.13a4.78,4.78,0,0,0-1-3.7c-5.28-6.75.69-38.91,8.83-57.1,8.26-18.45,37.27-52,37.57-52.32l.08-.1.12,0c.2-.05,20.14-5.44,33.15-6.12a164.07,164.07,0,0,1,26.19.95l1.2.12v-.52l.68.65C259.77,241,262.81,246.62,267.84,256c2,3.81,4.36,8.12,7.82,13.74,11.86,19.31,15,59,15.06,59.36,0,.1.87,10.28,4.68,17.9s8,21,8.08,21.17a4.66,4.66,0,0,1-.31,4.08c-1.37,2.29-4.75,3.62-10.06,4-13.05.84-14-2.47-14.05-2.85-.4-1-1.28-2.58-1.83-2.53-.11,0-.71.19-1.24,2.82-1.45,7.27-20.51,3.55-21.32,3.39l-.67-.14.42-.53a1.16,1.16,0,0,0,.28-.57c-.14-.07-1.37-.39-9.76,4C237.67,383.54,226.74,384.38,217,384.38ZM198.14,383c1.63,0,3.83.1,6.33.21,11.06.47,29.58,1.28,40.09-4.19,9.71-5.06,10.45-4.17,10.8-3.74a1,1,0,0,1,0,1c3.21.57,18.6,3,19.76-2.84.46-2.31,1.1-3.42,2-3.49,1.42-.09,2.49,2.6,2.69,3.15,0,.09.92,3,13.19,2.23,4.94-.32,8.19-1.54,9.4-3.55a3.81,3.81,0,0,0,.25-3.36c-.06-.18-4.22-13.44-8.05-21.1s-4.75-18.1-4.76-18.21c0-.4-3.19-39.84-14.94-59-3.47-5.65-5.8-10-7.85-13.78-5-9.26-8-14.86-20.85-27.14-.25,0-.7-.06-1.53-.15a162.47,162.47,0,0,0-26.06-1c-12.38.65-31.15,5.61-32.85,6.06-1.73,2-29.35,34.17-37.35,52-8.64,19.31-13.57,50.32-8.94,56.24a5.52,5.52,0,0,1,1.13,4.34c-.82,6-9.45,12.37-9.82,12.64s-7.68,7.6-1.85,15.82,18.47,0,18.6-.11l.45-.3.17.52c.09.27,2.26,6.61,11.79,5.82s18.23-3.61,19.06-4.4v-.14l.24-.18c.35-.2.74,0,2.73,1.11,3.43,1.9,9.77,5.43,15.26,5.43h.86Z"/><path class="cls-2" d="M243.57,209.28s2.08-9.37,9.16-14.37,5.94-1.56,9.69-7.29,9-15.73,10.52-15.52,4.69-17-2.29-18.54-20.73-2.5-25.62,0l-4.9,2.5a7.34,7.34,0,0,1-2-4.05c-.21-2.31-.42-8.25-15.31-9.39s-16.56,4.89-16.56,4.89,1.85,13.45,1.45,14.8c-.47,1.61-1.14,2.81-8.33,1s-3.85-5.94-13.54-5.42-11.15,2.81-13.75,2.81-11.25-2.29-21.87,2.29,2.39,17,5.31,18.34a49,49,0,0,1,18.75,14.06c7.6,9.27,12.28,22.21,12.28,22.21S214.87,208.55,243.57,209.28Z"/><path class="cls-3" d="M186.32,218.16l-.13-.38c-.05-.13-4.75-13-12.22-22.09A48.12,48.12,0,0,0,155.89,182l-.52-.23c-2.09-1-9.73-7.81-9.66-13.51,0-2.47,1.5-4.36,4.36-5.59a37.09,37.09,0,0,1,20.06-2.5c.85.1,1.52.18,2,.18a7.51,7.51,0,0,0,2.65-.68,33.07,33.07,0,0,1,11.08-2.14c5.78-.31,7.09,1,8.61,2.55a9.08,9.08,0,0,0,5.05,2.88c7.1,1.75,7.46.54,7.83-.75.27-.92-.76-9.46-1.47-14.62v-.08l0-.09c.08-.26,1.94-6.36,17-5.2s15.46,7.09,15.68,9.63l0,.14a6.69,6.69,0,0,0,1.65,3.57l4.62-2.36c5.29-2.7,19.45-1.47,25.9,0,5.22,1.17,5.11,9.9,4.22,14.88-.37,2.12-1,4.62-2.07,4.48-.89,0-4.19,5.56-6.38,9.23-1.27,2.13-2.58,4.33-3.74,6.11-2.27,3.46-2.84,3.69-4.38,4.32a24.37,24.37,0,0,0-5.42,3.08c-6.86,4.84-9,14-9,14.12l-.07.34h-.34C215.26,209,187,218,186.71,218Zm-22.16-57.58a34.21,34.21,0,0,0-13.76,2.84c-2.53,1.09-3.82,2.72-3.85,4.84-.07,5.25,7.25,11.84,9.17,12.73l.52.24a48.83,48.83,0,0,1,18.38,13.94c6.84,8.34,11.37,19.76,12.21,22,3.46-1.07,29.87-8.86,56.41-8.27.45-1.75,2.79-9.73,9.25-14.29a25.49,25.49,0,0,1,5.59-3.17c1.4-.57,1.87-.76,4-4,1.15-1.76,2.46-4,3.73-6.08,4-6.64,5.87-9.63,7.1-9.63h0c.7-.56,2.25-6.86,1.42-12.1-.36-2.26-1.3-5.06-3.79-5.62-7.21-1.61-20.66-2.43-25.34,0l-5.17,2.63-.21-.21a7.58,7.58,0,0,1-2.1-4.3l0-.15c-.2-2.32-.68-7.77-14.91-8.87-13.42-1-15.85,3.88-16.11,4.53.25,1.78,1.83,13.5,1.43,14.86-.56,1.92-1.52,3.13-8.83,1.33a9.87,9.87,0,0,1-5.44-3.1c-1.43-1.45-2.56-2.6-8-2.3a32.21,32.21,0,0,0-10.83,2.08,8.09,8.09,0,0,1-2.94.73c-.5,0-1.2-.08-2.08-.18A49.72,49.72,0,0,0,164.16,160.58Z"/><path class="cls-3" d="M207.79,162a8.63,8.63,0,0,0,3.26-.7,9.6,9.6,0,0,0,2.79-1.75,6.76,6.76,0,0,0,2.53-5.67,4.14,4.14,0,0,0-.89-2.88,7.44,7.44,0,0,0-2.85-1.44l-3.23-1c-1.06-.37-2.14-.72-3.21-1.12,1.12.22,2.22.49,3.33.73l3.31.83a7.34,7.34,0,0,1,3.21,1.49,3.63,3.63,0,0,1,.92,1.64,7.33,7.33,0,0,1,.24,1.78,9.76,9.76,0,0,1-.1,1.77,6.3,6.3,0,0,1-.59,1.71,8.33,8.33,0,0,1-2.26,2.7A8.77,8.77,0,0,1,207.79,162Z"/><path class="cls-3" d="M194.18,160.27c1.7,2.67,3.27,5.43,4.76,8.24s2.83,5.69,4.05,8.63a54.19,54.19,0,0,1,3.1,9.07,31.11,31.11,0,0,1,.69,9.57h-.17c-.57-3.14-1.29-6.16-2.14-9.17l-1.3-4.5c-.4-1.51-.92-3-1.43-4.49-1-3-2.26-5.87-3.55-8.75s-2.65-5.74-4.15-8.52Z"/><path class="cls-3" d="M183.43,176a57,57,0,0,0,6.63,8c1.22,1.23,2.47,2.38,3.78,3.56a23,23,0,0,1,3.48,4.16,35.81,35.81,0,0,1,2.53,4.73,42.81,42.81,0,0,1,1.76,5A32.89,32.89,0,0,1,202.94,212a53.6,53.6,0,0,0-2.57-10.08,43.74,43.74,0,0,0-4.45-9.24,22.7,22.7,0,0,0-3.16-3.92c-1.22-1.23-2.53-2.48-3.66-3.84A34.35,34.35,0,0,1,183.43,176Z"/><path class="cls-3" d="M216.5,156.47a32.79,32.79,0,0,1,5.29,8.33,25.58,25.58,0,0,1,1.51,4.76,23.46,23.46,0,0,1,.4,2.49l.2,2.46c.22,3.28.5,6.56.41,9.84a77.31,77.31,0,0,1-.76,9.83h-.17c-.42-3.28-.59-6.55-.73-9.81s0-6.53-.08-9.79l-.08-2.44c-.06-.79-.11-1.59-.25-2.38a24.54,24.54,0,0,0-1.23-4.65,32.12,32.12,0,0,0-4.63-8.53Z"/><path class="cls-3" d="M219.62,210.48a17.92,17.92,0,0,0,.47-2.36c.11-.81.19-1.62.22-2.43a22.42,22.42,0,0,0-.34-4.9,22.42,22.42,0,0,1,.75,4.89,23.17,23.17,0,0,1,0,2.5,19.72,19.72,0,0,1-.28,2.5Z"/><path class="cls-3" d="M232.34,179.44a13.57,13.57,0,0,1,1-6.18,23,23,0,0,1,1.36-2.82,9.24,9.24,0,0,0,.87-2.71c.08-.46.1-1,.14-1.48l.14-1.54c0-.51.09-1,.16-1.53a12.58,12.58,0,0,1,.27-1.59,7.83,7.83,0,0,1,3.58-5.31l.85-.45-.44.88a5.13,5.13,0,0,0,0,4.27,7.72,7.72,0,0,0,3,3.27,17.34,17.34,0,0,0,4.08,1.93,42.52,42.52,0,0,0,4.39,1.25,66,66,0,0,0,9,1.58,42.87,42.87,0,0,0,4.52.22c.76,0,1.51,0,2.25-.11a12.28,12.28,0,0,0,2.13-.36l.1,0a8.2,8.2,0,0,0,2.2-.83,6,6,0,0,0,1.8-1.54,6,6,0,0,0,1-2.17,8.71,8.71,0,0,0,.18-2.51l.16,0a7.65,7.65,0,0,1,.2,2.62,6,6,0,0,1-.87,2.57,7.13,7.13,0,0,1-1.92,2A7.92,7.92,0,0,1,270,170l.1,0a17.72,17.72,0,0,1-4.79.86,35.84,35.84,0,0,1-4.75-.09,51.36,51.36,0,0,1-9.23-1.86,24,24,0,0,1-8.55-4,9.55,9.55,0,0,1-3-3.73,6.32,6.32,0,0,1,0-4.76l.41.43a5.06,5.06,0,0,0-1.77,2.19,9.61,9.61,0,0,0-.76,2.8c-.07.48-.1,1-.14,1.46s-.08,1-.12,1.55l-.14,1.54A15.88,15.88,0,0,1,237,168a9.57,9.57,0,0,1-1.14,3.1,29.91,29.91,0,0,0-1.54,2.63,16.34,16.34,0,0,0-1.82,5.74Z"/><path class="cls-3" d="M237.81,209.07c-.16-2.21-.2-4.37-.17-6.55s.14-4.35.38-6.51a43.5,43.5,0,0,1,1.1-6.42,24,24,0,0,1,2.36-6,23.8,23.8,0,0,0-1.95,6.13,42.89,42.89,0,0,0-.68,6.39c-.1,2.14-.07,4.29,0,6.43s.29,4.29.57,6.38Z"/><path class="cls-4" d="M186.58,217.64s-6.35,2.72-5,5.15,2.43,2.5,2.43,2.5-2.74,1.71-2.61,4.44c.15,3,1.67,4.79,4.21,4.1,1.84-.49,22.82-4.91,31.08-5.88s22,.13,22,.13l6.3.55a5.36,5.36,0,0,0,3.86-.35,4.36,4.36,0,0,0,3-3.2c.8-3-1.87-7.36-5.07-7.08-2.06.18-1.09-1.67-.13-3a3.47,3.47,0,0,0,.21-3.74,3.54,3.54,0,0,0-3.27-2C237.53,209.49,220.28,207.77,186.58,217.64Z"/><path class="cls-5" d="M199.19,317a1.56,1.56,0,0,1-1.14-.44,1.46,1.46,0,0,1-.44-1.06V294.64l.44.52-4.24,2.56a1.49,1.49,0,0,1-.73.18,1.35,1.35,0,0,1-1.06-.49,1.49,1.49,0,0,1-.44-1,1.43,1.43,0,0,1,.77-1.28l6-3.55a2,2,0,0,1,1.1-.22,1.23,1.23,0,0,1,1,.42,1.51,1.51,0,0,1,.37,1.05v22.64a1.46,1.46,0,0,1-.44,1.06A1.54,1.54,0,0,1,199.19,317Z"/><path class="cls-5" d="M215,317.32a7.56,7.56,0,0,1-5.07-1.72,10.47,10.47,0,0,1-3.07-4.71,22.42,22.42,0,0,1,0-13.5,10.48,10.48,0,0,1,3.07-4.68,8.32,8.32,0,0,1,10.13,0,10.3,10.3,0,0,1,3.06,4.68,22.84,22.84,0,0,1,0,13.5,10.3,10.3,0,0,1-3.06,4.71A7.53,7.53,0,0,1,215,317.32Zm0-3a4.61,4.61,0,0,0,3.27-1.24,7.81,7.81,0,0,0,2-3.53,21.57,21.57,0,0,0,0-10.9,7.58,7.58,0,0,0-2-3.51,5,5,0,0,0-6.55,0,7.67,7.67,0,0,0-2,3.51,21,21,0,0,0,0,10.9,7.91,7.91,0,0,0,2,3.53A4.64,4.64,0,0,0,215,314.36Z"/><path class="cls-5" d="M237,317.32a7.53,7.53,0,0,1-5.06-1.72,10.49,10.49,0,0,1-3.08-4.71,22.42,22.42,0,0,1,0-13.5,10.5,10.5,0,0,1,3.08-4.68,8.32,8.32,0,0,1,10.13,0,10.37,10.37,0,0,1,3.05,4.68,22.63,22.63,0,0,1,0,13.5A10.36,10.36,0,0,1,242,315.6,7.56,7.56,0,0,1,237,317.32Zm0-3a4.64,4.64,0,0,0,3.28-1.24,7.9,7.9,0,0,0,2-3.53,21.87,21.87,0,0,0,0-10.9,7.66,7.66,0,0,0-2-3.51,5,5,0,0,0-6.55,0,7.77,7.77,0,0,0-2,3.51,21.27,21.27,0,0,0,0,10.9,8,8,0,0,0,2,3.53A4.61,4.61,0,0,0,237,314.36Z"/><path class="cls-4" d="M215.21,362.94a15.56,15.56,0,0,1-11.5-4.44,3.29,3.29,0,0,1-.55-.75,1.85,1.85,0,0,1-.22-.9,2,2,0,0,1,.56-1.37,1.77,1.77,0,0,1,1.37-.61,1.68,1.68,0,0,1,1.21.53,13.94,13.94,0,0,0,4.08,2.81,12.29,12.29,0,0,0,5,1,10.46,10.46,0,0,0,3.84-.67,6.78,6.78,0,0,0,2.73-1.89,4.25,4.25,0,0,0,1-2.8,4.91,4.91,0,0,0-1.13-3.19,8.37,8.37,0,0,0-3-2.1,25.24,25.24,0,0,0-4.42-1.43,27.14,27.14,0,0,1-4.08-1.3,12.36,12.36,0,0,1-3.22-1.91,7.89,7.89,0,0,1-2.1-2.75,9,9,0,0,1-.75-3.8,8.3,8.3,0,0,1,1.45-4.83,9.46,9.46,0,0,1,4-3.21,14.38,14.38,0,0,1,5.9-1.14,16.21,16.21,0,0,1,5.58,1,11,11,0,0,1,4.23,2.66,2.57,2.57,0,0,1,1,1.79,1.83,1.83,0,0,1-.6,1.32,1.89,1.89,0,0,1-1.38.61,1.43,1.43,0,0,1-1-.39,8.28,8.28,0,0,0-2.07-1.64,12.64,12.64,0,0,0-2.76-1.16,11.23,11.23,0,0,0-6.91.22,6,6,0,0,0-2.63,1.83,4.78,4.78,0,0,0,.12,5.85,7.83,7.83,0,0,0,2.85,1.93,31.09,31.09,0,0,0,4,1.33,39.9,39.9,0,0,1,4.38,1.33,13.45,13.45,0,0,1,3.45,1.86,7.38,7.38,0,0,1,2.25,2.83,10,10,0,0,1,.79,4.22,8,8,0,0,1-1.49,4.74,10.11,10.11,0,0,1-4.09,3.26A14.27,14.27,0,0,1,215.21,362.94Zm2.18,4.45a1.87,1.87,0,0,1-.56,1.37,1.92,1.92,0,0,1-1.42.56,1.82,1.82,0,0,1-1.36-.56,1.93,1.93,0,0,1-.53-1.37V325.26a2,2,0,0,1,.56-1.41,1.85,1.85,0,0,1,1.37-.58,1.82,1.82,0,0,1,1.4.58,2,2,0,0,1,.54,1.41Z"/></g></g></svg>