<svg xmlns="http://www.w3.org/2000/svg" viewBox="0 0 329.08 426.26"><defs><style>.cls-1{fill:none;}.cls-2{fill:#d3f7a4;}.cls-3{fill:#58d313;}.cls-4{fill:#25a5dd;}.cls-5{fill:#363026;}</style></defs><g id="Layer_2" data-name="Layer 2"><g id="Layer_1-2" data-name="Layer 1"><rect class="cls-1" width="329.08" height="426.26"/><path class="cls-2" d="M105.53,155.94s-42.24,48.69-54.31,75.64S31.1,304.4,38.35,313.66s-12.48,23.73-12.48,23.73-11.66,11.27-2.81,23.74,27.76,0,27.76,0S54,371.19,68.52,370s28.16-5.63,28.16-6.84,14.49,9.69,26.15,9.47,49.09,4.21,68.4-5.85,14.48-4,14.48-4,28.17,5.63,30.18-4.43,5.63-.4,5.63-.4.81,4.83,19.72,3.62,14.48-10.86,14.48-10.86-6-19.31-11.67-30.58-6.84-26.15-6.84-26.15-4.42-57.53-21.72-85.69S220.2,174,193.64,148.68c0,.25-18.75-2.72-40.23-1.59C134.42,148.09,105.53,155.94,105.53,155.94Z"/><path class="cls-3" d="M151,374c-6.68,0-13-.27-18.17-.5-4.09-.17-7.63-.33-10-.28-8.4.14-17.92-5.16-23.06-8-1.13-.63-2.29-1.27-2.81-1.48-2.28,2.3-16.82,5.9-28.41,6.86-12.52,1.05-16.95-6.23-18-8.57-3.38,2-19.8,11-28-.53-9-12.75,2.76-24.4,2.88-24.52s12.69-9.42,13.81-17.56A6.87,6.87,0,0,0,37.87,314c-7.64-9.77,1-56.35,12.8-82.69,12-26.73,54-75.3,54.41-75.79l.12-.14.18,0c.29-.08,29.16-7.88,48-8.87a237.63,237.63,0,0,1,37.94,1.38l1.74.18v-.75l1,.94c18.92,18,23.32,26.23,30.61,39.78,3,5.51,6.32,11.76,11.33,19.91,17.18,28,21.77,85.39,21.82,86,0,.14,1.26,14.9,6.77,25.92,5.59,11.18,11.64,30.48,11.71,30.67a6.77,6.77,0,0,1-.45,5.91c-2,3.31-6.89,5.25-14.58,5.74-18.9,1.21-20.25-3.58-20.34-4.13-.58-1.51-1.86-3.73-2.65-3.67-.16,0-1,.28-1.8,4.09-2.1,10.53-29.71,5.14-30.88,4.9l-1-.19.61-.78a1.75,1.75,0,0,0,.41-.82c-.2-.1-2-.57-14.14,5.76C181,372.78,165.15,374,151,374Zm-27.28-2c2.35,0,5.54.14,9.16.3,16,.69,42.85,1.85,58.06-6.07,14.07-7.33,15.14-6,15.65-5.41a1.37,1.37,0,0,1,.08,1.48c4.65.83,26.93,4.31,28.62-4.1.67-3.35,1.58-4.95,2.89-5.06,2.05-.13,3.6,3.77,3.9,4.56,0,.13,1.33,4.37,19.11,3.23,7.15-.45,11.85-2.23,13.6-5.13a5.57,5.57,0,0,0,.37-4.88c-.09-.26-6.11-19.46-11.66-30.56s-6.89-26.22-6.9-26.37c0-.58-4.61-57.71-21.64-85.43-5-8.18-8.39-14.44-11.36-20-7.21-13.41-11.57-21.52-30.2-39.31-.37,0-1-.09-2.22-.22a237.75,237.75,0,0,0-37.75-1.38c-17.93.95-45.11,8.13-47.57,8.79-2.51,2.91-42.52,49.49-54.1,75.35-12.52,28-19.66,72.88-13,81.45a8.09,8.09,0,0,1,1.64,6.28c-1.19,8.65-13.7,17.93-14.23,18.32s-11.12,11-2.68,22.9,26.75,0,26.94-.15l.66-.44.24.76c.13.39,3.28,9.57,17.08,8.43s26.4-5.22,27.61-6.38v-.2l.34-.25c.51-.31,1.07,0,4,1.6,5,2.76,14.15,7.86,22.1,7.86h1.25Z"/><path class="cls-2" d="M189.52,120.39s3-13.58,13.28-20.82,8.6-2.27,14-10.56,13-22.79,15.24-22.48,6.79-24.6-3.32-26.86-30-3.62-37.12,0l-7.09,3.62a10.56,10.56,0,0,1-2.86-5.85c-.31-3.35-.61-11.95-22.18-13.61s-24,7.09-24,7.09,2.68,19.47,2.11,21.42c-.68,2.34-1.66,4.08-12.07,1.51S120,45.25,105.94,46,89.79,50.08,86,50.08,69.73,46.76,54.34,53.4,57.81,78,62,80a70.88,70.88,0,0,1,27.16,20.37c11,13.43,17.79,32.17,17.79,32.17S148,119.33,189.52,120.39Z"/><path class="cls-3" d="M106.61,133.24l-.2-.54c-.07-.19-6.87-18.81-17.69-32A69.62,69.62,0,0,0,62.53,80.85l-.75-.35c-3-1.41-14.1-11.3-14-19.55.05-3.59,2.17-6.32,6.31-8.1,12.7-5.48,23.33-4.27,29.05-3.62,1.23.14,2.21.25,2.87.25a10.76,10.76,0,0,0,3.84-1c2.77-1,7-2.61,16-3.1,8.39-.44,10.28,1.48,12.48,3.7a13.21,13.21,0,0,0,7.31,4.17C136,55.8,136.49,54,137,52.17c.39-1.33-1.1-13.69-2.13-21.17l0-.12,0-.12c.1-.38,2.8-9.21,24.61-7.53,21.64,1.66,22.4,10.27,22.72,13.94l0,.21a9.86,9.86,0,0,0,2.39,5.17l6.69-3.42c7.66-3.91,28.18-2.14,37.52-.05,7.56,1.69,7.4,14.35,6.11,21.56-.54,3.07-1.49,6.69-3,6.48-1.29,0-6.07,8.07-9.23,13.37-1.84,3.09-3.75,6.28-5.43,8.85-3.28,5-4.11,5.35-6.34,6.26a35.92,35.92,0,0,0-7.85,4.46c-9.94,7-13,20.33-13,20.46L190,121h-.5c-41-1-81.93,12-82.34,12.08ZM74.5,49.85A49.59,49.59,0,0,0,54.58,54C50.92,55.53,49,57.89,49,61c-.11,7.62,10.5,17.15,13.29,18.45l.74.34A70.82,70.82,0,0,1,89.66,99.94c9.9,12.08,16.47,28.62,17.68,31.81,5-1.54,43.27-12.83,81.71-12,.65-2.54,4-14.09,13.4-20.7a36,36,0,0,1,8.09-4.58c2-.83,2.71-1.11,5.78-5.81,1.67-2.55,3.57-5.73,5.4-8.81,5.73-9.62,8.51-14,10.29-14h0c1-.8,3.26-9.94,2.06-17.53-.52-3.26-1.89-7.32-5.49-8.13-10.44-2.34-29.93-3.52-36.71,0L184.43,44l-.31-.31a11.08,11.08,0,0,1-3.05-6.23l0-.21c-.29-3.37-1-11.26-21.6-12.85C140,22.94,136.5,30,136.13,31c.35,2.59,2.65,19.56,2.07,21.53-.81,2.78-2.2,4.54-12.79,1.93A14.4,14.4,0,0,1,117.52,50c-2.07-2.1-3.71-3.76-11.55-3.34-8.9.48-13,2-15.69,3a11.91,11.91,0,0,1-4.26,1c-.73,0-1.73-.11-3-.25A71.26,71.26,0,0,0,74.5,49.85Z"/><path class="cls-3" d="M137.7,51.92a12.41,12.41,0,0,0,4.72-1,14,14,0,0,0,4-2.53c2.37-2.12,4-5,3.66-8.21A6,6,0,0,0,148.84,36a11,11,0,0,0-4.13-2.09L140,32.38c-1.55-.54-3.11-1.05-4.65-1.63,1.61.32,3.21.71,4.81,1.07L145,33a10.67,10.67,0,0,1,4.65,2.16A5.22,5.22,0,0,1,151,37.55a10.43,10.43,0,0,1,.34,2.57,15,15,0,0,1-.15,2.57,9.19,9.19,0,0,1-.84,2.48,11.93,11.93,0,0,1-3.28,3.9A12.69,12.69,0,0,1,137.7,51.92Z"/><path class="cls-3" d="M118,49.39c2.48,3.87,4.74,7.87,6.9,11.94s4.1,8.24,5.86,12.5A78.54,78.54,0,0,1,135.24,87a44.6,44.6,0,0,1,1,13.86H136c-.83-4.55-1.87-8.92-3.09-13.28L131,81c-.59-2.19-1.34-4.34-2.07-6.5-1.52-4.29-3.28-8.51-5.15-12.68s-3.83-8.31-6-12.33Z"/><path class="cls-3" d="M102.42,72.16A82.12,82.12,0,0,0,112,83.78c1.77,1.79,3.58,3.44,5.47,5.16a32.87,32.87,0,0,1,5,6,50.7,50.7,0,0,1,3.67,6.85,61.12,61.12,0,0,1,2.55,7.29,47.57,47.57,0,0,1,1.93,15.16,77.79,77.79,0,0,0-3.73-14.6,63,63,0,0,0-6.44-13.38,32.75,32.75,0,0,0-4.58-5.68c-1.77-1.78-3.66-3.59-5.3-5.55A49.76,49.76,0,0,1,102.42,72.16Z"/><path class="cls-3" d="M150.32,43.9A47.28,47.28,0,0,1,158,56a36.69,36.69,0,0,1,2.19,6.9,36,36,0,0,1,.57,3.6L161,70c.33,4.75.73,9.5.61,14.25a111.51,111.51,0,0,1-1.12,14.23h-.24c-.6-4.75-.85-9.48-1.06-14.21s0-9.46-.12-14.18L159,66.58a33,33,0,0,0-.36-3.43,34.53,34.53,0,0,0-1.78-6.74,46.16,46.16,0,0,0-6.71-12.35Z"/><path class="cls-3" d="M154.84,122.13a31.53,31.53,0,0,0,.68-3.43,34.59,34.59,0,0,0,.31-3.52,32.51,32.51,0,0,0-.49-7.09,32.42,32.42,0,0,1,1.09,7.09c.06,1.2,0,2.4,0,3.61a30.16,30.16,0,0,1-.41,3.62Z"/><path class="cls-3" d="M173.26,77.16a19.57,19.57,0,0,1,1.47-9,32.81,32.81,0,0,1,2-4.08A14,14,0,0,0,178,60.2c.11-.66.14-1.39.2-2.15l.2-2.22c.08-.74.14-1.48.23-2.22a20.85,20.85,0,0,1,.39-2.3c.76-3,2.21-6.12,5.19-7.7l1.24-.65-.65,1.28a7.51,7.51,0,0,0-.06,6.19,11.23,11.23,0,0,0,4.3,4.74,25.73,25.73,0,0,0,5.9,2.79,63.59,63.59,0,0,0,6.36,1.81,95.41,95.41,0,0,0,13,2.28,59.86,59.86,0,0,0,6.55.33,31.86,31.86,0,0,0,3.25-.17,19,19,0,0,0,3.09-.51l.15,0a11.27,11.27,0,0,0,3.17-1.2,8.61,8.61,0,0,0,2.62-2.22,8.82,8.82,0,0,0,1.5-3.15,12.89,12.89,0,0,0,.26-3.63l.24,0a11.23,11.23,0,0,1,.28,3.8,8.54,8.54,0,0,1-1.26,3.72,10.13,10.13,0,0,1-2.77,2.88,11.44,11.44,0,0,1-3.66,1.73l.15,0A26,26,0,0,1,221,64.75a52.73,52.73,0,0,1-6.89-.13,73.69,73.69,0,0,1-13.37-2.7,34.69,34.69,0,0,1-12.38-5.8,13.81,13.81,0,0,1-4.29-5.4,9.2,9.2,0,0,1-.06-6.9l.59.63A7.3,7.3,0,0,0,182,47.61a14.05,14.05,0,0,0-1.1,4c-.1.71-.14,1.4-.2,2.13s-.11,1.49-.17,2.24l-.2,2.23c-.08.72-.14,1.49-.29,2.29A14,14,0,0,1,178.37,65c-.83,1.33-1.57,2.48-2.23,3.8a24.26,24.26,0,0,0-2.64,8.32Z"/><path class="cls-3" d="M181.18,120.07c-.23-3.19-.28-6.32-.25-9.48s.2-6.3.55-9.43a63.66,63.66,0,0,1,1.6-9.3,35,35,0,0,1,3.42-8.74A34,34,0,0,0,183.67,92a63.94,63.94,0,0,0-1,9.26c-.14,3.1-.09,6.21.06,9.31s.42,6.21.84,9.24Z"/><path class="cls-4" d="M107,132.49s-9.19,3.94-7.28,7.46,3.51,3.62,3.51,3.62-4,2.48-3.77,6.44c.21,4.31,2.41,6.92,6.09,5.93,2.67-.71,33.05-7.12,45-8.52s31.82.2,31.82.2l9.13.79c2.62.72,3.79.08,5.58-.51a6.31,6.31,0,0,0,4.41-4.63c1.16-4.33-2.72-10.66-7.34-10.26-3,.26-1.58-2.41-.2-4.34a5.31,5.31,0,0,0-4.43-8.28C180.77,120.68,155.8,118.19,107,132.49Z"/><path class="cls-4" d="M148.45,342.94a24.75,24.75,0,0,1-9.1-1.54,24.1,24.1,0,0,1-7.55-4.89,4.48,4.48,0,0,1-.81-1.09,2.7,2.7,0,0,1-.31-1.29,2.86,2.86,0,0,1,.8-2,2.61,2.61,0,0,1,2-.87,2.37,2.37,0,0,1,1.74.77,20.26,20.26,0,0,0,5.92,4.06,17.67,17.67,0,0,0,7.17,1.4,15.09,15.09,0,0,0,5.56-1,9.8,9.8,0,0,0,4-2.73,6.13,6.13,0,0,0,1.47-4.06,7.1,7.1,0,0,0-1.65-4.62,12,12,0,0,0-4.34-3,35.14,35.14,0,0,0-6.4-2.07A38.31,38.31,0,0,1,141,318.1a17.83,17.83,0,0,1-4.66-2.76,11.47,11.47,0,0,1-3-4,13,13,0,0,1-1.08-5.49,12,12,0,0,1,2.09-7,13.72,13.72,0,0,1,5.81-4.66,21,21,0,0,1,8.54-1.64,23.3,23.3,0,0,1,8.08,1.4,15.63,15.63,0,0,1,6.13,3.85,3.72,3.72,0,0,1,1.4,2.59,2.68,2.68,0,0,1-.88,1.92,2.72,2.72,0,0,1-2,.88,2.06,2.06,0,0,1-1.4-.56,12.23,12.23,0,0,0-3-2.38,18.25,18.25,0,0,0-4-1.68,15.5,15.5,0,0,0-4.34-.63,15.71,15.71,0,0,0-5.67.94,8.8,8.8,0,0,0-3.81,2.66,6.4,6.4,0,0,0-1.37,4.1,6.32,6.32,0,0,0,1.54,4.37,11.4,11.4,0,0,0,4.13,2.8,45.37,45.37,0,0,0,5.74,1.92,54.54,54.54,0,0,1,6.33,1.93,19.19,19.19,0,0,1,5,2.69,10.84,10.84,0,0,1,3.25,4.1,14.43,14.43,0,0,1,1.16,6.12,11.5,11.5,0,0,1-2.17,6.86,14.64,14.64,0,0,1-5.92,4.72A20.68,20.68,0,0,1,148.45,342.94Zm3.15,6.44a2.75,2.75,0,0,1-.8,2,2.84,2.84,0,0,1-2.07.8,2.62,2.62,0,0,1-2-.8,2.81,2.81,0,0,1-.77-2v-61a2.82,2.82,0,0,1,.81-2,2.82,2.82,0,0,1,4,0,2.92,2.92,0,0,1,.77,2Z"/><path class="cls-2" d="M138.68,185.19s-42.25,48.68-54.32,75.63S64.25,333.65,71.49,342.9,59,366.64,59,366.64,47.35,377.9,56.2,390.37s27.76,0,27.76,0,3.22,10.06,17.7,8.85,28.17-5.63,28.17-6.83,14.48,9.68,26.15,9.47,49.08,4.2,68.39-5.85,14.49-4,14.49-4S267,397.62,269,387.56s5.63-.41,5.63-.41.81,4.83,19.72,3.63,14.48-10.87,14.48-10.87-6-19.31-11.67-30.57-6.83-26.16-6.83-26.16-4.43-57.53-21.73-85.69-15.29-34.25-41.84-59.57c0,.25-18.76-2.72-40.24-1.58C167.56,177.34,138.68,185.19,138.68,185.19Z"/><path class="cls-3" d="M184.16,403.24c-6.69,0-13-.27-18.18-.5-4.09-.17-7.62-.33-10-.28-8.4.14-17.92-5.16-23.06-8-1.13-.63-2.29-1.27-2.81-1.48-2.28,2.3-16.81,5.9-28.41,6.87-12.52,1-16.94-6.24-18-8.57-3.38,2-19.81,11-28-.54-9.05-12.75,2.77-24.4,2.89-24.52s12.69-9.42,13.8-17.56A6.88,6.88,0,0,0,71,343.27c-7.64-9.77,1-56.35,12.8-82.69,12-26.73,54-75.3,54.41-75.79l.12-.14.18-.05c.29-.08,29.17-7.87,48-8.87a238.8,238.8,0,0,1,37.94,1.38l1.74.19,0-.76,1,.94c18.93,18.05,23.33,26.23,30.62,39.79,3,5.51,6.32,11.75,11.32,19.9,17.18,28,21.77,85.39,21.82,86,0,.14,1.26,14.9,6.77,25.93,5.59,11.18,11.65,30.47,11.71,30.66a6.73,6.73,0,0,1-.45,5.91c-2,3.32-6.88,5.25-14.57,5.74-18.91,1.21-20.26-3.58-20.35-4.13-.58-1.51-1.86-3.73-2.64-3.67-.17,0-1,.28-1.81,4.1-2.1,10.53-29.71,5.13-30.88,4.89l-1-.19.61-.77a1.82,1.82,0,0,0,.41-.83c-.2-.1-2-.56-14.14,5.76C214.13,402,198.29,403.24,184.16,403.24Zm-27.29-2c2.36,0,5.54.14,9.16.3,16,.69,42.85,1.85,58.06-6.07,14.08-7.33,15.14-6,15.66-5.41a1.41,1.41,0,0,1,.07,1.49c4.65.82,26.94,4.3,28.62-4.11.67-3.35,1.59-4.95,2.89-5.06,2.05-.13,3.6,3.77,3.9,4.56,0,.13,1.33,4.38,19.11,3.23,7.15-.45,11.86-2.23,13.6-5.13a5.5,5.5,0,0,0,.37-4.88c-.08-.26-6.11-19.46-11.66-30.55-5.61-11.24-6.88-26.23-6.9-26.38,0-.57-4.61-57.71-21.63-85.42-5-8.19-8.4-14.45-11.37-20-7.21-13.41-11.57-21.52-30.2-39.31-.37,0-1-.09-2.22-.22a236.79,236.79,0,0,0-37.74-1.37c-17.94.94-45.12,8.12-47.58,8.78-2.51,2.91-42.52,49.49-54.1,75.35C72.39,289,65.25,334,72,342.53a8.05,8.05,0,0,1,1.64,6.27c-1.19,8.66-13.69,17.93-14.23,18.32s-11.12,11-2.68,22.9,26.76,0,26.94-.15l.66-.44.25.76c.12.39,3.27,9.57,17.07,8.43s26.4-5.22,27.61-6.38V392l.34-.25c.51-.3,1.07,0,4,1.6,5,2.76,14.15,7.87,22.11,7.87h1.24Z"/><path class="cls-2" d="M222.66,149.63s3-13.58,13.28-20.82,8.6-2.26,14-10.56,13-22.78,15.24-22.48,6.79-24.59-3.32-26.86-30-3.62-37.11,0l-7.1,3.62a10.51,10.51,0,0,1-2.86-5.85c-.3-3.35-.61-12-22.18-13.61s-24,7.09-24,7.09,2.68,19.48,2.11,21.43c-.68,2.33-1.66,4.07-12.07,1.51s-5.58-8.6-19.61-7.85-16.14,4.07-19.92,4.07S102.87,76,87.48,82.64s3.47,24.6,7.7,26.56a70.88,70.88,0,0,1,27.15,20.36c11,13.43,17.79,32.17,17.79,32.17S181.1,148.57,222.66,149.63Z"/><path class="cls-3" d="M139.75,162.49l-.2-.55c-.06-.19-6.86-18.8-17.68-32a69.65,69.65,0,0,0-26.2-19.86l-.75-.35c-3-1.4-14.1-11.3-14-19.55,0-3.59,2.18-6.32,6.31-8.1,12.7-5.48,23.34-4.27,29.05-3.62,1.24.14,2.21.25,2.87.25a10.89,10.89,0,0,0,3.84-1c2.77-1,7-2.61,16.05-3.1,8.38-.45,10.27,1.47,12.47,3.69a13.21,13.21,0,0,0,7.32,4.17c10.29,2.53,10.8.77,11.34-1.09.39-1.33-1.1-13.7-2.13-21.17v-.13l0-.12c.1-.37,2.8-9.21,24.62-7.53,21.64,1.67,22.39,10.27,22.71,13.94l0,.21a9.78,9.78,0,0,0,2.4,5.17l6.68-3.41c7.66-3.92,28.18-2.15,37.52-.06,7.56,1.7,7.4,14.35,6.12,21.56-.55,3.07-1.5,6.69-3,6.49-1.29,0-6.07,8.06-9.23,13.36-1.84,3.09-3.74,6.28-5.42,8.85-3.29,5-4.12,5.36-6.34,6.27a34.8,34.8,0,0,0-7.85,4.45c-9.94,7-13,20.33-13,20.46l-.11.49-.49,0c-41-1-81.93,12-82.34,12.08Zm-32.1-83.4A49.64,49.64,0,0,0,87.72,83.2c-3.66,1.58-5.54,3.93-5.58,7-.1,7.61,10.5,17.15,13.29,18.44l.75.34a70.89,70.89,0,0,1,26.62,20.19c9.91,12.08,16.47,28.62,17.69,31.81,5-1.54,43.26-12.83,81.7-12,.65-2.54,4-14.1,13.4-20.7a36.63,36.63,0,0,1,8.09-4.59c2-.83,2.71-1.11,5.79-5.81,1.66-2.55,3.56-5.73,5.39-8.81,5.74-9.62,8.51-14,10.29-14h0c1-.8,3.27-9.94,2.06-17.52-.52-3.27-1.89-7.33-5.49-8.14-10.44-2.33-29.92-3.51-36.71,0l-7.48,3.82-.31-.3a11.07,11.07,0,0,1-3-6.24l0-.21c-.3-3.37-1-11.26-21.61-12.85-19.42-1.49-22.94,5.61-23.32,6.56.35,2.58,2.65,19.55,2.07,21.53-.81,2.77-2.2,4.53-12.79,1.92a14.4,14.4,0,0,1-7.89-4.49c-2.07-2.1-3.7-3.76-11.55-3.34-8.9.48-13,2-15.68,3a12,12,0,0,1-4.27,1.05c-.73,0-1.73-.12-3-.26A70.91,70.91,0,0,0,107.65,79.09Z"/><path class="cls-3" d="M170.84,81.16a12.51,12.51,0,0,0,4.73-1,14.11,14.11,0,0,0,4-2.53c2.37-2.12,4-5,3.65-8.21A5.93,5.93,0,0,0,182,65.22a11,11,0,0,0-4.12-2.08l-4.68-1.51c-1.55-.55-3.11-1.05-4.65-1.64,1.61.32,3.21.71,4.82,1.07l4.79,1.19a11,11,0,0,1,4.65,2.16,5.2,5.2,0,0,1,1.34,2.38,10.43,10.43,0,0,1,.34,2.57,14.19,14.19,0,0,1-.14,2.58,9.63,9.63,0,0,1-.85,2.47,12,12,0,0,1-3.28,3.91A12.71,12.71,0,0,1,170.84,81.16Z"/><path class="cls-3" d="M151.13,78.63c2.47,3.88,4.74,7.87,6.89,11.94s4.1,8.24,5.86,12.51a78.13,78.13,0,0,1,4.5,13.12,44.62,44.62,0,0,1,1,13.86h-.25c-.82-4.55-1.86-8.92-3.09-13.28l-1.89-6.52c-.58-2.19-1.34-4.34-2.07-6.5-1.51-4.29-3.27-8.51-5.14-12.68s-3.83-8.31-6-12.33Z"/><path class="cls-3" d="M135.56,101.4a82.12,82.12,0,0,0,9.6,11.62c1.77,1.79,3.58,3.45,5.48,5.16a33.15,33.15,0,0,1,5,6,51.31,51.31,0,0,1,3.67,6.85,61.74,61.74,0,0,1,2.55,7.29,47.57,47.57,0,0,1,1.93,15.16,78.24,78.24,0,0,0-3.72-14.59,63.74,63.74,0,0,0-6.44-13.38,32.5,32.5,0,0,0-4.59-5.69c-1.77-1.78-3.66-3.58-5.29-5.55A49.37,49.37,0,0,1,135.56,101.4Z"/><path class="cls-3" d="M183.47,73.14a47.41,47.41,0,0,1,7.65,12.07,36.05,36.05,0,0,1,2.76,10.5l.29,3.56c.33,4.75.74,9.5.61,14.25a113.65,113.65,0,0,1-1.11,14.24h-.25c-.6-4.74-.85-9.48-1.06-14.21s0-9.46-.12-14.18l-.1-3.53c-.1-1.15-.16-2.3-.37-3.44A35.42,35.42,0,0,0,190,85.65a46.62,46.62,0,0,0-6.72-12.35Z"/><path class="cls-3" d="M188,151.37a27,27,0,0,0,.68-3.43,34.34,34.34,0,0,0,.31-3.52,32.5,32.5,0,0,0-.48-7.09,32.5,32.5,0,0,1,1.08,7.09,33.45,33.45,0,0,1,0,3.61,28.61,28.61,0,0,1-.41,3.63Z"/><path class="cls-3" d="M206.4,106.41a19.62,19.62,0,0,1,1.48-9,32.77,32.77,0,0,1,2-4.08,13.37,13.37,0,0,0,1.26-3.93c.11-.66.15-1.39.21-2.14l.2-2.23c.07-.74.13-1.48.22-2.22a20.91,20.91,0,0,1,.4-2.3c.75-3,2.2-6.12,5.18-7.69l1.24-.66-.64,1.28a7.43,7.43,0,0,0-.06,6.19,11.09,11.09,0,0,0,4.29,4.74,25.8,25.8,0,0,0,5.91,2.79A63.4,63.4,0,0,0,234.41,89a95.68,95.68,0,0,0,13,2.28,59.86,59.86,0,0,0,6.55.33,31.86,31.86,0,0,0,3.25-.17,18.8,18.8,0,0,0,3.09-.51l.15,0a11.33,11.33,0,0,0,3.18-1.2,8.7,8.7,0,0,0,2.61-2.22,8.5,8.5,0,0,0,1.5-3.15A12.17,12.17,0,0,0,268,80.7l.24,0a11.25,11.25,0,0,1,.28,3.8,8.58,8.58,0,0,1-1.26,3.73,10.09,10.09,0,0,1-2.77,2.87,11.39,11.39,0,0,1-3.65,1.73l.14,0A25.5,25.5,0,0,1,254.09,94a52.77,52.77,0,0,1-6.89-.12,74.57,74.57,0,0,1-13.37-2.71,34.85,34.85,0,0,1-12.38-5.8,14,14,0,0,1-4.29-5.4,9.25,9.25,0,0,1-.06-6.9l.6.63a7.3,7.3,0,0,0-2.56,3.16,13.51,13.51,0,0,0-1.1,4.06c-.11.7-.15,1.4-.21,2.12s-.11,1.49-.17,2.24l-.2,2.23c-.08.73-.14,1.49-.29,2.3a13.85,13.85,0,0,1-1.66,4.48c-.82,1.33-1.57,2.48-2.22,3.81a23.93,23.93,0,0,0-2.65,8.32Z"/><path class="cls-3" d="M214.32,149.32c-.23-3.2-.28-6.33-.24-9.48s.19-6.3.54-9.44a64.92,64.92,0,0,1,1.61-9.29,34.16,34.16,0,0,1,3.42-8.75,34.46,34.46,0,0,0-2.84,8.88,63.93,63.93,0,0,0-1,9.25c-.15,3.11-.09,6.21.06,9.31s.41,6.21.83,9.24Z"/><path class="cls-4" d="M140.12,161.73s-9.19,3.94-7.28,7.46,3.51,3.62,3.51,3.62-4,2.48-3.77,6.44c.21,4.31,2.41,6.93,6.1,5.94,2.66-.72,33-7.12,45-8.52s31.82.19,31.82.19l9.13.8c2.62.71,3.79.07,5.59-.52a6.3,6.3,0,0,0,4.4-4.63c1.16-4.33-2.71-10.66-7.34-10.26-3,.26-1.57-2.41-.2-4.34a5,5,0,0,0,.31-5.42,5.1,5.1,0,0,0-4.74-2.86C213.91,149.92,188.94,147.43,140.12,161.73Z"/><path class="cls-4" d="M181.59,372.19a24.87,24.87,0,0,1-9.09-1.54,24.24,24.24,0,0,1-7.56-4.9,4.48,4.48,0,0,1-.81-1.09,2.67,2.67,0,0,1-.31-1.29,2.91,2.91,0,0,1,.8-2,2.61,2.61,0,0,1,2-.87,2.44,2.44,0,0,1,1.75.77,20,20,0,0,0,5.91,4.06,17.67,17.67,0,0,0,7.17,1.4,15.14,15.14,0,0,0,5.57-1A9.64,9.64,0,0,0,191,363a6.13,6.13,0,0,0,1.47-4.06,7.11,7.11,0,0,0-1.64-4.62,12.09,12.09,0,0,0-4.34-3,35.51,35.51,0,0,0-6.41-2.07,38.66,38.66,0,0,1-5.91-1.89,17.34,17.34,0,0,1-4.65-2.76,11.5,11.5,0,0,1-3.05-4,13,13,0,0,1-1.08-5.49,11.93,11.93,0,0,1,2.1-7,13.5,13.5,0,0,1,5.81-4.65,20.77,20.77,0,0,1,8.53-1.65,23.4,23.4,0,0,1,8.09,1.4,15.78,15.78,0,0,1,6.12,3.85,3.73,3.73,0,0,1,1.4,2.59,2.64,2.64,0,0,1-.88,1.92,2.72,2.72,0,0,1-2,.88,2.08,2.08,0,0,1-1.4-.56,12,12,0,0,0-3-2.38,17.85,17.85,0,0,0-4-1.68,15.45,15.45,0,0,0-4.34-.63,15.65,15.65,0,0,0-5.66.95,8.68,8.68,0,0,0-3.82,2.65,6.39,6.39,0,0,0-1.36,4.1,6.27,6.27,0,0,0,1.54,4.37,11.11,11.11,0,0,0,4.13,2.8,44.63,44.63,0,0,0,5.73,1.93,57.44,57.44,0,0,1,6.34,1.92,19.29,19.29,0,0,1,5,2.69,10.84,10.84,0,0,1,3.25,4.1,14.46,14.46,0,0,1,1.16,6.12,11.48,11.48,0,0,1-2.17,6.86A14.67,14.67,0,0,1,190,370.4,20.93,20.93,0,0,1,181.59,372.19Zm3.15,6.43a2.74,2.74,0,0,1-.8,2,2.84,2.84,0,0,1-2.07.8,2.63,2.63,0,0,1-2-.8,2.79,2.79,0,0,1-.77-2v-61a2.82,2.82,0,0,1,.81-2,2.65,2.65,0,0,1,2-.84,2.62,2.62,0,0,1,2,.84,2.87,2.87,0,0,1,.77,2Z"/><path class="cls-5" d="M89.87,295.33a1.66,1.66,0,0,1-1.22-.47,1.56,1.56,0,0,1-.48-1.15V271.25l.48.56-4.58,2.76a1.63,1.63,0,0,1-.79.2,1.48,1.48,0,0,1-1.15-.54,1.63,1.63,0,0,1-.47-1.08,1.56,1.56,0,0,1,.83-1.38l6.43-3.83a2.19,2.19,0,0,1,1.19-.24,1.32,1.32,0,0,1,1.06.46,1.65,1.65,0,0,1,.4,1.12v24.43a1.56,1.56,0,0,1-.48,1.15A1.66,1.66,0,0,1,89.87,295.33Z"/><path class="cls-5" d="M106.92,295.73a8.17,8.17,0,0,1-5.47-1.86,11.39,11.39,0,0,1-3.31-5.09,24,24,0,0,1,0-14.56,11.39,11.39,0,0,1,3.31-5.06,9,9,0,0,1,10.94,0,11.28,11.28,0,0,1,3.29,5.06,24.43,24.43,0,0,1,0,14.56,11.27,11.27,0,0,1-3.29,5.09A8.17,8.17,0,0,1,106.92,295.73Zm0-3.2a5,5,0,0,0,3.53-1.34,8.49,8.49,0,0,0,2.19-3.81,23.42,23.42,0,0,0,0-11.76,8.25,8.25,0,0,0-2.19-3.79,5.35,5.35,0,0,0-7.06,0,8.36,8.36,0,0,0-2.21,3.79,22.84,22.84,0,0,0,0,11.76,8.6,8.6,0,0,0,2.21,3.81A5,5,0,0,0,106.92,292.53Z"/><path class="cls-5" d="M141.49,295.73a8.14,8.14,0,0,1-5.46-1.86,11.4,11.4,0,0,1-3.32-5.09,24.22,24.22,0,0,1,0-14.56,11.41,11.41,0,0,1,3.32-5.06,9,9,0,0,1,10.93,0,11.3,11.3,0,0,1,3.3,5.06,24.64,24.64,0,0,1,0,14.56,11.29,11.29,0,0,1-3.3,5.09A8.15,8.15,0,0,1,141.49,295.73Zm0-3.2a5,5,0,0,0,3.54-1.34,8.49,8.49,0,0,0,2.19-3.81,23.42,23.42,0,0,0,0-11.76,8.25,8.25,0,0,0-2.19-3.79,5.36,5.36,0,0,0-7.07,0,8.36,8.36,0,0,0-2.21,3.79,22.84,22.84,0,0,0,0,11.76,8.6,8.6,0,0,0,2.21,3.81A5,5,0,0,0,141.49,292.53Z"/><path class="cls-5" d="M165.22,295.73a8.15,8.15,0,0,1-5.47-1.86,11.4,11.4,0,0,1-3.32-5.09,24.22,24.22,0,0,1,0-14.56,11.41,11.41,0,0,1,3.32-5.06,9,9,0,0,1,10.93,0,11.3,11.3,0,0,1,3.3,5.06,24.64,24.64,0,0,1,0,14.56,11.29,11.29,0,0,1-3.3,5.09A8.14,8.14,0,0,1,165.22,295.73Zm0-3.2a5,5,0,0,0,3.53-1.34,8.49,8.49,0,0,0,2.19-3.81,23.42,23.42,0,0,0,0-11.76,8.25,8.25,0,0,0-2.19-3.79,5.36,5.36,0,0,0-7.07,0,8.45,8.45,0,0,0-2.21,3.79,22.84,22.84,0,0,0,0,11.76,8.7,8.7,0,0,0,2.21,3.81A5,5,0,0,0,165.22,292.53Z"/><path class="cls-5" d="M188.94,295.73a8.15,8.15,0,0,1-5.47-1.86,11.4,11.4,0,0,1-3.32-5.09,24.22,24.22,0,0,1,0-14.56,11.41,11.41,0,0,1,3.32-5.06,9,9,0,0,1,10.93,0,11.3,11.3,0,0,1,3.3,5.06,24.64,24.64,0,0,1,0,14.56,11.29,11.29,0,0,1-3.3,5.09A8.14,8.14,0,0,1,188.94,295.73Zm0-3.2a5,5,0,0,0,3.53-1.34,8.49,8.49,0,0,0,2.19-3.81,23.42,23.42,0,0,0,0-11.76,8.25,8.25,0,0,0-2.19-3.79,5.36,5.36,0,0,0-7.07,0,8.45,8.45,0,0,0-2.21,3.79,22.84,22.84,0,0,0,0,11.76,8.7,8.7,0,0,0,2.21,3.81A5,5,0,0,0,188.94,292.53Z"/><path class="cls-5" d="M223.51,295.73a8.17,8.17,0,0,1-5.47-1.86,11.39,11.39,0,0,1-3.31-5.09,24,24,0,0,1,0-14.56,11.39,11.39,0,0,1,3.31-5.06,9,9,0,0,1,10.94,0,11.2,11.2,0,0,1,3.29,5.06,24.43,24.43,0,0,1,0,14.56,11.19,11.19,0,0,1-3.29,5.09A8.17,8.17,0,0,1,223.51,295.73Zm0-3.2a5,5,0,0,0,3.53-1.34,8.49,8.49,0,0,0,2.19-3.81,23.42,23.42,0,0,0,0-11.76,8.25,8.25,0,0,0-2.19-3.79,5.35,5.35,0,0,0-7.06,0,8.36,8.36,0,0,0-2.21,3.79,22.84,22.84,0,0,0,0,11.76,8.6,8.6,0,0,0,2.21,3.81A5,5,0,0,0,223.51,292.53Z"/><path class="cls-5" d="M247.23,295.73a8.19,8.19,0,0,1-5.47-1.86,11.39,11.39,0,0,1-3.31-5.09,24,24,0,0,1,0-14.56,11.39,11.39,0,0,1,3.31-5.06,9,9,0,0,1,10.94,0,11.2,11.2,0,0,1,3.29,5.06,24.43,24.43,0,0,1,0,14.56,11.19,11.19,0,0,1-3.29,5.09A8.15,8.15,0,0,1,247.23,295.73Zm0-3.2a5,5,0,0,0,3.53-1.34,8.49,8.49,0,0,0,2.19-3.81,23.42,23.42,0,0,0,0-11.76,8.25,8.25,0,0,0-2.19-3.79,5.35,5.35,0,0,0-7.06,0,8.36,8.36,0,0,0-2.21,3.79,22.84,22.84,0,0,0,0,11.76,8.6,8.6,0,0,0,2.21,3.81A5,5,0,0,0,247.23,292.53Z"/><path class="cls-5" d="M271,295.73a8.14,8.14,0,0,1-5.46-1.86,11.4,11.4,0,0,1-3.32-5.09,24.22,24.22,0,0,1,0-14.56,11.41,11.41,0,0,1,3.32-5.06,9,9,0,0,1,10.93,0,11.2,11.2,0,0,1,3.29,5.06,24.43,24.43,0,0,1,0,14.56,11.19,11.19,0,0,1-3.29,5.09A8.15,8.15,0,0,1,271,295.73Zm0-3.2a5,5,0,0,0,3.53-1.34,8.49,8.49,0,0,0,2.19-3.81,23.42,23.42,0,0,0,0-11.76,8.25,8.25,0,0,0-2.19-3.79,5.35,5.35,0,0,0-7.06,0,8.36,8.36,0,0,0-2.21,3.79,22.84,22.84,0,0,0,0,11.76,8.6,8.6,0,0,0,2.21,3.81A5,5,0,0,0,271,292.53Z"/></g></g></svg>