<svg xmlns="http://www.w3.org/2000/svg" viewBox="0 0 329.08 426.26"><defs><style>.cls-1{fill:none;}.cls-2{fill:#d3f7a4;}.cls-3{fill:#58d313;}.cls-4{fill:#25a5dd;}.cls-5{fill:#363026;}</style></defs><g id="Layer_2" data-name="Layer 2"><g id="Layer_1-2" data-name="Layer 1"><rect class="cls-1" width="329.08" height="426.26"/><path class="cls-2" d="M94,144.12s-34.91,40.23-44.88,62.5-16.62,60.17-10.64,67.82-10.31,19.62-10.31,19.62-9.64,9.3-2.32,19.61,22.94,0,22.94,0S51.42,322,63.38,321s23.28-4.65,23.28-5.65,12,8,21.61,7.83,40.55,3.48,56.51-4.84,12-3.32,12-3.32,23.27,4.65,24.93-3.66,4.66-.33,4.66-.33.66,4,16.29,3,12-9,12-9-5-16-9.64-25.27-5.66-21.61-5.66-21.61-3.65-47.54-18-70.81-12.63-28.3-34.57-49.22c0,.2-15.5-2.25-33.25-1.31C117.84,137.63,94,144.12,94,144.12Z"/><path class="cls-3" d="M131.55,324.3c-5.52,0-10.73-.22-15-.41-3.38-.14-6.3-.27-8.25-.23-6.94.11-14.81-4.27-19.06-6.63-.93-.52-1.89-1-2.32-1.22-1.88,1.9-13.9,4.87-23.47,5.67-10.35.87-14-5.15-14.91-7.08-2.79,1.67-16.36,9.06-23.11-.44-7.48-10.54,2.29-20.17,2.39-20.26s10.48-7.79,11.41-14.52a5.69,5.69,0,0,0-1.15-4.43c-6.32-8.07.83-46.56,10.57-68.33,9.89-22.09,44.61-62.22,45-62.63l.1-.11.15,0c.24-.07,24.1-6.51,39.67-7.33a197.11,197.11,0,0,1,31.35,1.14l1.43.15V137l.82.77c15.64,14.92,19.27,21.68,25.3,32.88,2.44,4.55,5.22,9.71,9.36,16.45,14.19,23.1,18,70.56,18,71,0,.12,1,12.32,5.6,21.43s9.62,25.18,9.67,25.34a5.54,5.54,0,0,1-.37,4.88c-1.63,2.74-5.69,4.34-12,4.74-15.62,1-16.74-2.95-16.81-3.41-.48-1.25-1.54-3.08-2.19-3-.14,0-.86.23-1.49,3.38-1.74,8.7-24.55,4.24-25.52,4.05l-.8-.16.51-.64a1.51,1.51,0,0,0,.34-.68c-.17-.08-1.65-.47-11.69,4.76C156.32,323.3,143.23,324.3,131.55,324.3ZM109,322.65c1.94,0,4.57.12,7.56.25,13.25.57,35.41,1.53,48-5,11.63-6.05,12.51-5,12.94-4.47a1.19,1.19,0,0,1,.06,1.23c3.84.68,22.25,3.56,23.65-3.39.55-2.77,1.31-4.1,2.38-4.18,1.7-.11,3,3.11,3.23,3.77,0,.1,1.1,3.61,15.79,2.67,5.91-.38,9.79-1.85,11.24-4.25a4.56,4.56,0,0,0,.3-4c-.07-.21-5-16.08-9.63-25.25s-5.69-21.66-5.7-21.79c0-.48-3.81-47.69-17.88-70.59-4.16-6.76-6.94-11.93-9.39-16.5-6-11.08-9.56-17.78-25-32.48-.3,0-.84-.07-1.83-.18a196.43,196.43,0,0,0-31.19-1.14c-14.82.78-37.28,6.72-39.31,7.26-2.08,2.41-35.14,40.9-44.71,62.26-10.34,23.11-16.24,60.23-10.7,67.31a6.63,6.63,0,0,1,1.35,5.19c-1,7.15-11.31,14.81-11.75,15.14s-9.19,9.09-2.21,18.92,22.1,0,22.25-.13l.55-.36.2.63c.11.32,2.71,7.91,14.11,7s21.82-4.32,22.82-5.27v-.17l.28-.21c.42-.25.88,0,3.27,1.32,4.1,2.28,11.69,6.5,18.27,6.5h1Z"/><path class="cls-2" d="M163.37,114.74s2.49-11.22,11-17.2,7.11-1.87,11.59-8.73S196.66,70,198.53,70.23s5.61-20.32-2.75-22.19-24.81-3-30.67,0l-5.85,3a8.71,8.71,0,0,1-2.37-4.84c-.25-2.76-.5-9.87-18.33-11.24s-19.82,5.86-19.82,5.86,2.22,16.09,1.74,17.7c-.56,1.93-1.37,3.37-10,1.25s-4.61-7.11-16.21-6.48S81,56.64,77.85,56.64,64.38,53.9,51.67,59.39,54.53,79.71,58,81.33A58.49,58.49,0,0,1,80.46,98.16c9.11,11.09,14.7,26.58,14.7,26.58S129,113.87,163.37,114.74Z"/><path class="cls-3" d="M94.86,125.36l-.17-.45c0-.15-5.67-15.54-14.61-26.44a57.58,57.58,0,0,0-21.64-16.4l-.63-.29c-2.5-1.16-11.65-9.34-11.55-16.16,0-3,1.79-5.22,5.21-6.69,10.49-4.53,19.28-3.53,24-3,1,.11,1.83.21,2.38.21A9,9,0,0,0,81,55.34c2.29-.86,5.75-2.16,13.26-2.56,6.92-.37,8.49,1.21,10.3,3a11,11,0,0,0,6,3.45c8.5,2.09,8.92.63,9.37-.91.33-1.1-.9-11.31-1.76-17.49v-.1l0-.1c.08-.31,2.31-7.62,20.34-6.23,17.88,1.38,18.5,8.49,18.77,11.53v.17a8.07,8.07,0,0,0,2,4.27l5.52-2.82c6.33-3.24,23.29-1.77,31-.05C202.14,49,202,59.41,201,65.37c-.46,2.53-1.24,5.52-2.49,5.36-1.07,0-5,6.66-7.63,11-1.52,2.55-3.09,5.19-4.48,7.31-2.71,4.15-3.4,4.43-5.24,5.18a29.29,29.29,0,0,0-6.48,3.68c-8.22,5.8-10.75,16.8-10.77,16.91l-.09.4h-.41c-33.87-.85-67.71,9.87-68,10ZM68.33,56.45a41,41,0,0,0-16.47,3.39c-3,1.31-4.57,3.26-4.61,5.8-.08,6.29,8.68,14.17,11,15.24l.62.28a58.46,58.46,0,0,1,22,16.68c8.19,10,13.61,23.65,14.62,26.28,4.13-1.27,35.75-10.6,67.51-9.89.54-2.1,3.34-11.64,11.07-17.1a30.35,30.35,0,0,1,6.68-3.79c1.68-.69,2.24-.92,4.79-4.8,1.38-2.11,2.94-4.74,4.46-7.28,4.73-8,7-11.53,8.5-11.53h0c.84-.66,2.7-8.21,1.7-14.48-.42-2.7-1.56-6.06-4.54-6.72-8.62-1.93-24.72-2.91-30.33,0l-6.18,3.15-.25-.25a9.1,9.1,0,0,1-2.52-5.15l0-.18c-.24-2.78-.81-9.3-17.85-10.61-16.05-1.23-19,4.63-19.27,5.41C119.54,43,121.44,57,121,58.65c-.67,2.29-1.82,3.75-10.57,1.59a11.84,11.84,0,0,1-6.52-3.71c-1.71-1.73-3.06-3.1-9.54-2.75-7.36.39-10.73,1.66-13,2.5a9.85,9.85,0,0,1-3.52.86,24.76,24.76,0,0,1-2.49-.21A58.08,58.08,0,0,0,68.33,56.45Z"/><path class="cls-3" d="M120.55,58.16a10.15,10.15,0,0,0,3.9-.84,11.76,11.76,0,0,0,3.34-2.09,8.06,8.06,0,0,0,3-6.79A4.89,4.89,0,0,0,129.75,45a8.92,8.92,0,0,0-3.41-1.72L122.48,42c-1.28-.45-2.57-.87-3.84-1.35,1.33.26,2.65.59,4,.88l4,1a8.9,8.9,0,0,1,3.84,1.78,4.28,4.28,0,0,1,1.11,2,8.7,8.7,0,0,1,.28,2.12,11.92,11.92,0,0,1-.12,2.13,7.25,7.25,0,0,1-.7,2,9.76,9.76,0,0,1-2.71,3.23A10.49,10.49,0,0,1,120.55,58.16Z"/><path class="cls-3" d="M104.26,56.07c2,3.2,3.91,6.51,5.7,9.87s3.38,6.81,4.84,10.33a64.28,64.28,0,0,1,3.71,10.85,36.78,36.78,0,0,1,.83,11.45h-.2c-.69-3.76-1.55-7.37-2.56-11L115,82.22c-.48-1.82-1.11-3.59-1.71-5.37-1.25-3.55-2.71-7-4.25-10.48s-3.17-6.87-5-10.19Z"/><path class="cls-3" d="M91.39,74.89a68.07,68.07,0,0,0,7.94,9.6c1.46,1.48,3,2.85,4.52,4.27a26.65,26.65,0,0,1,4.16,5,41.62,41.62,0,0,1,3,5.66,50,50,0,0,1,2.11,6,39.45,39.45,0,0,1,1.6,12.53,64.65,64.65,0,0,0-3.08-12.06,52.21,52.21,0,0,0-5.32-11.06,27.86,27.86,0,0,0-3.79-4.7c-1.46-1.46-3-3-4.38-4.58A41.44,41.44,0,0,1,91.39,74.89Z"/><path class="cls-3" d="M131,51.53a39.1,39.1,0,0,1,6.32,10,29.52,29.52,0,0,1,2.29,8.68l.24,2.95c.27,3.92.6,7.84.5,11.77a92.85,92.85,0,0,1-.92,11.76h-.2c-.5-3.92-.71-7.83-.88-11.74s0-7.82-.1-11.72l-.09-2.92a24.64,24.64,0,0,0-.3-2.84,28.57,28.57,0,0,0-1.46-5.57,38.67,38.67,0,0,0-5.55-10.21Z"/><path class="cls-3" d="M134.71,116.18a22,22,0,0,0,.56-2.84,28.08,28.08,0,0,0,.26-2.91,26.75,26.75,0,0,0-.4-5.85,26.79,26.79,0,0,1,.9,5.85,27.13,27.13,0,0,1,0,3,23.57,23.57,0,0,1-.33,3Z"/><path class="cls-3" d="M149.93,79a16.28,16.28,0,0,1,1.22-7.4,27.67,27.67,0,0,1,1.63-3.37,10.93,10.93,0,0,0,1-3.25c.09-.54.12-1.14.17-1.77l.17-1.83c.06-.62.11-1.23.19-1.84a15.7,15.7,0,0,1,.32-1.9c.62-2.48,1.82-5.06,4.29-6.36l1-.54-.53,1.06a6.12,6.12,0,0,0,0,5.11,9.18,9.18,0,0,0,3.54,3.92,21,21,0,0,0,4.89,2.3,52.84,52.84,0,0,0,5.25,1.5,77.8,77.8,0,0,0,10.77,1.88,49.18,49.18,0,0,0,5.42.27c.9,0,1.8,0,2.68-.13a16.26,16.26,0,0,0,2.56-.43l.12,0a9.33,9.33,0,0,0,2.62-1,7.08,7.08,0,0,0,2.16-1.84,6.88,6.88,0,0,0,1.24-2.6,10.33,10.33,0,0,0,.22-3l.19,0a9.42,9.42,0,0,1,.24,3.14A7.07,7.07,0,0,1,200.25,64,8.3,8.3,0,0,1,198,66.34a9.56,9.56,0,0,1-3,1.43l.12,0a21.29,21.29,0,0,1-5.73,1,43.14,43.14,0,0,1-5.69-.1,61.48,61.48,0,0,1-11.05-2.23,28.91,28.91,0,0,1-10.23-4.8,11.55,11.55,0,0,1-3.55-4.46,7.59,7.59,0,0,1,0-5.7l.49.52a6,6,0,0,0-2.12,2.61,11.32,11.32,0,0,0-.91,3.35c-.08.58-.12,1.16-.17,1.76s-.09,1.23-.14,1.85l-.17,1.84c-.06.6-.11,1.23-.23,1.9a11.42,11.42,0,0,1-1.38,3.7c-.68,1.1-1.29,2-1.83,3.15A19.75,19.75,0,0,0,150.13,79Z"/><path class="cls-3" d="M156.48,114.48c-.19-2.64-.24-5.22-.21-7.83s.17-5.21.45-7.8a54.1,54.1,0,0,1,1.33-7.68A28.11,28.11,0,0,1,160.88,84a27.86,27.86,0,0,0-2.34,7.33,51.71,51.71,0,0,0-.82,7.65c-.12,2.56-.07,5.13.05,7.69s.34,5.13.69,7.63Z"/><path class="cls-4" d="M95.16,124.74s-7.59,3.26-6,6.17,2.9,3,2.9,3-3.27,2-3.12,5.32c.18,3.56,2,5.72,5,4.9,2.2-.59,27.31-5.88,37.2-7s26.29.16,26.29.16l7.54.66c2.17.59,3.13.06,4.62-.43a5.2,5.2,0,0,0,3.64-3.82c1-3.58-2.24-8.81-6.07-8.48-2.46.21-1.3-2-.16-3.59a4.14,4.14,0,0,0,.25-4.48,4.19,4.19,0,0,0-3.91-2.36C156.14,115,135.5,112.93,95.16,124.74Z"/><path class="cls-4" d="M129.43,298.64a20.37,20.37,0,0,1-7.51-1.27,20.1,20.1,0,0,1-6.25-4.05,3.74,3.74,0,0,1-.66-.89,2.2,2.2,0,0,1-.26-1.07,2.37,2.37,0,0,1,.66-1.65,2.15,2.15,0,0,1,1.65-.72,2,2,0,0,1,1.44.63,16.58,16.58,0,0,0,4.89,3.36,14.59,14.59,0,0,0,5.93,1.15,12.42,12.42,0,0,0,4.59-.81,8,8,0,0,0,3.27-2.25,5.07,5.07,0,0,0,1.22-3.36A5.89,5.89,0,0,0,137,283.9a10.18,10.18,0,0,0-3.59-2.52,29.66,29.66,0,0,0-5.29-1.7,34.24,34.24,0,0,1-4.89-1.56,14.75,14.75,0,0,1-3.84-2.29,9.38,9.38,0,0,1-2.52-3.29A10.88,10.88,0,0,1,116,268a9.92,9.92,0,0,1,1.73-5.79,11.3,11.3,0,0,1,4.8-3.84,17.2,17.2,0,0,1,7.06-1.36,19.21,19.21,0,0,1,6.67,1.16,12.84,12.84,0,0,1,5.06,3.18,3,3,0,0,1,1.16,2.14,2.24,2.24,0,0,1-.72,1.59,2.27,2.27,0,0,1-1.65.72,1.71,1.71,0,0,1-1.16-.46,9.8,9.8,0,0,0-2.48-2,15,15,0,0,0-3.3-1.39,13.6,13.6,0,0,0-8.27.26,7.27,7.27,0,0,0-3.15,2.2,5.69,5.69,0,0,0,.15,7,9.32,9.32,0,0,0,3.41,2.31,35.52,35.52,0,0,0,4.74,1.59,45.62,45.62,0,0,1,5.23,1.59,16,16,0,0,1,4.14,2.23,9,9,0,0,1,2.69,3.38,12.06,12.06,0,0,1,1,5.06,9.49,9.49,0,0,1-1.79,5.67,12.23,12.23,0,0,1-4.89,3.9A17.29,17.29,0,0,1,129.43,298.64ZM132,304a2.24,2.24,0,0,1-.66,1.65,2.32,2.32,0,0,1-1.71.67,2.18,2.18,0,0,1-1.62-.67,2.3,2.3,0,0,1-.63-1.65V253.54a2.36,2.36,0,0,1,.66-1.68,2.22,2.22,0,0,1,1.65-.69,2.18,2.18,0,0,1,1.68.69,2.42,2.42,0,0,1,.63,1.68Z"/><path class="cls-2" d="M127.61,176.12s-34.91,40.23-44.88,62.5-16.62,60.17-10.64,67.82-10.31,19.61-10.31,19.61-9.64,9.31-2.32,19.62,22.94,0,22.94,0S85.06,354,97,353s23.28-4.65,23.28-5.65,12,8,21.61,7.83,40.55,3.47,56.51-4.84,12-3.32,12-3.32,23.27,4.65,24.93-3.66S240,343,240,343s.66,4,16.29,3,12-9,12-9-5-16-9.64-25.27-5.66-21.61-5.66-21.61-3.65-47.54-17.95-70.81-12.63-28.3-34.57-49.23c0,.21-15.5-2.24-33.25-1.31C151.48,169.63,127.61,176.12,127.61,176.12Z"/><path class="cls-3" d="M165.19,356.3c-5.52,0-10.74-.22-15-.41-3.38-.14-6.3-.28-8.26-.23-6.93.11-14.8-4.27-19-6.63-.93-.52-1.89-1-2.32-1.22-1.88,1.89-13.9,4.87-23.47,5.67-10.35.86-14-5.15-14.91-7.08-2.79,1.67-16.36,9.06-23.11-.44-7.48-10.54,2.29-20.17,2.39-20.26s10.48-7.79,11.41-14.52a5.69,5.69,0,0,0-1.15-4.43c-6.32-8.07.83-46.56,10.57-68.33,9.89-22.09,44.61-62.23,45-62.63l.1-.11.15,0c.24-.07,24.1-6.51,39.67-7.33a195.88,195.88,0,0,1,31.35,1.14l1.43.15V169l.82.78c15.64,14.91,19.27,21.68,25.3,32.88,2.44,4.55,5.22,9.71,9.36,16.45,14.19,23.1,18,70.55,18,71,0,.12,1.05,12.31,5.6,21.43s9.62,25.18,9.67,25.34a5.54,5.54,0,0,1-.37,4.88c-1.63,2.74-5.69,4.33-12,4.74-15.62,1-16.74-2.95-16.81-3.41-.48-1.25-1.54-3.09-2.19-3-.14,0-.86.23-1.49,3.38-1.74,8.7-24.55,4.24-25.52,4.05l-.8-.16.51-.64a1.41,1.41,0,0,0,.33-.68c-.16-.09-1.64-.47-11.68,4.76C190,355.29,176.87,356.3,165.19,356.3Zm-22.54-1.65c1.94,0,4.57.12,7.56.25,13.25.57,35.41,1.53,48-5,11.63-6.05,12.51-5,12.94-4.47a1.19,1.19,0,0,1,.06,1.23c3.84.68,22.25,3.56,23.65-3.4.55-2.76,1.31-4.09,2.38-4.17,1.7-.11,3,3.11,3.23,3.76,0,.11,1.1,3.62,15.79,2.67,5.91-.37,9.79-1.84,11.24-4.24a4.56,4.56,0,0,0,.3-4c-.07-.22-5-16.08-9.63-25.25s-5.69-21.67-5.7-21.79c0-.48-3.82-47.69-17.88-70.59-4.16-6.76-6.94-11.94-9.39-16.5-6-11.08-9.56-17.78-25-32.48-.3,0-.84-.07-1.83-.18a196.43,196.43,0,0,0-31.19-1.14c-14.82.78-37.28,6.72-39.31,7.26-2.08,2.4-35.14,40.9-44.71,62.26-10.34,23.11-16.24,60.23-10.7,67.31a6.63,6.63,0,0,1,1.35,5.19c-1,7.15-11.31,14.81-11.75,15.14s-9.19,9.09-2.22,18.92,22.11,0,22.26-.13l.55-.36.2.63c.11.32,2.71,7.9,14.11,7s21.82-4.32,22.82-5.28v-.16l.28-.21c.42-.25.88,0,3.27,1.32,4.1,2.28,11.69,6.5,18.27,6.5h1Z"/><path class="cls-2" d="M197,146.74s2.49-11.22,11-17.21,7.11-1.87,11.59-8.72,10.73-18.83,12.6-18.58,5.61-20.32-2.75-22.19-24.81-3-30.67,0l-5.86,3a8.73,8.73,0,0,1-2.36-4.84c-.25-2.76-.5-9.87-18.33-11.24s-19.82,5.86-19.82,5.86,2.22,16.09,1.74,17.7c-.56,1.93-1.37,3.37-10,1.25s-4.61-7.11-16.21-6.48-13.34,3.36-16.45,3.36S98,85.9,85.31,91.39s2.86,20.32,6.35,21.94a58.49,58.49,0,0,1,22.44,16.83c9.1,11.09,14.7,26.58,14.7,26.58S162.66,145.87,197,146.74Z"/><path class="cls-3" d="M128.5,157.36l-.17-.45c-.05-.15-5.67-15.54-14.61-26.44a57.58,57.58,0,0,0-21.64-16.4l-.63-.29c-2.5-1.16-11.65-9.34-11.56-16.16,0-3,1.8-5.22,5.22-6.69,10.49-4.53,19.28-3.53,24-3,1,.11,1.83.2,2.38.2a8.94,8.94,0,0,0,3.17-.8c2.29-.86,5.75-2.16,13.26-2.56,6.92-.37,8.49,1.21,10.3,3a11,11,0,0,0,6.05,3.44c8.5,2.1,8.92.64,9.37-.9.33-1.1-.91-11.31-1.76-17.49v-.1l0-.1c.08-.31,2.31-7.62,20.34-6.23C190.12,67.83,190.74,74.94,191,78v.18a8.15,8.15,0,0,0,2,4.27l5.53-2.82c6.33-3.24,23.29-1.77,31,0,6.25,1.4,6.12,11.86,5.05,17.81-.45,2.54-1.23,5.53-2.48,5.37-1.07,0-5,6.66-7.63,11-1.52,2.55-3.09,5.19-4.48,7.31-2.71,4.14-3.4,4.43-5.24,5.18a28.85,28.85,0,0,0-6.48,3.68c-8.22,5.8-10.75,16.8-10.77,16.91l-.09.4H197c-33.87-.85-67.71,9.87-68,10ZM102,88.45A41,41,0,0,0,85.5,91.84c-3,1.31-4.57,3.26-4.61,5.79-.08,6.3,8.68,14.18,11,15.24l.62.29a58.42,58.42,0,0,1,22,16.68c8.19,10,13.61,23.65,14.61,26.28,4.14-1.27,35.76-10.6,67.52-9.89.54-2.1,3.34-11.65,11.07-17.1a29.48,29.48,0,0,1,6.68-3.79c1.68-.69,2.24-.92,4.79-4.81,1.38-2.1,2.94-4.73,4.46-7.27,4.73-8,7-11.53,8.5-11.53h0c.84-.66,2.7-8.21,1.7-14.48-.42-2.7-1.56-6.06-4.54-6.72-8.62-1.93-24.72-2.91-30.33,0l-6.18,3.16-.25-.25A9.1,9.1,0,0,1,190,78.24l0-.18c-.24-2.78-.81-9.3-17.85-10.61-16-1.23-19,4.63-19.27,5.41.29,2.14,2.19,16.16,1.71,17.79-.67,2.29-1.82,3.75-10.57,1.59a11.84,11.84,0,0,1-6.52-3.71c-1.71-1.73-3.06-3.11-9.54-2.76-7.36.4-10.73,1.67-13,2.5a9.72,9.72,0,0,1-3.52.87,24.76,24.76,0,0,1-2.49-.21A58.08,58.08,0,0,0,102,88.45Z"/><path class="cls-3" d="M154.19,90.16a10.15,10.15,0,0,0,3.9-.84,11.57,11.57,0,0,0,3.34-2.1,8,8,0,0,0,3-6.78A4.89,4.89,0,0,0,163.39,77,8.92,8.92,0,0,0,160,75.27L156.12,74c-1.28-.45-2.57-.87-3.84-1.35,1.33.26,2.65.59,4,.88l4,1a9,9,0,0,1,3.84,1.79,4.28,4.28,0,0,1,1.11,2,8.64,8.64,0,0,1,.28,2.12,11.92,11.92,0,0,1-.12,2.13,7.94,7.94,0,0,1-.7,2,9.86,9.86,0,0,1-2.71,3.23A10.49,10.49,0,0,1,154.19,90.16Z"/><path class="cls-3" d="M137.9,88.07c2,3.2,3.91,6.51,5.69,9.86s3.39,6.82,4.85,10.34a64.28,64.28,0,0,1,3.71,10.85,37.08,37.08,0,0,1,.83,11.45h-.2c-.69-3.76-1.55-7.38-2.56-11l-1.56-5.39c-.48-1.81-1.11-3.58-1.71-5.36-1.25-3.55-2.71-7-4.25-10.48s-3.17-6.87-5-10.19Z"/><path class="cls-3" d="M125,106.89a68.07,68.07,0,0,0,7.94,9.6c1.46,1.47,2.95,2.84,4.52,4.26a27,27,0,0,1,4.16,5,41,41,0,0,1,3,5.66,50,50,0,0,1,2.11,6,39.45,39.45,0,0,1,1.6,12.53,64.65,64.65,0,0,0-3.08-12.06A52.7,52.7,0,0,0,140,126.82a27.86,27.86,0,0,0-3.79-4.7c-1.46-1.47-3-3-4.38-4.58A41.44,41.44,0,0,1,125,106.89Z"/><path class="cls-3" d="M164.62,83.53a39.1,39.1,0,0,1,6.32,10,29.08,29.08,0,0,1,1.81,5.7,29.82,29.82,0,0,1,.48,3l.24,2.94c.27,3.93.6,7.85.5,11.78a92.85,92.85,0,0,1-.92,11.76h-.2c-.5-3.92-.71-7.83-.88-11.74s0-7.82-.1-11.72l-.09-2.92a24.64,24.64,0,0,0-.3-2.84A28.57,28.57,0,0,0,170,93.87a38.51,38.51,0,0,0-5.55-10.21Z"/><path class="cls-3" d="M168.35,148.17a23.22,23.22,0,0,0,.56-2.83,28.08,28.08,0,0,0,.26-2.91,26.75,26.75,0,0,0-.4-5.85,28,28,0,0,1,.88,8.83,23.92,23.92,0,0,1-.33,3Z"/><path class="cls-3" d="M183.57,111a16.15,16.15,0,0,1,1.22-7.4,27.67,27.67,0,0,1,1.63-3.37,10.93,10.93,0,0,0,1-3.25c.09-.55.12-1.14.17-1.77l.17-1.84c.06-.61.11-1.22.19-1.83a15.7,15.7,0,0,1,.32-1.9c.62-2.49,1.82-5.06,4.29-6.36l1-.54-.53,1.06a6.12,6.12,0,0,0-.05,5.11,9.09,9.09,0,0,0,3.54,3.91,20.67,20.67,0,0,0,4.89,2.31,52.84,52.84,0,0,0,5.25,1.5,79.32,79.32,0,0,0,10.77,1.88,49.18,49.18,0,0,0,5.42.27c.89,0,1.79,0,2.68-.13a16.26,16.26,0,0,0,2.56-.43l.12,0a9.33,9.33,0,0,0,2.62-1,7.2,7.2,0,0,0,2.16-1.84,7,7,0,0,0,1.24-2.6,10,10,0,0,0,.21-3l.2,0a9.16,9.16,0,0,1,.23,3.14,6.93,6.93,0,0,1-1,3.08,8.3,8.3,0,0,1-2.28,2.37,9.51,9.51,0,0,1-3,1.43l.13,0a21.29,21.29,0,0,1-5.73,1,43.14,43.14,0,0,1-5.69-.1,61.5,61.5,0,0,1-11-2.24A28.64,28.64,0,0,1,196,93.63a11.55,11.55,0,0,1-3.55-4.46,7.59,7.59,0,0,1,0-5.7l.49.52a6,6,0,0,0-2.12,2.61,11.32,11.32,0,0,0-.91,3.35c-.08.58-.12,1.16-.17,1.76s-.09,1.23-.14,1.84l-.17,1.85c-.06.6-.11,1.23-.24,1.9a11.17,11.17,0,0,1-1.37,3.7c-.68,1.1-1.29,2-1.83,3.15a19.68,19.68,0,0,0-2.19,6.87Z"/><path class="cls-3" d="M190.12,146.48c-.2-2.64-.24-5.23-.21-7.84s.17-5.2.45-7.79a53.85,53.85,0,0,1,1.33-7.68,28.32,28.32,0,0,1,2.83-7.23,28.05,28.05,0,0,0-2.34,7.34,51.71,51.71,0,0,0-.82,7.65c-.12,2.56-.08,5.13,0,7.69s.34,5.13.69,7.63Z"/><path class="cls-4" d="M128.8,156.74s-7.59,3.25-6,6.16,2.9,3,2.9,3-3.27,2-3.12,5.31c.17,3.57,2,5.73,5,4.91,2.2-.59,27.31-5.88,37.2-7s26.29.16,26.29.16l7.54.66c2.17.59,3.13.06,4.62-.43a5.22,5.22,0,0,0,3.64-3.82c.95-3.58-2.24-8.81-6.07-8.48-2.46.21-1.3-2-.16-3.59a4.39,4.39,0,0,0-3.66-6.84C189.78,147,169.14,144.92,128.8,156.74Z"/><path class="cls-4" d="M163.07,330.64a20.47,20.47,0,0,1-7.52-1.27,20.18,20.18,0,0,1-6.24-4.05,3.74,3.74,0,0,1-.66-.89,2.21,2.21,0,0,1-.27-1.07,2.38,2.38,0,0,1,.67-1.65,2.15,2.15,0,0,1,1.65-.73,2,2,0,0,1,1.44.64A16.55,16.55,0,0,0,157,325a14.43,14.43,0,0,0,5.93,1.16,12.42,12.42,0,0,0,4.59-.81,8,8,0,0,0,3.27-2.25,5.09,5.09,0,0,0,1.22-3.36,5.89,5.89,0,0,0-1.36-3.81,10.05,10.05,0,0,0-3.59-2.52,29.66,29.66,0,0,0-5.29-1.7,33,33,0,0,1-4.89-1.57,14.46,14.46,0,0,1-3.84-2.28,9.41,9.41,0,0,1-2.52-3.3,10.66,10.66,0,0,1-.89-4.54,9.91,9.91,0,0,1,1.73-5.78,11.3,11.3,0,0,1,4.8-3.84,17.2,17.2,0,0,1,7.06-1.36,19.2,19.2,0,0,1,6.67,1.15,13.06,13.06,0,0,1,5.06,3.18,3.1,3.1,0,0,1,1.16,2.14,2.21,2.21,0,0,1-.72,1.59,2.24,2.24,0,0,1-1.65.73,1.7,1.7,0,0,1-1.16-.47,10,10,0,0,0-2.48-2,15,15,0,0,0-3.3-1.39,12.66,12.66,0,0,0-3.58-.52,13,13,0,0,0-4.69.78,7.18,7.18,0,0,0-3.15,2.2,5.71,5.71,0,0,0,.14,7,9.45,9.45,0,0,0,3.42,2.31,35.52,35.52,0,0,0,4.74,1.59,45.62,45.62,0,0,1,5.23,1.59,16.24,16.24,0,0,1,4.14,2.22,9,9,0,0,1,2.68,3.39,11.9,11.9,0,0,1,1,5.06,9.44,9.44,0,0,1-1.79,5.66,12.17,12.17,0,0,1-4.89,3.91A17.29,17.29,0,0,1,163.07,330.64Zm2.6,5.32a2.24,2.24,0,0,1-.66,1.65,2.31,2.31,0,0,1-1.71.66,2.17,2.17,0,0,1-1.62-.66,2.3,2.3,0,0,1-.63-1.65V285.54a2.34,2.34,0,0,1,.66-1.68,2.35,2.35,0,0,1,3.33,0,2.4,2.4,0,0,1,.63,1.68Z"/><path class="cls-2" d="M165,211.8S130.07,252,120.1,274.3s-16.62,60.17-10.64,67.82-10.3,19.61-10.3,19.61-9.65,9.31-2.33,19.62,22.94,0,22.94,0,2.66,8.31,14.63,7.31S157.67,384,157.67,383s12,8,21.61,7.82,40.56,3.48,56.51-4.83,12-3.32,12-3.32S271,387.33,272.7,379s4.65-.33,4.65-.33.67,4,16.29,3,12-9,12-9-5-16-9.64-25.26-5.65-21.61-5.65-21.61-3.66-47.54-18-70.82-12.63-28.3-34.57-49.22c0,.21-15.5-2.24-33.25-1.31C188.85,205.31,165,211.8,165,211.8Z"/><path class="cls-3" d="M202.56,392c-5.52,0-10.73-.23-15-.41-3.38-.15-6.3-.28-8.25-.24-6.94.12-14.81-4.26-19.06-6.62-.93-.52-1.89-1.06-2.32-1.23-1.88,1.9-13.89,4.88-23.47,5.68-10.35.86-14-5.16-14.91-7.08-2.79,1.67-16.36,9.06-23.11-.45-7.47-10.53,2.29-20.16,2.39-20.26s10.48-7.78,11.41-14.51a5.7,5.7,0,0,0-1.15-4.44c-6.32-8.07.83-46.56,10.58-68.33,9.88-22.08,44.6-62.22,44.95-62.62l.1-.12.15,0c.24-.06,24.1-6.51,39.67-7.33a197.11,197.11,0,0,1,31.35,1.14c.57.07,1.08.12,1.43.15l0-.62.81.78c15.64,14.91,19.28,21.67,25.3,32.87,2.45,4.56,5.22,9.72,9.36,16.45,14.19,23.11,18,70.56,18,71,0,.12,1.05,12.31,5.6,21.42s9.62,25.18,9.67,25.34a5.53,5.53,0,0,1-.37,4.89c-1.63,2.74-5.68,4.33-12,4.74-15.62,1-16.74-3-16.81-3.41-.48-1.25-1.53-3.09-2.19-3-.13,0-.85.22-1.49,3.38-1.73,8.7-24.55,4.24-25.52,4l-.8-.16.51-.64a1.51,1.51,0,0,0,.34-.68c-.17-.08-1.65-.47-11.69,4.76C227.33,391,214.24,392,202.56,392ZM180,390.33c1.94,0,4.57.11,7.56.24,13.25.57,35.41,1.53,48-5,11.63-6.06,12.51-5,12.94-4.47a1.18,1.18,0,0,1,.06,1.23c3.84.68,22.26,3.55,23.65-3.4.55-2.76,1.31-4.09,2.38-4.18,1.7-.1,3,3.12,3.23,3.77,0,.11,1.1,3.62,15.79,2.67,5.91-.38,9.8-1.84,11.24-4.24a4.56,4.56,0,0,0,.3-4c-.07-.22-5-16.09-9.63-25.25s-5.69-21.67-5.7-21.79c0-.48-3.81-47.69-17.88-70.59-4.15-6.77-6.94-11.94-9.39-16.5-6-11.08-9.56-17.78-25-32.49-.31,0-.85-.07-1.84-.17A194,194,0,0,0,204.57,205c-14.82.78-37.28,6.71-39.31,7.26-2.08,2.4-35.14,40.89-44.7,62.26-10.35,23.11-16.25,60.22-10.71,67.31a6.65,6.65,0,0,1,1.36,5.18c-1,7.15-11.32,14.82-11.76,15.14s-9.19,9.1-2.21,18.93,22.1,0,22.25-.13l.55-.36.2.62c.11.33,2.71,7.91,14.11,7s21.82-4.32,22.82-5.27v-.17l.28-.21c.42-.24.88,0,3.27,1.33,4.1,2.28,11.7,6.5,18.27,6.5h1Z"/><path class="cls-2" d="M234.38,182.41s2.49-11.22,11-17.2,7.11-1.87,11.6-8.73,10.72-18.82,12.59-18.57,5.61-20.32-2.75-22.19-24.8-3-30.66,0l-5.86,3a8.71,8.71,0,0,1-2.37-4.84c-.25-2.77-.5-9.87-18.33-11.24s-19.82,5.86-19.82,5.86,2.22,16.09,1.74,17.7c-.56,1.93-1.37,3.36-10,1.25s-4.61-7.11-16.21-6.49-13.34,3.37-16.45,3.37-13.47-2.74-26.18,2.74S125.54,147.38,129,149a58.68,58.68,0,0,1,22.44,16.83c9.1,11.1,14.7,26.59,14.7,26.59S200,181.54,234.38,182.41Z"/><path class="cls-3" d="M165.87,193l-.16-.45c-.06-.16-5.68-15.54-14.62-26.44a57.65,57.65,0,0,0-21.64-16.41l-.63-.28c-2.5-1.17-11.65-9.34-11.55-16.16,0-3,1.79-5.22,5.21-6.7,10.49-4.52,19.28-3.52,24-3a23.79,23.79,0,0,0,2.38.21A9.11,9.11,0,0,0,152,123c2.29-.86,5.75-2.16,13.26-2.57,6.92-.37,8.49,1.22,10.3,3.06a11,11,0,0,0,6,3.44c8.5,2.09,8.92.64,9.38-.9.32-1.1-.91-11.32-1.77-17.5v-.1l0-.1c.08-.31,2.31-7.61,20.34-6.22,17.88,1.37,18.5,8.48,18.77,11.52v.17a8.06,8.06,0,0,0,2,4.27l5.52-2.82c6.33-3.23,23.29-1.77,31,0,6.25,1.4,6.12,11.85,5.06,17.81-.46,2.54-1.24,5.53-2.49,5.36-1.06,0-5,6.66-7.63,11-1.52,2.55-3.09,5.18-4.48,7.31-2.71,4.14-3.4,4.42-5.24,5.18a29.08,29.08,0,0,0-6.48,3.68c-8.22,5.8-10.75,16.79-10.77,16.9l-.09.4h-.41c-33.87-.85-67.7,9.87-68,10Zm-26.53-68.91a41.07,41.07,0,0,0-16.47,3.39c-3,1.3-4.57,3.25-4.61,5.79-.08,6.29,8.68,14.17,11,15.24l.61.28a58.52,58.52,0,0,1,22,16.69c8.19,10,13.61,23.65,14.62,26.28,4.13-1.27,35.75-10.6,67.51-9.89.54-2.1,3.34-11.65,11.07-17.11a30.1,30.1,0,0,1,6.69-3.79c1.67-.68,2.23-.91,4.78-4.8,1.38-2.11,2.94-4.73,4.46-7.27,4.74-7.95,7-11.53,8.5-11.53h0c.84-.67,2.7-8.22,1.71-14.49-.43-2.69-1.57-6-4.54-6.72-8.63-1.93-24.73-2.9-30.34,0l-6.18,3.16-.25-.25a9.21,9.21,0,0,1-2.52-5.16v-.17c-.25-2.79-.82-9.31-17.86-10.62-16.05-1.23-19,4.64-19.27,5.42.29,2.14,2.19,16.16,1.71,17.79-.67,2.29-1.82,3.75-10.57,1.59a12,12,0,0,1-6.52-3.71c-1.71-1.74-3.06-3.11-9.54-2.76-7.35.4-10.73,1.66-13,2.5a9.88,9.88,0,0,1-3.52.87c-.61,0-1.44-.1-2.49-.22A60.52,60.52,0,0,0,139.34,124.13Z"/><path class="cls-3" d="M191.56,125.84a10.34,10.34,0,0,0,3.9-.85,11.33,11.33,0,0,0,3.34-2.09,8,8,0,0,0,3-6.78,4.87,4.87,0,0,0-1.06-3.45,9,9,0,0,0-3.4-1.73l-3.87-1.24c-1.28-.46-2.56-.87-3.84-1.35,1.33.26,2.65.58,4,.88l4,1a8.92,8.92,0,0,1,3.84,1.79,4.24,4.24,0,0,1,1.11,2,8.78,8.78,0,0,1,.28,2.13,11.81,11.81,0,0,1-.12,2.12,7.31,7.31,0,0,1-.7,2.05,9.86,9.86,0,0,1-2.71,3.23A10.49,10.49,0,0,1,191.56,125.84Z"/><path class="cls-3" d="M175.27,123.75c2,3.2,3.91,6.5,5.7,9.86s3.38,6.81,4.84,10.34a65.42,65.42,0,0,1,3.72,10.84,37.14,37.14,0,0,1,.82,11.46h-.2c-.69-3.76-1.55-7.37-2.56-11L186,149.89c-.48-1.81-1.1-3.59-1.71-5.37-1.25-3.55-2.7-7-4.25-10.47s-3.17-6.87-5-10.2Z"/><path class="cls-3" d="M162.4,142.56a68.07,68.07,0,0,0,7.94,9.6c1.46,1.48,3,2.85,4.52,4.27a27.77,27.77,0,0,1,4.17,5,44.63,44.63,0,0,1,3,5.66,52.34,52.34,0,0,1,2.1,6,39.53,39.53,0,0,1,1.6,12.53,64.85,64.85,0,0,0-3.08-12.06,51.9,51.9,0,0,0-5.32-11.05,26.63,26.63,0,0,0-3.79-4.7c-1.46-1.47-3-3-4.37-4.59A40.87,40.87,0,0,1,162.4,142.56Z"/><path class="cls-3" d="M202,119.21a38.83,38.83,0,0,1,6.32,10,29.52,29.52,0,0,1,2.29,8.68l.24,2.94c.27,3.93.61,7.85.5,11.78a93,93,0,0,1-.92,11.76h-.2c-.5-3.93-.71-7.84-.88-11.74s0-7.82-.1-11.72l-.08-2.92a27.58,27.58,0,0,0-.31-2.85,28.47,28.47,0,0,0-1.46-5.56,38.51,38.51,0,0,0-5.55-10.21Z"/><path class="cls-3" d="M205.72,183.85a21.47,21.47,0,0,0,.56-2.83,25.78,25.78,0,0,0,.26-2.91,26.84,26.84,0,0,0-.4-5.86,26.79,26.79,0,0,1,.9,5.86,29.62,29.62,0,0,1,0,3,24,24,0,0,1-.34,3Z"/><path class="cls-3" d="M220.94,146.7a16.24,16.24,0,0,1,1.22-7.4,27.67,27.67,0,0,1,1.63-3.37,11.12,11.12,0,0,0,1-3.25c.09-.55.12-1.15.17-1.77l.17-1.84c.06-.61.11-1.22.19-1.83a15.86,15.86,0,0,1,.32-1.91c.62-2.48,1.82-5,4.29-6.36l1-.54-.53,1.06a6.12,6.12,0,0,0-.05,5.11,9.14,9.14,0,0,0,3.55,3.92,21,21,0,0,0,4.88,2.3,48,48,0,0,0,5.25,1.5,77.83,77.83,0,0,0,10.77,1.89,49.3,49.3,0,0,0,5.42.27,26.42,26.42,0,0,0,2.68-.14,15.2,15.2,0,0,0,2.56-.42l.12,0a9.29,9.29,0,0,0,2.62-1,7.22,7.22,0,0,0,2.16-1.84,7,7,0,0,0,1.24-2.6,10.35,10.35,0,0,0,.22-3l.19,0a9.42,9.42,0,0,1,.24,3.14,7.15,7.15,0,0,1-1,3.07A8.51,8.51,0,0,1,269,134a9.45,9.45,0,0,1-3,1.43l.12,0a21.24,21.24,0,0,1-5.73,1,43.17,43.17,0,0,1-5.69-.1,61.5,61.5,0,0,1-11-2.24,28.72,28.72,0,0,1-10.23-4.79,11.55,11.55,0,0,1-3.55-4.46,7.62,7.62,0,0,1,0-5.71l.49.52a6.05,6.05,0,0,0-2.12,2.62,11.32,11.32,0,0,0-.91,3.35c-.08.58-.12,1.15-.17,1.75s-.09,1.24-.14,1.85l-.17,1.84c-.06.6-.11,1.24-.23,1.9a11.38,11.38,0,0,1-1.38,3.71c-.68,1.09-1.29,2-1.83,3.14a19.8,19.8,0,0,0-2.19,6.88Z"/><path class="cls-3" d="M227.49,182.15c-.19-2.63-.23-5.22-.2-7.83s.16-5.2.45-7.79a52.59,52.59,0,0,1,1.32-7.69,28.62,28.62,0,0,1,2.83-7.22,28.1,28.1,0,0,0-2.34,7.33,53.09,53.09,0,0,0-.82,7.65c-.12,2.56-.07,5.13.05,7.69s.35,5.14.69,7.64Z"/><path class="cls-4" d="M166.18,192.42s-7.6,3.25-6,6.16,2.9,3,2.9,3-3.27,2.05-3.12,5.32c.18,3.56,2,5.72,5,4.91,2.21-.6,27.31-5.89,37.2-7.05s26.29.16,26.29.16l7.54.66c2.17.59,3.13.07,4.62-.42a5.2,5.2,0,0,0,3.64-3.83c1-3.57-2.24-8.81-6.07-8.47-2.46.21-1.3-2-.16-3.59a4.15,4.15,0,0,0,.25-4.49,4.21,4.21,0,0,0-3.91-2.36C227.15,182.66,206.51,180.6,166.18,192.42Z"/><path class="cls-4" d="M200.44,366.32a20.62,20.62,0,0,1-7.51-1.27,20.22,20.22,0,0,1-6.25-4.05,3.6,3.6,0,0,1-.66-.9,2.17,2.17,0,0,1-.26-1.07,2.41,2.41,0,0,1,.66-1.65,2.15,2.15,0,0,1,1.65-.72,2,2,0,0,1,1.45.64,16.57,16.57,0,0,0,4.88,3.35,14.59,14.59,0,0,0,5.93,1.16,12.48,12.48,0,0,0,4.6-.81,8,8,0,0,0,3.26-2.26,5,5,0,0,0,1.22-3.35,5.94,5.94,0,0,0-1.36-3.82,10,10,0,0,0-3.59-2.51,28.6,28.6,0,0,0-5.29-1.71,31.4,31.4,0,0,1-4.88-1.56,14.9,14.9,0,0,1-3.85-2.28,9.36,9.36,0,0,1-2.51-3.3,10.66,10.66,0,0,1-.9-4.54,9.89,9.89,0,0,1,1.73-5.78,11.32,11.32,0,0,1,4.8-3.85,17.4,17.4,0,0,1,7.06-1.36,19.31,19.31,0,0,1,6.68,1.16,13,13,0,0,1,5.06,3.18,3.07,3.07,0,0,1,1.15,2.14,2.21,2.21,0,0,1-.72,1.59,2.27,2.27,0,0,1-1.65.72A1.71,1.71,0,0,1,210,333a9.77,9.77,0,0,0-2.48-2,14.35,14.35,0,0,0-3.3-1.39,12.66,12.66,0,0,0-3.58-.52,13,13,0,0,0-4.69.78,7.18,7.18,0,0,0-3.15,2.2,5.26,5.26,0,0,0-1.13,3.38,5.19,5.19,0,0,0,1.28,3.61,9.08,9.08,0,0,0,3.41,2.31,36,36,0,0,0,4.74,1.59,50,50,0,0,1,5.23,1.59,16,16,0,0,1,4.14,2.23,9.12,9.12,0,0,1,2.69,3.38,12.09,12.09,0,0,1,1,5.06,9.49,9.49,0,0,1-1.79,5.67,12.06,12.06,0,0,1-4.89,3.9A17.09,17.09,0,0,1,200.44,366.32Zm2.61,5.32a2.28,2.28,0,0,1-.67,1.65,2.31,2.31,0,0,1-1.7.66,2.14,2.14,0,0,1-1.62-.66,2.29,2.29,0,0,1-.64-1.65V321.22a2.34,2.34,0,0,1,.66-1.68,2.23,2.23,0,0,1,1.65-.7,2.19,2.19,0,0,1,1.68.7,2.41,2.41,0,0,1,.64,1.68Z"/><path class="cls-5" d="M141.74,311.32a1.84,1.84,0,0,1-1.36-.53,1.73,1.73,0,0,1-.53-1.27v-25l.53.62-5.1,3.07a1.74,1.74,0,0,1-.88.22,1.65,1.65,0,0,1-1.27-.59,1.84,1.84,0,0,1-.53-1.21,1.75,1.75,0,0,1,.92-1.54l7.17-4.26a2.35,2.35,0,0,1,1.32-.27,1.48,1.48,0,0,1,1.18.51,1.85,1.85,0,0,1,.44,1.25v27.21a1.69,1.69,0,0,1-.53,1.27A1.84,1.84,0,0,1,141.74,311.32Z"/><path class="cls-5" d="M160.73,311.76a9.1,9.1,0,0,1-6.09-2.07A12.53,12.53,0,0,1,151,304a26.9,26.9,0,0,1,0-16.21,12.61,12.61,0,0,1,3.69-5.63,10,10,0,0,1,12.17,0,12.5,12.5,0,0,1,3.67,5.63,27.32,27.32,0,0,1,0,16.21,12.42,12.42,0,0,1-3.67,5.67A9.05,9.05,0,0,1,160.73,311.76Zm0-3.56a5.54,5.54,0,0,0,3.93-1.5,9.38,9.38,0,0,0,2.44-4.24,26.22,26.22,0,0,0,0-13.09,9.25,9.25,0,0,0-2.44-4.22,6,6,0,0,0-7.87,0,9.36,9.36,0,0,0-2.46,4.22,25.62,25.62,0,0,0,0,13.09,9.49,9.49,0,0,0,2.46,4.24A5.55,5.55,0,0,0,160.73,308.2Z"/><path class="cls-5" d="M199.23,311.76a9.1,9.1,0,0,1-6.09-2.07,12.53,12.53,0,0,1-3.69-5.67,26.9,26.9,0,0,1,0-16.21,12.61,12.61,0,0,1,3.69-5.63,10,10,0,0,1,12.17,0,12.5,12.5,0,0,1,3.67,5.63A27.32,27.32,0,0,1,209,304a12.42,12.42,0,0,1-3.67,5.67A9.05,9.05,0,0,1,199.23,311.76Zm0-3.56a5.54,5.54,0,0,0,3.93-1.5,9.38,9.38,0,0,0,2.44-4.24,26.22,26.22,0,0,0,0-13.09,9.25,9.25,0,0,0-2.44-4.22,6,6,0,0,0-7.87,0,9.36,9.36,0,0,0-2.46,4.22,25.62,25.62,0,0,0,0,13.09,9.49,9.49,0,0,0,2.46,4.24A5.55,5.55,0,0,0,199.23,308.2Z"/><path class="cls-5" d="M225.64,311.76a9.1,9.1,0,0,1-6.09-2.07,12.69,12.69,0,0,1-3.69-5.67,26.9,26.9,0,0,1,0-16.21,12.78,12.78,0,0,1,3.69-5.63,10,10,0,0,1,12.18,0,12.58,12.58,0,0,1,3.67,5.63,27.32,27.32,0,0,1,0,16.21,12.5,12.5,0,0,1-3.67,5.67A9.1,9.1,0,0,1,225.64,311.76Zm0-3.56a5.54,5.54,0,0,0,3.93-1.5,9.29,9.29,0,0,0,2.44-4.24,25.92,25.92,0,0,0,0-13.09,9.16,9.16,0,0,0-2.44-4.22,6,6,0,0,0-7.86,0,9.36,9.36,0,0,0-2.46,4.22,25.33,25.33,0,0,0,0,13.09,9.49,9.49,0,0,0,2.46,4.24A5.54,5.54,0,0,0,225.64,308.2Z"/><path class="cls-5" d="M252.05,311.76a9.05,9.05,0,0,1-6.08-2.07,12.63,12.63,0,0,1-3.7-5.67,26.9,26.9,0,0,1,0-16.21,12.71,12.71,0,0,1,3.7-5.63,10,10,0,0,1,12.17,0,12.5,12.5,0,0,1,3.67,5.63,27.32,27.32,0,0,1,0,16.21,12.42,12.42,0,0,1-3.67,5.67A9.1,9.1,0,0,1,252.05,311.76Zm0-3.56a5.55,5.55,0,0,0,3.94-1.5,9.38,9.38,0,0,0,2.44-4.24,26.22,26.22,0,0,0,0-13.09,9.25,9.25,0,0,0-2.44-4.22,6,6,0,0,0-7.87,0,9.36,9.36,0,0,0-2.46,4.22,25.33,25.33,0,0,0,0,13.09,9.49,9.49,0,0,0,2.46,4.24A5.54,5.54,0,0,0,252.05,308.2Z"/></g></g></svg>