<svg xmlns="http://www.w3.org/2000/svg" viewBox="0 0 329.08 426.26"><defs><style>.cls-1{fill:none;}.cls-2{fill:#d3f7a4;}.cls-3{fill:#58d313;}.cls-4{fill:#25a5dd;}.cls-5{fill:#363026;}</style></defs><g id="Layer_2" data-name="Layer 2"><g id="Layer_1-2" data-name="Layer 1"><rect class="cls-1" width="329.08" height="426.26"/><path class="cls-2" d="M86.38,140.27S44.13,189,32.06,215.9,12,288.73,19.19,298,6.72,321.72,6.72,321.72-4.95,333,3.9,345.45s27.76,0,27.76,0,3.22,10.06,17.7,8.85,28.17-5.63,28.17-6.83,14.48,9.68,26.15,9.47,49.08,4.2,68.39-5.85,14.49-4,14.49-4,28.16,5.64,30.17-4.42,5.63-.4,5.63-.4.81,4.82,19.72,3.62S256.56,335,256.56,335s-6-19.31-11.67-30.57-6.83-26.16-6.83-26.16-4.43-57.53-21.73-85.69S201,158.32,174.49,133c0,.25-18.76-2.72-40.24-1.58C115.26,132.42,86.38,140.27,86.38,140.27Z"/><path class="cls-3" d="M131.86,358.32c-6.69,0-13-.27-18.18-.5-4.09-.17-7.62-.33-10-.28-8.4.14-17.92-5.16-23.06-8-1.13-.63-2.29-1.27-2.81-1.48-2.28,2.3-16.82,5.9-28.41,6.87-12.52,1-16.94-6.24-18-8.57-3.38,2-19.81,11-28-.54-9-12.75,2.77-24.4,2.89-24.52S19,311.86,20.1,303.72a6.88,6.88,0,0,0-1.39-5.37c-7.64-9.77,1-56.35,12.8-82.69,12-26.73,54-75.3,54.41-75.79l.12-.14.18,0c.29-.08,29.17-7.87,48-8.87a238.8,238.8,0,0,1,37.94,1.38l1.74.19,0-.76,1,.94c18.93,18.05,23.33,26.23,30.62,39.79,3,5.51,6.32,11.75,11.32,19.9,17.18,28,21.77,85.39,21.82,86,0,.14,1.26,14.9,6.77,25.93,5.59,11.18,11.65,30.47,11.71,30.66a6.73,6.73,0,0,1-.45,5.91c-2,3.32-6.88,5.25-14.57,5.74-18.91,1.21-20.26-3.58-20.35-4.13-.58-1.51-1.86-3.73-2.64-3.66-.17,0-1,.27-1.81,4.09-2.1,10.53-29.71,5.13-30.88,4.9l-1-.2.61-.77a1.82,1.82,0,0,0,.41-.83c-.2-.1-2-.56-14.14,5.76C161.83,357.1,146,358.32,131.86,358.32Zm-27.29-2c2.36,0,5.54.14,9.16.3,16,.69,42.85,1.85,58.06-6.07,14.08-7.33,15.14-6,15.66-5.41a1.41,1.41,0,0,1,.07,1.49c4.65.82,26.94,4.3,28.62-4.11.67-3.35,1.59-4.95,2.89-5.06,2.05-.13,3.6,3.77,3.9,4.56,0,.13,1.33,4.38,19.11,3.23,7.15-.45,11.86-2.23,13.6-5.13a5.54,5.54,0,0,0,.37-4.88c-.08-.26-6.11-19.46-11.66-30.55-5.61-11.24-6.88-26.23-6.9-26.38,0-.57-4.61-57.71-21.63-85.42-5-8.19-8.4-14.45-11.37-20-7.21-13.41-11.57-21.52-30.2-39.31-.37,0-1-.09-2.22-.22A236.79,236.79,0,0,0,134.29,132c-17.94.94-45.12,8.12-47.58,8.78-2.51,2.91-42.52,49.49-54.1,75.35C20.09,244.11,13,289,19.66,297.61a8.05,8.05,0,0,1,1.64,6.27c-1.19,8.66-13.69,17.93-14.23,18.32s-11.12,11-2.68,22.9,26.76,0,26.94-.15l.66-.44.25.76c.12.39,3.27,9.57,17.07,8.43s26.4-5.22,27.61-6.38v-.2l.34-.25c.51-.3,1.07,0,4,1.6,5,2.76,14.15,7.87,22.11,7.87h1.24Z"/><path class="cls-2" d="M170.36,104.71s3-13.58,13.28-20.82,8.6-2.26,14-10.56,13-22.78,15.24-22.48S219.7,26.26,209.59,24s-30-3.62-37.11,0l-7.1,3.62a10.51,10.51,0,0,1-2.86-5.85c-.3-3.35-.61-12-22.18-13.61s-24,7.09-24,7.09,2.68,19.48,2.11,21.43c-.68,2.33-1.66,4.07-12.07,1.51s-5.58-8.6-19.61-7.85S70.64,34.4,66.86,34.4s-16.29-3.32-31.68,3.32,3.47,24.6,7.7,26.56A70.88,70.88,0,0,1,70,84.64c11,13.43,17.79,32.17,17.79,32.17S128.8,103.65,170.36,104.71Z"/><path class="cls-3" d="M87.45,117.57l-.2-.55c-.06-.19-6.86-18.8-17.68-32a69.65,69.65,0,0,0-26.2-19.86l-.75-.35c-3-1.4-14.1-11.3-14-19.55.05-3.59,2.18-6.32,6.31-8.1C47.64,31.69,58.28,32.9,64,33.55c1.24.14,2.21.25,2.87.25a10.89,10.89,0,0,0,3.84-1c2.77-1,7-2.61,16-3.1,8.38-.45,10.27,1.47,12.47,3.69a13.21,13.21,0,0,0,7.32,4.17c10.29,2.53,10.8.77,11.34-1.09.39-1.33-1.1-13.7-2.13-21.17V15.2l0-.12c.1-.37,2.8-9.21,24.62-7.53C162,9.22,162.78,17.82,163.1,21.49l0,.21a9.78,9.78,0,0,0,2.4,5.17l6.68-3.41c7.66-3.92,28.18-2.14,37.52-.06,7.56,1.7,7.4,14.35,6.12,21.56-.55,3.07-1.5,6.69-3,6.49-1.29,0-6.07,8.06-9.23,13.36-1.84,3.09-3.74,6.28-5.42,8.85-3.29,5-4.12,5.36-6.34,6.27A34.8,34.8,0,0,0,184,84.38c-9.94,7-13,20.33-13,20.46l-.11.49-.49,0c-41-1-81.93,12-82.34,12.08Zm-32.1-83.4a49.64,49.64,0,0,0-19.93,4.11c-3.66,1.58-5.54,3.93-5.58,7-.1,7.61,10.5,17.15,13.29,18.44l.75.34A70.89,70.89,0,0,1,70.5,84.26C80.41,96.34,87,112.88,88.19,116.07c5-1.54,43.26-12.83,81.7-12,.65-2.54,4-14.1,13.4-20.7a36.63,36.63,0,0,1,8.09-4.59c2-.83,2.71-1.11,5.79-5.81,1.66-2.55,3.56-5.73,5.39-8.81,5.74-9.62,8.51-13.95,10.29-13.95h0c1-.8,3.27-9.93,2.06-17.52-.52-3.27-1.89-7.33-5.49-8.14-10.44-2.33-29.92-3.51-36.71,0l-7.48,3.82-.31-.3a11.07,11.07,0,0,1-3-6.24l0-.21c-.3-3.37-1-11.26-21.61-12.85-19.43-1.49-22.94,5.61-23.32,6.56.35,2.59,2.65,19.55,2.07,21.53-.81,2.77-2.2,4.53-12.79,1.92a14.4,14.4,0,0,1-7.89-4.49c-2.07-2.1-3.7-3.76-11.55-3.34-8.9.48-13,2-15.68,3a12,12,0,0,1-4.27,1c-.73,0-1.73-.12-3-.26A71.07,71.07,0,0,0,55.35,34.17Z"/><path class="cls-3" d="M118.54,36.24a12.51,12.51,0,0,0,4.73-1,14.11,14.11,0,0,0,4-2.53c2.37-2.12,4-5,3.65-8.21a5.93,5.93,0,0,0-1.28-4.18,11,11,0,0,0-4.12-2.08l-4.68-1.51c-1.55-.55-3.11-1.05-4.65-1.64,1.61.32,3.21.71,4.82,1.07l4.79,1.19a11,11,0,0,1,4.65,2.16,5.2,5.2,0,0,1,1.34,2.38,10.45,10.45,0,0,1,.34,2.58A14.13,14.13,0,0,1,132,27a9.63,9.63,0,0,1-.85,2.47,12,12,0,0,1-3.28,3.91A12.71,12.71,0,0,1,118.54,36.24Z"/><path class="cls-3" d="M98.83,33.71c2.47,3.88,4.74,7.88,6.89,11.94s4.1,8.24,5.86,12.51a78.13,78.13,0,0,1,4.5,13.12,44.62,44.62,0,0,1,1,13.86h-.25c-.82-4.55-1.86-8.92-3.09-13.28l-1.89-6.52c-.58-2.19-1.34-4.34-2.07-6.5-1.51-4.29-3.27-8.51-5.14-12.68s-3.83-8.31-6-12.33Z"/><path class="cls-3" d="M83.26,56.48a81.56,81.56,0,0,0,9.6,11.62c1.77,1.79,3.58,3.45,5.48,5.16a33.15,33.15,0,0,1,5,6A51.31,51.31,0,0,1,107,86.13a61.74,61.74,0,0,1,2.55,7.29,47.57,47.57,0,0,1,1.93,15.16A78.24,78.24,0,0,0,107.8,94a63.74,63.74,0,0,0-6.44-13.38,32.5,32.5,0,0,0-4.59-5.69c-1.77-1.78-3.66-3.58-5.29-5.55A49.37,49.37,0,0,1,83.26,56.48Z"/><path class="cls-3" d="M131.17,28.22a47.41,47.41,0,0,1,7.65,12.07,36.05,36.05,0,0,1,2.76,10.5l.29,3.56c.33,4.75.74,9.5.61,14.25a113.65,113.65,0,0,1-1.11,14.24h-.25c-.6-4.74-.85-9.48-1.06-14.21s0-9.46-.12-14.18l-.1-3.53c-.1-1.15-.16-2.3-.37-3.44a35.42,35.42,0,0,0-1.77-6.74A46.62,46.62,0,0,0,131,28.38Z"/><path class="cls-3" d="M135.68,106.45a27,27,0,0,0,.68-3.43,34.34,34.34,0,0,0,.31-3.52,32.5,32.5,0,0,0-.48-7.09,32.5,32.5,0,0,1,1.08,7.09,33.45,33.45,0,0,1,0,3.61,28.41,28.41,0,0,1-.41,3.63Z"/><path class="cls-3" d="M154.1,61.49a19.62,19.62,0,0,1,1.48-9,32.77,32.77,0,0,1,2-4.08,13.68,13.68,0,0,0,1.26-3.93c.11-.66.15-1.39.21-2.14l.2-2.23c.07-.74.13-1.48.22-2.22a20.91,20.91,0,0,1,.4-2.3c.75-3,2.2-6.12,5.18-7.69l1.24-.66-.65,1.28a7.47,7.47,0,0,0-.05,6.19,11.09,11.09,0,0,0,4.29,4.74,25.8,25.8,0,0,0,5.91,2.79,63.4,63.4,0,0,0,6.35,1.81,95.68,95.68,0,0,0,13,2.28,59.86,59.86,0,0,0,6.55.33,31.86,31.86,0,0,0,3.25-.17A18.8,18.8,0,0,0,208,46l.15,0a11.33,11.33,0,0,0,3.18-1.2A8.7,8.7,0,0,0,214,42.56a8.5,8.5,0,0,0,1.5-3.15,12.17,12.17,0,0,0,.26-3.63l.24,0a11.25,11.25,0,0,1,.28,3.8A8.58,8.58,0,0,1,215,43.27a10.09,10.09,0,0,1-2.77,2.87,11.39,11.39,0,0,1-3.65,1.73l.14,0a25.5,25.5,0,0,1-6.93,1.24A52.77,52.77,0,0,1,194.9,49a74.57,74.57,0,0,1-13.37-2.71,34.85,34.85,0,0,1-12.38-5.8,14,14,0,0,1-4.29-5.4,9.25,9.25,0,0,1-.06-6.9l.6.63a7.3,7.3,0,0,0-2.56,3.16,13.51,13.51,0,0,0-1.1,4.06c-.11.7-.15,1.4-.21,2.12s-.11,1.49-.17,2.24l-.2,2.23c-.08.73-.14,1.49-.29,2.3a13.85,13.85,0,0,1-1.66,4.48c-.82,1.33-1.57,2.48-2.22,3.81a23.93,23.93,0,0,0-2.65,8.32Z"/><path class="cls-3" d="M162,104.4c-.23-3.2-.28-6.33-.24-9.48s.19-6.3.54-9.44a64.92,64.92,0,0,1,1.61-9.29,34,34,0,0,1,3.42-8.74,34.27,34.27,0,0,0-2.84,8.87,63.93,63.93,0,0,0-1,9.25c-.15,3.11-.09,6.21.06,9.31s.41,6.21.83,9.24Z"/><path class="cls-4" d="M87.82,116.81s-9.19,3.94-7.28,7.46,3.51,3.62,3.51,3.62-4,2.48-3.77,6.44c.21,4.31,2.41,6.93,6.1,5.94,2.66-.72,33.05-7.12,45-8.52s31.82.19,31.82.19l9.13.8c2.62.71,3.79.07,5.59-.52a6.3,6.3,0,0,0,4.4-4.63c1.16-4.33-2.71-10.66-7.34-10.26-3,.26-1.57-2.41-.2-4.34a5,5,0,0,0,.31-5.42,5.1,5.1,0,0,0-4.74-2.86C161.61,105,136.64,102.51,87.82,116.81Z"/><path class="cls-4" d="M129.29,327.27a24.87,24.87,0,0,1-9.09-1.54,24.24,24.24,0,0,1-7.56-4.9,4.48,4.48,0,0,1-.81-1.09,2.67,2.67,0,0,1-.31-1.29,2.91,2.91,0,0,1,.8-2,2.61,2.61,0,0,1,2-.87,2.44,2.44,0,0,1,1.75.77,20,20,0,0,0,5.91,4.06,17.67,17.67,0,0,0,7.17,1.4,15.14,15.14,0,0,0,5.57-1,9.64,9.64,0,0,0,3.95-2.73,6.13,6.13,0,0,0,1.47-4.06,7.13,7.13,0,0,0-1.64-4.62,12.09,12.09,0,0,0-4.34-3,35.51,35.51,0,0,0-6.41-2.07,38.66,38.66,0,0,1-5.91-1.89,17.34,17.34,0,0,1-4.65-2.76,11.41,11.41,0,0,1-3-4,13,13,0,0,1-1.08-5.49,11.93,11.93,0,0,1,2.1-7,13.58,13.58,0,0,1,5.81-4.65,20.77,20.77,0,0,1,8.53-1.65,23.4,23.4,0,0,1,8.09,1.4,15.78,15.78,0,0,1,6.12,3.85,3.73,3.73,0,0,1,1.4,2.59,2.64,2.64,0,0,1-.88,1.92,2.72,2.72,0,0,1-2,.88,2.08,2.08,0,0,1-1.4-.56,12,12,0,0,0-3-2.38,17.85,17.85,0,0,0-4-1.68,15.45,15.45,0,0,0-4.34-.63,15.65,15.65,0,0,0-5.66,1,8.76,8.76,0,0,0-3.82,2.65,6.39,6.39,0,0,0-1.36,4.1,6.27,6.27,0,0,0,1.54,4.37,11.11,11.11,0,0,0,4.13,2.8,43.14,43.14,0,0,0,5.73,1.93A57.44,57.44,0,0,1,136.4,301a19.29,19.29,0,0,1,5,2.69,10.84,10.84,0,0,1,3.25,4.1,14.46,14.46,0,0,1,1.16,6.12,11.48,11.48,0,0,1-2.17,6.86,14.67,14.67,0,0,1-5.91,4.72A20.93,20.93,0,0,1,129.29,327.27Zm3.15,6.43a2.74,2.74,0,0,1-.8,2,2.84,2.84,0,0,1-2.07.8,2.63,2.63,0,0,1-2-.8,2.79,2.79,0,0,1-.77-2v-61a2.82,2.82,0,0,1,.81-2,2.82,2.82,0,0,1,4,0,2.87,2.87,0,0,1,.77,2Z"/><path class="cls-2" d="M124.69,171.62S82.45,220.3,70.38,247.26,50.26,320.08,57.5,329.33,45,353.07,45,353.07s-11.67,11.27-2.82,23.74,27.77,0,27.77,0,3.21,10.06,17.7,8.85,28.16-5.63,28.16-6.84,14.48,9.69,26.15,9.47,49.09,4.21,68.4-5.85,14.48-4,14.48-4S253,384.05,255.05,374s5.63-.4,5.63-.4.8,4.83,19.71,3.62,14.49-10.86,14.49-10.86-6-19.31-11.67-30.58-6.84-26.15-6.84-26.15-4.43-57.53-21.73-85.7-15.28-34.24-41.84-59.57c0,.26-18.76-2.71-40.23-1.58C153.58,163.77,124.69,171.62,124.69,171.62Z"/><path class="cls-3" d="M170.17,389.68c-6.68,0-13-.28-18.18-.5-4.08-.18-7.62-.34-10-.29-8.39.15-17.92-5.16-23-8-1.13-.63-2.3-1.28-2.81-1.48-2.28,2.29-16.82,5.9-28.41,6.86-12.52,1.05-17-6.24-18-8.57-3.38,2-19.8,11-28-.53-9-12.75,2.77-24.41,2.89-24.52s12.69-9.42,13.81-17.57A6.86,6.86,0,0,0,57,329.71c-7.65-9.77,1-56.35,12.8-82.7,12-26.73,54-75.3,54.41-75.79l.12-.13.17-.05c.29-.08,29.17-7.88,48-8.87a237.63,237.63,0,0,1,37.94,1.38l1.73.18,0-.75,1,.94c18.92,18,23.32,26.23,30.61,39.78,3,5.51,6.32,11.76,11.33,19.91,17.18,28,21.77,85.39,21.81,86,0,.15,1.27,14.9,6.78,25.93,5.59,11.18,11.64,30.47,11.7,30.67a6.75,6.75,0,0,1-.44,5.91c-2,3.31-6.89,5.24-14.58,5.73-18.9,1.21-20.25-3.57-20.35-4.12-.58-1.51-1.85-3.74-2.64-3.67-.17,0-1,.27-1.8,4.09-2.11,10.53-29.71,5.14-30.89,4.9l-1-.19.61-.78a1.81,1.81,0,0,0,.4-.82c-.19-.1-2-.57-14.13,5.76C200.14,388.46,184.31,389.68,170.17,389.68Zm-27.28-2c2.35,0,5.54.14,9.16.29,16,.7,42.84,1.86,58.06-6.06,14.07-7.33,15.14-6,15.65-5.41a1.39,1.39,0,0,1,.07,1.48c4.65.82,26.94,4.31,28.62-4.11.67-3.34,1.59-4.95,2.89-5.05,2.06-.13,3.61,3.77,3.9,4.56,0,.13,1.34,4.37,19.11,3.23,7.16-.46,11.86-2.23,13.61-5.14a5.55,5.55,0,0,0,.37-4.87c-.09-.26-6.11-19.47-11.66-30.56-5.62-11.24-6.89-26.22-6.9-26.37,0-.58-4.62-57.72-21.64-85.43-5-8.18-8.39-14.44-11.36-20-7.21-13.4-11.57-21.51-30.2-39.31-.37,0-1-.08-2.22-.21a236.58,236.58,0,0,0-37.75-1.38c-17.94.95-45.11,8.13-47.57,8.79-2.51,2.9-42.52,49.49-54.1,75.35-12.52,28-19.66,72.88-13,81.45a8,8,0,0,1,1.63,6.28c-1.18,8.65-13.69,17.93-14.22,18.32s-11.13,11-2.68,22.9,26.75,0,26.93-.16l.66-.43.25.75c.13.4,3.28,9.57,17.08,8.44s26.4-5.23,27.61-6.38v-.21l.33-.25c.52-.3,1.07,0,4,1.6,5,2.76,14.16,7.87,22.11,7.87h1.25Z"/><path class="cls-2" d="M208.68,136.07s3-13.58,13.27-20.83,8.6-2.26,14-10.56S249,81.9,251.22,82.2,258,57.61,247.9,55.35s-30-3.62-37.11,0L203.7,59a10.54,10.54,0,0,1-2.87-5.86c-.3-3.34-.6-11.94-22.18-13.6s-24,7.09-24,7.09,2.68,19.47,2.11,21.42c-.69,2.34-1.66,4.08-12.07,1.51s-5.58-8.6-19.62-7.84S109,65.76,105.18,65.76s-16.3-3.32-31.68,3.32S77,93.67,81.19,95.63A70.91,70.91,0,0,1,108.35,116c11,13.43,17.79,32.17,17.79,32.17S167.11,135,208.68,136.07Z"/><path class="cls-3" d="M125.77,148.92l-.2-.55c-.07-.18-6.87-18.8-17.69-32A69.87,69.87,0,0,0,81.69,96.52l-.75-.34c-3-1.41-14.11-11.3-14-19.56,0-3.59,2.17-6.31,6.31-8.1C86,63,96.59,64.26,102.31,64.9c1.23.14,2.21.26,2.87.26a10.81,10.81,0,0,0,3.84-1c2.77-1,7-2.61,16-3.1,8.38-.45,10.28,1.47,12.48,3.7a13.19,13.19,0,0,0,7.31,4.16c10.29,2.54,10.8.78,11.35-1.09.39-1.33-1.1-13.69-2.13-21.17l0-.12,0-.12c.11-.38,2.8-9.22,24.62-7.53,21.64,1.66,22.39,10.26,22.71,13.94l0,.21a9.7,9.7,0,0,0,2.4,5.16l6.69-3.41c7.66-3.91,28.18-2.14,37.52-.05,7.56,1.69,7.4,14.34,6.11,21.55-.55,3.07-1.49,6.69-3,6.49-1.29,0-6.06,8.06-9.23,13.37-1.84,3.08-3.74,6.27-5.42,8.84-3.28,5-4.11,5.36-6.34,6.27a35.92,35.92,0,0,0-7.85,4.46c-9.94,7-13,20.32-13,20.46l-.11.48h-.5c-41-1-81.93,11.94-82.34,12.07ZM93.66,65.53a49.67,49.67,0,0,0-19.93,4.1c-3.66,1.58-5.53,3.94-5.58,7-.1,7.62,10.51,17.15,13.29,18.44l.75.35a70.81,70.81,0,0,1,26.62,20.19c9.91,12.08,16.48,28.62,17.69,31.8,5-1.53,43.27-12.83,81.71-12,.65-2.54,4-14.09,13.4-20.7a36.65,36.65,0,0,1,8.08-4.59c2-.82,2.71-1.1,5.79-5.81,1.67-2.54,3.56-5.73,5.4-8.8,5.73-9.62,8.5-14,10.28-14h0c1-.8,3.27-9.94,2.07-17.53-.52-3.26-1.89-7.33-5.5-8.13-10.43-2.34-29.92-3.52-36.71,0l-7.47,3.81-.31-.3a11.08,11.08,0,0,1-3.05-6.23l0-.22c-.29-3.37-1-11.25-21.6-12.84-19.43-1.49-23,5.61-23.33,6.55.36,2.59,2.65,19.56,2.08,21.53-.82,2.77-2.2,4.54-12.8,1.93a14.43,14.43,0,0,1-7.88-4.5c-2.08-2.1-3.71-3.76-11.55-3.33-8.9.48-13,2-15.69,3a11.77,11.77,0,0,1-4.26,1,29,29,0,0,1-3-.26A73.75,73.75,0,0,0,93.66,65.53Z"/><path class="cls-3" d="M156.85,67.59a12.06,12.06,0,0,0,4.73-1,13.77,13.77,0,0,0,4-2.53c2.37-2.11,4-5,3.66-8.21A6,6,0,0,0,168,51.66a11,11,0,0,0-4.13-2.09l-4.67-1.51c-1.55-.54-3.11-1.05-4.65-1.63,1.61.32,3.2.71,4.81,1.06l4.79,1.2a10.72,10.72,0,0,1,4.65,2.16,5.11,5.11,0,0,1,1.34,2.38,10.37,10.37,0,0,1,.34,2.57,14,14,0,0,1-.14,2.57,9.33,9.33,0,0,1-.85,2.48,12,12,0,0,1-3.28,3.9A12.65,12.65,0,0,1,156.85,67.59Z"/><path class="cls-3" d="M137.14,65.07c2.47,3.87,4.74,7.87,6.9,11.93s4.1,8.25,5.86,12.51a77.31,77.31,0,0,1,4.49,13.13,44.58,44.58,0,0,1,1,13.86h-.24c-.83-4.55-1.87-8.92-3.1-13.28l-1.89-6.52c-.58-2.2-1.33-4.35-2.06-6.5-1.52-4.3-3.28-8.51-5.15-12.68s-3.83-8.31-6-12.34Z"/><path class="cls-3" d="M121.57,87.84a83.38,83.38,0,0,0,9.6,11.62c1.78,1.78,3.58,3.44,5.48,5.16a33.28,33.28,0,0,1,5,6,50.64,50.64,0,0,1,3.66,6.85,61.65,61.65,0,0,1,2.56,7.28,48.21,48.21,0,0,1,1.93,15.17,78.37,78.37,0,0,0-3.73-14.6A63.49,63.49,0,0,0,139.67,112a32.78,32.78,0,0,0-4.59-5.69c-1.77-1.77-3.66-3.58-5.29-5.54A50,50,0,0,1,121.57,87.84Z"/><path class="cls-3" d="M169.48,59.57a47.31,47.31,0,0,1,7.65,12.07,36.48,36.48,0,0,1,2.2,6.9,36,36,0,0,1,.57,3.6l.29,3.57c.33,4.74.73,9.49.6,14.25a111.49,111.49,0,0,1-1.11,14.23h-.24c-.6-4.75-.86-9.48-1.06-14.21s0-9.46-.12-14.18l-.11-3.54a30.89,30.89,0,0,0-.37-3.44A35.13,35.13,0,0,0,176,72.09a46.65,46.65,0,0,0-6.71-12.36Z"/><path class="cls-3" d="M174,137.8a27.23,27.23,0,0,0,.68-3.42,34.8,34.8,0,0,0,.32-3.53,32.42,32.42,0,0,0-.49-7.08,32.42,32.42,0,0,1,1.09,7.08,33.44,33.44,0,0,1,0,3.61,30.29,30.29,0,0,1-.4,3.63Z"/><path class="cls-3" d="M192.41,92.84a19.58,19.58,0,0,1,1.48-9,33.51,33.51,0,0,1,2-4.08,13.37,13.37,0,0,0,1.26-3.93c.11-.67.15-1.39.21-2.15l.2-2.22c.07-.74.13-1.48.23-2.22a18.42,18.42,0,0,1,.39-2.3c.75-3,2.21-6.12,5.19-7.7l1.23-.65-.64,1.28a7.44,7.44,0,0,0-.06,6.18,11.09,11.09,0,0,0,4.29,4.74,25.39,25.39,0,0,0,5.91,2.79,58.5,58.5,0,0,0,6.35,1.81,94.46,94.46,0,0,0,13,2.29,62.78,62.78,0,0,0,6.56.33c1.09,0,2.17,0,3.25-.17a20.33,20.33,0,0,0,3.09-.51l.15,0a11.27,11.27,0,0,0,3.17-1.2,8.6,8.6,0,0,0,2.61-2.22,8.5,8.5,0,0,0,1.5-3.15,12.26,12.26,0,0,0,.26-3.64l.24,0a11.23,11.23,0,0,1,.29,3.8,8.67,8.67,0,0,1-1.26,3.72,10.41,10.41,0,0,1-2.77,2.88,11.76,11.76,0,0,1-3.66,1.73l.15,0a25.57,25.57,0,0,1-6.94,1.24,50.92,50.92,0,0,1-6.88-.12,74.38,74.38,0,0,1-13.37-2.7,34.72,34.72,0,0,1-12.38-5.81,13.89,13.89,0,0,1-4.3-5.39,9.2,9.2,0,0,1,0-6.9l.59.62a7.32,7.32,0,0,0-2.56,3.17,13.74,13.74,0,0,0-1.1,4.05c-.1.7-.14,1.4-.2,2.13s-.11,1.49-.17,2.23l-.21,2.23c-.08.73-.13,1.5-.29,2.3a13.54,13.54,0,0,1-1.66,4.48c-.82,1.33-1.56,2.48-2.22,3.81a23.84,23.84,0,0,0-2.64,8.32Z"/><path class="cls-3" d="M200.34,135.75c-.24-3.19-.29-6.32-.25-9.48s.2-6.3.55-9.43a63.66,63.66,0,0,1,1.6-9.3,34.32,34.32,0,0,1,3.42-8.74,34,34,0,0,0-2.83,8.87,63.94,63.94,0,0,0-1,9.26c-.14,3.1-.09,6.21.06,9.31s.42,6.21.84,9.23Z"/><path class="cls-4" d="M126.14,148.17s-9.19,3.94-7.28,7.46,3.51,3.62,3.51,3.62-4,2.47-3.77,6.44c.2,4.31,2.41,6.92,6.09,5.93,2.67-.72,33.05-7.12,45-8.52s31.81.19,31.81.19l9.14.8c2.62.72,3.78.08,5.58-.51a6.31,6.31,0,0,0,4.41-4.63c1.15-4.33-2.72-10.66-7.35-10.26-3,.26-1.57-2.41-.19-4.34a5.31,5.31,0,0,0-4.43-8.28C199.93,136.36,175,133.87,126.14,148.17Z"/><path class="cls-4" d="M167.61,358.62a24.68,24.68,0,0,1-9.1-1.54,24.29,24.29,0,0,1-7.56-4.9,4.45,4.45,0,0,1-.8-1.08,2.75,2.75,0,0,1-.32-1.3,2.85,2.85,0,0,1,.81-2,2.59,2.59,0,0,1,2-.87,2.4,2.4,0,0,1,1.75.76,19.75,19.75,0,0,0,5.92,4.06,17.51,17.51,0,0,0,7.17,1.4,14.92,14.92,0,0,0,5.56-1,9.51,9.51,0,0,0,3.95-2.73,6.09,6.09,0,0,0,1.47-4.05,7,7,0,0,0-1.64-4.62,12.11,12.11,0,0,0-4.34-3,36.22,36.22,0,0,0-6.4-2.06,38,38,0,0,1-5.91-1.89A18.11,18.11,0,0,1,155.5,331a11.35,11.35,0,0,1-3-4,12.92,12.92,0,0,1-1.09-5.5,11.88,11.88,0,0,1,2.1-7,13.65,13.65,0,0,1,5.81-4.66,21,21,0,0,1,8.54-1.64,23.11,23.11,0,0,1,8.08,1.4,15.55,15.55,0,0,1,6.12,3.85,3.66,3.66,0,0,1,1.4,2.58,2.69,2.69,0,0,1-.87,1.93,2.77,2.77,0,0,1-2,.87,2,2,0,0,1-1.4-.56,12.09,12.09,0,0,0-3-2.38,18,18,0,0,0-4-1.67,16.49,16.49,0,0,0-10,.31,8.8,8.8,0,0,0-3.81,2.66,6.37,6.37,0,0,0-1.37,4.09,6.3,6.3,0,0,0,1.54,4.38,11.44,11.44,0,0,0,4.13,2.8,44.83,44.83,0,0,0,5.74,1.92,57.91,57.91,0,0,1,6.33,1.92,19.44,19.44,0,0,1,5,2.7,10.83,10.83,0,0,1,3.26,4.09,14.52,14.52,0,0,1,1.15,6.13,11.38,11.38,0,0,1-2.17,6.85,14.56,14.56,0,0,1-5.91,4.73A20.92,20.92,0,0,1,167.61,358.62Zm3.15,6.44a2.68,2.68,0,0,1-.81,2,2.76,2.76,0,0,1-2.06.81,2.57,2.57,0,0,1-2-.81,2.73,2.73,0,0,1-.77-2V304a2.86,2.86,0,0,1,.8-2,2.84,2.84,0,0,1,4,0,2.92,2.92,0,0,1,.77,2Z"/><path class="cls-2" d="M157.83,200.86s-42.24,48.69-54.31,75.64S83.4,349.32,90.65,358.58s-12.48,23.73-12.48,23.73-11.66,11.27-2.81,23.74,27.76,0,27.76,0,3.22,10.06,17.7,8.85S149,409.27,149,408.06s14.49,9.69,26.15,9.47,49.09,4.21,68.4-5.85,14.48-4,14.48-4,28.17,5.63,30.18-4.43,5.63-.4,5.63-.4.81,4.83,19.72,3.62S328,395.59,328,395.59s-6-19.31-11.67-30.58-6.84-26.15-6.84-26.15-4.42-57.53-21.72-85.69-15.29-34.25-41.85-59.57c0,.25-18.75-2.72-40.23-1.59C186.72,193,157.83,200.86,157.83,200.86Z"/><path class="cls-3" d="M203.31,418.92c-6.68,0-13-.27-18.17-.5-4.09-.17-7.63-.33-10-.28-8.4.14-17.92-5.16-23.06-8-1.13-.63-2.29-1.27-2.81-1.48-2.28,2.29-16.82,5.9-28.41,6.86-12.52,1.05-17-6.23-18-8.57-3.38,2-19.8,11-28-.53-9.05-12.75,2.76-24.4,2.88-24.52s12.69-9.42,13.81-17.56A6.87,6.87,0,0,0,90.17,359c-7.64-9.77,1-56.35,12.8-82.7,12-26.72,54-75.29,54.41-75.78l.12-.14.18-.05c.29-.08,29.16-7.88,48-8.87a237.63,237.63,0,0,1,37.94,1.38l1.74.18v-.75l1,.94c18.92,18.05,23.32,26.23,30.61,39.78,3,5.51,6.32,11.76,11.33,19.91,17.18,28,21.77,85.39,21.82,86,0,.14,1.26,14.9,6.77,25.92,5.59,11.18,11.64,30.48,11.71,30.67a6.77,6.77,0,0,1-.45,5.91c-2,3.31-6.89,5.25-14.58,5.74-18.9,1.21-20.25-3.58-20.34-4.13-.58-1.51-1.86-3.73-2.65-3.67-.16,0-1,.28-1.8,4.09-2.1,10.53-29.71,5.14-30.88,4.9l-1-.19.61-.78a1.75,1.75,0,0,0,.41-.82c-.2-.1-2-.57-14.14,5.76C233.29,417.7,217.45,418.92,203.31,418.92Zm-27.28-2c2.35,0,5.54.14,9.16.3,16,.69,42.85,1.85,58.06-6.07,14.07-7.33,15.14-6,15.65-5.41a1.37,1.37,0,0,1,.08,1.48c4.65.83,26.93,4.31,28.62-4.1.67-3.35,1.58-5,2.89-5.06,2.05-.13,3.6,3.77,3.9,4.56,0,.13,1.33,4.37,19.11,3.23,7.15-.45,11.85-2.23,13.6-5.13a5.54,5.54,0,0,0,.37-4.88c-.09-.26-6.11-19.46-11.66-30.56s-6.89-26.22-6.9-26.37c0-.58-4.61-57.71-21.64-85.43-5-8.18-8.39-14.44-11.36-20-7.21-13.41-11.57-21.52-30.2-39.31-.37,0-1-.09-2.22-.22a237.75,237.75,0,0,0-37.75-1.38c-17.93.95-45.11,8.13-47.57,8.79-2.51,2.91-42.52,49.49-54.1,75.35-12.52,28-19.66,72.88-12.95,81.45a8.09,8.09,0,0,1,1.64,6.28c-1.19,8.65-13.7,17.93-14.23,18.32s-11.12,11-2.68,22.9,26.75,0,26.94-.15l.66-.44.24.76c.13.39,3.28,9.57,17.08,8.43s26.4-5.23,27.61-6.38v-.2l.34-.25c.51-.31,1.07,0,4,1.6,5,2.76,14.15,7.86,22.1,7.86H176Z"/><path class="cls-2" d="M241.82,165.31s3-13.58,13.28-20.82,8.6-2.27,14-10.56,13-22.79,15.24-22.48,6.79-24.6-3.32-26.86-30-3.62-37.12,0l-7.09,3.62A10.56,10.56,0,0,1,234,82.36c-.31-3.35-.61-12-22.18-13.61s-24,7.09-24,7.09,2.68,19.47,2.11,21.42c-.68,2.34-1.66,4.08-12.07,1.51s-5.58-8.6-19.61-7.84S142.09,95,138.32,95,122,91.68,106.64,98.32s3.47,24.59,7.69,26.55a70.88,70.88,0,0,1,27.16,20.37c11,13.43,17.79,32.17,17.79,32.17S200.26,164.25,241.82,165.31Z"/><path class="cls-3" d="M158.91,178.16l-.2-.54c-.07-.19-6.87-18.81-17.69-32a69.62,69.62,0,0,0-26.19-19.85l-.75-.35c-3-1.41-14.1-11.3-14-19.55,0-3.59,2.17-6.32,6.31-8.1,12.7-5.48,23.33-4.27,29-3.62,1.23.14,2.21.25,2.87.25a10.76,10.76,0,0,0,3.84-1c2.77-1,7-2.61,16-3.1,8.39-.44,10.28,1.48,12.48,3.7A13.21,13.21,0,0,0,178,98.19c10.29,2.53,10.8.77,11.35-1.1.39-1.33-1.1-13.69-2.13-21.17l0-.12,0-.12c.1-.38,2.8-9.21,24.61-7.53,21.64,1.66,22.4,10.27,22.72,13.94l0,.21A9.86,9.86,0,0,0,237,87.47l6.69-3.42c7.66-3.91,28.18-2.14,37.52,0,7.56,1.69,7.4,14.35,6.11,21.56-.54,3.07-1.49,6.69-3,6.48-1.29,0-6.07,8.06-9.23,13.37-1.84,3.09-3.75,6.28-5.43,8.85-3.28,5-4.11,5.35-6.34,6.26a35.92,35.92,0,0,0-7.85,4.46c-9.94,7-13,20.33-13,20.46l-.11.48h-.49c-41-1-81.94,12-82.35,12.08ZM126.8,94.77a49.59,49.59,0,0,0-19.92,4.1c-3.66,1.58-5.54,3.94-5.58,7-.11,7.62,10.5,17.15,13.29,18.45l.74.34A70.82,70.82,0,0,1,142,144.86c9.9,12.08,16.47,28.62,17.68,31.81,5-1.54,43.27-12.83,81.71-12,.65-2.54,4-14.09,13.4-20.7a36,36,0,0,1,8.09-4.58c2-.83,2.71-1.11,5.78-5.81,1.67-2.55,3.57-5.73,5.4-8.81,5.73-9.62,8.51-14,10.29-14h0c1-.8,3.26-9.94,2.06-17.53-.52-3.26-1.89-7.32-5.49-8.13-10.44-2.34-29.93-3.52-36.71-.05L236.73,89l-.31-.31a11.08,11.08,0,0,1-3-6.23V82.2c-.3-3.37-1-11.26-21.61-12.85C192.32,67.86,188.8,75,188.43,75.9c.35,2.59,2.65,19.56,2.07,21.53-.81,2.78-2.2,4.54-12.79,1.93a14.4,14.4,0,0,1-7.89-4.49c-2.07-2.1-3.71-3.76-11.55-3.34-8.9.48-13,2-15.69,3a11.72,11.72,0,0,1-4.26,1c-.73,0-1.73-.11-3-.25A71.26,71.26,0,0,0,126.8,94.77Z"/><path class="cls-3" d="M190,96.84a12.41,12.41,0,0,0,4.72-1,14,14,0,0,0,4-2.53c2.37-2.12,4-5,3.66-8.22a6,6,0,0,0-1.28-4.17A11,11,0,0,0,197,78.81l-4.67-1.51c-1.55-.54-3.11-1-4.65-1.63,1.61.32,3.21.71,4.81,1.07l4.79,1.19a10.67,10.67,0,0,1,4.65,2.16,5.22,5.22,0,0,1,1.35,2.38,10.43,10.43,0,0,1,.34,2.57,15,15,0,0,1-.15,2.57,9.19,9.19,0,0,1-.84,2.48,11.93,11.93,0,0,1-3.28,3.9A12.69,12.69,0,0,1,190,96.84Z"/><path class="cls-3" d="M170.29,94.31c2.47,3.87,4.73,7.87,6.89,11.94s4.1,8.24,5.86,12.5a78.54,78.54,0,0,1,4.5,13.13,44.6,44.6,0,0,1,1,13.86h-.24c-.83-4.55-1.87-8.92-3.09-13.28L183.31,126c-.59-2.19-1.34-4.34-2.07-6.5-1.51-4.29-3.27-8.51-5.15-12.68s-3.83-8.31-6-12.33Z"/><path class="cls-3" d="M154.72,117.08a82.12,82.12,0,0,0,9.6,11.62c1.77,1.79,3.58,3.44,5.47,5.16a32.87,32.87,0,0,1,5,6,50.7,50.7,0,0,1,3.67,6.85,61.59,61.59,0,0,1,2.55,7.28A47.67,47.67,0,0,1,183,169.18a77.59,77.59,0,0,0-3.73-14.6,63,63,0,0,0-6.44-13.38,32.75,32.75,0,0,0-4.58-5.68c-1.77-1.78-3.66-3.59-5.3-5.55A49.76,49.76,0,0,1,154.72,117.08Z"/><path class="cls-3" d="M202.62,88.82a47.28,47.28,0,0,1,7.66,12.06,36.69,36.69,0,0,1,2.19,6.9,36,36,0,0,1,.57,3.6l.29,3.57c.33,4.75.73,9.5.61,14.25a111.51,111.51,0,0,1-1.12,14.23h-.24c-.6-4.75-.85-9.48-1.06-14.21s0-9.46-.12-14.18l-.11-3.54a33,33,0,0,0-.36-3.43,34.53,34.53,0,0,0-1.78-6.74A46.16,46.16,0,0,0,202.44,89Z"/><path class="cls-3" d="M207.14,167.05a31.53,31.53,0,0,0,.68-3.43,34.59,34.59,0,0,0,.31-3.52,31.9,31.9,0,0,0-.49-7.09,32.42,32.42,0,0,1,1.09,7.09c.06,1.2.05,2.4,0,3.61a30.16,30.16,0,0,1-.41,3.62Z"/><path class="cls-3" d="M225.56,122.08a19.57,19.57,0,0,1,1.47-9,32.81,32.81,0,0,1,2-4.08,14,14,0,0,0,1.26-3.93c.11-.67.14-1.39.2-2.15l.2-2.22c.08-.74.14-1.48.23-2.22a20.85,20.85,0,0,1,.39-2.3c.76-3,2.21-6.12,5.19-7.7l1.24-.65-.65,1.28a7.51,7.51,0,0,0-.06,6.19,11.23,11.23,0,0,0,4.3,4.74,25.29,25.29,0,0,0,5.9,2.78,61.07,61.07,0,0,0,6.36,1.82,95.41,95.41,0,0,0,13,2.28,59.86,59.86,0,0,0,6.55.33,31.86,31.86,0,0,0,3.25-.17,19,19,0,0,0,3.09-.51l.15,0a11.27,11.27,0,0,0,3.17-1.2,8.61,8.61,0,0,0,2.62-2.22,8.82,8.82,0,0,0,1.5-3.15,12.92,12.92,0,0,0,.26-3.63l.24,0a11.23,11.23,0,0,1,.28,3.8,8.54,8.54,0,0,1-1.26,3.72,10.13,10.13,0,0,1-2.77,2.88,11.44,11.44,0,0,1-3.66,1.73l.15,0a26,26,0,0,1-6.93,1.24,52.73,52.73,0,0,1-6.89-.13,73.69,73.69,0,0,1-13.37-2.7,34.77,34.77,0,0,1-12.38-5.8,13.81,13.81,0,0,1-4.29-5.4,9.2,9.2,0,0,1-.06-6.9l.59.63a7.3,7.3,0,0,0-2.56,3.16,14.05,14.05,0,0,0-1.1,4c-.1.71-.14,1.4-.2,2.13s-.11,1.49-.17,2.23l-.2,2.24c-.08.72-.14,1.49-.29,2.29a13.91,13.91,0,0,1-1.66,4.48c-.83,1.34-1.57,2.49-2.23,3.81a24.26,24.26,0,0,0-2.64,8.32Z"/><path class="cls-3" d="M233.48,165c-.23-3.19-.28-6.32-.25-9.48s.2-6.3.55-9.43a63.66,63.66,0,0,1,1.6-9.3A34.84,34.84,0,0,1,238.8,128a34,34,0,0,0-2.83,8.87,63.94,63.94,0,0,0-1,9.26c-.14,3.1-.09,6.21.06,9.31s.42,6.21.84,9.24Z"/><path class="cls-4" d="M159.28,177.41s-9.19,3.94-7.28,7.46,3.51,3.62,3.51,3.62-4,2.48-3.77,6.44c.21,4.31,2.41,6.92,6.09,5.93,2.67-.71,33-7.12,45-8.52s31.82.2,31.82.2l9.13.79c2.62.72,3.79.08,5.58-.51a6.29,6.29,0,0,0,4.41-4.63c1.16-4.33-2.72-10.66-7.34-10.26-3,.26-1.58-2.41-.2-4.34a5.31,5.31,0,0,0-4.43-8.28C233.07,165.6,208.1,163.11,159.28,177.41Z"/><path class="cls-4" d="M200.75,387.86a24.75,24.75,0,0,1-9.1-1.54,24.27,24.27,0,0,1-7.55-4.89,4.48,4.48,0,0,1-.81-1.09,2.7,2.7,0,0,1-.31-1.29,2.86,2.86,0,0,1,.8-2,2.61,2.61,0,0,1,2-.87,2.4,2.4,0,0,1,1.75.77,20.09,20.09,0,0,0,5.91,4.06,17.67,17.67,0,0,0,7.17,1.4,15.09,15.09,0,0,0,5.56-1,9.8,9.8,0,0,0,4-2.73,6.13,6.13,0,0,0,1.47-4.06A7.1,7.1,0,0,0,210,370a12,12,0,0,0-4.34-3,35.14,35.14,0,0,0-6.4-2.07A38.31,38.31,0,0,1,193.3,363a17.83,17.83,0,0,1-4.66-2.76,11.47,11.47,0,0,1-3-4,13,13,0,0,1-1.08-5.49,12,12,0,0,1,2.09-7,13.72,13.72,0,0,1,5.81-4.66,21,21,0,0,1,8.54-1.64,23.3,23.3,0,0,1,8.08,1.4,15.63,15.63,0,0,1,6.13,3.85,3.72,3.72,0,0,1,1.4,2.59,2.68,2.68,0,0,1-.88,1.92,2.72,2.72,0,0,1-2,.88,2.06,2.06,0,0,1-1.4-.56,12.23,12.23,0,0,0-3-2.38,18.25,18.25,0,0,0-4-1.68,15.5,15.5,0,0,0-4.34-.63,15.71,15.71,0,0,0-5.67.94,8.8,8.8,0,0,0-3.81,2.66,6.4,6.4,0,0,0-1.37,4.1,6.32,6.32,0,0,0,1.54,4.37,11.4,11.4,0,0,0,4.13,2.8,45.37,45.37,0,0,0,5.74,1.92,54.54,54.54,0,0,1,6.33,1.93,19.19,19.19,0,0,1,5,2.69,10.81,10.81,0,0,1,3.25,4.09,14.51,14.51,0,0,1,1.16,6.13,11.5,11.5,0,0,1-2.17,6.86,14.64,14.64,0,0,1-5.92,4.72A20.68,20.68,0,0,1,200.75,387.86Zm3.15,6.44a2.75,2.75,0,0,1-.8,2,2.84,2.84,0,0,1-2.07.8,2.62,2.62,0,0,1-2-.8,2.81,2.81,0,0,1-.77-2v-61a2.82,2.82,0,0,1,.81-2,2.82,2.82,0,0,1,4,0,2.92,2.92,0,0,1,.77,2Z"/><path class="cls-5" d="M109,311a1.67,1.67,0,0,1-1.23-.48,1.55,1.55,0,0,1-.47-1.14V286.93l.47.56-4.58,2.76a1.59,1.59,0,0,1-.78.2,1.48,1.48,0,0,1-1.15-.54,1.58,1.58,0,0,1-.47-1.08,1.54,1.54,0,0,1,.83-1.38l6.43-3.83a2,2,0,0,1,1.18-.24,1.35,1.35,0,0,1,1.07.45,1.69,1.69,0,0,1,.39,1.13v24.43a1.52,1.52,0,0,1-.47,1.14A1.64,1.64,0,0,1,109,311Z"/><path class="cls-5" d="M126.08,311.4a8.14,8.14,0,0,1-5.47-1.85,11.44,11.44,0,0,1-3.31-5.09,24,24,0,0,1,0-14.57,11.42,11.42,0,0,1,3.31-5.05,9,9,0,0,1,10.93,0,11.32,11.32,0,0,1,3.3,5.05,24.67,24.67,0,0,1,0,14.57,11.34,11.34,0,0,1-3.3,5.09A8.14,8.14,0,0,1,126.08,311.4Zm0-3.19a5,5,0,0,0,3.53-1.35,8.4,8.4,0,0,0,2.19-3.8,23.46,23.46,0,0,0,0-11.77,8.36,8.36,0,0,0-2.19-3.79,5.39,5.39,0,0,0-7.07,0,8.56,8.56,0,0,0-2.21,3.79,22.87,22.87,0,0,0,0,11.77,8.6,8.6,0,0,0,2.21,3.8A5,5,0,0,0,126.08,308.21Z"/><path class="cls-5" d="M160.65,311.4a8.14,8.14,0,0,1-5.46-1.85,11.37,11.37,0,0,1-3.32-5.09,24.25,24.25,0,0,1,0-14.57,11.35,11.35,0,0,1,3.32-5.05,9,9,0,0,1,10.93,0,11.22,11.22,0,0,1,3.29,5.05,24.46,24.46,0,0,1,0,14.57,11.25,11.25,0,0,1-3.29,5.09A8.14,8.14,0,0,1,160.65,311.4Zm0-3.19a5,5,0,0,0,3.53-1.35,8.4,8.4,0,0,0,2.19-3.8,23.46,23.46,0,0,0,0-11.77,8.36,8.36,0,0,0-2.19-3.79,5.38,5.38,0,0,0-7.06,0,8.47,8.47,0,0,0-2.21,3.79,22.87,22.87,0,0,0,0,11.77,8.51,8.51,0,0,0,2.21,3.8A5,5,0,0,0,160.65,308.21Z"/><path class="cls-5" d="M184.37,311.4a8.14,8.14,0,0,1-5.46-1.85,11.46,11.46,0,0,1-3.32-5.09,24.25,24.25,0,0,1,0-14.57,11.43,11.43,0,0,1,3.32-5.05,9,9,0,0,1,10.93,0,11.22,11.22,0,0,1,3.29,5.05,24.46,24.46,0,0,1,0,14.57,11.25,11.25,0,0,1-3.29,5.09A8.14,8.14,0,0,1,184.37,311.4Zm0-3.19a5,5,0,0,0,3.53-1.35,8.32,8.32,0,0,0,2.2-3.8,23.46,23.46,0,0,0,0-11.77,8.28,8.28,0,0,0-2.2-3.79,5.38,5.38,0,0,0-7.06,0,8.47,8.47,0,0,0-2.21,3.79,22.87,22.87,0,0,0,0,11.77,8.51,8.51,0,0,0,2.21,3.8A5,5,0,0,0,184.37,308.21Z"/><path class="cls-5" d="M208.09,311.4a8.14,8.14,0,0,1-5.46-1.85,11.46,11.46,0,0,1-3.32-5.09,24.25,24.25,0,0,1,0-14.57,11.43,11.43,0,0,1,3.32-5.05,9,9,0,0,1,10.93,0,11.32,11.32,0,0,1,3.3,5.05,24.67,24.67,0,0,1,0,14.57,11.34,11.34,0,0,1-3.3,5.09A8.14,8.14,0,0,1,208.09,311.4Zm0-3.19a5,5,0,0,0,3.54-1.35,8.4,8.4,0,0,0,2.19-3.8,23.46,23.46,0,0,0,0-11.77,8.36,8.36,0,0,0-2.19-3.79,5.39,5.39,0,0,0-7.07,0,8.47,8.47,0,0,0-2.21,3.79,22.87,22.87,0,0,0,0,11.77,8.51,8.51,0,0,0,2.21,3.8A5,5,0,0,0,208.09,308.21Z"/><path class="cls-5" d="M242.67,311.4a8.14,8.14,0,0,1-5.47-1.85,11.44,11.44,0,0,1-3.31-5.09,24,24,0,0,1,0-14.57,11.42,11.42,0,0,1,3.31-5.05,9,9,0,0,1,10.93,0,11.32,11.32,0,0,1,3.3,5.05,24.67,24.67,0,0,1,0,14.57,11.34,11.34,0,0,1-3.3,5.09A8.14,8.14,0,0,1,242.67,311.4Zm0-3.19a5,5,0,0,0,3.53-1.35,8.4,8.4,0,0,0,2.19-3.8,23.46,23.46,0,0,0,0-11.77,8.36,8.36,0,0,0-2.19-3.79,5.39,5.39,0,0,0-7.07,0,8.56,8.56,0,0,0-2.21,3.79,22.87,22.87,0,0,0,0,11.77,8.6,8.6,0,0,0,2.21,3.8A5,5,0,0,0,242.67,308.21Z"/><path class="cls-5" d="M266.39,311.4a8.14,8.14,0,0,1-5.47-1.85,11.44,11.44,0,0,1-3.31-5.09,24,24,0,0,1,0-14.57,11.42,11.42,0,0,1,3.31-5.05,9,9,0,0,1,10.94,0,11.3,11.3,0,0,1,3.29,5.05,24.46,24.46,0,0,1,0,14.57,11.33,11.33,0,0,1-3.29,5.09A8.18,8.18,0,0,1,266.39,311.4Zm0-3.19a5,5,0,0,0,3.53-1.35,8.4,8.4,0,0,0,2.19-3.8,23.46,23.46,0,0,0,0-11.77,8.36,8.36,0,0,0-2.19-3.79,5.38,5.38,0,0,0-7.06,0,8.47,8.47,0,0,0-2.21,3.79,22.87,22.87,0,0,0,0,11.77,8.51,8.51,0,0,0,2.21,3.8A5,5,0,0,0,266.39,308.21Z"/><path class="cls-5" d="M290.11,311.4a8.14,8.14,0,0,1-5.47-1.85,11.44,11.44,0,0,1-3.31-5.09,24,24,0,0,1,0-14.57,11.42,11.42,0,0,1,3.31-5.05,9,9,0,0,1,10.94,0,11.3,11.3,0,0,1,3.29,5.05,24.46,24.46,0,0,1,0,14.57,11.33,11.33,0,0,1-3.29,5.09A8.16,8.16,0,0,1,290.11,311.4Zm0-3.19a5,5,0,0,0,3.53-1.35,8.4,8.4,0,0,0,2.19-3.8,23.46,23.46,0,0,0,0-11.77,8.36,8.36,0,0,0-2.19-3.79,5.38,5.38,0,0,0-7.06,0,8.47,8.47,0,0,0-2.21,3.79,22.87,22.87,0,0,0,0,11.77,8.51,8.51,0,0,0,2.21,3.8A5,5,0,0,0,290.11,308.21Z"/></g></g></svg>