<svg xmlns="http://www.w3.org/2000/svg" viewBox="0 0 329.08 426.26"><defs><style>.cls-1{fill:none;}.cls-2{fill:#d3f7a4;}.cls-3{fill:#58d313;}.cls-4{fill:#25a5dd;}.cls-5{fill:#363026;}</style></defs><g id="Layer_2" data-name="Layer 2"><g id="Layer_1-2" data-name="Layer 1"><rect class="cls-1" width="329.08" height="426.26"/><path class="cls-2" d="M82.81,121.28s-38.54,44.41-49.55,69-18.35,66.44-11.74,74.88-11.38,21.66-11.38,21.66S-.51,297.1,7.57,308.48s25.32,0,25.32,0,2.94,9.17,16.16,8.07,25.69-5.14,25.69-6.24S88,319.15,98.6,319s44.78,3.84,62.4-5.33S174.21,310,174.21,310s25.7,5.13,27.53-4,5.14-.37,5.14-.37.74,4.41,18,3.3,13.21-9.91,13.21-9.91-5.5-17.61-10.64-27.89-6.24-23.86-6.24-23.86-4-52.49-19.82-78.19-13.95-31.24-38.18-54.34c0,.23-17.11-2.48-36.71-1.45C109.17,114.11,82.81,121.28,82.81,121.28Z"/><path class="cls-3" d="M124.31,320.22c-6.1,0-11.86-.25-16.59-.46-3.73-.16-7-.3-9.11-.26-7.66.13-16.35-4.7-21-7.31-1-.57-2.09-1.16-2.56-1.35-2.08,2.09-15.34,5.38-25.92,6.26-11.42,1-15.46-5.69-16.45-7.82-3.09,1.85-18.07,10-25.52-.48-8.26-11.63,2.52-22.27,2.63-22.37s11.58-8.6,12.6-16a6.28,6.28,0,0,0-1.27-4.9c-7-8.91.92-51.4,11.68-75.44C43.68,165.67,82,121.36,82.4,120.91l.11-.12.16-.05c.26-.07,26.61-7.18,43.8-8.09a216.28,216.28,0,0,1,34.61,1.26l1.58.17,0-.69.9.86c17.27,16.46,21.28,23.93,27.93,36.29,2.7,5,5.77,10.73,10.33,18.17,15.68,25.51,19.87,77.9,19.91,78.43,0,.13,1.15,13.59,6.18,23.65s10.62,27.8,10.68,28a6.19,6.19,0,0,1-.41,5.39c-1.81,3-6.28,4.79-13.3,5.23-17.24,1.11-18.48-3.26-18.56-3.76-.53-1.38-1.69-3.41-2.41-3.35-.16,0-1,.25-1.65,3.74-1.92,9.6-27.1,4.68-28.17,4.47l-.89-.18.56-.71a1.54,1.54,0,0,0,.37-.75c-.18-.09-1.81-.52-12.9,5.25C151.65,319.11,137.2,320.22,124.31,320.22ZM99.42,318.4c2.14,0,5,.12,8.35.26,14.62.64,39.09,1.7,53-5.53,12.84-6.69,13.82-5.5,14.28-4.94a1.29,1.29,0,0,1,.07,1.36c4.24.75,24.58,3.93,26.11-3.75.61-3.05,1.45-4.52,2.64-4.61,1.87-.12,3.29,3.44,3.56,4.16,0,.12,1.21,4,17.43,2.95,6.53-.42,10.82-2,12.41-4.69a5,5,0,0,0,.34-4.45c-.08-.24-5.58-17.76-10.64-27.88s-6.28-23.92-6.29-24.06c0-.52-4.21-52.65-19.74-77.94-4.59-7.46-7.66-13.17-10.37-18.21C184,138.83,180,131.44,163,115.2c-.34,0-.93-.07-2-.19a215.46,215.46,0,0,0-34.44-1.26c-16.36.86-41.16,7.41-43.4,8-2.29,2.66-38.79,45.16-49.36,68.75C22.34,216,15.83,257,22,264.82a7.33,7.33,0,0,1,1.49,5.73c-1.08,7.9-12.49,16.36-13,16.72S.31,297.31,8,308.16s24.4,0,24.57-.14l.6-.4.23.69c.11.36,3,8.73,15.58,7.69s24.08-4.76,25.19-5.82V310l.31-.23c.47-.28,1,0,3.61,1.46,4.53,2.52,12.91,7.18,20.17,7.18h1.14Z"/><path class="cls-2" d="M159.44,88.84s2.75-12.39,12.11-19,7.85-2.06,12.8-9.63,11.84-20.79,13.91-20.51,6.19-22.44-3-24.5-27.39-3.31-33.86,0l-6.47,3.3a9.66,9.66,0,0,1-2.62-5.34C152,10.1,151.73,2.26,132.05.74s-21.89,6.47-21.89,6.47,2.45,17.77,1.93,19.55c-.63,2.13-1.52,3.71-11,1.37S96,20.29,83.18,21,68.45,24.69,65,24.69s-14.86-3-28.9,3,3.16,22.44,7,24.23A64.68,64.68,0,0,1,67.9,70.53C78,82.78,84.13,99.88,84.13,99.88S121.52,87.87,159.44,88.84Z"/><path class="cls-3" d="M83.79,100.57l-.18-.5c-.06-.17-6.26-17.16-16.13-29.19a63.73,63.73,0,0,0-23.9-18.12l-.69-.31C40.13,51.16,30,42.14,30.13,34.61c.05-3.28,2-5.77,5.76-7.39,11.59-5,21.29-3.9,26.5-3.31,1.13.13,2,.23,2.62.23a9.93,9.93,0,0,0,3.5-.88c2.53-1,6.35-2.39,14.64-2.83,7.65-.41,9.38,1.34,11.38,3.37a12.1,12.1,0,0,0,6.68,3.8c9.38,2.31,9.85.7,10.35-1,.35-1.21-1-12.49-1.94-19.31l0-.11,0-.11c.09-.35,2.56-8.41,22.46-6.88,19.74,1.52,20.43,9.37,20.72,12.72l0,.2A8.85,8.85,0,0,0,155,17.82l6.09-3.11c7-3.57,25.72-2,34.24-.05,6.89,1.54,6.75,13.09,5.58,19.66-.5,2.8-1.37,6.11-2.75,5.92-1.17,0-5.53,7.36-8.42,12.2-1.68,2.81-3.41,5.72-4.95,8.07-3,4.57-3.75,4.89-5.78,5.72a32.06,32.06,0,0,0-7.16,4.06C162.8,76.69,160,88.84,160,89l-.1.44h-.46c-37.39-.94-74.75,10.89-75.12,11ZM54.5,24.48a45.37,45.37,0,0,0-18.18,3.75c-3.34,1.44-5.05,3.59-5.09,6.39-.09,7,9.59,15.65,12.13,16.83l.68.31A64.68,64.68,0,0,1,68.33,70.18c9,11,15,26.11,16.14,29C89,97.8,123.94,87.5,159,88.28c.59-2.32,3.69-12.86,12.22-18.89a33.29,33.29,0,0,1,7.38-4.18c1.85-.76,2.47-1,5.28-5.3,1.52-2.33,3.25-5.23,4.93-8,5.23-8.77,7.76-12.73,9.38-12.73h0c.93-.73,3-9.06,1.88-16-.47-3-1.73-6.68-5-7.42-9.52-2.13-27.3-3.21-33.49,0l-6.83,3.48-.28-.28a10.08,10.08,0,0,1-2.78-5.68l0-.2c-.26-3.07-.89-10.27-19.71-11.72-17.72-1.36-20.93,5.12-21.28,6,.33,2.36,2.42,17.84,1.9,19.64-.75,2.53-2,4.14-11.68,1.76a13.16,13.16,0,0,1-7.19-4.1c-1.89-1.92-3.38-3.43-10.54-3-8.12.43-11.84,1.83-14.31,2.76a10.91,10.91,0,0,1-3.89.95c-.66,0-1.58-.1-2.74-.23A64.67,64.67,0,0,0,54.5,24.48Z"/><path class="cls-3" d="M112.16,26.37a11.3,11.3,0,0,0,4.31-.93,13,13,0,0,0,3.69-2.31,8.89,8.89,0,0,0,3.33-7.49,5.38,5.38,0,0,0-1.17-3.81,10.12,10.12,0,0,0-3.76-1.91l-4.27-1.37c-1.41-.5-2.83-1-4.24-1.49,1.47.29,2.93.65,4.39,1l4.38,1.09a9.76,9.76,0,0,1,4.24,2,4.76,4.76,0,0,1,1.22,2.17,9.61,9.61,0,0,1,.31,2.35,12.43,12.43,0,0,1-.13,2.34,8.38,8.38,0,0,1-.77,2.26,10.76,10.76,0,0,1-3,3.56A11.57,11.57,0,0,1,112.16,26.37Z"/><path class="cls-3" d="M94.17,24.06c2.26,3.54,4.33,7.19,6.29,10.89s3.74,7.52,5.35,11.42a70.43,70.43,0,0,1,4.1,12A40.49,40.49,0,0,1,110.82,71h-.22c-.75-4.15-1.7-8.14-2.82-12.11l-1.73-6c-.53-2-1.21-4-1.88-5.93-1.38-3.92-3-7.76-4.7-11.57S96,27.85,94,24.18Z"/><path class="cls-3" d="M80,44.84a75.92,75.92,0,0,0,8.76,10.6c1.62,1.63,3.26,3.14,5,4.71a30.06,30.06,0,0,1,4.6,5.49,46.94,46.94,0,0,1,3.35,6.25A56.78,56.78,0,0,1,104,78.53a43.67,43.67,0,0,1,1.77,13.84,71.49,71.49,0,0,0-3.4-13.32,57.94,57.94,0,0,0-5.88-12.2,29.67,29.67,0,0,0-4.19-5.19C90.68,60,89,58.39,87.47,56.6A45.37,45.37,0,0,1,80,44.84Z"/><path class="cls-3" d="M123.68,19.05a43.26,43.26,0,0,1,7,11,32.9,32.9,0,0,1,2.52,9.58l.27,3.25c.3,4.33.67,8.67.55,13a101.19,101.19,0,0,1-1,13h-.22c-.55-4.33-.78-8.65-1-13s0-8.63-.11-12.93l-.1-3.23a30.13,30.13,0,0,0-.34-3.14,30.72,30.72,0,0,0-1.62-6.14,42.1,42.1,0,0,0-6.12-11.27Z"/><path class="cls-3" d="M127.8,90.42a24.24,24.24,0,0,0,.61-3.12,31.56,31.56,0,0,0,.29-3.22,29.85,29.85,0,0,0-.44-6.46,29.86,29.86,0,0,1,1,6.46c.05,1.1.05,2.2,0,3.3a27.3,27.3,0,0,1-.38,3.31Z"/><path class="cls-3" d="M144.6,49.4A18,18,0,0,1,146,41.23a30.52,30.52,0,0,1,1.8-3.72,12.66,12.66,0,0,0,1.15-3.59c.1-.6.13-1.26.19-2l.18-2c.06-.68.12-1.35.21-2a17.35,17.35,0,0,1,.35-2.1c.69-2.74,2-5.58,4.74-7l1.12-.59-.58,1.16a6.79,6.79,0,0,0-.06,5.65A10.15,10.15,0,0,0,159,29.33a23.36,23.36,0,0,0,5.39,2.55,55.2,55.2,0,0,0,5.8,1.65,86.53,86.53,0,0,0,11.89,2.08,54.43,54.43,0,0,0,6,.3,29.39,29.39,0,0,0,3-.15,17.1,17.1,0,0,0,2.82-.47l.13,0a10.4,10.4,0,0,0,2.9-1.1,7.52,7.52,0,0,0,3.75-4.9,11.38,11.38,0,0,0,.24-3.31l.22,0a10.25,10.25,0,0,1,.25,3.46,7.65,7.65,0,0,1-1.15,3.4,9.39,9.39,0,0,1-2.52,2.62A10.39,10.39,0,0,1,194.3,37l.13,0a22.88,22.88,0,0,1-6.32,1.13,47,47,0,0,1-6.28-.11,67.83,67.83,0,0,1-12.2-2.47,31.63,31.63,0,0,1-11.3-5.29,12.66,12.66,0,0,1-3.91-4.93,8.35,8.35,0,0,1,0-6.29l.54.57a6.64,6.64,0,0,0-2.34,2.89,12.37,12.37,0,0,0-1,3.7c-.1.64-.13,1.27-.19,1.94s-.1,1.36-.15,2l-.19,2c-.07.66-.12,1.36-.26,2.1a12.48,12.48,0,0,1-1.52,4.09c-.75,1.21-1.43,2.26-2,3.47a22,22,0,0,0-2.41,7.59Z"/><path class="cls-3" d="M151.83,88.55c-.21-2.91-.26-5.77-.22-8.65s.18-5.75.49-8.6a59.33,59.33,0,0,1,1.47-8.49,31.09,31.09,0,0,1,3.12-8,30.81,30.81,0,0,0-2.59,8.09,58.36,58.36,0,0,0-.9,8.45c-.13,2.83-.08,5.66.06,8.49s.38,5.67.76,8.43Z"/><path class="cls-4" d="M84.13,99.88s-8.38,3.59-6.64,6.81,3.2,3.3,3.2,3.3-3.61,2.26-3.44,5.87c.19,3.93,2.2,6.32,5.56,5.42,2.44-.66,30.16-6.5,41.08-7.78s29,.18,29,.18l8.33.73c2.39.65,3.46.07,5.1-.47a5.78,5.78,0,0,0,4-4.23c1-3.95-2.48-9.72-6.7-9.36-2.72.24-1.44-2.2-.18-3.95a4.85,4.85,0,0,0-4-7.56C151.45,89.1,128.67,86.83,84.13,99.88Z"/><path class="cls-4" d="M122,291.89a22.51,22.51,0,0,1-8.3-1.41,22.16,22.16,0,0,1-6.9-4.47,4.37,4.37,0,0,1-.73-1,2.48,2.48,0,0,1-.29-1.18,2.62,2.62,0,0,1,.74-1.82,2.36,2.36,0,0,1,1.82-.8,2.2,2.2,0,0,1,1.59.71,18.33,18.33,0,0,0,5.4,3.7,16.1,16.1,0,0,0,6.54,1.28,13.68,13.68,0,0,0,5.08-.9,8.67,8.67,0,0,0,3.6-2.49,5.55,5.55,0,0,0,1.34-3.7,6.42,6.42,0,0,0-1.5-4.21,10.86,10.86,0,0,0-4-2.78,33,33,0,0,0-5.85-1.89,35.14,35.14,0,0,1-5.39-1.72,16.2,16.2,0,0,1-4.25-2.52,10.35,10.35,0,0,1-2.77-3.64,11.85,11.85,0,0,1-1-5,10.93,10.93,0,0,1,1.91-6.39,12.41,12.41,0,0,1,5.3-4.24,19.06,19.06,0,0,1,7.79-1.5,21.22,21.22,0,0,1,7.37,1.27,14.37,14.37,0,0,1,5.59,3.52,3.39,3.39,0,0,1,1.28,2.36,2.43,2.43,0,0,1-.8,1.75,2.48,2.48,0,0,1-1.82.8,1.9,1.9,0,0,1-1.28-.51,11.08,11.08,0,0,0-2.74-2.17,16.24,16.24,0,0,0-3.64-1.53,14.87,14.87,0,0,0-9.13.29,8,8,0,0,0-3.48,2.42,5.84,5.84,0,0,0-1.25,3.74,5.76,5.76,0,0,0,1.41,4,10.27,10.27,0,0,0,3.77,2.55,40.49,40.49,0,0,0,5.23,1.76,51.44,51.44,0,0,1,5.78,1.75,17.47,17.47,0,0,1,4.56,2.46,9.77,9.77,0,0,1,3,3.74,13.22,13.22,0,0,1,1.06,5.58,10.44,10.44,0,0,1-2,6.26,13.38,13.38,0,0,1-5.4,4.31A19.14,19.14,0,0,1,122,291.89Zm2.87,5.87a2.47,2.47,0,0,1-.73,1.82,2.55,2.55,0,0,1-1.89.73,2.34,2.34,0,0,1-1.78-.73,2.54,2.54,0,0,1-.71-1.82V242.09a2.57,2.57,0,0,1,.74-1.85,2.57,2.57,0,0,1,3.67,0,2.62,2.62,0,0,1,.7,1.85Z"/><path class="cls-2" d="M112.37,161.3s-38.54,44.41-49.55,69-18.35,66.43-11.74,74.88S39.7,326.84,39.7,326.84s-10.65,10.28-2.57,21.66,25.32,0,25.32,0,2.94,9.18,16.16,8.08,25.69-5.14,25.69-6.24,13.21,8.83,23.86,8.64,44.78,3.84,62.4-5.34S203.77,350,203.77,350s25.7,5.14,27.53-4,5.14-.37,5.14-.37.74,4.41,18,3.31S267.64,339,267.64,339s-5.5-17.62-10.64-27.9-6.24-23.86-6.24-23.86-4-52.49-19.82-78.18S217,177.77,192.76,154.67c0,.23-17.11-2.48-36.7-1.45C138.73,154.14,112.37,161.3,112.37,161.3Z"/><path class="cls-3" d="M153.87,360.24c-6.1,0-11.86-.25-16.59-.45-3.73-.16-6.95-.31-9.11-.26-7.66.13-16.35-4.71-21-7.32-1-.57-2.09-1.16-2.56-1.35-2.08,2.1-15.34,5.38-25.92,6.26-11.42,1-15.46-5.69-16.45-7.81-3.09,1.84-18.07,10-25.52-.49-8.26-11.63,2.52-22.27,2.63-22.37s11.58-8.6,12.6-16a6.26,6.26,0,0,0-1.27-4.89c-7-8.92.92-51.41,11.68-75.45,10.92-24.38,49.25-68.7,49.64-69.14l.11-.13.16,0c.26-.07,26.61-7.19,43.8-8.1a218.76,218.76,0,0,1,34.61,1.26l1.58.17,0-.69.9.86c17.27,16.47,21.28,23.93,27.93,36.3,2.7,5,5.77,10.72,10.33,18.16,15.68,25.51,19.87,77.9,19.91,78.43,0,.13,1.15,13.59,6.18,23.65s10.62,27.81,10.68,28a6.19,6.19,0,0,1-.41,5.39c-1.81,3-6.28,4.79-13.3,5.24-17.24,1.1-18.48-3.26-18.56-3.77-.53-1.38-1.69-3.4-2.41-3.34-.16,0-1,.25-1.65,3.73-1.92,9.61-27.1,4.68-28.17,4.47l-.89-.18.56-.7a1.6,1.6,0,0,0,.37-.76c-.18-.09-1.81-.51-12.9,5.26C181.21,359.13,166.77,360.24,153.87,360.24ZM129,358.42c2.14,0,5.05.12,8.35.27,14.62.63,39.09,1.69,53-5.54,12.84-6.68,13.82-5.5,14.28-4.93a1.27,1.27,0,0,1,.07,1.35c4.24.75,24.58,3.93,26.11-3.75.61-3.05,1.45-4.51,2.64-4.61,1.87-.12,3.29,3.44,3.56,4.16,0,.12,1.21,4,17.43,2.95,6.53-.42,10.82-2,12.41-4.69a5.05,5.05,0,0,0,.34-4.45c-.08-.23-5.58-17.75-10.64-27.87s-6.28-23.93-6.29-24.06c0-.53-4.21-52.66-19.74-77.94-4.59-7.47-7.66-13.18-10.37-18.22-6.58-12.23-10.55-19.63-27.55-35.86-.34,0-.93-.08-2-.2a215.46,215.46,0,0,0-34.44-1.26c-16.36.87-41.16,7.42-43.4,8-2.29,2.65-38.79,45.15-49.36,68.74C51.9,256,45.39,297,51.51,304.85A7.3,7.3,0,0,1,53,310.57c-1.08,7.9-12.49,16.36-13,16.72s-10.15,10-2.44,20.89,24.4,0,24.57-.14l.6-.4.23.69c.11.36,3,8.73,15.58,7.7s24.08-4.77,25.19-5.82V350l.31-.23c.47-.27,1,0,3.61,1.46,4.53,2.52,12.91,7.18,20.17,7.18H129Z"/><path class="cls-2" d="M189,128.86s2.75-12.39,12.11-19,7.85-2.06,12.8-9.63,11.84-20.79,13.91-20.51,6.19-22.44-3-24.5-27.39-3.31-33.86,0l-6.47,3.3a9.66,9.66,0,0,1-2.62-5.34c-.27-3-.55-10.9-20.23-12.41s-21.89,6.46-21.89,6.46,2.45,17.77,1.93,19.55c-.63,2.13-1.52,3.72-11,1.38s-5.1-7.85-17.9-7.16S98,64.72,94.57,64.72s-14.86-3-28.9,3,3.16,22.44,7,24.23a64.68,64.68,0,0,1,24.77,18.58c10.05,12.25,16.23,29.35,16.23,29.35S151.08,127.9,189,128.86Z"/><path class="cls-3" d="M113.35,140.59l-.18-.5c-.06-.17-6.26-17.15-16.13-29.19a63.55,63.55,0,0,0-23.9-18.11l-.69-.32c-2.76-1.29-12.86-10.31-12.76-17.84.05-3.28,2-5.76,5.76-7.39,11.59-5,21.29-3.9,26.5-3.3,1.13.12,2,.23,2.62.23a10,10,0,0,0,3.5-.89c2.53-1,6.35-2.38,14.64-2.83,7.65-.41,9.38,1.34,11.38,3.37a12.1,12.1,0,0,0,6.68,3.8c9.38,2.31,9.85.71,10.35-1,.35-1.22-1-12.5-1.94-19.32l0-.11,0-.11c.1-.35,2.56-8.41,22.46-6.87,19.74,1.52,20.43,9.37,20.72,12.72l0,.19a8.92,8.92,0,0,0,2.19,4.71l6.1-3.11c7-3.57,25.71-2,34.23,0,6.89,1.54,6.75,13.09,5.58,19.67-.5,2.8-1.37,6.1-2.75,5.92-1.17,0-5.53,7.35-8.42,12.19-1.68,2.82-3.41,5.73-4.95,8.07-3,4.58-3.75,4.89-5.78,5.72a32.06,32.06,0,0,0-7.16,4.06c-9.07,6.41-11.87,18.55-11.89,18.67l-.1.44H189c-37.39-.94-74.75,10.9-75.12,11ZM84.06,64.51a45.34,45.34,0,0,0-18.18,3.74c-3.34,1.44-5,3.59-5.09,6.39-.09,7,9.59,15.65,12.13,16.83l.68.31A64.79,64.79,0,0,1,97.89,110.2c9,11,15,26.12,16.14,29,4.56-1.4,39.47-11.7,74.54-10.92.59-2.32,3.69-12.86,12.22-18.89a33.29,33.29,0,0,1,7.38-4.18c1.85-.76,2.47-1,5.28-5.3,1.52-2.33,3.25-5.23,4.93-8,5.23-8.78,7.76-12.73,9.38-12.73h0c.93-.74,3-9.07,1.88-16-.47-3-1.73-6.69-5-7.42-9.52-2.14-27.3-3.21-33.49,0l-6.83,3.48-.28-.27a10.13,10.13,0,0,1-2.78-5.69V53c-.27-3.07-.9-10.27-19.72-11.72-17.72-1.36-20.93,5.12-21.28,6,.33,2.36,2.42,17.84,1.9,19.65-.75,2.52-2,4.13-11.68,1.75a13.13,13.13,0,0,1-7.19-4.1c-1.89-1.91-3.38-3.43-10.54-3-8.12.44-11.84,1.83-14.31,2.76a10.93,10.93,0,0,1-3.89,1c-.66,0-1.58-.11-2.74-.24A67.14,67.14,0,0,0,84.06,64.51Z"/><path class="cls-3" d="M141.72,66.39a11.12,11.12,0,0,0,4.31-.93,13,13,0,0,0,3.69-2.31,8.89,8.89,0,0,0,3.33-7.49,5.38,5.38,0,0,0-1.17-3.81,10,10,0,0,0-3.76-1.9l-4.26-1.38c-1.42-.5-2.84-1-4.25-1.49,1.47.29,2.93.65,4.39,1l4.38,1.09a10,10,0,0,1,4.24,2,4.81,4.81,0,0,1,1.22,2.17,9.61,9.61,0,0,1,.31,2.35A12.58,12.58,0,0,1,154,58a8.44,8.44,0,0,1-.77,2.25,10.9,10.9,0,0,1-3,3.57A11.6,11.6,0,0,1,141.72,66.39Z"/><path class="cls-3" d="M123.73,64.09C126,67.62,128.06,71.27,130,75s3.74,7.53,5.35,11.42a70.43,70.43,0,0,1,4.1,12,40.51,40.51,0,0,1,.91,12.65h-.22c-.75-4.14-1.7-8.13-2.82-12.11l-1.73-6c-.53-2-1.21-4-1.88-5.93-1.38-3.92-3-7.76-4.7-11.56s-3.49-7.59-5.48-11.26Z"/><path class="cls-3" d="M109.53,84.86a75.92,75.92,0,0,0,8.76,10.6c1.62,1.63,3.26,3.14,5,4.71a30.06,30.06,0,0,1,4.6,5.49,47.56,47.56,0,0,1,3.35,6.25,58.21,58.21,0,0,1,2.33,6.65,43.88,43.88,0,0,1,1.76,13.83,71.49,71.49,0,0,0-3.4-13.32,57.94,57.94,0,0,0-5.88-12.2,29.67,29.67,0,0,0-4.19-5.19c-1.61-1.62-3.33-3.27-4.82-5.06A45.2,45.2,0,0,1,109.53,84.86Z"/><path class="cls-3" d="M153.24,59.07a43.26,43.26,0,0,1,7,11,33.61,33.61,0,0,1,2,6.29,33.11,33.11,0,0,1,.52,3.29l.27,3.25c.3,4.34.67,8.67.55,13a101.18,101.18,0,0,1-1,13h-.22c-.55-4.33-.78-8.65-1-13s0-8.63-.11-12.94l-.1-3.23a31.71,31.71,0,0,0-2-9.28,42.1,42.1,0,0,0-6.12-11.27Z"/><path class="cls-3" d="M157.36,130.45a24.4,24.4,0,0,0,.61-3.13,31.37,31.37,0,0,0,.29-3.21,29.9,29.9,0,0,0-.44-6.47,29.86,29.86,0,0,1,1,6.46c.05,1.1.05,2.2,0,3.3a29.4,29.4,0,0,1-.37,3.31Z"/><path class="cls-3" d="M174.16,89.42a17.93,17.93,0,0,1,1.35-8.16,31.4,31.4,0,0,1,1.8-3.73A12.59,12.59,0,0,0,178.46,74c.1-.61.13-1.27.19-2l.18-2c.06-.67.12-1.35.21-2a17,17,0,0,1,.35-2.1c.69-2.74,2-5.58,4.74-7l1.12-.6-.58,1.17a6.77,6.77,0,0,0-.06,5.64,10.18,10.18,0,0,0,3.92,4.33,23.75,23.75,0,0,0,5.39,2.54,55.2,55.2,0,0,0,5.8,1.65,88.1,88.1,0,0,0,11.89,2.09,54.41,54.41,0,0,0,6,.29,29.39,29.39,0,0,0,3-.15,17.12,17.12,0,0,0,2.82-.46l.13,0a10.69,10.69,0,0,0,2.9-1.09,8,8,0,0,0,2.38-2,7.75,7.75,0,0,0,1.37-2.88A11.38,11.38,0,0,0,230.4,66l.22,0a10.31,10.31,0,0,1,.25,3.47,7.65,7.65,0,0,1-1.15,3.39,9.25,9.25,0,0,1-2.52,2.62A10.39,10.39,0,0,1,223.86,77l.14,0a23.79,23.79,0,0,1-6.33,1.13,47,47,0,0,1-6.28-.12,67.81,67.81,0,0,1-12.2-2.46,31.82,31.82,0,0,1-11.3-5.3A12.63,12.63,0,0,1,184,65.3a8.37,8.37,0,0,1,0-6.3l.54.57a6.7,6.7,0,0,0-2.34,2.89,12.37,12.37,0,0,0-1,3.7c-.1.64-.13,1.28-.19,1.94s-.1,1.36-.15,2l-.19,2c-.07.67-.12,1.37-.26,2.1a12.48,12.48,0,0,1-1.52,4.09c-.75,1.21-1.43,2.26-2,3.47a22,22,0,0,0-2.41,7.59Z"/><path class="cls-3" d="M181.39,128.57c-.21-2.91-.26-5.77-.22-8.65s.18-5.74.49-8.6a59.2,59.2,0,0,1,1.47-8.48,31,31,0,0,1,3.12-8,31,31,0,0,0-2.59,8.09,58.51,58.51,0,0,0-.9,8.45c-.13,2.83-.08,5.67.06,8.49s.38,5.67.76,8.43Z"/><path class="cls-4" d="M113.69,139.9s-8.38,3.6-6.64,6.81,3.2,3.3,3.2,3.3-3.61,2.26-3.44,5.87c.19,3.94,2.2,6.32,5.56,5.42,2.44-.66,30.16-6.5,41.08-7.77s29,.17,29,.17l8.33.73c2.39.65,3.46.07,5.1-.47a5.75,5.75,0,0,0,4-4.22c1.05-4-2.48-9.73-6.7-9.36-2.72.23-1.44-2.2-.18-4a4.85,4.85,0,0,0-4-7.56C181,129.13,158.23,126.86,113.69,139.9Z"/><path class="cls-4" d="M151.53,331.91a22.51,22.51,0,0,1-8.3-1.41,22,22,0,0,1-6.9-4.47,4.1,4.1,0,0,1-.73-1,2.55,2.55,0,0,1-.29-1.19,2.63,2.63,0,0,1,.74-1.82,2.35,2.35,0,0,1,1.82-.79,2.19,2.19,0,0,1,1.59.7,18.14,18.14,0,0,0,5.4,3.7,16.1,16.1,0,0,0,6.54,1.28,13.68,13.68,0,0,0,5.08-.9,8.67,8.67,0,0,0,3.6-2.49,5.53,5.53,0,0,0,1.34-3.7,6.44,6.44,0,0,0-1.5-4.21,11,11,0,0,0-3.95-2.78,33,33,0,0,0-5.85-1.88,36.27,36.27,0,0,1-5.39-1.73,16.2,16.2,0,0,1-4.25-2.52,10.35,10.35,0,0,1-2.77-3.64,11.79,11.79,0,0,1-1-5,10.9,10.9,0,0,1,1.91-6.38,12.43,12.43,0,0,1,5.3-4.25,19.06,19.06,0,0,1,7.79-1.5,21.23,21.23,0,0,1,7.37,1.28,14.24,14.24,0,0,1,5.59,3.51,3.39,3.39,0,0,1,1.28,2.36,2.45,2.45,0,0,1-.8,1.76,2.5,2.5,0,0,1-1.82.79,1.85,1.85,0,0,1-1.28-.51,11.32,11.32,0,0,0-2.74-2.17,16.24,16.24,0,0,0-3.64-1.53,15.08,15.08,0,0,0-9.13.29,8,8,0,0,0-3.48,2.42,5.84,5.84,0,0,0-1.25,3.74,5.72,5.72,0,0,0,1.41,4,10.27,10.27,0,0,0,3.77,2.55,40.49,40.49,0,0,0,5.23,1.76,53.6,53.6,0,0,1,5.78,1.75,17.6,17.6,0,0,1,4.56,2.46,9.85,9.85,0,0,1,3,3.74,13.22,13.22,0,0,1,1.06,5.58,10.42,10.42,0,0,1-2,6.26,13.3,13.3,0,0,1-5.4,4.31A18.93,18.93,0,0,1,151.53,331.91Zm2.87,5.87a2.46,2.46,0,0,1-.73,1.82,2.56,2.56,0,0,1-1.89.74,2.35,2.35,0,0,1-1.78-.74,2.52,2.52,0,0,1-.71-1.82V282.11a2.58,2.58,0,0,1,.74-1.85,2.57,2.57,0,0,1,3.67,0,2.63,2.63,0,0,1,.7,1.85Z"/><path class="cls-2" d="M141.29,198.07s-38.54,44.42-49.55,69S73.39,333.52,80,342s-11.37,21.66-11.37,21.66S58,373.9,66.05,385.27s25.32,0,25.32,0,2.94,9.18,16.15,8.08,25.7-5.14,25.7-6.24,13.21,8.84,23.86,8.64,44.78,3.84,62.4-5.34,13.21-3.67,13.21-3.67,25.7,5.14,27.53-4,5.14-.36,5.14-.36.73,4.4,18,3.3,13.21-9.91,13.21-9.91-5.51-17.62-10.64-27.9S279.68,324,279.68,324s-4-52.49-19.83-78.19-13.94-31.24-38.17-54.35c0,.23-17.11-2.47-36.71-1.44C167.65,190.91,141.29,198.07,141.29,198.07Z"/><path class="cls-3" d="M182.79,397c-6.1,0-11.86-.25-16.59-.46-3.73-.16-6.95-.3-9.11-.26-7.66.13-16.35-4.71-21-7.31-1-.58-2.09-1.17-2.56-1.36-2.08,2.1-15.34,5.39-25.92,6.27-11.42,1-15.46-5.69-16.46-7.82-3.08,1.85-18.06,10-25.51-.49-8.26-11.63,2.52-22.26,2.63-22.37s11.58-8.59,12.6-16a6.28,6.28,0,0,0-1.27-4.9c-7-8.91.92-51.41,11.68-75.44,10.92-24.39,49.25-68.7,49.64-69.15l.11-.12.16-.05c.26-.07,26.61-7.19,43.8-8.09a216.28,216.28,0,0,1,34.61,1.26l1.58.16,0-.69.9.86c17.27,16.47,21.28,23.93,27.93,36.3,2.7,5,5.77,10.73,10.33,18.16C276,271,280.18,323.41,280.23,323.93c0,.14,1.15,13.6,6.18,23.66s10.62,27.8,10.68,28a6.18,6.18,0,0,1-.41,5.39c-1.81,3-6.28,4.78-13.3,5.23-17.24,1.11-18.48-3.26-18.56-3.76-.53-1.38-1.69-3.41-2.41-3.35-.16,0-1,.25-1.65,3.73-1.92,9.61-27.1,4.69-28.18,4.47l-.88-.17.56-.71a1.58,1.58,0,0,0,.37-.75c-.18-.09-1.82-.52-12.9,5.25C210.13,395.9,195.68,397,182.79,397Zm-24.9-1.83c2.15,0,5.06.13,8.36.27,14.62.63,39.09,1.69,53-5.54,12.84-6.68,13.82-5.5,14.28-4.93a1.29,1.29,0,0,1,.07,1.36c4.24.75,24.58,3.92,26.11-3.75.61-3.05,1.45-4.52,2.64-4.62,1.87-.11,3.29,3.44,3.56,4.16,0,.12,1.21,4,17.43,2.95,6.53-.41,10.82-2,12.41-4.68a5,5,0,0,0,.34-4.45c-.08-.24-5.58-17.76-10.64-27.88s-6.28-23.92-6.29-24.06c0-.53-4.21-52.66-19.74-77.94-4.59-7.46-7.66-13.18-10.37-18.22-6.58-12.23-10.56-19.63-27.55-35.86-.34,0-.93-.08-2-.2A217,217,0,0,0,185,190.55c-16.36.86-41.16,7.41-43.4,8-2.29,2.66-38.79,45.15-49.36,68.75C80.82,292.82,74.3,333.8,80.43,341.62a7.36,7.36,0,0,1,1.49,5.73c-1.08,7.89-12.49,16.36-13,16.71s-10.15,10-2.44,20.9,24.4,0,24.57-.15l.6-.39.23.69c.11.35,3,8.73,15.58,7.69S131.56,388,132.67,387v-.19l.3-.22c.47-.28,1,0,3.62,1.45,4.53,2.52,12.91,7.18,20.17,7.18h1.13Z"/><path class="cls-2" d="M217.92,165.63s2.75-12.38,12.11-19,7.85-2.07,12.8-9.64,11.84-20.78,13.9-20.51,6.2-22.43-3-24.5-27.4-3.3-33.87,0l-6.46,3.31A9.66,9.66,0,0,1,210.76,90c-.28-3-.55-10.9-20.23-12.41S168.64,84,168.64,84s2.45,17.76,1.93,19.54c-.63,2.13-1.52,3.72-11,1.38s-5.1-7.84-17.9-7.16-14.73,3.72-18.17,3.72-14.86-3-28.9,3,3.16,22.44,7,24.22a64.75,64.75,0,0,1,24.77,18.59c10.05,12.25,16.23,29.35,16.23,29.35S180,164.67,217.92,165.63Z"/><path class="cls-3" d="M142.27,177.36l-.18-.5c-.06-.17-6.26-17.15-16.13-29.18a63.5,63.5,0,0,0-23.9-18.12l-.69-.32C98.61,128,88.51,118.93,88.61,111.4c0-3.27,2-5.76,5.76-7.39,11.58-5,21.29-3.89,26.5-3.3,1.13.13,2,.23,2.62.23a9.75,9.75,0,0,0,3.5-.89c2.53-1,6.35-2.38,14.64-2.83,7.65-.41,9.38,1.35,11.38,3.37a12,12,0,0,0,6.68,3.81c9.38,2.31,9.85.7,10.35-1,.35-1.21-1-12.49-1.95-19.32V84l0-.11c.09-.34,2.55-8.4,22.46-6.87,19.74,1.52,20.43,9.37,20.72,12.72l0,.19a8.85,8.85,0,0,0,2.19,4.72l6.09-3.12c7-3.57,25.72-2,34.24,0,6.89,1.54,6.75,13.08,5.58,19.66-.5,2.8-1.37,6.1-2.75,5.92-1.18,0-5.53,7.35-8.42,12.19-1.68,2.82-3.41,5.73-5,8.07-3,4.58-3.75,4.89-5.78,5.72a32.72,32.72,0,0,0-7.16,4.07c-9.07,6.4-11.87,18.54-11.89,18.66l-.1.45-.46,0c-37.39-.93-74.75,10.9-75.12,11ZM113,101.28A45.34,45.34,0,0,0,94.8,105c-3.34,1.44-5,3.6-5.09,6.4-.09,7,9.59,15.65,12.13,16.82l.68.32A64.56,64.56,0,0,1,126.81,147c9,11,15,26.11,16.13,29,4.57-1.41,39.48-11.71,74.55-10.93.59-2.31,3.69-12.86,12.22-18.88a33.5,33.5,0,0,1,7.38-4.19c1.85-.75,2.47-1,5.28-5.3,1.52-2.32,3.25-5.22,4.92-8,5.24-8.78,7.77-12.73,9.39-12.73h0c.93-.73,3-9.07,1.88-16-.47-3-1.73-6.68-5-7.42-9.52-2.13-27.3-3.21-33.49,0L213.27,96l-.28-.28A10.13,10.13,0,0,1,210.21,90l0-.19c-.26-3.08-.89-10.27-19.71-11.72-17.72-1.36-20.93,5.12-21.28,6,.33,2.36,2.42,17.84,1.89,19.64-.74,2.53-2,4.14-11.67,1.76a13.16,13.16,0,0,1-7.19-4.1c-1.89-1.92-3.38-3.43-10.54-3.05-8.12.44-11.85,1.84-14.31,2.76a10.72,10.72,0,0,1-3.89,1,26.19,26.19,0,0,1-2.75-.24A66.78,66.78,0,0,0,113,101.28Z"/><path class="cls-3" d="M170.64,103.16a11.12,11.12,0,0,0,4.31-.93,12.75,12.75,0,0,0,3.68-2.3,8.92,8.92,0,0,0,3.34-7.5,5.35,5.35,0,0,0-1.17-3.8A9.83,9.83,0,0,0,177,86.72l-4.27-1.37c-1.41-.5-2.83-1-4.24-1.5,1.47.29,2.93.65,4.39,1l4.37,1.08a9.88,9.88,0,0,1,4.25,2,4.71,4.71,0,0,1,1.22,2.17,9.47,9.47,0,0,1,.31,2.34,12.54,12.54,0,0,1-.13,2.35,8.38,8.38,0,0,1-.77,2.26,11.09,11.09,0,0,1-3,3.56A11.56,11.56,0,0,1,170.64,103.16Z"/><path class="cls-3" d="M152.65,100.86c2.26,3.53,4.32,7.18,6.29,10.89s3.74,7.52,5.35,11.41a70.84,70.84,0,0,1,4.1,12,40.43,40.43,0,0,1,.91,12.64h-.22c-.75-4.15-1.7-8.14-2.82-12.11l-1.73-6c-.53-2-1.22-4-1.88-5.92-1.38-3.92-3-7.77-4.7-11.57s-3.49-7.58-5.49-11.25Z"/><path class="cls-3" d="M138.45,121.63a74.1,74.1,0,0,0,8.76,10.6c1.62,1.63,3.26,3.15,5,4.71a30.06,30.06,0,0,1,4.6,5.49,47.68,47.68,0,0,1,3.35,6.26,56.78,56.78,0,0,1,2.32,6.64,43.92,43.92,0,0,1,1.77,13.84,71.49,71.49,0,0,0-3.4-13.32A58,58,0,0,0,155,143.64a30,30,0,0,0-4.19-5.19c-1.61-1.61-3.33-3.27-4.82-5.06A45,45,0,0,1,138.45,121.63Z"/><path class="cls-3" d="M182.16,95.85a43.26,43.26,0,0,1,7,11,33.14,33.14,0,0,1,2,6.29,32.65,32.65,0,0,1,.52,3.29l.26,3.25c.31,4.33.67,8.66.56,13a103.17,103.17,0,0,1-1,13h-.22c-.55-4.33-.78-8.64-1-13s0-8.63-.11-12.94l-.09-3.22a30.13,30.13,0,0,0-.34-3.14,31.69,31.69,0,0,0-1.62-6.15A42.54,42.54,0,0,0,182,96Z"/><path class="cls-3" d="M186.27,167.22a24.41,24.41,0,0,0,.62-3.13,31.12,31.12,0,0,0,.29-3.21,29.85,29.85,0,0,0-.44-6.46,29.77,29.77,0,0,1,1,6.46,32.83,32.83,0,0,1,0,3.29,26.85,26.85,0,0,1-.38,3.31Z"/><path class="cls-3" d="M203.08,126.2a18,18,0,0,1,1.35-8.17,29.12,29.12,0,0,1,1.8-3.72,12.66,12.66,0,0,0,1.15-3.59c.1-.6.13-1.27.19-2l.18-2c.06-.68.12-1.36.21-2a17,17,0,0,1,.35-2.1c.69-2.74,2-5.58,4.73-7l1.13-.6-.58,1.17a6.77,6.77,0,0,0-.06,5.64,10.18,10.18,0,0,0,3.92,4.33,22.93,22.93,0,0,0,5.39,2.54,55.24,55.24,0,0,0,5.8,1.66,86.53,86.53,0,0,0,11.89,2.08,54.43,54.43,0,0,0,6,.3c1,0,2,0,3-.15a18.22,18.22,0,0,0,2.82-.47l.13,0a10.37,10.37,0,0,0,2.9-1.09,8.14,8.14,0,0,0,2.38-2,7.71,7.71,0,0,0,1.37-2.87,11.41,11.41,0,0,0,.24-3.31l.21,0a10.08,10.08,0,0,1,.26,3.47,7.82,7.82,0,0,1-1.15,3.4,9.39,9.39,0,0,1-2.52,2.62,10.6,10.6,0,0,1-3.34,1.58l.13,0a23.65,23.65,0,0,1-6.32,1.13,48.7,48.7,0,0,1-6.28-.11,67.83,67.83,0,0,1-12.2-2.47,31.8,31.8,0,0,1-11.3-5.29,12.64,12.64,0,0,1-3.91-4.93,8.35,8.35,0,0,1-.05-6.29l.54.57a6.61,6.61,0,0,0-2.34,2.88,12.45,12.45,0,0,0-1,3.7c-.1.65-.13,1.28-.19,1.95s-.1,1.35-.15,2l-.19,2c-.07.66-.12,1.36-.26,2.1a12.51,12.51,0,0,1-1.52,4.08c-.75,1.22-1.43,2.27-2,3.48a22,22,0,0,0-2.41,7.59Z"/><path class="cls-3" d="M210.31,165.35c-.21-2.91-.26-5.77-.23-8.65s.18-5.75.5-8.61a59.42,59.42,0,0,1,1.46-8.48,31.69,31.69,0,0,1,3.12-8,31.16,31.16,0,0,0-2.58,8.09,58.37,58.37,0,0,0-.9,8.44c-.13,2.83-.08,5.67.06,8.5s.38,5.66.76,8.43Z"/><path class="cls-4" d="M142.61,176.68s-8.38,3.59-6.64,6.8,3.2,3.31,3.2,3.31-3.61,2.25-3.44,5.87c.19,3.93,2.2,6.32,5.56,5.41,2.44-.65,30.15-6.49,41.07-7.77s29,.18,29,.18l8.33.72c2.39.66,3.46.07,5.1-.46a5.78,5.78,0,0,0,4-4.23c1-3.95-2.48-9.73-6.7-9.36-2.72.24-1.44-2.2-.18-4a4.85,4.85,0,0,0-4-7.56C209.93,165.9,187.15,163.63,142.61,176.68Z"/><path class="cls-4" d="M180.45,368.68a22.73,22.73,0,0,1-8.3-1.4,22.34,22.34,0,0,1-6.9-4.47,4.09,4.09,0,0,1-.73-1,2.51,2.51,0,0,1-.29-1.18,2.62,2.62,0,0,1,.74-1.82,2.35,2.35,0,0,1,1.81-.8,2.2,2.2,0,0,1,1.6.7,18.37,18.37,0,0,0,5.4,3.71,16.07,16.07,0,0,0,6.54,1.27,13.72,13.72,0,0,0,5.08-.89,8.86,8.86,0,0,0,3.6-2.49,5.55,5.55,0,0,0,1.34-3.7,6.45,6.45,0,0,0-1.5-4.22,11.06,11.06,0,0,0-4-2.78,32.62,32.62,0,0,0-5.84-1.88,35.9,35.9,0,0,1-5.39-1.72,16.2,16.2,0,0,1-4.25-2.52,10.32,10.32,0,0,1-2.77-3.64,11.7,11.7,0,0,1-1-5,10.86,10.86,0,0,1,1.91-6.39,12.41,12.41,0,0,1,5.3-4.24,19.06,19.06,0,0,1,7.79-1.51A21.23,21.23,0,0,1,188,324a14.24,14.24,0,0,1,5.59,3.51,3.41,3.41,0,0,1,1.28,2.37,2.45,2.45,0,0,1-.8,1.75,2.52,2.52,0,0,1-1.82.8,1.9,1.9,0,0,1-1.28-.51,11.08,11.08,0,0,0-2.74-2.17,16.24,16.24,0,0,0-3.64-1.53,13.91,13.91,0,0,0-4-.58,14.4,14.4,0,0,0-5.17.86,8.08,8.08,0,0,0-3.48,2.43,5.81,5.81,0,0,0-1.25,3.73,5.72,5.72,0,0,0,1.41,4,10.21,10.21,0,0,0,3.76,2.56,41.21,41.21,0,0,0,5.24,1.75,51.4,51.4,0,0,1,5.78,1.76,17.47,17.47,0,0,1,4.56,2.46,9.81,9.81,0,0,1,3,3.73,13.27,13.27,0,0,1,1.06,5.59,10.45,10.45,0,0,1-2,6.25,13.3,13.3,0,0,1-5.4,4.31A18.81,18.81,0,0,1,180.45,368.68Zm2.87,5.88a2.47,2.47,0,0,1-.73,1.82,2.59,2.59,0,0,1-1.89.73,2.37,2.37,0,0,1-1.78-.73,2.54,2.54,0,0,1-.71-1.82V318.88A2.58,2.58,0,0,1,179,317a2.6,2.6,0,0,1,3.67,0,2.63,2.63,0,0,1,.7,1.85Z"/><path class="cls-2" d="M168.84,227.32s-38.54,44.41-49.56,69-18.35,66.44-11.74,74.88-11.38,21.66-11.38,21.66-10.65,10.28-2.57,21.66,25.33,0,25.33,0,2.93,9.17,16.15,8.07,25.69-5.14,25.69-6.24S174,425.19,184.62,425s44.78,3.84,62.4-5.33S260.23,416,260.23,416s25.7,5.14,27.53-4,5.14-.37,5.14-.37.74,4.4,18,3.3S324.1,405,324.1,405s-5.5-17.62-10.64-27.89-6.24-23.86-6.24-23.86-4-52.49-19.82-78.19-13.95-31.24-38.18-54.34c0,.22-17.11-2.48-36.7-1.45C195.19,220.15,168.84,227.32,168.84,227.32Z"/><path class="cls-3" d="M210.33,426.26c-6.1,0-11.85-.25-16.58-.46-3.73-.16-7-.3-9.12-.26-7.66.13-16.35-4.7-21-7.31-1-.57-2.1-1.16-2.57-1.35-2.08,2.09-15.34,5.38-25.92,6.26-11.42,1-15.46-5.69-16.45-7.82-3.09,1.85-18.07,10-25.52-.49-8.25-11.63,2.53-22.26,2.64-22.37s11.57-8.59,12.59-16a6.24,6.24,0,0,0-1.27-4.9c-7-8.91.92-51.4,11.68-75.44C129.7,271.71,168,227.4,168.42,227l.11-.12.16-.05c.27-.07,26.61-7.18,43.8-8.09A216.28,216.28,0,0,1,247.1,220l1.59.17v-.69l.9.86c17.27,16.46,21.28,23.93,27.93,36.29,2.7,5,5.77,10.73,10.34,18.17,15.67,25.51,19.86,77.9,19.9,78.43,0,.13,1.15,13.59,6.18,23.65s10.62,27.8,10.68,28a6.15,6.15,0,0,1-.41,5.39c-1.81,3-6.28,4.79-13.3,5.23-17.24,1.11-18.48-3.26-18.56-3.76-.53-1.38-1.69-3.41-2.41-3.35-.15,0-.95.25-1.65,3.73-1.92,9.61-27.1,4.69-28.17,4.48l-.89-.18.56-.71a1.58,1.58,0,0,0,.37-.75c-.18-.09-1.81-.52-12.89,5.25C237.67,425.14,223.23,426.26,210.33,426.26Zm-24.89-1.83c2.14,0,5.05.13,8.35.27,14.62.64,39.09,1.7,53-5.53,12.83-6.69,13.81-5.51,14.28-4.94a1.27,1.27,0,0,1,.06,1.36c4.24.75,24.58,3.93,26.11-3.75.62-3,1.45-4.52,2.64-4.61,1.88-.12,3.29,3.44,3.56,4.16,0,.12,1.22,4,17.43,2.94,6.53-.41,10.82-2,12.42-4.68a5.06,5.06,0,0,0,.33-4.45c-.08-.24-5.57-17.76-10.63-27.88s-6.29-23.92-6.3-24.06c0-.52-4.21-52.65-19.74-77.94-4.59-7.46-7.66-13.17-10.37-18.21C270,244.87,266,237.48,249,221.24c-.34,0-.93-.08-2-.19a215.52,215.52,0,0,0-34.44-1.26c-16.37.86-41.16,7.41-43.41,8-2.29,2.66-38.79,45.16-49.35,68.75C108.36,322.06,101.85,363,108,370.86a7.33,7.33,0,0,1,1.49,5.73c-1.08,7.89-12.49,16.36-13,16.71S86.34,403.35,94,414.2s24.41,0,24.57-.14l.61-.4.22.69c.12.36,3,8.73,15.58,7.69s24.09-4.76,25.19-5.82V416l.31-.23c.47-.28,1,0,3.61,1.46,4.53,2.52,12.92,7.18,20.17,7.18h1.14Z"/><path class="cls-2" d="M245.46,194.88s2.75-12.39,12.11-19,7.85-2.06,12.8-9.63,11.84-20.79,13.91-20.51,6.19-22.44-3-24.51-27.39-3.3-33.86,0l-6.47,3.31a9.66,9.66,0,0,1-2.62-5.34c-.27-3.06-.55-10.9-20.23-12.42s-21.89,6.47-21.89,6.47,2.45,17.77,1.93,19.55c-.62,2.13-1.51,3.71-11,1.37S182,126.33,169.2,127s-14.72,3.71-18.17,3.71-14.86-3-28.9,3,3.16,22.44,7,24.23a64.61,64.61,0,0,1,24.77,18.58c10.05,12.25,16.23,29.35,16.23,29.35S207.54,193.91,245.46,194.88Z"/><path class="cls-3" d="M169.82,206.61l-.18-.5c-.07-.17-6.27-17.16-16.14-29.19a63.61,63.61,0,0,0-23.9-18.12l-.68-.31c-2.77-1.29-12.87-10.31-12.77-17.84,0-3.28,2-5.77,5.76-7.39,11.59-5,21.29-3.9,26.5-3.31,1.13.13,2,.23,2.62.23a9.85,9.85,0,0,0,3.51-.89c2.52-.94,6.34-2.38,14.63-2.82,7.65-.41,9.38,1.34,11.39,3.37a12,12,0,0,0,6.67,3.8c9.39,2.31,9.85.7,10.35-1,.36-1.21-1-12.49-1.94-19.31l0-.12,0-.1c.1-.35,2.56-8.41,22.46-6.88,19.75,1.52,20.43,9.37,20.72,12.72l0,.2a8.92,8.92,0,0,0,2.19,4.71l6.1-3.12c7-3.57,25.71-1.95,34.23,0,6.9,1.54,6.75,13.09,5.58,19.66-.5,2.8-1.36,6.11-2.75,5.92-1.17,0-5.53,7.36-8.42,12.2-1.67,2.81-3.41,5.72-4.95,8.07-3,4.57-3.75,4.88-5.78,5.72a32.06,32.06,0,0,0-7.16,4.06C248.82,182.73,246,194.87,246,195l-.1.44h-.45c-37.4-.94-74.75,10.89-75.13,11Zm-29.29-76.09a45.13,45.13,0,0,0-18.18,3.75c-3.34,1.44-5.06,3.59-5.09,6.39-.1,7,9.58,15.65,12.12,16.83l.68.31a64.68,64.68,0,0,1,24.29,18.42c9,11,15,26.11,16.14,29,4.57-1.4,39.47-11.71,74.54-10.92.59-2.32,3.69-12.86,12.23-18.89a33.31,33.31,0,0,1,7.37-4.18c1.85-.76,2.48-1,5.28-5.31,1.53-2.32,3.26-5.22,4.93-8,5.23-8.77,7.76-12.73,9.38-12.73h0c.93-.73,3-9.06,1.88-16-.47-3-1.72-6.68-5-7.42-9.52-2.13-27.3-3.21-33.49,0l-6.82,3.48-.29-.28a10.13,10.13,0,0,1-2.78-5.69v-.19c-.27-3.07-.9-10.27-19.71-11.72-17.73-1.36-20.94,5.12-21.28,6,.32,2.36,2.42,17.84,1.89,19.64-.74,2.53-2,4.14-11.67,1.76a13.19,13.19,0,0,1-7.2-4.1c-1.89-1.92-3.38-3.43-10.54-3-8.12.43-11.84,1.83-14.31,2.76a10.86,10.86,0,0,1-3.89.95c-.66,0-1.58-.1-2.74-.23A64.63,64.63,0,0,0,140.53,130.52Z"/><path class="cls-3" d="M198.18,132.41a11.45,11.45,0,0,0,4.31-.93,12.83,12.83,0,0,0,3.69-2.31,8.89,8.89,0,0,0,3.33-7.49,5.38,5.38,0,0,0-1.17-3.81,10.12,10.12,0,0,0-3.76-1.91l-4.26-1.37c-1.42-.5-2.84-1-4.25-1.49,1.47.29,2.93.65,4.4,1l4.37,1.09a9.76,9.76,0,0,1,4.24,2,4.67,4.67,0,0,1,1.22,2.17,9.09,9.09,0,0,1,.31,2.35,12.43,12.43,0,0,1-.13,2.34,8.38,8.38,0,0,1-.77,2.26,10.86,10.86,0,0,1-3,3.56A11.59,11.59,0,0,1,198.18,132.41Z"/><path class="cls-3" d="M180.2,130.1c2.25,3.54,4.32,7.18,6.29,10.89s3.74,7.52,5.34,11.41a71.77,71.77,0,0,1,4.11,12,40.79,40.79,0,0,1,.9,12.65h-.22c-.75-4.15-1.7-8.14-2.82-12.11L192.08,159c-.54-2-1.22-4-1.89-5.93-1.38-3.92-3-7.77-4.7-11.57S182,133.89,180,130.22Z"/><path class="cls-3" d="M166,150.88a75.92,75.92,0,0,0,8.76,10.6c1.62,1.63,3.27,3.14,5,4.71a30.41,30.41,0,0,1,4.59,5.49,45.81,45.81,0,0,1,3.35,6.25,56.84,56.84,0,0,1,2.33,6.64,43.62,43.62,0,0,1,1.76,13.84,71.49,71.49,0,0,0-3.4-13.32,58.25,58.25,0,0,0-5.88-12.21,29.54,29.54,0,0,0-4.18-5.18c-1.62-1.62-3.34-3.27-4.83-5.07A45.15,45.15,0,0,1,166,150.88Z"/><path class="cls-3" d="M209.7,125.09a43.26,43.26,0,0,1,7,11,32.66,32.66,0,0,1,2,6.29,30,30,0,0,1,.52,3.29l.27,3.25c.3,4.33.67,8.67.55,13a101.19,101.19,0,0,1-1,13h-.22c-.55-4.33-.78-8.65-1-13s0-8.63-.11-12.94l-.1-3.22a30.13,30.13,0,0,0-.34-3.14,31.38,31.38,0,0,0-1.61-6.14,42.63,42.63,0,0,0-6.13-11.28Z"/><path class="cls-3" d="M213.82,196.46a26.09,26.09,0,0,0,.62-3.12,31.55,31.55,0,0,0,.28-3.22,29.23,29.23,0,0,0-.44-6.46,31.72,31.72,0,0,1,1,9.75,26.82,26.82,0,0,1-.37,3.31Z"/><path class="cls-3" d="M230.62,155.44a18,18,0,0,1,1.35-8.17,30.52,30.52,0,0,1,1.8-3.72,12.66,12.66,0,0,0,1.15-3.59c.1-.6.13-1.26.19-2l.18-2c.07-.68.12-1.35.21-2a15.64,15.64,0,0,1,.36-2.1c.68-2.74,2-5.58,4.73-7l1.13-.6-.59,1.17a6.83,6.83,0,0,0-.06,5.65,10.15,10.15,0,0,0,3.92,4.32,23.36,23.36,0,0,0,5.39,2.55,55.9,55.9,0,0,0,5.8,1.65,86.79,86.79,0,0,0,11.89,2.08,54.55,54.55,0,0,0,6,.3,29.24,29.24,0,0,0,3-.15,18.22,18.22,0,0,0,2.82-.47l.13,0a10.26,10.26,0,0,0,2.9-1.09,7.62,7.62,0,0,0,2.38-2,7.71,7.71,0,0,0,1.37-2.87,11.38,11.38,0,0,0,.24-3.31l.22,0a10.33,10.33,0,0,1,.25,3.47,7.76,7.76,0,0,1-1.14,3.4,9.28,9.28,0,0,1-2.53,2.62,10.39,10.39,0,0,1-3.34,1.58l.14,0a23.39,23.39,0,0,1-6.33,1.13,47,47,0,0,1-6.28-.11,68,68,0,0,1-12.2-2.47,31.5,31.5,0,0,1-11.29-5.29,12.69,12.69,0,0,1-3.92-4.93,8.35,8.35,0,0,1-.05-6.29l.54.57a6.71,6.71,0,0,0-2.34,2.89,12.68,12.68,0,0,0-1,3.7c-.09.64-.13,1.27-.18,1.94s-.11,1.36-.16,2l-.19,2c-.07.66-.12,1.36-.26,2.1a12.48,12.48,0,0,1-1.52,4.09,38.88,38.88,0,0,0-2,3.47,21.77,21.77,0,0,0-2.42,7.59Z"/><path class="cls-3" d="M237.85,194.59c-.21-2.91-.26-5.77-.22-8.65s.18-5.75.49-8.6a59.33,59.33,0,0,1,1.47-8.49,31,31,0,0,1,3.12-8,31.18,31.18,0,0,0-2.59,8.09,58.36,58.36,0,0,0-.9,8.45c-.13,2.83-.08,5.66.06,8.49s.38,5.67.76,8.43Z"/><path class="cls-4" d="M170.15,205.92s-8.38,3.59-6.64,6.8,3.21,3.31,3.21,3.31-3.62,2.26-3.44,5.87c.18,3.93,2.2,6.32,5.56,5.42,2.43-.66,30.15-6.5,41.07-7.78s29,.18,29,.18l8.34.73c2.39.65,3.45.07,5.09-.47a5.77,5.77,0,0,0,4-4.23c1.06-3.95-2.48-9.72-6.7-9.36-2.72.24-1.43-2.2-.18-4a4.58,4.58,0,0,0,.28-5,4.64,4.64,0,0,0-4.32-2.6C237.48,195.14,214.69,192.87,170.15,205.92Z"/><path class="cls-4" d="M208,397.92a20.5,20.5,0,0,1-15.19-5.87,4.13,4.13,0,0,1-.74-1,2.48,2.48,0,0,1-.29-1.18,2.62,2.62,0,0,1,.74-1.82,2.37,2.37,0,0,1,1.82-.8,2.23,2.23,0,0,1,1.59.7,18.18,18.18,0,0,0,5.4,3.71,16.13,16.13,0,0,0,6.54,1.27,13.64,13.64,0,0,0,5.08-.89,8.77,8.77,0,0,0,3.61-2.49,5.6,5.6,0,0,0,1.34-3.7,6.58,6.58,0,0,0-1.5-4.22,11.1,11.1,0,0,0-4-2.77,32.06,32.06,0,0,0-5.84-1.89,34.93,34.93,0,0,1-5.4-1.72,16.13,16.13,0,0,1-4.24-2.52,10.26,10.26,0,0,1-2.78-3.64,11.85,11.85,0,0,1-1-5,10.93,10.93,0,0,1,1.91-6.39,12.47,12.47,0,0,1,5.3-4.24,19.09,19.09,0,0,1,7.79-1.5,21.28,21.28,0,0,1,7.38,1.27,14.33,14.33,0,0,1,5.58,3.52,3.37,3.37,0,0,1,1.28,2.36,2.43,2.43,0,0,1-.8,1.75,2.48,2.48,0,0,1-1.82.8,1.85,1.85,0,0,1-1.27-.51,11.14,11.14,0,0,0-2.75-2.17,16.24,16.24,0,0,0-3.64-1.53,13.91,13.91,0,0,0-4-.58,14.4,14.4,0,0,0-5.17.86,8.08,8.08,0,0,0-3.48,2.43,5.81,5.81,0,0,0-1.24,3.74,5.75,5.75,0,0,0,1.4,4,10.35,10.35,0,0,0,3.77,2.55,42.08,42.08,0,0,0,5.23,1.76,51.44,51.44,0,0,1,5.78,1.75,17.54,17.54,0,0,1,4.57,2.46,9.89,9.89,0,0,1,3,3.73,13.15,13.15,0,0,1,1.06,5.59,10.44,10.44,0,0,1-2,6.26,13.38,13.38,0,0,1-5.4,4.31A18.93,18.93,0,0,1,208,397.92Zm2.87,5.88a2.47,2.47,0,0,1-.73,1.82,2.55,2.55,0,0,1-1.88.73,2.36,2.36,0,0,1-1.79-.73,2.53,2.53,0,0,1-.7-1.82V348.13a2.6,2.6,0,0,1,.73-1.86,2.42,2.42,0,0,1,1.82-.76,2.38,2.38,0,0,1,1.85.76,2.66,2.66,0,0,1,.7,1.86Z"/><path class="cls-5" d="M124.91,333.39a1.73,1.73,0,0,1-1.28-.5,1.59,1.59,0,0,1-.49-1.19V308.32l.49.58-4.76,2.87a1.68,1.68,0,0,1-.83.21,1.54,1.54,0,0,1-1.19-.55,1.7,1.7,0,0,1-.49-1.13,1.62,1.62,0,0,1,.86-1.44l6.7-4a2.24,2.24,0,0,1,1.23-.25,1.38,1.38,0,0,1,1.11.48,1.67,1.67,0,0,1,.41,1.17V331.7a1.59,1.59,0,0,1-.49,1.19A1.72,1.72,0,0,1,124.91,333.39Z"/><path class="cls-5" d="M154,333.8a8.47,8.47,0,0,1-5.69-1.93,11.83,11.83,0,0,1-3.46-5.3,25.17,25.17,0,0,1,0-15.17,11.86,11.86,0,0,1,3.46-5.26,9.35,9.35,0,0,1,11.38,0,11.82,11.82,0,0,1,3.43,5.26,25.59,25.59,0,0,1,0,15.17,11.79,11.79,0,0,1-3.43,5.3A8.49,8.49,0,0,1,154,333.8Zm0-3.33a5.15,5.15,0,0,0,3.67-1.4,8.75,8.75,0,0,0,2.28-4,21.13,21.13,0,0,0,.78-6.1,21.35,21.35,0,0,0-.78-6.15,8.62,8.62,0,0,0-2.28-3.94,5.58,5.58,0,0,0-7.35,0,8.73,8.73,0,0,0-2.3,3.94,20.63,20.63,0,0,0-.8,6.15,20.41,20.41,0,0,0,.8,6.1,8.86,8.86,0,0,0,2.3,4A5.15,5.15,0,0,0,154,330.47Z"/><path class="cls-5" d="M178.65,333.8a8.49,8.49,0,0,1-5.69-1.93,11.9,11.9,0,0,1-3.45-5.3,25.17,25.17,0,0,1,0-15.17,11.93,11.93,0,0,1,3.45-5.26,9.35,9.35,0,0,1,11.38,0,11.73,11.73,0,0,1,3.43,5.26,25.59,25.59,0,0,1,0,15.17,11.7,11.7,0,0,1-3.43,5.3A8.49,8.49,0,0,1,178.65,333.8Zm0-3.33a5.17,5.17,0,0,0,3.68-1.4,8.75,8.75,0,0,0,2.28-4,21.13,21.13,0,0,0,.78-6.1,21.35,21.35,0,0,0-.78-6.15,8.62,8.62,0,0,0-2.28-3.94,5.6,5.6,0,0,0-7.36,0,8.82,8.82,0,0,0-2.3,3.94,21,21,0,0,0-.8,6.15,20.74,20.74,0,0,0,.8,6.1,9,9,0,0,0,2.3,4A5.17,5.17,0,0,0,178.65,330.47Z"/><path class="cls-5" d="M203.35,333.8a8.47,8.47,0,0,1-5.69-1.93,11.83,11.83,0,0,1-3.46-5.3,25.17,25.17,0,0,1,0-15.17,11.86,11.86,0,0,1,3.46-5.26,9.35,9.35,0,0,1,11.38,0,11.82,11.82,0,0,1,3.43,5.26,25.59,25.59,0,0,1,0,15.17,11.79,11.79,0,0,1-3.43,5.3A8.49,8.49,0,0,1,203.35,333.8Zm0-3.33a5.15,5.15,0,0,0,3.67-1.4,8.75,8.75,0,0,0,2.28-4,21.13,21.13,0,0,0,.78-6.1,21.35,21.35,0,0,0-.78-6.15,8.62,8.62,0,0,0-2.28-3.94,5.58,5.58,0,0,0-7.35,0,8.73,8.73,0,0,0-2.3,3.94,20.63,20.63,0,0,0-.8,6.15,20.41,20.41,0,0,0,.8,6.1,8.86,8.86,0,0,0,2.3,4A5.15,5.15,0,0,0,203.35,330.47Z"/><path class="cls-5" d="M239.34,333.8a8.49,8.49,0,0,1-5.69-1.93,11.9,11.9,0,0,1-3.45-5.3,25.17,25.17,0,0,1,0-15.17,11.93,11.93,0,0,1,3.45-5.26,9.35,9.35,0,0,1,11.38,0,11.73,11.73,0,0,1,3.43,5.26,25.59,25.59,0,0,1,0,15.17,11.7,11.7,0,0,1-3.43,5.3A8.49,8.49,0,0,1,239.34,333.8Zm0-3.33a5.17,5.17,0,0,0,3.68-1.4,8.75,8.75,0,0,0,2.28-4,21.13,21.13,0,0,0,.78-6.1,21.35,21.35,0,0,0-.78-6.15,8.62,8.62,0,0,0-2.28-3.94,5.6,5.6,0,0,0-7.36,0,8.82,8.82,0,0,0-2.3,3.94,21,21,0,0,0-.8,6.15,20.74,20.74,0,0,0,.8,6.1,9,9,0,0,0,2.3,4A5.17,5.17,0,0,0,239.34,330.47Z"/><path class="cls-5" d="M264,333.8a8.47,8.47,0,0,1-5.69-1.93,11.91,11.91,0,0,1-3.46-5.3,25.17,25.17,0,0,1,0-15.17,12,12,0,0,1,3.46-5.26,9.35,9.35,0,0,1,11.38,0,11.82,11.82,0,0,1,3.43,5.26,25.59,25.59,0,0,1,0,15.17,11.79,11.79,0,0,1-3.43,5.3A8.49,8.49,0,0,1,264,333.8Zm0-3.33a5.15,5.15,0,0,0,3.67-1.4,8.75,8.75,0,0,0,2.28-4,21.11,21.11,0,0,0,.79-6.1,21.32,21.32,0,0,0-.79-6.15,8.62,8.62,0,0,0-2.28-3.94,5.58,5.58,0,0,0-7.35,0,8.73,8.73,0,0,0-2.3,3.94,20.63,20.63,0,0,0-.8,6.15,20.41,20.41,0,0,0,.8,6.1,8.86,8.86,0,0,0,2.3,4A5.15,5.15,0,0,0,264,330.47Z"/><path class="cls-5" d="M288.73,333.8a8.49,8.49,0,0,1-5.69-1.93,11.9,11.9,0,0,1-3.45-5.3,25.17,25.17,0,0,1,0-15.17,11.93,11.93,0,0,1,3.45-5.26,9.35,9.35,0,0,1,11.38,0,11.73,11.73,0,0,1,3.43,5.26,25.59,25.59,0,0,1,0,15.17,11.7,11.7,0,0,1-3.43,5.3A8.47,8.47,0,0,1,288.73,333.8Zm0-3.33a5.17,5.17,0,0,0,3.68-1.4,8.75,8.75,0,0,0,2.28-4,21.13,21.13,0,0,0,.78-6.1,21.35,21.35,0,0,0-.78-6.15,8.62,8.62,0,0,0-2.28-3.94,5.6,5.6,0,0,0-7.36,0,8.82,8.82,0,0,0-2.3,3.94A21,21,0,0,0,282,319a20.74,20.74,0,0,0,.8,6.1,9,9,0,0,0,2.3,4A5.17,5.17,0,0,0,288.73,330.47Z"/></g></g></svg>