<svg xmlns="http://www.w3.org/2000/svg" viewBox="0 0 801.04 155.47"><defs><style>.cls-1{fill:#1f8ebe;}.cls-2{fill:#f9f3e9;}.cls-3{fill:#dfd9d0;}</style></defs><g id="Layer_2" data-name="Layer 2"><g id="Layer_1-2" data-name="Layer 1"><rect class="cls-1" x="161.64" width="158.89" height="51.32"/><rect class="cls-1" x="320.54" width="160" height="51.32"/><path class="cls-2" d="M244.12,15.63a1,1,0,0,1,.59.81,1.3,1.3,0,0,1-.29,1,.88.88,0,0,1-.69.42,1.54,1.54,0,0,1-.84-.18,9.21,9.21,0,0,0-2.13-1,8.79,8.79,0,0,0-5.64.27,7.69,7.69,0,0,0-4.23,4.36,9.41,9.41,0,0,0-.6,3.4,9.51,9.51,0,0,0,.63,3.54,7.8,7.8,0,0,0,1.73,2.65,7.08,7.08,0,0,0,2.55,1.66,8.35,8.35,0,0,0,3.16.58,8.58,8.58,0,0,0,2.37-.33,8.49,8.49,0,0,0,2.16-1,1.36,1.36,0,0,1,.84-.15,1.07,1.07,0,0,1,.72.42,1.25,1.25,0,0,1,.27,1,1,1,0,0,1-.57.77,11.21,11.21,0,0,1-1.71.82,11.5,11.5,0,0,1-4.09.79,11.17,11.17,0,0,1-4.08-.75,10.08,10.08,0,0,1-3.39-2.15,10.48,10.48,0,0,1-2.32-3.41,11.27,11.27,0,0,1-.86-4.48,11.24,11.24,0,0,1,.81-4.29,10.56,10.56,0,0,1,2.27-3.4,10.62,10.62,0,0,1,7.57-3.06,11.18,11.18,0,0,1,3.05.43A10,10,0,0,1,244.12,15.63Z"/><rect class="cls-1" x="480.54" width="160" height="51.32"/><path class="cls-1" d="M800.53,51.32h-160V0h154a6,6,0,0,1,6,6V51.32Z"/><path class="cls-2" d="M407.39,14.22a1.07,1.07,0,0,1,.84.36,1.23,1.23,0,0,1,.33.87V27.36a7.95,7.95,0,0,1-3.93,7,7.86,7.86,0,0,1-4.08,1.07,8.07,8.07,0,0,1-4.12-1.07,7.88,7.88,0,0,1-2.87-2.89,8.2,8.2,0,0,1-1.05-4.14V15.45a1.24,1.24,0,0,1,2.14-.85,1.23,1.23,0,0,1,.35.85V27.36a5.76,5.76,0,0,0,.75,2.93,5.61,5.61,0,0,0,7.62,2,5.73,5.73,0,0,0,2.09-2,5.32,5.32,0,0,0,.79-2.93V15.45a1.35,1.35,0,0,1,.3-.87A1,1,0,0,1,407.39,14.22Z"/><rect class="cls-3" x="319.04" width="3" height="153.96"/><rect class="cls-3" x="479.04" width="3" height="153.96"/><rect class="cls-3" x="639.04" width="3" height="153.96"/><path class="cls-3" d="M160,155.47H10.18A10.2,10.2,0,0,1,0,145.29V7.9H3V145.29a7.2,7.2,0,0,0,7.18,7.18H160Z"/><path class="cls-1" d="M6,0H161.6V51.32H0V6A6,6,0,0,1,6,0Z"/><path class="cls-3" d="M789.36,155.46H160V0h3V152.46H789.36a8.68,8.68,0,0,0,8.68-8.68V51.32h3v92.46A11.68,11.68,0,0,1,789.36,155.46Z"/><path class="cls-2" d="M562.92,14.23a1.51,1.51,0,0,1,.59.15,1.33,1.33,0,0,1,.49.39l7.94,12h-1l8-12a1.1,1.1,0,0,1,1-.54,1.36,1.36,0,0,1,.83.36,1.13,1.13,0,0,1,.36.87V34a1.23,1.23,0,0,1-.36.87,1.29,1.29,0,0,1-1.79,0,1.15,1.15,0,0,1-.36-.87V17.74l.74.15L572.3,28.64a1.88,1.88,0,0,1-.44.36,1,1,0,0,1-.52.15,1,1,0,0,1-.54-.15,1.55,1.55,0,0,1-.45-.36l-7-10.75.63-.78V34a1.23,1.23,0,0,1-.33.87,1.07,1.07,0,0,1-.84.36,1,1,0,0,1-.82-.36,1.25,1.25,0,0,1-.3-.87V15.46a1.23,1.23,0,0,1,.35-.85A1.12,1.12,0,0,1,562.92,14.23Z"/><path class="cls-2" d="M71.52,14.22a1.07,1.07,0,0,1,.84.36,1.23,1.23,0,0,1,.33.87v11.9a8.16,8.16,0,0,1-1.07,4.15,7.85,7.85,0,0,1-6.94,4,8.06,8.06,0,0,1-4.13-1.07,7.78,7.78,0,0,1-2.86-2.89,8.27,8.27,0,0,1-1-4.15V15.45a1.2,1.2,0,0,1,1.17-1.23h.09a1.27,1.27,0,0,1,1.23,1.23v11.9a5.7,5.7,0,0,0,.75,2.94,5.48,5.48,0,0,0,2,2,5.41,5.41,0,0,0,2.78.74,5.58,5.58,0,0,0,2.82-.74,5.78,5.78,0,0,0,2.08-2,5.42,5.42,0,0,0,.8-2.94V15.45a1.3,1.3,0,0,1,.3-.87A1,1,0,0,1,71.52,14.22Z"/><path class="cls-2" d="M79.17,14.22a1.47,1.47,0,0,1,.58.15,1.55,1.55,0,0,1,.5.38l8,12h-1l8-12a1.13,1.13,0,0,1,1-.53,1.33,1.33,0,0,1,.84.36,1.1,1.1,0,0,1,.36.87V34a1.19,1.19,0,0,1-.36.87,1.3,1.3,0,0,1-1.8,0,1.23,1.23,0,0,1-.36-.87V17.73l.75.15L88.55,28.65a1.51,1.51,0,0,1-.44.35.94.94,0,0,1-.52.16,1,1,0,0,1-.54-.16,1.52,1.52,0,0,1-.45-.35l-7-10.77.63-.78V34a1.23,1.23,0,0,1-.33.87,1.07,1.07,0,0,1-.84.36,1.05,1.05,0,0,1-.83-.36,1.26,1.26,0,0,1-.31-.87V15.45a1.24,1.24,0,0,1,.34-.86A1.16,1.16,0,0,1,79.17,14.22Z"/><path class="cls-2" d="M721.24,14.25a8.6,8.6,0,0,1,3.86.82,7.81,7.81,0,0,1,2.77,2.3,10.32,10.32,0,0,1,1.67,3.37,14.25,14.25,0,0,1,.55,4,13.7,13.7,0,0,1-1,5.26,8.79,8.79,0,0,1-3,3.82,8.06,8.06,0,0,1-4.92,1.43h-7.5a1.11,1.11,0,0,1-.85-.36,1.22,1.22,0,0,1-.35-.87V15.45a1.17,1.17,0,0,1,.35-.86,1.12,1.12,0,0,1,.85-.34Zm-.3,18.66a6,6,0,0,0,3.77-1.12,6.37,6.37,0,0,0,2.13-3,11.8,11.8,0,0,0,.67-4.08,13,13,0,0,0-.37-3.11A8,8,0,0,0,726,19a5.67,5.67,0,0,0-2-1.8,6.36,6.36,0,0,0-3-.66h-6.15l.24-.24V33.21l-.18-.3Z"/><path class="cls-2" d="M548.87,14.25a8.54,8.54,0,0,1,3.86.82,7.72,7.72,0,0,1,2.77,2.3,10.13,10.13,0,0,1,1.67,3.37,13.89,13.89,0,0,1,.55,4,13.33,13.33,0,0,1-1,5.26,8.79,8.79,0,0,1-3,3.82,8,8,0,0,1-4.92,1.43h-7.5a1.11,1.11,0,0,1-.85-.36,1.26,1.26,0,0,1-.35-.87V15.45a1.21,1.21,0,0,1,.35-.86,1.15,1.15,0,0,1,.85-.34Zm-.3,18.66a6,6,0,0,0,3.77-1.12,6.23,6.23,0,0,0,2.13-3,11.8,11.8,0,0,0,.67-4.08,12.09,12.09,0,0,0-.37-3.11A7.82,7.82,0,0,0,553.6,19a5.67,5.67,0,0,0-2-1.8,6.36,6.36,0,0,0-3-.66h-6.15l.24-.24V33.21l-.18-.3Z"/><circle class="cls-1" cx="47.36" cy="68.79" r="7.98"/><circle class="cls-1" cx="114.24" cy="68.79" r="7.98"/><circle class="cls-1" cx="47.36" cy="135.63" r="7.98"/><circle class="cls-1" cx="114.24" cy="135.63" r="7.98"/><circle class="cls-1" cx="47.36" cy="102.21" r="7.98"/><circle class="cls-1" cx="114.24" cy="102.21" r="7.98"/><circle class="cls-1" cx="80.8" cy="102.21" r="7.98"/><circle class="cls-1" cx="203.33" cy="68.79" r="7.98"/><circle class="cls-1" cx="270.2" cy="68.79" r="7.98"/><circle class="cls-1" cx="203.33" cy="135.63" r="7.98"/><circle class="cls-1" cx="270.2" cy="135.63" r="7.98"/><circle class="cls-1" cx="367.1" cy="68.79" r="7.98"/><circle class="cls-1" cx="433.98" cy="68.79" r="7.98"/><circle class="cls-1" cx="367.1" cy="135.63" r="7.98"/><circle class="cls-1" cx="433.98" cy="135.63" r="7.98"/><circle class="cls-1" cx="400.54" cy="102.21" r="7.98"/><circle class="cls-1" cx="533.31" cy="68.79" r="7.98"/><circle class="cls-1" cx="600.18" cy="135.63" r="7.98"/><circle class="cls-1" cx="721.31" cy="102.21" r="7.98"/></g></g></svg>