<svg xmlns="http://www.w3.org/2000/svg" viewBox="0 0 801.04 155.47"><defs><style>.cls-1{fill:#1f8ebe;}.cls-2{fill:#f9f3e9;}.cls-3{fill:#dfd9d0;}</style></defs><g id="Layer_2" data-name="Layer 2"><g id="Layer_1-2" data-name="Layer 1"><rect class="cls-1" x="161.64" width="158.89" height="51.32"/><rect class="cls-1" x="320.54" width="160" height="51.32"/><rect class="cls-1" x="480.54" width="160" height="51.32"/><path class="cls-1" d="M800.53,51.32h-160V0h154a6,6,0,0,1,6,6V51.32Z"/><path class="cls-2" d="M715.48,14.22a1.07,1.07,0,0,1,.84.36,1.23,1.23,0,0,1,.33.87V27.36a7.95,7.95,0,0,1-3.93,7,7.86,7.86,0,0,1-4.08,1.07,8.07,8.07,0,0,1-4.12-1.07,7.88,7.88,0,0,1-2.87-2.89,8.2,8.2,0,0,1-1-4.14V15.45a1.24,1.24,0,0,1,2.14-.85,1.23,1.23,0,0,1,.35.85V27.36a5.76,5.76,0,0,0,.75,2.93,5.61,5.61,0,0,0,7.62,2,5.73,5.73,0,0,0,2.09-2,5.32,5.32,0,0,0,.79-2.93V15.45a1.35,1.35,0,0,1,.3-.87A1,1,0,0,1,715.48,14.22Z"/><path class="cls-2" d="M407.39,14.22a1.07,1.07,0,0,1,.84.36,1.23,1.23,0,0,1,.33.87V27.36a7.95,7.95,0,0,1-3.93,7,7.86,7.86,0,0,1-4.08,1.07,8.07,8.07,0,0,1-4.12-1.07,7.88,7.88,0,0,1-2.87-2.89,8.2,8.2,0,0,1-1.05-4.14V15.45a1.24,1.24,0,0,1,2.14-.85,1.23,1.23,0,0,1,.35.85V27.36a5.76,5.76,0,0,0,.75,2.93,5.61,5.61,0,0,0,7.62,2,5.73,5.73,0,0,0,2.09-2,5.32,5.32,0,0,0,.79-2.93V15.45a1.35,1.35,0,0,1,.3-.87A1,1,0,0,1,407.39,14.22Z"/><rect class="cls-3" x="319.04" width="3" height="153.96"/><rect class="cls-3" x="479.04" width="3" height="153.96"/><rect class="cls-3" x="639.04" width="3" height="153.96"/><path class="cls-3" d="M160,155.47H10.18A10.2,10.2,0,0,1,0,145.29V7.9H3V145.29a7.2,7.2,0,0,0,7.18,7.18H160Z"/><path class="cls-1" d="M6,0H161.6V51.32H0V6A6,6,0,0,1,6,0Z"/><path class="cls-3" d="M789.36,155.46H160V0h3V152.46H789.36a8.68,8.68,0,0,0,8.68-8.68V51.32h3v92.46A11.68,11.68,0,0,1,789.36,155.46Z"/><path class="cls-2" d="M242.47,14.22a1.47,1.47,0,0,1,.58.15,1.55,1.55,0,0,1,.5.38l7.95,12h-1l8-12a1.13,1.13,0,0,1,1-.53,1.33,1.33,0,0,1,.84.36,1.1,1.1,0,0,1,.36.87V34a1.23,1.23,0,0,1-.36.87,1.3,1.3,0,0,1-1.8,0,1.23,1.23,0,0,1-.36-.87V17.73l.75.15-7.08,10.77a1.51,1.51,0,0,1-.44.35.94.94,0,0,1-.52.16,1,1,0,0,1-.54-.16,1.52,1.52,0,0,1-.45-.35l-7-10.77.63-.78V34a1.23,1.23,0,0,1-.33.87,1.07,1.07,0,0,1-.84.36,1.05,1.05,0,0,1-.83-.36,1.26,1.26,0,0,1-.31-.87V15.45a1.24,1.24,0,0,1,.34-.86A1.16,1.16,0,0,1,242.47,14.22Z"/><path class="cls-2" d="M722.49,14.22a1.47,1.47,0,0,1,.58.15,1.36,1.36,0,0,1,.5.38l7.95,12h-1l8-12a1.14,1.14,0,0,1,1-.53,1.31,1.31,0,0,1,.84.36,1.07,1.07,0,0,1,.36.87V34a1.15,1.15,0,0,1-.36.87,1.3,1.3,0,0,1-1.8,0,1.23,1.23,0,0,1-.36-.87V17.73l.75.15-7.08,10.77a1.51,1.51,0,0,1-.44.35.94.94,0,0,1-.52.16,1,1,0,0,1-.54-.16,1.52,1.52,0,0,1-.45-.35l-7-10.77.63-.78V34a1.23,1.23,0,0,1-.33.87,1.15,1.15,0,0,1-1.67,0,1.26,1.26,0,0,1-.31-.87V15.45a1.24,1.24,0,0,1,.34-.86A1.17,1.17,0,0,1,722.49,14.22Z"/><path class="cls-2" d="M81.3,14.25a8.6,8.6,0,0,1,3.86.82,7.81,7.81,0,0,1,2.77,2.3,10.52,10.52,0,0,1,1.67,3.37,14.62,14.62,0,0,1,.55,4,13.7,13.7,0,0,1-1,5.26,8.79,8.79,0,0,1-3,3.82,8.08,8.08,0,0,1-4.92,1.43h-7.5a1.09,1.09,0,0,1-.85-.36,1.18,1.18,0,0,1-.35-.87V15.45a1.17,1.17,0,0,1,.35-.86,1.12,1.12,0,0,1,.85-.34ZM81,32.91a6,6,0,0,0,3.77-1.12,6.37,6.37,0,0,0,2.13-3,12,12,0,0,0,.67-4.08,13,13,0,0,0-.37-3.11A8,8,0,0,0,86,19a5.76,5.76,0,0,0-2-1.8,6.36,6.36,0,0,0-3-.66H74.88l.24-.24V33.21l-.18-.3Z"/><path class="cls-2" d="M228.66,14.25a8.6,8.6,0,0,1,3.86.82,7.81,7.81,0,0,1,2.77,2.3A10.32,10.32,0,0,1,237,20.74a14.25,14.25,0,0,1,.55,4,13.7,13.7,0,0,1-.95,5.26,8.79,8.79,0,0,1-3,3.82,8.06,8.06,0,0,1-4.92,1.43h-7.5a1.11,1.11,0,0,1-.85-.36,1.22,1.22,0,0,1-.35-.87V15.45a1.17,1.17,0,0,1,.35-.86,1.12,1.12,0,0,1,.85-.34Zm-.3,18.66a6,6,0,0,0,3.77-1.12,6.37,6.37,0,0,0,2.13-3,11.8,11.8,0,0,0,.67-4.08,13,13,0,0,0-.37-3.11,8,8,0,0,0-1.17-2.6,5.67,5.67,0,0,0-2-1.8,6.36,6.36,0,0,0-3-.66h-6.15l.24-.24V33.21l-.18-.3Z"/><path class="cls-2" d="M568.3,15.63a1,1,0,0,1,.59.81,1.3,1.3,0,0,1-.29,1,.88.88,0,0,1-.69.42,1.54,1.54,0,0,1-.84-.18,9.21,9.21,0,0,0-2.13-1,8.79,8.79,0,0,0-5.64.27,7.69,7.69,0,0,0-4.23,4.36,9.41,9.41,0,0,0-.6,3.4,9.51,9.51,0,0,0,.63,3.54,7.8,7.8,0,0,0,1.73,2.65,7.08,7.08,0,0,0,2.55,1.66,8.35,8.35,0,0,0,3.16.58,8.11,8.11,0,0,0,4.53-1.33,1.36,1.36,0,0,1,.84-.15,1.1,1.1,0,0,1,.72.42,1.25,1.25,0,0,1,.27,1,1,1,0,0,1-.57.77,11.68,11.68,0,0,1-1.71.82,10.65,10.65,0,0,1-2,.58,10.51,10.51,0,0,1-2.09.21,11.17,11.17,0,0,1-4.08-.75,10,10,0,0,1-3.39-2.15,10.48,10.48,0,0,1-2.32-3.41,11.27,11.27,0,0,1-.86-4.48,11.05,11.05,0,0,1,.81-4.29A10.4,10.4,0,0,1,555,17a10.57,10.57,0,0,1,3.39-2.25,10.73,10.73,0,0,1,4.18-.81,11.23,11.23,0,0,1,3.05.43A10.11,10.11,0,0,1,568.3,15.63Z"/><circle class="cls-1" cx="80.8" cy="102.63" r="7.98"/><circle class="cls-1" cx="203.33" cy="69.21" r="7.98"/><circle class="cls-1" cx="270.2" cy="136.05" r="7.98"/><circle class="cls-1" cx="367.1" cy="69.21" r="7.98"/><circle class="cls-1" cx="433.98" cy="69.21" r="7.98"/><circle class="cls-1" cx="367.1" cy="136.05" r="7.98"/><circle class="cls-1" cx="433.98" cy="136.05" r="7.98"/><circle class="cls-1" cx="400.54" cy="102.63" r="7.98"/><circle class="cls-1" cx="533.31" cy="69.21" r="7.98"/><circle class="cls-1" cx="600.18" cy="69.21" r="7.98"/><circle class="cls-1" cx="533.31" cy="136.05" r="7.98"/><circle class="cls-1" cx="600.18" cy="136.05" r="7.98"/><circle class="cls-1" cx="687.87" cy="69.21" r="7.98"/><circle class="cls-1" cx="754.74" cy="69.21" r="7.98"/><circle class="cls-1" cx="687.87" cy="136.05" r="7.98"/><circle class="cls-1" cx="754.74" cy="136.05" r="7.98"/><circle class="cls-1" cx="687.87" cy="102.63" r="7.98"/><circle class="cls-1" cx="754.74" cy="102.63" r="7.98"/><circle class="cls-1" cx="721.31" cy="102.63" r="7.98"/></g></g></svg>