<svg xmlns="http://www.w3.org/2000/svg" viewBox="0 0 300.13 46.42"><defs><style>.cls-1{fill:#1f8ebe;}.cls-2{fill:#363026;}</style></defs><g id="Layer_2" data-name="Layer 2"><g id="Layer_1-2" data-name="Layer 1"><path class="cls-1" d="M282,23.94H5.17c-.28,0-.51-.42-.51-.94s.23-.94.51-.94H282c.29,0,.52.42.52.94S282.28,23.94,282,23.94Z"/><polygon class="cls-1" points="11.46 30.7 12.74 29.32 5.94 23 12.74 16.67 11.46 15.29 3.17 23 11.46 30.7"/><polygon class="cls-1" points="275.8 30.7 274.52 29.32 281.32 23 274.52 16.67 275.8 15.29 284.09 23 275.8 30.7"/><path class="cls-1" d="M269.4,32.53a.94.94,0,0,1-.94-.94V14.52a.95.95,0,1,1,1.89,0V31.59A1,1,0,0,1,269.4,32.53Z"/><path class="cls-1" d="M194.21,32.53a.94.94,0,0,1-.94-.94V14.52a.94.94,0,1,1,1.88,0V31.59A.94.94,0,0,1,194.21,32.53Z"/><path class="cls-1" d="M21.88,32.53a.94.94,0,0,1-.95-.94V14.52a.95.95,0,1,1,1.89,0V31.59A.94.94,0,0,1,21.88,32.53Z"/><path class="cls-1" d="M83,32.53a.94.94,0,0,1-.94-.94V14.52a.94.94,0,1,1,1.88,0V31.59A.94.94,0,0,1,83,32.53Z"/><path class="cls-2" d="M241.73,46.28a.6.6,0,0,1-.43-.17.54.54,0,0,1-.17-.4v-8l.17.2-1.62,1a.68.68,0,0,1-.28.07.55.55,0,0,1-.41-.19.61.61,0,0,1-.17-.39.57.57,0,0,1,.29-.49l2.29-1.36a.77.77,0,0,1,.42-.08.44.44,0,0,1,.37.16.57.57,0,0,1,.15.4v8.67a.54.54,0,0,1-.17.4A.6.6,0,0,1,241.73,46.28Z"/><path class="cls-2" d="M250.05,46.32a.68.68,0,0,1-.41-.14.48.48,0,0,1-.18-.39.57.57,0,0,1,.06-.25l3.62-8.26.16.25h-4.51a.52.52,0,0,1-.38-.15.54.54,0,0,1-.15-.38.5.5,0,0,1,.15-.37.52.52,0,0,1,.38-.15h5.05a.57.57,0,0,1,.42.15.48.48,0,0,1,.16.38.63.63,0,0,1-.06.27L250.57,46a.49.49,0,0,1-.21.26A.56.56,0,0,1,250.05,46.32Z"/><path class="cls-2" d="M259.12,46.42a2.91,2.91,0,0,1-1.94-.66A4,4,0,0,1,256,44a8.55,8.55,0,0,1,0-5.17A4,4,0,0,1,257.18,37a3.18,3.18,0,0,1,3.88,0,4,4,0,0,1,1.17,1.79,8.76,8.76,0,0,1,0,5.17,4,4,0,0,1-1.17,1.8A2.89,2.89,0,0,1,259.12,46.42Zm0-1.13a1.74,1.74,0,0,0,1.25-.48,3.05,3.05,0,0,0,.78-1.35,8.19,8.19,0,0,0,0-4.17,3,3,0,0,0-.78-1.35,1.9,1.9,0,0,0-2.5,0,3.1,3.1,0,0,0-.79,1.35,8.19,8.19,0,0,0,0,4.17,3.16,3.16,0,0,0,.79,1.35A1.76,1.76,0,0,0,259.12,45.29Z"/><path class="cls-2" d="M267.53,46.42a2.86,2.86,0,0,1-1.93-.66,4.08,4.08,0,0,1-1.18-1.8,8.55,8.55,0,0,1,0-5.17A4,4,0,0,1,265.6,37a3.17,3.17,0,0,1,3.87,0,4,4,0,0,1,1.17,1.79,8.76,8.76,0,0,1,0,5.17,4,4,0,0,1-1.17,1.8A2.87,2.87,0,0,1,267.53,46.42Zm0-1.13a1.77,1.77,0,0,0,1.26-.48,3,3,0,0,0,.77-1.35,8.19,8.19,0,0,0,0-4.17,2.9,2.9,0,0,0-.77-1.35,1.91,1.91,0,0,0-2.51,0,3,3,0,0,0-.78,1.35,8.19,8.19,0,0,0,0,4.17,3.05,3.05,0,0,0,.78,1.35A1.76,1.76,0,0,0,267.53,45.29Z"/><path class="cls-2" d="M279.8,46.42a2.89,2.89,0,0,1-1.94-.66,4.08,4.08,0,0,1-1.18-1.8,8.55,8.55,0,0,1,0-5.17A4,4,0,0,1,277.86,37a3.18,3.18,0,0,1,3.88,0,4,4,0,0,1,1.17,1.79,8.76,8.76,0,0,1,0,5.17,4,4,0,0,1-1.17,1.8A2.91,2.91,0,0,1,279.8,46.42Zm0-1.13a1.76,1.76,0,0,0,1.25-.48,3.05,3.05,0,0,0,.78-1.35,8.49,8.49,0,0,0,0-4.17,3,3,0,0,0-.78-1.35,1.9,1.9,0,0,0-2.5,0,2.92,2.92,0,0,0-.79,1.35,8.19,8.19,0,0,0,0,4.17,3,3,0,0,0,.79,1.35A1.74,1.74,0,0,0,279.8,45.29Z"/><path class="cls-2" d="M288.21,46.42a2.91,2.91,0,0,1-1.94-.66A4.06,4.06,0,0,1,285.1,44a8.55,8.55,0,0,1,0-5.17A4,4,0,0,1,286.27,37a3.18,3.18,0,0,1,3.88,0,4,4,0,0,1,1.17,1.79,8.76,8.76,0,0,1,0,5.17,4,4,0,0,1-1.17,1.8A2.89,2.89,0,0,1,288.21,46.42Zm0-1.13a1.79,1.79,0,0,0,1.26-.48,3,3,0,0,0,.77-1.35,8.19,8.19,0,0,0,0-4.17,3,3,0,0,0-.77-1.35,1.82,1.82,0,0,0-1.26-.47,1.8,1.8,0,0,0-1.25.47,3,3,0,0,0-.78,1.35,7.9,7.9,0,0,0,0,4.17,3.05,3.05,0,0,0,.78,1.35A1.76,1.76,0,0,0,288.21,45.29Z"/><path class="cls-2" d="M296.63,46.42a2.89,2.89,0,0,1-1.94-.66,4.08,4.08,0,0,1-1.18-1.8,8.55,8.55,0,0,1,0-5.17A4,4,0,0,1,294.69,37a3.18,3.18,0,0,1,3.88,0,4,4,0,0,1,1.16,1.79,8.55,8.55,0,0,1,0,5.17,4,4,0,0,1-1.16,1.8A2.91,2.91,0,0,1,296.63,46.42Zm0-1.13a1.76,1.76,0,0,0,1.25-.48,3.05,3.05,0,0,0,.78-1.35,8.49,8.49,0,0,0,0-4.17,3,3,0,0,0-.78-1.35,1.91,1.91,0,0,0-2.51,0,3,3,0,0,0-.78,1.35,8.19,8.19,0,0,0,0,4.17,3.05,3.05,0,0,0,.78,1.35A1.77,1.77,0,0,0,296.63,45.29Z"/><path class="cls-2" d="M2.91,46.28a.58.58,0,0,1-.43-.17.54.54,0,0,1-.17-.4v-8l.17.2-1.63,1A.61.61,0,0,1,.57,39a.54.54,0,0,1-.4-.19A.61.61,0,0,1,0,38.41a.57.57,0,0,1,.29-.49l2.29-1.36A.77.77,0,0,1,3,36.48a.46.46,0,0,1,.37.16.56.56,0,0,1,.14.4v8.67a.54.54,0,0,1-.16.4A.62.62,0,0,1,2.91,46.28Z"/><path class="cls-2" d="M12.81,46.42a2.91,2.91,0,0,1-1.94-.66A4,4,0,0,1,9.7,44a8.55,8.55,0,0,1,0-5.17A4,4,0,0,1,10.87,37a2.91,2.91,0,0,1,1.94-.66,2.91,2.91,0,0,1,1.94.66,4,4,0,0,1,1.17,1.79,8.76,8.76,0,0,1,0,5.17,4,4,0,0,1-1.17,1.8A2.91,2.91,0,0,1,12.81,46.42Zm0-1.13a1.76,1.76,0,0,0,1.25-.48,3.05,3.05,0,0,0,.78-1.35,8.19,8.19,0,0,0,0-4.17,3,3,0,0,0-.78-1.35,1.9,1.9,0,0,0-2.5,0,3.1,3.1,0,0,0-.79,1.35,8.19,8.19,0,0,0,0,4.17,3.16,3.16,0,0,0,.79,1.35A1.76,1.76,0,0,0,12.81,45.29Z"/><path class="cls-2" d="M21.22,46.42a2.91,2.91,0,0,1-1.94-.66A4.15,4.15,0,0,1,18.11,44a8.55,8.55,0,0,1,0-5.17A4.12,4.12,0,0,1,19.28,37a3.18,3.18,0,0,1,3.88,0,4,4,0,0,1,1.17,1.79,8.76,8.76,0,0,1,0,5.17,4,4,0,0,1-1.17,1.8A2.89,2.89,0,0,1,21.22,46.42Zm0-1.13a1.77,1.77,0,0,0,1.26-.48,3,3,0,0,0,.77-1.35,8.19,8.19,0,0,0,0-4.17,2.9,2.9,0,0,0-.77-1.35,1.91,1.91,0,0,0-2.51,0,3,3,0,0,0-.78,1.35,7.9,7.9,0,0,0,0,4.17A3.05,3.05,0,0,0,20,44.81,1.76,1.76,0,0,0,21.22,45.29Z"/><path class="cls-2" d="M29.64,46.42a2.89,2.89,0,0,1-1.94-.66A4.08,4.08,0,0,1,26.52,44a8.55,8.55,0,0,1,0-5.17A4,4,0,0,1,27.7,37a3.18,3.18,0,0,1,3.88,0,4.12,4.12,0,0,1,1.17,1.79,8.76,8.76,0,0,1,0,5.17,4.15,4.15,0,0,1-1.17,1.8A2.91,2.91,0,0,1,29.64,46.42Zm0-1.13a1.76,1.76,0,0,0,1.25-.48,3.05,3.05,0,0,0,.78-1.35,8.49,8.49,0,0,0,0-4.17,3,3,0,0,0-.78-1.35,1.8,1.8,0,0,0-1.25-.47,1.82,1.82,0,0,0-1.26.47,3,3,0,0,0-.78,1.35,8.19,8.19,0,0,0,0,4.17,3.05,3.05,0,0,0,.78,1.35A1.79,1.79,0,0,0,29.64,45.29Z"/><path class="cls-2" d="M41.9,46.42A2.91,2.91,0,0,1,40,45.76,4,4,0,0,1,38.79,44a8.55,8.55,0,0,1,0-5.17A4,4,0,0,1,40,37a3.18,3.18,0,0,1,3.88,0A4,4,0,0,1,45,38.79,8.76,8.76,0,0,1,45,44a4,4,0,0,1-1.17,1.8A2.89,2.89,0,0,1,41.9,46.42Zm0-1.13a1.74,1.74,0,0,0,1.25-.48,3,3,0,0,0,.78-1.35,8.19,8.19,0,0,0,0-4.17,2.91,2.91,0,0,0-.78-1.35,1.9,1.9,0,0,0-2.5,0,3.1,3.1,0,0,0-.79,1.35,8.19,8.19,0,0,0,0,4.17,3.16,3.16,0,0,0,.79,1.35A1.76,1.76,0,0,0,41.9,45.29Z"/><path class="cls-2" d="M50.32,46.42a2.89,2.89,0,0,1-1.94-.66A4.08,4.08,0,0,1,47.2,44a8.55,8.55,0,0,1,0-5.17A4,4,0,0,1,48.38,37a3.17,3.17,0,0,1,3.87,0,4,4,0,0,1,1.17,1.79,8.55,8.55,0,0,1,0,5.17,4,4,0,0,1-1.17,1.8A2.86,2.86,0,0,1,50.32,46.42Zm0-1.13a1.76,1.76,0,0,0,1.25-.48,3.05,3.05,0,0,0,.78-1.35,8.49,8.49,0,0,0,0-4.17,3,3,0,0,0-.78-1.35,1.91,1.91,0,0,0-2.51,0,3,3,0,0,0-.78,1.35,8.19,8.19,0,0,0,0,4.17,3.05,3.05,0,0,0,.78,1.35A1.77,1.77,0,0,0,50.32,45.29Z"/><path class="cls-2" d="M58.73,46.42a2.89,2.89,0,0,1-1.94-.66A4.08,4.08,0,0,1,55.61,44a8.76,8.76,0,0,1,0-5.17A4,4,0,0,1,56.79,37a3.18,3.18,0,0,1,3.88,0,4,4,0,0,1,1.17,1.79,8.76,8.76,0,0,1,0,5.17,4,4,0,0,1-1.17,1.8A2.91,2.91,0,0,1,58.73,46.42Zm0-1.13A1.76,1.76,0,0,0,60,44.81a3.05,3.05,0,0,0,.78-1.35,8.19,8.19,0,0,0,0-4.17A3,3,0,0,0,60,37.94a1.9,1.9,0,0,0-2.5,0,3,3,0,0,0-.79,1.35,8.19,8.19,0,0,0,0,4.17,3.06,3.06,0,0,0,.79,1.35A1.74,1.74,0,0,0,58.73,45.29Z"/><path class="cls-2" d="M59.64,9.94a.62.62,0,0,1-.44-.17.55.55,0,0,1-.16-.4v-8l.16.2-1.62,1a.64.64,0,0,1-.28.07.56.56,0,0,1-.41-.19.6.6,0,0,1-.16-.39A.55.55,0,0,1,57,1.58L59.3.22a.79.79,0,0,1,.42-.08A.46.46,0,0,1,60.1.3a.61.61,0,0,1,.14.4V9.37a.52.52,0,0,1-.17.4A.58.58,0,0,1,59.64,9.94Z"/><path class="cls-2" d="M68.31,9.94a.6.6,0,0,1-.44-.17.56.56,0,0,1-.17-.4v-8l.17.2-1.62,1a.68.68,0,0,1-.28.07.55.55,0,0,1-.41-.19.61.61,0,0,1-.17-.39.56.56,0,0,1,.3-.49L68,.22a.77.77,0,0,1,.42-.08.48.48,0,0,1,.38.16.61.61,0,0,1,.14.4V9.37a.56.56,0,0,1-.17.4A.6.6,0,0,1,68.31,9.94Z"/><path class="cls-2" d="M76.85,8.89a.51.51,0,0,1,.37.15.51.51,0,0,1,.16.38.47.47,0,0,1-.16.37.51.51,0,0,1-.37.15H71.76a.59.59,0,0,1-.41-.15.51.51,0,0,1-.16-.4.54.54,0,0,1,.17-.4l3.16-3.46a7.46,7.46,0,0,0,1-1.36,2.55,2.55,0,0,0,.37-1.24,2,2,0,0,0-.25-1A1.7,1.7,0,0,0,75,1.28a2.24,2.24,0,0,0-2.09.06,2.07,2.07,0,0,0-.81.91.5.5,0,0,1-.21.22.57.57,0,0,1-.25.06.64.64,0,0,1-.38-.14A.45.45,0,0,1,71.09,2a.52.52,0,0,1,.09-.29,2.47,2.47,0,0,1,.22-.29A2.94,2.94,0,0,1,72.56.38,3.27,3.27,0,0,1,74.06,0a3.44,3.44,0,0,1,1.63.36,2.55,2.55,0,0,1,1,1,3.11,3.11,0,0,1,.35,1.48,3.24,3.24,0,0,1-.19,1.08,4.72,4.72,0,0,1-.58,1.14,9.88,9.88,0,0,1-1,1.23L72.87,9l-.14-.14Z"/><path class="cls-2" d="M79.23,8.32l.18,0a.56.56,0,0,1,.23.15,2.29,2.29,0,0,0,1.53.56A2.2,2.2,0,0,0,83.1,8a2.17,2.17,0,0,0,.31-1.16,2,2,0,0,0-.31-1.17A1.94,1.94,0,0,0,82.3,5a2.52,2.52,0,0,0-1-.21,2,2,0,0,0-.36,0,1.65,1.65,0,0,0-.32.07,1.36,1.36,0,0,1-.27,0A.41.41,0,0,1,80,4.77a.57.57,0,0,1-.13-.37.52.52,0,0,1,.05-.23A.48.48,0,0,1,80,4l2.74-3,.22.27H79A.52.52,0,0,1,78.65,1,.54.54,0,0,1,78.5.66a.48.48,0,0,1,.15-.37A.52.52,0,0,1,79,.14h4.56A.55.55,0,0,1,84,.31a.64.64,0,0,1,.14.39.46.46,0,0,1-.06.23.55.55,0,0,1-.15.2l-2.73,3-.32-.28a.78.78,0,0,1,.32-.1,1.81,1.81,0,0,1,.42,0,2.77,2.77,0,0,1,1.44.38,2.74,2.74,0,0,1,1.05,1.06,3.19,3.19,0,0,1,.39,1.6,3.24,3.24,0,0,1-.46,1.75,3.16,3.16,0,0,1-1.26,1.14,4,4,0,0,1-1.82.41,3.47,3.47,0,0,1-1.1-.18A2.47,2.47,0,0,1,79,9.39a.52.52,0,0,1-.24-.22.59.59,0,0,1-.07-.25.64.64,0,0,1,.17-.41A.48.48,0,0,1,79.23,8.32Z"/><path class="cls-2" d="M94.89,9.94a.54.54,0,0,1-.4-.17.55.55,0,0,1-.16-.4V1.71l.22.08L91.21,6.16,91.15,6h5.13a.55.55,0,0,1,.53.53.46.46,0,0,1-.16.36.5.5,0,0,1-.37.15h-5.9A.53.53,0,0,1,90,6.86a.51.51,0,0,1-.18-.39A.57.57,0,0,1,90,6.1L94.43.36a.51.51,0,0,1,.22-.17.79.79,0,0,1,.25,0,.54.54,0,0,1,.4.16.57.57,0,0,1,.15.4V9.37a.55.55,0,0,1-.16.4A.54.54,0,0,1,94.89,9.94Z"/><path class="cls-2" d="M100.56,9.94a.58.58,0,0,1-.43-.17.52.52,0,0,1-.17-.4v-8l.17.2-1.63,1a.64.64,0,0,1-.28.07.53.53,0,0,1-.4-.19.55.55,0,0,1,.12-.88L100.22.22a.81.81,0,0,1,.42-.08A.46.46,0,0,1,101,.3a.56.56,0,0,1,.14.4V9.37a.52.52,0,0,1-.17.4A.58.58,0,0,1,100.56,9.94Z"/><path class="cls-2" d="M109.1,8.89a.52.52,0,0,1,.38.15.54.54,0,0,1,.15.38.5.5,0,0,1-.15.37.52.52,0,0,1-.38.15H104a.6.6,0,0,1-.42-.15.54.54,0,0,1-.16-.4.58.58,0,0,1,.17-.4l3.17-3.46a8.49,8.49,0,0,0,1-1.36,2.54,2.54,0,0,0,.36-1.24,1.88,1.88,0,0,0-.25-1,1.68,1.68,0,0,0-.67-.65,2.21,2.21,0,0,0-1-.23,2.18,2.18,0,0,0-1.07.29,2,2,0,0,0-.8.91.58.58,0,0,1-.22.22.53.53,0,0,1-.24.06.64.64,0,0,1-.38-.14.45.45,0,0,1-.18-.35.52.52,0,0,1,.09-.29c.06-.09.13-.19.21-.29A2.9,2.9,0,0,1,104.82.38,3.2,3.2,0,0,1,106.31,0a3.41,3.41,0,0,1,1.63.36,2.5,2.5,0,0,1,1,1,3,3,0,0,1,.36,1.48,3.51,3.51,0,0,1-.19,1.08,5.12,5.12,0,0,1-.58,1.14,9.17,9.17,0,0,1-1,1.23L105.12,9,105,8.89Z"/><path class="cls-2" d="M166.09,46.28a.6.6,0,0,1-.44-.17.54.54,0,0,1-.17-.4v-8l.17.2-1.62,1a.68.68,0,0,1-.28.07.55.55,0,0,1-.41-.19.61.61,0,0,1-.17-.39.56.56,0,0,1,.3-.49l2.28-1.36a.77.77,0,0,1,.42-.08.46.46,0,0,1,.38.16.61.61,0,0,1,.14.4v8.67a.54.54,0,0,1-.17.4A.6.6,0,0,1,166.09,46.28Z"/><path class="cls-2" d="M175,46.34a3.77,3.77,0,0,1-1.14-.18,2.9,2.9,0,0,1-1-.52.86.86,0,0,1-.18-.26.65.65,0,0,1-.07-.29.49.49,0,0,1,.15-.33.46.46,0,0,1,.38-.16.74.74,0,0,1,.42.18,2.44,2.44,0,0,0,.69.38,2.21,2.21,0,0,0,.75.14,2.71,2.71,0,0,0,1.32-.31,2.28,2.28,0,0,0,.9-.84,2.3,2.3,0,0,0,.33-1.22,2.17,2.17,0,0,0-.29-1.12,2,2,0,0,0-.79-.75,2.49,2.49,0,0,0-1.17-.27,2.52,2.52,0,0,0-.89.15,6.26,6.26,0,0,0-.67.3,1,1,0,0,1-.46.15.72.72,0,0,1-.42-.11.54.54,0,0,1-.2-.31.63.63,0,0,1,0-.33l.54-3.71a.64.64,0,0,1,.2-.32.6.6,0,0,1,.38-.13h4.15a.52.52,0,0,1,.38.15.55.55,0,0,1,.16.38.53.53,0,0,1-.16.38.52.52,0,0,1-.38.15H174l.14-.12-.52,3.23-.23-.29a1.93,1.93,0,0,1,.47-.28,5.21,5.21,0,0,1,.73-.24,4,4,0,0,1,.85-.1,3.17,3.17,0,0,1,1.63.42,3.06,3.06,0,0,1,1.14,1.12,3.18,3.18,0,0,1,.42,1.64,3.42,3.42,0,0,1-.27,1.37,3.29,3.29,0,0,1-.77,1.08,3.36,3.36,0,0,1-1.16.71A4.06,4.06,0,0,1,175,46.34Z"/><path class="cls-2" d="M180.88,44.66l.19,0a.69.69,0,0,1,.23.15,2.2,2.2,0,0,0,.66.4,2.14,2.14,0,0,0,.87.16,2.2,2.2,0,0,0,1.93-1,2.14,2.14,0,0,0,.31-1.16,2,2,0,0,0-.31-1.17,1.84,1.84,0,0,0-.8-.67,2.37,2.37,0,0,0-1-.22,2,2,0,0,0-.36,0l-.32.07a1.47,1.47,0,0,1-.27,0,.41.41,0,0,1-.35-.16.57.57,0,0,1-.13-.37.56.56,0,0,1,.05-.23.54.54,0,0,1,.14-.22l2.74-3,.22.27h-4a.52.52,0,0,1-.38-.15.54.54,0,0,1-.15-.38.5.5,0,0,1,.15-.37.52.52,0,0,1,.38-.15h4.56a.53.53,0,0,1,.45.18.59.59,0,0,1,.14.38.44.44,0,0,1-.06.23.55.55,0,0,1-.15.2l-2.73,3-.32-.28a1,1,0,0,1,.32-.1,2.6,2.6,0,0,1,.42-.05,2.77,2.77,0,0,1,1.44.38,2.74,2.74,0,0,1,1.05,1.06,3.19,3.19,0,0,1,.39,1.6,3.24,3.24,0,0,1-.46,1.75A3.16,3.16,0,0,1,184.48,46a3.9,3.9,0,0,1-1.82.41,3.77,3.77,0,0,1-1.1-.17,2.64,2.64,0,0,1-.93-.52.52.52,0,0,1-.24-.22.59.59,0,0,1-.07-.25.68.68,0,0,1,.16-.41A.51.51,0,0,1,180.88,44.66Z"/><path class="cls-2" d="M190.1,46.34a3.77,3.77,0,0,1-1.14-.18,2.9,2.9,0,0,1-1-.52.86.86,0,0,1-.18-.26.65.65,0,0,1-.07-.29.53.53,0,0,1,.14-.33.5.5,0,0,1,.39-.16.74.74,0,0,1,.42.18,2.44,2.44,0,0,0,.69.38,2.21,2.21,0,0,0,.75.14A2.68,2.68,0,0,0,191.4,45a2.28,2.28,0,0,0,.9-.84,2.3,2.3,0,0,0,.33-1.22,2.17,2.17,0,0,0-.29-1.12,2,2,0,0,0-.79-.75,2.69,2.69,0,0,0-2.06-.12,6.26,6.26,0,0,0-.67.3,1,1,0,0,1-.46.15.72.72,0,0,1-.42-.11.54.54,0,0,1-.2-.31.63.63,0,0,1,0-.33l.54-3.71a.64.64,0,0,1,.2-.32.6.6,0,0,1,.38-.13H193a.52.52,0,0,1,.38.15.51.51,0,0,1,.16.38.49.49,0,0,1-.16.38.52.52,0,0,1-.38.15h-3.87l.14-.12-.52,3.23-.23-.29a1.93,1.93,0,0,1,.47-.28,5.21,5.21,0,0,1,.73-.24,4,4,0,0,1,.85-.1,3.19,3.19,0,0,1,1.63.42,3.06,3.06,0,0,1,1.14,1.12,3.18,3.18,0,0,1,.42,1.64,3.42,3.42,0,0,1-.27,1.37,3.29,3.29,0,0,1-.77,1.08,3.36,3.36,0,0,1-1.16.71A4.06,4.06,0,0,1,190.1,46.34Z"/><path class="cls-2" d="M205.27,45.23a.52.52,0,0,1,.38.15.54.54,0,0,1,.15.38.48.48,0,0,1-.15.37.52.52,0,0,1-.38.15h-5.08a.56.56,0,0,1-.41-.15.49.49,0,0,1-.16-.4.58.58,0,0,1,.16-.4L203,41.87A8.07,8.07,0,0,0,204,40.51a2.54,2.54,0,0,0,.36-1.24,2,2,0,0,0-.24-1,1.77,1.77,0,0,0-.68-.65,2.19,2.19,0,0,0-1-.23,2.21,2.21,0,0,0-1.08.29,2,2,0,0,0-.8.91.52.52,0,0,1-.22.22.55.55,0,0,1-.24.07.59.59,0,0,1-.38-.15.44.44,0,0,1-.18-.35.52.52,0,0,1,.09-.29,2.47,2.47,0,0,1,.22-.29A2.87,2.87,0,0,1,201,36.72a3.21,3.21,0,0,1,1.5-.38,3.47,3.47,0,0,1,1.63.36,2.59,2.59,0,0,1,1,1,3,3,0,0,1,.36,1.48,3.24,3.24,0,0,1-.19,1.08,5.12,5.12,0,0,1-.58,1.14,9.2,9.2,0,0,1-1,1.23l-2.45,2.72-.14-.14Z"/><path class="cls-2" d="M207.65,44.66l.19,0a.69.69,0,0,1,.23.15,2.2,2.2,0,0,0,.66.4,2.14,2.14,0,0,0,.87.16,2.2,2.2,0,0,0,1.92-1,2.15,2.15,0,0,0,.32-1.16,2,2,0,0,0-.32-1.17,1.82,1.82,0,0,0-.79-.67,2.43,2.43,0,0,0-1-.22,2,2,0,0,0-.36,0l-.32.07a1.47,1.47,0,0,1-.27,0,.41.41,0,0,1-.35-.16.52.52,0,0,1-.13-.37.79.79,0,0,1,0-.23.9.9,0,0,1,.14-.22l2.75-3,.22.27h-4a.52.52,0,0,1-.38-.15.55.55,0,0,1-.16-.38.51.51,0,0,1,.16-.37.52.52,0,0,1,.38-.15H212a.54.54,0,0,1,.45.18.59.59,0,0,1,.14.38.44.44,0,0,1-.06.23,1,1,0,0,1-.15.2l-2.73,3-.32-.28a.9.9,0,0,1,.32-.1,2.6,2.6,0,0,1,.42-.05,2.77,2.77,0,0,1,1.44.38,2.74,2.74,0,0,1,1.05,1.06,3.19,3.19,0,0,1,.39,1.6,3.24,3.24,0,0,1-.46,1.75A3.12,3.12,0,0,1,211.24,46a3.83,3.83,0,0,1-1.81.41,3.77,3.77,0,0,1-1.1-.17,2.64,2.64,0,0,1-.93-.52.61.61,0,0,1-.25-.22.57.57,0,0,1-.06-.25.63.63,0,0,1,.16-.41A.5.5,0,0,1,207.65,44.66Z"/><path class="cls-2" d="M220.36,45.23a.52.52,0,0,1,.38.15.54.54,0,0,1,.15.38.48.48,0,0,1-.15.37.52.52,0,0,1-.38.15h-5.08a.58.58,0,0,1-.41-.15.49.49,0,0,1-.16-.4.55.55,0,0,1,.17-.4L218,41.87a7.14,7.14,0,0,0,1.05-1.36,2.54,2.54,0,0,0,.36-1.24,2,2,0,0,0-.24-1,1.7,1.7,0,0,0-.68-.65,2.19,2.19,0,0,0-1-.23,2.15,2.15,0,0,0-1.07.29,2.07,2.07,0,0,0-.81.91.57.57,0,0,1-.46.29.59.59,0,0,1-.38-.15.44.44,0,0,1-.18-.35.52.52,0,0,1,.09-.29,2.47,2.47,0,0,1,.22-.29,2.87,2.87,0,0,1,1.16-1.08,3.21,3.21,0,0,1,1.5-.38,3.44,3.44,0,0,1,1.63.36,2.53,2.53,0,0,1,1,1,3,3,0,0,1,.36,1.48,3.24,3.24,0,0,1-.19,1.08,4.72,4.72,0,0,1-.58,1.14,9.2,9.2,0,0,1-1,1.23l-2.45,2.72-.14-.14Z"/></g></g></svg>