<svg xmlns="http://www.w3.org/2000/svg" viewBox="0 0 300.13 46.42"><defs><style>.cls-1{fill:#1f8ebe;}.cls-2{fill:#363026;}</style></defs><g id="Layer_2" data-name="Layer 2"><g id="Layer_1-2" data-name="Layer 1"><path class="cls-1" d="M282,23.94H5.17c-.28,0-.51-.42-.51-.94s.23-.94.51-.94H282c.29,0,.52.42.52.94S282.28,23.94,282,23.94Z"/><polygon class="cls-1" points="11.46 30.7 12.74 29.32 5.94 23 12.74 16.68 11.46 15.29 3.17 23 11.46 30.7"/><polygon class="cls-1" points="275.8 30.7 274.52 29.32 281.32 23 274.52 16.68 275.8 15.29 284.09 23 275.8 30.7"/><path class="cls-1" d="M269.4,32.53a.94.94,0,0,1-.94-.94V14.52a.95.95,0,1,1,1.89,0V31.59A1,1,0,0,1,269.4,32.53Z"/><path class="cls-1" d="M194.21,32.53a.94.94,0,0,1-.94-.94V14.52a.94.94,0,1,1,1.88,0V31.59A.94.94,0,0,1,194.21,32.53Z"/><path class="cls-1" d="M21.88,32.53a.94.94,0,0,1-.95-.94V14.52a.95.95,0,1,1,1.89,0V31.59A.94.94,0,0,1,21.88,32.53Z"/><path class="cls-1" d="M83,32.53a.94.94,0,0,1-.94-.94V14.52a.94.94,0,1,1,1.88,0V31.59A.94.94,0,0,1,83,32.53Z"/><path class="cls-2" d="M241.73,46.28a.56.56,0,0,1-.43-.17.54.54,0,0,1-.17-.4v-8l.17.2-1.62,1a.68.68,0,0,1-.28.07.55.55,0,0,1-.41-.19.61.61,0,0,1-.17-.39.57.57,0,0,1,.29-.49l2.29-1.35a.69.69,0,0,1,.42-.09.47.47,0,0,1,.37.16.57.57,0,0,1,.15.4v8.67a.54.54,0,0,1-.17.4A.57.57,0,0,1,241.73,46.28Z"/><path class="cls-2" d="M250.05,46.32a.68.68,0,0,1-.41-.14.48.48,0,0,1-.18-.39.57.57,0,0,1,.06-.25l3.62-8.26.16.25h-4.51a.52.52,0,0,1-.38-.15.54.54,0,0,1-.15-.38.5.5,0,0,1,.15-.37.52.52,0,0,1,.38-.15h5.05a.57.57,0,0,1,.42.15.48.48,0,0,1,.16.38.6.6,0,0,1-.06.27L250.57,46a.46.46,0,0,1-.21.26A.56.56,0,0,1,250.05,46.32Z"/><path class="cls-2" d="M259.12,46.42a2.91,2.91,0,0,1-1.94-.66A4,4,0,0,1,256,44a8.55,8.55,0,0,1,0-5.17A4,4,0,0,1,257.18,37a3.18,3.18,0,0,1,3.88,0,4,4,0,0,1,1.17,1.79,8.76,8.76,0,0,1,0,5.17,4,4,0,0,1-1.17,1.8A2.89,2.89,0,0,1,259.12,46.42Zm0-1.13a1.74,1.74,0,0,0,1.25-.48,3.05,3.05,0,0,0,.78-1.35,8.19,8.19,0,0,0,0-4.17,3.05,3.05,0,0,0-.78-1.35,1.93,1.93,0,0,0-2.5,0,3.16,3.16,0,0,0-.79,1.35,8.19,8.19,0,0,0,0,4.17,3.16,3.16,0,0,0,.79,1.35A1.76,1.76,0,0,0,259.12,45.29Z"/><path class="cls-2" d="M267.53,46.42a2.86,2.86,0,0,1-1.93-.66,4.08,4.08,0,0,1-1.18-1.8,8.55,8.55,0,0,1,0-5.17A4.1,4.1,0,0,1,265.6,37a3.17,3.17,0,0,1,3.87,0,4,4,0,0,1,1.17,1.79,8.76,8.76,0,0,1,0,5.17,4,4,0,0,1-1.17,1.8A2.87,2.87,0,0,1,267.53,46.42Zm0-1.13a1.77,1.77,0,0,0,1.26-.48,3,3,0,0,0,.77-1.35,8.19,8.19,0,0,0,0-4.17,3,3,0,0,0-.77-1.35,1.94,1.94,0,0,0-2.51,0,3.05,3.05,0,0,0-.78,1.35,8.19,8.19,0,0,0,0,4.17,3.05,3.05,0,0,0,.78,1.35A1.76,1.76,0,0,0,267.53,45.29Z"/><path class="cls-2" d="M279.8,46.42a2.89,2.89,0,0,1-1.94-.66,4.08,4.08,0,0,1-1.18-1.8,8.55,8.55,0,0,1,0-5.17A4.1,4.1,0,0,1,277.86,37a3.18,3.18,0,0,1,3.88,0,4,4,0,0,1,1.17,1.79,8.76,8.76,0,0,1,0,5.17,4,4,0,0,1-1.17,1.8A2.91,2.91,0,0,1,279.8,46.42Zm0-1.13a1.76,1.76,0,0,0,1.25-.48,3.05,3.05,0,0,0,.78-1.35,8.49,8.49,0,0,0,0-4.17,3.05,3.05,0,0,0-.78-1.35,1.93,1.93,0,0,0-2.5,0,3,3,0,0,0-.79,1.35,8.19,8.19,0,0,0,0,4.17,3,3,0,0,0,.79,1.35A1.74,1.74,0,0,0,279.8,45.29Z"/><path class="cls-2" d="M288.21,46.42a2.91,2.91,0,0,1-1.94-.66A4.06,4.06,0,0,1,285.1,44a8.55,8.55,0,0,1,0-5.17A4.09,4.09,0,0,1,286.27,37a3.18,3.18,0,0,1,3.88,0,4,4,0,0,1,1.17,1.79,8.76,8.76,0,0,1,0,5.17,4,4,0,0,1-1.17,1.8A2.89,2.89,0,0,1,288.21,46.42Zm0-1.13a1.79,1.79,0,0,0,1.26-.48,3,3,0,0,0,.77-1.35,8.19,8.19,0,0,0,0-4.17,3,3,0,0,0-.77-1.35,1.81,1.81,0,0,0-1.26-.46,1.79,1.79,0,0,0-1.25.46,3.05,3.05,0,0,0-.78,1.35,7.9,7.9,0,0,0,0,4.17,3.05,3.05,0,0,0,.78,1.35A1.76,1.76,0,0,0,288.21,45.29Z"/><path class="cls-2" d="M296.63,46.42a2.89,2.89,0,0,1-1.94-.66,4.08,4.08,0,0,1-1.18-1.8,8.55,8.55,0,0,1,0-5.17A4.1,4.1,0,0,1,294.69,37a3.18,3.18,0,0,1,3.88,0,4.07,4.07,0,0,1,1.16,1.79,8.55,8.55,0,0,1,0,5.17,4,4,0,0,1-1.16,1.8A2.91,2.91,0,0,1,296.63,46.42Zm0-1.13a1.76,1.76,0,0,0,1.25-.48,3.05,3.05,0,0,0,.78-1.35,8.49,8.49,0,0,0,0-4.17,3.05,3.05,0,0,0-.78-1.35,1.94,1.94,0,0,0-2.51,0,3.05,3.05,0,0,0-.78,1.35,8.19,8.19,0,0,0,0,4.17,3.05,3.05,0,0,0,.78,1.35A1.77,1.77,0,0,0,296.63,45.29Z"/><path class="cls-2" d="M2.91,46.28a.58.58,0,0,1-.43-.17.54.54,0,0,1-.17-.4v-8l.17.2-1.63,1A.61.61,0,0,1,.57,39a.54.54,0,0,1-.4-.19A.61.61,0,0,1,0,38.41a.57.57,0,0,1,.29-.49l2.29-1.36A.77.77,0,0,1,3,36.48a.46.46,0,0,1,.37.16.56.56,0,0,1,.14.4v8.67a.54.54,0,0,1-.16.4A.62.62,0,0,1,2.91,46.28Z"/><path class="cls-2" d="M12.81,46.42a2.91,2.91,0,0,1-1.94-.66A4,4,0,0,1,9.7,44a8.55,8.55,0,0,1,0-5.17A4,4,0,0,1,10.87,37a2.91,2.91,0,0,1,1.94-.66,2.91,2.91,0,0,1,1.94.66,4,4,0,0,1,1.17,1.79,8.76,8.76,0,0,1,0,5.17,4,4,0,0,1-1.17,1.8A2.91,2.91,0,0,1,12.81,46.42Zm0-1.13a1.76,1.76,0,0,0,1.25-.48,3.05,3.05,0,0,0,.78-1.35,8.19,8.19,0,0,0,0-4.17,3,3,0,0,0-.78-1.35,1.9,1.9,0,0,0-2.5,0,3.1,3.1,0,0,0-.79,1.35,8.19,8.19,0,0,0,0,4.17,3.16,3.16,0,0,0,.79,1.35A1.76,1.76,0,0,0,12.81,45.29Z"/><path class="cls-2" d="M21.22,46.42a2.91,2.91,0,0,1-1.94-.66A4.15,4.15,0,0,1,18.11,44a8.55,8.55,0,0,1,0-5.17A4.12,4.12,0,0,1,19.28,37a3.18,3.18,0,0,1,3.88,0,4,4,0,0,1,1.17,1.79,8.76,8.76,0,0,1,0,5.17,4,4,0,0,1-1.17,1.8A2.89,2.89,0,0,1,21.22,46.42Zm0-1.13a1.77,1.77,0,0,0,1.26-.48,3,3,0,0,0,.77-1.35,8.19,8.19,0,0,0,0-4.17,2.9,2.9,0,0,0-.77-1.35,1.91,1.91,0,0,0-2.51,0,3,3,0,0,0-.78,1.35,7.9,7.9,0,0,0,0,4.17A3.05,3.05,0,0,0,20,44.81,1.76,1.76,0,0,0,21.22,45.29Z"/><path class="cls-2" d="M29.64,46.42a2.89,2.89,0,0,1-1.94-.66A4.08,4.08,0,0,1,26.52,44a8.55,8.55,0,0,1,0-5.17A4,4,0,0,1,27.7,37a3.18,3.18,0,0,1,3.88,0,4.12,4.12,0,0,1,1.17,1.79,8.76,8.76,0,0,1,0,5.17,4.15,4.15,0,0,1-1.17,1.8A2.91,2.91,0,0,1,29.64,46.42Zm0-1.13a1.76,1.76,0,0,0,1.25-.48,3.05,3.05,0,0,0,.78-1.35,8.49,8.49,0,0,0,0-4.17,3,3,0,0,0-.78-1.35,1.8,1.8,0,0,0-1.25-.47,1.82,1.82,0,0,0-1.26.47,3,3,0,0,0-.78,1.35,8.19,8.19,0,0,0,0,4.17,3.05,3.05,0,0,0,.78,1.35A1.79,1.79,0,0,0,29.64,45.29Z"/><path class="cls-2" d="M41.9,46.42A2.91,2.91,0,0,1,40,45.76,4,4,0,0,1,38.79,44a8.55,8.55,0,0,1,0-5.17A4,4,0,0,1,40,37a3.18,3.18,0,0,1,3.88,0A4,4,0,0,1,45,38.79,8.76,8.76,0,0,1,45,44a4,4,0,0,1-1.17,1.8A2.89,2.89,0,0,1,41.9,46.42Zm0-1.13a1.74,1.74,0,0,0,1.25-.48,3,3,0,0,0,.78-1.35,8.19,8.19,0,0,0,0-4.17,2.91,2.91,0,0,0-.78-1.35,1.9,1.9,0,0,0-2.5,0,3.1,3.1,0,0,0-.79,1.35,8.19,8.19,0,0,0,0,4.17,3.16,3.16,0,0,0,.79,1.35A1.76,1.76,0,0,0,41.9,45.29Z"/><path class="cls-2" d="M50.32,46.42a2.89,2.89,0,0,1-1.94-.66A4.08,4.08,0,0,1,47.2,44a8.55,8.55,0,0,1,0-5.17A4,4,0,0,1,48.38,37a3.17,3.17,0,0,1,3.87,0,4,4,0,0,1,1.17,1.79,8.55,8.55,0,0,1,0,5.17,4,4,0,0,1-1.17,1.8A2.86,2.86,0,0,1,50.32,46.42Zm0-1.13a1.76,1.76,0,0,0,1.25-.48,3.05,3.05,0,0,0,.78-1.35,8.49,8.49,0,0,0,0-4.17,3,3,0,0,0-.78-1.35,1.91,1.91,0,0,0-2.51,0,3,3,0,0,0-.78,1.35,8.19,8.19,0,0,0,0,4.17,3.05,3.05,0,0,0,.78,1.35A1.77,1.77,0,0,0,50.32,45.29Z"/><path class="cls-2" d="M58.73,46.42a2.89,2.89,0,0,1-1.94-.66A4.08,4.08,0,0,1,55.61,44a8.76,8.76,0,0,1,0-5.17A4,4,0,0,1,56.79,37a3.18,3.18,0,0,1,3.88,0,4,4,0,0,1,1.17,1.79,8.76,8.76,0,0,1,0,5.17,4,4,0,0,1-1.17,1.8A2.91,2.91,0,0,1,58.73,46.42Zm0-1.13A1.76,1.76,0,0,0,60,44.81a3.05,3.05,0,0,0,.78-1.35,8.19,8.19,0,0,0,0-4.17A3,3,0,0,0,60,37.94a1.9,1.9,0,0,0-2.5,0,3,3,0,0,0-.79,1.35,8.19,8.19,0,0,0,0,4.17,3.06,3.06,0,0,0,.79,1.35A1.74,1.74,0,0,0,58.73,45.29Z"/><path class="cls-2" d="M59.64,9.94a.62.62,0,0,1-.44-.17.55.55,0,0,1-.16-.4v-8l.16.2-1.62,1a.64.64,0,0,1-.28.07.53.53,0,0,1-.4-.19.57.57,0,0,1-.17-.39A.55.55,0,0,1,57,1.58L59.3.22a.79.79,0,0,1,.42-.08A.46.46,0,0,1,60.1.3a.61.61,0,0,1,.14.4V9.37a.52.52,0,0,1-.17.4A.58.58,0,0,1,59.64,9.94Z"/><path class="cls-2" d="M68.31,9.94a.6.6,0,0,1-.44-.17.56.56,0,0,1-.17-.4v-8l.17.2-1.62,1a.68.68,0,0,1-.28.07.55.55,0,0,1-.41-.19.61.61,0,0,1-.17-.39.56.56,0,0,1,.3-.49L68,.22a.77.77,0,0,1,.42-.08.48.48,0,0,1,.38.16.61.61,0,0,1,.14.4V9.37a.56.56,0,0,1-.17.4A.6.6,0,0,1,68.31,9.94Z"/><path class="cls-2" d="M71.43,8.32l.19,0a.63.63,0,0,1,.23.15,2,2,0,0,0,.66.4,2.13,2.13,0,0,0,.86.16A2.2,2.2,0,0,0,75.3,8a2.17,2.17,0,0,0,.31-1.16,2,2,0,0,0-.31-1.17A1.94,1.94,0,0,0,74.5,5a2.52,2.52,0,0,0-1-.21,2,2,0,0,0-.36,0,1.41,1.41,0,0,0-.31.07,1.45,1.45,0,0,1-.28,0,.42.42,0,0,1-.35-.16.57.57,0,0,1-.12-.37.53.53,0,0,1,0-.23A.59.59,0,0,1,72.24,4L75,.92l.23.27h-4A.54.54,0,0,1,70.85,1,.54.54,0,0,1,70.7.66a.48.48,0,0,1,.15-.37.54.54,0,0,1,.38-.15h4.56a.55.55,0,0,1,.45.17.59.59,0,0,1,.14.39.59.59,0,0,1,0,.23.74.74,0,0,1-.16.2l-2.73,3-.32-.28a.78.78,0,0,1,.32-.1,1.81,1.81,0,0,1,.42,0,2.8,2.8,0,0,1,2.49,1.44,3.09,3.09,0,0,1,.4,1.6,3.25,3.25,0,0,1-.47,1.75A3.09,3.09,0,0,1,75,9.67a4,4,0,0,1-1.82.41,3.41,3.41,0,0,1-1.09-.18,2.47,2.47,0,0,1-.93-.51.5.5,0,0,1-.25-.22.57.57,0,0,1-.06-.25A.63.63,0,0,1,71,8.51.5.5,0,0,1,71.43,8.32Z"/><path class="cls-2" d="M80.64,10a3.87,3.87,0,0,1-1.14-.18,3.07,3.07,0,0,1-1-.52A.86.86,0,0,1,78.3,9a.65.65,0,0,1-.07-.29.49.49,0,0,1,.15-.33.48.48,0,0,1,.38-.16.74.74,0,0,1,.42.18,2.58,2.58,0,0,0,.69.38,2.21,2.21,0,0,0,.75.14,2.68,2.68,0,0,0,1.32-.31,2.35,2.35,0,0,0,.9-.84,2.3,2.3,0,0,0,.33-1.22,2.14,2.14,0,0,0-.28-1.12,2.06,2.06,0,0,0-.8-.75,2.46,2.46,0,0,0-1.17-.27A2.42,2.42,0,0,0,80,4.6a6.5,6.5,0,0,0-.68.3,1,1,0,0,1-.46.15.77.77,0,0,1-.42-.11.54.54,0,0,1-.2-.31.76.76,0,0,1,0-.33L78.81.59A.56.56,0,0,1,79,.27a.55.55,0,0,1,.38-.13h4.16a.5.5,0,0,1,.37.15.51.51,0,0,1,.16.38.49.49,0,0,1-.16.38.5.5,0,0,1-.37.15H79.66l.14-.12-.52,3.23L79.06,4a1.53,1.53,0,0,1,.47-.28,4,4,0,0,1,.72-.24,3.47,3.47,0,0,1,.85-.1,3.26,3.26,0,0,1,1.63.41,3.1,3.1,0,0,1,1.56,2.77A3.37,3.37,0,0,1,84,7.94,3.23,3.23,0,0,1,83.25,9a3.36,3.36,0,0,1-1.16.71A4.06,4.06,0,0,1,80.64,10Z"/><path class="cls-2" d="M92.09,9.94a.58.58,0,0,1-.43-.17.52.52,0,0,1-.17-.4v-8l.17.2L90,2.58a.64.64,0,0,1-.28.07.53.53,0,0,1-.4-.19.55.55,0,0,1,.12-.88L91.75.22a.81.81,0,0,1,.42-.08.46.46,0,0,1,.38.16.56.56,0,0,1,.14.4V9.37a.52.52,0,0,1-.17.4A.58.58,0,0,1,92.09,9.94Z"/><path class="cls-2" d="M99.73,9.94a.52.52,0,0,1-.39-.17.56.56,0,0,1-.17-.4V1.71l.23.08L96.05,6.16,96,6h5.12a.49.49,0,0,1,.38.16.5.5,0,0,1,.15.37.49.49,0,0,1-.15.36.52.52,0,0,1-.38.15H95.23a.57.57,0,0,1-.39-.17.54.54,0,0,1-.17-.39.52.52,0,0,1,.14-.37L99.27.36A.53.53,0,0,1,99.5.19a.7.7,0,0,1,.25,0,.5.5,0,0,1,.39.16.57.57,0,0,1,.15.4V9.37a.55.55,0,0,1-.16.4A.53.53,0,0,1,99.73,9.94Z"/><path class="cls-2" d="M109.13,8.89a.51.51,0,0,1,.53.53.5.5,0,0,1-.15.37.54.54,0,0,1-.38.15h-5.08a.6.6,0,0,1-.42-.15.54.54,0,0,1-.16-.4.58.58,0,0,1,.17-.4l3.16-3.46a7.46,7.46,0,0,0,1-1.36,2.45,2.45,0,0,0,.37-1.24,1.88,1.88,0,0,0-.25-1,1.7,1.7,0,0,0-.68-.65,2.24,2.24,0,0,0-2.09.06,2,2,0,0,0-.8.91.58.58,0,0,1-.22.22.54.54,0,0,1-.25.06.61.61,0,0,1-.37-.14.46.46,0,0,1-.19-.35.46.46,0,0,1,.1-.29c.06-.09.13-.19.21-.29A2.94,2.94,0,0,1,104.84.38a3.27,3.27,0,0,1,1.5-.38A3.41,3.41,0,0,1,108,.36a2.5,2.5,0,0,1,1,1,3,3,0,0,1,.36,1.48,3.51,3.51,0,0,1-.19,1.08,5.12,5.12,0,0,1-.58,1.14,11.06,11.06,0,0,1-1,1.23L105.15,9,105,8.89Z"/><path class="cls-2" d="M166.09,46.28a.62.62,0,0,1-.44-.17.54.54,0,0,1-.17-.4v-8l.17.2-1.62,1a.68.68,0,0,1-.28.07.55.55,0,0,1-.41-.19.61.61,0,0,1-.17-.39.56.56,0,0,1,.3-.49l2.28-1.36a.77.77,0,0,1,.42-.08.46.46,0,0,1,.38.16.61.61,0,0,1,.14.4v8.67a.54.54,0,0,1-.17.4A.6.6,0,0,1,166.09,46.28Z"/><path class="cls-2" d="M175,46.34a3.77,3.77,0,0,1-1.14-.18,2.9,2.9,0,0,1-1-.52.86.86,0,0,1-.18-.26.65.65,0,0,1-.07-.29.49.49,0,0,1,.15-.33.46.46,0,0,1,.38-.16.74.74,0,0,1,.42.18,2.44,2.44,0,0,0,.69.38,2.21,2.21,0,0,0,.75.14,2.68,2.68,0,0,0,1.32-.31,2.28,2.28,0,0,0,.9-.84,2.3,2.3,0,0,0,.33-1.22,2.17,2.17,0,0,0-.29-1.12,2,2,0,0,0-.79-.75,2.49,2.49,0,0,0-1.17-.27,2.52,2.52,0,0,0-.89.15,6.26,6.26,0,0,0-.67.3,1,1,0,0,1-.46.15.72.72,0,0,1-.42-.11.54.54,0,0,1-.2-.31.63.63,0,0,1,0-.33l.54-3.71a.64.64,0,0,1,.2-.32.6.6,0,0,1,.38-.13h4.15a.52.52,0,0,1,.38.15.55.55,0,0,1,.16.38.53.53,0,0,1-.16.38.52.52,0,0,1-.38.15H174l.14-.12-.52,3.23-.22-.29a1.67,1.67,0,0,1,.46-.28,5.21,5.21,0,0,1,.73-.24,4,4,0,0,1,.85-.1,3.17,3.17,0,0,1,1.63.42,3.06,3.06,0,0,1,1.14,1.12,3.18,3.18,0,0,1,.42,1.64,3.42,3.42,0,0,1-.27,1.37,3.29,3.29,0,0,1-.77,1.08,3.36,3.36,0,0,1-1.16.71A4.06,4.06,0,0,1,175,46.34Z"/><path class="cls-2" d="M183.54,46.42a3.1,3.1,0,0,1-1.4-.3,2.83,2.83,0,0,1-1-.82,3.68,3.68,0,0,1-.61-1.16,4.25,4.25,0,0,1-.21-1.33,7,7,0,0,1,.15-1.35,8.43,8.43,0,0,1,.47-1.51,7.33,7.33,0,0,1,.82-1.5,6.59,6.59,0,0,1,1.2-1.28,5.32,5.32,0,0,1,1.61-.87l.23,0a.7.7,0,0,1,.4.12.5.5,0,0,1,.17.43.48.48,0,0,1-.13.34.71.71,0,0,1-.33.22,4.47,4.47,0,0,0-1.1.61,5.42,5.42,0,0,0-1,.93,6.16,6.16,0,0,0-.79,1.17,4.31,4.31,0,0,0-.45,1.29l-.34.11a3.59,3.59,0,0,1,.6-.71,2.89,2.89,0,0,1,.85-.55,2.61,2.61,0,0,1,1.06-.21,2.46,2.46,0,0,1,1.14.27,3.11,3.11,0,0,1,.94.71,3.34,3.34,0,0,1,.87,2.24,3.18,3.18,0,0,1-.41,1.58A3.28,3.28,0,0,1,185.15,46,3,3,0,0,1,183.54,46.42Zm0-1.05a2,2,0,0,0,1-.27,2,2,0,0,0,.72-.76,2.21,2.21,0,0,0,.27-1.1,2.39,2.39,0,0,0-.24-1.06,2,2,0,0,0-.68-.79,1.84,1.84,0,0,0-1.06-.3,2,2,0,0,0-1.87,1.08,2.38,2.38,0,0,0-.26,1.1,2.2,2.2,0,0,0,.26,1,2,2,0,0,0,.72.77A2.08,2.08,0,0,0,183.53,45.37Z"/><path class="cls-2" d="M193.88,45.23a.51.51,0,0,1,.37.15.51.51,0,0,1,.16.38.46.46,0,0,1-.16.37.51.51,0,0,1-.37.15h-5.09a.59.59,0,0,1-.41-.15.49.49,0,0,1-.16-.4.6.6,0,0,1,.17-.4l3.16-3.46a7.14,7.14,0,0,0,1-1.36,2.45,2.45,0,0,0,.37-1.24,2,2,0,0,0-.25-1,1.7,1.7,0,0,0-.68-.65,2.24,2.24,0,0,0-2.09.06,2.07,2.07,0,0,0-.81.91.5.5,0,0,1-.21.22.55.55,0,0,1-.25.07.61.61,0,0,1-.38-.15.44.44,0,0,1-.18-.35.52.52,0,0,1,.09-.29c.06-.09.14-.19.22-.29a2.94,2.94,0,0,1,1.16-1.08,3.27,3.27,0,0,1,1.5-.38,3.41,3.41,0,0,1,1.63.36,2.62,2.62,0,0,1,1,1,3,3,0,0,1,.35,1.48,3.49,3.49,0,0,1-.18,1.08,5.18,5.18,0,0,1-.59,1.14,9.2,9.2,0,0,1-1,1.23l-2.45,2.72-.14-.14Z"/><path class="cls-2" d="M205.52,45.23a.52.52,0,0,1,.38.15.55.55,0,0,1,.16.38.49.49,0,0,1-.16.37.52.52,0,0,1-.38.15h-5.08a.58.58,0,0,1-.41-.15.49.49,0,0,1-.16-.4.55.55,0,0,1,.17-.4l3.16-3.46a7.14,7.14,0,0,0,1.05-1.36,2.54,2.54,0,0,0,.36-1.24,2,2,0,0,0-.24-1,1.7,1.7,0,0,0-.68-.65,2.19,2.19,0,0,0-1-.23,2.15,2.15,0,0,0-1.07.29,2.07,2.07,0,0,0-.81.91.57.57,0,0,1-.46.29.59.59,0,0,1-.38-.15.44.44,0,0,1-.18-.35.52.52,0,0,1,.09-.29,2.47,2.47,0,0,1,.22-.29,2.87,2.87,0,0,1,1.16-1.08,3.27,3.27,0,0,1,1.5-.38,3.44,3.44,0,0,1,1.63.36,2.53,2.53,0,0,1,1,1,3,3,0,0,1,.36,1.48,3.24,3.24,0,0,1-.19,1.08,4.72,4.72,0,0,1-.58,1.14,9.2,9.2,0,0,1-1,1.23l-2.45,2.72-.14-.14Z"/><path class="cls-2" d="M213.32,45.23a.52.52,0,0,1,.38.15.54.54,0,0,1,.15.38.48.48,0,0,1-.15.37.52.52,0,0,1-.38.15h-5.08a.56.56,0,0,1-.41-.15.49.49,0,0,1-.16-.4.58.58,0,0,1,.16-.4L211,41.87a7.14,7.14,0,0,0,1.05-1.36,2.54,2.54,0,0,0,.36-1.24,2,2,0,0,0-.24-1,1.77,1.77,0,0,0-.68-.65,2.19,2.19,0,0,0-1-.23,2.15,2.15,0,0,0-1.07.29,2,2,0,0,0-.81.91.58.58,0,0,1-.22.22.55.55,0,0,1-.24.07.59.59,0,0,1-.38-.15.44.44,0,0,1-.18-.35.52.52,0,0,1,.09-.29,2.47,2.47,0,0,1,.22-.29A2.87,2.87,0,0,1,209,36.72a3.21,3.21,0,0,1,1.5-.38,3.47,3.47,0,0,1,1.63.36,2.53,2.53,0,0,1,1,1,3,3,0,0,1,.36,1.48,3.24,3.24,0,0,1-.19,1.08,5.12,5.12,0,0,1-.58,1.14,9.2,9.2,0,0,1-1,1.23l-2.45,2.72-.14-.14Z"/><path class="cls-2" d="M215.7,44.66l.19,0a.69.69,0,0,1,.23.15,2.2,2.2,0,0,0,.66.4,2.14,2.14,0,0,0,.87.16,2.2,2.2,0,0,0,1.92-1,2.15,2.15,0,0,0,.32-1.16,2,2,0,0,0-.32-1.17,1.79,1.79,0,0,0-.8-.67,2.36,2.36,0,0,0-1-.22,2,2,0,0,0-.36,0l-.32.07a1.47,1.47,0,0,1-.27,0,.41.41,0,0,1-.35-.16.52.52,0,0,1-.13-.37.79.79,0,0,1,0-.23.9.9,0,0,1,.14-.22l2.75-3,.22.27h-4a.52.52,0,0,1-.38-.15A.51.51,0,0,1,215,37a.47.47,0,0,1,.16-.37.52.52,0,0,1,.38-.15h4.56a.55.55,0,0,1,.45.18.59.59,0,0,1,.14.38.44.44,0,0,1-.06.23,1,1,0,0,1-.15.2l-2.73,3-.32-.28a.9.9,0,0,1,.32-.1,2.6,2.6,0,0,1,.42-.05,2.77,2.77,0,0,1,1.44.38,2.74,2.74,0,0,1,1,1.06,3.19,3.19,0,0,1,.39,1.6,3.24,3.24,0,0,1-.46,1.75A3.12,3.12,0,0,1,219.29,46a3.83,3.83,0,0,1-1.81.41,3.77,3.77,0,0,1-1.1-.17,2.64,2.64,0,0,1-.93-.52.61.61,0,0,1-.25-.22.57.57,0,0,1-.06-.25.68.68,0,0,1,.16-.41A.5.5,0,0,1,215.7,44.66Z"/></g></g></svg>