<svg xmlns="http://www.w3.org/2000/svg" viewBox="0 0 300.13 46.59"><defs><style>.cls-1{fill:#1f8ebe;}.cls-2{fill:#363026;}</style></defs><g id="Layer_2" data-name="Layer 2"><g id="Layer_1-2" data-name="Layer 1"><path class="cls-1" d="M282,24H5.17c-.28,0-.51-.42-.51-.94s.23-1,.51-1H282c.29,0,.52.43.52,1S282.28,24,282,24Z"/><polygon class="cls-1" points="11.46 30.73 12.74 29.35 5.94 23.03 12.74 16.7 11.46 15.32 3.17 23.03 11.46 30.73"/><polygon class="cls-1" points="275.8 30.73 274.52 29.35 281.32 23.03 274.52 16.7 275.8 15.32 284.09 23.03 275.8 30.73"/><path class="cls-1" d="M269.4,32.56a.94.94,0,0,1-.94-.94V14.54a.95.95,0,0,1,1.89,0V31.62A1,1,0,0,1,269.4,32.56Z"/><path class="cls-1" d="M21.88,32.56a.94.94,0,0,1-.95-.94V14.54a.95.95,0,0,1,1.89,0V31.62A.94.94,0,0,1,21.88,32.56Z"/><path class="cls-1" d="M96.05,32.56a.94.94,0,0,1-.94-.94V14.54a.95.95,0,0,1,1.89,0V31.62A1,1,0,0,1,96.05,32.56Z"/><path class="cls-2" d="M241.73,46.31a.6.6,0,0,1-.43-.17.57.57,0,0,1-.17-.41v-8l.17.19-1.62,1a.55.55,0,0,1-.28.07.54.54,0,0,1-.41-.18.61.61,0,0,1-.17-.39.57.57,0,0,1,.29-.49l2.29-1.36a.77.77,0,0,1,.42-.08.44.44,0,0,1,.37.16.57.57,0,0,1,.15.4v8.66a.57.57,0,0,1-.17.41A.6.6,0,0,1,241.73,46.31Z"/><path class="cls-2" d="M250.05,46.35a.63.63,0,0,1-.41-.15.45.45,0,0,1-.18-.38.54.54,0,0,1,.06-.25l3.62-8.26.16.25h-4.51a.49.49,0,0,1-.38-.16.5.5,0,0,1-.15-.37.48.48,0,0,1,.15-.37.52.52,0,0,1,.38-.15h5.05a.57.57,0,0,1,.42.15.46.46,0,0,1,.16.38.66.66,0,0,1-.06.27L250.57,46a.49.49,0,0,1-.21.26A.56.56,0,0,1,250.05,46.35Z"/><path class="cls-2" d="M259.12,46.45a2.91,2.91,0,0,1-1.94-.66A4,4,0,0,1,256,44a8.52,8.52,0,0,1,0-5.16A4,4,0,0,1,257.18,37a3.18,3.18,0,0,1,3.88,0,4,4,0,0,1,1.17,1.79,8.73,8.73,0,0,1,0,5.16,4,4,0,0,1-1.17,1.81A2.89,2.89,0,0,1,259.12,46.45Zm0-1.14a1.74,1.74,0,0,0,1.25-.47,3.05,3.05,0,0,0,.78-1.35,8.19,8.19,0,0,0,0-4.17,2.94,2.94,0,0,0-.78-1.35,1.9,1.9,0,0,0-2.5,0,3,3,0,0,0-.79,1.35,8.19,8.19,0,0,0,0,4.17,3.16,3.16,0,0,0,.79,1.35A1.75,1.75,0,0,0,259.12,45.31Z"/><path class="cls-2" d="M267.53,46.45a2.86,2.86,0,0,1-1.93-.66A4.06,4.06,0,0,1,264.42,44a8.52,8.52,0,0,1,0-5.16A4,4,0,0,1,265.6,37a3.17,3.17,0,0,1,3.87,0,4,4,0,0,1,1.17,1.79,8.73,8.73,0,0,1,0,5.16,4,4,0,0,1-1.17,1.81A2.87,2.87,0,0,1,267.53,46.45Zm0-1.14a1.76,1.76,0,0,0,1.26-.47,3,3,0,0,0,.77-1.35,8.19,8.19,0,0,0,0-4.17,2.85,2.85,0,0,0-.77-1.35,1.91,1.91,0,0,0-2.51,0,2.94,2.94,0,0,0-.78,1.35,8.19,8.19,0,0,0,0,4.17,3.05,3.05,0,0,0,.78,1.35A1.75,1.75,0,0,0,267.53,45.31Z"/><path class="cls-2" d="M279.8,46.45a2.89,2.89,0,0,1-1.94-.66A4.06,4.06,0,0,1,276.68,44a8.52,8.52,0,0,1,0-5.16A4,4,0,0,1,277.86,37a3.18,3.18,0,0,1,3.88,0,4,4,0,0,1,1.17,1.79,8.73,8.73,0,0,1,0,5.16,4,4,0,0,1-1.17,1.81A2.91,2.91,0,0,1,279.8,46.45Zm0-1.14a1.75,1.75,0,0,0,1.25-.47,3.05,3.05,0,0,0,.78-1.35,8.49,8.49,0,0,0,0-4.17,2.94,2.94,0,0,0-.78-1.35,1.9,1.9,0,0,0-2.5,0,2.87,2.87,0,0,0-.79,1.35,8.19,8.19,0,0,0,0,4.17,3,3,0,0,0,.79,1.35A1.74,1.74,0,0,0,279.8,45.31Z"/><path class="cls-2" d="M288.21,46.45a2.91,2.91,0,0,1-1.94-.66A4,4,0,0,1,285.1,44a8.52,8.52,0,0,1,0-5.16A4,4,0,0,1,286.27,37a3.18,3.18,0,0,1,3.88,0,4,4,0,0,1,1.17,1.79,8.73,8.73,0,0,1,0,5.16,4,4,0,0,1-1.17,1.81A2.89,2.89,0,0,1,288.21,46.45Zm0-1.14a1.78,1.78,0,0,0,1.26-.47,3,3,0,0,0,.77-1.35,8.19,8.19,0,0,0,0-4.17,2.93,2.93,0,0,0-.77-1.35,1.82,1.82,0,0,0-1.26-.47A1.8,1.8,0,0,0,287,38a2.94,2.94,0,0,0-.78,1.35,7.9,7.9,0,0,0,0,4.17,3.05,3.05,0,0,0,.78,1.35A1.75,1.75,0,0,0,288.21,45.31Z"/><path class="cls-2" d="M296.63,46.45a2.89,2.89,0,0,1-1.94-.66A4.06,4.06,0,0,1,293.51,44a8.52,8.52,0,0,1,0-5.16A4,4,0,0,1,294.69,37a3.18,3.18,0,0,1,3.88,0,4,4,0,0,1,1.16,1.79,8.52,8.52,0,0,1,0,5.16,4,4,0,0,1-1.16,1.81A2.91,2.91,0,0,1,296.63,46.45Zm0-1.14a1.75,1.75,0,0,0,1.25-.47,3.05,3.05,0,0,0,.78-1.35,8.49,8.49,0,0,0,0-4.17,2.94,2.94,0,0,0-.78-1.35,1.91,1.91,0,0,0-2.51,0,2.94,2.94,0,0,0-.78,1.35,8.19,8.19,0,0,0,0,4.17,3.05,3.05,0,0,0,.78,1.35A1.76,1.76,0,0,0,296.63,45.31Z"/><path class="cls-2" d="M2.91,46.31a.58.58,0,0,1-.43-.17.57.57,0,0,1-.17-.41v-8l.17.19-1.63,1A.51.51,0,0,1,.57,39a.53.53,0,0,1-.4-.18A.61.61,0,0,1,0,38.44.56.56,0,0,1,.29,38l2.29-1.36A.77.77,0,0,1,3,36.51a.46.46,0,0,1,.37.16.56.56,0,0,1,.14.4v8.66a.56.56,0,0,1-.16.41A.62.62,0,0,1,2.91,46.31Z"/><path class="cls-2" d="M12.81,46.45a2.91,2.91,0,0,1-1.94-.66A4,4,0,0,1,9.7,44a8.52,8.52,0,0,1,0-5.16A3.89,3.89,0,0,1,10.87,37a2.91,2.91,0,0,1,1.94-.66,2.91,2.91,0,0,1,1.94.66,3.89,3.89,0,0,1,1.17,1.79,8.73,8.73,0,0,1,0,5.16,4,4,0,0,1-1.17,1.81A2.91,2.91,0,0,1,12.81,46.45Zm0-1.14a1.75,1.75,0,0,0,1.25-.47,3.05,3.05,0,0,0,.78-1.35,7.14,7.14,0,0,0,.27-2.08,7.24,7.24,0,0,0-.27-2.1A3,3,0,0,0,14.06,38a1.9,1.9,0,0,0-2.5,0,3.06,3.06,0,0,0-.79,1.34,7.24,7.24,0,0,0-.27,2.1,7.14,7.14,0,0,0,.27,2.08,3.16,3.16,0,0,0,.79,1.35A1.75,1.75,0,0,0,12.81,45.31Z"/><path class="cls-2" d="M21.22,46.45a2.91,2.91,0,0,1-1.94-.66A4.13,4.13,0,0,1,18.11,44a8.52,8.52,0,0,1,0-5.16A4.06,4.06,0,0,1,19.28,37a3.18,3.18,0,0,1,3.88,0,3.89,3.89,0,0,1,1.17,1.79,8.73,8.73,0,0,1,0,5.16,4,4,0,0,1-1.17,1.81A2.89,2.89,0,0,1,21.22,46.45Zm0-1.14a1.76,1.76,0,0,0,1.26-.47,3,3,0,0,0,.77-1.35,7.14,7.14,0,0,0,.27-2.08,7.24,7.24,0,0,0-.27-2.1A2.86,2.86,0,0,0,22.48,38,1.91,1.91,0,0,0,20,38a3,3,0,0,0-.78,1.34,6.89,6.89,0,0,0-.28,2.1,6.8,6.8,0,0,0,.28,2.08A3.05,3.05,0,0,0,20,44.84,1.75,1.75,0,0,0,21.22,45.31Z"/><path class="cls-2" d="M29.64,46.45a2.89,2.89,0,0,1-1.94-.66A4.06,4.06,0,0,1,26.52,44a8.52,8.52,0,0,1,0-5.16A4,4,0,0,1,27.7,37a3.18,3.18,0,0,1,3.88,0,4.06,4.06,0,0,1,1.17,1.79,8.73,8.73,0,0,1,0,5.16,4.13,4.13,0,0,1-1.17,1.81A2.91,2.91,0,0,1,29.64,46.45Zm0-1.14a1.75,1.75,0,0,0,1.25-.47,3.05,3.05,0,0,0,.78-1.35,7.16,7.16,0,0,0,.26-2.08,7.26,7.26,0,0,0-.26-2.1A3,3,0,0,0,30.89,38a1.8,1.8,0,0,0-1.25-.47,1.82,1.82,0,0,0-1.26.47,3,3,0,0,0-.78,1.34,7.24,7.24,0,0,0-.27,2.1,7.14,7.14,0,0,0,.27,2.08,3.05,3.05,0,0,0,.78,1.35A1.78,1.78,0,0,0,29.64,45.31Z"/><path class="cls-2" d="M41.9,46.45A2.91,2.91,0,0,1,40,45.79,4,4,0,0,1,38.79,44a8.52,8.52,0,0,1,0-5.16A3.89,3.89,0,0,1,40,37a3.18,3.18,0,0,1,3.88,0A3.89,3.89,0,0,1,45,38.82,8.73,8.73,0,0,1,45,44a4,4,0,0,1-1.17,1.81A2.89,2.89,0,0,1,41.9,46.45Zm0-1.14a1.74,1.74,0,0,0,1.25-.47,3,3,0,0,0,.78-1.35,7.14,7.14,0,0,0,.27-2.08,7.24,7.24,0,0,0-.27-2.1A2.87,2.87,0,0,0,43.15,38a1.9,1.9,0,0,0-2.5,0,3.06,3.06,0,0,0-.79,1.34,7.24,7.24,0,0,0-.27,2.1,7.14,7.14,0,0,0,.27,2.08,3.16,3.16,0,0,0,.79,1.35A1.75,1.75,0,0,0,41.9,45.31Z"/><path class="cls-2" d="M50.32,46.45a2.89,2.89,0,0,1-1.94-.66A4.06,4.06,0,0,1,47.2,44a8.52,8.52,0,0,1,0-5.16A4,4,0,0,1,48.38,37a3.17,3.17,0,0,1,3.87,0,3.89,3.89,0,0,1,1.17,1.79,8.52,8.52,0,0,1,0,5.16,4,4,0,0,1-1.17,1.81A2.86,2.86,0,0,1,50.32,46.45Zm0-1.14a1.75,1.75,0,0,0,1.25-.47,3.05,3.05,0,0,0,.78-1.35,7.52,7.52,0,0,0,.26-2.08,7.62,7.62,0,0,0-.26-2.1A3,3,0,0,0,51.57,38a1.91,1.91,0,0,0-2.51,0,3,3,0,0,0-.78,1.34,7.24,7.24,0,0,0-.27,2.1,7.14,7.14,0,0,0,.27,2.08,3.05,3.05,0,0,0,.78,1.35A1.76,1.76,0,0,0,50.32,45.31Z"/><path class="cls-2" d="M58.73,46.45a2.89,2.89,0,0,1-1.94-.66A4.06,4.06,0,0,1,55.61,44a8.73,8.73,0,0,1,0-5.16A4,4,0,0,1,56.79,37a3.18,3.18,0,0,1,3.88,0,3.89,3.89,0,0,1,1.17,1.79,8.73,8.73,0,0,1,0,5.16,4,4,0,0,1-1.17,1.81A2.91,2.91,0,0,1,58.73,46.45Zm0-1.14A1.75,1.75,0,0,0,60,44.84a3.05,3.05,0,0,0,.78-1.35A7.14,7.14,0,0,0,61,41.41a7.24,7.24,0,0,0-.27-2.1A3,3,0,0,0,60,38a1.9,1.9,0,0,0-2.5,0,3,3,0,0,0-.79,1.34,7.24,7.24,0,0,0-.27,2.1,7.14,7.14,0,0,0,.27,2.08,3.06,3.06,0,0,0,.79,1.35A1.74,1.74,0,0,0,58.73,45.31Z"/><path class="cls-2" d="M71,10a.62.62,0,0,1-.44-.17.56.56,0,0,1-.16-.41v-8l.16.19-1.62,1a.56.56,0,0,1-.69-.12.56.56,0,0,1-.16-.38.54.54,0,0,1,.29-.49L70.66.25a.77.77,0,0,1,.42-.08.46.46,0,0,1,.38.16.61.61,0,0,1,.14.4V9.39a.57.57,0,0,1-.17.41A.58.58,0,0,1,71,10Z"/><path class="cls-2" d="M79.66,10a.6.6,0,0,1-.43-.17.57.57,0,0,1-.17-.41v-8l.17.19-1.62,1a.55.55,0,0,1-.28.07.52.52,0,0,1-.41-.19.57.57,0,0,1-.17-.38.55.55,0,0,1,.3-.49L79.33.25a.77.77,0,0,1,.42-.08.48.48,0,0,1,.38.16.61.61,0,0,1,.14.4V9.39a.57.57,0,0,1-.17.41A.6.6,0,0,1,79.66,10Z"/><path class="cls-2" d="M84.7,10a3.85,3.85,0,0,1-1.14-.17,3,3,0,0,1-1-.53.58.58,0,0,1-.18-.25.65.65,0,0,1-.07-.29.53.53,0,0,1,.14-.33.5.5,0,0,1,.39-.16.74.74,0,0,1,.42.18,2.65,2.65,0,0,0,.68.38,2.31,2.31,0,0,0,.76.14A2.74,2.74,0,0,0,86,8.68a2.37,2.37,0,0,0,.9-.85,2.27,2.27,0,0,0,.33-1.21A2.21,2.21,0,0,0,87,5.49a1.91,1.91,0,0,0-.8-.74,2.66,2.66,0,0,0-2.05-.12,4.75,4.75,0,0,0-.67.3,1.05,1.05,0,0,1-.46.15A.66.66,0,0,1,82.55,5a.55.55,0,0,1-.2-.3.77.77,0,0,1,0-.33L82.87.62a.55.55,0,0,1,.2-.32.54.54,0,0,1,.37-.13H87.6A.52.52,0,0,1,88,.32a.53.53,0,0,1,0,.76.52.52,0,0,1-.38.15H83.72l.14-.12-.51,3.23-.23-.29a1.53,1.53,0,0,1,.47-.28,3.29,3.29,0,0,1,.73-.24,3.41,3.41,0,0,1,.85-.1,3.29,3.29,0,0,1,1.63.41A3.09,3.09,0,0,1,87.94,5a3.18,3.18,0,0,1,.42,1.64,3.27,3.27,0,0,1-1,2.45,3.56,3.56,0,0,1-1.17.71A4,4,0,0,1,84.7,10Z"/><path class="cls-2" d="M92.53,10a3.85,3.85,0,0,1-1.14-.17,2.91,2.91,0,0,1-1-.53.8.8,0,0,1-.18-.25.82.82,0,0,1-.07-.29.53.53,0,0,1,.53-.49.69.69,0,0,1,.42.18,2.89,2.89,0,0,0,.69.38,2.22,2.22,0,0,0,.76.14,2.67,2.67,0,0,0,1.31-.31,2.26,2.26,0,0,0,1.23-2.06,2.2,2.2,0,0,0-.28-1.13,1.91,1.91,0,0,0-.8-.74,2.46,2.46,0,0,0-1.17-.27,2.42,2.42,0,0,0-.88.15,4.28,4.28,0,0,0-.67.3,1,1,0,0,1-.47.15A.7.7,0,0,1,90.37,5a.55.55,0,0,1-.2-.3.76.76,0,0,1,0-.33L90.7.62A.53.53,0,0,1,90.89.3a.55.55,0,0,1,.38-.13h4.16a.54.54,0,0,1,.38.15A.52.52,0,0,1,96,.7a.52.52,0,0,1-.15.38.54.54,0,0,1-.38.15H91.55l.14-.12-.52,3.23L91,4.05a1.53,1.53,0,0,1,.47-.28,3.38,3.38,0,0,1,.72-.24,3.47,3.47,0,0,1,.85-.1,3.26,3.26,0,0,1,1.63.41A3.09,3.09,0,0,1,95.76,5a3.18,3.18,0,0,1,.42,1.64A3.37,3.37,0,0,1,95.91,8a3.23,3.23,0,0,1-.77,1.09A3.52,3.52,0,0,1,94,9.77,4,4,0,0,1,92.53,10Z"/><path class="cls-2" d="M104.84,0a3.1,3.1,0,0,1,1.4.3,2.83,2.83,0,0,1,1,.82,3.79,3.79,0,0,1,.61,1.16,4.25,4.25,0,0,1,.21,1.33A6.78,6.78,0,0,1,107.93,5a8,8,0,0,1-.47,1.49,7.32,7.32,0,0,1-.82,1.46,6.44,6.44,0,0,1-1.2,1.25,5.52,5.52,0,0,1-1.61.86.7.7,0,0,1-.23,0,.6.6,0,0,1-.39-.14.49.49,0,0,1-.18-.42.48.48,0,0,1,.13-.34.71.71,0,0,1,.33-.22,4.63,4.63,0,0,0,1.45-.86,6.26,6.26,0,0,0,1.2-1.36A4.47,4.47,0,0,0,106.82,5l.34-.11a3,3,0,0,1-.59.7,2.94,2.94,0,0,1-.85.54,2.62,2.62,0,0,1-1.07.21,2.57,2.57,0,0,1-1.14-.25,3.11,3.11,0,0,1-.94-.71,3.5,3.5,0,0,1-.64-1,3.33,3.33,0,0,1-.23-1.21,3.13,3.13,0,0,1,.41-1.58A3.22,3.22,0,0,1,103.24.44,3,3,0,0,1,104.84,0Zm0,1.05a1.94,1.94,0,0,0-1.75,1,2.23,2.23,0,0,0-.27,1.11,2.38,2.38,0,0,0,.24,1.05,1.85,1.85,0,0,0,1.74,1.09A2.16,2.16,0,0,0,105.94,5a2,2,0,0,0,.74-.8,2.33,2.33,0,0,0,.26-1.08,2.14,2.14,0,0,0-.26-1,1.9,1.9,0,0,0-.72-.77A2.08,2.08,0,0,0,104.85,1.05Z"/><path class="cls-2" d="M110,8.34a.81.81,0,0,1,.19,0,.73.73,0,0,1,.23.15,2.23,2.23,0,0,0,.65.4,2.41,2.41,0,0,0,.87.16,2.34,2.34,0,0,0,1.11-.28,2.24,2.24,0,0,0,.82-.77,2.18,2.18,0,0,0,.31-1.17,2,2,0,0,0-.31-1.17,2,2,0,0,0-.8-.67,2.52,2.52,0,0,0-1-.21l-.36,0-.32.07a.86.86,0,0,1-.27,0,.45.45,0,0,1-.35-.16.6.6,0,0,1-.12-.38.59.59,0,0,1,0-.23.64.64,0,0,1,.14-.21l2.74-3,.23.27h-4a.49.49,0,0,1-.38-.16.51.51,0,0,1-.15-.37.52.52,0,0,1,.15-.38.56.56,0,0,1,.38-.14h4.56a.55.55,0,0,1,.45.17.59.59,0,0,1,.14.39.59.59,0,0,1,0,.23.74.74,0,0,1-.16.2L112,4.2l-.32-.28a.92.92,0,0,1,.32-.11,2.43,2.43,0,0,1,.42,0,2.78,2.78,0,0,1,2.49,1.44,3.08,3.08,0,0,1,.4,1.59,3.2,3.2,0,0,1-.47,1.75,3,3,0,0,1-1.26,1.15,4,4,0,0,1-1.82.41,3.47,3.47,0,0,1-1.1-.18,2.64,2.64,0,0,1-.93-.51.52.52,0,0,1-.24-.22.61.61,0,0,1-.06-.25.63.63,0,0,1,.16-.41A.49.49,0,0,1,110,8.34Z"/><path class="cls-2" d="M121.43,5l0-.2a3.17,3.17,0,0,1,.88.57,2.82,2.82,0,0,1,.62.84,2.17,2.17,0,0,1,.23,1,2.44,2.44,0,0,1-.41,1.39,2.91,2.91,0,0,1-1.12,1,3.43,3.43,0,0,1-3.14,0,3,3,0,0,1-1.12-1,2.51,2.51,0,0,1-.41-1.39,2.26,2.26,0,0,1,.26-1.1,2.77,2.77,0,0,1,.66-.82,3.53,3.53,0,0,1,.83-.53l-.07.23a2.68,2.68,0,0,1-.69-.46,2.35,2.35,0,0,1-.54-.73,2.16,2.16,0,0,1-.21-1,2.59,2.59,0,0,1,.38-1.37,2.7,2.7,0,0,1,1-1A3.08,3.08,0,0,1,120,.17a3,3,0,0,1,1.44.35,2.85,2.85,0,0,1,1,1,2.59,2.59,0,0,1,.38,1.37,2.11,2.11,0,0,1-.22,1,2.35,2.35,0,0,1-.56.71A2.54,2.54,0,0,1,121.43,5ZM120,9a2,2,0,0,0,1.42-.51,1.68,1.68,0,0,0,.28-2.16,1.74,1.74,0,0,0-.71-.63,2.19,2.19,0,0,0-1-.23,2.11,2.11,0,0,0-1,.23,1.83,1.83,0,0,0-.72.63,1.6,1.6,0,0,0-.26.92,1.6,1.6,0,0,0,.55,1.24A2,2,0,0,0,120,9ZM118.3,2.88a1.65,1.65,0,0,0,.24.89,1.56,1.56,0,0,0,.63.59,1.79,1.79,0,0,0,1.72,0,1.75,1.75,0,0,0,.62-.59,1.65,1.65,0,0,0,.24-.89,1.56,1.56,0,0,0-.49-1.19,1.86,1.86,0,0,0-2.47,0A1.6,1.6,0,0,0,118.3,2.88Z"/><path class="cls-2" d="M75.21,46.45a.6.6,0,0,1-.44-.17.57.57,0,0,1-.17-.41v-8l.17.19-1.62,1a.55.55,0,0,1-.28.07.54.54,0,0,1-.41-.18.61.61,0,0,1-.17-.39.56.56,0,0,1,.3-.49l2.28-1.36a.77.77,0,0,1,.42-.08.48.48,0,0,1,.38.16.61.61,0,0,1,.14.4v8.66a.57.57,0,0,1-.17.41A.6.6,0,0,1,75.21,46.45Z"/><path class="cls-2" d="M83.87,46.45a.58.58,0,0,1-.43-.17.57.57,0,0,1-.17-.41v-8l.17.19-1.63,1a.51.51,0,0,1-.28.07.53.53,0,0,1-.4-.18.61.61,0,0,1-.17-.39.57.57,0,0,1,.29-.49l2.29-1.36a.77.77,0,0,1,.42-.08.46.46,0,0,1,.37.16.56.56,0,0,1,.14.4v8.66a.56.56,0,0,1-.16.41A.62.62,0,0,1,83.87,46.45Z"/><path class="cls-2" d="M88.91,46.5a3.85,3.85,0,0,1-1.14-.17,2.87,2.87,0,0,1-1-.53.62.62,0,0,1-.19-.25.82.82,0,0,1-.07-.29.53.53,0,0,1,.54-.49.74.74,0,0,1,.42.18,2.38,2.38,0,0,0,.68.38,2.27,2.27,0,0,0,.76.14,2.67,2.67,0,0,0,1.31-.31,2.29,2.29,0,0,0,1.24-2.06A2.15,2.15,0,0,0,91.16,42a1.87,1.87,0,0,0-.8-.75,2.66,2.66,0,0,0-2-.12,5.47,5.47,0,0,0-.67.3,1.05,1.05,0,0,1-.46.15.66.66,0,0,1-.42-.12.57.57,0,0,1-.21-.3.76.76,0,0,1,0-.33l.55-3.71a.63.63,0,0,1,.19-.32.57.57,0,0,1,.38-.13h4.16a.52.52,0,0,1,.38.15.54.54,0,0,1,.15.38.51.51,0,0,1-.53.53H87.93l.14-.12-.52,3.23-.22-.29a1.53,1.53,0,0,1,.47-.28,3.29,3.29,0,0,1,.73-.24,3.52,3.52,0,0,1,2.48.31,3.09,3.09,0,0,1,1.14,1.13,3.18,3.18,0,0,1,.42,1.64,3.37,3.37,0,0,1-.28,1.36,3.23,3.23,0,0,1-.77,1.09,3.52,3.52,0,0,1-1.16.71A4,4,0,0,1,88.91,46.5Z"/><path class="cls-2" d="M96.74,46.5a3.75,3.75,0,0,1-1.14-.17,2.91,2.91,0,0,1-1-.53.7.7,0,0,1-.18-.25.65.65,0,0,1-.07-.29.49.49,0,0,1,.15-.33.46.46,0,0,1,.38-.16.74.74,0,0,1,.42.18,2.58,2.58,0,0,0,.69.38,2.21,2.21,0,0,0,.75.14A2.68,2.68,0,0,0,98,45.16a2.3,2.3,0,0,0,.9-.85,2.27,2.27,0,0,0,.33-1.21A2.06,2.06,0,0,0,99,42a1.84,1.84,0,0,0-.79-.75A2.46,2.46,0,0,0,97,41a2.42,2.42,0,0,0-.88.15,5.68,5.68,0,0,0-.68.3,1,1,0,0,1-.46.15.66.66,0,0,1-.42-.12.55.55,0,0,1-.2-.3.76.76,0,0,1,0-.33l.54-3.71a.64.64,0,0,1,.2-.32.55.55,0,0,1,.38-.13h4.16a.5.5,0,0,1,.37.15.51.51,0,0,1,.16.38.49.49,0,0,1-.16.38.5.5,0,0,1-.37.15H95.76l.14-.12-.52,3.23-.22-.29a1.46,1.46,0,0,1,.46-.28,3.68,3.68,0,0,1,.73-.24,3.47,3.47,0,0,1,.85-.1,3.26,3.26,0,0,1,1.63.41A3.09,3.09,0,0,1,100,41.45a3.18,3.18,0,0,1,.42,1.64,3.37,3.37,0,0,1-.27,1.36,3.23,3.23,0,0,1-.77,1.09,3.52,3.52,0,0,1-1.16.71A4.05,4.05,0,0,1,96.74,46.5Z"/><path class="cls-2" d="M109,36.48a3.15,3.15,0,0,1,1.41.3,3,3,0,0,1,1,.82,3.79,3.79,0,0,1,.61,1.16,4.3,4.3,0,0,1,.21,1.33,6.78,6.78,0,0,1-.15,1.34,8.82,8.82,0,0,1-.47,1.49,7.32,7.32,0,0,1-.82,1.46,6.75,6.75,0,0,1-1.2,1.25,5.3,5.3,0,0,1-1.61.86.7.7,0,0,1-.23,0,.59.59,0,0,1-.4-.14.51.51,0,0,1-.17-.42.52.52,0,0,1,.12-.34.8.8,0,0,1,.34-.22,4.75,4.75,0,0,0,1.45-.86,6.26,6.26,0,0,0,1.2-1.36,4.64,4.64,0,0,0,.68-1.67l.34-.11a3.23,3.23,0,0,1-.59.71,3.31,3.31,0,0,1-.85.53,2.8,2.8,0,0,1-2.22,0,3.2,3.2,0,0,1-.93-.71,3.31,3.31,0,0,1-.64-1,3.27,3.27,0,0,1,.18-2.79,3.3,3.3,0,0,1,1.13-1.16A3,3,0,0,1,109,36.48Zm0,1.05a1.94,1.94,0,0,0-1.75,1,2.23,2.23,0,0,0-.27,1.11,2.45,2.45,0,0,0,.24,1.06,2,2,0,0,0,.69.79,1.88,1.88,0,0,0,1,.29,2.18,2.18,0,0,0,1.13-.29,2,2,0,0,0,.73-.79,2.28,2.28,0,0,0,.26-1.09,2.13,2.13,0,0,0-.25-1,2,2,0,0,0-.72-.77A2.08,2.08,0,0,0,109.06,37.53Z"/><path class="cls-2" d="M114.22,44.82a.72.72,0,0,1,.19,0,.56.56,0,0,1,.23.15,2.42,2.42,0,0,0,.66.4,2.14,2.14,0,0,0,.87.16,2.23,2.23,0,0,0,1.11-.28,2.14,2.14,0,0,0,.81-.77,2.18,2.18,0,0,0,.32-1.17,2,2,0,0,0-.32-1.16,1.85,1.85,0,0,0-.79-.68,2.55,2.55,0,0,0-1-.21l-.36,0-.32.07a1,1,0,0,1-.27,0,.41.41,0,0,1-.35-.16.6.6,0,0,1-.13-.38.59.59,0,0,1,.05-.23.51.51,0,0,1,.14-.21l2.74-3,.22.27h-4a.49.49,0,0,1-.38-.16.5.5,0,0,1-.15-.37.48.48,0,0,1,.15-.37.52.52,0,0,1,.38-.15h4.56a.55.55,0,0,1,.45.17.64.64,0,0,1,.14.39.46.46,0,0,1-.06.23.7.7,0,0,1-.15.2l-2.73,3-.32-.28a.73.73,0,0,1,.32-.1,1.81,1.81,0,0,1,.42,0,2.78,2.78,0,0,1,2.49,1.44,3.5,3.5,0,0,1-.07,3.34,3.07,3.07,0,0,1-1.27,1.15,4,4,0,0,1-1.81.41,3.47,3.47,0,0,1-1.1-.18,2.47,2.47,0,0,1-.93-.51.52.52,0,0,1-.24-.22.5.5,0,0,1-.07-.25.68.68,0,0,1,.16-.41A.51.51,0,0,1,114.22,44.82Z"/><path class="cls-2" d="M125.63,41.51l0-.2a3.17,3.17,0,0,1,.88.57,3,3,0,0,1,.62.84,2.3,2.3,0,0,1,.23,1,2.57,2.57,0,0,1-.41,1.4,3,3,0,0,1-1.12,1,3.32,3.32,0,0,1-1.58.38,3.22,3.22,0,0,1-1.56-.38,3,3,0,0,1-1.12-1,2.57,2.57,0,0,1-.41-1.4,2.26,2.26,0,0,1,.26-1.1,2.77,2.77,0,0,1,.66-.82,3.53,3.53,0,0,1,.83-.53l-.07.23a2.68,2.68,0,0,1-.69-.46,2.35,2.35,0,0,1-.54-.73,2.16,2.16,0,0,1-.21-1,2.5,2.5,0,0,1,.38-1.37,2.6,2.6,0,0,1,1-1,3,3,0,0,1,1.44-.36,2.91,2.91,0,0,1,1.45.36,2.71,2.71,0,0,1,1,1,2.51,2.51,0,0,1,.39,1.37,2.23,2.23,0,0,1-.22,1,2.53,2.53,0,0,1-.56.72A2.82,2.82,0,0,1,125.63,41.51Zm-1.4,4a2,2,0,0,0,1.42-.51,1.67,1.67,0,0,0,.29-2.16,2,2,0,0,0-.71-.63,2.2,2.2,0,0,0-1-.23,2.17,2.17,0,0,0-1,.23,2,2,0,0,0-.71.63,1.67,1.67,0,0,0,.29,2.16A2,2,0,0,0,124.23,45.47Zm-1.72-6.11a1.73,1.73,0,0,0,.23.89,1.7,1.7,0,0,0,.63.59,1.75,1.75,0,0,0,.86.22,1.64,1.64,0,0,0,.86-.22,1.7,1.7,0,0,0,.63-.59,1.65,1.65,0,0,0,.24-.89,1.6,1.6,0,0,0-.49-1.19,1.67,1.67,0,0,0-1.24-.47,1.7,1.7,0,0,0-1.24.47A1.59,1.59,0,0,0,122.51,39.36Z"/></g></g></svg>