<svg xmlns="http://www.w3.org/2000/svg" viewBox="0 0 300.13 46.59"><defs><style>.cls-1{fill:#1f8ebe;}.cls-2{fill:#363026;}</style></defs><g id="Layer_2" data-name="Layer 2"><g id="Layer_1-2" data-name="Layer 1"><path class="cls-1" d="M282,24H5.17c-.28,0-.51-.42-.51-.94s.23-1,.51-1H282c.29,0,.52.43.52,1S282.28,24,282,24Z"/><polygon class="cls-1" points="11.46 30.73 12.74 29.35 5.94 23.03 12.74 16.7 11.46 15.32 3.17 23.03 11.46 30.73"/><polygon class="cls-1" points="275.8 30.73 274.52 29.35 281.32 23.03 274.52 16.7 275.8 15.32 284.09 23.03 275.8 30.73"/><path class="cls-1" d="M269.4,32.56a.94.94,0,0,1-.94-.94V14.54a.95.95,0,0,1,1.89,0V31.62A1,1,0,0,1,269.4,32.56Z"/><path class="cls-1" d="M21.88,32.56a.94.94,0,0,1-.95-.94V14.54a.95.95,0,0,1,1.89,0V31.62A.94.94,0,0,1,21.88,32.56Z"/><path class="cls-1" d="M148.14,32.56a.94.94,0,0,1-.94-.94V14.54a.94.94,0,0,1,1.88,0V31.62A.94.94,0,0,1,148.14,32.56Z"/><path class="cls-2" d="M241.73,46.31a.6.6,0,0,1-.43-.17.57.57,0,0,1-.17-.41v-8l.17.19-1.62,1a.55.55,0,0,1-.28.07.54.54,0,0,1-.41-.18.61.61,0,0,1-.17-.39.57.57,0,0,1,.29-.49l2.29-1.36a.77.77,0,0,1,.42-.08.44.44,0,0,1,.37.16.57.57,0,0,1,.15.4v8.66a.57.57,0,0,1-.17.41A.6.6,0,0,1,241.73,46.31Z"/><path class="cls-2" d="M250.05,46.35a.63.63,0,0,1-.41-.15.45.45,0,0,1-.18-.38.54.54,0,0,1,.06-.25l3.62-8.26.16.25h-4.51a.49.49,0,0,1-.38-.16.5.5,0,0,1-.15-.37.48.48,0,0,1,.15-.37.52.52,0,0,1,.38-.15h5.05a.57.57,0,0,1,.42.15.46.46,0,0,1,.16.38.66.66,0,0,1-.06.27L250.57,46a.49.49,0,0,1-.21.26A.56.56,0,0,1,250.05,46.35Z"/><path class="cls-2" d="M259.12,46.45a2.91,2.91,0,0,1-1.94-.66A4,4,0,0,1,256,44a8.52,8.52,0,0,1,0-5.16A4,4,0,0,1,257.18,37a3.18,3.18,0,0,1,3.88,0,4,4,0,0,1,1.17,1.79,8.73,8.73,0,0,1,0,5.16,4,4,0,0,1-1.17,1.81A2.89,2.89,0,0,1,259.12,46.45Zm0-1.14a1.74,1.74,0,0,0,1.25-.47,3.05,3.05,0,0,0,.78-1.35,8.19,8.19,0,0,0,0-4.17,2.94,2.94,0,0,0-.78-1.35,1.9,1.9,0,0,0-2.5,0,3,3,0,0,0-.79,1.35,8.19,8.19,0,0,0,0,4.17,3.16,3.16,0,0,0,.79,1.35A1.75,1.75,0,0,0,259.12,45.31Z"/><path class="cls-2" d="M267.53,46.45a2.86,2.86,0,0,1-1.93-.66A4.06,4.06,0,0,1,264.42,44a8.52,8.52,0,0,1,0-5.16A4,4,0,0,1,265.6,37a3.17,3.17,0,0,1,3.87,0,4,4,0,0,1,1.17,1.79,8.73,8.73,0,0,1,0,5.16,4,4,0,0,1-1.17,1.81A2.87,2.87,0,0,1,267.53,46.45Zm0-1.14a1.76,1.76,0,0,0,1.26-.47,3,3,0,0,0,.77-1.35,8.19,8.19,0,0,0,0-4.17,2.85,2.85,0,0,0-.77-1.35,1.91,1.91,0,0,0-2.51,0,2.94,2.94,0,0,0-.78,1.35,8.19,8.19,0,0,0,0,4.17,3.05,3.05,0,0,0,.78,1.35A1.75,1.75,0,0,0,267.53,45.31Z"/><path class="cls-2" d="M279.8,46.45a2.89,2.89,0,0,1-1.94-.66A4.06,4.06,0,0,1,276.68,44a8.52,8.52,0,0,1,0-5.16A4,4,0,0,1,277.86,37a3.18,3.18,0,0,1,3.88,0,4,4,0,0,1,1.17,1.79,8.73,8.73,0,0,1,0,5.16,4,4,0,0,1-1.17,1.81A2.91,2.91,0,0,1,279.8,46.45Zm0-1.14a1.75,1.75,0,0,0,1.25-.47,3.05,3.05,0,0,0,.78-1.35,8.49,8.49,0,0,0,0-4.17,2.94,2.94,0,0,0-.78-1.35,1.9,1.9,0,0,0-2.5,0,2.87,2.87,0,0,0-.79,1.35,8.19,8.19,0,0,0,0,4.17,3,3,0,0,0,.79,1.35A1.74,1.74,0,0,0,279.8,45.31Z"/><path class="cls-2" d="M288.21,46.45a2.91,2.91,0,0,1-1.94-.66A4,4,0,0,1,285.1,44a8.52,8.52,0,0,1,0-5.16A4,4,0,0,1,286.27,37a3.18,3.18,0,0,1,3.88,0,4,4,0,0,1,1.17,1.79,8.73,8.73,0,0,1,0,5.16,4,4,0,0,1-1.17,1.81A2.89,2.89,0,0,1,288.21,46.45Zm0-1.14a1.78,1.78,0,0,0,1.26-.47,3,3,0,0,0,.77-1.35,8.19,8.19,0,0,0,0-4.17,2.93,2.93,0,0,0-.77-1.35,1.82,1.82,0,0,0-1.26-.47A1.8,1.8,0,0,0,287,38a2.94,2.94,0,0,0-.78,1.35,7.9,7.9,0,0,0,0,4.17,3.05,3.05,0,0,0,.78,1.35A1.75,1.75,0,0,0,288.21,45.31Z"/><path class="cls-2" d="M296.63,46.45a2.89,2.89,0,0,1-1.94-.66A4.06,4.06,0,0,1,293.51,44a8.52,8.52,0,0,1,0-5.16A4,4,0,0,1,294.69,37a3.18,3.18,0,0,1,3.88,0,4,4,0,0,1,1.16,1.79,8.52,8.52,0,0,1,0,5.16,4,4,0,0,1-1.16,1.81A2.91,2.91,0,0,1,296.63,46.45Zm0-1.14a1.75,1.75,0,0,0,1.25-.47,3.05,3.05,0,0,0,.78-1.35,8.49,8.49,0,0,0,0-4.17,2.94,2.94,0,0,0-.78-1.35,1.91,1.91,0,0,0-2.51,0,2.94,2.94,0,0,0-.78,1.35,8.19,8.19,0,0,0,0,4.17,3.05,3.05,0,0,0,.78,1.35A1.76,1.76,0,0,0,296.63,45.31Z"/><path class="cls-2" d="M2.91,46.31a.58.58,0,0,1-.43-.17.57.57,0,0,1-.17-.41v-8l.17.19-1.63,1A.51.51,0,0,1,.57,39a.53.53,0,0,1-.4-.18A.61.61,0,0,1,0,38.44.56.56,0,0,1,.29,38l2.29-1.36A.77.77,0,0,1,3,36.51a.46.46,0,0,1,.37.16.56.56,0,0,1,.14.4v8.66a.56.56,0,0,1-.16.41A.62.62,0,0,1,2.91,46.31Z"/><path class="cls-2" d="M12.81,46.45a2.91,2.91,0,0,1-1.94-.66A4,4,0,0,1,9.7,44a8.52,8.52,0,0,1,0-5.16A3.89,3.89,0,0,1,10.87,37a2.91,2.91,0,0,1,1.94-.66,2.91,2.91,0,0,1,1.94.66,3.89,3.89,0,0,1,1.17,1.79,8.73,8.73,0,0,1,0,5.16,4,4,0,0,1-1.17,1.81A2.91,2.91,0,0,1,12.81,46.45Zm0-1.14a1.75,1.75,0,0,0,1.25-.47,3.05,3.05,0,0,0,.78-1.35,7.14,7.14,0,0,0,.27-2.08,7.24,7.24,0,0,0-.27-2.1A3,3,0,0,0,14.06,38a1.9,1.9,0,0,0-2.5,0,3.06,3.06,0,0,0-.79,1.34,7.24,7.24,0,0,0-.27,2.1,7.14,7.14,0,0,0,.27,2.08,3.16,3.16,0,0,0,.79,1.35A1.75,1.75,0,0,0,12.81,45.31Z"/><path class="cls-2" d="M21.22,46.45a2.91,2.91,0,0,1-1.94-.66A4.13,4.13,0,0,1,18.11,44a8.52,8.52,0,0,1,0-5.16A4.06,4.06,0,0,1,19.28,37a3.18,3.18,0,0,1,3.88,0,3.89,3.89,0,0,1,1.17,1.79,8.73,8.73,0,0,1,0,5.16,4,4,0,0,1-1.17,1.81A2.89,2.89,0,0,1,21.22,46.45Zm0-1.14a1.76,1.76,0,0,0,1.26-.47,3,3,0,0,0,.77-1.35,7.14,7.14,0,0,0,.27-2.08,7.24,7.24,0,0,0-.27-2.1A2.86,2.86,0,0,0,22.48,38,1.91,1.91,0,0,0,20,38a3,3,0,0,0-.78,1.34,6.89,6.89,0,0,0-.28,2.1,6.8,6.8,0,0,0,.28,2.08A3.05,3.05,0,0,0,20,44.84,1.75,1.75,0,0,0,21.22,45.31Z"/><path class="cls-2" d="M29.64,46.45a2.89,2.89,0,0,1-1.94-.66A4.06,4.06,0,0,1,26.52,44a8.52,8.52,0,0,1,0-5.16A4,4,0,0,1,27.7,37a3.18,3.18,0,0,1,3.88,0,4.06,4.06,0,0,1,1.17,1.79,8.73,8.73,0,0,1,0,5.16,4.13,4.13,0,0,1-1.17,1.81A2.91,2.91,0,0,1,29.64,46.45Zm0-1.14a1.75,1.75,0,0,0,1.25-.47,3.05,3.05,0,0,0,.78-1.35,7.16,7.16,0,0,0,.26-2.08,7.26,7.26,0,0,0-.26-2.1A3,3,0,0,0,30.89,38a1.8,1.8,0,0,0-1.25-.47,1.82,1.82,0,0,0-1.26.47,3,3,0,0,0-.78,1.34,7.24,7.24,0,0,0-.27,2.1,7.14,7.14,0,0,0,.27,2.08,3.05,3.05,0,0,0,.78,1.35A1.78,1.78,0,0,0,29.64,45.31Z"/><path class="cls-2" d="M41.9,46.45A2.91,2.91,0,0,1,40,45.79,4,4,0,0,1,38.79,44a8.52,8.52,0,0,1,0-5.16A3.89,3.89,0,0,1,40,37a3.18,3.18,0,0,1,3.88,0A3.89,3.89,0,0,1,45,38.82,8.73,8.73,0,0,1,45,44a4,4,0,0,1-1.17,1.81A2.89,2.89,0,0,1,41.9,46.45Zm0-1.14a1.74,1.74,0,0,0,1.25-.47,3,3,0,0,0,.78-1.35,7.14,7.14,0,0,0,.27-2.08,7.24,7.24,0,0,0-.27-2.1A2.87,2.87,0,0,0,43.15,38a1.9,1.9,0,0,0-2.5,0,3.06,3.06,0,0,0-.79,1.34,7.24,7.24,0,0,0-.27,2.1,7.14,7.14,0,0,0,.27,2.08,3.16,3.16,0,0,0,.79,1.35A1.75,1.75,0,0,0,41.9,45.31Z"/><path class="cls-2" d="M50.32,46.45a2.89,2.89,0,0,1-1.94-.66A4.06,4.06,0,0,1,47.2,44a8.52,8.52,0,0,1,0-5.16A4,4,0,0,1,48.38,37a3.17,3.17,0,0,1,3.87,0,3.89,3.89,0,0,1,1.17,1.79,8.52,8.52,0,0,1,0,5.16,4,4,0,0,1-1.17,1.81A2.86,2.86,0,0,1,50.32,46.45Zm0-1.14a1.75,1.75,0,0,0,1.25-.47,3.05,3.05,0,0,0,.78-1.35,7.52,7.52,0,0,0,.26-2.08,7.62,7.62,0,0,0-.26-2.1A3,3,0,0,0,51.57,38a1.91,1.91,0,0,0-2.51,0,3,3,0,0,0-.78,1.34,7.24,7.24,0,0,0-.27,2.1,7.14,7.14,0,0,0,.27,2.08,3.05,3.05,0,0,0,.78,1.35A1.76,1.76,0,0,0,50.32,45.31Z"/><path class="cls-2" d="M58.73,46.45a2.89,2.89,0,0,1-1.94-.66A4.06,4.06,0,0,1,55.61,44a8.73,8.73,0,0,1,0-5.16A4,4,0,0,1,56.79,37a3.18,3.18,0,0,1,3.88,0,3.89,3.89,0,0,1,1.17,1.79,8.73,8.73,0,0,1,0,5.16,4,4,0,0,1-1.17,1.81A2.91,2.91,0,0,1,58.73,46.45Zm0-1.14A1.75,1.75,0,0,0,60,44.84a3.05,3.05,0,0,0,.78-1.35A7.14,7.14,0,0,0,61,41.41a7.24,7.24,0,0,0-.27-2.1A3,3,0,0,0,60,38a1.9,1.9,0,0,0-2.5,0,3,3,0,0,0-.79,1.34,7.24,7.24,0,0,0-.27,2.1,7.14,7.14,0,0,0,.27,2.08,3.06,3.06,0,0,0,.79,1.35A1.74,1.74,0,0,0,58.73,45.31Z"/><path class="cls-2" d="M123.09,10a.6.6,0,0,1-.44-.17.57.57,0,0,1-.17-.41v-8l.17.19L121,2.6a.55.55,0,0,1-.28.07.52.52,0,0,1-.41-.19.57.57,0,0,1-.17-.38.55.55,0,0,1,.3-.49L122.75.25a.77.77,0,0,1,.42-.08.48.48,0,0,1,.38.16.61.61,0,0,1,.14.4V9.39a.57.57,0,0,1-.17.41A.6.6,0,0,1,123.09,10Z"/><path class="cls-2" d="M131.75,10a.58.58,0,0,1-.43-.17.57.57,0,0,1-.17-.41v-8l.17.19-1.63,1a.51.51,0,0,1-.28.07.5.5,0,0,1-.4-.19.57.57,0,0,1-.17-.38.56.56,0,0,1,.29-.49L131.42.25a.77.77,0,0,1,.42-.08.46.46,0,0,1,.37.16.56.56,0,0,1,.14.4V9.39a.56.56,0,0,1-.16.41A.62.62,0,0,1,131.75,10Z"/><path class="cls-2" d="M136.79,10a3.85,3.85,0,0,1-1.14-.17,2.78,2.78,0,0,1-1-.53.69.69,0,0,1-.19-.25.82.82,0,0,1-.07-.29.53.53,0,0,1,.54-.49.74.74,0,0,1,.42.18,2.65,2.65,0,0,0,.68.38,2.27,2.27,0,0,0,.76.14,2.67,2.67,0,0,0,1.31-.31,2.33,2.33,0,0,0,.91-.85,2.27,2.27,0,0,0,.33-1.21A2.21,2.21,0,0,0,139,5.49a1.91,1.91,0,0,0-.8-.74,2.46,2.46,0,0,0-1.17-.27,2.42,2.42,0,0,0-.88.15,4.28,4.28,0,0,0-.67.3,1.05,1.05,0,0,1-.46.15.66.66,0,0,1-.42-.12.57.57,0,0,1-.21-.3.76.76,0,0,1,0-.33L135,.62a.53.53,0,0,1,.19-.32.57.57,0,0,1,.38-.13h4.16a.51.51,0,0,1,.53.53.51.51,0,0,1-.53.53h-3.88l.14-.12-.52,3.23-.22-.29a1.53,1.53,0,0,1,.47-.28,3.29,3.29,0,0,1,.73-.24,3.33,3.33,0,0,1,.84-.1,3.26,3.26,0,0,1,1.63.41A3,3,0,0,1,140,5a3.18,3.18,0,0,1,.42,1.64A3.37,3.37,0,0,1,140.17,8a3.23,3.23,0,0,1-.77,1.09,3.52,3.52,0,0,1-1.16.71A4,4,0,0,1,136.79,10Z"/><path class="cls-2" d="M144.62,10a3.75,3.75,0,0,1-1.14-.17,2.91,2.91,0,0,1-1-.53.8.8,0,0,1-.18-.25.65.65,0,0,1-.07-.29.49.49,0,0,1,.15-.33.46.46,0,0,1,.38-.16.74.74,0,0,1,.42.18,2.89,2.89,0,0,0,.69.38,2.21,2.21,0,0,0,.75.14,2.68,2.68,0,0,0,1.32-.31,2.37,2.37,0,0,0,.9-.85,2.27,2.27,0,0,0,.33-1.21,2.11,2.11,0,0,0-.29-1.13,1.88,1.88,0,0,0-.79-.74,2.46,2.46,0,0,0-1.17-.27,2.42,2.42,0,0,0-.88.15,4.43,4.43,0,0,0-.68.3,1,1,0,0,1-.46.15.66.66,0,0,1-.42-.12.55.55,0,0,1-.2-.3.76.76,0,0,1,0-.33l.54-3.71A.6.6,0,0,1,143,.3a.55.55,0,0,1,.38-.13h4.16a.51.51,0,0,1,.37.15.49.49,0,0,1,.16.38.49.49,0,0,1-.16.38.51.51,0,0,1-.37.15h-3.88l.14-.12-.52,3.23L143,4.05a1.46,1.46,0,0,1,.46-.28,4.06,4.06,0,0,1,1.58-.34,3.26,3.26,0,0,1,1.63.41A3.09,3.09,0,0,1,147.85,5a3.18,3.18,0,0,1,.42,1.64A3.37,3.37,0,0,1,148,8a3.23,3.23,0,0,1-.77,1.09,3.52,3.52,0,0,1-1.16.71A4.05,4.05,0,0,1,144.62,10Z"/><path class="cls-2" d="M156.92,0a3.15,3.15,0,0,1,1.41.3,2.79,2.79,0,0,1,1,.82A3.61,3.61,0,0,1,160,2.28a4.25,4.25,0,0,1,.21,1.33A6.78,6.78,0,0,1,160,5a8.82,8.82,0,0,1-.47,1.49,7.32,7.32,0,0,1-.82,1.46,6.75,6.75,0,0,1-1.2,1.25,5.45,5.45,0,0,1-1.62.86.6.6,0,0,1-.22,0,.65.65,0,0,1-.4-.14.51.51,0,0,1-.17-.42.52.52,0,0,1,.12-.34.8.8,0,0,1,.34-.22A4.75,4.75,0,0,0,157,8.07a6.26,6.26,0,0,0,1.2-1.36A4.64,4.64,0,0,0,158.91,5l.34-.11a3,3,0,0,1-.59.7,3.08,3.08,0,0,1-.85.54,2.8,2.8,0,0,1-2.22,0,3.38,3.38,0,0,1-.94-.71,3.28,3.28,0,0,1-.63-1,3.14,3.14,0,0,1-.23-1.21,3,3,0,0,1,.41-1.58A3.22,3.22,0,0,1,155.33.44,3,3,0,0,1,156.92,0Zm0,1.05a2,2,0,0,0-1,.27,1.86,1.86,0,0,0-.72.75,2.23,2.23,0,0,0-.27,1.11,2.38,2.38,0,0,0,.24,1.05,2,2,0,0,0,.68.8,1.93,1.93,0,0,0,1.06.29A2.18,2.18,0,0,0,158,5a1.94,1.94,0,0,0,.73-.8A2.21,2.21,0,0,0,159,3.15a2.13,2.13,0,0,0-.25-1,2,2,0,0,0-.72-.77A2.08,2.08,0,0,0,156.94,1.05Z"/><path class="cls-2" d="M162.1,8.34a.72.72,0,0,1,.19,0,.56.56,0,0,1,.23.15,2.42,2.42,0,0,0,.66.4,2.33,2.33,0,0,0,.87.16,2.28,2.28,0,0,0,1.1-.28,2.15,2.15,0,0,0,1.14-1.94A2,2,0,0,0,166,5.7a2,2,0,0,0-.79-.67,2.55,2.55,0,0,0-1-.21l-.36,0-.32.07a1,1,0,0,1-.27,0,.43.43,0,0,1-.35-.16.6.6,0,0,1-.13-.38.59.59,0,0,1,.05-.23.6.6,0,0,1,.13-.21l2.75-3,.22.27h-4a.49.49,0,0,1-.38-.16.51.51,0,0,1-.15-.37.52.52,0,0,1,.15-.38.56.56,0,0,1,.38-.14h4.56a.55.55,0,0,1,.45.17.64.64,0,0,1,.14.39A.46.46,0,0,1,167,1a.7.7,0,0,1-.15.2l-2.73,3-.32-.28a.85.85,0,0,1,.32-.11,2.43,2.43,0,0,1,.42,0A2.78,2.78,0,0,1,167,5.21a3.18,3.18,0,0,1,.39,1.59A3.19,3.19,0,0,1,167,8.55a3.07,3.07,0,0,1-1.27,1.15,4,4,0,0,1-1.81.41,3.47,3.47,0,0,1-1.1-.18,2.47,2.47,0,0,1-.93-.51.52.52,0,0,1-.24-.22.5.5,0,0,1-.07-.25.68.68,0,0,1,.16-.41A.51.51,0,0,1,162.1,8.34Z"/><path class="cls-2" d="M173.51,5l0-.2a3.08,3.08,0,0,1,.89.57,2.82,2.82,0,0,1,.62.84,2.3,2.3,0,0,1,.23,1,2.51,2.51,0,0,1-.41,1.39,3,3,0,0,1-1.12,1,3.32,3.32,0,0,1-1.58.38,3.22,3.22,0,0,1-1.56-.38,3,3,0,0,1-1.12-1A2.51,2.51,0,0,1,169,7.25a2.26,2.26,0,0,1,.26-1.1,2.77,2.77,0,0,1,.66-.82,3.53,3.53,0,0,1,.83-.53L170.7,5a2.68,2.68,0,0,1-.69-.46,2.35,2.35,0,0,1-.54-.73,2.16,2.16,0,0,1-.21-1,2.5,2.5,0,0,1,.38-1.37,2.7,2.7,0,0,1,1-1,3.07,3.07,0,0,1,1.44-.35,3,3,0,0,1,1.45.35,2.82,2.82,0,0,1,1,1A2.51,2.51,0,0,1,175,2.87a2.11,2.11,0,0,1-.23,1,2.18,2.18,0,0,1-.55.71A2.59,2.59,0,0,1,173.51,5Zm-1.4,4a2,2,0,0,0,1.42-.51,1.67,1.67,0,0,0,.29-2.16,1.88,1.88,0,0,0-.71-.63,2.2,2.2,0,0,0-1-.23,2.17,2.17,0,0,0-1,.23,1.8,1.8,0,0,0-.71.63,1.67,1.67,0,0,0,.29,2.16A2,2,0,0,0,172.11,9Zm-1.72-6.11a1.73,1.73,0,0,0,.23.89,1.7,1.7,0,0,0,.63.59,1.75,1.75,0,0,0,.86.22,1.64,1.64,0,0,0,.86-.22,1.7,1.7,0,0,0,.63-.59,1.64,1.64,0,0,0,.23-.89,1.59,1.59,0,0,0-.48-1.19,1.67,1.67,0,0,0-1.24-.47,1.7,1.7,0,0,0-1.24.47A1.59,1.59,0,0,0,170.39,2.88Z"/><path class="cls-2" d="M127.29,46.45a.6.6,0,0,1-.43-.17.57.57,0,0,1-.17-.41v-8l.17.19-1.63,1a.51.51,0,0,1-.28.07.53.53,0,0,1-.4-.18.61.61,0,0,1-.17-.39.57.57,0,0,1,.29-.49L127,36.73a.77.77,0,0,1,.42-.08.44.44,0,0,1,.37.16.57.57,0,0,1,.15.4v8.66a.57.57,0,0,1-.17.41A.62.62,0,0,1,127.29,46.45Z"/><path class="cls-2" d="M136,46.45a.58.58,0,0,1-.43-.17.53.53,0,0,1-.17-.41v-8l.17.19-1.63,1a.53.53,0,0,1-.28.07.55.55,0,0,1-.41-.18.6.6,0,0,1-.16-.39.57.57,0,0,1,.29-.49l2.28-1.36a.77.77,0,0,1,.42-.08.46.46,0,0,1,.38.16.61.61,0,0,1,.14.4v8.66a.57.57,0,0,1-.17.41A.58.58,0,0,1,136,46.45Z"/><path class="cls-2" d="M141,46.5a3.8,3.8,0,0,1-1.14-.17,2.91,2.91,0,0,1-1-.53.7.7,0,0,1-.18-.25.65.65,0,0,1-.07-.29.49.49,0,0,1,.15-.33.48.48,0,0,1,.38-.16.74.74,0,0,1,.42.18,2.58,2.58,0,0,0,.69.38,2.21,2.21,0,0,0,.75.14,2.68,2.68,0,0,0,1.32-.31,2.3,2.3,0,0,0,.9-.85,2.27,2.27,0,0,0,.33-1.21,2.14,2.14,0,0,0-.28-1.12,1.93,1.93,0,0,0-.8-.75,2.46,2.46,0,0,0-1.17-.27,2.42,2.42,0,0,0-.88.15,5.47,5.47,0,0,0-.67.3,1.09,1.09,0,0,1-.47.15.7.7,0,0,1-.42-.12.55.55,0,0,1-.2-.3.76.76,0,0,1,0-.33l.54-3.71a.64.64,0,0,1,.2-.32.55.55,0,0,1,.38-.13h4.16a.51.51,0,0,1,.53.53.52.52,0,0,1-.15.38.54.54,0,0,1-.38.15H140l.14-.12-.52,3.23-.22-.29a1.53,1.53,0,0,1,.47-.28,3.38,3.38,0,0,1,.72-.24,3.47,3.47,0,0,1,.85-.1,3.26,3.26,0,0,1,1.63.41,3.09,3.09,0,0,1,1.14,1.13,3.18,3.18,0,0,1,.42,1.64,3.37,3.37,0,0,1-.27,1.36,3.23,3.23,0,0,1-.77,1.09,3.52,3.52,0,0,1-1.16.71A4.05,4.05,0,0,1,141,46.5Z"/><path class="cls-2" d="M148.82,46.5a3.85,3.85,0,0,1-1.14-.17,3,3,0,0,1-1-.53.52.52,0,0,1-.18-.25.65.65,0,0,1-.07-.29.53.53,0,0,1,.14-.33.5.5,0,0,1,.39-.16.74.74,0,0,1,.42.18,2.38,2.38,0,0,0,.68.38,2.31,2.31,0,0,0,.76.14,2.71,2.71,0,0,0,1.32-.31,2.3,2.3,0,0,0,.9-.85,2.27,2.27,0,0,0,.33-1.21,2.15,2.15,0,0,0-.29-1.12,1.87,1.87,0,0,0-.8-.75,2.66,2.66,0,0,0-2.05-.12,6.26,6.26,0,0,0-.67.3,1.05,1.05,0,0,1-.46.15.66.66,0,0,1-.42-.12.55.55,0,0,1-.2-.3.77.77,0,0,1,0-.33L147,37.1a.58.58,0,0,1,.2-.32.52.52,0,0,1,.37-.13h4.16a.52.52,0,0,1,.38.15.54.54,0,0,1,.15.38.51.51,0,0,1-.53.53h-3.88l.14-.12-.51,3.23-.23-.29a1.66,1.66,0,0,1,.47-.28,3.29,3.29,0,0,1,.73-.24,3.41,3.41,0,0,1,.85-.1,3.29,3.29,0,0,1,1.63.41,3.09,3.09,0,0,1,1.14,1.13,3.18,3.18,0,0,1,.42,1.64,3.27,3.27,0,0,1-1,2.45,3.56,3.56,0,0,1-1.17.71A4,4,0,0,1,148.82,46.5Z"/><path class="cls-2" d="M161.13,36.48a3.18,3.18,0,0,1,1.41.3,3,3,0,0,1,1,.82,3.81,3.81,0,0,1,.62,1.16,4.3,4.3,0,0,1,.21,1.33,6.16,6.16,0,0,1-.16,1.34,8,8,0,0,1-.46,1.49,7.85,7.85,0,0,1-.82,1.46,6.5,6.5,0,0,1-1.21,1.25,5.07,5.07,0,0,1-1.61.86.64.64,0,0,1-.22,0,.59.59,0,0,1-.4-.14.49.49,0,0,1-.18-.42.53.53,0,0,1,.13-.34.75.75,0,0,1,.34-.22,4.7,4.7,0,0,0,1.44-.86,6.05,6.05,0,0,0,1.21-1.36,4.64,4.64,0,0,0,.68-1.67l.33-.11a2.92,2.92,0,0,1-.58.71,3.49,3.49,0,0,1-.85.53,2.65,2.65,0,0,1-1.07.21,2.61,2.61,0,0,1-1.15-.25,3.24,3.24,0,0,1-.94-.71,3.28,3.28,0,0,1-.63-1,3.15,3.15,0,0,1-.24-1.21,3,3,0,0,1,.42-1.58,3.27,3.27,0,0,1,1.12-1.16A3,3,0,0,1,161.13,36.48Zm0,1.05a2,2,0,0,0-1,.27,2.16,2.16,0,0,0-.72.75,2.33,2.33,0,0,0-.26,1.11,2.45,2.45,0,0,0,.24,1.06,1.83,1.83,0,0,0,1.73,1.08,2.19,2.19,0,0,0,1.14-.29,2.05,2.05,0,0,0,.73-.79,2.4,2.4,0,0,0,.26-1.09,2.13,2.13,0,0,0-.25-1,2,2,0,0,0-.72-.77A2.15,2.15,0,0,0,161.14,37.53Z"/><path class="cls-2" d="M166.31,44.82a.72.72,0,0,1,.19,0,.56.56,0,0,1,.23.15,2.42,2.42,0,0,0,.66.4,2.14,2.14,0,0,0,.87.16,2.19,2.19,0,0,0,2.24-2.22,2,2,0,0,0-.32-1.16,1.88,1.88,0,0,0-.8-.68,2.5,2.5,0,0,0-1-.21l-.37,0-.31.07a1,1,0,0,1-.27,0,.41.41,0,0,1-.35-.16.55.55,0,0,1-.13-.38.59.59,0,0,1,0-.23.85.85,0,0,1,.14-.21l2.75-3,.22.27h-4a.55.55,0,0,1-.53-.53.46.46,0,0,1,.16-.37.5.5,0,0,1,.37-.15h4.57a.58.58,0,0,1,.45.17.64.64,0,0,1,.14.39.46.46,0,0,1-.06.23,1,1,0,0,1-.15.2l-2.73,3L168,40.4a.85.85,0,0,1,.33-.1,1.7,1.7,0,0,1,.42,0,2.78,2.78,0,0,1,2.49,1.44,3.5,3.5,0,0,1-.07,3.34,3.07,3.07,0,0,1-1.27,1.15,4,4,0,0,1-1.81.41,3.43,3.43,0,0,1-1.1-.18,2.47,2.47,0,0,1-.93-.51.49.49,0,0,1-.31-.47.63.63,0,0,1,.16-.41A.51.51,0,0,1,166.31,44.82Z"/><path class="cls-2" d="M177.72,41.51l0-.2a3,3,0,0,1,.88.57,3,3,0,0,1,.63.84,2.3,2.3,0,0,1,.23,1,2.57,2.57,0,0,1-.41,1.4,3,3,0,0,1-1.12,1,3.35,3.35,0,0,1-1.58.38,3.28,3.28,0,0,1-1.57-.38,3,3,0,0,1-1.11-1,2.49,2.49,0,0,1-.41-1.4,2.26,2.26,0,0,1,.25-1.1,3.13,3.13,0,0,1,.66-.82,3.8,3.8,0,0,1,.84-.53l-.07.23a2.57,2.57,0,0,1-.7-.46,2.35,2.35,0,0,1-.54-.73,2.16,2.16,0,0,1-.21-1,2.59,2.59,0,0,1,.38-1.37,2.63,2.63,0,0,1,1-1,3,3,0,0,1,1.44-.36,2.9,2.9,0,0,1,1.44.36,2.74,2.74,0,0,1,1,1,2.51,2.51,0,0,1,.39,1.37,2.11,2.11,0,0,1-.23,1,2.5,2.5,0,0,1-.55.72A3,3,0,0,1,177.72,41.51Zm-1.4,4a2,2,0,0,0,1.42-.51A1.71,1.71,0,0,0,178,42.8a2,2,0,0,0-.72-.63,2.22,2.22,0,0,0-2,0,1.89,1.89,0,0,0-.71.63,1.68,1.68,0,0,0,.28,2.16A2,2,0,0,0,176.32,45.47Zm-1.72-6.11a1.73,1.73,0,0,0,.23.89,1.56,1.56,0,0,0,.63.59,1.72,1.72,0,0,0,.86.22,1.67,1.67,0,0,0,.86-.22,1.6,1.6,0,0,0,.62-.59,1.65,1.65,0,0,0,.24-.89,1.59,1.59,0,0,0-.48-1.19,1.87,1.87,0,0,0-2.48,0A1.59,1.59,0,0,0,174.6,39.36Z"/></g></g></svg>