<svg xmlns="http://www.w3.org/2000/svg" viewBox="0 0 300.13 46.28"><defs><style>.cls-1{fill:#1f8ebe;}.cls-2{fill:#363026;}</style></defs><g id="Layer_2" data-name="Layer 2"><g id="Layer_1-2" data-name="Layer 1"><path class="cls-1" d="M282,23.8H5.17c-.28,0-.51-.42-.51-.94s.23-.94.51-.94H282c.29,0,.52.42.52.94S282.28,23.8,282,23.8Z"/><polygon class="cls-1" points="11.46 30.57 12.74 29.19 5.94 22.86 12.74 16.54 11.46 15.16 3.17 22.86 11.46 30.57"/><polygon class="cls-1" points="275.8 30.57 274.52 29.19 281.32 22.86 274.52 16.54 275.8 15.16 284.09 22.86 275.8 30.57"/><path class="cls-1" d="M269.4,32.39a.94.94,0,0,1-.94-.94V14.38a.95.95,0,1,1,1.89,0V31.45A1,1,0,0,1,269.4,32.39Z"/><path class="cls-1" d="M194.21,32.39a.94.94,0,0,1-.94-.94V14.38a.94.94,0,1,1,1.88,0V31.45A.94.94,0,0,1,194.21,32.39Z"/><path class="cls-1" d="M21.88,32.39a.94.94,0,0,1-.95-.94V14.38a.95.95,0,1,1,1.89,0V31.45A.94.94,0,0,1,21.88,32.39Z"/><path class="cls-1" d="M83,32.39a.94.94,0,0,1-.94-.94V14.38a.94.94,0,1,1,1.88,0V31.45A.94.94,0,0,1,83,32.39Z"/><path class="cls-2" d="M241.73,46.14a.56.56,0,0,1-.43-.17.54.54,0,0,1-.17-.4v-8l.17.2-1.62,1a.55.55,0,0,1-.28.07.52.52,0,0,1-.41-.19.59.59,0,0,1-.17-.39.58.58,0,0,1,.29-.49l2.29-1.35a.69.69,0,0,1,.42-.09.47.47,0,0,1,.37.16.57.57,0,0,1,.15.4v8.67a.54.54,0,0,1-.17.4A.57.57,0,0,1,241.73,46.14Z"/><path class="cls-2" d="M250.05,46.18a.62.62,0,0,1-.41-.14.48.48,0,0,1-.18-.39.57.57,0,0,1,.06-.25l3.62-8.26.16.25h-4.51a.51.51,0,0,1-.53-.53.5.5,0,0,1,.15-.37.52.52,0,0,1,.38-.15h5.05a.57.57,0,0,1,.42.15.49.49,0,0,1,.16.38.6.6,0,0,1-.06.27l-3.79,8.69a.46.46,0,0,1-.21.26A.56.56,0,0,1,250.05,46.18Z"/><path class="cls-2" d="M259.12,46.28a2.91,2.91,0,0,1-1.94-.66,3.93,3.93,0,0,1-1.17-1.8,8.55,8.55,0,0,1,0-5.17,4,4,0,0,1,1.17-1.79,3.18,3.18,0,0,1,3.88,0,4,4,0,0,1,1.17,1.79,8.76,8.76,0,0,1,0,5.17,3.93,3.93,0,0,1-1.17,1.8A2.89,2.89,0,0,1,259.12,46.28Zm0-1.13a1.74,1.74,0,0,0,1.25-.48,3,3,0,0,0,.78-1.35,7,7,0,0,0,.27-2.08,7.12,7.12,0,0,0-.27-2.09,3,3,0,0,0-.78-1.34,1.9,1.9,0,0,0-2.5,0,3.06,3.06,0,0,0-.79,1.34,7.12,7.12,0,0,0-.27,2.09,7,7,0,0,0,.27,2.08,3.1,3.1,0,0,0,.79,1.35A1.76,1.76,0,0,0,259.12,45.15Z"/><path class="cls-2" d="M267.53,46.28a2.86,2.86,0,0,1-1.93-.66,4,4,0,0,1-1.18-1.8,8.55,8.55,0,0,1,0-5.17,4.1,4.1,0,0,1,1.18-1.79,3.17,3.17,0,0,1,3.87,0,4,4,0,0,1,1.17,1.79,8.76,8.76,0,0,1,0,5.17,3.93,3.93,0,0,1-1.17,1.8A2.87,2.87,0,0,1,267.53,46.28Zm0-1.13a1.77,1.77,0,0,0,1.26-.48,2.9,2.9,0,0,0,.77-1.35,7,7,0,0,0,.27-2.08,7.12,7.12,0,0,0-.27-2.09,2.86,2.86,0,0,0-.77-1.34,1.91,1.91,0,0,0-2.51,0,3,3,0,0,0-.78,1.34,7.12,7.12,0,0,0-.27,2.09,7,7,0,0,0,.27,2.08,3,3,0,0,0,.78,1.35A1.76,1.76,0,0,0,267.53,45.15Z"/><path class="cls-2" d="M279.8,46.28a2.89,2.89,0,0,1-1.94-.66,4,4,0,0,1-1.18-1.8,8.55,8.55,0,0,1,0-5.17,4.1,4.1,0,0,1,1.18-1.79,3.18,3.18,0,0,1,3.88,0,4,4,0,0,1,1.17,1.79,8.76,8.76,0,0,1,0,5.17,3.93,3.93,0,0,1-1.17,1.8A2.91,2.91,0,0,1,279.8,46.28Zm0-1.13a1.76,1.76,0,0,0,1.25-.48,3,3,0,0,0,.78-1.35,7.07,7.07,0,0,0,.26-2.08,7.14,7.14,0,0,0-.26-2.09,3,3,0,0,0-.78-1.34,1.9,1.9,0,0,0-2.5,0,2.88,2.88,0,0,0-.79,1.34,7.12,7.12,0,0,0-.27,2.09,7,7,0,0,0,.27,2.08,2.92,2.92,0,0,0,.79,1.35A1.74,1.74,0,0,0,279.8,45.15Z"/><path class="cls-2" d="M288.21,46.28a2.91,2.91,0,0,1-1.94-.66,4,4,0,0,1-1.17-1.8,8.55,8.55,0,0,1,0-5.17,4.09,4.09,0,0,1,1.17-1.79,3.18,3.18,0,0,1,3.88,0,4,4,0,0,1,1.17,1.79,8.76,8.76,0,0,1,0,5.17,3.93,3.93,0,0,1-1.17,1.8A2.89,2.89,0,0,1,288.21,46.28Zm0-1.13a1.79,1.79,0,0,0,1.26-.48,3,3,0,0,0,.77-1.35,7,7,0,0,0,.27-2.08,7.12,7.12,0,0,0-.27-2.09,3,3,0,0,0-.77-1.34,1.78,1.78,0,0,0-1.26-.47,1.75,1.75,0,0,0-1.25.47,3,3,0,0,0-.78,1.34,7.9,7.9,0,0,0,0,4.17,3,3,0,0,0,.78,1.35A1.76,1.76,0,0,0,288.21,45.15Z"/><path class="cls-2" d="M296.63,46.28a2.89,2.89,0,0,1-1.94-.66,4,4,0,0,1-1.18-1.8,8.55,8.55,0,0,1,0-5.17,4.1,4.1,0,0,1,1.18-1.79,3.18,3.18,0,0,1,3.88,0,4.07,4.07,0,0,1,1.16,1.79,8.55,8.55,0,0,1,0,5.17,4,4,0,0,1-1.16,1.8A2.91,2.91,0,0,1,296.63,46.28Zm0-1.13a1.76,1.76,0,0,0,1.25-.48,3,3,0,0,0,.78-1.35,7.42,7.42,0,0,0,.26-2.08,7.5,7.5,0,0,0-.26-2.09,3,3,0,0,0-.78-1.34,1.91,1.91,0,0,0-2.51,0,3,3,0,0,0-.78,1.34,7.12,7.12,0,0,0-.27,2.09,7,7,0,0,0,.27,2.08,3,3,0,0,0,.78,1.35A1.77,1.77,0,0,0,296.63,45.15Z"/><path class="cls-2" d="M2.91,46.14a.58.58,0,0,1-.6-.57v-8l.17.2-1.63,1a.61.61,0,0,1-.28.07.54.54,0,0,1-.4-.19A.61.61,0,0,1,0,38.27a.58.58,0,0,1,.29-.49l2.29-1.35A.69.69,0,0,1,3,36.34a.49.49,0,0,1,.37.16.56.56,0,0,1,.14.4v8.67a.54.54,0,0,1-.16.4A.58.58,0,0,1,2.91,46.14Z"/><path class="cls-2" d="M12.81,46.28a2.91,2.91,0,0,1-1.94-.66,3.93,3.93,0,0,1-1.17-1.8,8.55,8.55,0,0,1,0-5.17,4,4,0,0,1,1.17-1.79,2.91,2.91,0,0,1,1.94-.66,2.91,2.91,0,0,1,1.94.66,4,4,0,0,1,1.17,1.79,8.76,8.76,0,0,1,0,5.17,3.93,3.93,0,0,1-1.17,1.8A2.91,2.91,0,0,1,12.81,46.28Zm0-1.13a1.76,1.76,0,0,0,1.25-.48,3.05,3.05,0,0,0,.78-1.35,8.19,8.19,0,0,0,0-4.17,3,3,0,0,0-.78-1.34,1.9,1.9,0,0,0-2.5,0,3.06,3.06,0,0,0-.79,1.34,8.19,8.19,0,0,0,0,4.17,3.16,3.16,0,0,0,.79,1.35A1.76,1.76,0,0,0,12.81,45.15Z"/><path class="cls-2" d="M21.22,46.28a2.91,2.91,0,0,1-1.94-.66,4.09,4.09,0,0,1-1.17-1.8,8.55,8.55,0,0,1,0-5.17,4.18,4.18,0,0,1,1.17-1.79,3.18,3.18,0,0,1,3.88,0,4,4,0,0,1,1.17,1.79,8.76,8.76,0,0,1,0,5.17,3.93,3.93,0,0,1-1.17,1.8A2.89,2.89,0,0,1,21.22,46.28Zm0-1.13a1.77,1.77,0,0,0,1.26-.48,3,3,0,0,0,.77-1.35,8.19,8.19,0,0,0,0-4.17,2.86,2.86,0,0,0-.77-1.34,1.91,1.91,0,0,0-2.51,0,3,3,0,0,0-.78,1.34,7.9,7.9,0,0,0,0,4.17A3.05,3.05,0,0,0,20,44.67,1.76,1.76,0,0,0,21.22,45.15Z"/><path class="cls-2" d="M29.64,46.28a2.89,2.89,0,0,1-1.94-.66,4,4,0,0,1-1.18-1.8,8.55,8.55,0,0,1,0-5.17,4.1,4.1,0,0,1,1.18-1.79,3.18,3.18,0,0,1,3.88,0,4.18,4.18,0,0,1,1.17,1.79,8.76,8.76,0,0,1,0,5.17,4.09,4.09,0,0,1-1.17,1.8A2.91,2.91,0,0,1,29.64,46.28Zm0-1.13a1.76,1.76,0,0,0,1.25-.48,3.05,3.05,0,0,0,.78-1.35,8.49,8.49,0,0,0,0-4.17,3,3,0,0,0-.78-1.34,1.75,1.75,0,0,0-1.25-.47,1.78,1.78,0,0,0-1.26.47,3,3,0,0,0-.78,1.34,8.19,8.19,0,0,0,0,4.17,3.05,3.05,0,0,0,.78,1.35A1.79,1.79,0,0,0,29.64,45.15Z"/><path class="cls-2" d="M41.9,46.28A2.91,2.91,0,0,1,40,45.62a3.93,3.93,0,0,1-1.17-1.8,8.55,8.55,0,0,1,0-5.17A4,4,0,0,1,40,36.86a3.18,3.18,0,0,1,3.88,0A4,4,0,0,1,45,38.65a8.76,8.76,0,0,1,0,5.17,3.93,3.93,0,0,1-1.17,1.8A2.89,2.89,0,0,1,41.9,46.28Zm0-1.13a1.74,1.74,0,0,0,1.25-.48,3,3,0,0,0,.78-1.35,8.19,8.19,0,0,0,0-4.17,2.87,2.87,0,0,0-.78-1.34,1.9,1.9,0,0,0-2.5,0,3.06,3.06,0,0,0-.79,1.34,8.19,8.19,0,0,0,0,4.17,3.16,3.16,0,0,0,.79,1.35A1.76,1.76,0,0,0,41.9,45.15Z"/><path class="cls-2" d="M50.32,46.28a2.89,2.89,0,0,1-1.94-.66,4,4,0,0,1-1.18-1.8,8.55,8.55,0,0,1,0-5.17,4.1,4.1,0,0,1,1.18-1.79,3.17,3.17,0,0,1,3.87,0,4,4,0,0,1,1.17,1.79,8.55,8.55,0,0,1,0,5.17,3.93,3.93,0,0,1-1.17,1.8A2.86,2.86,0,0,1,50.32,46.28Zm0-1.13a1.76,1.76,0,0,0,1.25-.48,3.05,3.05,0,0,0,.78-1.35,8.49,8.49,0,0,0,0-4.17,3,3,0,0,0-.78-1.34,1.91,1.91,0,0,0-2.51,0,3,3,0,0,0-.78,1.34,8.19,8.19,0,0,0,0,4.17,3.05,3.05,0,0,0,.78,1.35A1.77,1.77,0,0,0,50.32,45.15Z"/><path class="cls-2" d="M58.73,46.28a2.89,2.89,0,0,1-1.94-.66,4,4,0,0,1-1.18-1.8,8.76,8.76,0,0,1,0-5.17,4.1,4.1,0,0,1,1.18-1.79,3.18,3.18,0,0,1,3.88,0,4,4,0,0,1,1.17,1.79,8.76,8.76,0,0,1,0,5.17,3.93,3.93,0,0,1-1.17,1.8A2.91,2.91,0,0,1,58.73,46.28Zm0-1.13A1.76,1.76,0,0,0,60,44.67a3.05,3.05,0,0,0,.78-1.35,8.19,8.19,0,0,0,0-4.17A3,3,0,0,0,60,37.81a1.9,1.9,0,0,0-2.5,0,3,3,0,0,0-.79,1.34,8.19,8.19,0,0,0,0,4.17,3.06,3.06,0,0,0,.79,1.35A1.74,1.74,0,0,0,58.73,45.15Z"/><path class="cls-2" d="M59.64,9.8a.58.58,0,0,1-.44-.17.54.54,0,0,1-.16-.4v-8l.16.2-1.62,1a.64.64,0,0,1-.28.07.53.53,0,0,1-.4-.19.57.57,0,0,1-.17-.39A.55.55,0,0,1,57,1.44L59.3.09A.71.71,0,0,1,59.72,0a.5.5,0,0,1,.38.16.61.61,0,0,1,.14.4V9.23a.51.51,0,0,1-.17.4A.54.54,0,0,1,59.64,9.8Z"/><path class="cls-2" d="M68.31,9.8a.57.57,0,0,1-.44-.17.54.54,0,0,1-.17-.4v-8l.17.2-1.62,1a.68.68,0,0,1-.28.07.55.55,0,0,1-.41-.19.61.61,0,0,1-.17-.39.56.56,0,0,1,.3-.49L68,.09A.69.69,0,0,1,68.39,0a.51.51,0,0,1,.38.16.61.61,0,0,1,.14.4V9.23a.54.54,0,0,1-.17.4A.56.56,0,0,1,68.31,9.8Z"/><path class="cls-2" d="M75.54,4.86l0-.2a3.2,3.2,0,0,1,.88.58,2.78,2.78,0,0,1,.62.83,2.31,2.31,0,0,1,.23,1,2.56,2.56,0,0,1-.41,1.39,3,3,0,0,1-1.12,1,3.21,3.21,0,0,1-1.58.38,3.17,3.17,0,0,1-1.57-.38,3.09,3.09,0,0,1-1.11-1,2.56,2.56,0,0,1-.41-1.39A2.3,2.3,0,0,1,71.31,6,2.61,2.61,0,0,1,72,5.17a3.24,3.24,0,0,1,.83-.53l-.07.22A2.25,2.25,0,0,1,72,4.4a2.43,2.43,0,0,1-.54-.72,2.21,2.21,0,0,1-.21-1,2.58,2.58,0,0,1,.37-1.37,2.77,2.77,0,0,1,1-1A3,3,0,0,1,74.14,0a2.85,2.85,0,0,1,1.44.36,2.75,2.75,0,0,1,1,1A2.51,2.51,0,0,1,77,2.7a2.08,2.08,0,0,1-.23,1,2.22,2.22,0,0,1-.55.72A2.54,2.54,0,0,1,75.54,4.86Zm-1.4,4a2.05,2.05,0,0,0,1.42-.5,1.69,1.69,0,0,0,.29-2.17,2,2,0,0,0-.71-.63,2.2,2.2,0,0,0-1-.23,2.17,2.17,0,0,0-1,.23,2,2,0,0,0-.71.63,1.69,1.69,0,0,0,.29,2.17A2,2,0,0,0,74.14,8.82Zm-1.72-6.1a1.7,1.7,0,0,0,.23.88,1.7,1.7,0,0,0,.63.59,1.72,1.72,0,0,0,.86.22A1.64,1.64,0,0,0,75,4.19a1.7,1.7,0,0,0,.63-.59,1.61,1.61,0,0,0,.23-.88,1.6,1.6,0,0,0-.48-1.2,1.71,1.71,0,0,0-1.24-.47,1.74,1.74,0,0,0-1.24.47A1.6,1.6,0,0,0,72.42,2.72Z"/><path class="cls-2" d="M81.14,9.8a.56.56,0,0,1-.43-.17.54.54,0,0,1-.17-.4v-8l.17.2-1.63,1a.6.6,0,0,1-.27.07.55.55,0,0,1-.41-.19.61.61,0,0,1-.17-.39.57.57,0,0,1,.29-.49L80.81.09A.69.69,0,0,1,81.23,0a.47.47,0,0,1,.37.16.56.56,0,0,1,.14.4V9.23a.54.54,0,0,1-.16.4A.57.57,0,0,1,81.14,9.8Z"/><path class="cls-2" d="M92.23,4.86l0-.2a3.06,3.06,0,0,1,.88.58,2.81,2.81,0,0,1,.63.83,2.31,2.31,0,0,1,.23,1,2.56,2.56,0,0,1-.41,1.39,3,3,0,0,1-1.12,1,3.24,3.24,0,0,1-1.58.38,3.17,3.17,0,0,1-1.57-.38,3,3,0,0,1-1.11-1,2.48,2.48,0,0,1-.41-1.39A2.2,2.2,0,0,1,88,6a2.73,2.73,0,0,1,.65-.81,3.47,3.47,0,0,1,.84-.53l-.07.22a2.18,2.18,0,0,1-.7-.46,2.43,2.43,0,0,1-.54-.72,2.21,2.21,0,0,1-.21-1,2.59,2.59,0,0,1,.38-1.37,2.7,2.7,0,0,1,1-1A3,3,0,0,1,90.83,0a2.9,2.9,0,0,1,1.44.36,2.82,2.82,0,0,1,1,1,2.51,2.51,0,0,1,.39,1.37,2.08,2.08,0,0,1-.23,1,2.37,2.37,0,0,1-.55.72A2.71,2.71,0,0,1,92.23,4.86Zm-1.4,4a2.05,2.05,0,0,0,1.42-.5,1.62,1.62,0,0,0,.55-1.25,1.62,1.62,0,0,0-.26-.92,2,2,0,0,0-.72-.63,2.22,2.22,0,0,0-2,0,1.89,1.89,0,0,0-.71.63,1.7,1.7,0,0,0,.28,2.17A2,2,0,0,0,90.83,8.82Zm-1.72-6.1a1.7,1.7,0,0,0,.23.88,1.56,1.56,0,0,0,.63.59,1.72,1.72,0,0,0,.86.22,1.64,1.64,0,0,0,.86-.22,1.65,1.65,0,0,0,.86-1.47,1.6,1.6,0,0,0-.48-1.2,1.87,1.87,0,0,0-2.48,0A1.6,1.6,0,0,0,89.11,2.72Z"/><path class="cls-2" d="M100.66,9.8a.51.51,0,0,1-.4-.17.54.54,0,0,1-.16-.4V1.57l.22.08L97,6l-.06-.17H102a.55.55,0,0,1,.54.54.48.48,0,0,1-.16.35.52.52,0,0,1-.38.15H96.15a.53.53,0,0,1-.38-.17.51.51,0,0,1-.18-.39A.52.52,0,0,1,95.73,6L100.2.23a.47.47,0,0,1,.22-.18.74.74,0,0,1,.25,0,.53.53,0,0,1,.39.16.54.54,0,0,1,.16.4V9.23a.58.58,0,0,1-.16.4A.51.51,0,0,1,100.66,9.8Z"/><path class="cls-2" d="M106.55,9.86a3.87,3.87,0,0,1-1.14-.18,2.85,2.85,0,0,1-1-.52.79.79,0,0,1-.19-.25.87.87,0,0,1-.07-.3.49.49,0,0,1,.15-.33.53.53,0,0,1,.39-.16.74.74,0,0,1,.42.18,2.38,2.38,0,0,0,.68.38,2,2,0,0,0,.76.14,2.67,2.67,0,0,0,1.31-.31,2.24,2.24,0,0,0,.91-.84,2.29,2.29,0,0,0,.33-1.21,2.18,2.18,0,0,0-.29-1.13,2,2,0,0,0-.8-.75,2.66,2.66,0,0,0-2-.12,6.26,6.26,0,0,0-.67.3,1.05,1.05,0,0,1-.46.15.66.66,0,0,1-.42-.11.57.57,0,0,1-.21-.3.81.81,0,0,1,0-.34l.55-3.71a.63.63,0,0,1,.19-.32.62.62,0,0,1,.38-.13h4.16a.49.49,0,0,1,.38.16.5.5,0,0,1,.15.37.52.52,0,0,1-.15.38.53.53,0,0,1-.38.16h-3.88l.14-.13-.52,3.23L105,3.88a1.75,1.75,0,0,1,.47-.28,4.81,4.81,0,0,1,.73-.24,3.94,3.94,0,0,1,.84-.1,3.23,3.23,0,0,1,1.64.42,3.06,3.06,0,0,1,1.14,1.12,3.2,3.2,0,0,1,.42,1.64,3.28,3.28,0,0,1-1,2.45,3.54,3.54,0,0,1-1.16.72A4.24,4.24,0,0,1,106.55,9.86Z"/><path class="cls-2" d="M166.09,46.14a.58.58,0,0,1-.44-.17.54.54,0,0,1-.17-.4v-8l.17.2-1.62,1a.55.55,0,0,1-.28.07.52.52,0,0,1-.41-.19.59.59,0,0,1-.17-.39.57.57,0,0,1,.3-.49l2.28-1.35a.69.69,0,0,1,.42-.09.5.5,0,0,1,.38.16.61.61,0,0,1,.14.4v8.67a.54.54,0,0,1-.17.4A.56.56,0,0,1,166.09,46.14Z"/><path class="cls-2" d="M175,46.2a3.77,3.77,0,0,1-1.14-.18,2.9,2.9,0,0,1-1-.52.94.94,0,0,1-.18-.25.69.69,0,0,1-.07-.3.53.53,0,0,1,.53-.49.74.74,0,0,1,.42.18,2.44,2.44,0,0,0,.69.38,2,2,0,0,0,.75.14,2.68,2.68,0,0,0,1.32-.31,2.27,2.27,0,0,0,1.23-2.05,2.18,2.18,0,0,0-.29-1.13,2,2,0,0,0-.79-.75,2.49,2.49,0,0,0-1.17-.27,2.52,2.52,0,0,0-.89.15,6.26,6.26,0,0,0-.67.3.94.94,0,0,1-.46.16.66.66,0,0,1-.42-.12.55.55,0,0,1-.2-.3.67.67,0,0,1,0-.34l.54-3.71a.58.58,0,0,1,.2-.31.56.56,0,0,1,.38-.14h4.15a.49.49,0,0,1,.38.16.52.52,0,0,1,.16.37.53.53,0,0,1-.16.38.49.49,0,0,1-.38.16H174l.14-.13-.52,3.23-.22-.29a1.67,1.67,0,0,1,.46-.28,5.21,5.21,0,0,1,.73-.24,4,4,0,0,1,.85-.1,3.17,3.17,0,0,1,1.63.42,3.06,3.06,0,0,1,1.14,1.12,3.2,3.2,0,0,1,.42,1.64,3.42,3.42,0,0,1-.27,1.37,3.29,3.29,0,0,1-.77,1.08,3.54,3.54,0,0,1-1.16.72A4.29,4.29,0,0,1,175,46.2Z"/><path class="cls-2" d="M185.41,46.14A.5.5,0,0,1,185,46a.54.54,0,0,1-.16-.4V37.91l.22.08-3.35,4.37-.05-.17h5.12a.53.53,0,0,1,.38.16.52.52,0,0,1,.15.38.45.45,0,0,1-.15.35.52.52,0,0,1-.38.15H180.9a.57.57,0,0,1-.39-.17.54.54,0,0,1-.17-.39.52.52,0,0,1,.14-.36l4.46-5.74a.49.49,0,0,1,.23-.18.74.74,0,0,1,.25,0,.53.53,0,0,1,.39.16.58.58,0,0,1,.16.4v8.67a.58.58,0,0,1-.16.4A.52.52,0,0,1,185.41,46.14Z"/><path class="cls-2" d="M194.8,45.09a.49.49,0,0,1,.38.16.51.51,0,0,1,.15.37.52.52,0,0,1-.15.38.56.56,0,0,1-.38.14h-5.08a.6.6,0,0,1-.41-.14.53.53,0,0,1-.17-.4.6.6,0,0,1,.17-.41l3.17-3.46a8.07,8.07,0,0,0,1.05-1.36,2.54,2.54,0,0,0,.36-1.24,2,2,0,0,0-.24-1,1.77,1.77,0,0,0-.68-.65,2.21,2.21,0,0,0-1-.23,2.09,2.09,0,0,0-1.07.3,1.94,1.94,0,0,0-.8.91.62.62,0,0,1-.22.21.44.44,0,0,1-.24.07.59.59,0,0,1-.38-.15.43.43,0,0,1-.18-.34.55.55,0,0,1,.09-.3c.06-.09.13-.19.21-.29a2.9,2.9,0,0,1,1.17-1.08A3.2,3.2,0,0,1,192,36.2a3.37,3.37,0,0,1,1.64.37,2.51,2.51,0,0,1,1,1,3,3,0,0,1,.36,1.48,3.24,3.24,0,0,1-.19,1.08,5.12,5.12,0,0,1-.58,1.14,8.63,8.63,0,0,1-1,1.24l-2.45,2.71-.14-.14Z"/><path class="cls-2" d="M203.58,36.17a3,3,0,0,1,1.4.31,2.91,2.91,0,0,1,1,.81,3.87,3.87,0,0,1,.62,1.17,4.25,4.25,0,0,1,.21,1.33,6.75,6.75,0,0,1-.16,1.33,8,8,0,0,1-.47,1.49,7.05,7.05,0,0,1-.82,1.46,5.68,5.68,0,0,1-1.2,1.25,5.18,5.18,0,0,1-1.61.86.68.68,0,0,1-.22,0,.63.63,0,0,1-.4-.14.52.52,0,0,1-.18-.42.51.51,0,0,1,.13-.35.7.7,0,0,1,.33-.21,5,5,0,0,0,1.45-.86,6.1,6.1,0,0,0,1.21-1.37,4.75,4.75,0,0,0,.68-1.67l.33-.11a3,3,0,0,1-.59.71,3,3,0,0,1-.84.54,2.65,2.65,0,0,1-1.07.21,2.59,2.59,0,0,1-1.15-.26,3,3,0,0,1-.94-.71,3.5,3.5,0,0,1-.64-1,3.29,3.29,0,0,1-.23-1.21,3.15,3.15,0,0,1,.41-1.58A3.28,3.28,0,0,1,202,36.62,3,3,0,0,1,203.58,36.17Zm0,1a2,2,0,0,0-1.75,1,2.16,2.16,0,0,0-.26,1.1,2.38,2.38,0,0,0,.23,1.06,2,2,0,0,0,.69.79,1.84,1.84,0,0,0,1.05.29,2,2,0,0,0,1.13-.29,2,2,0,0,0,.74-.79,2.34,2.34,0,0,0,.26-1.09,2.25,2.25,0,0,0-.25-1,2,2,0,0,0-.73-.76A2,2,0,0,0,203.59,37.22Z"/><path class="cls-2" d="M211.42,46.28A3.18,3.18,0,0,1,210,46a2.79,2.79,0,0,1-1-.82,3.7,3.7,0,0,1-.62-1.16,4.25,4.25,0,0,1-.21-1.33,6.78,6.78,0,0,1,.15-1.34,9.43,9.43,0,0,1,.47-1.52,7.48,7.48,0,0,1,.82-1.49A6.11,6.11,0,0,1,210.82,37a5.11,5.11,0,0,1,1.61-.88l.22,0a.7.7,0,0,1,.4.12.47.47,0,0,1,.17.43.52.52,0,0,1-.12.34.8.8,0,0,1-.34.22,4.47,4.47,0,0,0-1.1.61,5.48,5.48,0,0,0-1,.94,5.75,5.75,0,0,0-.78,1.16,4.33,4.33,0,0,0-.46,1.29l-.34.11a3.34,3.34,0,0,1,.61-.71,3.05,3.05,0,0,1,.84-.55,2.64,2.64,0,0,1,1.06-.21,2.53,2.53,0,0,1,1.15.27,3.2,3.2,0,0,1,1.57,1.74,3.14,3.14,0,0,1,.23,1.21,3.08,3.08,0,0,1-.41,1.58A3.19,3.19,0,0,1,213,45.84,2.89,2.89,0,0,1,211.42,46.28Zm0-1.05a2,2,0,0,0,1-.27,1.82,1.82,0,0,0,.72-.76,2.19,2.19,0,0,0,.27-1.1,2.39,2.39,0,0,0-.24-1.06,1.93,1.93,0,0,0-.68-.79,1.8,1.8,0,0,0-1.05-.3,2.19,2.19,0,0,0-1.14.29,2,2,0,0,0-.73.79,2.26,2.26,0,0,0-.26,1.1,2.16,2.16,0,0,0,.25,1,2,2,0,0,0,.72.77A2.08,2.08,0,0,0,211.4,45.23Z"/><path class="cls-2" d="M220.45,41.2l0-.2a3.06,3.06,0,0,1,.88.58,2.78,2.78,0,0,1,.62.83,2.19,2.19,0,0,1,.24,1,2.49,2.49,0,0,1-.42,1.39,3,3,0,0,1-1.12,1,3.43,3.43,0,0,1-3.14,0,2.93,2.93,0,0,1-1.11-1,2.49,2.49,0,0,1-.42-1.39,2.33,2.33,0,0,1,.26-1.11,2.76,2.76,0,0,1,.66-.81,3.42,3.42,0,0,1,.83-.53l-.07.22a2.4,2.4,0,0,1-.69-.45,2.61,2.61,0,0,1-.54-.73,2.21,2.21,0,0,1-.21-1,2.59,2.59,0,0,1,.38-1.37,2.7,2.7,0,0,1,1-1,3.06,3.06,0,0,1,2.88,0,2.82,2.82,0,0,1,1,1A2.59,2.59,0,0,1,221.9,39a2.08,2.08,0,0,1-.22,1,2.37,2.37,0,0,1-.55.72A2.71,2.71,0,0,1,220.45,41.2Zm-1.4,4a2.05,2.05,0,0,0,1.42-.5,1.62,1.62,0,0,0,.55-1.25,1.64,1.64,0,0,0-.26-.91,1.83,1.83,0,0,0-.72-.63,2.07,2.07,0,0,0-1-.24,2,2,0,0,0-1,.24,1.83,1.83,0,0,0-.72.63,1.64,1.64,0,0,0-.26.91,1.62,1.62,0,0,0,.55,1.25A2,2,0,0,0,219.05,45.16Zm-1.72-6.1a1.61,1.61,0,0,0,.23.88,1.65,1.65,0,0,0,.63.6,1.74,1.74,0,0,0,2.34-.6,1.74,1.74,0,0,0-.24-2.08,1.74,1.74,0,0,0-1.24-.47,1.71,1.71,0,0,0-1.24.47A1.6,1.6,0,0,0,217.33,39.06Z"/></g></g></svg>