<svg xmlns="http://www.w3.org/2000/svg" viewBox="0 0 300.13 46.49"><defs><style>.cls-1{fill:#1f8ebe;}.cls-2{fill:#363026;}</style></defs><g id="Layer_2" data-name="Layer 2"><g id="Layer_1-2" data-name="Layer 1"><path class="cls-1" d="M282,24H5.17c-.28,0-.51-.42-.51-.94s.23-.94.51-.94H282c.29,0,.52.42.52.94S282.28,24,282,24Z"/><polygon class="cls-1" points="11.46 30.77 12.74 29.39 5.94 23.07 12.74 16.74 11.46 15.36 3.17 23.07 11.46 30.77"/><polygon class="cls-1" points="275.8 30.77 274.52 29.39 281.32 23.07 274.52 16.74 275.8 15.36 284.09 23.07 275.8 30.77"/><path class="cls-1" d="M269.4,32.6a.94.94,0,0,1-.94-.94V14.59a.95.95,0,1,1,1.89,0V31.66A1,1,0,0,1,269.4,32.6Z"/><path class="cls-1" d="M194.21,32.6a.94.94,0,0,1-.94-.94V14.59a.94.94,0,1,1,1.88,0V31.66A.94.94,0,0,1,194.21,32.6Z"/><path class="cls-1" d="M21.88,32.6a.94.94,0,0,1-.95-.94V14.59a.95.95,0,1,1,1.89,0V31.66A.94.94,0,0,1,21.88,32.6Z"/><path class="cls-1" d="M83,32.6a.94.94,0,0,1-.94-.94V14.59a.94.94,0,1,1,1.88,0V31.66A.94.94,0,0,1,83,32.6Z"/><path class="cls-2" d="M241.73,46.35a.6.6,0,0,1-.43-.17.54.54,0,0,1-.17-.4v-8l.17.2-1.62,1a.68.68,0,0,1-.28.07.55.55,0,0,1-.41-.19.61.61,0,0,1-.17-.39.57.57,0,0,1,.29-.49l2.29-1.36a.77.77,0,0,1,.42-.08.44.44,0,0,1,.37.16.57.57,0,0,1,.15.4v8.67a.54.54,0,0,1-.17.4A.6.6,0,0,1,241.73,46.35Z"/><path class="cls-2" d="M250.05,46.39a.68.68,0,0,1-.41-.14.48.48,0,0,1-.18-.39.57.57,0,0,1,.06-.25l3.62-8.26.16.25h-4.51a.52.52,0,0,1-.38-.15.54.54,0,0,1-.15-.38.5.5,0,0,1,.15-.37.52.52,0,0,1,.38-.15h5.05a.57.57,0,0,1,.42.15.48.48,0,0,1,.16.38.63.63,0,0,1-.06.27L250.57,46a.49.49,0,0,1-.21.26A.56.56,0,0,1,250.05,46.39Z"/><path class="cls-2" d="M259.12,46.49a2.91,2.91,0,0,1-1.94-.66A4,4,0,0,1,256,44a8.55,8.55,0,0,1,0-5.17,4,4,0,0,1,1.17-1.79,3.18,3.18,0,0,1,3.88,0,4,4,0,0,1,1.17,1.79,8.76,8.76,0,0,1,0,5.17,4,4,0,0,1-1.17,1.8A2.89,2.89,0,0,1,259.12,46.49Zm0-1.13a1.74,1.74,0,0,0,1.25-.48,3.05,3.05,0,0,0,.78-1.35,8.19,8.19,0,0,0,0-4.17,3,3,0,0,0-.78-1.35,1.9,1.9,0,0,0-2.5,0,3.1,3.1,0,0,0-.79,1.35,8.19,8.19,0,0,0,0,4.17,3.16,3.16,0,0,0,.79,1.35A1.76,1.76,0,0,0,259.12,45.36Z"/><path class="cls-2" d="M267.53,46.49a2.86,2.86,0,0,1-1.93-.66,4.08,4.08,0,0,1-1.18-1.8,8.55,8.55,0,0,1,0-5.17,4,4,0,0,1,1.18-1.79,3.17,3.17,0,0,1,3.87,0,4,4,0,0,1,1.17,1.79,8.76,8.76,0,0,1,0,5.17,4,4,0,0,1-1.17,1.8A2.87,2.87,0,0,1,267.53,46.49Zm0-1.13a1.77,1.77,0,0,0,1.26-.48,3,3,0,0,0,.77-1.35,8.19,8.19,0,0,0,0-4.17,2.9,2.9,0,0,0-.77-1.35,1.91,1.91,0,0,0-2.51,0,3,3,0,0,0-.78,1.35,8.19,8.19,0,0,0,0,4.17,3.05,3.05,0,0,0,.78,1.35A1.76,1.76,0,0,0,267.53,45.36Z"/><path class="cls-2" d="M279.8,46.49a2.89,2.89,0,0,1-1.94-.66,4.08,4.08,0,0,1-1.18-1.8,8.55,8.55,0,0,1,0-5.17,4,4,0,0,1,1.18-1.79,3.18,3.18,0,0,1,3.88,0,4,4,0,0,1,1.17,1.79,8.76,8.76,0,0,1,0,5.17,4,4,0,0,1-1.17,1.8A2.91,2.91,0,0,1,279.8,46.49Zm0-1.13a1.76,1.76,0,0,0,1.25-.48,3.05,3.05,0,0,0,.78-1.35,8.49,8.49,0,0,0,0-4.17,3,3,0,0,0-.78-1.35,1.9,1.9,0,0,0-2.5,0,2.92,2.92,0,0,0-.79,1.35,8.19,8.19,0,0,0,0,4.17,3,3,0,0,0,.79,1.35A1.74,1.74,0,0,0,279.8,45.36Z"/><path class="cls-2" d="M288.21,46.49a2.91,2.91,0,0,1-1.94-.66A4.06,4.06,0,0,1,285.1,44a8.55,8.55,0,0,1,0-5.17,4,4,0,0,1,1.17-1.79,3.18,3.18,0,0,1,3.88,0,4,4,0,0,1,1.17,1.79,8.76,8.76,0,0,1,0,5.17,4,4,0,0,1-1.17,1.8A2.89,2.89,0,0,1,288.21,46.49Zm0-1.13a1.79,1.79,0,0,0,1.26-.48,3,3,0,0,0,.77-1.35,8.19,8.19,0,0,0,0-4.17,3,3,0,0,0-.77-1.35,1.82,1.82,0,0,0-1.26-.47A1.8,1.8,0,0,0,287,38a3,3,0,0,0-.78,1.35,7.9,7.9,0,0,0,0,4.17,3.05,3.05,0,0,0,.78,1.35A1.76,1.76,0,0,0,288.21,45.36Z"/><path class="cls-2" d="M296.63,46.49a2.89,2.89,0,0,1-1.94-.66,4.08,4.08,0,0,1-1.18-1.8,8.55,8.55,0,0,1,0-5.17,4,4,0,0,1,1.18-1.79,3.18,3.18,0,0,1,3.88,0,4,4,0,0,1,1.16,1.79,8.55,8.55,0,0,1,0,5.17,4,4,0,0,1-1.16,1.8A2.91,2.91,0,0,1,296.63,46.49Zm0-1.13a1.76,1.76,0,0,0,1.25-.48,3.05,3.05,0,0,0,.78-1.35,8.49,8.49,0,0,0,0-4.17,3,3,0,0,0-.78-1.35,1.91,1.91,0,0,0-2.51,0,3,3,0,0,0-.78,1.35,8.19,8.19,0,0,0,0,4.17,3.05,3.05,0,0,0,.78,1.35A1.77,1.77,0,0,0,296.63,45.36Z"/><path class="cls-2" d="M2.91,46.35a.58.58,0,0,1-.43-.17.56.56,0,0,1-.17-.4v-8l.17.2L.85,39a.61.61,0,0,1-.28.07.54.54,0,0,1-.4-.19A.61.61,0,0,1,0,38.48.57.57,0,0,1,.29,38l2.29-1.36A.77.77,0,0,1,3,36.55a.46.46,0,0,1,.37.16.56.56,0,0,1,.14.4v8.67a.55.55,0,0,1-.16.4A.62.62,0,0,1,2.91,46.35Z"/><path class="cls-2" d="M12.81,46.49a2.91,2.91,0,0,1-1.94-.66A4,4,0,0,1,9.7,44a8.55,8.55,0,0,1,0-5.17,4,4,0,0,1,1.17-1.79,2.91,2.91,0,0,1,1.94-.66,2.91,2.91,0,0,1,1.94.66,4,4,0,0,1,1.17,1.79,8.76,8.76,0,0,1,0,5.17,4,4,0,0,1-1.17,1.8A2.91,2.91,0,0,1,12.81,46.49Zm0-1.13a1.76,1.76,0,0,0,1.25-.48,3.05,3.05,0,0,0,.78-1.35,8.19,8.19,0,0,0,0-4.17A3,3,0,0,0,14.06,38a1.9,1.9,0,0,0-2.5,0,3.1,3.1,0,0,0-.79,1.35,8.19,8.19,0,0,0,0,4.17,3.16,3.16,0,0,0,.79,1.35A1.76,1.76,0,0,0,12.81,45.36Z"/><path class="cls-2" d="M21.22,46.49a2.91,2.91,0,0,1-1.94-.66A4.15,4.15,0,0,1,18.11,44a8.55,8.55,0,0,1,0-5.17,4.12,4.12,0,0,1,1.17-1.79,3.18,3.18,0,0,1,3.88,0,4,4,0,0,1,1.17,1.79,8.76,8.76,0,0,1,0,5.17,4,4,0,0,1-1.17,1.8A2.89,2.89,0,0,1,21.22,46.49Zm0-1.13a1.77,1.77,0,0,0,1.26-.48,3,3,0,0,0,.77-1.35,8.19,8.19,0,0,0,0-4.17A2.9,2.9,0,0,0,22.48,38,1.91,1.91,0,0,0,20,38a3,3,0,0,0-.78,1.35,7.9,7.9,0,0,0,0,4.17A3.05,3.05,0,0,0,20,44.88,1.76,1.76,0,0,0,21.22,45.36Z"/><path class="cls-2" d="M29.64,46.49a2.89,2.89,0,0,1-1.94-.66A4.08,4.08,0,0,1,26.52,44a8.55,8.55,0,0,1,0-5.17,4,4,0,0,1,1.18-1.79,3.18,3.18,0,0,1,3.88,0,4.12,4.12,0,0,1,1.17,1.79,8.76,8.76,0,0,1,0,5.17,4.15,4.15,0,0,1-1.17,1.8A2.91,2.91,0,0,1,29.64,46.49Zm0-1.13a1.76,1.76,0,0,0,1.25-.48,3.05,3.05,0,0,0,.78-1.35,8.49,8.49,0,0,0,0-4.17A3,3,0,0,0,30.89,38a1.8,1.8,0,0,0-1.25-.47,1.82,1.82,0,0,0-1.26.47,3,3,0,0,0-.78,1.35,8.19,8.19,0,0,0,0,4.17,3.05,3.05,0,0,0,.78,1.35A1.79,1.79,0,0,0,29.64,45.36Z"/><path class="cls-2" d="M41.9,46.49A2.91,2.91,0,0,1,40,45.83,4,4,0,0,1,38.79,44a8.55,8.55,0,0,1,0-5.17A4,4,0,0,1,40,37.07a3.18,3.18,0,0,1,3.88,0A4,4,0,0,1,45,38.86,8.76,8.76,0,0,1,45,44a4,4,0,0,1-1.17,1.8A2.89,2.89,0,0,1,41.9,46.49Zm0-1.13a1.74,1.74,0,0,0,1.25-.48,3,3,0,0,0,.78-1.35,8.19,8.19,0,0,0,0-4.17A2.91,2.91,0,0,0,43.15,38a1.9,1.9,0,0,0-2.5,0,3.1,3.1,0,0,0-.79,1.35,8.19,8.19,0,0,0,0,4.17,3.16,3.16,0,0,0,.79,1.35A1.76,1.76,0,0,0,41.9,45.36Z"/><path class="cls-2" d="M50.32,46.49a2.89,2.89,0,0,1-1.94-.66A4.08,4.08,0,0,1,47.2,44a8.55,8.55,0,0,1,0-5.17,4,4,0,0,1,1.18-1.79,3.17,3.17,0,0,1,3.87,0,4,4,0,0,1,1.17,1.79,8.55,8.55,0,0,1,0,5.17,4,4,0,0,1-1.17,1.8A2.86,2.86,0,0,1,50.32,46.49Zm0-1.13a1.76,1.76,0,0,0,1.25-.48,3.05,3.05,0,0,0,.78-1.35,8.49,8.49,0,0,0,0-4.17A3,3,0,0,0,51.57,38a1.91,1.91,0,0,0-2.51,0,3,3,0,0,0-.78,1.35,8.19,8.19,0,0,0,0,4.17,3.05,3.05,0,0,0,.78,1.35A1.77,1.77,0,0,0,50.32,45.36Z"/><path class="cls-2" d="M58.73,46.49a2.89,2.89,0,0,1-1.94-.66A4.08,4.08,0,0,1,55.61,44a8.76,8.76,0,0,1,0-5.17,4,4,0,0,1,1.18-1.79,3.18,3.18,0,0,1,3.88,0,4,4,0,0,1,1.17,1.79,8.76,8.76,0,0,1,0,5.17,4,4,0,0,1-1.17,1.8A2.91,2.91,0,0,1,58.73,46.49Zm0-1.13A1.76,1.76,0,0,0,60,44.88a3.05,3.05,0,0,0,.78-1.35,8.19,8.19,0,0,0,0-4.17A3,3,0,0,0,60,38a1.9,1.9,0,0,0-2.5,0,3,3,0,0,0-.79,1.35,8.19,8.19,0,0,0,0,4.17,3.06,3.06,0,0,0,.79,1.35A1.74,1.74,0,0,0,58.73,45.36Z"/><path class="cls-2" d="M59.64,10a.58.58,0,0,1-.43-.17.52.52,0,0,1-.17-.4v-8l.17.2-1.63,1a.64.64,0,0,1-.28.07.56.56,0,0,1-.41-.19.6.6,0,0,1-.16-.39A.55.55,0,0,1,57,1.65L59.3.29a.77.77,0,0,1,.42-.08.46.46,0,0,1,.38.16.61.61,0,0,1,.14.4V9.44a.56.56,0,0,1-.17.4A.58.58,0,0,1,59.64,10Z"/><path class="cls-2" d="M68.53,10.07a3.87,3.87,0,0,1-1.14-.18,3.07,3.07,0,0,1-1-.52.86.86,0,0,1-.18-.26.65.65,0,0,1-.07-.29.49.49,0,0,1,.15-.33.48.48,0,0,1,.38-.16.74.74,0,0,1,.42.18,2.58,2.58,0,0,0,.69.38,2.21,2.21,0,0,0,.75.14,2.68,2.68,0,0,0,1.32-.31,2.35,2.35,0,0,0,.9-.84,2.3,2.3,0,0,0,.33-1.22,2.14,2.14,0,0,0-.28-1.12,1.93,1.93,0,0,0-.8-.75,2.46,2.46,0,0,0-1.17-.27,2.42,2.42,0,0,0-.88.15,5.47,5.47,0,0,0-.67.3,1.09,1.09,0,0,1-.47.15A.7.7,0,0,1,66.37,5a.49.49,0,0,1-.2-.3.76.76,0,0,1,0-.33L66.7.66a.56.56,0,0,1,.19-.32.55.55,0,0,1,.38-.13h4.16a.5.5,0,0,1,.37.15A.51.51,0,0,1,72,.74a.49.49,0,0,1-.16.38.5.5,0,0,1-.37.15H67.55l.14-.12-.52,3.23L67,4.09a1.53,1.53,0,0,1,.47-.28,3.38,3.38,0,0,1,.72-.24,3.47,3.47,0,0,1,.85-.1,3.26,3.26,0,0,1,1.63.41,3.1,3.1,0,0,1,1.56,2.77A3.37,3.37,0,0,1,71.91,8a3.23,3.23,0,0,1-.77,1.09A3.36,3.36,0,0,1,70,9.81,4.06,4.06,0,0,1,68.53,10.07Z"/><path class="cls-2" d="M79,10a.54.54,0,0,1-.4-.17.55.55,0,0,1-.16-.4V1.78l.22.08L75.28,6.23l-.06-.17h5.12a.49.49,0,0,1,.38.16.47.47,0,0,1,.16.37.46.46,0,0,1-.16.36.52.52,0,0,1-.38.15H74.45a.53.53,0,0,1-.38-.17.51.51,0,0,1-.18-.39A.57.57,0,0,1,74,6.17L78.5.43a.51.51,0,0,1,.22-.17A.74.74,0,0,1,79,.21a.5.5,0,0,1,.39.16.54.54,0,0,1,.16.4V9.44a.55.55,0,0,1-.16.4A.54.54,0,0,1,79,10Z"/><path class="cls-2" d="M88.35,9a.52.52,0,0,1,.38.15.55.55,0,0,1,.16.38.51.51,0,0,1-.16.37.52.52,0,0,1-.38.15H83.27a.58.58,0,0,1-.41-.15.51.51,0,0,1-.16-.4.57.57,0,0,1,.16-.4L86,5.6a7.17,7.17,0,0,0,1-1.37A2.47,2.47,0,0,0,87.44,3a2,2,0,0,0-.24-1,1.7,1.7,0,0,0-.68-.65,2.19,2.19,0,0,0-1-.23,2.15,2.15,0,0,0-1.07.29,2,2,0,0,0-.81.91.58.58,0,0,1-.22.22.53.53,0,0,1-.24.06.64.64,0,0,1-.38-.14.45.45,0,0,1-.18-.35.52.52,0,0,1,.09-.29,2.47,2.47,0,0,1,.22-.29A2.87,2.87,0,0,1,84.07.45a3.21,3.21,0,0,1,1.5-.38A3.47,3.47,0,0,1,87.2.43a2.47,2.47,0,0,1,1,1,3,3,0,0,1,.36,1.48A3.24,3.24,0,0,1,88.4,4a4.72,4.72,0,0,1-.58,1.14,9.88,9.88,0,0,1-1,1.23L84.38,9.1,84.24,9Z"/><path class="cls-2" d="M97.13,0a3.18,3.18,0,0,1,1.41.3,3,3,0,0,1,1,.82,3.81,3.81,0,0,1,.62,1.16,4.3,4.3,0,0,1,.21,1.33A6.16,6.16,0,0,1,100.22,5a8,8,0,0,1-.46,1.49,7.55,7.55,0,0,1-.82,1.46,6.5,6.5,0,0,1-1.21,1.25,5.07,5.07,0,0,1-1.61.86.64.64,0,0,1-.22,0,.59.59,0,0,1-.4-.14.49.49,0,0,1-.18-.42.53.53,0,0,1,.13-.34A.75.75,0,0,1,95.79,9a4.7,4.7,0,0,0,1.44-.86,5.84,5.84,0,0,0,1.21-1.36,4.64,4.64,0,0,0,.68-1.67L99.45,5a3.17,3.17,0,0,1-.58.71,3.24,3.24,0,0,1-.85.54A2.65,2.65,0,0,1,97,6.43a2.62,2.62,0,0,1-1.15-.26,3.24,3.24,0,0,1-.94-.71,3.5,3.5,0,0,1-.64-1A3.33,3.33,0,0,1,94,3.22a3,3,0,0,1,.42-1.58A3.27,3.27,0,0,1,95.53.48,3,3,0,0,1,97.13,0Zm0,1.05a1.94,1.94,0,0,0-1,.27,2.1,2.1,0,0,0-.73.75,2.33,2.33,0,0,0-.26,1.11,2.42,2.42,0,0,0,.24,1.06,1.86,1.86,0,0,0,.68.79,1.92,1.92,0,0,0,1,.29,2.19,2.19,0,0,0,1.14-.29A2.05,2.05,0,0,0,99,4.28a2.37,2.37,0,0,0,.26-1.09,2.13,2.13,0,0,0-.25-1,2,2,0,0,0-.72-.76A2.06,2.06,0,0,0,97.14,1.09Z"/><path class="cls-2" d="M105,10.15a3.18,3.18,0,0,1-1.41-.3,2.88,2.88,0,0,1-1-.82,3.81,3.81,0,0,1-.62-1.16,4.25,4.25,0,0,1-.21-1.33,6.31,6.31,0,0,1,.16-1.35,8.78,8.78,0,0,1,.47-1.52,7.48,7.48,0,0,1,.81-1.49A6.65,6.65,0,0,1,104.37.9,4.9,4.9,0,0,1,106,0l.22,0a.7.7,0,0,1,.4.12.47.47,0,0,1,.18.43.53.53,0,0,1-.13.34.75.75,0,0,1-.34.22,4.52,4.52,0,0,0-1.09.6,5.91,5.91,0,0,0-1,.94,6.93,6.93,0,0,0-.78,1.16,4.81,4.81,0,0,0-.46,1.3l-.33.11a3.28,3.28,0,0,1,.6-.71A2.77,2.77,0,0,1,104.1,4a2.59,2.59,0,0,1,1.05-.21A2.5,2.5,0,0,1,106.3,4a3.24,3.24,0,0,1,.94.71,3.5,3.5,0,0,1,.64,1A3.33,3.33,0,0,1,108.11,7a3.09,3.09,0,0,1-.42,1.58,3.27,3.27,0,0,1-1.12,1.16A3,3,0,0,1,105,10.15Zm0-1.05a1.94,1.94,0,0,0,1-.27,2,2,0,0,0,.73-.76A2.32,2.32,0,0,0,107,7a2.36,2.36,0,0,0-.24-1.06,1.86,1.86,0,0,0-.68-.79,1.8,1.8,0,0,0-1-.3,2.1,2.1,0,0,0-1.14.29,2.05,2.05,0,0,0-.73.79,2.38,2.38,0,0,0-.26,1.1,2.19,2.19,0,0,0,.25,1,2.12,2.12,0,0,0,.72.77A2.15,2.15,0,0,0,105,9.1Z"/><path class="cls-2" d="M114,5.07l0-.2a2.86,2.86,0,0,1,.88.58,2.81,2.81,0,0,1,.63.83,2.3,2.3,0,0,1,.23,1,2.57,2.57,0,0,1-.41,1.4,3,3,0,0,1-1.12,1,3.35,3.35,0,0,1-1.58.38A3.28,3.28,0,0,1,111,9.7a2.93,2.93,0,0,1-1.11-1,2.49,2.49,0,0,1-.41-1.4,2.26,2.26,0,0,1,.25-1.1,2.93,2.93,0,0,1,.66-.81,3.52,3.52,0,0,1,.84-.54l-.07.23a2.57,2.57,0,0,1-.7-.46,2.35,2.35,0,0,1-.54-.73,2.13,2.13,0,0,1-.21-1,2.59,2.59,0,0,1,.38-1.37,2.63,2.63,0,0,1,1-1A3,3,0,0,1,112.6.21,2.9,2.9,0,0,1,114,.57a2.74,2.74,0,0,1,1,1,2.51,2.51,0,0,1,.39,1.37,2.11,2.11,0,0,1-.23,1,2.37,2.37,0,0,1-.55.72A3,3,0,0,1,114,5.07Zm-1.4,4a2.05,2.05,0,0,0,1.42-.5,1.63,1.63,0,0,0,.55-1.25,1.68,1.68,0,0,0-.26-.92,2,2,0,0,0-.72-.63,2.22,2.22,0,0,0-2,0,1.89,1.89,0,0,0-.71.63,1.61,1.61,0,0,0-.27.92,1.63,1.63,0,0,0,.55,1.25A2,2,0,0,0,112.6,9Zm-1.72-6.1a1.7,1.7,0,0,0,.23.88,1.56,1.56,0,0,0,.63.59,1.72,1.72,0,0,0,.86.22,1.67,1.67,0,0,0,.86-.22,1.65,1.65,0,0,0,.86-1.47,1.6,1.6,0,0,0-.48-1.2,1.87,1.87,0,0,0-2.48,0A1.6,1.6,0,0,0,110.88,2.93Z"/><path class="cls-2" d="M166.09,46.35a.6.6,0,0,1-.44-.17.54.54,0,0,1-.17-.4v-8l.17.2L164,39a.68.68,0,0,1-.28.07.55.55,0,0,1-.41-.19.61.61,0,0,1-.17-.39.56.56,0,0,1,.3-.49l2.28-1.36a.77.77,0,0,1,.42-.08.46.46,0,0,1,.38.16.61.61,0,0,1,.14.4v8.67a.54.54,0,0,1-.17.4A.6.6,0,0,1,166.09,46.35Z"/><path class="cls-2" d="M174.75,46.35a.6.6,0,0,1-.43-.17.54.54,0,0,1-.17-.4v-8l.17.2-1.63,1a.61.61,0,0,1-.28.07.54.54,0,0,1-.4-.19.61.61,0,0,1-.17-.39.57.57,0,0,1,.29-.49l2.29-1.36a.77.77,0,0,1,.42-.08.44.44,0,0,1,.37.16.56.56,0,0,1,.14.4v8.67a.54.54,0,0,1-.16.4A.62.62,0,0,1,174.75,46.35Z"/><path class="cls-2" d="M182,41.41l0-.2a2.86,2.86,0,0,1,.88.58,2.81,2.81,0,0,1,.63.83,2.3,2.3,0,0,1,.23,1,2.57,2.57,0,0,1-.41,1.4,3,3,0,0,1-1.12,1,3.35,3.35,0,0,1-1.58.38A3.28,3.28,0,0,1,179,46a3,3,0,0,1-1.11-1,2.49,2.49,0,0,1-.41-1.4,2.18,2.18,0,0,1,.26-1.1,2.73,2.73,0,0,1,.65-.81,3.86,3.86,0,0,1,.84-.54l-.07.23a2.35,2.35,0,0,1-.7-.46,2.43,2.43,0,0,1-.54-.72,2.21,2.21,0,0,1-.21-1,2.59,2.59,0,0,1,.38-1.37,2.7,2.7,0,0,1,1-1,3,3,0,0,1,1.44-.36,2.9,2.9,0,0,1,1.44.36,2.82,2.82,0,0,1,1,1,2.51,2.51,0,0,1,.39,1.37,2.11,2.11,0,0,1-.23,1,2.37,2.37,0,0,1-.55.72A2.71,2.71,0,0,1,182,41.41Zm-1.4,4a2.05,2.05,0,0,0,1.42-.5,1.72,1.72,0,0,0,.29-2.17,2,2,0,0,0-.72-.63,2.22,2.22,0,0,0-2,0,1.89,1.89,0,0,0-.71.63,1.7,1.7,0,0,0,.28,2.17A2,2,0,0,0,180.59,45.37Zm-1.72-6.1a1.7,1.7,0,0,0,.23.88,1.56,1.56,0,0,0,.63.59,1.72,1.72,0,0,0,.86.22,1.67,1.67,0,0,0,.86-.22,1.71,1.71,0,0,0,.38-2.67,1.87,1.87,0,0,0-2.48,0A1.6,1.6,0,0,0,178.87,39.27Z"/><path class="cls-2" d="M187.59,46.35a.58.58,0,0,1-.43-.17.51.51,0,0,1-.17-.4v-8l.17.2-1.63,1a.64.64,0,0,1-.28.07.53.53,0,0,1-.4-.19A.55.55,0,0,1,185,38l2.28-1.36a.81.81,0,0,1,.42-.08.46.46,0,0,1,.38.16.56.56,0,0,1,.14.4v8.67a.51.51,0,0,1-.17.4A.58.58,0,0,1,187.59,46.35Z"/><path class="cls-2" d="M198.68,41.41l0-.2a2.86,2.86,0,0,1,.88.58,2.78,2.78,0,0,1,.62.83,2.18,2.18,0,0,1,.24,1A2.5,2.5,0,0,1,200,45a3,3,0,0,1-1.12,1,3.43,3.43,0,0,1-3.14,0,2.93,2.93,0,0,1-1.11-1,2.5,2.5,0,0,1-.42-1.4,2.29,2.29,0,0,1,.26-1.1,2.93,2.93,0,0,1,.66-.81,3.8,3.8,0,0,1,.83-.54l-.07.23a2.56,2.56,0,0,1-1.23-1.18,2.21,2.21,0,0,1-.21-1,2.59,2.59,0,0,1,.38-1.37,2.7,2.7,0,0,1,1-1,3.06,3.06,0,0,1,2.88,0,2.82,2.82,0,0,1,1,1,2.5,2.5,0,0,1,.38,1.37,2.11,2.11,0,0,1-.22,1,2.37,2.37,0,0,1-.55.72A2.71,2.71,0,0,1,198.68,41.41Zm-1.4,4a2.05,2.05,0,0,0,1.42-.5,1.62,1.62,0,0,0,.55-1.25,1.7,1.7,0,0,0-.26-.92,2,2,0,0,0-.72-.63,2.19,2.19,0,0,0-1-.23,2.14,2.14,0,0,0-1,.23,2,2,0,0,0-.72.63,1.7,1.7,0,0,0-.26.92,1.62,1.62,0,0,0,.55,1.25A2,2,0,0,0,197.28,45.37Zm-1.72-6.1a1.61,1.61,0,0,0,.23.88,1.56,1.56,0,0,0,.63.59,1.79,1.79,0,0,0,1.72,0,1.67,1.67,0,0,0,.62-.59,1.74,1.74,0,0,0-.24-2.08,1.74,1.74,0,0,0-1.24-.47,1.71,1.71,0,0,0-1.24.47A1.6,1.6,0,0,0,195.56,39.27Z"/><path class="cls-2" d="M207.11,46.35a.53.53,0,0,1-.4-.17.54.54,0,0,1-.16-.4V38.12l.22.08-3.35,4.37,0-.17h5.12a.49.49,0,0,1,.38.16.51.51,0,0,1,.15.37.49.49,0,0,1-.15.36.52.52,0,0,1-.38.15H202.6a.57.57,0,0,1-.39-.17.54.54,0,0,1-.17-.39.52.52,0,0,1,.14-.37l4.46-5.74a.53.53,0,0,1,.23-.17.74.74,0,0,1,.25-.05.5.5,0,0,1,.39.16.58.58,0,0,1,.16.4v8.67a.58.58,0,0,1-.16.4A.56.56,0,0,1,207.11,46.35Z"/><path class="cls-2" d="M213,46.41a3.87,3.87,0,0,1-1.14-.18,2.9,2.9,0,0,1-1-.52.86.86,0,0,1-.18-.26.82.82,0,0,1-.07-.29.53.53,0,0,1,.53-.49.69.69,0,0,1,.42.18,2.58,2.58,0,0,0,.69.38,2.22,2.22,0,0,0,.76.14,2.67,2.67,0,0,0,1.31-.31,2.3,2.3,0,0,0,.91-.84,2.39,2.39,0,0,0,.32-1.22,2.17,2.17,0,0,0-.28-1.12,2,2,0,0,0-.8-.75,2.46,2.46,0,0,0-1.17-.27,2.42,2.42,0,0,0-.88.15,5.47,5.47,0,0,0-.67.3,1,1,0,0,1-.47.15.77.77,0,0,1-.42-.11.54.54,0,0,1-.2-.31.76.76,0,0,1,0-.33l.55-3.71a.56.56,0,0,1,.19-.32.55.55,0,0,1,.38-.13h4.16a.51.51,0,0,1,.53.53.52.52,0,0,1-.15.38.54.54,0,0,1-.38.15H212l.14-.12-.52,3.23-.22-.29a1.53,1.53,0,0,1,.47-.28,4,4,0,0,1,.72-.24,3.47,3.47,0,0,1,.85-.1,3.17,3.17,0,0,1,1.63.42,3.06,3.06,0,0,1,1.14,1.12,3.18,3.18,0,0,1,.42,1.64,3.42,3.42,0,0,1-.27,1.37,3.29,3.29,0,0,1-.77,1.08,3.36,3.36,0,0,1-1.16.71A4,4,0,0,1,213,46.41Z"/></g></g></svg>