<svg xmlns="http://www.w3.org/2000/svg" viewBox="0 0 300.13 46.49"><defs><style>.cls-1{fill:#1f8ebe;}.cls-2{fill:#363026;}</style></defs><g id="Layer_2" data-name="Layer 2"><g id="Layer_1-2" data-name="Layer 1"><path class="cls-1" d="M282,24H5.17c-.28,0-.51-.42-.51-.94s.23-.94.51-.94H282c.29,0,.52.42.52.94S282.28,24,282,24Z"/><polygon class="cls-1" points="11.46 30.77 12.74 29.39 5.94 23.07 12.74 16.74 11.46 15.36 3.17 23.07 11.46 30.77"/><polygon class="cls-1" points="275.8 30.77 274.52 29.39 281.32 23.07 274.52 16.74 275.8 15.36 284.09 23.07 275.8 30.77"/><path class="cls-1" d="M269.4,32.6a.94.94,0,0,1-.94-.94V14.59a.95.95,0,1,1,1.89,0V31.66A1,1,0,0,1,269.4,32.6Z"/><path class="cls-1" d="M194.21,32.6a.94.94,0,0,1-.94-.94V14.59a.94.94,0,1,1,1.88,0V31.66A.94.94,0,0,1,194.21,32.6Z"/><path class="cls-1" d="M21.88,32.6a.94.94,0,0,1-.95-.94V14.59a.95.95,0,1,1,1.89,0V31.66A.94.94,0,0,1,21.88,32.6Z"/><path class="cls-1" d="M83,32.6a.94.94,0,0,1-.94-.94V14.59a.94.94,0,1,1,1.88,0V31.66A.94.94,0,0,1,83,32.6Z"/><path class="cls-2" d="M241.73,46.35a.6.6,0,0,1-.43-.17.54.54,0,0,1-.17-.4v-8l.17.2-1.62,1a.68.68,0,0,1-.28.07.55.55,0,0,1-.41-.19.61.61,0,0,1-.17-.39.57.57,0,0,1,.29-.49l2.29-1.36a.77.77,0,0,1,.42-.08.44.44,0,0,1,.37.16.57.57,0,0,1,.15.4v8.67a.54.54,0,0,1-.17.4A.6.6,0,0,1,241.73,46.35Z"/><path class="cls-2" d="M250.05,46.39a.68.68,0,0,1-.41-.14.48.48,0,0,1-.18-.39.57.57,0,0,1,.06-.25l3.62-8.26.16.25h-4.51a.52.52,0,0,1-.38-.15.54.54,0,0,1-.15-.38.5.5,0,0,1,.15-.37.52.52,0,0,1,.38-.15h5.05a.57.57,0,0,1,.42.15.48.48,0,0,1,.16.38.63.63,0,0,1-.06.27L250.57,46a.49.49,0,0,1-.21.26A.56.56,0,0,1,250.05,46.39Z"/><path class="cls-2" d="M259.12,46.49a2.91,2.91,0,0,1-1.94-.66A4,4,0,0,1,256,44a8.55,8.55,0,0,1,0-5.17,4,4,0,0,1,1.17-1.79,3.18,3.18,0,0,1,3.88,0,4,4,0,0,1,1.17,1.79,8.76,8.76,0,0,1,0,5.17,4,4,0,0,1-1.17,1.8A2.89,2.89,0,0,1,259.12,46.49Zm0-1.13a1.74,1.74,0,0,0,1.25-.48,3.05,3.05,0,0,0,.78-1.35,8.19,8.19,0,0,0,0-4.17,3,3,0,0,0-.78-1.35,1.9,1.9,0,0,0-2.5,0,3.1,3.1,0,0,0-.79,1.35,8.19,8.19,0,0,0,0,4.17,3.16,3.16,0,0,0,.79,1.35A1.76,1.76,0,0,0,259.12,45.36Z"/><path class="cls-2" d="M267.53,46.49a2.86,2.86,0,0,1-1.93-.66,4.08,4.08,0,0,1-1.18-1.8,8.55,8.55,0,0,1,0-5.17,4,4,0,0,1,1.18-1.79,3.17,3.17,0,0,1,3.87,0,4,4,0,0,1,1.17,1.79,8.76,8.76,0,0,1,0,5.17,4,4,0,0,1-1.17,1.8A2.87,2.87,0,0,1,267.53,46.49Zm0-1.13a1.77,1.77,0,0,0,1.26-.48,3,3,0,0,0,.77-1.35,8.19,8.19,0,0,0,0-4.17,2.9,2.9,0,0,0-.77-1.35,1.91,1.91,0,0,0-2.51,0,3,3,0,0,0-.78,1.35,8.19,8.19,0,0,0,0,4.17,3.05,3.05,0,0,0,.78,1.35A1.76,1.76,0,0,0,267.53,45.36Z"/><path class="cls-2" d="M279.8,46.49a2.89,2.89,0,0,1-1.94-.66,4.08,4.08,0,0,1-1.18-1.8,8.55,8.55,0,0,1,0-5.17,4,4,0,0,1,1.18-1.79,3.18,3.18,0,0,1,3.88,0,4,4,0,0,1,1.17,1.79,8.76,8.76,0,0,1,0,5.17,4,4,0,0,1-1.17,1.8A2.91,2.91,0,0,1,279.8,46.49Zm0-1.13a1.76,1.76,0,0,0,1.25-.48,3.05,3.05,0,0,0,.78-1.35,8.49,8.49,0,0,0,0-4.17,3,3,0,0,0-.78-1.35,1.9,1.9,0,0,0-2.5,0,2.92,2.92,0,0,0-.79,1.35,8.19,8.19,0,0,0,0,4.17,3,3,0,0,0,.79,1.35A1.74,1.74,0,0,0,279.8,45.36Z"/><path class="cls-2" d="M288.21,46.49a2.91,2.91,0,0,1-1.94-.66A4.06,4.06,0,0,1,285.1,44a8.55,8.55,0,0,1,0-5.17,4,4,0,0,1,1.17-1.79,3.18,3.18,0,0,1,3.88,0,4,4,0,0,1,1.17,1.79,8.76,8.76,0,0,1,0,5.17,4,4,0,0,1-1.17,1.8A2.89,2.89,0,0,1,288.21,46.49Zm0-1.13a1.79,1.79,0,0,0,1.26-.48,3,3,0,0,0,.77-1.35,8.19,8.19,0,0,0,0-4.17,3,3,0,0,0-.77-1.35,1.82,1.82,0,0,0-1.26-.47A1.8,1.8,0,0,0,287,38a3,3,0,0,0-.78,1.35,7.9,7.9,0,0,0,0,4.17,3.05,3.05,0,0,0,.78,1.35A1.76,1.76,0,0,0,288.21,45.36Z"/><path class="cls-2" d="M296.63,46.49a2.89,2.89,0,0,1-1.94-.66,4.08,4.08,0,0,1-1.18-1.8,8.55,8.55,0,0,1,0-5.17,4,4,0,0,1,1.18-1.79,3.18,3.18,0,0,1,3.88,0,4,4,0,0,1,1.16,1.79,8.55,8.55,0,0,1,0,5.17,4,4,0,0,1-1.16,1.8A2.91,2.91,0,0,1,296.63,46.49Zm0-1.13a1.76,1.76,0,0,0,1.25-.48,3.05,3.05,0,0,0,.78-1.35,8.49,8.49,0,0,0,0-4.17,3,3,0,0,0-.78-1.35,1.91,1.91,0,0,0-2.51,0,3,3,0,0,0-.78,1.35,8.19,8.19,0,0,0,0,4.17,3.05,3.05,0,0,0,.78,1.35A1.77,1.77,0,0,0,296.63,45.36Z"/><path class="cls-2" d="M2.91,46.35a.58.58,0,0,1-.43-.17.54.54,0,0,1-.17-.4v-8l.17.2L.85,39a.61.61,0,0,1-.28.07.54.54,0,0,1-.4-.19A.61.61,0,0,1,0,38.48.57.57,0,0,1,.29,38l2.29-1.36A.77.77,0,0,1,3,36.55a.46.46,0,0,1,.37.16.56.56,0,0,1,.14.4v8.67a.54.54,0,0,1-.16.4A.62.62,0,0,1,2.91,46.35Z"/><path class="cls-2" d="M12.81,46.49a2.91,2.91,0,0,1-1.94-.66A4,4,0,0,1,9.7,44a8.55,8.55,0,0,1,0-5.17,4,4,0,0,1,1.17-1.79,2.91,2.91,0,0,1,1.94-.66,2.91,2.91,0,0,1,1.94.66,4,4,0,0,1,1.17,1.79,8.76,8.76,0,0,1,0,5.17,4,4,0,0,1-1.17,1.8A2.91,2.91,0,0,1,12.81,46.49Zm0-1.13a1.76,1.76,0,0,0,1.25-.48,3.05,3.05,0,0,0,.78-1.35,8.19,8.19,0,0,0,0-4.17A3,3,0,0,0,14.06,38a1.9,1.9,0,0,0-2.5,0,3.1,3.1,0,0,0-.79,1.35,8.19,8.19,0,0,0,0,4.17,3.16,3.16,0,0,0,.79,1.35A1.76,1.76,0,0,0,12.81,45.36Z"/><path class="cls-2" d="M21.22,46.49a2.91,2.91,0,0,1-1.94-.66A4.15,4.15,0,0,1,18.11,44a8.55,8.55,0,0,1,0-5.17,4.12,4.12,0,0,1,1.17-1.79,3.18,3.18,0,0,1,3.88,0,4,4,0,0,1,1.17,1.79,8.76,8.76,0,0,1,0,5.17,4,4,0,0,1-1.17,1.8A2.89,2.89,0,0,1,21.22,46.49Zm0-1.13a1.77,1.77,0,0,0,1.26-.48,3,3,0,0,0,.77-1.35,8.19,8.19,0,0,0,0-4.17A2.9,2.9,0,0,0,22.48,38,1.91,1.91,0,0,0,20,38a3,3,0,0,0-.78,1.35,7.9,7.9,0,0,0,0,4.17A3.05,3.05,0,0,0,20,44.88,1.76,1.76,0,0,0,21.22,45.36Z"/><path class="cls-2" d="M29.64,46.49a2.89,2.89,0,0,1-1.94-.66A4.08,4.08,0,0,1,26.52,44a8.55,8.55,0,0,1,0-5.17,4,4,0,0,1,1.18-1.79,3.18,3.18,0,0,1,3.88,0,4.12,4.12,0,0,1,1.17,1.79,8.76,8.76,0,0,1,0,5.17,4.15,4.15,0,0,1-1.17,1.8A2.91,2.91,0,0,1,29.64,46.49Zm0-1.13a1.76,1.76,0,0,0,1.25-.48,3.05,3.05,0,0,0,.78-1.35,8.49,8.49,0,0,0,0-4.17A3,3,0,0,0,30.89,38a1.8,1.8,0,0,0-1.25-.47,1.82,1.82,0,0,0-1.26.47,3,3,0,0,0-.78,1.35,8.19,8.19,0,0,0,0,4.17,3.05,3.05,0,0,0,.78,1.35A1.79,1.79,0,0,0,29.64,45.36Z"/><path class="cls-2" d="M41.9,46.49A2.91,2.91,0,0,1,40,45.83,4,4,0,0,1,38.79,44a8.55,8.55,0,0,1,0-5.17A4,4,0,0,1,40,37.07a3.18,3.18,0,0,1,3.88,0A4,4,0,0,1,45,38.86,8.76,8.76,0,0,1,45,44a4,4,0,0,1-1.17,1.8A2.89,2.89,0,0,1,41.9,46.49Zm0-1.13a1.74,1.74,0,0,0,1.25-.48,3,3,0,0,0,.78-1.35,8.19,8.19,0,0,0,0-4.17A2.91,2.91,0,0,0,43.15,38a1.9,1.9,0,0,0-2.5,0,3.1,3.1,0,0,0-.79,1.35,8.19,8.19,0,0,0,0,4.17,3.16,3.16,0,0,0,.79,1.35A1.76,1.76,0,0,0,41.9,45.36Z"/><path class="cls-2" d="M50.32,46.49a2.89,2.89,0,0,1-1.94-.66A4.08,4.08,0,0,1,47.2,44a8.55,8.55,0,0,1,0-5.17,4,4,0,0,1,1.18-1.79,3.17,3.17,0,0,1,3.87,0,4,4,0,0,1,1.17,1.79,8.55,8.55,0,0,1,0,5.17,4,4,0,0,1-1.17,1.8A2.86,2.86,0,0,1,50.32,46.49Zm0-1.13a1.76,1.76,0,0,0,1.25-.48,3.05,3.05,0,0,0,.78-1.35,8.49,8.49,0,0,0,0-4.17A3,3,0,0,0,51.57,38a1.91,1.91,0,0,0-2.51,0,3,3,0,0,0-.78,1.35,8.19,8.19,0,0,0,0,4.17,3.05,3.05,0,0,0,.78,1.35A1.77,1.77,0,0,0,50.32,45.36Z"/><path class="cls-2" d="M58.73,46.49a2.89,2.89,0,0,1-1.94-.66A4.08,4.08,0,0,1,55.61,44a8.76,8.76,0,0,1,0-5.17,4,4,0,0,1,1.18-1.79,3.18,3.18,0,0,1,3.88,0,4,4,0,0,1,1.17,1.79,8.76,8.76,0,0,1,0,5.17,4,4,0,0,1-1.17,1.8A2.91,2.91,0,0,1,58.73,46.49Zm0-1.13A1.76,1.76,0,0,0,60,44.88a3.05,3.05,0,0,0,.78-1.35,8.19,8.19,0,0,0,0-4.17A3,3,0,0,0,60,38a1.9,1.9,0,0,0-2.5,0,3,3,0,0,0-.79,1.35,8.19,8.19,0,0,0,0,4.17,3.06,3.06,0,0,0,.79,1.35A1.74,1.74,0,0,0,58.73,45.36Z"/><path class="cls-2" d="M59.64,10a.58.58,0,0,1-.43-.17.52.52,0,0,1-.17-.4v-8l.17.2-1.63,1a.64.64,0,0,1-.28.07.56.56,0,0,1-.41-.19.6.6,0,0,1-.16-.39A.55.55,0,0,1,57,1.65L59.3.29a.77.77,0,0,1,.42-.08.46.46,0,0,1,.38.16.61.61,0,0,1,.14.4V9.44a.56.56,0,0,1-.17.4A.58.58,0,0,1,59.64,10Z"/><path class="cls-2" d="M68.53,10.07a3.87,3.87,0,0,1-1.14-.18,3.07,3.07,0,0,1-1-.52.86.86,0,0,1-.18-.26.65.65,0,0,1-.07-.29.49.49,0,0,1,.15-.33.48.48,0,0,1,.38-.16.74.74,0,0,1,.42.18,2.58,2.58,0,0,0,.69.38,2.21,2.21,0,0,0,.75.14,2.68,2.68,0,0,0,1.32-.31,2.35,2.35,0,0,0,.9-.84,2.3,2.3,0,0,0,.33-1.22,2.14,2.14,0,0,0-.28-1.12,1.93,1.93,0,0,0-.8-.75,2.46,2.46,0,0,0-1.17-.27,2.42,2.42,0,0,0-.88.15,5.47,5.47,0,0,0-.67.3,1.09,1.09,0,0,1-.47.15A.7.7,0,0,1,66.37,5a.49.49,0,0,1-.2-.3.76.76,0,0,1,0-.33L66.7.66a.56.56,0,0,1,.19-.32.55.55,0,0,1,.38-.13h4.16a.5.5,0,0,1,.37.15A.51.51,0,0,1,72,.74a.49.49,0,0,1-.16.38.5.5,0,0,1-.37.15H67.55l.14-.12-.52,3.23L67,4.09a1.53,1.53,0,0,1,.47-.28,3.38,3.38,0,0,1,.72-.24,3.47,3.47,0,0,1,.85-.1,3.26,3.26,0,0,1,1.63.41,3.1,3.1,0,0,1,1.56,2.77A3.37,3.37,0,0,1,71.91,8a3.23,3.23,0,0,1-.77,1.09A3.36,3.36,0,0,1,70,9.81,4.06,4.06,0,0,1,68.53,10.07Z"/><path class="cls-2" d="M76.35,10.07a3.87,3.87,0,0,1-1.14-.18,3.12,3.12,0,0,1-1-.52A.61.61,0,0,1,74,9.11.65.65,0,0,1,74,8.82a.53.53,0,0,1,.14-.33.5.5,0,0,1,.39-.16.74.74,0,0,1,.42.18,2.38,2.38,0,0,0,.68.38,2.31,2.31,0,0,0,.76.14,2.71,2.71,0,0,0,1.32-.31,2.35,2.35,0,0,0,.9-.84,2.3,2.3,0,0,0,.33-1.22,2.15,2.15,0,0,0-.29-1.12,1.87,1.87,0,0,0-.8-.75,2.45,2.45,0,0,0-1.16-.27,2.48,2.48,0,0,0-.89.15,6.26,6.26,0,0,0-.67.3,1.05,1.05,0,0,1-.46.15A.66.66,0,0,1,74.2,5a.49.49,0,0,1-.2-.3.77.77,0,0,1,0-.33L74.52.66a.58.58,0,0,1,.2-.32.54.54,0,0,1,.37-.13h4.16a.52.52,0,0,1,.38.15.55.55,0,0,1,.16.38.53.53,0,0,1-.16.38.52.52,0,0,1-.38.15H75.38l.13-.12L75,4.38l-.23-.29a1.66,1.66,0,0,1,.47-.28A3.29,3.29,0,0,1,76,3.57a3.41,3.41,0,0,1,.85-.1,3.29,3.29,0,0,1,1.63.41A3.1,3.1,0,0,1,80,6.65,3.27,3.27,0,0,1,79,9.1a3.4,3.4,0,0,1-1.17.71A4,4,0,0,1,76.35,10.07Z"/><path class="cls-2" d="M86.78,10a.52.52,0,0,1-.39-.17.56.56,0,0,1-.17-.4V1.78l.23.08L83.1,6.23l0-.17h5.12a.49.49,0,0,1,.38.16.5.5,0,0,1,.15.37.49.49,0,0,1-.15.36.52.52,0,0,1-.38.15H82.28a.57.57,0,0,1-.39-.17.5.5,0,0,1-.17-.39.52.52,0,0,1,.14-.37L86.32.43a.53.53,0,0,1,.23-.17A.74.74,0,0,1,86.8.21a.5.5,0,0,1,.39.16.57.57,0,0,1,.15.4V9.44a.55.55,0,0,1-.16.4A.53.53,0,0,1,86.78,10Z"/><path class="cls-2" d="M94.61,8.39l.19,0a.56.56,0,0,1,.23.15,2.2,2.2,0,0,0,.66.4,2.14,2.14,0,0,0,.87.16A2.19,2.19,0,0,0,98.8,6.92a2,2,0,0,0-.32-1.17,1.88,1.88,0,0,0-.8-.68,2.5,2.5,0,0,0-1-.21,2.22,2.22,0,0,0-.37,0A1.55,1.55,0,0,0,96,5a1.47,1.47,0,0,1-.27,0,.41.41,0,0,1-.35-.16.52.52,0,0,1-.13-.37.61.61,0,0,1,0-.24A.85.85,0,0,1,95.42,4l2.75-3,.22.27h-4A.5.5,0,0,1,94,1.11a.51.51,0,0,1-.16-.38A.46.46,0,0,1,94,.36a.5.5,0,0,1,.37-.15H99a.58.58,0,0,1,.45.17.64.64,0,0,1,.14.39.46.46,0,0,1-.06.23,1,1,0,0,1-.15.2l-2.73,3L96.3,4a.85.85,0,0,1,.33-.1,1.75,1.75,0,0,1,.42,0,2.77,2.77,0,0,1,1.44.38,2.74,2.74,0,0,1,1.05,1.06,3.19,3.19,0,0,1,.39,1.6,3.24,3.24,0,0,1-.46,1.75A3.12,3.12,0,0,1,98.2,9.74a4,4,0,0,1-1.81.41,3.43,3.43,0,0,1-1.1-.18,2.47,2.47,0,0,1-.93-.51.61.61,0,0,1-.25-.22A.57.57,0,0,1,94.05,9a.63.63,0,0,1,.16-.41A.5.5,0,0,1,94.61,8.39Z"/><path class="cls-2" d="M106.43,10a.54.54,0,0,1-.4-.17.55.55,0,0,1-.16-.4V1.78l.22.08-3.35,4.37,0-.17h5.12a.49.49,0,0,1,.38.16.5.5,0,0,1,.15.37.49.49,0,0,1-.15.36.52.52,0,0,1-.38.15h-5.89a.57.57,0,0,1-.39-.17.54.54,0,0,1-.17-.39.52.52,0,0,1,.14-.37L106,.43a.46.46,0,0,1,.22-.17.74.74,0,0,1,.25-.05.5.5,0,0,1,.39.16.58.58,0,0,1,.16.4V9.44a.59.59,0,0,1-.16.4A.54.54,0,0,1,106.43,10Z"/><path class="cls-2" d="M113.06,10.15a3.1,3.1,0,0,1-1.4-.3,2.83,2.83,0,0,1-1-.82A3.81,3.81,0,0,1,110,7.87a4.57,4.57,0,0,1-.21-1.33A7,7,0,0,1,110,5.19a8.78,8.78,0,0,1,.47-1.52,7.53,7.53,0,0,1,.82-1.49A6.3,6.3,0,0,1,112.46.9,5,5,0,0,1,114.07,0l.23,0a.67.67,0,0,1,.39.12.47.47,0,0,1,.18.43.48.48,0,0,1-.13.34.71.71,0,0,1-.33.22,4.57,4.57,0,0,0-1.1.6,6.31,6.31,0,0,0-1,.94,6.93,6.93,0,0,0-.78,1.16,4.81,4.81,0,0,0-.46,1.3l-.33.11a3.59,3.59,0,0,1,.6-.71,2.89,2.89,0,0,1,.85-.55,2.59,2.59,0,0,1,1-.21,2.5,2.5,0,0,1,1.15.27,3.11,3.11,0,0,1,.94.71,3.5,3.5,0,0,1,.64,1A3.33,3.33,0,0,1,116.2,7a3.18,3.18,0,0,1-.41,1.58,3.36,3.36,0,0,1-1.12,1.16A3,3,0,0,1,113.06,10.15Zm0-1.05a2,2,0,0,0,1-.27,2.1,2.1,0,0,0,.72-.76,2.21,2.21,0,0,0,.26-1.1,2.49,2.49,0,0,0-.23-1.06,2,2,0,0,0-.68-.79,1.86,1.86,0,0,0-1.06-.3,2,2,0,0,0-1.13.29,2,2,0,0,0-.74.79A2.38,2.38,0,0,0,111,7a2.2,2.2,0,0,0,.26,1,2,2,0,0,0,.72.77A2.08,2.08,0,0,0,113.05,9.1Z"/><path class="cls-2" d="M166.09,46.35a.6.6,0,0,1-.44-.17.54.54,0,0,1-.17-.4v-8l.17.2L164,39a.68.68,0,0,1-.28.07.55.55,0,0,1-.41-.19.61.61,0,0,1-.17-.39.56.56,0,0,1,.3-.49l2.28-1.36a.77.77,0,0,1,.42-.08.46.46,0,0,1,.38.16.61.61,0,0,1,.14.4v8.67a.54.54,0,0,1-.17.4A.6.6,0,0,1,166.09,46.35Z"/><path class="cls-2" d="M174.75,46.35a.6.6,0,0,1-.43-.17.54.54,0,0,1-.17-.4v-8l.17.2-1.63,1a.61.61,0,0,1-.28.07.54.54,0,0,1-.4-.19.61.61,0,0,1-.17-.39.57.57,0,0,1,.29-.49l2.29-1.36a.77.77,0,0,1,.42-.08.44.44,0,0,1,.37.16.56.56,0,0,1,.14.4v8.67a.54.54,0,0,1-.16.4A.62.62,0,0,1,174.75,46.35Z"/><path class="cls-2" d="M177.87,44.73l.19,0a.69.69,0,0,1,.23.15,2.2,2.2,0,0,0,.66.4,2.14,2.14,0,0,0,.87.16,2.2,2.2,0,0,0,1.93-1,2.14,2.14,0,0,0,.31-1.16,2,2,0,0,0-.31-1.17,1.84,1.84,0,0,0-.8-.67,2.37,2.37,0,0,0-1-.22,2,2,0,0,0-.36,0l-.32.07a1.36,1.36,0,0,1-.27,0,.41.41,0,0,1-.35-.16.57.57,0,0,1-.13-.37.56.56,0,0,1,.05-.23.48.48,0,0,1,.14-.22l2.74-3,.22.27h-4a.52.52,0,0,1-.38-.15.54.54,0,0,1-.15-.38.48.48,0,0,1,.15-.37.52.52,0,0,1,.38-.15h4.56a.53.53,0,0,1,.45.18.59.59,0,0,1,.14.38.46.46,0,0,1-.06.23.55.55,0,0,1-.15.2l-2.73,3-.32-.28a1,1,0,0,1,.32-.1,2.6,2.6,0,0,1,.42-.05,2.77,2.77,0,0,1,1.44.38,2.74,2.74,0,0,1,1.05,1.06,3.19,3.19,0,0,1,.39,1.6,3.24,3.24,0,0,1-.46,1.75,3.16,3.16,0,0,1-1.26,1.14,4,4,0,0,1-1.82.41,3.77,3.77,0,0,1-1.1-.17,2.64,2.64,0,0,1-.93-.52.52.52,0,0,1-.24-.22.59.59,0,0,1-.07-.25.64.64,0,0,1,.17-.41A.48.48,0,0,1,177.87,44.73Z"/><path class="cls-2" d="M189.69,46.35a.54.54,0,0,1-.4-.17.54.54,0,0,1-.16-.4V38.12l.22.08L186,42.57,186,42.4h5.13a.47.47,0,0,1,.37.16.49.49,0,0,1,.16.37.46.46,0,0,1-.16.36.5.5,0,0,1-.37.15h-5.9a.53.53,0,0,1-.38-.17.51.51,0,0,1-.18-.39.57.57,0,0,1,.14-.37l4.47-5.74a.51.51,0,0,1,.22-.17.79.79,0,0,1,.25-.05.54.54,0,0,1,.4.16.57.57,0,0,1,.15.4v8.67a.54.54,0,0,1-.16.4A.54.54,0,0,1,189.69,46.35Z"/><path class="cls-2" d="M197.52,44.73l.19,0a1,1,0,0,1,.23.15,2,2,0,0,0,.65.4,2.21,2.21,0,0,0,.87.16,2.2,2.2,0,0,0,1.93-1,2.14,2.14,0,0,0,.31-1.16,2,2,0,0,0-.31-1.17,1.84,1.84,0,0,0-.8-.67,2.37,2.37,0,0,0-1-.22,2,2,0,0,0-.36,0l-.32.07a1.26,1.26,0,0,1-.27,0,.42.42,0,0,1-.35-.16.57.57,0,0,1-.12-.37.56.56,0,0,1,0-.23.59.59,0,0,1,.14-.22l2.74-3,.23.27h-4a.52.52,0,0,1-.38-.15.54.54,0,0,1-.15-.38.48.48,0,0,1,.15-.37.52.52,0,0,1,.38-.15h4.56a.53.53,0,0,1,.45.18.54.54,0,0,1,.14.38.59.59,0,0,1-.05.23.74.74,0,0,1-.16.2l-2.73,3-.32-.28a1,1,0,0,1,.32-.1,2.6,2.6,0,0,1,.42-.05,2.83,2.83,0,0,1,2.49,1.44,3.09,3.09,0,0,1,.4,1.6,3.25,3.25,0,0,1-.47,1.75,3.09,3.09,0,0,1-1.26,1.14,4,4,0,0,1-1.82.41,3.77,3.77,0,0,1-1.1-.17,2.83,2.83,0,0,1-.93-.52.52.52,0,0,1-.24-.22.57.57,0,0,1-.06-.25.63.63,0,0,1,.16-.41A.48.48,0,0,1,197.52,44.73Z"/><path class="cls-2" d="M207.47,46.49a3.18,3.18,0,0,1-1.41-.3,2.88,2.88,0,0,1-1-.82,3.7,3.7,0,0,1-.62-1.16,4.25,4.25,0,0,1-.21-1.33,6.31,6.31,0,0,1,.16-1.35,9.26,9.26,0,0,1,.46-1.51,7.85,7.85,0,0,1,.82-1.5,6.65,6.65,0,0,1,1.21-1.28,5.09,5.09,0,0,1,1.61-.87l.22,0a.7.7,0,0,1,.4.12.47.47,0,0,1,.18.43.53.53,0,0,1-.13.34.75.75,0,0,1-.34.22,4.24,4.24,0,0,0-1.09.61,5.47,5.47,0,0,0-1,.93,6.62,6.62,0,0,0-.78,1.17,4.63,4.63,0,0,0-.46,1.29l-.33.11a3.28,3.28,0,0,1,.6-.71,2.84,2.84,0,0,1,.84-.55,2.67,2.67,0,0,1,1.06-.21,2.5,2.5,0,0,1,1.15.27,3.24,3.24,0,0,1,.94.71,3.5,3.5,0,0,1,.64,1,3.33,3.33,0,0,1,.23,1.21,3.09,3.09,0,0,1-.42,1.58,3.27,3.27,0,0,1-1.12,1.16A3,3,0,0,1,207.47,46.49Zm0-1.05a1.94,1.94,0,0,0,1-.27,2,2,0,0,0,.73-.76,2.32,2.32,0,0,0,.26-1.1,2.39,2.39,0,0,0-.24-1.06,1.86,1.86,0,0,0-.68-.79,1.8,1.8,0,0,0-1.05-.3,2.1,2.1,0,0,0-1.14.29,2.05,2.05,0,0,0-.73.79,2.38,2.38,0,0,0-.26,1.1,2.19,2.19,0,0,0,.25,1,2.12,2.12,0,0,0,.72.77A2.15,2.15,0,0,0,207.46,45.44Z"/><path class="cls-2" d="M213.73,46.39a.68.68,0,0,1-.41-.14.48.48,0,0,1-.18-.39.57.57,0,0,1,.06-.25l3.62-8.26.16.25h-4.51a.52.52,0,0,1-.38-.15.54.54,0,0,1-.15-.38.48.48,0,0,1,.15-.37.52.52,0,0,1,.38-.15h5.05a.57.57,0,0,1,.42.15.5.5,0,0,1,.16.38.63.63,0,0,1-.06.27L214.25,46a.49.49,0,0,1-.21.26A.59.59,0,0,1,213.73,46.39Z"/></g></g></svg>