<svg xmlns="http://www.w3.org/2000/svg" viewBox="0 0 300.13 46.49"><defs><style>.cls-1{fill:#1f8ebe;}.cls-2{fill:#363026;}</style></defs><g id="Layer_2" data-name="Layer 2"><g id="Layer_1-2" data-name="Layer 1"><path class="cls-1" d="M282,24H5.17c-.28,0-.51-.42-.51-.94s.23-.94.51-.94H282c.29,0,.52.42.52.94S282.28,24,282,24Z"/><polygon class="cls-1" points="11.46 30.77 12.74 29.39 5.94 23.07 12.74 16.74 11.46 15.36 3.17 23.07 11.46 30.77"/><polygon class="cls-1" points="275.8 30.77 274.52 29.39 281.32 23.07 274.52 16.74 275.8 15.36 284.09 23.07 275.8 30.77"/><path class="cls-1" d="M269.4,32.6a.94.94,0,0,1-.94-.94V14.59a.95.95,0,1,1,1.89,0V31.66A1,1,0,0,1,269.4,32.6Z"/><path class="cls-1" d="M194.21,32.6a.94.94,0,0,1-.94-.94V14.59a.94.94,0,1,1,1.88,0V31.66A.94.94,0,0,1,194.21,32.6Z"/><path class="cls-1" d="M21.88,32.6a.94.94,0,0,1-.95-.94V14.59a.95.95,0,1,1,1.89,0V31.66A.94.94,0,0,1,21.88,32.6Z"/><path class="cls-1" d="M83,32.6a.94.94,0,0,1-.94-.94V14.59a.94.94,0,1,1,1.88,0V31.66A.94.94,0,0,1,83,32.6Z"/><path class="cls-2" d="M241.73,46.35a.6.6,0,0,1-.43-.17.54.54,0,0,1-.17-.4v-8l.17.2-1.62,1a.68.68,0,0,1-.28.07.55.55,0,0,1-.41-.19.61.61,0,0,1-.17-.39.57.57,0,0,1,.29-.49l2.29-1.36a.77.77,0,0,1,.42-.08.44.44,0,0,1,.37.16.57.57,0,0,1,.15.4v8.67a.54.54,0,0,1-.17.4A.6.6,0,0,1,241.73,46.35Z"/><path class="cls-2" d="M250.05,46.39a.68.68,0,0,1-.41-.14.48.48,0,0,1-.18-.39.57.57,0,0,1,.06-.25l3.62-8.26.16.25h-4.51a.52.52,0,0,1-.38-.15.54.54,0,0,1-.15-.38.5.5,0,0,1,.15-.37.52.52,0,0,1,.38-.15h5.05a.57.57,0,0,1,.42.15.48.48,0,0,1,.16.38.63.63,0,0,1-.06.27L250.57,46a.49.49,0,0,1-.21.26A.56.56,0,0,1,250.05,46.39Z"/><path class="cls-2" d="M259.12,46.49a2.91,2.91,0,0,1-1.94-.66A4,4,0,0,1,256,44a8.55,8.55,0,0,1,0-5.17,4,4,0,0,1,1.17-1.79,3.18,3.18,0,0,1,3.88,0,4,4,0,0,1,1.17,1.79,8.76,8.76,0,0,1,0,5.17,4,4,0,0,1-1.17,1.8A2.89,2.89,0,0,1,259.12,46.49Zm0-1.13a1.74,1.74,0,0,0,1.25-.48,3.05,3.05,0,0,0,.78-1.35,8.19,8.19,0,0,0,0-4.17,3,3,0,0,0-.78-1.35,1.9,1.9,0,0,0-2.5,0,3.1,3.1,0,0,0-.79,1.35,8.19,8.19,0,0,0,0,4.17,3.16,3.16,0,0,0,.79,1.35A1.76,1.76,0,0,0,259.12,45.36Z"/><path class="cls-2" d="M267.53,46.49a2.86,2.86,0,0,1-1.93-.66,4.08,4.08,0,0,1-1.18-1.8,8.55,8.55,0,0,1,0-5.17,4,4,0,0,1,1.18-1.79,3.17,3.17,0,0,1,3.87,0,4,4,0,0,1,1.17,1.79,8.76,8.76,0,0,1,0,5.17,4,4,0,0,1-1.17,1.8A2.87,2.87,0,0,1,267.53,46.49Zm0-1.13a1.77,1.77,0,0,0,1.26-.48,3,3,0,0,0,.77-1.35,8.19,8.19,0,0,0,0-4.17,2.9,2.9,0,0,0-.77-1.35,1.91,1.91,0,0,0-2.51,0,3,3,0,0,0-.78,1.35,8.19,8.19,0,0,0,0,4.17,3.05,3.05,0,0,0,.78,1.35A1.76,1.76,0,0,0,267.53,45.36Z"/><path class="cls-2" d="M279.8,46.49a2.89,2.89,0,0,1-1.94-.66,4.08,4.08,0,0,1-1.18-1.8,8.55,8.55,0,0,1,0-5.17,4,4,0,0,1,1.18-1.79,3.18,3.18,0,0,1,3.88,0,4,4,0,0,1,1.17,1.79,8.76,8.76,0,0,1,0,5.17,4,4,0,0,1-1.17,1.8A2.91,2.91,0,0,1,279.8,46.49Zm0-1.13a1.76,1.76,0,0,0,1.25-.48,3.05,3.05,0,0,0,.78-1.35,8.49,8.49,0,0,0,0-4.17,3,3,0,0,0-.78-1.35,1.9,1.9,0,0,0-2.5,0,2.92,2.92,0,0,0-.79,1.35,8.19,8.19,0,0,0,0,4.17,3,3,0,0,0,.79,1.35A1.74,1.74,0,0,0,279.8,45.36Z"/><path class="cls-2" d="M288.21,46.49a2.91,2.91,0,0,1-1.94-.66A4.06,4.06,0,0,1,285.1,44a8.55,8.55,0,0,1,0-5.17,4,4,0,0,1,1.17-1.79,3.18,3.18,0,0,1,3.88,0,4,4,0,0,1,1.17,1.79,8.76,8.76,0,0,1,0,5.17,4,4,0,0,1-1.17,1.8A2.89,2.89,0,0,1,288.21,46.49Zm0-1.13a1.79,1.79,0,0,0,1.26-.48,3,3,0,0,0,.77-1.35,8.19,8.19,0,0,0,0-4.17,3,3,0,0,0-.77-1.35,1.82,1.82,0,0,0-1.26-.47A1.8,1.8,0,0,0,287,38a3,3,0,0,0-.78,1.35,7.9,7.9,0,0,0,0,4.17,3.05,3.05,0,0,0,.78,1.35A1.76,1.76,0,0,0,288.21,45.36Z"/><path class="cls-2" d="M296.63,46.49a2.89,2.89,0,0,1-1.94-.66,4.08,4.08,0,0,1-1.18-1.8,8.55,8.55,0,0,1,0-5.17,4,4,0,0,1,1.18-1.79,3.18,3.18,0,0,1,3.88,0,4,4,0,0,1,1.16,1.79,8.55,8.55,0,0,1,0,5.17,4,4,0,0,1-1.16,1.8A2.91,2.91,0,0,1,296.63,46.49Zm0-1.13a1.76,1.76,0,0,0,1.25-.48,3.05,3.05,0,0,0,.78-1.35,8.49,8.49,0,0,0,0-4.17,3,3,0,0,0-.78-1.35,1.91,1.91,0,0,0-2.51,0,3,3,0,0,0-.78,1.35,8.19,8.19,0,0,0,0,4.17,3.05,3.05,0,0,0,.78,1.35A1.77,1.77,0,0,0,296.63,45.36Z"/><path class="cls-2" d="M2.91,46.35a.58.58,0,0,1-.43-.17.54.54,0,0,1-.17-.4v-8l.17.2L.85,39a.61.61,0,0,1-.28.07.54.54,0,0,1-.4-.19A.61.61,0,0,1,0,38.48.57.57,0,0,1,.29,38l2.29-1.36A.77.77,0,0,1,3,36.55a.46.46,0,0,1,.37.16.56.56,0,0,1,.14.4v8.67a.54.54,0,0,1-.16.4A.62.62,0,0,1,2.91,46.35Z"/><path class="cls-2" d="M12.81,46.49a2.91,2.91,0,0,1-1.94-.66A4,4,0,0,1,9.7,44a8.55,8.55,0,0,1,0-5.17,4,4,0,0,1,1.17-1.79,2.91,2.91,0,0,1,1.94-.66,2.91,2.91,0,0,1,1.94.66,4,4,0,0,1,1.17,1.79,8.76,8.76,0,0,1,0,5.17,4,4,0,0,1-1.17,1.8A2.91,2.91,0,0,1,12.81,46.49Zm0-1.13a1.76,1.76,0,0,0,1.25-.48,3.05,3.05,0,0,0,.78-1.35,8.19,8.19,0,0,0,0-4.17A3,3,0,0,0,14.06,38a1.9,1.9,0,0,0-2.5,0,3.1,3.1,0,0,0-.79,1.35,8.19,8.19,0,0,0,0,4.17,3.16,3.16,0,0,0,.79,1.35A1.76,1.76,0,0,0,12.81,45.36Z"/><path class="cls-2" d="M21.22,46.49a2.91,2.91,0,0,1-1.94-.66A4.15,4.15,0,0,1,18.11,44a8.55,8.55,0,0,1,0-5.17,4.12,4.12,0,0,1,1.17-1.79,3.18,3.18,0,0,1,3.88,0,4,4,0,0,1,1.17,1.79,8.76,8.76,0,0,1,0,5.17,4,4,0,0,1-1.17,1.8A2.89,2.89,0,0,1,21.22,46.49Zm0-1.13a1.77,1.77,0,0,0,1.26-.48,3,3,0,0,0,.77-1.35,8.19,8.19,0,0,0,0-4.17A2.9,2.9,0,0,0,22.48,38,1.91,1.91,0,0,0,20,38a3,3,0,0,0-.78,1.35,7.9,7.9,0,0,0,0,4.17A3.05,3.05,0,0,0,20,44.88,1.76,1.76,0,0,0,21.22,45.36Z"/><path class="cls-2" d="M29.64,46.49a2.89,2.89,0,0,1-1.94-.66A4.08,4.08,0,0,1,26.52,44a8.55,8.55,0,0,1,0-5.17,4,4,0,0,1,1.18-1.79,3.18,3.18,0,0,1,3.88,0,4.12,4.12,0,0,1,1.17,1.79,8.76,8.76,0,0,1,0,5.17,4.15,4.15,0,0,1-1.17,1.8A2.91,2.91,0,0,1,29.64,46.49Zm0-1.13a1.76,1.76,0,0,0,1.25-.48,3.05,3.05,0,0,0,.78-1.35,8.49,8.49,0,0,0,0-4.17A3,3,0,0,0,30.89,38a1.8,1.8,0,0,0-1.25-.47,1.82,1.82,0,0,0-1.26.47,3,3,0,0,0-.78,1.35,8.19,8.19,0,0,0,0,4.17,3.05,3.05,0,0,0,.78,1.35A1.79,1.79,0,0,0,29.64,45.36Z"/><path class="cls-2" d="M41.9,46.49A2.91,2.91,0,0,1,40,45.83,4,4,0,0,1,38.79,44a8.55,8.55,0,0,1,0-5.17A4,4,0,0,1,40,37.07a3.18,3.18,0,0,1,3.88,0A4,4,0,0,1,45,38.86,8.76,8.76,0,0,1,45,44a4,4,0,0,1-1.17,1.8A2.89,2.89,0,0,1,41.9,46.49Zm0-1.13a1.74,1.74,0,0,0,1.25-.48,3,3,0,0,0,.78-1.35,8.19,8.19,0,0,0,0-4.17A2.91,2.91,0,0,0,43.15,38a1.9,1.9,0,0,0-2.5,0,3.1,3.1,0,0,0-.79,1.35,8.19,8.19,0,0,0,0,4.17,3.16,3.16,0,0,0,.79,1.35A1.76,1.76,0,0,0,41.9,45.36Z"/><path class="cls-2" d="M50.32,46.49a2.89,2.89,0,0,1-1.94-.66A4.08,4.08,0,0,1,47.2,44a8.55,8.55,0,0,1,0-5.17,4,4,0,0,1,1.18-1.79,3.17,3.17,0,0,1,3.87,0,4,4,0,0,1,1.17,1.79,8.55,8.55,0,0,1,0,5.17,4,4,0,0,1-1.17,1.8A2.86,2.86,0,0,1,50.32,46.49Zm0-1.13a1.76,1.76,0,0,0,1.25-.48,3.05,3.05,0,0,0,.78-1.35,8.49,8.49,0,0,0,0-4.17A3,3,0,0,0,51.57,38a1.91,1.91,0,0,0-2.51,0,3,3,0,0,0-.78,1.35,8.19,8.19,0,0,0,0,4.17,3.05,3.05,0,0,0,.78,1.35A1.77,1.77,0,0,0,50.32,45.36Z"/><path class="cls-2" d="M58.73,46.49a2.89,2.89,0,0,1-1.94-.66A4.08,4.08,0,0,1,55.61,44a8.76,8.76,0,0,1,0-5.17,4,4,0,0,1,1.18-1.79,3.18,3.18,0,0,1,3.88,0,4,4,0,0,1,1.17,1.79,8.76,8.76,0,0,1,0,5.17,4,4,0,0,1-1.17,1.8A2.91,2.91,0,0,1,58.73,46.49Zm0-1.13A1.76,1.76,0,0,0,60,44.88a3.05,3.05,0,0,0,.78-1.35,8.19,8.19,0,0,0,0-4.17A3,3,0,0,0,60,38a1.9,1.9,0,0,0-2.5,0,3,3,0,0,0-.79,1.35,8.19,8.19,0,0,0,0,4.17,3.06,3.06,0,0,0,.79,1.35A1.74,1.74,0,0,0,58.73,45.36Z"/><path class="cls-2" d="M59.64,10a.58.58,0,0,1-.43-.17.52.52,0,0,1-.17-.4v-8l.17.2-1.63,1a.64.64,0,0,1-.28.07.56.56,0,0,1-.41-.19.6.6,0,0,1-.16-.39A.57.57,0,0,1,57,1.65L59.3.29a.79.79,0,0,1,.42-.08.46.46,0,0,1,.38.16.61.61,0,0,1,.14.4V9.44a.56.56,0,0,1-.17.4A.58.58,0,0,1,59.64,10Z"/><path class="cls-2" d="M68.3,10a.6.6,0,0,1-.43-.17.56.56,0,0,1-.17-.4v-8l.17.2-1.62,1a.68.68,0,0,1-.28.07.55.55,0,0,1-.41-.19.61.61,0,0,1-.17-.39.56.56,0,0,1,.3-.49L68,.29a.77.77,0,0,1,.42-.08.48.48,0,0,1,.38.16.61.61,0,0,1,.14.4V9.44a.56.56,0,0,1-.17.4A.6.6,0,0,1,68.3,10Z"/><path class="cls-2" d="M71.43,8.39l.19,0a.63.63,0,0,1,.23.15,2,2,0,0,0,.65.4,2.21,2.21,0,0,0,.87.16A2.26,2.26,0,0,0,75.3,8.08a2.17,2.17,0,0,0,.31-1.16,2,2,0,0,0-.31-1.17,1.94,1.94,0,0,0-.8-.68,2.5,2.5,0,0,0-1-.21,2.05,2.05,0,0,0-.37,0,1.41,1.41,0,0,0-.31.07,1.45,1.45,0,0,1-.28,0,.42.42,0,0,1-.35-.16.57.57,0,0,1-.12-.37.61.61,0,0,1,0-.24A.64.64,0,0,1,72.24,4L75,1l.23.27h-4a.54.54,0,0,1-.38-.15A.54.54,0,0,1,70.7.73a.48.48,0,0,1,.15-.37.54.54,0,0,1,.38-.15h4.56a.55.55,0,0,1,.45.17.59.59,0,0,1,.14.39.59.59,0,0,1,0,.23.74.74,0,0,1-.16.2l-2.73,3L73.12,4a.85.85,0,0,1,.32-.1,1.81,1.81,0,0,1,.42,0,2.83,2.83,0,0,1,2.49,1.44,3.09,3.09,0,0,1,.4,1.6,3.33,3.33,0,0,1-.46,1.75A3.18,3.18,0,0,1,75,9.74a4,4,0,0,1-1.81.41,3.38,3.38,0,0,1-1.1-.18,2.6,2.6,0,0,1-.94-.51.52.52,0,0,1-.24-.22A.57.57,0,0,1,70.87,9,.63.63,0,0,1,71,8.58.48.48,0,0,1,71.43,8.39Z"/><path class="cls-2" d="M83.24,10a.54.54,0,0,1-.4-.17.59.59,0,0,1-.16-.4V1.78l.23.08L79.56,6.23l-.06-.17h5.13a.51.51,0,0,1,.38.16.5.5,0,0,1,.15.37A.49.49,0,0,1,85,7a.54.54,0,0,1-.38.15h-5.9a.55.55,0,0,1-.38-.17.51.51,0,0,1-.18-.39.57.57,0,0,1,.14-.37L82.78.43A.57.57,0,0,1,83,.26a.8.8,0,0,1,.26-.05.5.5,0,0,1,.39.16.57.57,0,0,1,.15.4V9.44a.55.55,0,0,1-.16.4A.54.54,0,0,1,83.24,10Z"/><path class="cls-2" d="M91.07,8.39l.19,0a.63.63,0,0,1,.23.15,2,2,0,0,0,.66.4,2.13,2.13,0,0,0,.86.16,2.21,2.21,0,0,0,1.11-.28,2.12,2.12,0,0,0,1.13-1.93,2,2,0,0,0-.31-1.17,1.94,1.94,0,0,0-.8-.68,2.5,2.5,0,0,0-1-.21,2.13,2.13,0,0,0-.37,0,1.55,1.55,0,0,0-.31.07,1.45,1.45,0,0,1-.28,0,.43.43,0,0,1-.35-.16.57.57,0,0,1-.12-.37.61.61,0,0,1,0-.24A.85.85,0,0,1,91.88,4l2.74-3,.23.27h-4a.54.54,0,0,1-.38-.15.54.54,0,0,1-.15-.38.48.48,0,0,1,.15-.37.54.54,0,0,1,.38-.15h4.57a.54.54,0,0,1,.44.17A.59.59,0,0,1,96,.77.46.46,0,0,1,96,1a.74.74,0,0,1-.16.2l-2.73,3L92.76,4a.85.85,0,0,1,.32-.1,1.81,1.81,0,0,1,.42,0A2.78,2.78,0,0,1,95,4.19a2.81,2.81,0,0,1,1,1.06,3.19,3.19,0,0,1,.39,1.6,3.33,3.33,0,0,1-.46,1.75,3.12,3.12,0,0,1-1.27,1.14,4,4,0,0,1-1.81.41,3.43,3.43,0,0,1-1.1-.18,2.47,2.47,0,0,1-.93-.51.55.55,0,0,1-.25-.22A.57.57,0,0,1,90.51,9a.63.63,0,0,1,.16-.41A.5.5,0,0,1,91.07,8.39Z"/><path class="cls-2" d="M101,10.15a3.1,3.1,0,0,1-1.4-.3,2.83,2.83,0,0,1-1-.82A3.81,3.81,0,0,1,98,7.87a4.25,4.25,0,0,1-.21-1.33,7,7,0,0,1,.16-1.35,8.78,8.78,0,0,1,.47-1.52,7.53,7.53,0,0,1,.82-1.49A6.3,6.3,0,0,1,100.42.9,5,5,0,0,1,102,0l.22,0a.68.68,0,0,1,.4.12.47.47,0,0,1,.18.43.48.48,0,0,1-.13.34.71.71,0,0,1-.33.22,4.57,4.57,0,0,0-1.1.6,6.31,6.31,0,0,0-1,.94,6.93,6.93,0,0,0-.78,1.16A4.81,4.81,0,0,0,99,5.11l-.33.11a3.59,3.59,0,0,1,.6-.71,2.89,2.89,0,0,1,.85-.55,2.59,2.59,0,0,1,1-.21,2.47,2.47,0,0,1,1.15.27,3.11,3.11,0,0,1,.94.71,3.5,3.5,0,0,1,.64,1A3.33,3.33,0,0,1,104.16,7a3.18,3.18,0,0,1-.41,1.58,3.3,3.3,0,0,1-1.13,1.16A3,3,0,0,1,101,10.15Zm0-1.05a2,2,0,0,0,1-.27,2.1,2.1,0,0,0,.72-.76A2.21,2.21,0,0,0,103,7a2.35,2.35,0,0,0-.23-1.06,2,2,0,0,0-.68-.79,1.86,1.86,0,0,0-1.06-.3,2,2,0,0,0-1.13.29,2,2,0,0,0-.74.79A2.38,2.38,0,0,0,98.92,7a2.31,2.31,0,0,0,.25,1A2,2,0,0,0,101,9.1Z"/><path class="cls-2" d="M107.28,10.05a.65.65,0,0,1-.41-.15.45.45,0,0,1-.18-.38.57.57,0,0,1,.06-.25L110.37,1l.16.25H106a.54.54,0,0,1-.38-.15.54.54,0,0,1-.15-.38.48.48,0,0,1,.15-.37A.54.54,0,0,1,106,.21h5a.57.57,0,0,1,.42.15.46.46,0,0,1,.16.38.66.66,0,0,1-.06.27L107.8,9.7a.49.49,0,0,1-.21.26A.56.56,0,0,1,107.28,10.05Z"/><path class="cls-2" d="M166.09,46.35a.6.6,0,0,1-.44-.17.54.54,0,0,1-.17-.4v-8l.17.2L164,39a.68.68,0,0,1-.28.07.56.56,0,0,1-.41-.19.61.61,0,0,1-.17-.39.56.56,0,0,1,.3-.49l2.28-1.36a.77.77,0,0,1,.42-.08.46.46,0,0,1,.38.16.61.61,0,0,1,.14.4v8.67a.54.54,0,0,1-.17.4A.6.6,0,0,1,166.09,46.35Z"/><path class="cls-2" d="M175,46.41a3.77,3.77,0,0,1-1.14-.18,2.9,2.9,0,0,1-1-.52.86.86,0,0,1-.18-.26.65.65,0,0,1-.07-.29.53.53,0,0,1,.14-.33.5.5,0,0,1,.39-.16.74.74,0,0,1,.42.18,2.58,2.58,0,0,0,.69.38,2.21,2.21,0,0,0,.75.14,2.68,2.68,0,0,0,1.32-.31,2.28,2.28,0,0,0,.9-.84,2.3,2.3,0,0,0,.33-1.22,2.17,2.17,0,0,0-.29-1.12,2,2,0,0,0-.79-.75,2.49,2.49,0,0,0-1.17-.27,2.52,2.52,0,0,0-.89.15,6.26,6.26,0,0,0-.67.3,1,1,0,0,1-.46.15.72.72,0,0,1-.42-.11.54.54,0,0,1-.2-.31.63.63,0,0,1,0-.33l.54-3.71a.64.64,0,0,1,.2-.32.55.55,0,0,1,.38-.13h4.15a.52.52,0,0,1,.38.15.51.51,0,0,1,.16.38.49.49,0,0,1-.16.38.52.52,0,0,1-.38.15H174l.14-.12-.52,3.23-.23-.29a1.66,1.66,0,0,1,.47-.28,4.17,4.17,0,0,1,.73-.24,3.47,3.47,0,0,1,.85-.1,3.19,3.19,0,0,1,1.63.42,3.06,3.06,0,0,1,1.14,1.12,3.18,3.18,0,0,1,.42,1.64,3.42,3.42,0,0,1-.27,1.37,3.29,3.29,0,0,1-.77,1.08,3.36,3.36,0,0,1-1.16.71A4.06,4.06,0,0,1,175,46.41Z"/><path class="cls-2" d="M182.8,46.41a3.87,3.87,0,0,1-1.14-.18,2.85,2.85,0,0,1-1-.52.73.73,0,0,1-.19-.26.82.82,0,0,1-.07-.29.53.53,0,0,1,.54-.49.74.74,0,0,1,.42.18,2.38,2.38,0,0,0,.68.38,2.27,2.27,0,0,0,.76.14,2.67,2.67,0,0,0,1.31-.31,2.24,2.24,0,0,0,.91-.84,2.3,2.3,0,0,0,.33-1.22,2.17,2.17,0,0,0-.29-1.12,2,2,0,0,0-.8-.75A2.66,2.66,0,0,0,182.2,41a5.47,5.47,0,0,0-.67.3,1.05,1.05,0,0,1-.46.15.72.72,0,0,1-.42-.11.56.56,0,0,1-.21-.31.76.76,0,0,1,0-.33L181,37a.63.63,0,0,1,.19-.32.57.57,0,0,1,.38-.13h4.16a.52.52,0,0,1,.38.15.54.54,0,0,1,.15.38.51.51,0,0,1-.53.53h-3.88l.14-.12-.52,3.23-.22-.29a1.53,1.53,0,0,1,.47-.28,3.91,3.91,0,0,1,.73-.24,3.33,3.33,0,0,1,.84-.1,3.17,3.17,0,0,1,1.63.42A3,3,0,0,1,186,41.35a3.18,3.18,0,0,1,.42,1.64,3.28,3.28,0,0,1-1.05,2.45,3.36,3.36,0,0,1-1.16.71A4,4,0,0,1,182.8,46.41Z"/><path class="cls-2" d="M193.23,46.35a.54.54,0,0,1-.4-.17.58.58,0,0,1-.16-.4V38.12l.23.08-3.35,4.37-.06-.17h5.13a.51.51,0,0,1,.38.16.51.51,0,0,1,.15.37.49.49,0,0,1-.15.36.54.54,0,0,1-.38.15h-5.9a.55.55,0,0,1-.38-.17.51.51,0,0,1-.18-.39.57.57,0,0,1,.14-.37l4.47-5.74a.51.51,0,0,1,.22-.17.8.8,0,0,1,.26-.05.51.51,0,0,1,.39.16.57.57,0,0,1,.15.4v8.67a.54.54,0,0,1-.16.4A.54.54,0,0,1,193.23,46.35Z"/><path class="cls-2" d="M201.06,44.73l.19,0a.81.81,0,0,1,.23.15,2,2,0,0,0,.66.4,2.13,2.13,0,0,0,.86.16,2.31,2.31,0,0,0,1.11-.27,2.27,2.27,0,0,0,.82-.78,2.14,2.14,0,0,0,.31-1.16,2,2,0,0,0-.31-1.17,1.84,1.84,0,0,0-.8-.67,2.36,2.36,0,0,0-1-.22,2.13,2.13,0,0,0-.37,0l-.31.07a1.45,1.45,0,0,1-.28,0,.42.42,0,0,1-.35-.16.57.57,0,0,1-.12-.37.56.56,0,0,1,0-.23.59.59,0,0,1,.14-.22l2.74-3,.23.27h-4a.51.51,0,0,1-.53-.53.48.48,0,0,1,.15-.37.54.54,0,0,1,.38-.15h4.57a.52.52,0,0,1,.44.18.54.54,0,0,1,.14.38.46.46,0,0,1,0,.23.74.74,0,0,1-.16.2l-2.73,3-.32-.28a1.09,1.09,0,0,1,.32-.1,2.6,2.6,0,0,1,.42-.05,2.78,2.78,0,0,1,1.45.38A2.89,2.89,0,0,1,206,41.59a3.19,3.19,0,0,1,.39,1.6,3.33,3.33,0,0,1-.46,1.75,3.12,3.12,0,0,1-1.27,1.14,4,4,0,0,1-1.81.41,3.72,3.72,0,0,1-1.1-.17,2.64,2.64,0,0,1-.93-.52.5.5,0,0,1-.25-.22.57.57,0,0,1-.06-.25.63.63,0,0,1,.16-.41A.5.5,0,0,1,201.06,44.73Z"/><path class="cls-2" d="M212.87,46.35a.54.54,0,0,1-.4-.17.58.58,0,0,1-.16-.4V38.12l.23.08-3.35,4.37-.05-.17h5.12a.49.49,0,0,1,.38.16.51.51,0,0,1,.15.37.49.49,0,0,1-.15.36.52.52,0,0,1-.38.15h-5.89a.57.57,0,0,1-.39-.17.5.5,0,0,1-.17-.39.52.52,0,0,1,.14-.37l4.46-5.74a.53.53,0,0,1,.23-.17.7.7,0,0,1,.25-.05.5.5,0,0,1,.39.16.57.57,0,0,1,.15.4v8.67a.54.54,0,0,1-.16.4A.53.53,0,0,1,212.87,46.35Z"/><path class="cls-2" d="M219.51,46.49a3.18,3.18,0,0,1-1.41-.3,2.88,2.88,0,0,1-1-.82,3.7,3.7,0,0,1-.62-1.16,4.25,4.25,0,0,1-.21-1.33,6.31,6.31,0,0,1,.16-1.35,8.05,8.05,0,0,1,1.28-3,6.65,6.65,0,0,1,1.21-1.28,5.09,5.09,0,0,1,1.61-.87l.22,0a.7.7,0,0,1,.4.12.47.47,0,0,1,.18.43.53.53,0,0,1-.13.34.75.75,0,0,1-.34.22,4.47,4.47,0,0,0-1.1.61,5.76,5.76,0,0,0-1,.93,6.62,6.62,0,0,0-.78,1.17,4.63,4.63,0,0,0-.46,1.29l-.33.11a3,3,0,0,1,.6-.71,2.84,2.84,0,0,1,.84-.55,2.67,2.67,0,0,1,1.06-.21,2.5,2.5,0,0,1,1.15.27,3.11,3.11,0,0,1,.94.71,3.5,3.5,0,0,1,.64,1,3.33,3.33,0,0,1,.23,1.21,3.09,3.09,0,0,1-.42,1.58,3.27,3.27,0,0,1-1.12,1.16A3,3,0,0,1,219.51,46.49Zm0-1.05a2,2,0,0,0,1-.27,2,2,0,0,0,.72-.76,2.32,2.32,0,0,0,.26-1.1,2.39,2.39,0,0,0-.24-1.06,1.91,1.91,0,0,0-.67-.79,1.86,1.86,0,0,0-1.06-.3,2.1,2.1,0,0,0-1.14.29,2.05,2.05,0,0,0-.73.79,2.38,2.38,0,0,0-.26,1.1,2.19,2.19,0,0,0,.25,1,2.12,2.12,0,0,0,.72.77A2.15,2.15,0,0,0,219.5,45.44Z"/></g></g></svg>