<svg xmlns="http://www.w3.org/2000/svg" viewBox="0 0 633.9 214.39"><defs><style>.cls-1{fill:#69380a;}.cls-2{fill:#c56c07;}.cls-3{fill:#f9f3e9;}.cls-4{fill:#1467d2;}.cls-5{fill:#1f8ebe;}.cls-6{fill:none;stroke:#1f8ebe;stroke-linejoin:round;stroke-width:2px;}.cls-7{fill:#363026;}</style></defs><g id="Layer_2" data-name="Layer 2"><g id="Layer_1-2" data-name="Layer 1"><g id="eb848902-bbc9-48bc-8df3-a0a1d9c08e1f"><g id="adee234c-81e1-47d4-a560-d29a1ac86898"><path class="cls-1" d="M213.68,165.11H9.12A9.12,9.12,0,0,0,0,174.23v12.41H284.91V174.23a9.12,9.12,0,0,0-9.12-9.12Z"/><path class="cls-1" d="M120,.4h0a2.37,2.37,0,0,1,2.37,2.37h0V175.21H117.6V2.77A2.37,2.37,0,0,1,120,.4Z"/><path class="cls-1" d="M167.38.4h0a2.37,2.37,0,0,1,2.37,2.37V175.21H165V2.77A2.37,2.37,0,0,1,167.37.4Z"/><path class="cls-1" d="M214.59.4h0A2.37,2.37,0,0,1,217,2.73V175.21h-4.74V2.77A2.37,2.37,0,0,1,214.59.4Z"/><path class="cls-1" d="M261.8.4h0a2.37,2.37,0,0,1,2.37,2.37V175.21h-4.74V2.77A2.37,2.37,0,0,1,261.8.4Z"/><path class="cls-2" d="M121,0h0a2.37,2.37,0,0,1,2.37,2.37h0V174.81h-4.74V2.37A2.37,2.37,0,0,1,121,0Z"/><path class="cls-1" d="M72.55.4h0a2.37,2.37,0,0,1,2.37,2.37h0V175.21H70.18V2.77A2.37,2.37,0,0,1,72.55.4Z"/><path class="cls-2" d="M73.54,0h0a2.37,2.37,0,0,1,2.37,2.37h0V174.81H71.17V2.37A2.37,2.37,0,0,1,73.54,0Z"/><path class="cls-2" d="M168.37,0h0a2.37,2.37,0,0,1,2.37,2.37V174.81H166V2.37A2.37,2.37,0,0,1,168.37,0Z"/><path class="cls-2" d="M215.58,0h0A2.37,2.37,0,0,1,218,2.37V174.81h-4.74V2.37A2.37,2.37,0,0,1,215.58,0Z"/><path class="cls-2" d="M262.79,0h0a2.37,2.37,0,0,1,2.37,2.37V174.81h-4.74V2.37A2.37,2.37,0,0,1,262.79,0Z"/><path class="cls-1" d="M24.51.4h0a2.37,2.37,0,0,1,2.37,2.37h0V175.21H22.14V2.77A2.37,2.37,0,0,1,24.51.4Z"/><path class="cls-2" d="M25.5,0h0a2.37,2.37,0,0,1,2.37,2.37V174.81H23.13V2.37A2.37,2.37,0,0,1,25.5,0Z"/><path class="cls-2" d="M276.78,164H10.11A9.13,9.13,0,0,0,1,173.07v12.41H285.9V173.07A9.12,9.12,0,0,0,276.78,164Z"/><path class="cls-3" d="M117.21,170.05a.68.68,0,0,1,.55.23.79.79,0,0,1,.21.57v6a4.45,4.45,0,0,1-.55,2.26,4.14,4.14,0,0,1-1.52,1.56,4.68,4.68,0,0,1-4.45,0,4.09,4.09,0,0,1-1.53-1.56,4.46,4.46,0,0,1-.56-2.26v-6a.81.81,0,0,1,.23-.57.84.84,0,0,1,.62-.23.75.75,0,0,1,.55.23.73.73,0,0,1,.24.57v6a2.76,2.76,0,0,0,.37,1.46,2.67,2.67,0,0,0,1,1,2.53,2.53,0,0,0,1.31.36,2.79,2.79,0,0,0,2.41-1.34,2.69,2.69,0,0,0,.39-1.46v-6a.8.8,0,0,1,.2-.57A.64.64,0,0,1,117.21,170.05Z"/><path class="cls-3" d="M121.37,170.05a.89.89,0,0,1,.39.09.76.76,0,0,1,.32.27l4,6.12h-.68l4.1-6.08a.75.75,0,0,1,.64-.36.79.79,0,0,1,.56.23.69.69,0,0,1,.25.57v9.47a.77.77,0,0,1-.81.8.81.81,0,0,1-.61-.23.76.76,0,0,1-.22-.57v-8l.5.11-3.48,5.29a.72.72,0,0,1-.28.24.77.77,0,0,1-.72,0,.75.75,0,0,1-.29-.24l-3.35-5.21.38-.64v8.46a.76.76,0,0,1-.22.57.7.7,0,0,1-.56.23.69.69,0,0,1-.54-.23.79.79,0,0,1-.21-.57V170.9a.78.78,0,0,1,.24-.57A.79.79,0,0,1,121.37,170.05Z"/><path class="cls-3" d="M171.73,170.69a.68.68,0,0,1,.4.54.85.85,0,0,1-.18.67.67.67,0,0,1-.45.26.82.82,0,0,1-.55-.11,6,6,0,0,0-1-.38,4.45,4.45,0,0,0-2.69.15,3.63,3.63,0,0,0-1.24.84,3.68,3.68,0,0,0-.8,1.29,4.56,4.56,0,0,0-.28,1.64,4.79,4.79,0,0,0,.3,1.76,3.57,3.57,0,0,0,.83,1.3,3.41,3.41,0,0,0,1.25.79,4.75,4.75,0,0,0,2.61.14,5,5,0,0,0,1-.38,1,1,0,0,1,.56-.11.7.7,0,0,1,.45.28.79.79,0,0,1,.2.67.69.69,0,0,1-.41.51,4.41,4.41,0,0,1-.86.38,8.64,8.64,0,0,1-1,.26,5.55,5.55,0,0,1-1,.09,5.87,5.87,0,0,1-2.15-.38,5.29,5.29,0,0,1-1.8-1.1,5.06,5.06,0,0,1-1.24-1.79,6.26,6.26,0,0,1-.45-2.42,6,6,0,0,1,.41-2.25,5.11,5.11,0,0,1,1.19-1.78,5.34,5.34,0,0,1,1.79-1.17,6,6,0,0,1,2.25-.42,5.59,5.59,0,0,1,1.47.19A5.32,5.32,0,0,1,171.73,170.69Z"/><path class="cls-3" d="M215,170.06a4.49,4.49,0,0,1,2,.44,4.08,4.08,0,0,1,1.47,1.2,5.39,5.39,0,0,1,.9,1.77,7.59,7.59,0,0,1,.3,2.12,7,7,0,0,1-.54,2.79,4.69,4.69,0,0,1-1.58,2,4.33,4.33,0,0,1-2.59.74H211.1a.77.77,0,0,1-.57-.23.73.73,0,0,1-.23-.57v-9.45a.74.74,0,0,1,.23-.58.81.81,0,0,1,.57-.23Zm-.16,9.55a2.83,2.83,0,0,0,1.82-.56,3.22,3.22,0,0,0,1-1.46,5.9,5.9,0,0,0,.32-2,6.51,6.51,0,0,0-.18-1.52,3.78,3.78,0,0,0-.57-1.28,2.85,2.85,0,0,0-1-.89,3.06,3.06,0,0,0-1.43-.32h-3l.14-.14v8.32l-.09-.15Z"/><path class="cls-3" d="M265.56,170.05a.68.68,0,0,1,.55.23.8.8,0,0,1,.2.57v6a4.45,4.45,0,0,1-.55,2.26,4.07,4.07,0,0,1-1.52,1.56,4.66,4.66,0,0,1-4.44,0,4.19,4.19,0,0,1-1.54-1.56,4.56,4.56,0,0,1-.56-2.26v-6a.73.73,0,0,1,.24-.57.81.81,0,0,1,.61-.23.82.82,0,0,1,.8.8v6a2.76,2.76,0,0,0,.37,1.46,2.69,2.69,0,0,0,2.3,1.34,2.8,2.8,0,0,0,1.39-.36,2.69,2.69,0,0,0,1.4-2.44v-6a.8.8,0,0,1,.2-.57A.65.65,0,0,1,265.56,170.05Z"/><path class="cls-3" d="M68.3,170.06a4.46,4.46,0,0,1,2,.44,4.2,4.2,0,0,1,1.48,1.2,5.56,5.56,0,0,1,.89,1.77,7.59,7.59,0,0,1,.3,2.12,7,7,0,0,1-.54,2.79,4.49,4.49,0,0,1-1.58,2,4.26,4.26,0,0,1-2.59.74H64.45a.77.77,0,0,1-.57-.23.73.73,0,0,1-.24-.57v-9.45a.75.75,0,0,1,.24-.58.81.81,0,0,1,.57-.23Zm-.16,9.55a2.83,2.83,0,0,0,1.82-.56,3.08,3.08,0,0,0,1-1.46,5.67,5.67,0,0,0,.33-2,6,6,0,0,0-.19-1.52,3.78,3.78,0,0,0-.57-1.28,2.68,2.68,0,0,0-1-.89,3.06,3.06,0,0,0-1.43-.32h-3l.14-.14v8.32l-.09-.15Z"/><path class="cls-3" d="M23.46,170.69a.68.68,0,0,1,.4.54.85.85,0,0,1-.18.67.67.67,0,0,1-.45.26.82.82,0,0,1-.55-.11,6,6,0,0,0-1-.38,4.45,4.45,0,0,0-2.69.15,3.63,3.63,0,0,0-1.24.84A3.7,3.7,0,0,0,17,174a4.56,4.56,0,0,0-.28,1.64,4.79,4.79,0,0,0,.3,1.76,3.57,3.57,0,0,0,.83,1.3,3.41,3.41,0,0,0,1.25.79,4.75,4.75,0,0,0,2.61.14,5,5,0,0,0,1-.38,1,1,0,0,1,.56-.11.7.7,0,0,1,.45.28.79.79,0,0,1,.2.67.69.69,0,0,1-.41.51,4.41,4.41,0,0,1-.86.38,8.64,8.64,0,0,1-1,.26,5.55,5.55,0,0,1-1,.09A5.87,5.87,0,0,1,18.5,181a5.29,5.29,0,0,1-1.8-1.1A5.18,5.18,0,0,1,15.45,178a6.26,6.26,0,0,1-.45-2.42,6,6,0,0,1,.42-2.25,5.11,5.11,0,0,1,1.19-1.78,5.34,5.34,0,0,1,1.79-1.17,5.8,5.8,0,0,1,2.25-.42,5.59,5.59,0,0,1,1.47.19A5.38,5.38,0,0,1,23.46,170.69Z"/><path class="cls-3" d="M26.48,170.05a.89.89,0,0,1,.39.09.76.76,0,0,1,.32.27l4,6.12h-.68l4.09-6.08a.78.78,0,0,1,1.21-.13.69.69,0,0,1,.25.57v9.47a.85.85,0,0,1-.22.57.76.76,0,0,1-.59.23.79.79,0,0,1-.84-.8v-8l.51.11-3.48,5.29a.72.72,0,0,1-.28.24.76.76,0,0,1-.72,0,.75.75,0,0,1-.29-.24l-3.35-5.21.38-.64v8.46a.76.76,0,0,1-.22.57.7.7,0,0,1-.56.23.69.69,0,0,1-.54-.23.85.85,0,0,1-.22-.57V170.9a.82.82,0,0,1,.83-.8Z"/><path class="cls-3" d="M75.18,170.09a1,1,0,0,1,.39.1.76.76,0,0,1,.32.27l4,6.11h-.68l4.1-6.08a.74.74,0,0,1,.64-.37.82.82,0,0,1,.81.81v9.46a.77.77,0,0,1-.73.81H84a.81.81,0,0,1-.61-.23.78.78,0,0,1-.23-.58v-8l.51.11-3.48,5.3a.92.92,0,0,1-.28.24.76.76,0,0,1-.72,0,1,1,0,0,1-.29-.24l-3.35-5.22.38-.63v8.45a.77.77,0,0,1-.22.58.7.7,0,0,1-.56.23.69.69,0,0,1-.54-.23.83.83,0,0,1-.21-.58v-9.5a.78.78,0,0,1,.24-.57A.77.77,0,0,1,75.18,170.09Z"/></g></g><g id="eb848902-bbc9-48bc-8df3-a0a1d9c08e1f-2" data-name="eb848902-bbc9-48bc-8df3-a0a1d9c08e1f"><g id="adee234c-81e1-47d4-a560-d29a1ac86898-2" data-name="adee234c-81e1-47d4-a560-d29a1ac86898"><path class="cls-1" d="M561.68,165.11H357.12a9.12,9.12,0,0,0-9.12,9.12v12.41H632.91V174.23a9.12,9.12,0,0,0-9.12-9.12Z"/><path class="cls-1" d="M468,.4h0a2.37,2.37,0,0,1,2.37,2.37h0V175.21H465.6V2.77A2.37,2.37,0,0,1,468,.4Z"/><path class="cls-1" d="M515.38.4h0a2.37,2.37,0,0,1,2.37,2.37V175.21H513V2.77A2.37,2.37,0,0,1,515.37.4Z"/><path class="cls-1" d="M562.59.4h0A2.37,2.37,0,0,1,565,2.73V175.21h-4.74V2.77A2.37,2.37,0,0,1,562.59.4Z"/><path class="cls-1" d="M609.8.4h0a2.37,2.37,0,0,1,2.37,2.37V175.21h-4.74V2.77A2.37,2.37,0,0,1,609.8.4Z"/><path class="cls-2" d="M469,0h0a2.37,2.37,0,0,1,2.37,2.37h0V174.81h-4.74V2.37A2.37,2.37,0,0,1,469,0Z"/><path class="cls-1" d="M420.55.4h0a2.37,2.37,0,0,1,2.37,2.37h0V175.21h-4.74V2.77A2.37,2.37,0,0,1,420.55.4Z"/><path class="cls-2" d="M421.54,0h0a2.37,2.37,0,0,1,2.37,2.37h0V174.81h-4.74V2.37A2.37,2.37,0,0,1,421.54,0Z"/><path class="cls-2" d="M516.37,0h0a2.37,2.37,0,0,1,2.37,2.37V174.81H514V2.37A2.37,2.37,0,0,1,516.37,0Z"/><path class="cls-2" d="M563.58,0h0A2.37,2.37,0,0,1,566,2.37V174.81h-4.74V2.37A2.37,2.37,0,0,1,563.58,0Z"/><path class="cls-2" d="M610.79,0h0a2.37,2.37,0,0,1,2.37,2.37V174.81h-4.74V2.37A2.37,2.37,0,0,1,610.79,0Z"/><path class="cls-1" d="M372.51.4h0a2.37,2.37,0,0,1,2.37,2.37h0V175.21h-4.74V2.77A2.37,2.37,0,0,1,372.51.4Z"/><path class="cls-2" d="M373.5,0h0a2.37,2.37,0,0,1,2.37,2.37V174.81h-4.74V2.37A2.37,2.37,0,0,1,373.5,0Z"/><path class="cls-2" d="M624.78,164H358.11a9.13,9.13,0,0,0-9.11,9.07v12.41H633.9V173.07A9.12,9.12,0,0,0,624.78,164Z"/><path class="cls-3" d="M465.21,170.05a.68.68,0,0,1,.55.23.79.79,0,0,1,.21.57v6a4.45,4.45,0,0,1-.55,2.26,4.14,4.14,0,0,1-1.52,1.56,4.68,4.68,0,0,1-4.45,0,4.09,4.09,0,0,1-1.53-1.56,4.46,4.46,0,0,1-.56-2.26v-6a.81.81,0,0,1,.23-.57.84.84,0,0,1,.62-.23.75.75,0,0,1,.55.23.73.73,0,0,1,.24.57v6a2.76,2.76,0,0,0,.37,1.46,2.67,2.67,0,0,0,1,1,2.53,2.53,0,0,0,1.31.36,2.79,2.79,0,0,0,2.41-1.34,2.69,2.69,0,0,0,.39-1.46v-6a.8.8,0,0,1,.2-.57A.64.64,0,0,1,465.21,170.05Z"/><path class="cls-3" d="M469.37,170.05a.89.89,0,0,1,.39.09.76.76,0,0,1,.32.27l4,6.12h-.68l4.1-6.08a.75.75,0,0,1,.64-.36.79.79,0,0,1,.56.23.69.69,0,0,1,.25.57v9.47a.77.77,0,0,1-.81.8.81.81,0,0,1-.61-.23.76.76,0,0,1-.22-.57v-8l.5.11-3.48,5.29a.72.72,0,0,1-.28.24.76.76,0,0,1-.72,0,.75.75,0,0,1-.29-.24l-3.35-5.21.38-.64v8.46a.76.76,0,0,1-.22.57.7.7,0,0,1-.56.23.69.69,0,0,1-.54-.23.79.79,0,0,1-.21-.57V170.9a.78.78,0,0,1,.24-.57A.79.79,0,0,1,469.37,170.05Z"/><path class="cls-3" d="M519.73,170.69a.68.68,0,0,1,.4.54.85.85,0,0,1-.18.67.67.67,0,0,1-.45.26.82.82,0,0,1-.55-.11,6,6,0,0,0-1-.38,4.45,4.45,0,0,0-2.69.15,3.63,3.63,0,0,0-1.24.84,3.68,3.68,0,0,0-.8,1.29,4.56,4.56,0,0,0-.28,1.64,4.79,4.79,0,0,0,.3,1.76,3.57,3.57,0,0,0,.83,1.3,3.41,3.41,0,0,0,1.25.79,4.75,4.75,0,0,0,2.61.14,5,5,0,0,0,1-.38,1,1,0,0,1,.56-.11.7.7,0,0,1,.45.28.79.79,0,0,1,.2.67.69.69,0,0,1-.41.51,4.41,4.41,0,0,1-.86.38,8.64,8.64,0,0,1-1,.26,5.55,5.55,0,0,1-1,.09,5.87,5.87,0,0,1-2.15-.38,5.29,5.29,0,0,1-1.8-1.1,5.06,5.06,0,0,1-1.24-1.79,6.26,6.26,0,0,1-.45-2.42,6,6,0,0,1,.41-2.25,5.11,5.11,0,0,1,1.19-1.78,5.34,5.34,0,0,1,1.79-1.17,6,6,0,0,1,2.25-.42,5.59,5.59,0,0,1,1.47.19A5.32,5.32,0,0,1,519.73,170.69Z"/><path class="cls-3" d="M563,170.06a4.49,4.49,0,0,1,2,.44,4.08,4.08,0,0,1,1.47,1.2,5.39,5.39,0,0,1,.9,1.77,7.59,7.59,0,0,1,.3,2.12,7,7,0,0,1-.54,2.79,4.69,4.69,0,0,1-1.58,2,4.33,4.33,0,0,1-2.59.74H559.1a.77.77,0,0,1-.57-.23.73.73,0,0,1-.23-.57v-9.45a.74.74,0,0,1,.23-.58.81.81,0,0,1,.57-.23Zm-.16,9.55a2.83,2.83,0,0,0,1.82-.56,3.22,3.22,0,0,0,1-1.46,5.9,5.9,0,0,0,.32-2,6.51,6.51,0,0,0-.18-1.52,3.78,3.78,0,0,0-.57-1.28,2.85,2.85,0,0,0-1-.89,3.06,3.06,0,0,0-1.43-.32h-3l.14-.14v8.32l-.09-.15Z"/><path class="cls-3" d="M613.56,170.05a.68.68,0,0,1,.55.23.8.8,0,0,1,.2.57v6a4.45,4.45,0,0,1-.55,2.26,4.07,4.07,0,0,1-1.52,1.56,4.66,4.66,0,0,1-4.44,0,4.19,4.19,0,0,1-1.54-1.56,4.56,4.56,0,0,1-.56-2.26v-6a.73.73,0,0,1,.24-.57.81.81,0,0,1,.61-.23.82.82,0,0,1,.8.8v6a2.76,2.76,0,0,0,.37,1.46,2.69,2.69,0,0,0,2.3,1.34,2.8,2.8,0,0,0,1.39-.36,2.69,2.69,0,0,0,1.4-2.44v-6a.8.8,0,0,1,.2-.57A.65.65,0,0,1,613.56,170.05Z"/><path class="cls-3" d="M416.3,170.06a4.46,4.46,0,0,1,2,.44,4.2,4.2,0,0,1,1.48,1.2,5.56,5.56,0,0,1,.89,1.77,7.59,7.59,0,0,1,.3,2.12,7,7,0,0,1-.54,2.79,4.49,4.49,0,0,1-1.58,2,4.26,4.26,0,0,1-2.59.74h-3.81a.77.77,0,0,1-.57-.23.73.73,0,0,1-.24-.57v-9.45a.75.75,0,0,1,.24-.58.81.81,0,0,1,.57-.23Zm-.16,9.55a2.83,2.83,0,0,0,1.82-.56,3.08,3.08,0,0,0,1-1.46,5.67,5.67,0,0,0,.33-2,6,6,0,0,0-.19-1.52,3.78,3.78,0,0,0-.57-1.28,2.68,2.68,0,0,0-1-.89,3.06,3.06,0,0,0-1.43-.32h-3l.14-.14v8.32l-.09-.15Z"/><path class="cls-3" d="M371.46,170.69a.68.68,0,0,1,.4.54.85.85,0,0,1-.18.67.67.67,0,0,1-.45.26.82.82,0,0,1-.55-.11,6,6,0,0,0-1-.38,4.45,4.45,0,0,0-2.69.15,3.63,3.63,0,0,0-1.24.84A3.7,3.7,0,0,0,365,174a4.56,4.56,0,0,0-.28,1.64,4.79,4.79,0,0,0,.3,1.76,3.57,3.57,0,0,0,.83,1.3,3.41,3.41,0,0,0,1.25.79,4.75,4.75,0,0,0,2.61.14,5,5,0,0,0,1-.38,1,1,0,0,1,.56-.11.7.7,0,0,1,.45.28.79.79,0,0,1,.2.67.69.69,0,0,1-.41.51,4.41,4.41,0,0,1-.86.38,8.64,8.64,0,0,1-1,.26,5.55,5.55,0,0,1-1,.09,5.87,5.87,0,0,1-2.15-.38,5.29,5.29,0,0,1-1.8-1.1,5.18,5.18,0,0,1-1.25-1.85,6.26,6.26,0,0,1-.45-2.42,6,6,0,0,1,.42-2.25,5.11,5.11,0,0,1,1.19-1.78,5.34,5.34,0,0,1,1.79-1.17,5.8,5.8,0,0,1,2.25-.42,5.59,5.59,0,0,1,1.47.19A5.38,5.38,0,0,1,371.46,170.69Z"/><path class="cls-3" d="M374.48,170.05a.89.89,0,0,1,.39.09.76.76,0,0,1,.32.27l4,6.12h-.68l4.09-6.08a.78.78,0,0,1,1.21-.13.69.69,0,0,1,.25.57v9.47a.85.85,0,0,1-.22.57.76.76,0,0,1-.59.23.79.79,0,0,1-.84-.8v-8l.51.11-3.48,5.29a.72.72,0,0,1-.28.24.76.76,0,0,1-.72,0,.75.75,0,0,1-.29-.24l-3.35-5.21.38-.64v8.46a.76.76,0,0,1-.22.57.7.7,0,0,1-.56.23.69.69,0,0,1-.54-.23.85.85,0,0,1-.22-.57V170.9a.82.82,0,0,1,.83-.8Z"/><path class="cls-3" d="M423.18,170.09a1,1,0,0,1,.39.1.76.76,0,0,1,.32.27l4,6.11h-.68l4.1-6.08a.74.74,0,0,1,.64-.37.82.82,0,0,1,.81.81v9.46a.77.77,0,0,1-.73.81H432a.81.81,0,0,1-.61-.23.78.78,0,0,1-.23-.58v-8l.51.11-3.48,5.3a.92.92,0,0,1-.28.24.76.76,0,0,1-.72,0,1,1,0,0,1-.29-.24l-3.35-5.22.38-.63v8.45a.77.77,0,0,1-.22.58.7.7,0,0,1-.56.23.69.69,0,0,1-.54-.23.83.83,0,0,1-.21-.58v-9.5a.78.78,0,0,1,.24-.57A.77.77,0,0,1,423.18,170.09Z"/></g></g><g id="b15e38e4-df09-4b0d-a168-614e4bbd91a3"><g id="a1460a2f-8f0f-43a3-91b6-25b00ba97723"><ellipse class="cls-4" cx="24.9" cy="158.18" rx="13.36" ry="5.82"/><ellipse class="cls-5" cx="26.82" cy="157.98" rx="13.36" ry="5.82"/></g></g><g id="b15e38e4-df09-4b0d-a168-614e4bbd91a3-2" data-name="b15e38e4-df09-4b0d-a168-614e4bbd91a3"><g id="a1460a2f-8f0f-43a3-91b6-25b00ba97723-2" data-name="a1460a2f-8f0f-43a3-91b6-25b00ba97723"><ellipse class="cls-4" cx="24.9" cy="146.34" rx="13.36" ry="5.82"/><ellipse class="cls-5" cx="26.82" cy="146.14" rx="13.36" ry="5.82"/></g></g><g id="b15e38e4-df09-4b0d-a168-614e4bbd91a3-3" data-name="b15e38e4-df09-4b0d-a168-614e4bbd91a3"><g id="a1460a2f-8f0f-43a3-91b6-25b00ba97723-3" data-name="a1460a2f-8f0f-43a3-91b6-25b00ba97723"><ellipse class="cls-4" cx="24.9" cy="134.5" rx="13.36" ry="5.82"/><ellipse class="cls-5" cx="26.82" cy="134.3" rx="13.36" ry="5.82"/></g></g><g id="b15e38e4-df09-4b0d-a168-614e4bbd91a3-4" data-name="b15e38e4-df09-4b0d-a168-614e4bbd91a3"><g id="a1460a2f-8f0f-43a3-91b6-25b00ba97723-4" data-name="a1460a2f-8f0f-43a3-91b6-25b00ba97723"><ellipse class="cls-4" cx="24.9" cy="122.66" rx="13.36" ry="5.82"/><ellipse class="cls-5" cx="26.82" cy="122.46" rx="13.36" ry="5.82"/></g></g><g id="b15e38e4-df09-4b0d-a168-614e4bbd91a3-5" data-name="b15e38e4-df09-4b0d-a168-614e4bbd91a3"><g id="a1460a2f-8f0f-43a3-91b6-25b00ba97723-5" data-name="a1460a2f-8f0f-43a3-91b6-25b00ba97723"><ellipse class="cls-4" cx="24.9" cy="110.82" rx="13.36" ry="5.82"/><ellipse class="cls-5" cx="26.82" cy="110.62" rx="13.36" ry="5.82"/></g></g><g id="b15e38e4-df09-4b0d-a168-614e4bbd91a3-6" data-name="b15e38e4-df09-4b0d-a168-614e4bbd91a3"><g id="a1460a2f-8f0f-43a3-91b6-25b00ba97723-6" data-name="a1460a2f-8f0f-43a3-91b6-25b00ba97723"><ellipse class="cls-4" cx="24.9" cy="98.98" rx="13.36" ry="5.82"/><ellipse class="cls-5" cx="26.82" cy="98.78" rx="13.36" ry="5.82"/></g></g><g id="b15e38e4-df09-4b0d-a168-614e4bbd91a3-7" data-name="b15e38e4-df09-4b0d-a168-614e4bbd91a3"><g id="a1460a2f-8f0f-43a3-91b6-25b00ba97723-7" data-name="a1460a2f-8f0f-43a3-91b6-25b00ba97723"><ellipse class="cls-4" cx="24.9" cy="87.14" rx="13.36" ry="5.82"/><ellipse class="cls-5" cx="26.82" cy="86.94" rx="13.36" ry="5.82"/></g></g><g id="b15e38e4-df09-4b0d-a168-614e4bbd91a3-8" data-name="b15e38e4-df09-4b0d-a168-614e4bbd91a3"><g id="a1460a2f-8f0f-43a3-91b6-25b00ba97723-8" data-name="a1460a2f-8f0f-43a3-91b6-25b00ba97723"><ellipse class="cls-4" cx="24.9" cy="75.3" rx="13.36" ry="5.82"/><ellipse class="cls-5" cx="26.82" cy="75.1" rx="13.36" ry="5.82"/></g></g><g id="b15e38e4-df09-4b0d-a168-614e4bbd91a3-9" data-name="b15e38e4-df09-4b0d-a168-614e4bbd91a3"><g id="a1460a2f-8f0f-43a3-91b6-25b00ba97723-9" data-name="a1460a2f-8f0f-43a3-91b6-25b00ba97723"><ellipse class="cls-4" cx="24.9" cy="63.46" rx="13.36" ry="5.82"/><ellipse class="cls-5" cx="26.82" cy="63.26" rx="13.36" ry="5.82"/></g></g><g id="b15e38e4-df09-4b0d-a168-614e4bbd91a3-10" data-name="b15e38e4-df09-4b0d-a168-614e4bbd91a3"><g id="a1460a2f-8f0f-43a3-91b6-25b00ba97723-10" data-name="a1460a2f-8f0f-43a3-91b6-25b00ba97723"><ellipse class="cls-4" cx="372.54" cy="158.18" rx="13.36" ry="5.82"/><ellipse class="cls-5" cx="374.46" cy="157.98" rx="13.36" ry="5.82"/></g></g><g id="b15e38e4-df09-4b0d-a168-614e4bbd91a3-11" data-name="b15e38e4-df09-4b0d-a168-614e4bbd91a3"><g id="a1460a2f-8f0f-43a3-91b6-25b00ba97723-11" data-name="a1460a2f-8f0f-43a3-91b6-25b00ba97723"><ellipse class="cls-4" cx="372.54" cy="146.34" rx="13.36" ry="5.82"/><ellipse class="cls-5" cx="374.46" cy="146.14" rx="13.36" ry="5.82"/></g></g><g id="b15e38e4-df09-4b0d-a168-614e4bbd91a3-12" data-name="b15e38e4-df09-4b0d-a168-614e4bbd91a3"><g id="a1460a2f-8f0f-43a3-91b6-25b00ba97723-12" data-name="a1460a2f-8f0f-43a3-91b6-25b00ba97723"><ellipse class="cls-4" cx="372.54" cy="134.5" rx="13.36" ry="5.82"/><ellipse class="cls-5" cx="374.46" cy="134.3" rx="13.36" ry="5.82"/></g></g><g id="b15e38e4-df09-4b0d-a168-614e4bbd91a3-13" data-name="b15e38e4-df09-4b0d-a168-614e4bbd91a3"><g id="a1460a2f-8f0f-43a3-91b6-25b00ba97723-13" data-name="a1460a2f-8f0f-43a3-91b6-25b00ba97723"><ellipse class="cls-4" cx="372.54" cy="122.66" rx="13.36" ry="5.82"/><ellipse class="cls-5" cx="374.46" cy="122.46" rx="13.36" ry="5.82"/></g></g><g id="b15e38e4-df09-4b0d-a168-614e4bbd91a3-14" data-name="b15e38e4-df09-4b0d-a168-614e4bbd91a3"><g id="a1460a2f-8f0f-43a3-91b6-25b00ba97723-14" data-name="a1460a2f-8f0f-43a3-91b6-25b00ba97723"><ellipse class="cls-4" cx="372.54" cy="110.82" rx="13.36" ry="5.82"/><ellipse class="cls-5" cx="374.46" cy="110.62" rx="13.36" ry="5.82"/></g></g><g id="b15e38e4-df09-4b0d-a168-614e4bbd91a3-15" data-name="b15e38e4-df09-4b0d-a168-614e4bbd91a3"><g id="a1460a2f-8f0f-43a3-91b6-25b00ba97723-15" data-name="a1460a2f-8f0f-43a3-91b6-25b00ba97723"><ellipse class="cls-4" cx="372.54" cy="98.98" rx="13.36" ry="5.82"/><ellipse class="cls-5" cx="374.46" cy="98.78" rx="13.36" ry="5.82"/></g></g><g id="b15e38e4-df09-4b0d-a168-614e4bbd91a3-16" data-name="b15e38e4-df09-4b0d-a168-614e4bbd91a3"><g id="a1460a2f-8f0f-43a3-91b6-25b00ba97723-16" data-name="a1460a2f-8f0f-43a3-91b6-25b00ba97723"><ellipse class="cls-4" cx="372.54" cy="87.14" rx="13.36" ry="5.82"/><ellipse class="cls-5" cx="374.46" cy="86.94" rx="13.36" ry="5.82"/></g></g><g id="b15e38e4-df09-4b0d-a168-614e4bbd91a3-17" data-name="b15e38e4-df09-4b0d-a168-614e4bbd91a3"><g id="a1460a2f-8f0f-43a3-91b6-25b00ba97723-17" data-name="a1460a2f-8f0f-43a3-91b6-25b00ba97723"><ellipse class="cls-4" cx="372.54" cy="75.3" rx="13.36" ry="5.82"/><ellipse class="cls-5" cx="374.46" cy="75.1" rx="13.36" ry="5.82"/></g></g><g id="b15e38e4-df09-4b0d-a168-614e4bbd91a3-18" data-name="b15e38e4-df09-4b0d-a168-614e4bbd91a3"><g id="a1460a2f-8f0f-43a3-91b6-25b00ba97723-18" data-name="a1460a2f-8f0f-43a3-91b6-25b00ba97723"><ellipse class="cls-4" cx="372.54" cy="63.46" rx="13.36" ry="5.82"/><ellipse class="cls-5" cx="374.46" cy="63.26" rx="13.36" ry="5.82"/></g></g><g id="b15e38e4-df09-4b0d-a168-614e4bbd91a3-19" data-name="b15e38e4-df09-4b0d-a168-614e4bbd91a3"><g id="a1460a2f-8f0f-43a3-91b6-25b00ba97723-19" data-name="a1460a2f-8f0f-43a3-91b6-25b00ba97723"><ellipse class="cls-4" cx="419.59" cy="158.18" rx="13.36" ry="5.82"/><ellipse class="cls-5" cx="421.51" cy="157.98" rx="13.36" ry="5.82"/></g></g><g id="b15e38e4-df09-4b0d-a168-614e4bbd91a3-20" data-name="b15e38e4-df09-4b0d-a168-614e4bbd91a3"><g id="a1460a2f-8f0f-43a3-91b6-25b00ba97723-20" data-name="a1460a2f-8f0f-43a3-91b6-25b00ba97723"><ellipse class="cls-4" cx="419.59" cy="146.34" rx="13.36" ry="5.82"/><ellipse class="cls-5" cx="421.51" cy="146.14" rx="13.36" ry="5.82"/></g></g><g id="b15e38e4-df09-4b0d-a168-614e4bbd91a3-21" data-name="b15e38e4-df09-4b0d-a168-614e4bbd91a3"><g id="a1460a2f-8f0f-43a3-91b6-25b00ba97723-21" data-name="a1460a2f-8f0f-43a3-91b6-25b00ba97723"><ellipse class="cls-4" cx="419.59" cy="134.5" rx="13.36" ry="5.82"/><ellipse class="cls-5" cx="421.51" cy="134.3" rx="13.36" ry="5.82"/></g></g><g id="b15e38e4-df09-4b0d-a168-614e4bbd91a3-22" data-name="b15e38e4-df09-4b0d-a168-614e4bbd91a3"><g id="a1460a2f-8f0f-43a3-91b6-25b00ba97723-22" data-name="a1460a2f-8f0f-43a3-91b6-25b00ba97723"><ellipse class="cls-4" cx="419.59" cy="122.66" rx="13.36" ry="5.82"/><ellipse class="cls-5" cx="421.51" cy="122.46" rx="13.36" ry="5.82"/></g></g><g id="b15e38e4-df09-4b0d-a168-614e4bbd91a3-23" data-name="b15e38e4-df09-4b0d-a168-614e4bbd91a3"><g id="a1460a2f-8f0f-43a3-91b6-25b00ba97723-23" data-name="a1460a2f-8f0f-43a3-91b6-25b00ba97723"><ellipse class="cls-4" cx="419.59" cy="110.82" rx="13.36" ry="5.82"/><ellipse class="cls-5" cx="421.51" cy="110.62" rx="13.36" ry="5.82"/></g></g><g id="b15e38e4-df09-4b0d-a168-614e4bbd91a3-24" data-name="b15e38e4-df09-4b0d-a168-614e4bbd91a3"><g id="a1460a2f-8f0f-43a3-91b6-25b00ba97723-24" data-name="a1460a2f-8f0f-43a3-91b6-25b00ba97723"><ellipse class="cls-4" cx="419.59" cy="98.98" rx="13.36" ry="5.82"/><ellipse class="cls-5" cx="421.51" cy="98.78" rx="13.36" ry="5.82"/></g></g><g id="b15e38e4-df09-4b0d-a168-614e4bbd91a3-25" data-name="b15e38e4-df09-4b0d-a168-614e4bbd91a3"><g id="a1460a2f-8f0f-43a3-91b6-25b00ba97723-25" data-name="a1460a2f-8f0f-43a3-91b6-25b00ba97723"><ellipse class="cls-4" cx="419.59" cy="87.14" rx="13.36" ry="5.82"/><ellipse class="cls-5" cx="421.51" cy="86.94" rx="13.36" ry="5.82"/></g></g><g id="b15e38e4-df09-4b0d-a168-614e4bbd91a3-26" data-name="b15e38e4-df09-4b0d-a168-614e4bbd91a3"><g id="a1460a2f-8f0f-43a3-91b6-25b00ba97723-26" data-name="a1460a2f-8f0f-43a3-91b6-25b00ba97723"><ellipse class="cls-4" cx="514.41" cy="158.18" rx="13.36" ry="5.82"/><ellipse class="cls-5" cx="516.34" cy="157.98" rx="13.36" ry="5.82"/></g></g><g id="b15e38e4-df09-4b0d-a168-614e4bbd91a3-27" data-name="b15e38e4-df09-4b0d-a168-614e4bbd91a3"><g id="a1460a2f-8f0f-43a3-91b6-25b00ba97723-27" data-name="a1460a2f-8f0f-43a3-91b6-25b00ba97723"><ellipse class="cls-4" cx="514.41" cy="146.34" rx="13.36" ry="5.82"/><ellipse class="cls-5" cx="516.34" cy="146.14" rx="13.36" ry="5.82"/></g></g><g id="b15e38e4-df09-4b0d-a168-614e4bbd91a3-28" data-name="b15e38e4-df09-4b0d-a168-614e4bbd91a3"><g id="a1460a2f-8f0f-43a3-91b6-25b00ba97723-28" data-name="a1460a2f-8f0f-43a3-91b6-25b00ba97723"><ellipse class="cls-4" cx="514.41" cy="134.5" rx="13.36" ry="5.82"/><ellipse class="cls-5" cx="516.34" cy="134.3" rx="13.36" ry="5.82"/></g></g><g id="b15e38e4-df09-4b0d-a168-614e4bbd91a3-29" data-name="b15e38e4-df09-4b0d-a168-614e4bbd91a3"><g id="a1460a2f-8f0f-43a3-91b6-25b00ba97723-29" data-name="a1460a2f-8f0f-43a3-91b6-25b00ba97723"><ellipse class="cls-4" cx="514.41" cy="122.66" rx="13.36" ry="5.82"/><ellipse class="cls-5" cx="516.34" cy="122.46" rx="13.36" ry="5.82"/></g></g><g id="b15e38e4-df09-4b0d-a168-614e4bbd91a3-30" data-name="b15e38e4-df09-4b0d-a168-614e4bbd91a3"><g id="a1460a2f-8f0f-43a3-91b6-25b00ba97723-30" data-name="a1460a2f-8f0f-43a3-91b6-25b00ba97723"><ellipse class="cls-4" cx="514.41" cy="110.82" rx="13.36" ry="5.82"/><ellipse class="cls-5" cx="516.34" cy="110.62" rx="13.36" ry="5.82"/></g></g><g id="b15e38e4-df09-4b0d-a168-614e4bbd91a3-31" data-name="b15e38e4-df09-4b0d-a168-614e4bbd91a3"><g id="a1460a2f-8f0f-43a3-91b6-25b00ba97723-31" data-name="a1460a2f-8f0f-43a3-91b6-25b00ba97723"><ellipse class="cls-4" cx="468.04" cy="158.18" rx="13.36" ry="5.82"/><ellipse class="cls-5" cx="469.96" cy="157.98" rx="13.36" ry="5.82"/></g></g><g id="b15e38e4-df09-4b0d-a168-614e4bbd91a3-32" data-name="b15e38e4-df09-4b0d-a168-614e4bbd91a3"><g id="a1460a2f-8f0f-43a3-91b6-25b00ba97723-32" data-name="a1460a2f-8f0f-43a3-91b6-25b00ba97723"><ellipse class="cls-4" cx="468.04" cy="146.34" rx="13.36" ry="5.82"/><ellipse class="cls-5" cx="469.96" cy="146.14" rx="13.36" ry="5.82"/></g></g><g id="b15e38e4-df09-4b0d-a168-614e4bbd91a3-33" data-name="b15e38e4-df09-4b0d-a168-614e4bbd91a3"><g id="a1460a2f-8f0f-43a3-91b6-25b00ba97723-33" data-name="a1460a2f-8f0f-43a3-91b6-25b00ba97723"><ellipse class="cls-4" cx="468.04" cy="134.5" rx="13.36" ry="5.82"/><ellipse class="cls-5" cx="469.96" cy="134.3" rx="13.36" ry="5.82"/></g></g><g id="b15e38e4-df09-4b0d-a168-614e4bbd91a3-34" data-name="b15e38e4-df09-4b0d-a168-614e4bbd91a3"><g id="a1460a2f-8f0f-43a3-91b6-25b00ba97723-34" data-name="a1460a2f-8f0f-43a3-91b6-25b00ba97723"><ellipse class="cls-4" cx="468.04" cy="122.66" rx="13.36" ry="5.82"/><ellipse class="cls-5" cx="469.96" cy="122.46" rx="13.36" ry="5.82"/></g></g><g id="b15e38e4-df09-4b0d-a168-614e4bbd91a3-35" data-name="b15e38e4-df09-4b0d-a168-614e4bbd91a3"><g id="a1460a2f-8f0f-43a3-91b6-25b00ba97723-35" data-name="a1460a2f-8f0f-43a3-91b6-25b00ba97723"><ellipse class="cls-4" cx="609.83" cy="158.18" rx="13.36" ry="5.82"/><ellipse class="cls-5" cx="611.75" cy="157.98" rx="13.36" ry="5.82"/></g></g><g id="b15e38e4-df09-4b0d-a168-614e4bbd91a3-36" data-name="b15e38e4-df09-4b0d-a168-614e4bbd91a3"><g id="a1460a2f-8f0f-43a3-91b6-25b00ba97723-36" data-name="a1460a2f-8f0f-43a3-91b6-25b00ba97723"><ellipse class="cls-4" cx="609.83" cy="146.34" rx="13.36" ry="5.82"/><ellipse class="cls-5" cx="611.75" cy="146.14" rx="13.36" ry="5.82"/></g></g><g id="b15e38e4-df09-4b0d-a168-614e4bbd91a3-37" data-name="b15e38e4-df09-4b0d-a168-614e4bbd91a3"><g id="a1460a2f-8f0f-43a3-91b6-25b00ba97723-37" data-name="a1460a2f-8f0f-43a3-91b6-25b00ba97723"><ellipse class="cls-4" cx="609.83" cy="134.5" rx="13.36" ry="5.82"/><ellipse class="cls-5" cx="611.75" cy="134.3" rx="13.36" ry="5.82"/></g></g><g id="b15e38e4-df09-4b0d-a168-614e4bbd91a3-38" data-name="b15e38e4-df09-4b0d-a168-614e4bbd91a3"><g id="a1460a2f-8f0f-43a3-91b6-25b00ba97723-38" data-name="a1460a2f-8f0f-43a3-91b6-25b00ba97723"><ellipse class="cls-4" cx="609.83" cy="122.66" rx="13.36" ry="5.82"/><ellipse class="cls-5" cx="611.75" cy="122.46" rx="13.36" ry="5.82"/></g></g><g id="b15e38e4-df09-4b0d-a168-614e4bbd91a3-39" data-name="b15e38e4-df09-4b0d-a168-614e4bbd91a3"><g id="a1460a2f-8f0f-43a3-91b6-25b00ba97723-39" data-name="a1460a2f-8f0f-43a3-91b6-25b00ba97723"><ellipse class="cls-4" cx="562.62" cy="158.18" rx="13.36" ry="5.82"/><ellipse class="cls-5" cx="564.54" cy="157.98" rx="13.36" ry="5.82"/></g></g><g id="b15e38e4-df09-4b0d-a168-614e4bbd91a3-40" data-name="b15e38e4-df09-4b0d-a168-614e4bbd91a3"><g id="a1460a2f-8f0f-43a3-91b6-25b00ba97723-40" data-name="a1460a2f-8f0f-43a3-91b6-25b00ba97723"><ellipse class="cls-4" cx="562.62" cy="146.34" rx="13.36" ry="5.82"/><ellipse class="cls-5" cx="564.54" cy="146.14" rx="13.36" ry="5.82"/></g></g><g id="b15e38e4-df09-4b0d-a168-614e4bbd91a3-41" data-name="b15e38e4-df09-4b0d-a168-614e4bbd91a3"><g id="a1460a2f-8f0f-43a3-91b6-25b00ba97723-41" data-name="a1460a2f-8f0f-43a3-91b6-25b00ba97723"><ellipse class="cls-4" cx="562.62" cy="134.5" rx="13.36" ry="5.82"/><ellipse class="cls-5" cx="564.54" cy="134.3" rx="13.36" ry="5.82"/></g></g><g id="b15e38e4-df09-4b0d-a168-614e4bbd91a3-42" data-name="b15e38e4-df09-4b0d-a168-614e4bbd91a3"><g id="a1460a2f-8f0f-43a3-91b6-25b00ba97723-42" data-name="a1460a2f-8f0f-43a3-91b6-25b00ba97723"><ellipse class="cls-4" cx="71.59" cy="158.18" rx="13.36" ry="5.82"/><ellipse class="cls-5" cx="73.51" cy="157.98" rx="13.36" ry="5.82"/></g></g><g id="b15e38e4-df09-4b0d-a168-614e4bbd91a3-43" data-name="b15e38e4-df09-4b0d-a168-614e4bbd91a3"><g id="a1460a2f-8f0f-43a3-91b6-25b00ba97723-43" data-name="a1460a2f-8f0f-43a3-91b6-25b00ba97723"><ellipse class="cls-4" cx="71.59" cy="146.34" rx="13.36" ry="5.82"/><ellipse class="cls-5" cx="73.51" cy="146.14" rx="13.36" ry="5.82"/></g></g><g id="b15e38e4-df09-4b0d-a168-614e4bbd91a3-44" data-name="b15e38e4-df09-4b0d-a168-614e4bbd91a3"><g id="a1460a2f-8f0f-43a3-91b6-25b00ba97723-44" data-name="a1460a2f-8f0f-43a3-91b6-25b00ba97723"><ellipse class="cls-4" cx="71.59" cy="134.5" rx="13.36" ry="5.82"/><ellipse class="cls-5" cx="73.51" cy="134.3" rx="13.36" ry="5.82"/></g></g><g id="b15e38e4-df09-4b0d-a168-614e4bbd91a3-45" data-name="b15e38e4-df09-4b0d-a168-614e4bbd91a3"><g id="a1460a2f-8f0f-43a3-91b6-25b00ba97723-45" data-name="a1460a2f-8f0f-43a3-91b6-25b00ba97723"><ellipse class="cls-4" cx="71.59" cy="122.66" rx="13.36" ry="5.82"/><ellipse class="cls-5" cx="73.51" cy="122.46" rx="13.36" ry="5.82"/></g></g><g id="b15e38e4-df09-4b0d-a168-614e4bbd91a3-46" data-name="b15e38e4-df09-4b0d-a168-614e4bbd91a3"><g id="a1460a2f-8f0f-43a3-91b6-25b00ba97723-46" data-name="a1460a2f-8f0f-43a3-91b6-25b00ba97723"><ellipse class="cls-4" cx="71.59" cy="110.82" rx="13.36" ry="5.82"/><ellipse class="cls-5" cx="73.51" cy="110.62" rx="13.36" ry="5.82"/></g></g><g id="b15e38e4-df09-4b0d-a168-614e4bbd91a3-47" data-name="b15e38e4-df09-4b0d-a168-614e4bbd91a3"><g id="a1460a2f-8f0f-43a3-91b6-25b00ba97723-47" data-name="a1460a2f-8f0f-43a3-91b6-25b00ba97723"><ellipse class="cls-4" cx="71.59" cy="98.98" rx="13.36" ry="5.82"/><ellipse class="cls-5" cx="73.51" cy="98.78" rx="13.36" ry="5.82"/></g></g><g id="b15e38e4-df09-4b0d-a168-614e4bbd91a3-48" data-name="b15e38e4-df09-4b0d-a168-614e4bbd91a3"><g id="a1460a2f-8f0f-43a3-91b6-25b00ba97723-48" data-name="a1460a2f-8f0f-43a3-91b6-25b00ba97723"><ellipse class="cls-4" cx="71.59" cy="87.04" rx="13.36" ry="5.82"/><ellipse class="cls-5" cx="73.51" cy="86.84" rx="13.36" ry="5.82"/></g></g><g id="b15e38e4-df09-4b0d-a168-614e4bbd91a3-49" data-name="b15e38e4-df09-4b0d-a168-614e4bbd91a3"><g id="a1460a2f-8f0f-43a3-91b6-25b00ba97723-49" data-name="a1460a2f-8f0f-43a3-91b6-25b00ba97723"><ellipse class="cls-4" cx="166.41" cy="158.18" rx="13.36" ry="5.82"/><ellipse class="cls-5" cx="168.34" cy="157.98" rx="13.36" ry="5.82"/></g></g><g id="b15e38e4-df09-4b0d-a168-614e4bbd91a3-50" data-name="b15e38e4-df09-4b0d-a168-614e4bbd91a3"><g id="a1460a2f-8f0f-43a3-91b6-25b00ba97723-50" data-name="a1460a2f-8f0f-43a3-91b6-25b00ba97723"><ellipse class="cls-4" cx="166.41" cy="146.34" rx="13.36" ry="5.82"/><ellipse class="cls-5" cx="168.34" cy="146.14" rx="13.36" ry="5.82"/></g></g><g id="b15e38e4-df09-4b0d-a168-614e4bbd91a3-51" data-name="b15e38e4-df09-4b0d-a168-614e4bbd91a3"><g id="a1460a2f-8f0f-43a3-91b6-25b00ba97723-51" data-name="a1460a2f-8f0f-43a3-91b6-25b00ba97723"><ellipse class="cls-4" cx="166.41" cy="134.5" rx="13.36" ry="5.82"/><ellipse class="cls-5" cx="168.34" cy="134.3" rx="13.36" ry="5.82"/></g></g><g id="b15e38e4-df09-4b0d-a168-614e4bbd91a3-52" data-name="b15e38e4-df09-4b0d-a168-614e4bbd91a3"><g id="a1460a2f-8f0f-43a3-91b6-25b00ba97723-52" data-name="a1460a2f-8f0f-43a3-91b6-25b00ba97723"><ellipse class="cls-4" cx="166.41" cy="122.66" rx="13.36" ry="5.82"/><ellipse class="cls-5" cx="168.34" cy="122.46" rx="13.36" ry="5.82"/></g></g><g id="b15e38e4-df09-4b0d-a168-614e4bbd91a3-53" data-name="b15e38e4-df09-4b0d-a168-614e4bbd91a3"><g id="a1460a2f-8f0f-43a3-91b6-25b00ba97723-53" data-name="a1460a2f-8f0f-43a3-91b6-25b00ba97723"><ellipse class="cls-4" cx="166.41" cy="110.82" rx="13.36" ry="5.82"/><ellipse class="cls-5" cx="168.34" cy="110.62" rx="13.36" ry="5.82"/></g></g><g id="b15e38e4-df09-4b0d-a168-614e4bbd91a3-54" data-name="b15e38e4-df09-4b0d-a168-614e4bbd91a3"><g id="a1460a2f-8f0f-43a3-91b6-25b00ba97723-54" data-name="a1460a2f-8f0f-43a3-91b6-25b00ba97723"><ellipse class="cls-4" cx="260.84" cy="158.18" rx="13.36" ry="5.82"/><ellipse class="cls-5" cx="262.76" cy="157.98" rx="13.36" ry="5.82"/></g></g><g id="b15e38e4-df09-4b0d-a168-614e4bbd91a3-55" data-name="b15e38e4-df09-4b0d-a168-614e4bbd91a3"><g id="a1460a2f-8f0f-43a3-91b6-25b00ba97723-55" data-name="a1460a2f-8f0f-43a3-91b6-25b00ba97723"><ellipse class="cls-4" cx="260.84" cy="146.34" rx="13.36" ry="5.82"/><ellipse class="cls-5" cx="262.76" cy="146.14" rx="13.36" ry="5.82"/></g></g><g id="b15e38e4-df09-4b0d-a168-614e4bbd91a3-56" data-name="b15e38e4-df09-4b0d-a168-614e4bbd91a3"><g id="a1460a2f-8f0f-43a3-91b6-25b00ba97723-56" data-name="a1460a2f-8f0f-43a3-91b6-25b00ba97723"><ellipse class="cls-4" cx="260.84" cy="134.5" rx="13.36" ry="5.82"/><ellipse class="cls-5" cx="262.76" cy="134.3" rx="13.36" ry="5.82"/></g></g><g id="b15e38e4-df09-4b0d-a168-614e4bbd91a3-57" data-name="b15e38e4-df09-4b0d-a168-614e4bbd91a3"><g id="a1460a2f-8f0f-43a3-91b6-25b00ba97723-57" data-name="a1460a2f-8f0f-43a3-91b6-25b00ba97723"><ellipse class="cls-4" cx="260.84" cy="122.66" rx="13.36" ry="5.82"/><ellipse class="cls-5" cx="262.76" cy="122.46" rx="13.36" ry="5.82"/></g></g><g id="b15e38e4-df09-4b0d-a168-614e4bbd91a3-58" data-name="b15e38e4-df09-4b0d-a168-614e4bbd91a3"><g id="a1460a2f-8f0f-43a3-91b6-25b00ba97723-58" data-name="a1460a2f-8f0f-43a3-91b6-25b00ba97723"><ellipse class="cls-4" cx="213.93" cy="158.18" rx="13.36" ry="5.82"/><ellipse class="cls-5" cx="215.85" cy="157.98" rx="13.36" ry="5.82"/></g></g><g id="b15e38e4-df09-4b0d-a168-614e4bbd91a3-59" data-name="b15e38e4-df09-4b0d-a168-614e4bbd91a3"><g id="a1460a2f-8f0f-43a3-91b6-25b00ba97723-59" data-name="a1460a2f-8f0f-43a3-91b6-25b00ba97723"><ellipse class="cls-4" cx="213.93" cy="146.34" rx="13.36" ry="5.82"/><ellipse class="cls-5" cx="215.85" cy="146.14" rx="13.36" ry="5.82"/></g></g><g id="b15e38e4-df09-4b0d-a168-614e4bbd91a3-60" data-name="b15e38e4-df09-4b0d-a168-614e4bbd91a3"><g id="a1460a2f-8f0f-43a3-91b6-25b00ba97723-60" data-name="a1460a2f-8f0f-43a3-91b6-25b00ba97723"><ellipse class="cls-4" cx="213.93" cy="134.5" rx="13.36" ry="5.82"/><ellipse class="cls-5" cx="215.85" cy="134.3" rx="13.36" ry="5.82"/></g></g><g id="b15e38e4-df09-4b0d-a168-614e4bbd91a3-61" data-name="b15e38e4-df09-4b0d-a168-614e4bbd91a3"><g id="a1460a2f-8f0f-43a3-91b6-25b00ba97723-61" data-name="a1460a2f-8f0f-43a3-91b6-25b00ba97723"><ellipse class="cls-4" cx="120.04" cy="158.18" rx="13.36" ry="5.82"/><ellipse class="cls-5" cx="121.96" cy="157.98" rx="13.36" ry="5.82"/></g></g><g id="b15e38e4-df09-4b0d-a168-614e4bbd91a3-62" data-name="b15e38e4-df09-4b0d-a168-614e4bbd91a3"><g id="a1460a2f-8f0f-43a3-91b6-25b00ba97723-62" data-name="a1460a2f-8f0f-43a3-91b6-25b00ba97723"><ellipse class="cls-4" cx="120.04" cy="146.34" rx="13.36" ry="5.82"/><ellipse class="cls-5" cx="121.96" cy="146.14" rx="13.36" ry="5.82"/></g></g><g id="b15e38e4-df09-4b0d-a168-614e4bbd91a3-63" data-name="b15e38e4-df09-4b0d-a168-614e4bbd91a3"><g id="a1460a2f-8f0f-43a3-91b6-25b00ba97723-63" data-name="a1460a2f-8f0f-43a3-91b6-25b00ba97723"><ellipse class="cls-4" cx="120.04" cy="134.5" rx="13.36" ry="5.82"/><ellipse class="cls-5" cx="121.96" cy="134.3" rx="13.36" ry="5.82"/></g></g><g id="b15e38e4-df09-4b0d-a168-614e4bbd91a3-64" data-name="b15e38e4-df09-4b0d-a168-614e4bbd91a3"><g id="a1460a2f-8f0f-43a3-91b6-25b00ba97723-64" data-name="a1460a2f-8f0f-43a3-91b6-25b00ba97723"><ellipse class="cls-4" cx="120.04" cy="122.66" rx="13.36" ry="5.82"/><ellipse class="cls-5" cx="121.96" cy="122.46" rx="13.36" ry="5.82"/></g></g><rect class="cls-6" x="295.13" y="161.5" width="43" height="25"/><path class="cls-7" d="M87.43,193.63a6.47,6.47,0,0,1,2.89.62,6,6,0,0,1,2.09,1.68,7.93,7.93,0,0,1,1.26,2.39,8.66,8.66,0,0,1,.43,2.73,13.45,13.45,0,0,1-.31,2.74,18.1,18.1,0,0,1-1,3.07,15.07,15.07,0,0,1-1.68,3,13,13,0,0,1-2.47,2.57,10.84,10.84,0,0,1-3.31,1.77,1.65,1.65,0,0,1-.46.08,1.27,1.27,0,0,1-.82-.28,1.16,1.16,0,0,1-.1-1.57,1.54,1.54,0,0,1,.69-.45,9.91,9.91,0,0,0,3-1.77,12.32,12.32,0,0,0,2.47-2.8A9.4,9.4,0,0,0,91.51,204l.69-.23A6,6,0,0,1,91,205.2a6.47,6.47,0,0,1-1.74,1.11,5.43,5.43,0,0,1-2.2.43,5.37,5.37,0,0,1-2.36-.53,6.49,6.49,0,0,1-1.93-1.45,7,7,0,0,1-1.3-2.12,6.56,6.56,0,0,1-.48-2.48,6.33,6.33,0,0,1,.85-3.25,6.72,6.72,0,0,1,2.31-2.37A6.07,6.07,0,0,1,87.43,193.63Zm0,2.16a3.94,3.94,0,0,0-2.11.56,4,4,0,0,0-1.48,1.54,4.49,4.49,0,0,0-.55,2.27,4.92,4.92,0,0,0,.49,2.17A3.83,3.83,0,0,0,85.22,204a3.77,3.77,0,0,0,2.15.61A4.26,4.26,0,0,0,89.7,204a4.06,4.06,0,0,0,1.51-1.62,4.68,4.68,0,0,0,.53-2.23,4.48,4.48,0,0,0-.51-2.14,4.2,4.2,0,0,0-1.48-1.57A4.27,4.27,0,0,0,87.46,195.79Z"/><path class="cls-7" d="M100.83,214.19a1.22,1.22,0,0,1-.83-.31,1,1,0,0,1-.38-.79,1.19,1.19,0,0,1,.12-.51l7.44-17,.32.52H98.24a1.07,1.07,0,0,1-.78-.31,1.06,1.06,0,0,1-.31-.78,1,1,0,0,1,.31-.76,1.1,1.1,0,0,1,.78-.3h10.38a1.2,1.2,0,0,1,.86.3,1,1,0,0,1,.32.79,1.25,1.25,0,0,1-.12.54l-7.79,17.86a.91.91,0,0,1-.41.53A1.29,1.29,0,0,1,100.83,214.19Z"/><path class="cls-7" d="M122.73,214.1a1.06,1.06,0,0,1-.81-.34,1.14,1.14,0,0,1-.34-.84V197.2l.46.17-6.87,9-.11-.35h10.52a1.08,1.08,0,0,1,1.09,1.1,1,1,0,0,1-.31.73,1.09,1.09,0,0,1-.78.3h-12.1a1.11,1.11,0,0,1-.79-.34,1.09,1.09,0,0,1-.36-.81,1,1,0,0,1,.29-.75l9.17-11.78a.93.93,0,0,1,.46-.36,1.32,1.32,0,0,1,.51-.1,1.07,1.07,0,0,1,.81.33,1.13,1.13,0,0,1,.31.82v17.79a1.17,1.17,0,0,1-.33.84A1.08,1.08,0,0,1,122.73,214.1Z"/><path class="cls-7" d="M142.74,214.22a8.07,8.07,0,0,1-2.34-.36,6,6,0,0,1-2.08-1.08,1.56,1.56,0,0,1-.38-.52,1.53,1.53,0,0,1-.14-.6,1.08,1.08,0,0,1,1.09-1,1.53,1.53,0,0,1,.86.37,5.1,5.1,0,0,0,1.41.78,4.51,4.51,0,0,0,1.55.29,5.68,5.68,0,0,0,2.71-.63,4.92,4.92,0,0,0,1.85-1.74,4.7,4.7,0,0,0,.68-2.49,4.46,4.46,0,0,0-.59-2.31,4,4,0,0,0-1.64-1.54,5.06,5.06,0,0,0-2.4-.55,5.13,5.13,0,0,0-1.81.3,10.18,10.18,0,0,0-1.38.62,2.15,2.15,0,0,1-.95.32,1.32,1.32,0,0,1-.86-.25,1.1,1.1,0,0,1-.42-.62,1.45,1.45,0,0,1,0-.68L139,194.9a1.18,1.18,0,0,1,1.18-.92h8.53a1.08,1.08,0,0,1,1.1,1.09,1.08,1.08,0,0,1-.32.78,1.06,1.06,0,0,1-.78.31h-8l.29-.26L140,202.54l-.46-.6a4.25,4.25,0,0,1,1-.58,8.42,8.42,0,0,1,1.49-.48,7.27,7.27,0,0,1,1.74-.21,6.67,6.67,0,0,1,3.35.85,6.28,6.28,0,0,1,2.34,2.32,6.47,6.47,0,0,1,.87,3.36,6.93,6.93,0,0,1-.56,2.8,6.69,6.69,0,0,1-1.59,2.23,7.33,7.33,0,0,1-2.38,1.47A8.44,8.44,0,0,1,142.74,214.22Z"/><path class="cls-7" d="M154.87,210.77a1.15,1.15,0,0,1,.39.07,1.55,1.55,0,0,1,.48.3,4.58,4.58,0,0,0,1.35.83,5,5,0,0,0,4-.24,4.44,4.44,0,0,0,1.68-1.6,4.32,4.32,0,0,0,.65-2.38,4.05,4.05,0,0,0-.65-2.4,3.77,3.77,0,0,0-1.64-1.38,5,5,0,0,0-2.08-.45,4.38,4.38,0,0,0-.75.06,5.51,5.51,0,0,0-.64.14,2,2,0,0,1-.56.09.88.88,0,0,1-.72-.32,1.14,1.14,0,0,1-.26-.77,1.46,1.46,0,0,1,.08-.48,1.75,1.75,0,0,1,.29-.44l5.64-6.21.46.54h-8.17a1,1,0,0,1-.77-.31,1,1,0,0,1-.32-.78,1,1,0,0,1,.32-.76,1.08,1.08,0,0,1,.77-.3h9.37a1.09,1.09,0,0,1,.92.36,1.19,1.19,0,0,1,.29.79,1,1,0,0,1-.11.47,2.34,2.34,0,0,1-.32.42L159,202.26l-.66-.58a1.84,1.84,0,0,1,.66-.21,4.67,4.67,0,0,1,.87-.11,5.82,5.82,0,0,1,3,.78,5.73,5.73,0,0,1,2.15,2.19,6.45,6.45,0,0,1,.81,3.27,6.71,6.71,0,0,1-1,3.6,6.36,6.36,0,0,1-2.6,2.35,8.08,8.08,0,0,1-3.72.84,7.27,7.27,0,0,1-2.26-.36,5.44,5.44,0,0,1-1.91-1.05,1.16,1.16,0,0,1-.51-.46,1.25,1.25,0,0,1-.13-.52,1.29,1.29,0,0,1,.33-.83A1,1,0,0,1,154.87,210.77Z"/><path class="cls-7" d="M179.14,214.1a1.08,1.08,0,0,1-.82-.34,1.17,1.17,0,0,1-.33-.84V197.2l.46.17-6.87,9-.12-.35H182a1.09,1.09,0,0,1,1.1,1.1,1,1,0,0,1-.32.73,1.09,1.09,0,0,1-.78.3h-12.1a1.11,1.11,0,0,1-.79-.34,1.1,1.1,0,0,1-.07-1.56l9.17-11.78a1,1,0,0,1,.46-.36,1.37,1.37,0,0,1,.52-.1,1.06,1.06,0,0,1,.8.33,1.14,1.14,0,0,1,.32.82v17.79a1.17,1.17,0,0,1-.33.84A1.09,1.09,0,0,1,179.14,214.1Z"/><path class="cls-7" d="M442.75,193.63a6.5,6.5,0,0,1,2.89.62,5.9,5.9,0,0,1,2.08,1.68,7.73,7.73,0,0,1,1.27,2.39,9,9,0,0,1,.43,2.73,13.51,13.51,0,0,1-.32,2.74,17.19,17.19,0,0,1-1,3.07,15.07,15.07,0,0,1-1.68,3,13.09,13.09,0,0,1-2.48,2.57,10.9,10.9,0,0,1-3.3,1.77,1.71,1.71,0,0,1-.46.08,1.27,1.27,0,0,1-.82-.28,1.16,1.16,0,0,1-.1-1.57A1.54,1.54,0,0,1,440,212a10,10,0,0,0,3-1.77,12.36,12.36,0,0,0,2.48-2.8,9.58,9.58,0,0,0,1.39-3.42l.69-.23a6.26,6.26,0,0,1-1.21,1.45,6.47,6.47,0,0,1-1.74,1.11,5.4,5.4,0,0,1-2.2.43,5.33,5.33,0,0,1-2.35-.53,6.49,6.49,0,0,1-1.93-1.45,7,7,0,0,1-1.31-2.12,6.75,6.75,0,0,1-.47-2.48,6.33,6.33,0,0,1,.85-3.25,6.56,6.56,0,0,1,2.31-2.37A6.07,6.07,0,0,1,442.75,193.63Zm0,2.16a4,4,0,0,0-2.12.56,4.13,4.13,0,0,0-1.48,1.54,4.59,4.59,0,0,0-.54,2.27,4.92,4.92,0,0,0,.49,2.17,3.87,3.87,0,0,0,1.4,1.62,3.82,3.82,0,0,0,2.16.61A4.28,4.28,0,0,0,445,204a4.13,4.13,0,0,0,1.51-1.62,4.79,4.79,0,0,0,.53-2.23,4.37,4.37,0,0,0-.52-2.14,4.12,4.12,0,0,0-1.48-1.57A4.21,4.21,0,0,0,442.78,195.79Z"/><path class="cls-7" d="M456.14,214.19a1.26,1.26,0,0,1-.83-.31,1,1,0,0,1-.37-.79,1.17,1.17,0,0,1,.11-.51l7.45-17,.31.52h-9.25a1.08,1.08,0,0,1-1.1-1.09,1,1,0,0,1,.32-.76,1.09,1.09,0,0,1,.78-.3h10.37a1.21,1.21,0,0,1,.87.3,1,1,0,0,1,.31.79,1.24,1.24,0,0,1-.11.54l-7.79,17.86a1,1,0,0,1-.42.53A1.26,1.26,0,0,1,456.14,214.19Z"/><path class="cls-7" d="M478.05,214.1a1.08,1.08,0,0,1-.82-.34,1.17,1.17,0,0,1-.33-.84V197.2l.46.17-6.87,9-.12-.35H480.9a1.09,1.09,0,0,1,1.09,1.1,1,1,0,0,1-.32.73,1.08,1.08,0,0,1-.77.3H468.79a1.13,1.13,0,0,1-.79-.34,1.1,1.1,0,0,1-.07-1.56l9.17-11.78a1,1,0,0,1,.46-.36,1.37,1.37,0,0,1,.52-.1,1.06,1.06,0,0,1,.8.33,1.14,1.14,0,0,1,.32.82v17.79a1.17,1.17,0,0,1-.33.84A1.08,1.08,0,0,1,478.05,214.1Z"/><path class="cls-7" d="M498.06,214.22a8.14,8.14,0,0,1-2.35-.36,6.05,6.05,0,0,1-2.08-1.08,1.53,1.53,0,0,1-.37-.52,1.4,1.4,0,0,1-.15-.6,1,1,0,0,1,.31-.68,1,1,0,0,1,.79-.33,1.58,1.58,0,0,1,.86.37,5.1,5.1,0,0,0,1.41.78,4.43,4.43,0,0,0,1.55.29,5.61,5.61,0,0,0,2.7-.63,4.87,4.87,0,0,0,1.86-1.74,4.69,4.69,0,0,0,.67-2.49,4.46,4.46,0,0,0-.59-2.31,3.93,3.93,0,0,0-1.64-1.54,5.06,5.06,0,0,0-2.4-.55,5.17,5.17,0,0,0-1.81.3,11.44,11.44,0,0,0-1.38.62,2.11,2.11,0,0,1-.95.32,1.33,1.33,0,0,1-.86-.25,1.15,1.15,0,0,1-.42-.62,1.59,1.59,0,0,1,0-.68l1.12-7.62a1.21,1.21,0,0,1,.4-.65,1.17,1.17,0,0,1,.78-.27H504a1.07,1.07,0,0,1,.78.31,1.06,1.06,0,0,1,.31.78,1.06,1.06,0,0,1-1.09,1.09h-8l.28-.26-1.06,6.64-.46-.6a3.94,3.94,0,0,1,1-.58,8.28,8.28,0,0,1,1.5-.48,7.15,7.15,0,0,1,1.74-.21,6.7,6.7,0,0,1,3.35.85,6.43,6.43,0,0,1,2.34,2.32,6.56,6.56,0,0,1,.86,3.36A6.77,6.77,0,0,1,505,210a6.52,6.52,0,0,1-1.58,2.23A7.38,7.38,0,0,1,501,213.7,8.42,8.42,0,0,1,498.06,214.22Z"/><path class="cls-7" d="M510.19,210.77a1.24,1.24,0,0,1,.39.07,1.52,1.52,0,0,1,.47.3,4.85,4.85,0,0,0,1.35.83,5,5,0,0,0,4.06-.24,4.46,4.46,0,0,0,2.33-4,4.12,4.12,0,0,0-.65-2.4A3.83,3.83,0,0,0,516.5,204a5,5,0,0,0-2.08-.45,4.38,4.38,0,0,0-.75.06,5.7,5.7,0,0,0-.65.14,2,2,0,0,1-.56.09.89.89,0,0,1-.72-.32,1.19,1.19,0,0,1-.26-.77,1.24,1.24,0,0,1,.09-.48,1.51,1.51,0,0,1,.29-.44l5.63-6.21.46.54h-8.16A1.06,1.06,0,0,1,508.7,195a1,1,0,0,1,.31-.76,1.09,1.09,0,0,1,.78-.3h9.37a1.11,1.11,0,0,1,.92.36,1.24,1.24,0,0,1,.29.79.94.94,0,0,1-.12.47,2.26,2.26,0,0,1-.31.42l-5.61,6.24-.66-.58a1.7,1.7,0,0,1,.66-.21,4.48,4.48,0,0,1,.86-.11,5.81,5.81,0,0,1,5.12,3,6.44,6.44,0,0,1,.8,3.27,6.71,6.71,0,0,1-.94,3.6,6.39,6.39,0,0,1-2.61,2.35,8.08,8.08,0,0,1-3.72.84,7.27,7.27,0,0,1-2.26-.36,5.62,5.62,0,0,1-1.91-1.05,1.13,1.13,0,0,1-.5-.46A1.11,1.11,0,0,1,509,212a1.29,1.29,0,0,1,.33-.83A1,1,0,0,1,510.19,210.77Z"/><path class="cls-7" d="M534.45,214.1a1.09,1.09,0,0,1-.82-.34,1.17,1.17,0,0,1-.33-.84V197.2l.46.17-6.87,9-.11-.35H537.3a1.08,1.08,0,0,1,1.09,1.1,1,1,0,0,1-.31.73,1.09,1.09,0,0,1-.78.3H525.2a1.11,1.11,0,0,1-.79-.34,1.09,1.09,0,0,1-.36-.81,1,1,0,0,1,.29-.75l9.17-11.78a.93.93,0,0,1,.46-.36,1.32,1.32,0,0,1,.51-.1,1.07,1.07,0,0,1,.81.33,1.13,1.13,0,0,1,.31.82v17.79a1.17,1.17,0,0,1-.33.84A1.08,1.08,0,0,1,534.45,214.1Z"/></g></g></svg>