<svg xmlns="http://www.w3.org/2000/svg" viewBox="0 0 948.13 176.66"><defs><style>.cls-1{fill:#faf3a3;}.cls-2{fill:#363026;}.cls-3{fill:#dfd9d0;}.cls-4{fill:#1f8ebe;}.cls-5{fill:#f9f3e9;}</style></defs><g id="Layer_2" data-name="Layer 2"><g id="Layer_1-2" data-name="Layer 1"><rect class="cls-1" x="110.52" y="26.54" width="109.53" height="149.09"/><path class="cls-2" d="M53,47.58a13.65,13.65,0,0,1,6.12,1.31,12.77,12.77,0,0,1,4.42,3.57,16.55,16.55,0,0,1,2.68,5,18.55,18.55,0,0,1,.91,5.79,28.41,28.41,0,0,1-.67,5.82,36.62,36.62,0,0,1-2,6.48,31.41,31.41,0,0,1-3.56,6.34,27,27,0,0,1-5.24,5.45,23.44,23.44,0,0,1-7,3.75,3.14,3.14,0,0,1-1,.18,2.75,2.75,0,0,1-1.74-.61,2.45,2.45,0,0,1-.21-3.32,3.17,3.17,0,0,1,1.46-.94,21.61,21.61,0,0,0,6.31-3.75,27,27,0,0,0,5.24-5.94,20.09,20.09,0,0,0,3-7.25L63.09,69a13.07,13.07,0,0,1-2.56,3.08,13.23,13.23,0,0,1-3.68,2.35,11.74,11.74,0,0,1-4.66.91,11.31,11.31,0,0,1-5-1.13,13.37,13.37,0,0,1-4.08-3.07,14.59,14.59,0,0,1-2.77-4.48,14.11,14.11,0,0,1-1-5.27,13.55,13.55,0,0,1,1.79-6.88,14.24,14.24,0,0,1,4.91-5A12.92,12.92,0,0,1,53,47.58ZM53,52.15a8.49,8.49,0,0,0-7.61,4.45,9.7,9.7,0,0,0-1.16,4.81,10.37,10.37,0,0,0,1,4.6,8.31,8.31,0,0,0,3,3.44,8.16,8.16,0,0,0,4.57,1.28,9.21,9.21,0,0,0,4.93-1.28A8.69,8.69,0,0,0,61,66a10.09,10.09,0,0,0,1.13-4.72A9.44,9.44,0,0,0,61,56.75a8.76,8.76,0,0,0-3.14-3.32A8.94,8.94,0,0,0,53,52.15Z"/><path class="cls-2" d="M53,121a13.51,13.51,0,0,1,6.12,1.31,12.63,12.63,0,0,1,4.42,3.56,16.55,16.55,0,0,1,2.68,5,18.55,18.55,0,0,1,.91,5.79,28.34,28.34,0,0,1-.67,5.82,37,37,0,0,1-2,6.49,31.62,31.62,0,0,1-3.56,6.33,27,27,0,0,1-5.24,5.45,23.22,23.22,0,0,1-7,3.75,3.14,3.14,0,0,1-1,.18,2.7,2.7,0,0,1-1.74-.61,2.21,2.21,0,0,1-.76-1.83,2.27,2.27,0,0,1,.55-1.49,3.25,3.25,0,0,1,1.46-.94,21.18,21.18,0,0,0,6.31-3.75,26.72,26.72,0,0,0,5.24-5.94,20.09,20.09,0,0,0,3-7.25l1.46-.48a13.66,13.66,0,0,1-6.24,5.42,11.57,11.57,0,0,1-4.66.91,11.3,11.3,0,0,1-5-1.12,13.57,13.57,0,0,1-4.08-3.08,14.59,14.59,0,0,1-2.77-4.48,14.11,14.11,0,0,1-1-5.27A13.58,13.58,0,0,1,41.13,128a14.24,14.24,0,0,1,4.91-5A13,13,0,0,1,53,121Zm.06,4.56A8.49,8.49,0,0,0,45.43,130a9.73,9.73,0,0,0-1.16,4.81,10.37,10.37,0,0,0,1,4.6,8.31,8.31,0,0,0,3,3.44,8.08,8.08,0,0,0,4.57,1.28,9.12,9.12,0,0,0,4.93-1.28,8.69,8.69,0,0,0,3.2-3.44,10.06,10.06,0,0,0,1.13-4.72,9.47,9.47,0,0,0-1.1-4.54,8.84,8.84,0,0,0-3.14-3.32A8.94,8.94,0,0,0,53,125.58Z"/><path class="cls-2" d="M161.7,91.14a2.79,2.79,0,0,1-1.77-.64,2.06,2.06,0,0,1-.79-1.68,2.77,2.77,0,0,1,.24-1.1l15.78-35.93.67,1.09H156.22a2.24,2.24,0,0,1-1.65-.67,2.2,2.2,0,0,1-.67-1.64,2.14,2.14,0,0,1,.67-1.62,2.34,2.34,0,0,1,1.65-.64h22A2.55,2.55,0,0,1,180,49a2.21,2.21,0,0,1,.67,1.68,2.87,2.87,0,0,1-.24,1.16L164,89.61a2,2,0,0,1-.88,1.13A2.6,2.6,0,0,1,161.7,91.14Z"/><path class="cls-2" d="M161.7,164.57a2.79,2.79,0,0,1-1.77-.64,2.06,2.06,0,0,1-.79-1.68,2.69,2.69,0,0,1,.24-1.09l15.78-35.94.67,1.1H156.22a2.28,2.28,0,0,1-1.65-.67,2.24,2.24,0,0,1-.67-1.65,2.11,2.11,0,0,1,.67-1.61,2.29,2.29,0,0,1,1.65-.64h22a2.5,2.5,0,0,1,1.83.64,2.18,2.18,0,0,1,.67,1.67,2.87,2.87,0,0,1-.24,1.16L164,163.05a2.05,2.05,0,0,1-.88,1.12A2.51,2.51,0,0,1,161.7,164.57Z"/><path class="cls-2" d="M282.25,91a2.27,2.27,0,0,1-1.73-.73,2.44,2.44,0,0,1-.7-1.76V55.14l1,.36-14.56,19-.24-.73h22.29a2.29,2.29,0,0,1,2.32,2.31,2.07,2.07,0,0,1-.67,1.55,2.29,2.29,0,0,1-1.65.64H262.64a2.37,2.37,0,0,1-1.68-.73,2.33,2.33,0,0,1-.15-3.29l19.43-25a2.26,2.26,0,0,1,1-.76,3,3,0,0,1,1.09-.22A2.27,2.27,0,0,1,284,49a2.38,2.38,0,0,1,.67,1.73V88.46a2.48,2.48,0,0,1-.7,1.76A2.31,2.31,0,0,1,282.25,91Z"/><path class="cls-2" d="M282.25,164.38a2.27,2.27,0,0,1-1.73-.73,2.42,2.42,0,0,1-.7-1.76V128.57l1,.36-14.56,19-.24-.73h22.29a2.29,2.29,0,0,1,2.32,2.31,2.11,2.11,0,0,1-.67,1.56,2.34,2.34,0,0,1-1.65.64H262.64A2.39,2.39,0,0,1,261,151a2.3,2.3,0,0,1-.76-1.7,2.24,2.24,0,0,1,.61-1.58l19.43-25a2.34,2.34,0,0,1,1-.76,3,3,0,0,1,1.09-.21,2.26,2.26,0,0,1,1.71.7,2.39,2.39,0,0,1,.67,1.73v37.71a2.46,2.46,0,0,1-.7,1.76A2.31,2.31,0,0,1,282.25,164.38Z"/><path class="cls-2" d="M381.84,91.2a17.45,17.45,0,0,1-5-.76,12.76,12.76,0,0,1-4.41-2.29,3.16,3.16,0,0,1-.8-1.1,3.09,3.09,0,0,1-.3-1.27,2.13,2.13,0,0,1,.64-1.44,2.18,2.18,0,0,1,1.67-.7,3.18,3.18,0,0,1,1.83.8,11.25,11.25,0,0,0,3,1.64,9.29,9.29,0,0,0,3.29.61,11.93,11.93,0,0,0,5.72-1.34,10,10,0,0,0,5.36-8.95,9.46,9.46,0,0,0-1.25-4.91,8.59,8.59,0,0,0-3.47-3.26,11.89,11.89,0,0,0-8.92-.52A24.49,24.49,0,0,0,376.29,69a4.4,4.4,0,0,1-2,.67,2.92,2.92,0,0,1-1.82-.51,2.46,2.46,0,0,1-.89-1.31,3.36,3.36,0,0,1-.09-1.46l2.38-16.15a2.55,2.55,0,0,1,.85-1.37,2.45,2.45,0,0,1,1.64-.58h18.1a2.27,2.27,0,0,1,1.64.67,2.24,2.24,0,0,1,.67,1.65,2.2,2.2,0,0,1-.67,1.64,2.23,2.23,0,0,1-1.64.67H377.57l.61-.54-2.25,14.07-1-1.28A7.9,7.9,0,0,1,377,64a18.42,18.42,0,0,1,3.17-1,16.19,16.19,0,0,1,3.69-.42,14.07,14.07,0,0,1,7.09,1.79,13.45,13.45,0,0,1,5,4.91,13.74,13.74,0,0,1,1.82,7.12,14.62,14.62,0,0,1-1.18,5.94A14.07,14.07,0,0,1,393.2,87a15.29,15.29,0,0,1-5.06,3.11A17.67,17.67,0,0,1,381.84,91.2Z"/><path class="cls-2" d="M381.84,164.63a17.11,17.11,0,0,1-5-.76,12.76,12.76,0,0,1-4.41-2.29,3.22,3.22,0,0,1-.8-1.09,3.17,3.17,0,0,1-.3-1.28,2.09,2.09,0,0,1,.64-1.43,2.15,2.15,0,0,1,1.67-.7,3.16,3.16,0,0,1,1.83.79,11,11,0,0,0,3,1.64,9.29,9.29,0,0,0,3.29.61,11.93,11.93,0,0,0,5.72-1.34,9.93,9.93,0,0,0,5.36-8.95,9.48,9.48,0,0,0-1.25-4.91,8.5,8.5,0,0,0-3.47-3.25,11.76,11.76,0,0,0-8.92-.52,21.67,21.67,0,0,0-2.93,1.31,4.52,4.52,0,0,1-2,.67,2.86,2.86,0,0,1-1.82-.52,2.46,2.46,0,0,1-.89-1.31,3.36,3.36,0,0,1-.09-1.46l2.38-16.14a2.48,2.48,0,0,1,.85-1.37,2.4,2.4,0,0,1,1.64-.58h18.1a2.23,2.23,0,0,1,1.64.67,2.2,2.2,0,0,1,.67,1.64,2.24,2.24,0,0,1-.67,1.65,2.27,2.27,0,0,1-1.64.67H377.57l.61-.55-2.25,14.07-1-1.28a7.9,7.9,0,0,1,2-1.22,18.44,18.44,0,0,1,3.17-1,15.65,15.65,0,0,1,3.69-.43,14,14,0,0,1,7.09,1.8,13.35,13.35,0,0,1,5,4.9,13.78,13.78,0,0,1,1.82,7.13,14.69,14.69,0,0,1-1.18,5.94,14.17,14.17,0,0,1-3.35,4.72,15.27,15.27,0,0,1-5.06,3.1A17.67,17.67,0,0,1,381.84,164.63Z"/><path class="cls-2" d="M480.92,83.89a2.65,2.65,0,0,1,.82.15,3,3,0,0,1,1,.64,9.72,9.72,0,0,0,2.86,1.77,10.6,10.6,0,0,0,8.59-.52,9.4,9.4,0,0,0,4.93-8.44,8.75,8.75,0,0,0-1.37-5.08,8.31,8.31,0,0,0-3.47-2.93,10.67,10.67,0,0,0-4.42-.94,9.76,9.76,0,0,0-1.58.12,12.13,12.13,0,0,0-1.37.3,4.08,4.08,0,0,1-1.19.19,1.87,1.87,0,0,1-1.52-.67,2.51,2.51,0,0,1-.55-1.65,2.7,2.7,0,0,1,.18-1,3.44,3.44,0,0,1,.61-1l11.94-13.15,1,1.15h-17.3a2.29,2.29,0,0,1-2.31-2.31,2.14,2.14,0,0,1,.67-1.62,2.31,2.31,0,0,1,1.64-.64h19.86a2.34,2.34,0,0,1,1.95.77,2.57,2.57,0,0,1,.61,1.67,2.15,2.15,0,0,1-.24,1,4.11,4.11,0,0,1-.67.88L489.69,65.86l-1.4-1.22a3.91,3.91,0,0,1,1.4-.46,10,10,0,0,1,1.83-.21,12.44,12.44,0,0,1,6.27,1.64,12.24,12.24,0,0,1,4.57,4.63,13.84,13.84,0,0,1,1.7,7,14.1,14.1,0,0,1-2,7.61,13.53,13.53,0,0,1-5.51,5,17.34,17.34,0,0,1-7.89,1.76,15.36,15.36,0,0,1-4.78-.76,11.85,11.85,0,0,1-4.05-2.22,2.37,2.37,0,0,1-1.06-1,2.33,2.33,0,0,1-.28-1.09,2.75,2.75,0,0,1,.7-1.77A2.17,2.17,0,0,1,480.92,83.89Z"/><path class="cls-2" d="M480.92,157.32a2.65,2.65,0,0,1,.82.15,3.2,3.2,0,0,1,1,.64,9.72,9.72,0,0,0,2.86,1.77,9.83,9.83,0,0,0,3.77.67,10,10,0,0,0,4.82-1.19,9.4,9.4,0,0,0,4.93-8.44,8.75,8.75,0,0,0-1.37-5.08,8.31,8.31,0,0,0-3.47-2.93,10.67,10.67,0,0,0-4.42-.94,9.76,9.76,0,0,0-1.58.12,10.24,10.24,0,0,0-1.37.31,4.41,4.41,0,0,1-1.19.18,1.84,1.84,0,0,1-1.52-.67,2.51,2.51,0,0,1-.55-1.65,2.7,2.7,0,0,1,.18-1,3.44,3.44,0,0,1,.61-.95l11.94-13.15,1,1.16h-17.3a2.29,2.29,0,0,1-2.31-2.32,2.11,2.11,0,0,1,.67-1.61,2.27,2.27,0,0,1,1.64-.64h19.86a2.34,2.34,0,0,1,1.95.76,2.59,2.59,0,0,1,.61,1.67,2.15,2.15,0,0,1-.24,1,4.11,4.11,0,0,1-.67.88l-11.88,13.22-1.4-1.22a3.91,3.91,0,0,1,1.4-.46,10,10,0,0,1,1.83-.21,12.34,12.34,0,0,1,6.27,1.65,12.22,12.22,0,0,1,4.57,4.62,13.87,13.87,0,0,1,1.7,7,14.1,14.1,0,0,1-2,7.61,13.46,13.46,0,0,1-5.51,5,17.21,17.21,0,0,1-7.89,1.76,15.36,15.36,0,0,1-4.78-.76,11.69,11.69,0,0,1-4.05-2.22,2.36,2.36,0,0,1-1.06-1,2.39,2.39,0,0,1-.28-1.1,2.75,2.75,0,0,1,.7-1.77A2.17,2.17,0,0,1,480.92,157.32Z"/><path class="cls-2" d="M607.32,91a2.31,2.31,0,0,1-1.74-.73,2.48,2.48,0,0,1-.7-1.76V55.14l1,.36-14.56,19-.24-.73h22.29a2.29,2.29,0,0,1,2.32,2.31,2.07,2.07,0,0,1-.67,1.55,2.29,2.29,0,0,1-1.65.64H587.71a2.37,2.37,0,0,1-1.68-.73,2.33,2.33,0,0,1-.15-3.29l19.43-25a2.2,2.2,0,0,1,1-.76,3,3,0,0,1,1.09-.22,2.27,2.27,0,0,1,1.71.71,2.42,2.42,0,0,1,.67,1.73V88.46a2.48,2.48,0,0,1-.7,1.76A2.31,2.31,0,0,1,607.32,91Z"/><path class="cls-2" d="M607.32,164.38a2.31,2.31,0,0,1-1.74-.73,2.46,2.46,0,0,1-.7-1.76V128.57l1,.36-14.56,19-.24-.73h22.29a2.29,2.29,0,0,1,2.32,2.31,2.11,2.11,0,0,1-.67,1.56,2.34,2.34,0,0,1-1.65.64H587.71A2.39,2.39,0,0,1,586,151a2.31,2.31,0,0,1-.15-3.28l19.43-25a2.28,2.28,0,0,1,1-.76,3,3,0,0,1,1.09-.21,2.26,2.26,0,0,1,1.71.7,2.43,2.43,0,0,1,.67,1.73v37.71a2.46,2.46,0,0,1-.7,1.76A2.31,2.31,0,0,1,607.32,164.38Z"/><path class="cls-2" d="M745.48,44.58a13.65,13.65,0,0,1,6.12,1.31A12.77,12.77,0,0,1,756,49.46a16.33,16.33,0,0,1,2.68,5,18.55,18.55,0,0,1,.91,5.79,28.41,28.41,0,0,1-.67,5.82,35,35,0,0,1-2,6.48,31.41,31.41,0,0,1-3.56,6.34,27,27,0,0,1-5.24,5.45,23.39,23.39,0,0,1-7,3.75,3.2,3.2,0,0,1-1,.18,2.71,2.71,0,0,1-1.73-.61,2.21,2.21,0,0,1-.77-1.83,2.25,2.25,0,0,1,.55-1.49,3.22,3.22,0,0,1,1.46-.94,21.61,21.61,0,0,0,6.31-3.75,27,27,0,0,0,5.24-5.94,20.09,20.09,0,0,0,3-7.25l1.46-.49A13.27,13.27,0,0,1,753,69.1a13.44,13.44,0,0,1-3.69,2.35,11.7,11.7,0,0,1-4.66.91,11.24,11.24,0,0,1-5-1.13,13.29,13.29,0,0,1-4.09-3.07,14.79,14.79,0,0,1-2.77-4.48,14.11,14.11,0,0,1-1-5.27,13.46,13.46,0,0,1,1.8-6.88,14.13,14.13,0,0,1,4.9-5A12.92,12.92,0,0,1,745.48,44.58Zm.06,4.57a8.54,8.54,0,0,0-4.47,1.19,8.63,8.63,0,0,0-3.14,3.26,9.7,9.7,0,0,0-1.16,4.81,10.5,10.5,0,0,0,1,4.6,8.31,8.31,0,0,0,3,3.44,8.16,8.16,0,0,0,4.57,1.28,9.21,9.21,0,0,0,4.93-1.28,8.69,8.69,0,0,0,3.2-3.44,10.09,10.09,0,0,0,1.13-4.72,9.44,9.44,0,0,0-1.1-4.54,8.74,8.74,0,0,0-3.13-3.32A9,9,0,0,0,745.54,49.15Z"/><path class="cls-2" d="M773.87,88.14a2.79,2.79,0,0,1-1.77-.64,2.06,2.06,0,0,1-.79-1.68,2.77,2.77,0,0,1,.24-1.1l15.78-35.93.67,1.09H768.38a2.29,2.29,0,0,1-2.31-2.31,2.14,2.14,0,0,1,.67-1.62,2.31,2.31,0,0,1,1.64-.64h22a2.58,2.58,0,0,1,1.83.64,2.21,2.21,0,0,1,.67,1.68,2.87,2.87,0,0,1-.24,1.16L776.12,86.61a2,2,0,0,1-.88,1.13A2.62,2.62,0,0,1,773.87,88.14Z"/><path class="cls-2" d="M820.28,88a2.31,2.31,0,0,1-1.74-.73,2.48,2.48,0,0,1-.7-1.76V52.14l1,.36-14.56,19-.24-.73h22.29a2.29,2.29,0,0,1,2.31,2.31,2,2,0,0,1-.67,1.55,2.25,2.25,0,0,1-1.64.64H800.67a2.37,2.37,0,0,1-1.68-.73,2.33,2.33,0,0,1-.15-3.29l19.43-25a2.24,2.24,0,0,1,1-.76,3.12,3.12,0,0,1,1.1-.22,2.27,2.27,0,0,1,1.71.71,2.42,2.42,0,0,1,.67,1.73V85.46a2.48,2.48,0,0,1-.7,1.76A2.31,2.31,0,0,1,820.28,88Z"/><path class="cls-2" d="M862.67,88.2a17.38,17.38,0,0,1-5-.76,12.81,12.81,0,0,1-4.42-2.29,3.14,3.14,0,0,1-.79-1.1,3.09,3.09,0,0,1-.3-1.27,2.13,2.13,0,0,1,.64-1.44,2.17,2.17,0,0,1,1.67-.7,3.18,3.18,0,0,1,1.83.8,11.35,11.35,0,0,0,3,1.64,9.37,9.37,0,0,0,3.29.61,12,12,0,0,0,5.73-1.34,10.12,10.12,0,0,0,3.93-3.69,9.93,9.93,0,0,0,1.43-5.26,9.46,9.46,0,0,0-1.25-4.91A8.59,8.59,0,0,0,869,65.23a10.88,10.88,0,0,0-5.09-1.15,11,11,0,0,0-3.84.63A24.28,24.28,0,0,0,857.13,66a4.4,4.4,0,0,1-2,.67,3,3,0,0,1-1.83-.51,2.44,2.44,0,0,1-.88-1.31,3.36,3.36,0,0,1-.09-1.46l2.37-16.15a2.63,2.63,0,0,1,.86-1.37,2.43,2.43,0,0,1,1.64-.58h18.09a2.29,2.29,0,0,1,2.32,2.32,2.29,2.29,0,0,1-2.32,2.31H858.41l.61-.54-2.25,14.07-1-1.28a7.9,7.9,0,0,1,2-1.22,18.14,18.14,0,0,1,3.17-1,16.1,16.1,0,0,1,3.68-.42,14.1,14.1,0,0,1,7.1,1.79,13.35,13.35,0,0,1,5,4.91,13.75,13.75,0,0,1,1.83,7.12,14.46,14.46,0,0,1-1.19,5.94A13.93,13.93,0,0,1,874,84a15.25,15.25,0,0,1-5,3.11A17.68,17.68,0,0,1,862.67,88.2Z"/><path class="cls-2" d="M888.38,80.89a2.65,2.65,0,0,1,.82.15,3,3,0,0,1,1,.64,9.72,9.72,0,0,0,2.86,1.77,10.6,10.6,0,0,0,8.59-.52,9.4,9.4,0,0,0,4.93-8.44,8.75,8.75,0,0,0-1.37-5.08,8.31,8.31,0,0,0-3.47-2.93,10.67,10.67,0,0,0-4.42-.94,9.76,9.76,0,0,0-1.58.12,12.13,12.13,0,0,0-1.37.3,4.08,4.08,0,0,1-1.19.19,1.87,1.87,0,0,1-1.52-.67,2.51,2.51,0,0,1-.55-1.65,2.7,2.7,0,0,1,.18-1,3.44,3.44,0,0,1,.61-.95l11.94-13.15,1,1.15h-17.3a2.29,2.29,0,0,1-2.31-2.31,2.14,2.14,0,0,1,.67-1.62,2.31,2.31,0,0,1,1.64-.64h19.86a2.34,2.34,0,0,1,2,.77,2.57,2.57,0,0,1,.61,1.67,2.15,2.15,0,0,1-.24,1,4.11,4.11,0,0,1-.67.88L897.15,62.86l-1.4-1.22a3.91,3.91,0,0,1,1.4-.46A10,10,0,0,1,899,61a12.44,12.44,0,0,1,6.27,1.64,12.24,12.24,0,0,1,4.57,4.63,13.84,13.84,0,0,1,1.7,7,14.1,14.1,0,0,1-2,7.61,13.53,13.53,0,0,1-5.51,5,17.34,17.34,0,0,1-7.89,1.76,15.31,15.31,0,0,1-4.78-.76,11.85,11.85,0,0,1-4.05-2.22,2.37,2.37,0,0,1-1.06-1,2.33,2.33,0,0,1-.28-1.09,2.75,2.75,0,0,1,.7-1.77A2.17,2.17,0,0,1,888.38,80.89Z"/><path class="cls-2" d="M939.79,88a2.31,2.31,0,0,1-1.74-.73,2.44,2.44,0,0,1-.7-1.76V52.14l1,.36-14.55,19-.25-.73h22.3a2.29,2.29,0,0,1,2.31,2.31,2,2,0,0,1-.67,1.55,2.27,2.27,0,0,1-1.64.64H920.17a2.35,2.35,0,0,1-1.67-.73,2.33,2.33,0,0,1-.15-3.29l19.43-25a2.24,2.24,0,0,1,1-.76,3.08,3.08,0,0,1,1.1-.22,2.23,2.23,0,0,1,1.7.71,2.38,2.38,0,0,1,.67,1.73V85.46a2.44,2.44,0,0,1-.7,1.76A2.27,2.27,0,0,1,939.79,88Z"/><path class="cls-2" d="M745.48,118a13.51,13.51,0,0,1,6.12,1.31,12.63,12.63,0,0,1,4.42,3.56,16.33,16.33,0,0,1,2.68,5,18.55,18.55,0,0,1,.91,5.79,28.34,28.34,0,0,1-.67,5.82,35.37,35.37,0,0,1-2,6.49,31.62,31.62,0,0,1-3.56,6.33,27,27,0,0,1-5.24,5.45,23.16,23.16,0,0,1-7,3.75,3.2,3.2,0,0,1-1,.18,2.65,2.65,0,0,1-1.73-.61,2.19,2.19,0,0,1-.77-1.83,2.27,2.27,0,0,1,.55-1.49,3.3,3.3,0,0,1,1.46-.94,21.18,21.18,0,0,0,6.31-3.75,26.72,26.72,0,0,0,5.24-5.94,20.09,20.09,0,0,0,3-7.25l1.46-.48a13.52,13.52,0,0,1-6.24,5.42,11.53,11.53,0,0,1-4.66.91,11.23,11.23,0,0,1-5-1.12,13.48,13.48,0,0,1-4.09-3.08,14.79,14.79,0,0,1-2.77-4.48,14.11,14.11,0,0,1-1-5.27,13.49,13.49,0,0,1,1.8-6.88,14.13,14.13,0,0,1,4.9-5A13,13,0,0,1,745.48,118Zm.06,4.56a8.54,8.54,0,0,0-4.47,1.19,8.63,8.63,0,0,0-3.14,3.26,9.73,9.73,0,0,0-1.16,4.81,10.5,10.5,0,0,0,1,4.6,8.31,8.31,0,0,0,3,3.44,8.08,8.08,0,0,0,4.57,1.28,9.12,9.12,0,0,0,4.93-1.28,8.69,8.69,0,0,0,3.2-3.44,10.06,10.06,0,0,0,1.13-4.72,9.47,9.47,0,0,0-1.1-4.54,8.81,8.81,0,0,0-3.13-3.32A9,9,0,0,0,745.54,122.58Z"/><path class="cls-2" d="M773.87,161.57a2.79,2.79,0,0,1-1.77-.64,2.06,2.06,0,0,1-.79-1.68,2.69,2.69,0,0,1,.24-1.09l15.78-35.94.67,1.1H768.38a2.29,2.29,0,0,1-2.31-2.32,2.11,2.11,0,0,1,.67-1.61,2.27,2.27,0,0,1,1.64-.64h22a2.54,2.54,0,0,1,1.83.64,2.18,2.18,0,0,1,.67,1.67,2.87,2.87,0,0,1-.24,1.16l-16.51,37.83a2.05,2.05,0,0,1-.88,1.12A2.54,2.54,0,0,1,773.87,161.57Z"/><path class="cls-2" d="M820.28,161.38a2.31,2.31,0,0,1-1.74-.73,2.46,2.46,0,0,1-.7-1.76V125.57l1,.36-14.56,19-.24-.73h22.29a2.29,2.29,0,0,1,2.31,2.31,2.07,2.07,0,0,1-.67,1.56,2.3,2.3,0,0,1-1.64.64H800.67A2.39,2.39,0,0,1,799,148a2.31,2.31,0,0,1-.15-3.28l19.43-25a2.31,2.31,0,0,1,1-.76,3.11,3.11,0,0,1,1.1-.21,2.26,2.26,0,0,1,1.71.7,2.43,2.43,0,0,1,.67,1.73v37.71a2.46,2.46,0,0,1-.7,1.76A2.31,2.31,0,0,1,820.28,161.38Z"/><path class="cls-2" d="M862.67,161.63a17,17,0,0,1-5-.76,12.81,12.81,0,0,1-4.42-2.29,3.37,3.37,0,0,1-1.09-2.37,2.09,2.09,0,0,1,.64-1.43,2.13,2.13,0,0,1,1.67-.7,3.16,3.16,0,0,1,1.83.79,11.07,11.07,0,0,0,3,1.64,9.37,9.37,0,0,0,3.29.61,12,12,0,0,0,5.73-1.34,10.17,10.17,0,0,0,3.93-3.68,10,10,0,0,0,1.43-5.27,9.48,9.48,0,0,0-1.25-4.91,8.5,8.5,0,0,0-3.47-3.25,11.79,11.79,0,0,0-8.93-.52,21.5,21.5,0,0,0-2.92,1.31,4.52,4.52,0,0,1-2,.67,2.91,2.91,0,0,1-1.83-.52,2.44,2.44,0,0,1-.88-1.31,3.36,3.36,0,0,1-.09-1.46l2.37-16.14a2.55,2.55,0,0,1,.86-1.37,2.38,2.38,0,0,1,1.64-.58h18.09a2.29,2.29,0,0,1,2.32,2.31,2.29,2.29,0,0,1-2.32,2.32H858.41l.61-.55-2.25,14.07-1-1.28a7.9,7.9,0,0,1,2-1.22,18.16,18.16,0,0,1,3.17-1,15.57,15.57,0,0,1,3.68-.43,14,14,0,0,1,7.1,1.8,13.25,13.25,0,0,1,5,4.9,13.79,13.79,0,0,1,1.83,7.13,14.52,14.52,0,0,1-1.19,5.94,14,14,0,0,1-3.35,4.72,15.22,15.22,0,0,1-5,3.1A17.68,17.68,0,0,1,862.67,161.63Z"/><path class="cls-2" d="M888.38,154.32a2.65,2.65,0,0,1,.82.15,3.2,3.2,0,0,1,1,.64,9.72,9.72,0,0,0,2.86,1.77,9.83,9.83,0,0,0,3.77.67,10,10,0,0,0,4.82-1.19,9.4,9.4,0,0,0,4.93-8.44,8.75,8.75,0,0,0-1.37-5.08,8.31,8.31,0,0,0-3.47-2.93,10.67,10.67,0,0,0-4.42-.94,9.76,9.76,0,0,0-1.58.12,10.24,10.24,0,0,0-1.37.31,4.41,4.41,0,0,1-1.19.18,1.84,1.84,0,0,1-1.52-.67,2.51,2.51,0,0,1-.55-1.65,2.7,2.7,0,0,1,.18-1,3.44,3.44,0,0,1,.61-.95l11.94-13.15,1,1.16h-17.3a2.29,2.29,0,0,1-2.31-2.32,2.11,2.11,0,0,1,.67-1.61,2.27,2.27,0,0,1,1.64-.64h19.86a2.34,2.34,0,0,1,2,.76,2.59,2.59,0,0,1,.61,1.67,2.15,2.15,0,0,1-.24,1,4.11,4.11,0,0,1-.67.88l-11.88,13.22-1.4-1.22a3.91,3.91,0,0,1,1.4-.46,10,10,0,0,1,1.83-.21,12.34,12.34,0,0,1,6.27,1.65,12.22,12.22,0,0,1,4.57,4.62,13.87,13.87,0,0,1,1.7,7,14.1,14.1,0,0,1-2,7.61,13.46,13.46,0,0,1-5.51,5,17.21,17.21,0,0,1-7.89,1.76,15.31,15.31,0,0,1-4.78-.76,11.69,11.69,0,0,1-4.05-2.22,2.36,2.36,0,0,1-1.06-1,2.39,2.39,0,0,1-.28-1.1,2.75,2.75,0,0,1,.7-1.77A2.17,2.17,0,0,1,888.38,154.32Z"/><path class="cls-2" d="M939.79,161.38a2.31,2.31,0,0,1-1.74-.73,2.42,2.42,0,0,1-.7-1.76V125.57l1,.36-14.55,19-.25-.73h22.3a2.29,2.29,0,0,1,2.31,2.31,2.07,2.07,0,0,1-.67,1.56,2.31,2.31,0,0,1-1.64.64H920.17a2.36,2.36,0,0,1-1.67-.74,2.31,2.31,0,0,1-.15-3.28l19.43-25a2.31,2.31,0,0,1,1-.76,3.06,3.06,0,0,1,1.1-.21,2.23,2.23,0,0,1,1.7.7,2.39,2.39,0,0,1,.67,1.73v37.71a2.42,2.42,0,0,1-.7,1.76A2.27,2.27,0,0,1,939.79,161.38Z"/><g id="e9b4b12f-dac2-44db-bd92-0ae466672c69"><g id="b877e280-bcde-4d22-aaad-d59d29faa3bc"><polygon class="cls-3" points="657.72 106.4 219.03 106.4 219.03 35.13 221.08 35.13 221.08 104.35 655.67 104.35 655.67 4.73 657.72 4.73 657.72 106.4"/><rect class="cls-4" x="219.36" y="0.01" width="109.5" height="35.12"/><path class="cls-5" d="M270.34,9.73a.76.76,0,0,1,.57.25.86.86,0,0,1,.23.59v8.16a5.41,5.41,0,0,1-.73,2.83,5.47,5.47,0,0,1-2,2,5.53,5.53,0,0,1-7.58-2,5.73,5.73,0,0,1-.72-2.83V10.57a.87.87,0,0,1,.24-.59.83.83,0,0,1,.63-.25.87.87,0,0,1,.84.84v8.16a4,4,0,0,0,.51,2,3.8,3.8,0,0,0,3.29,1.89,4,4,0,0,0,1.93-.5A4.08,4.08,0,0,0,269,20.76a3.86,3.86,0,0,0,.54-2V10.57a.86.86,0,0,1,.2-.59A.71.71,0,0,1,270.34,9.73Z"/><path class="cls-5" d="M275.59,9.73a1.17,1.17,0,0,1,.41.1,1,1,0,0,1,.33.27l5.44,8.21h-.68l5.47-8.21a.78.78,0,0,1,.69-.37.88.88,0,0,1,.57.25.75.75,0,0,1,.25.59v12.7a.86.86,0,0,1-.25.6.89.89,0,0,1-1.23,0,.81.81,0,0,1-.24-.6V12.13l.51.11L282,19.61a1,1,0,0,1-.29.24.69.69,0,0,1-.36.11.7.7,0,0,1-.37-.11,1,1,0,0,1-.31-.24l-4.79-7.37.43-.54V23.27a.9.9,0,0,1-.23.6.71.71,0,0,1-.57.24.69.69,0,0,1-.56-.24.84.84,0,0,1-.22-.6V10.57A.86.86,0,0,1,275,10,.78.78,0,0,1,275.59,9.73Z"/><rect class="cls-4" x="328.87" y="0.01" width="109.5" height="35.12"/><path class="cls-5" d="M389.16,10.7a.67.67,0,0,1,.39.55.86.86,0,0,1-.19.69.6.6,0,0,1-.47.28,1.07,1.07,0,0,1-.58-.12,6.27,6.27,0,0,0-1.45-.64,5.88,5.88,0,0,0-3.86.18,5.2,5.2,0,0,0-1.75,1.18,5.37,5.37,0,0,0-1.15,1.81,6.31,6.31,0,0,0-.41,2.32,6.47,6.47,0,0,0,.43,2.42,5.32,5.32,0,0,0,1.18,1.85A5.12,5.12,0,0,0,383,22.35a5.79,5.79,0,0,0,2.17.39,6,6,0,0,0,1.63-.22,5.65,5.65,0,0,0,1.47-.69,1,1,0,0,1,.58-.1.76.76,0,0,1,.49.29.88.88,0,0,1,.19.68.68.68,0,0,1-.39.52,9,9,0,0,1-1.17.57,9.71,9.71,0,0,1-1.37.4,7.71,7.71,0,0,1-4.22-.37A7,7,0,0,1,378.51,20a7.69,7.69,0,0,1-.58-3.07,7.42,7.42,0,0,1,.55-2.94A6.85,6.85,0,0,1,380,11.68a7.13,7.13,0,0,1,2.32-1.54,7.39,7.39,0,0,1,2.86-.55,7.54,7.54,0,0,1,2.06.29A7,7,0,0,1,389.16,10.7Z"/><rect class="cls-4" x="438.37" y="0.01" width="109.5" height="35.12"/><path class="cls-5" d="M493.51,9.75a5.91,5.91,0,0,1,2.65.57,5.31,5.31,0,0,1,1.89,1.57,6.93,6.93,0,0,1,1.14,2.31,9.4,9.4,0,0,1,.38,2.74,9.35,9.35,0,0,1-.64,3.59,6,6,0,0,1-2.06,2.62,5.59,5.59,0,0,1-3.36,1h-5.14a.79.79,0,0,1-.58-.25.87.87,0,0,1-.24-.6V10.57a.82.82,0,0,1,.82-.82h5.14Zm-.2,12.77a4.1,4.1,0,0,0,2.58-.76,4.37,4.37,0,0,0,1.46-2.05,8,8,0,0,0,.45-2.79,8.37,8.37,0,0,0-.25-2.12,5.7,5.7,0,0,0-.8-1.8,4,4,0,0,0-1.37-1.23,4.27,4.27,0,0,0-2.05-.45h-4.21l.16-.16V22.73l-.12-.21Z"/><path class="cls-4" d="M657.38,35.13H547.88V0H653.27a4.11,4.11,0,0,1,4.11,4.11v31Z"/><path class="cls-5" d="M607.33,9.73a.76.76,0,0,1,.57.25.86.86,0,0,1,.23.59v8.16a5.55,5.55,0,0,1-8.3,4.81,5.35,5.35,0,0,1-2-2,5.61,5.61,0,0,1-.68-2.83V10.57a.82.82,0,0,1,.24-.59.81.81,0,0,1,.62-.25.82.82,0,0,1,.59.25.75.75,0,0,1,.25.59v8.16a4,4,0,0,0,.52,2,3.78,3.78,0,0,0,3.28,1.89A3.94,3.94,0,0,0,606,20.76a3.68,3.68,0,0,0,.54-2V10.57a.93.93,0,0,1,.21-.59A.69.69,0,0,1,607.33,9.73Z"/><rect class="cls-3" x="327.84" y="0.01" width="2.05" height="175.62"/><rect class="cls-3" x="437.34" y="0.01" width="2.05" height="175.62"/><rect class="cls-3" x="546.85" y="0.01" width="2.05" height="175.62"/><path class="cls-3" d="M649.73,176.65H219V105.4h2.05v69.2H649.73a5.94,5.94,0,0,0,5.94-5.94V105.4h2.05v63.28A8,8,0,0,1,649.73,176.65Z"/><polygon class="cls-3" points="219.03 106.4 109.5 106.4 109.5 5.41 111.55 5.41 111.55 104.35 219.03 104.35 219.03 106.4"/><rect class="cls-4" x="109.52" width="110.6" height="35.12"/><polygon class="cls-3" points="219.03 176.66 109.5 176.66 109.5 75.66 111.55 75.66 111.55 174.6 219.03 174.6 219.03 176.66"/><polygon class="cls-3" points="109.53 106.4 0 106.4 0 5.41 2.05 5.41 2.05 104.35 109.53 104.35 109.53 106.4"/><path class="cls-4" d="M4.11,0H110.6V35.12H0v-31A4.11,4.11,0,0,1,4.11,0Z"/><path class="cls-3" d="M109.5,176.66H7a7,7,0,0,1-7-7v-94H2.05v94A4.92,4.92,0,0,0,7,174.6H109.5Z"/><rect class="cls-3" x="219.03" y="0.01" width="2.05" height="175.62"/><rect class="cls-3" x="109.5" width="2.05" height="39.38"/><path class="cls-5" d="M52.55,10.66a.68.68,0,0,1,.4.55.8.8,0,0,1-.2.68.62.62,0,0,1-.46.29,1.17,1.17,0,0,1-.58-.12,5.9,5.9,0,0,0-3.12-.89,5.65,5.65,0,0,0-2.22.42,5.09,5.09,0,0,0-1.73,1.17,5.31,5.31,0,0,0-1.15,1.81,6.29,6.29,0,0,0-.41,2.31,6.33,6.33,0,0,0,.43,2.43,5.09,5.09,0,0,0,2.92,3,6.11,6.11,0,0,0,3.78.16,6.2,6.2,0,0,0,1.48-.68.93.93,0,0,1,.57-.11.85.85,0,0,1,.49.29.89.89,0,0,1,.18.69.69.69,0,0,1-.39.52,7.28,7.28,0,0,1-1.16.56,8.26,8.26,0,0,1-1.37.4,6.84,6.84,0,0,1-1.42.14,7.54,7.54,0,0,1-2.74-.48A6.93,6.93,0,0,1,42,20a7.66,7.66,0,0,1-.58-3.07A7.59,7.59,0,0,1,41.92,14a7.12,7.12,0,0,1,1.52-2.32,7,7,0,0,1,5.15-2.05,7.54,7.54,0,0,1,2.06.29A6.59,6.59,0,0,1,52.55,10.66Z"/><path class="cls-5" d="M56.28,9.69a1.07,1.07,0,0,1,.4.1,1,1,0,0,1,.34.27l5.43,8.21h-.68l5.47-8.21a.78.78,0,0,1,.69-.37.88.88,0,0,1,.57.25.75.75,0,0,1,.25.59V23.21a.84.84,0,0,1-.25.6.89.89,0,0,1-1.23,0,.84.84,0,0,1-.25-.6V12.09l.52.1L62.7,19.55a1.38,1.38,0,0,1-.3.24.76.76,0,0,1-.36.11.8.8,0,0,1-.37-.11,1,1,0,0,1-.31-.24l-4.79-7.36.43-.53V23.21a.81.81,0,0,1-.22.6.79.79,0,0,1-.58.25.69.69,0,0,1-.56-.25.86.86,0,0,1-.21-.6V10.53a.85.85,0,0,1,.23-.58A.8.8,0,0,1,56.28,9.69Z"/><path class="cls-5" d="M156.19,9.71a5.86,5.86,0,0,1,2.64.56,5.33,5.33,0,0,1,1.89,1.57,6.84,6.84,0,0,1,1.14,2.31,9.38,9.38,0,0,1,.38,2.73,9.22,9.22,0,0,1-.68,3.6,5.92,5.92,0,0,1-2,2.6,5.59,5.59,0,0,1-3.36,1h-5.12a.82.82,0,0,1-.59-.25.78.78,0,0,1-.23-.6V10.53a.78.78,0,0,1,.23-.59.84.84,0,0,1,.59-.23ZM156,22.46a4.06,4.06,0,0,0,2.56-.76A4.3,4.3,0,0,0,160,19.65a8.29,8.29,0,0,0,.46-2.79,8.49,8.49,0,0,0-.26-2.12,5.4,5.4,0,0,0-.8-1.74,4,4,0,0,0-1.36-1.23,4.33,4.33,0,0,0-2.06-.45h-4.2l.16-.16V22.67l-.12-.21Z"/><path class="cls-5" d="M165.81,9.69a1.07,1.07,0,0,1,.4.1.91.91,0,0,1,.34.27L172,18.27h-.68l5.47-8.21a.78.78,0,0,1,.69-.37.88.88,0,0,1,.57.25.73.73,0,0,1,.25.59V23.21a.84.84,0,0,1-.25.6.88.88,0,0,1-1.22,0,.84.84,0,0,1-.25-.6V12.09l.51.1-4.83,7.36a1.23,1.23,0,0,1-.31.24.72.72,0,0,1-.35.11.8.8,0,0,1-.37-.11,1,1,0,0,1-.31-.24l-4.79-7.36.43-.53V23.21a.81.81,0,0,1-.22.6.79.79,0,0,1-.58.25.69.69,0,0,1-.56-.25.87.87,0,0,1-.22-.6V10.53a.87.87,0,0,1,.24-.59A.79.79,0,0,1,165.81,9.69Z"/></g></g><polygon class="cls-4" points="722.09 72.05 699.04 58.75 699.04 64.74 664.61 64.74 664.61 79.37 699.04 79.37 699.04 85.36 722.09 72.05"/><polygon class="cls-4" points="722.09 141.02 699.04 127.72 699.04 133.71 664.61 133.71 664.61 148.34 699.04 148.34 699.04 154.33 722.09 141.02"/></g></g></svg>