<svg id="Capa_1" data-name="Capa 1" xmlns="http://www.w3.org/2000/svg" viewBox="0 0 285.9 186.64"><defs><style>.cls-1{fill:#69380a;}.cls-2{fill:#c56c07;}.cls-3{fill:#f9f3e9;}.cls-4{fill:#1467d2;}.cls-5{fill:#1f8ebe;}</style></defs><title>V5_b</title><g id="Layer_2" data-name="Layer 2"><g id="Layer_1-2" data-name="Layer 1-2"><g id="eb848902-bbc9-48bc-8df3-a0a1d9c08e1f-2"><g id="adee234c-81e1-47d4-a560-d29a1ac86898-2"><path class="cls-1" d="M561.68,165.11H357.12a9.12,9.12,0,0,0-9.12,9.12v12.41H632.91V174.23a9.12,9.12,0,0,0-9.12-9.12Z" transform="translate(-348 0)"/><path class="cls-1" d="M468,.4h0a2.37,2.37,0,0,1,2.37,2.37h0V175.21H465.6V2.77A2.37,2.37,0,0,1,468,.4Z" transform="translate(-348 0)"/><path class="cls-1" d="M515.38.4h0a2.37,2.37,0,0,1,2.37,2.37V175.21H513V2.77A2.37,2.37,0,0,1,515.37.4Z" transform="translate(-348 0)"/><path class="cls-1" d="M562.59.4h0A2.37,2.37,0,0,1,565,2.73h0V175.21h-4.74V2.77A2.37,2.37,0,0,1,562.59.4Z" transform="translate(-348 0)"/><path class="cls-1" d="M609.8.4h0a2.37,2.37,0,0,1,2.37,2.37V175.21h-4.74V2.77A2.37,2.37,0,0,1,609.8.4Z" transform="translate(-348 0)"/><path class="cls-2" d="M469,0h0a2.37,2.37,0,0,1,2.37,2.37h0V174.81h-4.74V2.37A2.37,2.37,0,0,1,469,0Z" transform="translate(-348 0)"/><path class="cls-1" d="M420.55.4h0a2.37,2.37,0,0,1,2.37,2.37h0V175.21h-4.74V2.77A2.37,2.37,0,0,1,420.55.4Z" transform="translate(-348 0)"/><path class="cls-2" d="M421.54,0h0a2.37,2.37,0,0,1,2.37,2.37h0V174.81h-4.74V2.37A2.37,2.37,0,0,1,421.54,0Z" transform="translate(-348 0)"/><path class="cls-2" d="M516.37,0h0a2.37,2.37,0,0,1,2.37,2.37V174.81H514V2.37A2.37,2.37,0,0,1,516.37,0Z" transform="translate(-348 0)"/><path class="cls-2" d="M563.58,0h0A2.37,2.37,0,0,1,566,2.32V174.81h-4.74V2.37A2.37,2.37,0,0,1,563.58,0Z" transform="translate(-348 0)"/><path class="cls-2" d="M610.79,0h0a2.37,2.37,0,0,1,2.37,2.37V174.81h-4.74V2.37A2.37,2.37,0,0,1,610.79,0Z" transform="translate(-348 0)"/><path class="cls-1" d="M372.51.4h0a2.37,2.37,0,0,1,2.37,2.37h0V175.21h-4.74V2.77A2.37,2.37,0,0,1,372.51.4Z" transform="translate(-348 0)"/><path class="cls-2" d="M373.5,0h0a2.37,2.37,0,0,1,2.37,2.37V174.81h-4.74V2.37A2.37,2.37,0,0,1,373.5,0Z" transform="translate(-348 0)"/><path class="cls-2" d="M624.78,164H358.11a9.13,9.13,0,0,0-9.11,9.07v12.41H633.9V173.07A9.12,9.12,0,0,0,624.78,164Z" transform="translate(-348 0)"/><path class="cls-3" d="M465.21,170.05a.68.68,0,0,1,.55.23.79.79,0,0,1,.21.57v6a4.45,4.45,0,0,1-.55,2.26,4.14,4.14,0,0,1-1.52,1.56,4.68,4.68,0,0,1-4.45,0,4.09,4.09,0,0,1-1.53-1.56,4.46,4.46,0,0,1-.56-2.26v-6a.81.81,0,0,1,.23-.57.84.84,0,0,1,.62-.23.75.75,0,0,1,.55.23.73.73,0,0,1,.24.57v6a2.76,2.76,0,0,0,.37,1.46,2.67,2.67,0,0,0,1,1,2.53,2.53,0,0,0,1.31.36,2.79,2.79,0,0,0,2.41-1.34,2.69,2.69,0,0,0,.39-1.46v-6a.8.8,0,0,1,.2-.57A.64.64,0,0,1,465.21,170.05Z" transform="translate(-348 0)"/><path class="cls-3" d="M469.37,170.05a.86.86,0,0,1,.39.09.76.76,0,0,1,.32.27l4,6.12h-.68l4.1-6.08a.76.76,0,0,1,.64-.36.79.79,0,0,1,.56.23.69.69,0,0,1,.25.57v9.47a.77.77,0,0,1-.74.8h-.07a.81.81,0,0,1-.61-.23.76.76,0,0,1-.22-.57v-8l.5.11-3.48,5.29a.72.72,0,0,1-.28.24.76.76,0,0,1-.72,0,.68.68,0,0,1-.29-.24l-3.35-5.21.38-.64v8.46a.76.76,0,0,1-.22.57.7.7,0,0,1-.56.23.69.69,0,0,1-.54-.23.79.79,0,0,1-.21-.57V170.9a.78.78,0,0,1,.24-.57A.79.79,0,0,1,469.37,170.05Z" transform="translate(-348 0)"/><path class="cls-3" d="M519.73,170.69a.68.68,0,0,1,.4.54.85.85,0,0,1-.18.67.67.67,0,0,1-.45.26.81.81,0,0,1-.55-.11,6,6,0,0,0-1-.38,4.42,4.42,0,0,0-2.69.15,3.63,3.63,0,0,0-1.24.84,3.68,3.68,0,0,0-.8,1.29,4.56,4.56,0,0,0-.28,1.64,4.79,4.79,0,0,0,.3,1.76,3.57,3.57,0,0,0,.83,1.3,3.41,3.41,0,0,0,1.25.79,4.73,4.73,0,0,0,2.61.14,5,5,0,0,0,1-.38,1,1,0,0,1,.56-.11.7.7,0,0,1,.45.28.79.79,0,0,1,.2.67.69.69,0,0,1-.41.51,4.41,4.41,0,0,1-.86.38,8.64,8.64,0,0,1-1,.26,5.55,5.55,0,0,1-1,.09,5.87,5.87,0,0,1-2.15-.38,5.29,5.29,0,0,1-1.8-1.1,5.06,5.06,0,0,1-1.24-1.79,6.26,6.26,0,0,1-.45-2.42,6,6,0,0,1,.41-2.25,5.11,5.11,0,0,1,1.19-1.78,5.34,5.34,0,0,1,1.79-1.17,6,6,0,0,1,2.25-.42,5.59,5.59,0,0,1,1.47.19A5.32,5.32,0,0,1,519.73,170.69Z" transform="translate(-348 0)"/><path class="cls-3" d="M563,170.06a4.46,4.46,0,0,1,2,.44,4.08,4.08,0,0,1,1.47,1.2,5.39,5.39,0,0,1,.9,1.77,7.59,7.59,0,0,1,.3,2.12,7,7,0,0,1-.54,2.79,4.69,4.69,0,0,1-1.58,2,4.33,4.33,0,0,1-2.59.74H559.1a.77.77,0,0,1-.57-.23.73.73,0,0,1-.23-.57v-9.45a.74.74,0,0,1,.23-.58.81.81,0,0,1,.57-.23Zm-.16,9.55a2.83,2.83,0,0,0,1.82-.56,3.22,3.22,0,0,0,1-1.46,5.9,5.9,0,0,0,.32-2,6.51,6.51,0,0,0-.18-1.52,3.78,3.78,0,0,0-.57-1.28,2.85,2.85,0,0,0-1-.89,3.06,3.06,0,0,0-1.43-.32h-3l.14-.14v8.32l-.09-.15Z" transform="translate(-348 0)"/><path class="cls-3" d="M613.56,170.05a.68.68,0,0,1,.55.23.8.8,0,0,1,.2.57v6a4.45,4.45,0,0,1-.55,2.26,4.07,4.07,0,0,1-1.52,1.56,4.66,4.66,0,0,1-4.44,0,4.19,4.19,0,0,1-1.54-1.56,4.56,4.56,0,0,1-.56-2.26v-6a.73.73,0,0,1,.24-.57.81.81,0,0,1,.61-.23.82.82,0,0,1,.8.8v6a2.76,2.76,0,0,0,.37,1.46,2.7,2.7,0,0,0,2.3,1.34,2.8,2.8,0,0,0,1.39-.36,2.69,2.69,0,0,0,1.4-2.44v-6a.8.8,0,0,1,.2-.57A.65.65,0,0,1,613.56,170.05Z" transform="translate(-348 0)"/><path class="cls-3" d="M416.3,170.06a4.46,4.46,0,0,1,2,.44,4.11,4.11,0,0,1,1.48,1.2,5.56,5.56,0,0,1,.89,1.77,7.59,7.59,0,0,1,.3,2.12,7,7,0,0,1-.54,2.79,4.44,4.44,0,0,1-1.58,2,4.26,4.26,0,0,1-2.59.74h-3.81a.77.77,0,0,1-.57-.23.73.73,0,0,1-.24-.57v-9.45a.75.75,0,0,1,.24-.58.81.81,0,0,1,.57-.23Zm-.16,9.55a2.83,2.83,0,0,0,1.82-.56,3.08,3.08,0,0,0,1-1.46,5.67,5.67,0,0,0,.33-2,6,6,0,0,0-.19-1.52,3.78,3.78,0,0,0-.57-1.28,2.68,2.68,0,0,0-1-.89,3.06,3.06,0,0,0-1.43-.32h-3l.14-.14v8.32l-.09-.15Z" transform="translate(-348 0)"/><path class="cls-3" d="M371.46,170.69a.68.68,0,0,1,.4.54.85.85,0,0,1-.18.67.67.67,0,0,1-.45.26.81.81,0,0,1-.55-.11,6,6,0,0,0-1-.38,4.42,4.42,0,0,0-2.69.15,3.63,3.63,0,0,0-1.24.84A3.7,3.7,0,0,0,365,174a4.56,4.56,0,0,0-.28,1.64,4.79,4.79,0,0,0,.3,1.76,3.57,3.57,0,0,0,.83,1.3,3.41,3.41,0,0,0,1.25.79,4.73,4.73,0,0,0,2.61.14,5,5,0,0,0,1-.38,1,1,0,0,1,.56-.11.7.7,0,0,1,.45.28.79.79,0,0,1,.2.67.69.69,0,0,1-.41.51,4.41,4.41,0,0,1-.86.38,8.64,8.64,0,0,1-1,.26,5.55,5.55,0,0,1-1,.09,5.87,5.87,0,0,1-2.15-.38,5.29,5.29,0,0,1-1.8-1.1,5.18,5.18,0,0,1-1.25-1.85,6.26,6.26,0,0,1-.45-2.42,6,6,0,0,1,.42-2.25,5.11,5.11,0,0,1,1.19-1.78,5.34,5.34,0,0,1,1.79-1.17,5.77,5.77,0,0,1,2.25-.42,5.59,5.59,0,0,1,1.47.19A5.38,5.38,0,0,1,371.46,170.69Z" transform="translate(-348 0)"/><path class="cls-3" d="M374.48,170.05a.86.86,0,0,1,.39.09.76.76,0,0,1,.32.27l4,6.12h-.68l4.09-6.08a.79.79,0,0,1,1.08-.24.89.89,0,0,1,.38.68v9.47a.87.87,0,0,1-.22.57.76.76,0,0,1-.59.23.79.79,0,0,1-.84-.74v-8.06l.51.11-3.48,5.29a.72.72,0,0,1-.28.24.76.76,0,0,1-.72,0,.68.68,0,0,1-.29-.24l-3.35-5.21.38-.64v8.46a.76.76,0,0,1-.22.57.7.7,0,0,1-.56.23.69.69,0,0,1-.54-.23.87.87,0,0,1-.22-.57V170.9a.82.82,0,0,1,.83-.8Z" transform="translate(-348 0)"/><path class="cls-3" d="M423.18,170.09a1,1,0,0,1,.39.1.76.76,0,0,1,.32.27l4,6.11h-.68l4.1-6.08a.74.74,0,0,1,.64-.37.82.82,0,0,1,.81.81v9.46a.77.77,0,0,1-.73.81h0a.81.81,0,0,1-.61-.23.78.78,0,0,1-.23-.58v-8l.51.11-3.48,5.3a.92.92,0,0,1-.28.24.76.76,0,0,1-.72,0,1,1,0,0,1-.29-.24l-3.35-5.22.38-.63v8.45a.77.77,0,0,1-.22.58.7.7,0,0,1-.56.23.69.69,0,0,1-.54-.23.83.83,0,0,1-.21-.58v-9.5a.78.78,0,0,1,.24-.57A.75.75,0,0,1,423.18,170.09Z" transform="translate(-348 0)"/></g></g><g id="b15e38e4-df09-4b0d-a168-614e4bbd91a3-9"><g id="a1460a2f-8f0f-43a3-91b6-25b00ba97723-9"><ellipse class="cls-4" cx="24.54" cy="158.18" rx="13.36" ry="5.82"/><ellipse class="cls-5" cx="26.46" cy="157.98" rx="13.36" ry="5.82"/></g></g><g id="b15e38e4-df09-4b0d-a168-614e4bbd91a3-10"><g id="a1460a2f-8f0f-43a3-91b6-25b00ba97723-10"><ellipse class="cls-4" cx="24.54" cy="146.34" rx="13.36" ry="5.82"/><ellipse class="cls-5" cx="26.46" cy="146.14" rx="13.36" ry="5.82"/></g></g><g id="b15e38e4-df09-4b0d-a168-614e4bbd91a3-11"><g id="a1460a2f-8f0f-43a3-91b6-25b00ba97723-11"><ellipse class="cls-4" cx="24.54" cy="134.5" rx="13.36" ry="5.82"/><ellipse class="cls-5" cx="26.46" cy="134.3" rx="13.36" ry="5.82"/></g></g><g id="b15e38e4-df09-4b0d-a168-614e4bbd91a3-12"><g id="a1460a2f-8f0f-43a3-91b6-25b00ba97723-12"><ellipse class="cls-4" cx="24.54" cy="122.66" rx="13.36" ry="5.82"/><ellipse class="cls-5" cx="26.46" cy="122.46" rx="13.36" ry="5.82"/></g></g><g id="b15e38e4-df09-4b0d-a168-614e4bbd91a3-13"><g id="a1460a2f-8f0f-43a3-91b6-25b00ba97723-13"><ellipse class="cls-4" cx="24.54" cy="110.82" rx="13.36" ry="5.82"/><ellipse class="cls-5" cx="26.46" cy="110.62" rx="13.36" ry="5.82"/></g></g><g id="b15e38e4-df09-4b0d-a168-614e4bbd91a3-14"><g id="a1460a2f-8f0f-43a3-91b6-25b00ba97723-14"><ellipse class="cls-4" cx="24.54" cy="98.98" rx="13.36" ry="5.82"/><ellipse class="cls-5" cx="26.46" cy="98.78" rx="13.36" ry="5.82"/></g></g><g id="b15e38e4-df09-4b0d-a168-614e4bbd91a3-15"><g id="a1460a2f-8f0f-43a3-91b6-25b00ba97723-15"><ellipse class="cls-4" cx="24.54" cy="87.14" rx="13.36" ry="5.82"/><ellipse class="cls-5" cx="26.46" cy="86.94" rx="13.36" ry="5.82"/></g></g><g id="b15e38e4-df09-4b0d-a168-614e4bbd91a3-16"><g id="a1460a2f-8f0f-43a3-91b6-25b00ba97723-16"><ellipse class="cls-4" cx="24.54" cy="75.3" rx="13.36" ry="5.82"/><ellipse class="cls-5" cx="26.46" cy="75.1" rx="13.36" ry="5.82"/></g></g><g id="b15e38e4-df09-4b0d-a168-614e4bbd91a3-17"><g id="a1460a2f-8f0f-43a3-91b6-25b00ba97723-17"><ellipse class="cls-4" cx="71.59" cy="158.18" rx="13.36" ry="5.82"/><ellipse class="cls-5" cx="73.51" cy="157.98" rx="13.36" ry="5.82"/></g></g><g id="b15e38e4-df09-4b0d-a168-614e4bbd91a3-18"><g id="a1460a2f-8f0f-43a3-91b6-25b00ba97723-18"><ellipse class="cls-4" cx="71.59" cy="146.34" rx="13.36" ry="5.82"/><ellipse class="cls-5" cx="73.51" cy="146.14" rx="13.36" ry="5.82"/></g></g><g id="b15e38e4-df09-4b0d-a168-614e4bbd91a3-19"><g id="a1460a2f-8f0f-43a3-91b6-25b00ba97723-19"><ellipse class="cls-4" cx="71.59" cy="134.5" rx="13.36" ry="5.82"/><ellipse class="cls-5" cx="73.51" cy="134.3" rx="13.36" ry="5.82"/></g></g><g id="b15e38e4-df09-4b0d-a168-614e4bbd91a3-20"><g id="a1460a2f-8f0f-43a3-91b6-25b00ba97723-20"><ellipse class="cls-4" cx="71.59" cy="122.66" rx="13.36" ry="5.82"/><ellipse class="cls-5" cx="73.51" cy="122.46" rx="13.36" ry="5.82"/></g></g><g id="b15e38e4-df09-4b0d-a168-614e4bbd91a3-21"><g id="a1460a2f-8f0f-43a3-91b6-25b00ba97723-21"><ellipse class="cls-4" cx="71.59" cy="110.82" rx="13.36" ry="5.82"/><ellipse class="cls-5" cx="73.51" cy="110.62" rx="13.36" ry="5.82"/></g></g><g id="b15e38e4-df09-4b0d-a168-614e4bbd91a3-22"><g id="a1460a2f-8f0f-43a3-91b6-25b00ba97723-22"><ellipse class="cls-4" cx="71.59" cy="98.98" rx="13.36" ry="5.82"/><ellipse class="cls-5" cx="73.51" cy="98.78" rx="13.36" ry="5.82"/></g></g><g id="b15e38e4-df09-4b0d-a168-614e4bbd91a3-23"><g id="a1460a2f-8f0f-43a3-91b6-25b00ba97723-23"><ellipse class="cls-4" cx="71.59" cy="87.34" rx="13.36" ry="5.82"/><ellipse class="cls-5" cx="73.51" cy="87.14" rx="13.36" ry="5.82"/></g></g><g id="b15e38e4-df09-4b0d-a168-614e4bbd91a3-24"><g id="a1460a2f-8f0f-43a3-91b6-25b00ba97723-24"><ellipse class="cls-4" cx="71.59" cy="75.5" rx="13.36" ry="5.82"/><ellipse class="cls-5" cx="73.51" cy="75.3" rx="13.36" ry="5.82"/></g></g><g id="b15e38e4-df09-4b0d-a168-614e4bbd91a3-25"><g id="a1460a2f-8f0f-43a3-91b6-25b00ba97723-25"><ellipse class="cls-4" cx="166.41" cy="158.18" rx="13.36" ry="5.82"/><ellipse class="cls-5" cx="168.34" cy="157.98" rx="13.36" ry="5.82"/></g></g><g id="b15e38e4-df09-4b0d-a168-614e4bbd91a3-26"><g id="a1460a2f-8f0f-43a3-91b6-25b00ba97723-26"><ellipse class="cls-4" cx="166.41" cy="146.34" rx="13.36" ry="5.82"/><ellipse class="cls-5" cx="168.34" cy="146.14" rx="13.36" ry="5.82"/></g></g><g id="b15e38e4-df09-4b0d-a168-614e4bbd91a3-27"><g id="a1460a2f-8f0f-43a3-91b6-25b00ba97723-27"><ellipse class="cls-4" cx="166.41" cy="134.5" rx="13.36" ry="5.82"/><ellipse class="cls-5" cx="168.34" cy="134.3" rx="13.36" ry="5.82"/></g></g><g id="b15e38e4-df09-4b0d-a168-614e4bbd91a3-28"><g id="a1460a2f-8f0f-43a3-91b6-25b00ba97723-28"><ellipse class="cls-4" cx="166.41" cy="122.66" rx="13.36" ry="5.82"/><ellipse class="cls-5" cx="168.34" cy="122.46" rx="13.36" ry="5.82"/></g></g><g id="b15e38e4-df09-4b0d-a168-614e4bbd91a3-29"><g id="a1460a2f-8f0f-43a3-91b6-25b00ba97723-29"><ellipse class="cls-4" cx="166.41" cy="110.82" rx="13.36" ry="5.82"/><ellipse class="cls-5" cx="168.34" cy="110.62" rx="13.36" ry="5.82"/></g></g><g id="b15e38e4-df09-4b0d-a168-614e4bbd91a3-30"><g id="a1460a2f-8f0f-43a3-91b6-25b00ba97723-30"><ellipse class="cls-4" cx="120.04" cy="158.18" rx="13.36" ry="5.82"/><ellipse class="cls-5" cx="121.96" cy="157.98" rx="13.36" ry="5.82"/></g></g><g id="b15e38e4-df09-4b0d-a168-614e4bbd91a3-31"><g id="a1460a2f-8f0f-43a3-91b6-25b00ba97723-31"><ellipse class="cls-4" cx="120.04" cy="146.34" rx="13.36" ry="5.82"/><ellipse class="cls-5" cx="121.96" cy="146.14" rx="13.36" ry="5.82"/></g></g><g id="b15e38e4-df09-4b0d-a168-614e4bbd91a3-32"><g id="a1460a2f-8f0f-43a3-91b6-25b00ba97723-32"><ellipse class="cls-4" cx="120.04" cy="134.5" rx="13.36" ry="5.82"/><ellipse class="cls-5" cx="121.96" cy="134.3" rx="13.36" ry="5.82"/></g></g><g id="b15e38e4-df09-4b0d-a168-614e4bbd91a3-33"><g id="a1460a2f-8f0f-43a3-91b6-25b00ba97723-33"><ellipse class="cls-4" cx="120.04" cy="122.66" rx="13.36" ry="5.82"/><ellipse class="cls-5" cx="121.96" cy="122.46" rx="13.36" ry="5.82"/></g></g><g id="b15e38e4-df09-4b0d-a168-614e4bbd91a3-34"><g id="a1460a2f-8f0f-43a3-91b6-25b00ba97723-34"><ellipse class="cls-4" cx="261.83" cy="158.18" rx="13.36" ry="5.82"/><ellipse class="cls-5" cx="263.75" cy="157.98" rx="13.36" ry="5.82"/></g></g><g id="b15e38e4-df09-4b0d-a168-614e4bbd91a3-35"><g id="a1460a2f-8f0f-43a3-91b6-25b00ba97723-35"><ellipse class="cls-4" cx="261.83" cy="146.34" rx="13.36" ry="5.82"/><ellipse class="cls-5" cx="263.75" cy="146.14" rx="13.36" ry="5.82"/></g></g><g id="b15e38e4-df09-4b0d-a168-614e4bbd91a3-36"><g id="a1460a2f-8f0f-43a3-91b6-25b00ba97723-36"><ellipse class="cls-4" cx="261.83" cy="134.5" rx="13.36" ry="5.82"/><ellipse class="cls-5" cx="263.75" cy="134.3" rx="13.36" ry="5.82"/></g></g><g id="b15e38e4-df09-4b0d-a168-614e4bbd91a3-37"><g id="a1460a2f-8f0f-43a3-91b6-25b00ba97723-37"><ellipse class="cls-4" cx="261.83" cy="122.66" rx="13.36" ry="5.82"/><ellipse class="cls-5" cx="263.75" cy="122.46" rx="13.36" ry="5.82"/></g></g><g id="b15e38e4-df09-4b0d-a168-614e4bbd91a3-38"><g id="a1460a2f-8f0f-43a3-91b6-25b00ba97723-38"><ellipse class="cls-4" cx="214.62" cy="158.18" rx="13.36" ry="5.82"/><ellipse class="cls-5" cx="216.54" cy="157.98" rx="13.36" ry="5.82"/></g></g><g id="b15e38e4-df09-4b0d-a168-614e4bbd91a3-39"><g id="a1460a2f-8f0f-43a3-91b6-25b00ba97723-39"><ellipse class="cls-4" cx="214.62" cy="146.34" rx="13.36" ry="5.82"/><ellipse class="cls-5" cx="216.54" cy="146.14" rx="13.36" ry="5.82"/></g></g><g id="b15e38e4-df09-4b0d-a168-614e4bbd91a3-40"><g id="a1460a2f-8f0f-43a3-91b6-25b00ba97723-40"><ellipse class="cls-4" cx="214.62" cy="134.5" rx="13.36" ry="5.82"/><ellipse class="cls-5" cx="216.54" cy="134.3" rx="13.36" ry="5.82"/></g></g></g></g></svg>