<svg xmlns="http://www.w3.org/2000/svg" viewBox="0 0 947.71 176.66"><defs><style>.cls-1{fill:#faf3a3;}.cls-2{fill:#363026;}.cls-3{fill:#dfd9d0;}.cls-4{fill:#1f8ebe;}.cls-5{fill:#f9f3e9;}</style></defs><g id="Layer_2" data-name="Layer 2"><g id="Layer_1-2" data-name="Layer 1"><rect class="cls-1" x="110.52" y="26.54" width="109.53" height="149.09"/><path class="cls-2" d="M59.8,69.45l-.12-.85a13.31,13.31,0,0,1,3.84,2.5,12.41,12.41,0,0,1,2.71,3.62,9.85,9.85,0,0,1,1,4.42,11,11,0,0,1-1.79,6.06,12.93,12.93,0,0,1-4.88,4.41,14.25,14.25,0,0,1-6.85,1.65,14.07,14.07,0,0,1-6.82-1.65,12.88,12.88,0,0,1-4.84-4.41,10.92,10.92,0,0,1-1.8-6.06,9.87,9.87,0,0,1,1.13-4.82,12.17,12.17,0,0,1,2.86-3.53,15.79,15.79,0,0,1,3.62-2.31l-.3,1A10.7,10.7,0,0,1,42.2,64.3a9.43,9.43,0,0,1-.91-4.23,11.17,11.17,0,0,1,1.64-6,11.78,11.78,0,0,1,4.51-4.23,12.89,12.89,0,0,1,6.27-1.55A12.62,12.62,0,0,1,60,49.87a12.06,12.06,0,0,1,4.48,4.23,11,11,0,0,1,1.68,6,9.26,9.26,0,0,1-1,4.36,10.58,10.58,0,0,1-2.4,3.1A11.58,11.58,0,0,1,59.8,69.45ZM53.71,86.69a8.81,8.81,0,0,0,6.18-2.19,7.36,7.36,0,0,0,1.25-9.41A8.1,8.1,0,0,0,58,72.34a9.3,9.3,0,0,0-4.33-1,9.16,9.16,0,0,0-4.26,1,8.13,8.13,0,0,0-3.11,2.75,7.36,7.36,0,0,0,1.25,9.41A8.73,8.73,0,0,0,53.71,86.69ZM46.22,60.13a7.23,7.23,0,0,0,1,3.84A7.14,7.14,0,0,0,50,66.56a7.66,7.66,0,0,0,3.74.94A7.44,7.44,0,0,0,60.17,64a7.07,7.07,0,0,0,1-3.84,7,7,0,0,0-2.1-5.21,7.42,7.42,0,0,0-5.39-2,7.42,7.42,0,0,0-5.39,2A7,7,0,0,0,46.22,60.13Z"/><path class="cls-2" d="M59.8,142.88l-.12-.85a13.31,13.31,0,0,1,3.84,2.5,12.41,12.41,0,0,1,2.71,3.62,9.85,9.85,0,0,1,1,4.42,11,11,0,0,1-1.79,6.06,13,13,0,0,1-4.88,4.42,14.35,14.35,0,0,1-6.85,1.64,14.18,14.18,0,0,1-6.82-1.64,13,13,0,0,1-4.84-4.42,10.92,10.92,0,0,1-1.8-6.06,9.8,9.8,0,0,1,1.13-4.81,12.21,12.21,0,0,1,2.86-3.54,15.79,15.79,0,0,1,3.62-2.31l-.3,1a10.35,10.35,0,0,1-3-2,10.53,10.53,0,0,1-2.34-3.16,9.47,9.47,0,0,1-.91-4.24,11.17,11.17,0,0,1,1.64-6,11.85,11.85,0,0,1,4.51-4.23,13,13,0,0,1,6.27-1.55A12.73,12.73,0,0,1,60,123.3a12.14,12.14,0,0,1,4.48,4.23,11,11,0,0,1,1.68,6,9.26,9.26,0,0,1-1,4.36,10.76,10.76,0,0,1-2.4,3.11A11.54,11.54,0,0,1,59.8,142.88Zm-6.09,17.24a8.81,8.81,0,0,0,6.18-2.19,7.36,7.36,0,0,0,1.25-9.41,8.08,8.08,0,0,0-3.1-2.74,9.3,9.3,0,0,0-4.33-1,9.16,9.16,0,0,0-4.26,1,8.11,8.11,0,0,0-3.11,2.74,7.36,7.36,0,0,0,1.25,9.41A8.73,8.73,0,0,0,53.71,160.12Zm-7.49-26.56A7,7,0,0,0,50,140a7.66,7.66,0,0,0,3.74.94,7.44,7.44,0,0,0,6.46-3.53,7,7,0,0,0,1-3.84,6.93,6.93,0,0,0-2.1-5.2,7.42,7.42,0,0,0-5.39-2,7.42,7.42,0,0,0-5.39,2A6.93,6.93,0,0,0,46.22,133.56Z"/><path class="cls-2" d="M173.76,69.45l-.12-.85a13.13,13.13,0,0,1,3.83,2.5,12.44,12.44,0,0,1,2.72,3.62,10,10,0,0,1,1,4.42,10.92,10.92,0,0,1-1.8,6.06,12.9,12.9,0,0,1-4.87,4.41,14.25,14.25,0,0,1-6.85,1.65,14.07,14.07,0,0,1-6.82-1.65A12.91,12.91,0,0,1,156,85.2a10.91,10.91,0,0,1-1.79-6.06,10,10,0,0,1,1.12-4.82,12.2,12.2,0,0,1,2.87-3.53,15.58,15.58,0,0,1,3.62-2.31l-.3,1a10.42,10.42,0,0,1-3-2,10.61,10.61,0,0,1-2.35-3.17,9.56,9.56,0,0,1-.91-4.23,11.18,11.18,0,0,1,1.65-6,11.68,11.68,0,0,1,4.5-4.23,12.9,12.9,0,0,1,6.28-1.55,12.67,12.67,0,0,1,6.27,1.55,12.13,12.13,0,0,1,4.48,4.23,11.11,11.11,0,0,1,1.67,6,9.25,9.25,0,0,1-1,4.36,10.44,10.44,0,0,1-2.41,3.1A11.54,11.54,0,0,1,173.76,69.45Zm-6.09,17.24a8.81,8.81,0,0,0,6.18-2.19,7.08,7.08,0,0,0,2.41-5.43,7,7,0,0,0-1.16-4A8.13,8.13,0,0,0,172,72.34a9.29,9.29,0,0,0-4.32-1,9.17,9.17,0,0,0-4.27,1,8.1,8.1,0,0,0-3.1,2.75,6.92,6.92,0,0,0-1.16,4,7,7,0,0,0,2.41,5.43A8.73,8.73,0,0,0,167.67,86.69Zm-7.49-26.56a7.23,7.23,0,0,0,1,3.84,7.11,7.11,0,0,0,2.74,2.59,7.73,7.73,0,0,0,3.75.94A7.44,7.44,0,0,0,174.12,64a7.08,7.08,0,0,0,1-3.84,7,7,0,0,0-2.1-5.21,8.14,8.14,0,0,0-10.78,0A7,7,0,0,0,160.18,60.13Z"/><path class="cls-2" d="M161.7,164.57a2.74,2.74,0,0,1-1.77-.64,2.06,2.06,0,0,1-.79-1.68,2.69,2.69,0,0,1,.24-1.09l15.78-35.94.67,1.1H156.22a2.28,2.28,0,0,1-1.65-.67,2.24,2.24,0,0,1-.67-1.65,2.11,2.11,0,0,1,.67-1.61,2.29,2.29,0,0,1,1.65-.64h22a2.5,2.5,0,0,1,1.83.64,2.18,2.18,0,0,1,.67,1.67,2.87,2.87,0,0,1-.24,1.16L164,163.05a2.05,2.05,0,0,1-.88,1.12A2.51,2.51,0,0,1,161.7,164.57Z"/><path class="cls-2" d="M270.92,91.2a17.38,17.38,0,0,1-5-.76,12.81,12.81,0,0,1-4.42-2.29,3.37,3.37,0,0,1-1.09-2.37,2.13,2.13,0,0,1,.64-1.44,2.17,2.17,0,0,1,1.67-.7,3.18,3.18,0,0,1,1.83.8,11.35,11.35,0,0,0,3,1.64,9.37,9.37,0,0,0,3.29.61,12,12,0,0,0,5.73-1.34,10.12,10.12,0,0,0,3.93-3.69A9.93,9.93,0,0,0,282,76.4a9.46,9.46,0,0,0-1.25-4.91,8.53,8.53,0,0,0-3.47-3.26,11.84,11.84,0,0,0-8.93-.51,22.87,22.87,0,0,0-2.92,1.3,4.4,4.4,0,0,1-2,.67,3,3,0,0,1-1.83-.51,2.44,2.44,0,0,1-.88-1.31,3.36,3.36,0,0,1-.09-1.46l2.37-16.15a2.57,2.57,0,0,1,.86-1.37,2.43,2.43,0,0,1,1.64-.57h18.09a2.27,2.27,0,0,1,2.32,2.31,2.29,2.29,0,0,1-2.32,2.31H266.66l.61-.54L265,66.47l-1-1.28a7.9,7.9,0,0,1,2-1.22,18.14,18.14,0,0,1,3.17-1,16,16,0,0,1,3.68-.42A14.1,14.1,0,0,1,280,64.3a13.43,13.43,0,0,1,5,4.91,13.75,13.75,0,0,1,1.83,7.12,14.46,14.46,0,0,1-1.19,5.94A14.07,14.07,0,0,1,282.28,87a15.25,15.25,0,0,1-5,3.11A17.68,17.68,0,0,1,270.92,91.2Z"/><path class="cls-2" d="M270.92,164.63a17,17,0,0,1-5-.76,12.81,12.81,0,0,1-4.42-2.29,3.37,3.37,0,0,1-1.09-2.37,2.09,2.09,0,0,1,.64-1.43,2.13,2.13,0,0,1,1.67-.7,3.16,3.16,0,0,1,1.83.79,11.07,11.07,0,0,0,3,1.64,9.37,9.37,0,0,0,3.29.61,11.88,11.88,0,0,0,5.73-1.34,10.17,10.17,0,0,0,3.93-3.68,10,10,0,0,0,1.43-5.27,9.46,9.46,0,0,0-1.25-4.91,8.59,8.59,0,0,0-3.47-3.26,11,11,0,0,0-5.09-1.15,10.82,10.82,0,0,0-3.84.64,21.5,21.5,0,0,0-2.92,1.31,4.52,4.52,0,0,1-2,.67,2.91,2.91,0,0,1-1.83-.52,2.44,2.44,0,0,1-.88-1.31,3.36,3.36,0,0,1-.09-1.46l2.37-16.14a2.49,2.49,0,0,1,.86-1.37,2.38,2.38,0,0,1,1.64-.58h18.09a2.29,2.29,0,0,1,2.32,2.31,2.29,2.29,0,0,1-2.32,2.32H266.66l.61-.55L265,139.9l-1-1.28a7.9,7.9,0,0,1,2-1.22,18.16,18.16,0,0,1,3.17-1,15.5,15.5,0,0,1,3.68-.43,14,14,0,0,1,7.1,1.8,13.33,13.33,0,0,1,5,4.9,13.79,13.79,0,0,1,1.83,7.13,14.52,14.52,0,0,1-1.19,5.94,14.17,14.17,0,0,1-3.35,4.72,15.22,15.22,0,0,1-5,3.1A17.68,17.68,0,0,1,270.92,164.63Z"/><path class="cls-2" d="M385.06,91.56a13.57,13.57,0,0,1-6.12-1.31,12.6,12.6,0,0,1-4.41-3.56,16.27,16.27,0,0,1-2.68-5.06,18.45,18.45,0,0,1-.92-5.78A29.49,29.49,0,0,1,371.6,70a39.23,39.23,0,0,1,2-6.61,33,33,0,0,1,3.57-6.49,27.58,27.58,0,0,1,5.24-5.57,22.66,22.66,0,0,1,7-3.81,4.65,4.65,0,0,1,1-.12,3,3,0,0,1,1.73.52,2.07,2.07,0,0,1,.76,1.86,2.2,2.2,0,0,1-.55,1.49,3.12,3.12,0,0,1-1.46.94,19.94,19.94,0,0,0-4.78,2.65,25.91,25.91,0,0,0-4.32,4.08A28.82,28.82,0,0,0,378.39,64a19.88,19.88,0,0,0-2,5.63l-1.47.49A15.69,15.69,0,0,1,377.57,67a13.26,13.26,0,0,1,3.69-2.37,11.38,11.38,0,0,1,4.6-.91,11,11,0,0,1,5,1.15A13.83,13.83,0,0,1,394.93,68a14.59,14.59,0,0,1,2.77,4.48,14.1,14.1,0,0,1,1,5.26,13.55,13.55,0,0,1-1.8,6.86,14.19,14.19,0,0,1-4.87,5A12.91,12.91,0,0,1,385.06,91.56ZM385,87a8.54,8.54,0,0,0,4.48-1.18,8.64,8.64,0,0,0,3.14-3.29,9.79,9.79,0,0,0,1.16-4.79,10.43,10.43,0,0,0-1-4.62,8.82,8.82,0,0,0-2.95-3.45,8,8,0,0,0-4.6-1.3,9.24,9.24,0,0,0-4.94,1.27,8.75,8.75,0,0,0-3.19,3.45,10.07,10.07,0,0,0-1.13,4.78,9.47,9.47,0,0,0,1.09,4.5,8.8,8.8,0,0,0,3.14,3.36A9,9,0,0,0,385,87Z"/><path class="cls-2" d="M385.06,165a13.57,13.57,0,0,1-6.12-1.31,12.6,12.6,0,0,1-4.41-3.56,16.33,16.33,0,0,1-2.68-5.05,18.56,18.56,0,0,1-.92-5.79,29.49,29.49,0,0,1,.67-5.85,39.23,39.23,0,0,1,2-6.61,32.69,32.69,0,0,1,3.57-6.48,27.37,27.37,0,0,1,5.24-5.58,22.43,22.43,0,0,1,7-3.8,4.13,4.13,0,0,1,1-.13,3.06,3.06,0,0,1,1.73.52,2.09,2.09,0,0,1,.76,1.86,2.2,2.2,0,0,1-.55,1.49,3.21,3.21,0,0,1-1.46,1,19.27,19.27,0,0,0-4.78,2.65,25.12,25.12,0,0,0-4.32,4.08,28.74,28.74,0,0,0-3.42,5.05,19.84,19.84,0,0,0-2,5.64l-1.47.48a15.64,15.64,0,0,1,2.62-3.1,13.07,13.07,0,0,1,3.69-2.38,11.38,11.38,0,0,1,4.6-.91,10.9,10.9,0,0,1,5,1.16,13.8,13.8,0,0,1,4.08,3.1,14.59,14.59,0,0,1,2.77,4.48,14.11,14.11,0,0,1,1,5.27,13.51,13.51,0,0,1-1.8,6.85,14.22,14.22,0,0,1-4.87,5.06A12.91,12.91,0,0,1,385.06,165Zm-.06-4.56a8.47,8.47,0,0,0,7.62-4.48,9.77,9.77,0,0,0,1.16-4.78,10.44,10.44,0,0,0-1-4.63,8.72,8.72,0,0,0-2.95-3.44,7.93,7.93,0,0,0-4.6-1.31,9.16,9.16,0,0,0-4.94,1.28,8.66,8.66,0,0,0-3.19,3.44,10.07,10.07,0,0,0-1.13,4.78A9.51,9.51,0,0,0,377,155.8a8.85,8.85,0,0,0,3.14,3.35A9,9,0,0,0,385,160.43Z"/><path class="cls-2" d="M480.92,83.89a2.65,2.65,0,0,1,.82.15,3,3,0,0,1,1,.64,9.72,9.72,0,0,0,2.86,1.77,10.6,10.6,0,0,0,8.59-.52,9.4,9.4,0,0,0,4.93-8.44,8.75,8.75,0,0,0-1.37-5.08,8.31,8.31,0,0,0-3.47-2.93,10.67,10.67,0,0,0-4.42-.94,9.76,9.76,0,0,0-1.58.12,12.13,12.13,0,0,0-1.37.3,4.08,4.08,0,0,1-1.19.19,1.87,1.87,0,0,1-1.52-.67,2.51,2.51,0,0,1-.55-1.65,2.7,2.7,0,0,1,.18-1,3.44,3.44,0,0,1,.61-1l11.94-13.15,1,1.15h-17.3a2.29,2.29,0,0,1-2.31-2.31,2.14,2.14,0,0,1,.67-1.62,2.3,2.3,0,0,1,1.64-.63h19.86a2.34,2.34,0,0,1,1.95.76,2.57,2.57,0,0,1,.61,1.67,2.15,2.15,0,0,1-.24,1,4.11,4.11,0,0,1-.67.88L489.69,65.86l-1.4-1.22a3.71,3.71,0,0,1,1.4-.46,10,10,0,0,1,1.83-.21,12.44,12.44,0,0,1,6.27,1.64,12.24,12.24,0,0,1,4.57,4.63,13.84,13.84,0,0,1,1.7,7,14.1,14.1,0,0,1-2,7.61,13.53,13.53,0,0,1-5.51,5,17.34,17.34,0,0,1-7.89,1.76,15.36,15.36,0,0,1-4.78-.76,11.85,11.85,0,0,1-4.05-2.22,2.37,2.37,0,0,1-1.06-1,2.33,2.33,0,0,1-.28-1.09,2.75,2.75,0,0,1,.7-1.77A2.17,2.17,0,0,1,480.92,83.89Z"/><path class="cls-2" d="M480.92,157.32a2.65,2.65,0,0,1,.82.15,3.2,3.2,0,0,1,1,.64,9.72,9.72,0,0,0,2.86,1.77,10.6,10.6,0,0,0,8.59-.52,9.4,9.4,0,0,0,4.93-8.44,8.75,8.75,0,0,0-1.37-5.08,8.31,8.31,0,0,0-3.47-2.93,10.67,10.67,0,0,0-4.42-.94,9.76,9.76,0,0,0-1.58.12,10.24,10.24,0,0,0-1.37.31,4.41,4.41,0,0,1-1.19.18,1.84,1.84,0,0,1-1.52-.67,2.51,2.51,0,0,1-.55-1.65,2.7,2.7,0,0,1,.18-1,3.26,3.26,0,0,1,.61-.94l11.94-13.16,1,1.16h-17.3a2.29,2.29,0,0,1-2.31-2.32,2.11,2.11,0,0,1,.67-1.61,2.27,2.27,0,0,1,1.64-.64h19.86a2.34,2.34,0,0,1,1.95.76,2.59,2.59,0,0,1,.61,1.67,2.15,2.15,0,0,1-.24,1,4.11,4.11,0,0,1-.67.88l-11.88,13.22-1.4-1.22a3.91,3.91,0,0,1,1.4-.46,10,10,0,0,1,1.83-.21,12.34,12.34,0,0,1,6.27,1.65,12.17,12.17,0,0,1,4.57,4.63,13.81,13.81,0,0,1,1.7,6.94,14.1,14.1,0,0,1-2,7.61,13.46,13.46,0,0,1-5.51,5,17.34,17.34,0,0,1-7.89,1.76,15.36,15.36,0,0,1-4.78-.76,11.69,11.69,0,0,1-4.05-2.22,2.36,2.36,0,0,1-1.06-1,2.39,2.39,0,0,1-.28-1.1,2.75,2.75,0,0,1,.7-1.77A2.17,2.17,0,0,1,480.92,157.32Z"/><path class="cls-2" d="M607.32,91a2.31,2.31,0,0,1-1.74-.73,2.48,2.48,0,0,1-.7-1.76V55.14l1,.36-14.56,19-.24-.73h22.29a2.29,2.29,0,0,1,2.32,2.31,2.07,2.07,0,0,1-.67,1.55,2.29,2.29,0,0,1-1.65.64H587.71a2.37,2.37,0,0,1-1.68-.73,2.33,2.33,0,0,1-.15-3.29l19.43-25a2.2,2.2,0,0,1,1-.76,3,3,0,0,1,1.09-.21,2.26,2.26,0,0,1,1.71.7,2.42,2.42,0,0,1,.67,1.73V88.46a2.48,2.48,0,0,1-.7,1.76A2.31,2.31,0,0,1,607.32,91Z"/><path class="cls-2" d="M607.32,164.39a2.32,2.32,0,0,1-1.74-.74,2.46,2.46,0,0,1-.7-1.76V128.57l1,.36-14.56,19-.24-.73h22.29a2.29,2.29,0,0,1,2.32,2.31,2.11,2.11,0,0,1-.67,1.56,2.34,2.34,0,0,1-1.65.64H587.71A2.39,2.39,0,0,1,586,151a2.31,2.31,0,0,1-.15-3.28l19.43-25a2.28,2.28,0,0,1,1-.76,3,3,0,0,1,1.09-.21,2.26,2.26,0,0,1,1.71.7,2.42,2.42,0,0,1,.67,1.73v37.71a2.46,2.46,0,0,1-.7,1.76A2.32,2.32,0,0,1,607.32,164.39Z"/><path class="cls-2" d="M752.3,66.45l-.12-.85A13.31,13.31,0,0,1,756,68.1a12.23,12.23,0,0,1,2.71,3.62,9.86,9.86,0,0,1,1,4.42,10.92,10.92,0,0,1-1.8,6.06,12.9,12.9,0,0,1-4.87,4.41,14.28,14.28,0,0,1-6.86,1.65,14.07,14.07,0,0,1-6.82-1.65,13,13,0,0,1-4.84-4.41,10.92,10.92,0,0,1-1.8-6.06,10,10,0,0,1,1.13-4.82,12.17,12.17,0,0,1,2.86-3.53,15.84,15.84,0,0,1,3.63-2.31l-.31,1a10.81,10.81,0,0,1-5.36-5.15,9.43,9.43,0,0,1-.91-4.23,11.26,11.26,0,0,1,1.64-6,11.78,11.78,0,0,1,4.51-4.23,12.89,12.89,0,0,1,6.27-1.55,12.68,12.68,0,0,1,6.28,1.55A12.11,12.11,0,0,1,757,51.1a11,11,0,0,1,1.68,6,9.26,9.26,0,0,1-1,4.36,10.58,10.58,0,0,1-2.4,3.1A11.58,11.58,0,0,1,752.3,66.45Zm-6.09,17.24a8.86,8.86,0,0,0,6.19-2.19,7.07,7.07,0,0,0,2.4-5.43,6.92,6.92,0,0,0-1.16-4,8.1,8.1,0,0,0-3.1-2.75,9.3,9.3,0,0,0-4.33-1,9.16,9.16,0,0,0-4.26,1,8.13,8.13,0,0,0-3.11,2.75,7,7,0,0,0-1.15,4,7.07,7.07,0,0,0,2.4,5.43A8.75,8.75,0,0,0,746.21,83.69Zm-7.49-26.56a7.24,7.24,0,0,0,1,3.84,7.11,7.11,0,0,0,2.74,2.59,7.66,7.66,0,0,0,3.74.94A7.44,7.44,0,0,0,752.67,61a7.08,7.08,0,0,0,1-3.84,7,7,0,0,0-2.11-5.21,8.14,8.14,0,0,0-10.78,0A7,7,0,0,0,738.72,57.13Z"/><path class="cls-2" d="M787.21,66.45l-.13-.85a13.17,13.17,0,0,1,3.84,2.5,12.23,12.23,0,0,1,2.71,3.62,9.86,9.86,0,0,1,1,4.42,10.92,10.92,0,0,1-1.8,6.06A12.9,12.9,0,0,1,788,86.61a14.27,14.27,0,0,1-6.85,1.65,14.11,14.11,0,0,1-6.83-1.65,13,13,0,0,1-4.84-4.41,10.92,10.92,0,0,1-1.8-6.06,10,10,0,0,1,1.13-4.82,12.33,12.33,0,0,1,2.86-3.53,15.84,15.84,0,0,1,3.63-2.31l-.31,1a10.81,10.81,0,0,1-5.36-5.15,9.43,9.43,0,0,1-.91-4.23,11.26,11.26,0,0,1,1.64-6,11.78,11.78,0,0,1,4.51-4.23,12.9,12.9,0,0,1,6.28-1.55,12.67,12.67,0,0,1,6.27,1.55,12.13,12.13,0,0,1,4.48,4.23,11.11,11.11,0,0,1,1.67,6,9.25,9.25,0,0,1-1,4.36,10.61,10.61,0,0,1-2.41,3.1A11.54,11.54,0,0,1,787.21,66.45Zm-6.09,17.24a8.85,8.85,0,0,0,6.18-2.19,7.07,7.07,0,0,0,2.4-5.43,7,7,0,0,0-1.15-4,8.21,8.21,0,0,0-3.11-2.75,9.29,9.29,0,0,0-4.32-1,9.17,9.17,0,0,0-4.27,1,8.1,8.1,0,0,0-3.1,2.75,6.92,6.92,0,0,0-1.16,4A7.07,7.07,0,0,0,775,81.5,8.77,8.77,0,0,0,781.12,83.69Zm-7.5-26.56a7.24,7.24,0,0,0,1,3.84,7.11,7.11,0,0,0,2.74,2.59,7.73,7.73,0,0,0,3.75.94A7.44,7.44,0,0,0,787.57,61a7.08,7.08,0,0,0,1-3.84,7,7,0,0,0-2.1-5.21,8.14,8.14,0,0,0-10.78,0A6.94,6.94,0,0,0,773.62,57.13Z"/><path class="cls-2" d="M812.55,88.2a17.45,17.45,0,0,1-5-.76,12.76,12.76,0,0,1-4.41-2.29,3.22,3.22,0,0,1-.8-1.09,3.17,3.17,0,0,1-.3-1.28,2.13,2.13,0,0,1,.64-1.44,2.18,2.18,0,0,1,1.67-.7,3.18,3.18,0,0,1,1.83.8,11.25,11.25,0,0,0,3,1.64,9.28,9.28,0,0,0,3.28.61,11.94,11.94,0,0,0,5.73-1.34,10,10,0,0,0,5.36-8.95,9.46,9.46,0,0,0-1.25-4.91,8.53,8.53,0,0,0-3.47-3.26,10.88,10.88,0,0,0-5.09-1.15,10.72,10.72,0,0,0-3.83.64A22.44,22.44,0,0,0,807,66a4.4,4.4,0,0,1-2,.67,2.92,2.92,0,0,1-1.82-.51,2.4,2.4,0,0,1-.89-1.31,3.36,3.36,0,0,1-.09-1.46l2.38-16.15a2.55,2.55,0,0,1,.85-1.37,2.44,2.44,0,0,1,1.64-.57h18.09a2.27,2.27,0,0,1,1.65.66,2.24,2.24,0,0,1,.67,1.65,2.2,2.2,0,0,1-.67,1.64,2.24,2.24,0,0,1-1.65.67H808.28l.61-.54-2.25,14.07-1-1.28a7.9,7.9,0,0,1,2-1.22,18.42,18.42,0,0,1,3.17-1,16.19,16.19,0,0,1,3.69-.42,14.09,14.09,0,0,1,7.09,1.79,13.45,13.45,0,0,1,5,4.91,13.84,13.84,0,0,1,1.82,7.12,14.62,14.62,0,0,1-1.18,5.94A14.21,14.21,0,0,1,823.91,84a15.39,15.39,0,0,1-5.06,3.11A17.67,17.67,0,0,1,812.55,88.2Z"/><path class="cls-2" d="M866.57,88.56a13.57,13.57,0,0,1-6.12-1.31A12.6,12.6,0,0,1,856,83.69a16.3,16.3,0,0,1-2.69-5.06,18.73,18.73,0,0,1-.91-5.78,28.76,28.76,0,0,1,.67-5.85,39.23,39.23,0,0,1,2-6.61,32.54,32.54,0,0,1,3.57-6.49A27.81,27.81,0,0,1,864,48.33a22.71,22.71,0,0,1,7-3.81,4.57,4.57,0,0,1,1-.12,3,3,0,0,1,1.74.52,2.07,2.07,0,0,1,.76,1.86,2.2,2.2,0,0,1-.55,1.49,3.12,3.12,0,0,1-1.46.94,19.94,19.94,0,0,0-4.78,2.65,26,26,0,0,0-4.33,4.08A28.77,28.77,0,0,0,859.9,61a20.22,20.22,0,0,0-2,5.63l-1.46.49A15.36,15.36,0,0,1,859.08,64a13.12,13.12,0,0,1,3.69-2.37,11.36,11.36,0,0,1,4.59-.91,11,11,0,0,1,5,1.15A13.83,13.83,0,0,1,876.44,65a14.59,14.59,0,0,1,2.77,4.48,14.1,14.1,0,0,1,1,5.26,13.55,13.55,0,0,1-1.8,6.86,14.19,14.19,0,0,1-4.87,5A12.91,12.91,0,0,1,866.57,88.56ZM866.51,84A8.54,8.54,0,0,0,871,82.81a8.72,8.72,0,0,0,3.14-3.29,9.78,9.78,0,0,0,1.15-4.79,10.43,10.43,0,0,0-1-4.62,8.77,8.77,0,0,0-3-3.45,8,8,0,0,0-4.6-1.3,9.23,9.23,0,0,0-4.93,1.27,8.78,8.78,0,0,0-3.2,3.45,10.18,10.18,0,0,0-1.12,4.78,9.47,9.47,0,0,0,1.09,4.5,8.73,8.73,0,0,0,3.14,3.36A8.93,8.93,0,0,0,866.51,84Z"/><path class="cls-2" d="M888,80.89a2.6,2.6,0,0,1,.82.15,2.93,2.93,0,0,1,1,.64,9.85,9.85,0,0,0,2.86,1.77,10.11,10.11,0,0,0,3.78.67,10,10,0,0,0,4.81-1.19,9.45,9.45,0,0,0,3.56-3.38,9.29,9.29,0,0,0,1.37-5.06,8.68,8.68,0,0,0-1.37-5.08,8.31,8.31,0,0,0-3.47-2.93,10.62,10.62,0,0,0-4.41-.94,9.88,9.88,0,0,0-1.59.12A13.18,13.18,0,0,0,894,66a4,4,0,0,1-1.19.19,1.88,1.88,0,0,1-1.52-.67,2.56,2.56,0,0,1-.55-1.65,2.51,2.51,0,0,1,.19-1,3.39,3.39,0,0,1,.6-.95l11.94-13.15,1,1.15H887.1a2.29,2.29,0,0,1-2.32-2.31,2.18,2.18,0,0,1,.67-1.62,2.33,2.33,0,0,1,1.65-.63H907a2.35,2.35,0,0,1,1.95.76,2.63,2.63,0,0,1,.61,1.67,2.16,2.16,0,0,1-.25,1,3.8,3.8,0,0,1-.67.88L896.72,62.86l-1.4-1.22a3.71,3.71,0,0,1,1.4-.46,10,10,0,0,1,1.83-.21,12.41,12.41,0,0,1,6.27,1.64,12.17,12.17,0,0,1,4.57,4.63,13.75,13.75,0,0,1,1.71,7,14.1,14.1,0,0,1-2,7.61,13.6,13.6,0,0,1-5.51,5,17.4,17.4,0,0,1-7.89,1.76,15.27,15.27,0,0,1-4.78-.76,11.67,11.67,0,0,1-4-2.22,2.41,2.41,0,0,1-1.07-1,2.44,2.44,0,0,1-.27-1.09,2.75,2.75,0,0,1,.7-1.77A2.13,2.13,0,0,1,888,80.89Z"/><path class="cls-2" d="M939.36,88a2.27,2.27,0,0,1-1.73-.73,2.44,2.44,0,0,1-.7-1.76V52.14l1,.36-14.56,19-.24-.73h22.29a2.29,2.29,0,0,1,2.32,2.31,2.07,2.07,0,0,1-.67,1.55,2.29,2.29,0,0,1-1.65.64H919.75a2.37,2.37,0,0,1-1.68-.73,2.33,2.33,0,0,1-.15-3.29l19.43-25a2.26,2.26,0,0,1,1-.76,3,3,0,0,1,1.09-.21,2.26,2.26,0,0,1,1.71.7,2.42,2.42,0,0,1,.67,1.73V85.46a2.48,2.48,0,0,1-.7,1.76A2.31,2.31,0,0,1,939.36,88Z"/><path class="cls-2" d="M752.3,139.88l-.12-.85a13.31,13.31,0,0,1,3.84,2.5,12.23,12.23,0,0,1,2.71,3.62,9.86,9.86,0,0,1,1,4.42,10.92,10.92,0,0,1-1.8,6.06,13,13,0,0,1-4.87,4.42,14.39,14.39,0,0,1-6.86,1.64,14.18,14.18,0,0,1-6.82-1.64,13.07,13.07,0,0,1-4.84-4.42,10.92,10.92,0,0,1-1.8-6.06,9.91,9.91,0,0,1,1.13-4.81,12.21,12.21,0,0,1,2.86-3.54,15.84,15.84,0,0,1,3.63-2.31l-.31,1a10.18,10.18,0,0,1-3-2,10.4,10.4,0,0,1-2.35-3.16,9.47,9.47,0,0,1-.91-4.24,11.26,11.26,0,0,1,1.64-6,11.85,11.85,0,0,1,4.51-4.23,13,13,0,0,1,6.27-1.55,12.79,12.79,0,0,1,6.28,1.55,12.19,12.19,0,0,1,4.47,4.23,11,11,0,0,1,1.68,6,9.26,9.26,0,0,1-1,4.36,10.76,10.76,0,0,1-2.4,3.11A11.54,11.54,0,0,1,752.3,139.88Zm-6.09,17.24a8.86,8.86,0,0,0,6.19-2.19,7,7,0,0,0,2.4-5.42,7,7,0,0,0-1.16-4,8.08,8.08,0,0,0-3.1-2.74,9.3,9.3,0,0,0-4.33-1,9.16,9.16,0,0,0-4.26,1,8.11,8.11,0,0,0-3.11,2.74,7.39,7.39,0,0,0,1.25,9.41A8.75,8.75,0,0,0,746.21,157.12Zm-7.49-26.56a7.19,7.19,0,0,0,1,3.84,7.11,7.11,0,0,0,2.74,2.59,7.66,7.66,0,0,0,3.74.94,7.44,7.44,0,0,0,6.46-3.53,7,7,0,0,0,1-3.84,6.94,6.94,0,0,0-2.11-5.2,8.14,8.14,0,0,0-10.78,0A6.93,6.93,0,0,0,738.72,130.56Z"/><path class="cls-2" d="M775.15,161.57a2.74,2.74,0,0,1-1.77-.64,2.06,2.06,0,0,1-.79-1.68,2.69,2.69,0,0,1,.24-1.09l15.78-35.94.67,1.1H769.66a2.29,2.29,0,0,1-2.31-2.32,2.11,2.11,0,0,1,.67-1.61,2.27,2.27,0,0,1,1.64-.64h22a2.54,2.54,0,0,1,1.83.64,2.18,2.18,0,0,1,.67,1.67,2.87,2.87,0,0,1-.24,1.16L777.4,160.05a2.05,2.05,0,0,1-.88,1.12A2.54,2.54,0,0,1,775.15,161.57Z"/><path class="cls-2" d="M810.23,161.63a17,17,0,0,1-5-.76,12.81,12.81,0,0,1-4.42-2.29,3.07,3.07,0,0,1-.79-1.09,3,3,0,0,1-.31-1.28,2.13,2.13,0,0,1,.64-1.43,2.17,2.17,0,0,1,1.68-.7,3.18,3.18,0,0,1,1.83.79,10.92,10.92,0,0,0,3,1.64,9.33,9.33,0,0,0,3.29.61,11.82,11.82,0,0,0,5.72-1.34,10,10,0,0,0,3.93-3.68,9.88,9.88,0,0,0,1.44-5.27,9.46,9.46,0,0,0-1.25-4.91,8.62,8.62,0,0,0-3.48-3.26,11,11,0,0,0-5.08-1.15,10.82,10.82,0,0,0-3.84.64,21,21,0,0,0-2.92,1.31,4.6,4.6,0,0,1-2,.67,2.91,2.91,0,0,1-1.83-.52,2.39,2.39,0,0,1-.88-1.31,3.08,3.08,0,0,1-.09-1.46l2.37-16.14a2.53,2.53,0,0,1,.85-1.37,2.43,2.43,0,0,1,1.65-.58h18.09a2.29,2.29,0,0,1,2.31,2.31,2.29,2.29,0,0,1-2.31,2.32H806l.61-.55-2.26,14.07-1-1.28a7.56,7.56,0,0,1,2-1.22,18.16,18.16,0,0,1,3.17-1,15.5,15.5,0,0,1,3.68-.43,14,14,0,0,1,7.1,1.8,13.33,13.33,0,0,1,5,4.9,13.79,13.79,0,0,1,1.83,7.13,14.69,14.69,0,0,1-1.19,5.94,14.17,14.17,0,0,1-3.35,4.72,15.27,15.27,0,0,1-5.06,3.1A17.63,17.63,0,0,1,810.23,161.63Z"/><path class="cls-2" d="M864.26,162a13.51,13.51,0,0,1-6.12-1.31,12.63,12.63,0,0,1-4.42-3.56,16.33,16.33,0,0,1-2.68-5.05,18.55,18.55,0,0,1-.91-5.79,28.76,28.76,0,0,1,.67-5.85,37.48,37.48,0,0,1,2-6.61,32.14,32.14,0,0,1,3.56-6.48,27.65,27.65,0,0,1,5.24-5.58,22.43,22.43,0,0,1,7-3.8,4.13,4.13,0,0,1,1-.13,3,3,0,0,1,1.73.52,2.09,2.09,0,0,1,.76,1.86,2.24,2.24,0,0,1-.54,1.49,3.3,3.3,0,0,1-1.47,1,19.45,19.45,0,0,0-4.78,2.65,25.12,25.12,0,0,0-4.32,4.08,28.15,28.15,0,0,0-3.41,5.05,19.56,19.56,0,0,0-2,5.64l-1.46.48a15.31,15.31,0,0,1,2.62-3.1,12.88,12.88,0,0,1,3.68-2.38,11.38,11.38,0,0,1,4.6-.91,10.87,10.87,0,0,1,5,1.16,13.71,13.71,0,0,1,4.09,3.1,14.79,14.79,0,0,1,2.77,4.48,14.11,14.11,0,0,1,1,5.27,13.51,13.51,0,0,1-1.8,6.85,14.14,14.14,0,0,1-4.87,5.06A12.87,12.87,0,0,1,864.26,162Zm-.06-4.56a8.47,8.47,0,0,0,7.61-4.48,9.77,9.77,0,0,0,1.16-4.78,10.44,10.44,0,0,0-1-4.63A8.64,8.64,0,0,0,869,140.1a7.91,7.91,0,0,0-4.6-1.31,9.12,9.12,0,0,0-4.93,1.28,8.62,8.62,0,0,0-3.2,3.44,10.18,10.18,0,0,0-1.13,4.78,9.52,9.52,0,0,0,1.1,4.51,8.75,8.75,0,0,0,3.13,3.35A9,9,0,0,0,864.2,157.43Z"/><path class="cls-2" d="M885.64,154.32a2.7,2.7,0,0,1,.82.15,3.07,3.07,0,0,1,1,.64,9.9,9.9,0,0,0,2.87,1.77,10.6,10.6,0,0,0,8.59-.52,9.53,9.53,0,0,0,3.56-3.38,9.38,9.38,0,0,0,1.37-5.06,8.75,8.75,0,0,0-1.37-5.08,8.37,8.37,0,0,0-3.47-2.93,10.67,10.67,0,0,0-4.42-.94,9.67,9.67,0,0,0-1.58.12,10.24,10.24,0,0,0-1.37.31,4.47,4.47,0,0,1-1.19.18,1.84,1.84,0,0,1-1.52-.67,2.51,2.51,0,0,1-.55-1.65,2.7,2.7,0,0,1,.18-1,3.26,3.26,0,0,1,.61-.94l11.94-13.16,1,1.16h-17.3a2.29,2.29,0,0,1-2.31-2.32,2.11,2.11,0,0,1,.67-1.61,2.27,2.27,0,0,1,1.64-.64h19.86a2.35,2.35,0,0,1,2,.76,2.59,2.59,0,0,1,.61,1.67,2.15,2.15,0,0,1-.24,1,4.11,4.11,0,0,1-.67.88l-11.88,13.22-1.4-1.22a3.91,3.91,0,0,1,1.4-.46,10,10,0,0,1,1.82-.21,12.35,12.35,0,0,1,6.28,1.65,12.17,12.17,0,0,1,4.57,4.63,13.81,13.81,0,0,1,1.7,6.94,14.1,14.1,0,0,1-2,7.61,13.46,13.46,0,0,1-5.51,5,17.34,17.34,0,0,1-7.89,1.76,15.31,15.31,0,0,1-4.78-.76,11.69,11.69,0,0,1-4.05-2.22,2.45,2.45,0,0,1-1.07-1,2.51,2.51,0,0,1-.27-1.1,2.75,2.75,0,0,1,.7-1.77A2.17,2.17,0,0,1,885.64,154.32Z"/><path class="cls-2" d="M937.05,161.39a2.3,2.3,0,0,1-1.74-.74,2.42,2.42,0,0,1-.7-1.76V125.57l1,.36-14.55,19-.25-.73h22.3a2.29,2.29,0,0,1,2.31,2.31,2.07,2.07,0,0,1-.67,1.56,2.31,2.31,0,0,1-1.64.64H917.43a2.36,2.36,0,0,1-1.67-.74,2.31,2.31,0,0,1-.15-3.28l19.43-25a2.25,2.25,0,0,1,1-.76,3.06,3.06,0,0,1,1.1-.21,2.23,2.23,0,0,1,1.7.7,2.38,2.38,0,0,1,.67,1.73v37.71a2.42,2.42,0,0,1-.7,1.76A2.3,2.3,0,0,1,937.05,161.39Z"/><g id="e9b4b12f-dac2-44db-bd92-0ae466672c69"><g id="b877e280-bcde-4d22-aaad-d59d29faa3bc"><polygon class="cls-3" points="657.72 106.4 219.03 106.4 219.03 35.13 221.08 35.13 221.08 104.35 655.67 104.35 655.67 4.73 657.72 4.73 657.72 106.4"/><rect class="cls-4" x="219.36" y="0.01" width="109.5" height="35.12"/><path class="cls-5" d="M270.34,9.73a.76.76,0,0,1,.57.25.86.86,0,0,1,.23.59v8.16a5.41,5.41,0,0,1-.73,2.83,5.47,5.47,0,0,1-2,2,5.53,5.53,0,0,1-7.58-2,5.73,5.73,0,0,1-.72-2.83V10.57a.87.87,0,0,1,.24-.59.83.83,0,0,1,.63-.25.87.87,0,0,1,.84.84v8.16a4,4,0,0,0,.51,2,3.8,3.8,0,0,0,3.29,1.89,4,4,0,0,0,1.93-.5A4.08,4.08,0,0,0,269,20.76a3.86,3.86,0,0,0,.54-2V10.57a.86.86,0,0,1,.2-.59A.71.71,0,0,1,270.34,9.73Z"/><path class="cls-5" d="M275.59,9.73a1.17,1.17,0,0,1,.41.1,1,1,0,0,1,.33.27l5.44,8.21h-.68l5.47-8.21a.78.78,0,0,1,.69-.37.88.88,0,0,1,.57.25.75.75,0,0,1,.25.59v12.7a.86.86,0,0,1-.25.6.89.89,0,0,1-1.23,0,.81.81,0,0,1-.24-.6V12.13l.51.11L282,19.61a1,1,0,0,1-.29.24.69.69,0,0,1-.36.11.7.7,0,0,1-.37-.11,1,1,0,0,1-.31-.24l-4.79-7.37.43-.54V23.27a.9.9,0,0,1-.23.6.71.71,0,0,1-.57.24.69.69,0,0,1-.56-.24.84.84,0,0,1-.22-.6V10.57A.86.86,0,0,1,275,10,.78.78,0,0,1,275.59,9.73Z"/><rect class="cls-4" x="328.87" y="0.01" width="109.5" height="35.12"/><path class="cls-5" d="M389.16,10.7a.67.67,0,0,1,.39.55.86.86,0,0,1-.19.69.6.6,0,0,1-.47.28,1.07,1.07,0,0,1-.58-.12,6.27,6.27,0,0,0-1.45-.64,5.88,5.88,0,0,0-3.86.18,5.2,5.2,0,0,0-1.75,1.18,5.37,5.37,0,0,0-1.15,1.81,6.31,6.31,0,0,0-.41,2.32,6.47,6.47,0,0,0,.43,2.42,5.32,5.32,0,0,0,1.18,1.85A5.12,5.12,0,0,0,383,22.35a5.79,5.79,0,0,0,2.17.39,6,6,0,0,0,1.63-.22,5.65,5.65,0,0,0,1.47-.69,1,1,0,0,1,.58-.1.76.76,0,0,1,.49.29.88.88,0,0,1,.19.68.68.68,0,0,1-.39.52,9,9,0,0,1-1.17.57,9.71,9.71,0,0,1-1.37.4,7.71,7.71,0,0,1-4.22-.37A7,7,0,0,1,378.51,20a7.69,7.69,0,0,1-.58-3.07,7.42,7.42,0,0,1,.55-2.94A6.85,6.85,0,0,1,380,11.68a7.13,7.13,0,0,1,2.32-1.54,7.39,7.39,0,0,1,2.86-.55,7.54,7.54,0,0,1,2.06.29A7,7,0,0,1,389.16,10.7Z"/><rect class="cls-4" x="438.37" y="0.01" width="109.5" height="35.12"/><path class="cls-5" d="M493.51,9.75a5.91,5.91,0,0,1,2.65.57,5.31,5.31,0,0,1,1.89,1.57,6.93,6.93,0,0,1,1.14,2.31,9.4,9.4,0,0,1,.38,2.74,9.35,9.35,0,0,1-.64,3.59,6,6,0,0,1-2.06,2.62,5.59,5.59,0,0,1-3.36,1h-5.14a.79.79,0,0,1-.58-.25.87.87,0,0,1-.24-.6V10.57a.82.82,0,0,1,.82-.82h5.14Zm-.2,12.77a4.1,4.1,0,0,0,2.58-.76,4.37,4.37,0,0,0,1.46-2.05,8,8,0,0,0,.45-2.79,8.37,8.37,0,0,0-.25-2.12,5.7,5.7,0,0,0-.8-1.8,4,4,0,0,0-1.37-1.23,4.27,4.27,0,0,0-2.05-.45h-4.21l.16-.16V22.73l-.12-.21Z"/><path class="cls-4" d="M657.38,35.13H547.88V0H653.27a4.11,4.11,0,0,1,4.11,4.11v31Z"/><path class="cls-5" d="M607.33,9.73a.76.76,0,0,1,.57.25.86.86,0,0,1,.23.59v8.16a5.55,5.55,0,0,1-8.3,4.81,5.35,5.35,0,0,1-2-2,5.61,5.61,0,0,1-.68-2.83V10.57a.82.82,0,0,1,.24-.59.81.81,0,0,1,.62-.25.82.82,0,0,1,.59.25.75.75,0,0,1,.25.59v8.16a4,4,0,0,0,.52,2,3.78,3.78,0,0,0,3.28,1.89A3.94,3.94,0,0,0,606,20.76a3.68,3.68,0,0,0,.54-2V10.57a.93.93,0,0,1,.21-.59A.69.69,0,0,1,607.33,9.73Z"/><rect class="cls-3" x="327.84" y="0.01" width="2.05" height="175.62"/><rect class="cls-3" x="437.34" y="0.01" width="2.05" height="175.62"/><rect class="cls-3" x="546.85" y="0.01" width="2.05" height="175.62"/><path class="cls-3" d="M649.73,176.65H219V105.4h2.05v69.2H649.73a5.94,5.94,0,0,0,5.94-5.94V105.4h2.05v63.28A8,8,0,0,1,649.73,176.65Z"/><polygon class="cls-3" points="219.03 106.4 109.5 106.4 109.5 5.41 111.55 5.41 111.55 104.35 219.03 104.35 219.03 106.4"/><rect class="cls-4" x="109.52" width="110.6" height="35.12"/><polygon class="cls-3" points="219.03 176.66 109.5 176.66 109.5 75.66 111.55 75.66 111.55 174.6 219.03 174.6 219.03 176.66"/><polygon class="cls-3" points="109.53 106.4 0 106.4 0 5.41 2.05 5.41 2.05 104.35 109.53 104.35 109.53 106.4"/><path class="cls-4" d="M4.11,0H110.6V35.12H0v-31A4.11,4.11,0,0,1,4.11,0Z"/><path class="cls-3" d="M109.5,176.66H7a7,7,0,0,1-7-7v-94H2.05v94A4.92,4.92,0,0,0,7,174.6H109.5Z"/><rect class="cls-3" x="219.03" y="0.01" width="2.05" height="175.62"/><rect class="cls-3" x="109.5" width="2.05" height="39.38"/><path class="cls-5" d="M52.55,10.66a.68.68,0,0,1,.4.55.8.8,0,0,1-.2.68.62.62,0,0,1-.46.29,1.17,1.17,0,0,1-.58-.12,5.9,5.9,0,0,0-3.12-.89,5.65,5.65,0,0,0-2.22.42,5.09,5.09,0,0,0-1.73,1.17,5.31,5.31,0,0,0-1.15,1.81,6.29,6.29,0,0,0-.41,2.31,6.33,6.33,0,0,0,.43,2.43,5.09,5.09,0,0,0,2.92,3,6.11,6.11,0,0,0,3.78.16,6.2,6.2,0,0,0,1.48-.68.93.93,0,0,1,.57-.11.85.85,0,0,1,.49.29.89.89,0,0,1,.18.69.69.69,0,0,1-.39.52,7.28,7.28,0,0,1-1.16.56,8.26,8.26,0,0,1-1.37.4,6.84,6.84,0,0,1-1.42.14,7.54,7.54,0,0,1-2.74-.48A6.93,6.93,0,0,1,42,20a7.66,7.66,0,0,1-.58-3.07A7.59,7.59,0,0,1,41.92,14a7.12,7.12,0,0,1,1.52-2.32,7,7,0,0,1,5.15-2.05,7.54,7.54,0,0,1,2.06.29A6.59,6.59,0,0,1,52.55,10.66Z"/><path class="cls-5" d="M56.28,9.69a1.07,1.07,0,0,1,.4.1,1,1,0,0,1,.34.27l5.43,8.21h-.68l5.47-8.21a.78.78,0,0,1,.69-.37.88.88,0,0,1,.57.25.75.75,0,0,1,.25.59V23.21a.84.84,0,0,1-.25.6.89.89,0,0,1-1.23,0,.84.84,0,0,1-.25-.6V12.09l.52.1L62.7,19.55a1.38,1.38,0,0,1-.3.24.76.76,0,0,1-.36.11.8.8,0,0,1-.37-.11,1,1,0,0,1-.31-.24l-4.79-7.36.43-.53V23.21a.81.81,0,0,1-.22.6.79.79,0,0,1-.58.25.69.69,0,0,1-.56-.25.86.86,0,0,1-.21-.6V10.53a.85.85,0,0,1,.23-.58A.8.8,0,0,1,56.28,9.69Z"/><path class="cls-5" d="M156.19,9.71a5.86,5.86,0,0,1,2.64.56,5.33,5.33,0,0,1,1.89,1.57,6.84,6.84,0,0,1,1.14,2.31,9.38,9.38,0,0,1,.38,2.73,9.22,9.22,0,0,1-.68,3.6,5.92,5.92,0,0,1-2,2.6,5.59,5.59,0,0,1-3.36,1h-5.12a.82.82,0,0,1-.59-.25.78.78,0,0,1-.23-.6V10.53a.78.78,0,0,1,.23-.59.84.84,0,0,1,.59-.23ZM156,22.46a4.06,4.06,0,0,0,2.56-.76A4.3,4.3,0,0,0,160,19.65a8.29,8.29,0,0,0,.46-2.79,8.49,8.49,0,0,0-.26-2.12,5.4,5.4,0,0,0-.8-1.74,4,4,0,0,0-1.36-1.23,4.33,4.33,0,0,0-2.06-.45h-4.2l.16-.16V22.67l-.12-.21Z"/><path class="cls-5" d="M165.81,9.69a1.07,1.07,0,0,1,.4.1.91.91,0,0,1,.34.27L172,18.27h-.68l5.47-8.21a.78.78,0,0,1,.69-.37.88.88,0,0,1,.57.25.73.73,0,0,1,.25.59V23.21a.84.84,0,0,1-.25.6.88.88,0,0,1-1.22,0,.84.84,0,0,1-.25-.6V12.09l.51.1-4.83,7.36a1.23,1.23,0,0,1-.31.24.72.72,0,0,1-.35.11.8.8,0,0,1-.37-.11,1,1,0,0,1-.31-.24l-4.79-7.36.43-.53V23.21a.81.81,0,0,1-.22.6.79.79,0,0,1-.58.25.69.69,0,0,1-.56-.25.87.87,0,0,1-.22-.6V10.53a.87.87,0,0,1,.24-.59A.79.79,0,0,1,165.81,9.69Z"/></g></g><polygon class="cls-4" points="722.09 72.05 699.04 58.75 699.04 64.74 664.61 64.74 664.61 79.37 699.04 79.37 699.04 85.36 722.09 72.05"/><polygon class="cls-4" points="722.09 141.02 699.04 127.72 699.04 133.71 664.61 133.71 664.61 148.34 699.04 148.34 699.04 154.33 722.09 141.02"/></g></g></svg>